<?xml version="1.0" encoding="UTF-8"?>
<svg xmlns="http://www.w3.org/2000/svg" xmlns:xlink="http://www.w3.org/1999/xlink" width="576pt" height="288pt" viewBox="0 0 576 288" version="1.1">
<defs>
<clipPath id="clip1">
  <path d="M 0 0 L 288 0 L 288 288 L 0 288 Z M 0 0 "/>
</clipPath>
<clipPath id="clip2">
  <path d="M 8.21875 5.480469 L 282.519531 5.480469 L 282.519531 279.78125 L 8.21875 279.78125 Z M 8.21875 5.480469 "/>
</clipPath>
<clipPath id="clip3">
  <path d="M 288 0 L 576 0 L 576 288 L 288 288 Z M 288 0 "/>
</clipPath>
<clipPath id="clip4">
  <path d="M 296.21875 5.480469 L 570.519531 5.480469 L 570.519531 279.78125 L 296.21875 279.78125 Z M 296.21875 5.480469 "/>
</clipPath>
</defs>
<g id="surface123">
<rect x="0" y="0" width="576" height="288" style="fill:rgb(100%,100%,100%);fill-opacity:1;stroke:none;"/>
<path style=" stroke:none;fill-rule:nonzero;fill:rgb(100%,100%,100%);fill-opacity:1;" d="M 0 288 L 288 288 L 288 0 L 0 0 Z M 0 288 "/>
<g clip-path="url(#clip1)" clip-rule="nonzero">
<path style="fill:none;stroke-width:1.066978;stroke-linecap:round;stroke-linejoin:round;stroke:rgb(100%,100%,100%);stroke-opacity:1;stroke-miterlimit:10;" d="M 0 288 L 288 288 L 288 0 L 0 0 Z M 0 288 "/>
</g>
<g clip-path="url(#clip2)" clip-rule="nonzero">
<path style="fill-rule:nonzero;fill:rgb(100%,100%,100%);fill-opacity:1;stroke-width:1.066978;stroke-linecap:round;stroke-linejoin:round;stroke:rgb(100%,100%,100%);stroke-opacity:1;stroke-miterlimit:10;" d="M 8.21875 279.78125 L 282.519531 279.78125 L 282.519531 5.480469 L 8.21875 5.480469 Z M 8.21875 279.78125 "/>
</g>
<path style="fill:none;stroke-width:1.066978;stroke-linecap:round;stroke-linejoin:round;stroke:rgb(69.803922%,13.333333%,13.333333%);stroke-opacity:1;stroke-miterlimit:10;" d="M 216.617188 59 L 234.429688 59 "/>
<path style="fill:none;stroke-width:1.066978;stroke-linecap:round;stroke-linejoin:round;stroke:rgb(69.803922%,13.333333%,13.333333%);stroke-opacity:1;stroke-miterlimit:10;" d="M 216.617188 25.550781 L 234.429688 25.550781 "/>
<path style="fill:none;stroke-width:1.066978;stroke-linecap:round;stroke-linejoin:round;stroke:rgb(69.803922%,13.333333%,13.333333%);stroke-opacity:1;stroke-miterlimit:10;" d="M 189.898438 92.453125 L 212.164062 92.453125 "/>
<path style="fill:none;stroke-width:1.066978;stroke-linecap:round;stroke-linejoin:round;stroke:rgb(69.803922%,13.333333%,13.333333%);stroke-opacity:1;stroke-miterlimit:10;" d="M 154.277344 125.90625 L 180.992188 125.90625 "/>
<path style="fill:none;stroke-width:1.066978;stroke-linecap:round;stroke-linejoin:round;stroke:rgb(69.803922%,13.333333%,13.333333%);stroke-opacity:1;stroke-miterlimit:10;" d="M 140.917969 159.355469 L 234.429688 159.355469 "/>
<path style="fill:none;stroke-width:1.066978;stroke-linecap:round;stroke-linejoin:round;stroke:rgb(0%,0%,0%);stroke-opacity:1;stroke-miterlimit:10;" d="M 20.6875 259.710938 L 270.050781 259.710938 "/>
<path style="fill:none;stroke-width:1.066978;stroke-linecap:round;stroke-linejoin:round;stroke:rgb(0%,0%,0%);stroke-opacity:1;stroke-miterlimit:10;" d="M 20.6875 226.519531 L 20.6875 226.519531 "/>
<path style="fill:none;stroke-width:1.066978;stroke-linecap:round;stroke-linejoin:round;stroke:rgb(0%,0%,0%);stroke-opacity:1;stroke-miterlimit:10;" d="M 20.6875 193.328125 L 38.5 193.328125 "/>
<path style="fill:none;stroke-width:1.066978;stroke-linecap:round;stroke-linejoin:round;stroke:rgb(0%,0%,0%);stroke-opacity:1;stroke-miterlimit:10;" d="M 38.5 160.402344 L 96.386719 160.402344 "/>
<path style="fill:none;stroke-width:1.066978;stroke-linecap:round;stroke-linejoin:round;stroke:rgb(69.803922%,13.333333%,13.333333%);stroke-opacity:1;stroke-miterlimit:10;" d="M 96.386719 127.996094 L 140.917969 127.996094 "/>
<path style="fill:none;stroke-width:1.066978;stroke-linecap:round;stroke-linejoin:round;stroke:rgb(69.803922%,13.333333%,13.333333%);stroke-opacity:1;stroke-miterlimit:10;" d="M 140.917969 96.632812 L 154.277344 96.632812 "/>
<path style="fill:none;stroke-width:1.066978;stroke-linecap:round;stroke-linejoin:round;stroke:rgb(69.803922%,13.333333%,13.333333%);stroke-opacity:1;stroke-miterlimit:10;" d="M 154.277344 67.363281 L 189.898438 67.363281 "/>
<path style="fill:none;stroke-width:1.066978;stroke-linecap:round;stroke-linejoin:round;stroke:rgb(69.803922%,13.333333%,13.333333%);stroke-opacity:1;stroke-miterlimit:10;" d="M 189.898438 42.277344 L 216.617188 42.277344 "/>
<path style="fill:none;stroke-width:1.066978;stroke-linecap:round;stroke-linejoin:round;stroke:rgb(27.45098%,50.980392%,70.588235%);stroke-opacity:1;stroke-miterlimit:10;" d="M 96.386719 192.808594 L 154.277344 192.808594 "/>
<path style="fill:none;stroke-width:1.066978;stroke-linecap:round;stroke-linejoin:round;stroke:rgb(0%,0%,0%);stroke-opacity:1;stroke-miterlimit:10;" d="M 38.5 226.257812 L 114.199219 226.257812 "/>
<path style="fill:none;stroke-width:1.066978;stroke-linecap:round;stroke-linejoin:round;stroke:rgb(69.803922%,13.333333%,13.333333%);stroke-opacity:1;stroke-miterlimit:10;" d="M 216.617188 42.277344 L 216.617188 59 "/>
<path style="fill:none;stroke-width:1.066978;stroke-linecap:round;stroke-linejoin:round;stroke:rgb(69.803922%,13.333333%,13.333333%);stroke-opacity:1;stroke-miterlimit:10;" d="M 216.617188 42.277344 L 216.617188 25.550781 "/>
<path style="fill:none;stroke-width:1.066978;stroke-linecap:round;stroke-linejoin:round;stroke:rgb(69.803922%,13.333333%,13.333333%);stroke-opacity:1;stroke-miterlimit:10;" d="M 189.898438 67.363281 L 189.898438 92.453125 "/>
<path style="fill:none;stroke-width:1.066978;stroke-linecap:round;stroke-linejoin:round;stroke:rgb(69.803922%,13.333333%,13.333333%);stroke-opacity:1;stroke-miterlimit:10;" d="M 154.277344 96.632812 L 154.277344 125.90625 "/>
<path style="fill:none;stroke-width:1.066978;stroke-linecap:round;stroke-linejoin:round;stroke:rgb(69.803922%,13.333333%,13.333333%);stroke-opacity:1;stroke-miterlimit:10;" d="M 140.917969 127.996094 L 140.917969 159.355469 "/>
<path style="fill:none;stroke-width:1.066978;stroke-linecap:round;stroke-linejoin:round;stroke:rgb(0%,0%,0%);stroke-opacity:1;stroke-miterlimit:10;" d="M 20.6875 226.519531 L 20.6875 259.710938 "/>
<path style="fill:none;stroke-width:1.066978;stroke-linecap:round;stroke-linejoin:round;stroke:rgb(0%,0%,0%);stroke-opacity:1;stroke-miterlimit:10;" d="M 20.6875 226.519531 L 20.6875 226.519531 "/>
<path style="fill:none;stroke-width:1.066978;stroke-linecap:round;stroke-linejoin:round;stroke:rgb(0%,0%,0%);stroke-opacity:1;stroke-miterlimit:10;" d="M 20.6875 226.519531 L 20.6875 193.328125 "/>
<path style="fill:none;stroke-width:1.066978;stroke-linecap:round;stroke-linejoin:round;stroke:rgb(0%,0%,0%);stroke-opacity:1;stroke-miterlimit:10;" d="M 38.5 193.328125 L 38.5 160.402344 "/>
<path style="fill:none;stroke-width:1.066978;stroke-linecap:round;stroke-linejoin:round;stroke:rgb(69.803922%,13.333333%,13.333333%);stroke-opacity:1;stroke-miterlimit:10;" d="M 96.386719 160.402344 L 96.386719 127.996094 "/>
<path style="fill:none;stroke-width:1.066978;stroke-linecap:round;stroke-linejoin:round;stroke:rgb(69.803922%,13.333333%,13.333333%);stroke-opacity:1;stroke-miterlimit:10;" d="M 140.917969 127.996094 L 140.917969 96.632812 "/>
<path style="fill:none;stroke-width:1.066978;stroke-linecap:round;stroke-linejoin:round;stroke:rgb(69.803922%,13.333333%,13.333333%);stroke-opacity:1;stroke-miterlimit:10;" d="M 154.277344 96.632812 L 154.277344 67.363281 "/>
<path style="fill:none;stroke-width:1.066978;stroke-linecap:round;stroke-linejoin:round;stroke:rgb(69.803922%,13.333333%,13.333333%);stroke-opacity:1;stroke-miterlimit:10;" d="M 189.898438 67.363281 L 189.898438 42.277344 "/>
<path style="fill:none;stroke-width:1.066978;stroke-linecap:round;stroke-linejoin:round;stroke:rgb(27.45098%,50.980392%,70.588235%);stroke-opacity:1;stroke-miterlimit:10;" d="M 96.386719 160.402344 L 96.386719 192.808594 "/>
<path style="fill:none;stroke-width:1.066978;stroke-linecap:round;stroke-linejoin:round;stroke:rgb(0%,0%,0%);stroke-opacity:1;stroke-miterlimit:10;" d="M 38.5 193.328125 L 38.5 226.257812 "/>
<path style="fill-rule:nonzero;fill:rgb(0%,100%,0%);fill-opacity:1;stroke-width:0.708661;stroke-linecap:round;stroke-linejoin:round;stroke:rgb(27.45098%,50.980392%,70.588235%);stroke-opacity:1;stroke-miterlimit:10;" d="M 159.964844 192.808594 C 159.964844 195.949219 157.417969 198.496094 154.277344 198.496094 C 151.132812 198.496094 148.585938 195.949219 148.585938 192.808594 C 148.585938 189.664062 151.132812 187.117188 154.277344 187.117188 C 157.417969 187.117188 159.964844 189.664062 159.964844 192.808594 "/>
<path style="fill-rule:nonzero;fill:rgb(100%,0%,0%);fill-opacity:1;stroke-width:0.708661;stroke-linecap:round;stroke-linejoin:round;stroke:rgb(0%,0%,0%);stroke-opacity:1;stroke-miterlimit:10;" d="M 114.199219 233.390625 L 121.328125 226.257812 L 114.199219 219.128906 L 107.070312 226.257812 Z M 114.199219 233.390625 "/>
<path style=" stroke:none;fill-rule:evenodd;fill:rgb(0%,0%,0%);fill-opacity:1;" d="M 12.800781 14.449219 L 11.945312 11.988281 L 8.273438 11.988281 L 7.421875 14.449219 L 5.402344 14.449219 L 8.917969 4.816406 L 11.296875 4.816406 L 14.796875 14.449219 Z M 10.542969 7.699219 L 10.496094 7.558594 L 10.480469 7.507812 L 10.460938 7.460938 L 10.429688 7.367188 L 10.414062 7.316406 L 10.398438 7.269531 L 10.378906 7.222656 L 10.367188 7.171875 L 10.335938 7.078125 L 10.324219 7.03125 L 10.308594 6.988281 L 10.296875 6.945312 L 10.28125 6.902344 L 10.257812 6.816406 L 10.242188 6.777344 L 10.234375 6.738281 L 10.210938 6.660156 L 10.203125 6.625 L 10.191406 6.589844 L 10.183594 6.558594 L 10.171875 6.527344 L 10.164062 6.496094 L 10.148438 6.441406 L 10.140625 6.417969 L 10.136719 6.394531 L 10.128906 6.375 L 10.117188 6.328125 L 10.113281 6.316406 L 10.109375 6.308594 L 10.109375 6.304688 L 10.105469 6.300781 L 10.105469 6.304688 L 10.101562 6.3125 L 10.101562 6.320312 L 10.097656 6.332031 L 10.089844 6.363281 L 10.082031 6.382812 L 10.078125 6.402344 L 10.074219 6.425781 L 10.066406 6.449219 L 10.050781 6.503906 L 10.035156 6.566406 L 10.023438 6.597656 L 10.015625 6.628906 L 10.003906 6.664062 L 9.992188 6.703125 L 9.980469 6.738281 L 9.96875 6.777344 L 9.960938 6.816406 L 9.945312 6.859375 L 9.910156 6.988281 L 9.894531 7.03125 L 9.863281 7.125 L 9.851562 7.171875 L 9.832031 7.222656 L 9.820312 7.269531 L 9.804688 7.316406 L 9.789062 7.367188 L 9.742188 7.507812 L 9.726562 7.558594 L 9.707031 7.605469 L 9.675781 7.699219 L 8.726562 10.46875 L 11.496094 10.46875 Z M 10.542969 7.699219 "/>
<path style=" stroke:none;fill-rule:evenodd;fill:rgb(100%,100%,100%);fill-opacity:1;" d="M 288 288 L 576 288 L 576 0 L 288 0 Z M 288 288 "/>
<g clip-path="url(#clip3)" clip-rule="nonzero">
<path style="fill:none;stroke-width:1.066978;stroke-linecap:round;stroke-linejoin:round;stroke:rgb(100%,100%,100%);stroke-opacity:1;stroke-miterlimit:10;" d="M 288 288 L 576 288 L 576 0 L 288 0 Z M 288 288 "/>
</g>
<g clip-path="url(#clip4)" clip-rule="nonzero">
<path style="fill-rule:evenodd;fill:rgb(100%,100%,100%);fill-opacity:1;stroke-width:1.066978;stroke-linecap:round;stroke-linejoin:round;stroke:rgb(100%,100%,100%);stroke-opacity:1;stroke-miterlimit:10;" d="M 296.21875 279.78125 L 570.519531 279.78125 L 570.519531 5.480469 L 296.21875 5.480469 Z M 296.21875 279.78125 "/>
</g>
<path style="fill:none;stroke-width:1.066978;stroke-linecap:round;stroke-linejoin:round;stroke:rgb(69.803922%,13.333333%,13.333333%);stroke-opacity:1;stroke-miterlimit:10;" d="M 504.617188 38.726562 L 522.429688 38.726562 "/>
<path style="fill:none;stroke-width:1.066978;stroke-linecap:round;stroke-linejoin:round;stroke:rgb(69.803922%,13.333333%,13.333333%);stroke-opacity:1;stroke-miterlimit:10;" d="M 504.617188 17.949219 L 522.429688 17.949219 "/>
<path style="fill:none;stroke-width:1.066978;stroke-linecap:round;stroke-linejoin:round;stroke:rgb(69.803922%,13.333333%,13.333333%);stroke-opacity:1;stroke-miterlimit:10;" d="M 477.898438 59.507812 L 500.164062 59.507812 "/>
<path style="fill:none;stroke-width:1.066978;stroke-linecap:round;stroke-linejoin:round;stroke:rgb(69.803922%,13.333333%,13.333333%);stroke-opacity:1;stroke-miterlimit:10;" d="M 442.277344 80.289062 L 468.992188 80.289062 "/>
<path style="fill:none;stroke-width:1.066978;stroke-linecap:round;stroke-linejoin:round;stroke:rgb(69.803922%,13.333333%,13.333333%);stroke-opacity:1;stroke-miterlimit:10;" d="M 428.917969 101.070312 L 522.429688 101.070312 "/>
<path style="fill:none;stroke-width:1.066978;stroke-linecap:round;stroke-linejoin:round;stroke:rgb(27.45098%,50.980392%,70.588235%);stroke-opacity:1;stroke-miterlimit:10;" d="M 504.617188 142.628906 L 522.429688 142.628906 "/>
<path style="fill:none;stroke-width:1.066978;stroke-linecap:round;stroke-linejoin:round;stroke:rgb(27.45098%,50.980392%,70.588235%);stroke-opacity:1;stroke-miterlimit:10;" d="M 504.617188 121.851562 L 558.050781 121.851562 "/>
<path style="fill:none;stroke-width:1.066978;stroke-linecap:round;stroke-linejoin:round;stroke:rgb(27.45098%,50.980392%,70.588235%);stroke-opacity:1;stroke-miterlimit:10;" d="M 442.277344 163.410156 L 477.898438 163.410156 "/>
<path style="fill:none;stroke-width:1.066978;stroke-linecap:round;stroke-linejoin:round;stroke:rgb(0%,0%,0%);stroke-opacity:1;stroke-miterlimit:10;" d="M 535.789062 246.53125 L 558.050781 246.53125 "/>
<path style="fill:none;stroke-width:1.066978;stroke-linecap:round;stroke-linejoin:round;stroke:rgb(0%,0%,0%);stroke-opacity:1;stroke-miterlimit:10;" d="M 535.789062 225.75 L 544.695312 225.75 "/>
<path style="fill:none;stroke-width:1.066978;stroke-linecap:round;stroke-linejoin:round;stroke:rgb(0%,0%,0%);stroke-opacity:1;stroke-miterlimit:10;" d="M 411.105469 204.972656 L 460.085938 204.972656 "/>
<path style="fill:none;stroke-width:1.066978;stroke-linecap:round;stroke-linejoin:round;stroke:rgb(0%,0%,0%);stroke-opacity:1;stroke-miterlimit:10;" d="M 411.105469 184.191406 L 460.085938 184.191406 "/>
<path style="fill:none;stroke-width:1.066978;stroke-linecap:round;stroke-linejoin:round;stroke:rgb(0%,0%,0%);stroke-opacity:1;stroke-miterlimit:10;" d="M 308.6875 267.3125 L 558.050781 267.3125 "/>
<path style="fill:none;stroke-width:1.066978;stroke-linecap:round;stroke-linejoin:round;stroke:rgb(0%,0%,0%);stroke-opacity:1;stroke-miterlimit:10;" d="M 308.6875 216.171875 L 308.6875 216.171875 "/>
<path style="fill:none;stroke-width:1.066978;stroke-linecap:round;stroke-linejoin:round;stroke:rgb(0%,0%,0%);stroke-opacity:1;stroke-miterlimit:10;" d="M 308.6875 165.035156 L 326.5 165.035156 "/>
<path style="fill:none;stroke-width:1.066978;stroke-linecap:round;stroke-linejoin:round;stroke:rgb(0%,0%,0%);stroke-opacity:1;stroke-miterlimit:10;" d="M 326.5 114.707031 L 384.386719 114.707031 "/>
<path style="fill:none;stroke-width:1.066978;stroke-linecap:round;stroke-linejoin:round;stroke:rgb(69.803922%,13.333333%,13.333333%);stroke-opacity:1;stroke-miterlimit:10;" d="M 384.386719 81.585938 L 428.917969 81.585938 "/>
<path style="fill:none;stroke-width:1.066978;stroke-linecap:round;stroke-linejoin:round;stroke:rgb(69.803922%,13.333333%,13.333333%);stroke-opacity:1;stroke-miterlimit:10;" d="M 428.917969 62.105469 L 442.277344 62.105469 "/>
<path style="fill:none;stroke-width:1.066978;stroke-linecap:round;stroke-linejoin:round;stroke:rgb(69.803922%,13.333333%,13.333333%);stroke-opacity:1;stroke-miterlimit:10;" d="M 442.277344 43.921875 L 477.898438 43.921875 "/>
<path style="fill:none;stroke-width:1.066978;stroke-linecap:round;stroke-linejoin:round;stroke:rgb(69.803922%,13.333333%,13.333333%);stroke-opacity:1;stroke-miterlimit:10;" d="M 477.898438 28.339844 L 504.617188 28.339844 "/>
<path style="fill:none;stroke-width:1.066978;stroke-linecap:round;stroke-linejoin:round;stroke:rgb(27.45098%,50.980392%,70.588235%);stroke-opacity:1;stroke-miterlimit:10;" d="M 384.386719 147.824219 L 442.277344 147.824219 "/>
<path style="fill:none;stroke-width:1.066978;stroke-linecap:round;stroke-linejoin:round;stroke:rgb(27.45098%,50.980392%,70.588235%);stroke-opacity:1;stroke-miterlimit:10;" d="M 442.277344 132.238281 L 504.617188 132.238281 "/>
<path style="fill:none;stroke-width:1.066978;stroke-linecap:round;stroke-linejoin:round;stroke:rgb(0%,0%,0%);stroke-opacity:1;stroke-miterlimit:10;" d="M 326.5 215.363281 L 402.199219 215.363281 "/>
<path style="fill:none;stroke-width:1.066978;stroke-linecap:round;stroke-linejoin:round;stroke:rgb(0%,0%,0%);stroke-opacity:1;stroke-miterlimit:10;" d="M 402.199219 236.140625 L 535.789062 236.140625 "/>
<path style="fill:none;stroke-width:1.066978;stroke-linecap:round;stroke-linejoin:round;stroke:rgb(0%,0%,0%);stroke-opacity:1;stroke-miterlimit:10;" d="M 402.199219 194.582031 L 411.105469 194.582031 "/>
<path style="fill:none;stroke-width:1.066978;stroke-linecap:round;stroke-linejoin:round;stroke:rgb(69.803922%,13.333333%,13.333333%);stroke-opacity:1;stroke-miterlimit:10;" d="M 504.617188 28.339844 L 504.617188 38.726562 "/>
<path style="fill:none;stroke-width:1.066978;stroke-linecap:round;stroke-linejoin:round;stroke:rgb(69.803922%,13.333333%,13.333333%);stroke-opacity:1;stroke-miterlimit:10;" d="M 504.617188 28.339844 L 504.617188 17.949219 "/>
<path style="fill:none;stroke-width:1.066978;stroke-linecap:round;stroke-linejoin:round;stroke:rgb(69.803922%,13.333333%,13.333333%);stroke-opacity:1;stroke-miterlimit:10;" d="M 477.898438 43.921875 L 477.898438 59.507812 "/>
<path style="fill:none;stroke-width:1.066978;stroke-linecap:round;stroke-linejoin:round;stroke:rgb(69.803922%,13.333333%,13.333333%);stroke-opacity:1;stroke-miterlimit:10;" d="M 442.277344 62.105469 L 442.277344 80.289062 "/>
<path style="fill:none;stroke-width:1.066978;stroke-linecap:round;stroke-linejoin:round;stroke:rgb(69.803922%,13.333333%,13.333333%);stroke-opacity:1;stroke-miterlimit:10;" d="M 428.917969 81.585938 L 428.917969 101.070312 "/>
<path style="fill:none;stroke-width:1.066978;stroke-linecap:round;stroke-linejoin:round;stroke:rgb(27.45098%,50.980392%,70.588235%);stroke-opacity:1;stroke-miterlimit:10;" d="M 504.617188 132.238281 L 504.617188 142.628906 "/>
<path style="fill:none;stroke-width:1.066978;stroke-linecap:round;stroke-linejoin:round;stroke:rgb(27.45098%,50.980392%,70.588235%);stroke-opacity:1;stroke-miterlimit:10;" d="M 504.617188 132.238281 L 504.617188 121.851562 "/>
<path style="fill:none;stroke-width:1.066978;stroke-linecap:round;stroke-linejoin:round;stroke:rgb(27.45098%,50.980392%,70.588235%);stroke-opacity:1;stroke-miterlimit:10;" d="M 442.277344 147.824219 L 442.277344 163.410156 "/>
<path style="fill:none;stroke-width:1.066978;stroke-linecap:round;stroke-linejoin:round;stroke:rgb(0%,0%,0%);stroke-opacity:1;stroke-miterlimit:10;" d="M 535.789062 236.140625 L 535.789062 246.53125 "/>
<path style="fill:none;stroke-width:1.066978;stroke-linecap:round;stroke-linejoin:round;stroke:rgb(0%,0%,0%);stroke-opacity:1;stroke-miterlimit:10;" d="M 535.789062 236.140625 L 535.789062 225.75 "/>
<path style="fill:none;stroke-width:1.066978;stroke-linecap:round;stroke-linejoin:round;stroke:rgb(0%,0%,0%);stroke-opacity:1;stroke-miterlimit:10;" d="M 411.105469 194.582031 L 411.105469 204.972656 "/>
<path style="fill:none;stroke-width:1.066978;stroke-linecap:round;stroke-linejoin:round;stroke:rgb(0%,0%,0%);stroke-opacity:1;stroke-miterlimit:10;" d="M 411.105469 194.582031 L 411.105469 184.191406 "/>
<path style="fill:none;stroke-width:1.066978;stroke-linecap:round;stroke-linejoin:round;stroke:rgb(0%,0%,0%);stroke-opacity:1;stroke-miterlimit:10;" d="M 308.6875 216.171875 L 308.6875 267.3125 "/>
<path style="fill:none;stroke-width:1.066978;stroke-linecap:round;stroke-linejoin:round;stroke:rgb(0%,0%,0%);stroke-opacity:1;stroke-miterlimit:10;" d="M 308.6875 216.171875 L 308.6875 216.171875 "/>
<path style="fill:none;stroke-width:1.066978;stroke-linecap:round;stroke-linejoin:round;stroke:rgb(0%,0%,0%);stroke-opacity:1;stroke-miterlimit:10;" d="M 308.6875 216.171875 L 308.6875 165.035156 "/>
<path style="fill:none;stroke-width:1.066978;stroke-linecap:round;stroke-linejoin:round;stroke:rgb(0%,0%,0%);stroke-opacity:1;stroke-miterlimit:10;" d="M 326.5 165.035156 L 326.5 114.707031 "/>
<path style="fill:none;stroke-width:1.066978;stroke-linecap:round;stroke-linejoin:round;stroke:rgb(69.803922%,13.333333%,13.333333%);stroke-opacity:1;stroke-miterlimit:10;" d="M 384.386719 114.707031 L 384.386719 81.585938 "/>
<path style="fill:none;stroke-width:1.066978;stroke-linecap:round;stroke-linejoin:round;stroke:rgb(69.803922%,13.333333%,13.333333%);stroke-opacity:1;stroke-miterlimit:10;" d="M 428.917969 81.585938 L 428.917969 62.105469 "/>
<path style="fill:none;stroke-width:1.066978;stroke-linecap:round;stroke-linejoin:round;stroke:rgb(69.803922%,13.333333%,13.333333%);stroke-opacity:1;stroke-miterlimit:10;" d="M 442.277344 62.105469 L 442.277344 43.921875 "/>
<path style="fill:none;stroke-width:1.066978;stroke-linecap:round;stroke-linejoin:round;stroke:rgb(69.803922%,13.333333%,13.333333%);stroke-opacity:1;stroke-miterlimit:10;" d="M 477.898438 43.921875 L 477.898438 28.339844 "/>
<path style="fill:none;stroke-width:1.066978;stroke-linecap:round;stroke-linejoin:round;stroke:rgb(27.45098%,50.980392%,70.588235%);stroke-opacity:1;stroke-miterlimit:10;" d="M 384.386719 114.707031 L 384.386719 147.824219 "/>
<path style="fill:none;stroke-width:1.066978;stroke-linecap:round;stroke-linejoin:round;stroke:rgb(27.45098%,50.980392%,70.588235%);stroke-opacity:1;stroke-miterlimit:10;" d="M 442.277344 147.824219 L 442.277344 132.238281 "/>
<path style="fill:none;stroke-width:1.066978;stroke-linecap:round;stroke-linejoin:round;stroke:rgb(0%,0%,0%);stroke-opacity:1;stroke-miterlimit:10;" d="M 326.5 165.035156 L 326.5 215.363281 "/>
<path style="fill:none;stroke-width:1.066978;stroke-linecap:round;stroke-linejoin:round;stroke:rgb(0%,0%,0%);stroke-opacity:1;stroke-miterlimit:10;" d="M 402.199219 215.363281 L 402.199219 236.140625 "/>
<path style="fill:none;stroke-width:1.066978;stroke-linecap:round;stroke-linejoin:round;stroke:rgb(0%,0%,0%);stroke-opacity:1;stroke-miterlimit:10;" d="M 402.199219 215.363281 L 402.199219 194.582031 "/>
<path style="fill-rule:evenodd;fill:rgb(0%,100%,0%);fill-opacity:1;stroke-width:0.708661;stroke-linecap:round;stroke-linejoin:round;stroke:rgb(27.45098%,50.980392%,70.588235%);stroke-opacity:1;stroke-miterlimit:10;" d="M 447.964844 147.824219 C 447.964844 150.96875 445.417969 153.515625 442.277344 153.515625 C 439.132812 153.515625 436.585938 150.96875 436.585938 147.824219 C 436.585938 144.683594 439.132812 142.136719 442.277344 142.136719 C 445.417969 142.136719 447.964844 144.683594 447.964844 147.824219 "/>
<path style="fill-rule:evenodd;fill:rgb(100%,0%,0%);fill-opacity:1;stroke-width:0.708661;stroke-linecap:round;stroke-linejoin:round;stroke:rgb(0%,0%,0%);stroke-opacity:1;stroke-miterlimit:10;" d="M 402.199219 222.492188 L 409.328125 215.363281 L 402.199219 208.230469 L 395.070312 215.363281 Z M 402.199219 222.492188 "/>
<path style=" stroke:none;fill-rule:evenodd;fill:rgb(0%,0%,0%);fill-opacity:1;" d="M 302.53125 11.699219 L 302.527344 11.84375 L 302.519531 11.984375 L 302.503906 12.121094 L 302.484375 12.253906 L 302.457031 12.378906 L 302.425781 12.503906 L 302.386719 12.625 L 302.292969 12.851562 L 302.234375 12.957031 L 302.175781 13.058594 L 302.109375 13.15625 L 302.039062 13.253906 L 301.964844 13.34375 L 301.886719 13.429688 L 301.804688 13.515625 L 301.71875 13.59375 L 301.625 13.671875 L 301.53125 13.742188 L 301.429688 13.8125 L 301.328125 13.875 L 301.21875 13.9375 L 301.109375 13.992188 L 300.996094 14.046875 L 300.878906 14.097656 L 300.761719 14.144531 L 300.636719 14.1875 L 300.511719 14.226562 L 300.378906 14.265625 L 300.246094 14.296875 L 299.972656 14.351562 L 299.832031 14.375 L 299.691406 14.394531 L 299.550781 14.410156 L 299.40625 14.421875 L 299.257812 14.433594 L 299.109375 14.441406 L 298.8125 14.449219 L 293.992188 14.449219 L 293.992188 4.816406 L 298.570312 4.816406 L 298.734375 4.820312 L 298.894531 4.828125 L 299.054688 4.839844 L 299.207031 4.855469 L 299.355469 4.871094 L 299.503906 4.890625 L 299.785156 4.9375 L 299.917969 4.964844 L 300.050781 4.996094 L 300.179688 5.03125 L 300.300781 5.066406 L 300.421875 5.105469 L 300.535156 5.148438 L 300.644531 5.195312 L 300.753906 5.246094 L 300.855469 5.296875 L 300.953125 5.351562 L 301.046875 5.410156 L 301.136719 5.472656 L 301.300781 5.605469 L 301.375 5.675781 L 301.449219 5.75 L 301.515625 5.828125 L 301.578125 5.910156 L 301.636719 5.992188 L 301.6875 6.078125 L 301.738281 6.167969 L 301.824219 6.355469 L 301.859375 6.453125 L 301.890625 6.554688 L 301.917969 6.660156 L 301.9375 6.769531 L 301.953125 6.882812 L 301.964844 6.996094 L 301.972656 7.113281 L 301.976562 7.234375 L 301.972656 7.398438 L 301.957031 7.554688 L 301.933594 7.707031 L 301.902344 7.851562 L 301.863281 7.992188 L 301.8125 8.128906 L 301.75 8.261719 L 301.683594 8.386719 L 301.605469 8.507812 L 301.519531 8.625 L 301.421875 8.730469 L 301.320312 8.832031 L 301.203125 8.925781 L 301.082031 9.015625 L 300.949219 9.09375 L 300.804688 9.164062 L 300.652344 9.230469 L 300.488281 9.289062 L 300.320312 9.339844 L 300.136719 9.382812 L 300.367188 9.414062 L 300.582031 9.457031 L 300.789062 9.507812 L 300.984375 9.566406 L 301.167969 9.636719 L 301.339844 9.714844 L 301.5 9.800781 L 301.648438 9.898438 L 301.789062 10.003906 L 301.914062 10.121094 L 302.03125 10.242188 L 302.136719 10.375 L 302.226562 10.511719 L 302.308594 10.660156 L 302.375 10.8125 L 302.429688 10.972656 L 302.472656 11.144531 L 302.503906 11.320312 L 302.523438 11.507812 Z M 299.945312 7.507812 L 299.941406 7.382812 L 299.929688 7.265625 L 299.910156 7.152344 L 299.878906 7.050781 L 299.839844 6.953125 L 299.796875 6.867188 L 299.742188 6.785156 L 299.679688 6.710938 L 299.609375 6.644531 L 299.527344 6.585938 L 299.441406 6.535156 L 299.347656 6.488281 L 299.246094 6.445312 L 299.136719 6.410156 L 299.019531 6.382812 L 298.890625 6.355469 L 298.757812 6.335938 L 298.613281 6.324219 L 298.464844 6.316406 L 298.304688 6.3125 L 296.007812 6.3125 L 296.007812 8.699219 L 298.320312 8.699219 L 298.484375 8.695312 L 298.640625 8.6875 L 298.789062 8.671875 L 298.925781 8.652344 L 299.054688 8.625 L 299.175781 8.59375 L 299.285156 8.554688 L 299.382812 8.511719 L 299.476562 8.460938 L 299.554688 8.40625 L 299.628906 8.339844 L 299.695312 8.273438 L 299.753906 8.199219 L 299.804688 8.117188 L 299.847656 8.03125 L 299.882812 7.9375 L 299.910156 7.839844 L 299.929688 7.734375 L 299.941406 7.625 Z M 300.507812 11.542969 L 300.5 11.394531 L 300.492188 11.324219 L 300.46875 11.191406 L 300.453125 11.128906 L 300.433594 11.066406 L 300.410156 11.007812 L 300.355469 10.898438 L 300.324219 10.847656 L 300.292969 10.800781 L 300.253906 10.753906 L 300.21875 10.707031 L 300.175781 10.664062 L 300.089844 10.585938 L 300.039062 10.550781 L 299.992188 10.515625 L 299.9375 10.484375 L 299.886719 10.453125 L 299.832031 10.421875 L 299.773438 10.398438 L 299.714844 10.371094 L 299.65625 10.347656 L 299.59375 10.328125 L 299.527344 10.304688 L 299.394531 10.273438 L 299.324219 10.257812 L 299.183594 10.234375 L 299.109375 10.222656 L 298.960938 10.207031 L 298.882812 10.199219 L 298.726562 10.191406 L 298.644531 10.191406 L 298.566406 10.1875 L 296.007812 10.1875 L 296.007812 12.949219 L 298.796875 12.949219 L 298.875 12.945312 L 298.949219 12.941406 L 299.023438 12.933594 L 299.097656 12.929688 L 299.167969 12.921875 L 299.238281 12.910156 L 299.308594 12.902344 L 299.378906 12.890625 L 299.511719 12.859375 L 299.636719 12.820312 L 299.753906 12.773438 L 299.808594 12.75 L 299.917969 12.695312 L 299.964844 12.664062 L 300.015625 12.628906 L 300.0625 12.59375 L 300.109375 12.554688 L 300.152344 12.515625 L 300.191406 12.472656 L 300.230469 12.425781 L 300.300781 12.332031 L 300.332031 12.28125 L 300.363281 12.226562 L 300.390625 12.171875 L 300.414062 12.109375 L 300.4375 12.050781 L 300.46875 11.917969 L 300.484375 11.847656 L 300.492188 11.777344 L 300.5 11.699219 L 300.503906 11.625 Z M 300.507812 11.542969 "/>
</g>
</svg>
