<?xml version="1.0" encoding="UTF-8"?>
<svg xmlns="http://www.w3.org/2000/svg" xmlns:xlink="http://www.w3.org/1999/xlink" width="648pt" height="216pt" viewBox="0 0 648 216" version="1.1">
<defs>
<clipPath id="clip1">
  <path d="M 18.070312 22.128906 L 222.566406 22.128906 L 222.566406 197.933594 L 18.070312 197.933594 Z M 18.070312 22.128906 "/>
</clipPath>
<clipPath id="clip2">
  <path d="M 228.046875 22.128906 L 432.542969 22.128906 L 432.542969 197.933594 L 228.046875 197.933594 Z M 228.046875 22.128906 "/>
</clipPath>
<clipPath id="clip3">
  <path d="M 438.023438 22.128906 L 642.519531 22.128906 L 642.519531 197.933594 L 438.023438 197.933594 Z M 438.023438 22.128906 "/>
</clipPath>
<clipPath id="clip4">
  <path d="M 18.070312 5.480469 L 222.566406 5.480469 L 222.566406 22.128906 L 18.070312 22.128906 Z M 18.070312 5.480469 "/>
</clipPath>
<clipPath id="clip5">
  <path d="M 228.046875 5.480469 L 432.542969 5.480469 L 432.542969 22.128906 L 228.046875 22.128906 Z M 228.046875 5.480469 "/>
</clipPath>
<clipPath id="clip6">
  <path d="M 438.023438 5.480469 L 642.519531 5.480469 L 642.519531 22.128906 L 438.023438 22.128906 Z M 438.023438 5.480469 "/>
</clipPath>
</defs>
<g id="surface236">
<rect x="0" y="0" width="648" height="216" style="fill:rgb(100%,100%,100%);fill-opacity:1;stroke:none;"/>
<rect x="0" y="0" width="648" height="216" style="fill:rgb(100%,100%,100%);fill-opacity:1;stroke:none;"/>
<path style="fill:none;stroke-width:1.066978;stroke-linecap:round;stroke-linejoin:round;stroke:rgb(100%,100%,100%);stroke-opacity:1;stroke-miterlimit:10;" d="M 0 216 L 648 216 L 648 0 L 0 0 Z M 0 216 "/>
<g clip-path="url(#clip1)" clip-rule="nonzero">
<path style=" stroke:none;fill-rule:nonzero;fill:rgb(92.156863%,92.156863%,92.156863%);fill-opacity:1;" d="M 18.070312 197.929688 L 222.566406 197.929688 L 222.566406 22.125 L 18.070312 22.125 Z M 18.070312 197.929688 "/>
</g>
<g clip-path="url(#clip2)" clip-rule="nonzero">
<path style=" stroke:none;fill-rule:nonzero;fill:rgb(92.156863%,92.156863%,92.156863%);fill-opacity:1;" d="M 228.046875 197.929688 L 432.542969 197.929688 L 432.542969 22.125 L 228.046875 22.125 Z M 228.046875 197.929688 "/>
</g>
<g clip-path="url(#clip3)" clip-rule="nonzero">
<path style=" stroke:none;fill-rule:nonzero;fill:rgb(92.156863%,92.156863%,92.156863%);fill-opacity:1;" d="M 438.023438 197.929688 L 642.519531 197.929688 L 642.519531 22.125 L 438.023438 22.125 Z M 438.023438 197.929688 "/>
</g>
<g clip-path="url(#clip4)" clip-rule="nonzero">
<path style=" stroke:none;fill-rule:nonzero;fill:rgb(85.098039%,85.098039%,85.098039%);fill-opacity:1;" d="M 18.070312 22.128906 L 222.566406 22.128906 L 222.566406 5.480469 L 18.070312 5.480469 Z M 18.070312 22.128906 "/>
</g>
<path style=" stroke:none;fill-rule:evenodd;fill:rgb(10.196078%,10.196078%,10.196078%);fill-opacity:1;" d="M 111.617188 16.082031 L 111.574219 16.167969 L 111.527344 16.25 L 111.476562 16.328125 L 111.421875 16.398438 L 111.367188 16.464844 L 111.308594 16.527344 L 111.246094 16.585938 L 111.183594 16.636719 L 111.117188 16.683594 L 111.046875 16.722656 L 110.898438 16.792969 L 110.820312 16.820312 L 110.738281 16.847656 L 110.652344 16.867188 L 110.5625 16.886719 L 110.46875 16.898438 L 110.371094 16.910156 L 110.273438 16.914062 L 110.167969 16.917969 L 109.996094 16.910156 L 109.835938 16.894531 L 109.683594 16.863281 L 109.539062 16.820312 L 109.40625 16.769531 L 109.277344 16.703125 L 109.164062 16.625 L 109.058594 16.535156 L 108.960938 16.4375 L 108.871094 16.324219 L 108.792969 16.199219 L 108.722656 16.0625 L 108.660156 15.914062 L 108.609375 15.75 L 108.5625 15.578125 L 108.523438 15.390625 L 108.496094 15.195312 L 108.476562 14.984375 L 108.464844 14.761719 L 108.460938 14.527344 L 108.476562 14.066406 L 108.527344 13.652344 L 108.613281 13.285156 L 108.734375 12.972656 L 108.886719 12.703125 L 109.074219 12.484375 L 109.296875 12.3125 L 109.554688 12.191406 L 109.84375 12.121094 L 110.167969 12.09375 L 110.273438 12.097656 L 110.375 12.101562 L 110.5625 12.125 L 110.652344 12.144531 L 110.738281 12.164062 L 110.824219 12.191406 L 110.902344 12.21875 L 110.976562 12.25 L 111.050781 12.289062 L 111.121094 12.328125 L 111.183594 12.375 L 111.25 12.425781 L 111.308594 12.480469 L 111.367188 12.539062 L 111.421875 12.601562 L 111.476562 12.671875 L 111.527344 12.742188 L 111.574219 12.820312 L 111.617188 12.902344 L 111.625 12.902344 L 111.625 12.804688 L 111.621094 12.789062 L 111.621094 12.636719 L 111.617188 12.617188 L 111.617188 10.453125 L 112.390625 10.453125 L 112.390625 16.253906 L 112.394531 16.285156 L 112.394531 16.371094 L 112.398438 16.398438 L 112.398438 16.503906 L 112.402344 16.527344 L 112.402344 16.597656 L 112.40625 16.621094 L 112.40625 16.703125 L 112.410156 16.71875 L 112.410156 16.765625 L 112.414062 16.777344 L 112.414062 16.820312 L 112.417969 16.832031 L 111.675781 16.832031 L 111.675781 16.8125 L 111.671875 16.800781 L 111.671875 16.789062 L 111.667969 16.777344 L 111.667969 16.765625 L 111.664062 16.753906 L 111.664062 16.738281 L 111.660156 16.726562 L 111.660156 16.675781 L 111.65625 16.660156 L 111.65625 16.625 L 111.652344 16.605469 L 111.652344 16.566406 L 111.648438 16.546875 L 111.648438 16.523438 L 111.644531 16.503906 L 111.644531 16.421875 L 111.640625 16.398438 L 111.640625 16.308594 L 111.636719 16.289062 L 111.636719 16.148438 L 111.632812 16.128906 L 111.632812 16.082031 Z M 109.269531 14.5 L 109.273438 14.597656 L 109.273438 14.6875 L 109.277344 14.777344 L 109.285156 14.949219 L 109.292969 15.03125 L 109.300781 15.109375 L 109.308594 15.183594 L 109.320312 15.257812 L 109.332031 15.328125 L 109.34375 15.394531 L 109.359375 15.460938 L 109.375 15.523438 L 109.390625 15.582031 L 109.410156 15.640625 L 109.429688 15.695312 L 109.453125 15.75 L 109.472656 15.800781 L 109.5 15.847656 L 109.523438 15.894531 L 109.550781 15.9375 L 109.582031 15.976562 L 109.609375 16.015625 L 109.675781 16.082031 L 109.746094 16.144531 L 109.785156 16.171875 L 109.824219 16.195312 L 109.863281 16.214844 L 109.949219 16.253906 L 109.996094 16.269531 L 110.042969 16.28125 L 110.09375 16.292969 L 110.195312 16.308594 L 110.25 16.316406 L 110.308594 16.316406 L 110.367188 16.320312 L 110.425781 16.316406 L 110.484375 16.316406 L 110.542969 16.308594 L 110.597656 16.304688 L 110.652344 16.292969 L 110.707031 16.285156 L 110.808594 16.253906 L 110.855469 16.238281 L 110.949219 16.199219 L 110.996094 16.175781 L 111.039062 16.148438 L 111.078125 16.121094 L 111.121094 16.089844 L 111.15625 16.058594 L 111.195312 16.023438 L 111.230469 15.984375 L 111.261719 15.945312 L 111.296875 15.902344 L 111.324219 15.855469 L 111.355469 15.808594 L 111.382812 15.757812 L 111.410156 15.703125 L 111.457031 15.585938 L 111.480469 15.523438 L 111.5 15.460938 L 111.519531 15.390625 L 111.550781 15.25 L 111.566406 15.171875 L 111.578125 15.09375 L 111.585938 15.011719 L 111.597656 14.925781 L 111.605469 14.835938 L 111.609375 14.746094 L 111.617188 14.550781 L 111.617188 14.351562 L 111.613281 14.257812 L 111.605469 14.078125 L 111.597656 13.996094 L 111.585938 13.914062 L 111.578125 13.832031 L 111.566406 13.757812 L 111.535156 13.617188 L 111.519531 13.550781 L 111.5 13.484375 L 111.480469 13.421875 L 111.433594 13.304688 L 111.410156 13.25 L 111.382812 13.199219 L 111.355469 13.152344 L 111.324219 13.105469 L 111.296875 13.0625 L 111.261719 13.019531 L 111.226562 12.984375 L 111.191406 12.945312 L 111.15625 12.914062 L 111.078125 12.851562 L 111.035156 12.828125 L 110.992188 12.800781 L 110.949219 12.78125 L 110.902344 12.761719 L 110.859375 12.742188 L 110.808594 12.726562 L 110.761719 12.714844 L 110.710938 12.699219 L 110.65625 12.691406 L 110.605469 12.683594 L 110.550781 12.675781 L 110.433594 12.667969 L 110.320312 12.667969 L 110.210938 12.675781 L 110.109375 12.691406 L 110.015625 12.714844 L 109.972656 12.730469 L 109.925781 12.746094 L 109.886719 12.765625 L 109.84375 12.785156 L 109.804688 12.808594 L 109.769531 12.835938 L 109.730469 12.863281 L 109.695312 12.894531 L 109.628906 12.960938 L 109.597656 13 L 109.570312 13.039062 L 109.542969 13.082031 L 109.488281 13.175781 L 109.464844 13.226562 L 109.441406 13.28125 L 109.421875 13.335938 L 109.402344 13.394531 L 109.382812 13.457031 L 109.367188 13.519531 L 109.351562 13.585938 L 109.335938 13.65625 L 109.324219 13.726562 L 109.3125 13.800781 L 109.300781 13.878906 L 109.292969 13.957031 L 109.289062 14.039062 L 109.28125 14.125 L 109.277344 14.214844 L 109.273438 14.308594 L 109.273438 14.402344 Z M 109.269531 14.5 "/>
<path style=" stroke:none;fill-rule:evenodd;fill:rgb(10.196078%,10.196078%,10.196078%);fill-opacity:1;" d="M 117.632812 16.832031 L 114.394531 11.675781 L 114.394531 11.714844 L 114.398438 11.757812 L 114.398438 11.800781 L 114.402344 11.84375 L 114.402344 11.882812 L 114.40625 11.925781 L 114.40625 11.96875 L 114.410156 12.007812 L 114.410156 12.050781 L 114.414062 12.089844 L 114.417969 12.125 L 114.417969 12.199219 L 114.421875 12.234375 L 114.421875 12.308594 L 114.425781 12.347656 L 114.425781 12.464844 L 114.429688 12.503906 L 114.429688 12.539062 L 114.433594 12.578125 L 114.433594 12.714844 L 114.4375 12.746094 L 114.4375 16.832031 L 113.707031 16.832031 L 113.707031 10.777344 L 114.660156 10.777344 L 117.933594 15.964844 L 117.929688 15.925781 L 117.929688 15.882812 L 117.921875 15.796875 L 117.921875 15.757812 L 117.914062 15.671875 L 117.914062 15.628906 L 117.910156 15.585938 L 117.90625 15.546875 L 117.90625 15.472656 L 117.902344 15.433594 L 117.902344 15.394531 L 117.898438 15.359375 L 117.898438 15.316406 L 117.894531 15.277344 L 117.894531 15.238281 L 117.890625 15.195312 L 117.890625 15.113281 L 117.886719 15.070312 L 117.886719 14.984375 L 117.882812 14.945312 L 117.882812 10.777344 L 118.621094 10.777344 L 118.621094 16.832031 Z M 117.632812 16.832031 "/>
<path style=" stroke:none;fill-rule:evenodd;fill:rgb(10.196078%,10.196078%,10.196078%);fill-opacity:1;" d="M 119.339844 16.917969 L 121.105469 10.453125 L 121.785156 10.453125 L 120.035156 16.917969 Z M 119.339844 16.917969 "/>
<path style=" stroke:none;fill-rule:evenodd;fill:rgb(10.196078%,10.196078%,10.196078%);fill-opacity:1;" d="M 125.3125 16.082031 L 125.265625 16.167969 L 125.21875 16.25 L 125.167969 16.328125 L 125.117188 16.398438 L 125.0625 16.464844 L 125.003906 16.527344 L 124.941406 16.585938 L 124.875 16.636719 L 124.808594 16.683594 L 124.738281 16.722656 L 124.667969 16.757812 L 124.59375 16.792969 L 124.429688 16.847656 L 124.34375 16.867188 L 124.253906 16.886719 L 124.164062 16.898438 L 124.066406 16.910156 L 123.863281 16.917969 L 123.691406 16.910156 L 123.53125 16.894531 L 123.375 16.863281 L 123.234375 16.820312 L 123.097656 16.769531 L 122.972656 16.703125 L 122.859375 16.625 L 122.75 16.535156 L 122.652344 16.4375 L 122.566406 16.324219 L 122.488281 16.199219 L 122.417969 16.0625 L 122.355469 15.914062 L 122.300781 15.75 L 122.257812 15.578125 L 122.21875 15.390625 L 122.191406 15.195312 L 122.167969 14.984375 L 122.15625 14.761719 L 122.152344 14.527344 L 122.171875 14.066406 L 122.222656 13.652344 L 122.308594 13.285156 L 122.425781 12.972656 L 122.582031 12.703125 L 122.769531 12.484375 L 122.992188 12.3125 L 123.246094 12.191406 L 123.539062 12.121094 L 123.863281 12.09375 L 123.96875 12.097656 L 124.066406 12.101562 L 124.164062 12.113281 L 124.257812 12.125 L 124.347656 12.144531 L 124.433594 12.164062 L 124.597656 12.21875 L 124.671875 12.25 L 124.746094 12.289062 L 124.8125 12.328125 L 124.878906 12.375 L 124.941406 12.425781 L 125.003906 12.480469 L 125.0625 12.539062 L 125.117188 12.601562 L 125.171875 12.671875 L 125.21875 12.742188 L 125.265625 12.820312 L 125.3125 12.902344 L 125.320312 12.902344 L 125.320312 12.835938 L 125.316406 12.820312 L 125.316406 12.675781 L 125.3125 12.65625 L 125.3125 10.453125 L 126.085938 10.453125 L 126.085938 16.285156 L 126.089844 16.3125 L 126.089844 16.425781 L 126.09375 16.453125 L 126.09375 16.527344 L 126.097656 16.550781 L 126.097656 16.640625 L 126.101562 16.664062 L 126.101562 16.71875 L 126.105469 16.734375 L 126.105469 16.792969 L 126.109375 16.800781 L 126.109375 16.832031 L 125.371094 16.832031 L 125.371094 16.820312 L 125.367188 16.8125 L 125.367188 16.800781 L 125.363281 16.789062 L 125.363281 16.777344 L 125.359375 16.765625 L 125.359375 16.738281 L 125.355469 16.726562 L 125.355469 16.710938 L 125.351562 16.695312 L 125.351562 16.640625 L 125.347656 16.625 L 125.347656 16.585938 L 125.34375 16.566406 L 125.34375 16.546875 L 125.339844 16.523438 L 125.339844 16.441406 L 125.335938 16.421875 L 125.335938 16.355469 L 125.332031 16.332031 L 125.332031 16.21875 L 125.328125 16.195312 L 125.328125 16.082031 Z M 122.964844 14.5 L 122.964844 14.597656 L 122.96875 14.6875 L 122.96875 14.777344 L 122.976562 14.863281 L 122.980469 14.949219 L 122.988281 15.03125 L 122.996094 15.109375 L 123.003906 15.183594 L 123.015625 15.257812 L 123.027344 15.328125 L 123.050781 15.460938 L 123.066406 15.523438 L 123.105469 15.640625 L 123.144531 15.75 L 123.167969 15.800781 L 123.191406 15.847656 L 123.21875 15.894531 L 123.246094 15.9375 L 123.273438 15.976562 L 123.304688 16.015625 L 123.335938 16.050781 L 123.441406 16.144531 L 123.480469 16.171875 L 123.519531 16.195312 L 123.558594 16.214844 L 123.644531 16.253906 L 123.691406 16.269531 L 123.785156 16.292969 L 123.839844 16.300781 L 123.890625 16.308594 L 123.945312 16.316406 L 124.003906 16.316406 L 124.0625 16.320312 L 124.121094 16.316406 L 124.179688 16.316406 L 124.238281 16.308594 L 124.292969 16.304688 L 124.347656 16.292969 L 124.402344 16.285156 L 124.503906 16.253906 L 124.550781 16.238281 L 124.644531 16.199219 L 124.6875 16.175781 L 124.734375 16.148438 L 124.773438 16.121094 L 124.851562 16.058594 L 124.890625 16.023438 L 124.925781 15.984375 L 124.957031 15.945312 L 124.988281 15.902344 L 125.050781 15.808594 L 125.078125 15.757812 L 125.105469 15.703125 L 125.152344 15.585938 L 125.171875 15.523438 L 125.195312 15.460938 L 125.210938 15.390625 L 125.230469 15.320312 L 125.246094 15.25 L 125.269531 15.09375 L 125.28125 15.011719 L 125.289062 14.925781 L 125.304688 14.746094 L 125.3125 14.550781 L 125.3125 14.351562 L 125.308594 14.257812 L 125.304688 14.167969 L 125.296875 14.078125 L 125.28125 13.914062 L 125.269531 13.832031 L 125.257812 13.757812 L 125.246094 13.6875 L 125.230469 13.617188 L 125.210938 13.550781 L 125.195312 13.484375 L 125.171875 13.421875 L 125.152344 13.363281 L 125.128906 13.304688 L 125.105469 13.25 L 125.078125 13.199219 L 125.050781 13.152344 L 125.019531 13.105469 L 124.957031 13.019531 L 124.921875 12.984375 L 124.886719 12.945312 L 124.851562 12.914062 L 124.773438 12.851562 L 124.730469 12.828125 L 124.6875 12.800781 L 124.644531 12.78125 L 124.550781 12.742188 L 124.503906 12.726562 L 124.453125 12.714844 L 124.402344 12.699219 L 124.351562 12.691406 L 124.242188 12.675781 L 124.1875 12.671875 L 124.128906 12.667969 L 124.011719 12.667969 L 123.960938 12.671875 L 123.90625 12.675781 L 123.804688 12.691406 L 123.710938 12.714844 L 123.664062 12.730469 L 123.621094 12.746094 L 123.578125 12.765625 L 123.539062 12.785156 L 123.5 12.808594 L 123.460938 12.835938 L 123.425781 12.863281 L 123.355469 12.925781 L 123.324219 12.960938 L 123.292969 13 L 123.265625 13.039062 L 123.234375 13.082031 L 123.210938 13.128906 L 123.183594 13.175781 L 123.160156 13.226562 L 123.136719 13.28125 L 123.117188 13.335938 L 123.097656 13.394531 L 123.058594 13.519531 L 123.042969 13.585938 L 123.03125 13.65625 L 123.015625 13.726562 L 123.007812 13.800781 L 122.996094 13.878906 L 122.988281 13.957031 L 122.980469 14.039062 L 122.976562 14.125 L 122.972656 14.214844 L 122.964844 14.402344 Z M 122.964844 14.5 "/>
<path style=" stroke:none;fill-rule:evenodd;fill:rgb(10.196078%,10.196078%,10.196078%);fill-opacity:1;" d="M 132.144531 15.160156 L 132.136719 15.308594 L 132.121094 15.457031 L 132.089844 15.597656 L 132.070312 15.664062 L 132.023438 15.796875 L 131.992188 15.863281 L 131.929688 15.988281 L 131.890625 16.050781 L 131.851562 16.109375 L 131.757812 16.21875 L 131.707031 16.273438 L 131.65625 16.324219 L 131.597656 16.375 L 131.539062 16.421875 L 131.472656 16.46875 L 131.40625 16.511719 L 131.335938 16.550781 L 131.265625 16.59375 L 131.109375 16.664062 L 131.023438 16.699219 L 130.9375 16.730469 L 130.847656 16.761719 L 130.753906 16.789062 L 130.660156 16.8125 L 130.5625 16.832031 L 130.351562 16.871094 L 130.242188 16.882812 L 130.128906 16.894531 L 130.011719 16.90625 L 129.894531 16.910156 L 129.644531 16.917969 L 129.421875 16.914062 L 129.210938 16.902344 L 129.007812 16.878906 L 128.816406 16.851562 L 128.636719 16.816406 L 128.464844 16.773438 L 128.304688 16.722656 L 128.152344 16.664062 L 128.011719 16.597656 L 127.882812 16.519531 L 127.757812 16.4375 L 127.648438 16.347656 L 127.542969 16.253906 L 127.449219 16.148438 L 127.363281 16.039062 L 127.289062 15.917969 L 127.222656 15.796875 L 127.164062 15.664062 L 127.117188 15.523438 L 127.078125 15.378906 L 127.871094 15.21875 L 127.886719 15.265625 L 127.898438 15.3125 L 127.914062 15.355469 L 127.929688 15.402344 L 127.96875 15.488281 L 127.988281 15.527344 L 128.011719 15.570312 L 128.03125 15.609375 L 128.058594 15.648438 L 128.082031 15.6875 L 128.109375 15.722656 L 128.140625 15.761719 L 128.171875 15.796875 L 128.238281 15.863281 L 128.273438 15.894531 L 128.3125 15.925781 L 128.351562 15.953125 L 128.390625 15.984375 L 128.4375 16.011719 L 128.480469 16.035156 L 128.53125 16.0625 L 128.578125 16.085938 L 128.632812 16.105469 L 128.6875 16.128906 L 128.742188 16.148438 L 128.800781 16.164062 L 128.859375 16.183594 L 128.984375 16.214844 L 129.050781 16.226562 L 129.191406 16.25 L 129.265625 16.257812 L 129.34375 16.265625 L 129.421875 16.269531 L 129.503906 16.273438 L 129.585938 16.273438 L 129.671875 16.277344 L 129.746094 16.277344 L 129.957031 16.265625 L 130.023438 16.261719 L 130.15625 16.246094 L 130.21875 16.238281 L 130.34375 16.214844 L 130.402344 16.203125 L 130.519531 16.171875 L 130.574219 16.152344 L 130.625 16.136719 L 130.679688 16.117188 L 130.726562 16.09375 L 130.777344 16.070312 L 130.824219 16.046875 L 130.867188 16.023438 L 130.910156 15.996094 L 130.949219 15.96875 L 131.027344 15.90625 L 131.0625 15.875 L 131.15625 15.769531 L 131.183594 15.730469 L 131.207031 15.691406 L 131.230469 15.648438 L 131.269531 15.5625 L 131.285156 15.515625 L 131.300781 15.464844 L 131.3125 15.417969 L 131.320312 15.363281 L 131.328125 15.3125 L 131.328125 15.257812 L 131.332031 15.203125 L 131.324219 15.085938 L 131.320312 15.035156 L 131.296875 14.933594 L 131.265625 14.839844 L 131.242188 14.800781 L 131.21875 14.757812 L 131.195312 14.71875 L 131.167969 14.683594 L 131.136719 14.648438 L 131.070312 14.582031 L 131.03125 14.550781 L 130.992188 14.523438 L 130.953125 14.492188 L 130.910156 14.464844 L 130.863281 14.441406 L 130.816406 14.414062 L 130.714844 14.367188 L 130.660156 14.347656 L 130.605469 14.324219 L 130.488281 14.285156 L 130.363281 14.246094 L 130.230469 14.214844 L 130.164062 14.195312 L 130.09375 14.179688 L 130.019531 14.164062 L 129.949219 14.144531 L 129.875 14.128906 L 129.796875 14.109375 L 129.71875 14.09375 L 129.5625 14.054688 L 129.480469 14.039062 L 129.226562 13.980469 L 129.171875 13.96875 L 129.121094 13.953125 L 128.96875 13.917969 L 128.917969 13.902344 L 128.867188 13.890625 L 128.816406 13.875 L 128.769531 13.859375 L 128.71875 13.84375 L 128.671875 13.828125 L 128.621094 13.808594 L 128.527344 13.777344 L 128.476562 13.757812 L 128.433594 13.738281 L 128.339844 13.699219 L 128.296875 13.675781 L 128.253906 13.65625 L 128.210938 13.632812 L 128.164062 13.609375 L 128.125 13.585938 L 128.039062 13.539062 L 128 13.511719 L 127.960938 13.488281 L 127.882812 13.433594 L 127.777344 13.339844 L 127.714844 13.277344 L 127.652344 13.207031 L 127.625 13.171875 L 127.597656 13.132812 L 127.550781 13.054688 L 127.503906 12.96875 L 127.445312 12.839844 L 127.429688 12.792969 L 127.414062 12.742188 L 127.390625 12.640625 L 127.382812 12.589844 L 127.367188 12.480469 L 127.363281 12.421875 L 127.363281 12.367188 L 127.359375 12.304688 L 127.367188 12.140625 L 127.375 12.058594 L 127.386719 11.980469 L 127.402344 11.90625 L 127.421875 11.835938 L 127.445312 11.765625 L 127.5 11.632812 L 127.53125 11.570312 L 127.609375 11.453125 L 127.652344 11.394531 L 127.695312 11.339844 L 127.742188 11.289062 L 127.792969 11.238281 L 127.84375 11.191406 L 127.898438 11.148438 L 127.957031 11.105469 L 128.019531 11.0625 L 128.082031 11.027344 L 128.148438 10.988281 L 128.214844 10.953125 L 128.285156 10.921875 L 128.355469 10.894531 L 128.429688 10.867188 L 128.507812 10.839844 L 128.585938 10.816406 L 128.664062 10.796875 L 128.75 10.777344 L 128.832031 10.757812 L 128.921875 10.742188 L 129.007812 10.730469 L 129.1875 10.707031 L 129.277344 10.699219 L 129.464844 10.691406 L 129.5625 10.6875 L 129.769531 10.6875 L 129.878906 10.691406 L 129.984375 10.695312 L 130.085938 10.699219 L 130.183594 10.707031 L 130.277344 10.71875 L 130.457031 10.742188 L 130.539062 10.757812 L 130.621094 10.777344 L 130.699219 10.792969 L 130.777344 10.8125 L 130.851562 10.835938 L 130.992188 10.882812 L 131.058594 10.910156 L 131.183594 10.972656 L 131.242188 11.003906 L 131.351562 11.074219 L 131.453125 11.152344 L 131.5 11.191406 L 131.542969 11.234375 L 131.628906 11.328125 L 131.664062 11.375 L 131.703125 11.425781 L 131.734375 11.476562 L 131.769531 11.527344 L 131.800781 11.582031 L 131.828125 11.640625 L 131.859375 11.695312 L 131.886719 11.753906 L 131.910156 11.816406 L 131.9375 11.878906 L 131.960938 11.945312 L 132 12.078125 L 131.195312 12.21875 L 131.179688 12.175781 L 131.167969 12.132812 L 131.152344 12.09375 L 131.136719 12.050781 L 131.121094 12.011719 L 131.101562 11.972656 L 131.082031 11.9375 L 131.0625 11.898438 L 131.039062 11.863281 L 131.019531 11.828125 L 130.996094 11.796875 L 130.96875 11.761719 L 130.945312 11.730469 L 130.917969 11.699219 L 130.792969 11.589844 L 130.757812 11.566406 L 130.722656 11.539062 L 130.683594 11.519531 L 130.644531 11.496094 L 130.515625 11.4375 L 130.375 11.390625 L 130.324219 11.378906 L 130.269531 11.363281 L 130.214844 11.351562 L 130.105469 11.335938 L 130.046875 11.328125 L 129.921875 11.3125 L 129.855469 11.308594 L 129.789062 11.308594 L 129.722656 11.304688 L 129.566406 11.304688 L 129.410156 11.3125 L 129.335938 11.316406 L 129.261719 11.324219 L 129.195312 11.332031 L 129.0625 11.355469 L 129 11.367188 L 128.941406 11.382812 L 128.832031 11.414062 L 128.78125 11.429688 L 128.734375 11.449219 L 128.683594 11.46875 L 128.640625 11.488281 L 128.597656 11.511719 L 128.519531 11.558594 L 128.484375 11.582031 L 128.449219 11.609375 L 128.386719 11.664062 L 128.359375 11.695312 L 128.335938 11.726562 L 128.308594 11.753906 L 128.289062 11.789062 L 128.269531 11.820312 L 128.25 11.855469 L 128.234375 11.890625 L 128.21875 11.921875 L 128.207031 11.957031 L 128.195312 11.996094 L 128.1875 12.03125 L 128.179688 12.070312 L 128.171875 12.105469 L 128.160156 12.222656 L 128.160156 12.316406 L 128.164062 12.367188 L 128.171875 12.417969 L 128.179688 12.464844 L 128.195312 12.511719 L 128.207031 12.554688 L 128.226562 12.59375 L 128.246094 12.636719 L 128.269531 12.671875 L 128.292969 12.710938 L 128.320312 12.742188 L 128.351562 12.777344 L 128.382812 12.808594 L 128.417969 12.839844 L 128.453125 12.867188 L 128.53125 12.921875 L 128.574219 12.949219 L 128.617188 12.972656 L 128.757812 13.042969 L 128.808594 13.0625 L 128.859375 13.085938 L 128.914062 13.105469 L 128.96875 13.121094 L 129.023438 13.140625 L 129.082031 13.160156 L 129.199219 13.191406 L 129.449219 13.253906 L 129.515625 13.269531 L 129.578125 13.285156 L 129.644531 13.300781 L 129.714844 13.316406 L 129.78125 13.332031 L 129.847656 13.34375 L 129.90625 13.359375 L 130.015625 13.382812 L 130.070312 13.398438 L 130.128906 13.410156 L 130.183594 13.425781 L 130.238281 13.4375 L 130.292969 13.453125 L 130.347656 13.464844 L 130.402344 13.480469 L 130.457031 13.492188 L 130.515625 13.503906 L 130.570312 13.519531 L 130.621094 13.535156 L 130.730469 13.566406 L 130.78125 13.582031 L 130.832031 13.601562 L 130.886719 13.621094 L 130.9375 13.636719 L 130.988281 13.65625 L 131.035156 13.675781 L 131.085938 13.695312 L 131.132812 13.714844 L 131.179688 13.738281 L 131.226562 13.757812 L 131.320312 13.804688 L 131.363281 13.828125 L 131.410156 13.851562 L 131.539062 13.933594 L 131.578125 13.960938 L 131.65625 14.023438 L 131.726562 14.085938 L 131.796875 14.15625 L 131.859375 14.234375 L 131.914062 14.3125 L 131.941406 14.355469 L 131.988281 14.441406 L 132.011719 14.488281 L 132.050781 14.582031 L 132.082031 14.683594 L 132.097656 14.738281 L 132.121094 14.847656 L 132.128906 14.90625 L 132.136719 14.96875 L 132.140625 15.03125 L 132.140625 15.09375 Z M 132.144531 15.160156 "/>
<g clip-path="url(#clip5)" clip-rule="nonzero">
<path style=" stroke:none;fill-rule:evenodd;fill:rgb(85.098039%,85.098039%,85.098039%);fill-opacity:1;" d="M 228.046875 22.128906 L 432.542969 22.128906 L 432.542969 5.480469 L 228.046875 5.480469 Z M 228.046875 22.128906 "/>
</g>
<path style=" stroke:none;fill-rule:evenodd;fill:rgb(10.196078%,10.196078%,10.196078%);fill-opacity:1;" d="M 328.199219 16.082031 L 328.152344 16.167969 L 328.105469 16.25 L 328.054688 16.328125 L 328.003906 16.398438 L 327.949219 16.464844 L 327.890625 16.527344 L 327.828125 16.585938 L 327.765625 16.636719 L 327.695312 16.683594 L 327.625 16.722656 L 327.554688 16.757812 L 327.480469 16.792969 L 327.316406 16.847656 L 327.230469 16.867188 L 327.140625 16.886719 L 327.050781 16.898438 L 326.953125 16.910156 L 326.75 16.917969 L 326.578125 16.910156 L 326.417969 16.894531 L 326.261719 16.863281 L 326.121094 16.820312 L 325.984375 16.769531 L 325.859375 16.703125 L 325.746094 16.625 L 325.636719 16.535156 L 325.539062 16.4375 L 325.453125 16.324219 L 325.375 16.199219 L 325.304688 16.0625 L 325.242188 15.914062 L 325.1875 15.75 L 325.144531 15.578125 L 325.105469 15.390625 L 325.078125 15.195312 L 325.054688 14.984375 L 325.042969 14.761719 L 325.039062 14.527344 L 325.058594 14.066406 L 325.109375 13.652344 L 325.195312 13.285156 L 325.3125 12.972656 L 325.46875 12.703125 L 325.65625 12.484375 L 325.878906 12.3125 L 326.132812 12.191406 L 326.425781 12.121094 L 326.75 12.09375 L 326.855469 12.097656 L 326.953125 12.101562 L 327.050781 12.113281 L 327.144531 12.125 L 327.234375 12.144531 L 327.320312 12.164062 L 327.484375 12.21875 L 327.558594 12.25 L 327.632812 12.289062 L 327.699219 12.328125 L 327.765625 12.375 L 327.832031 12.425781 L 327.890625 12.480469 L 327.949219 12.539062 L 328.003906 12.601562 L 328.058594 12.671875 L 328.105469 12.742188 L 328.152344 12.820312 L 328.199219 12.902344 L 328.207031 12.902344 L 328.207031 12.835938 L 328.203125 12.820312 L 328.203125 12.675781 L 328.199219 12.65625 L 328.199219 10.453125 L 328.972656 10.453125 L 328.972656 16.285156 L 328.976562 16.3125 L 328.976562 16.398438 L 328.980469 16.425781 L 328.980469 16.527344 L 328.984375 16.550781 L 328.984375 16.640625 L 328.988281 16.664062 L 328.988281 16.71875 L 328.992188 16.734375 L 328.992188 16.792969 L 328.996094 16.800781 L 328.996094 16.832031 L 328.257812 16.832031 L 328.257812 16.820312 L 328.253906 16.8125 L 328.253906 16.800781 L 328.25 16.789062 L 328.25 16.765625 L 328.246094 16.753906 L 328.246094 16.738281 L 328.242188 16.726562 L 328.242188 16.695312 L 328.238281 16.675781 L 328.238281 16.640625 L 328.234375 16.625 L 328.234375 16.585938 L 328.230469 16.566406 L 328.230469 16.546875 L 328.226562 16.523438 L 328.226562 16.441406 L 328.222656 16.421875 L 328.222656 16.355469 L 328.21875 16.332031 L 328.21875 16.21875 L 328.214844 16.195312 L 328.214844 16.082031 Z M 325.851562 14.5 L 325.851562 14.597656 L 325.859375 14.777344 L 325.867188 14.949219 L 325.875 15.03125 L 325.882812 15.109375 L 325.890625 15.183594 L 325.902344 15.257812 L 325.914062 15.328125 L 325.9375 15.460938 L 325.953125 15.523438 L 325.992188 15.640625 L 326.03125 15.75 L 326.054688 15.800781 L 326.078125 15.847656 L 326.105469 15.894531 L 326.132812 15.9375 L 326.160156 15.976562 L 326.191406 16.015625 L 326.222656 16.050781 L 326.328125 16.144531 L 326.367188 16.171875 L 326.40625 16.195312 L 326.445312 16.214844 L 326.53125 16.253906 L 326.578125 16.269531 L 326.625 16.28125 L 326.675781 16.292969 L 326.777344 16.308594 L 326.832031 16.316406 L 326.890625 16.316406 L 326.949219 16.320312 L 327.007812 16.316406 L 327.066406 16.316406 L 327.125 16.308594 L 327.179688 16.304688 L 327.234375 16.292969 L 327.289062 16.285156 L 327.390625 16.253906 L 327.4375 16.238281 L 327.53125 16.199219 L 327.578125 16.175781 L 327.621094 16.148438 L 327.660156 16.121094 L 327.738281 16.058594 L 327.777344 16.023438 L 327.8125 15.984375 L 327.84375 15.945312 L 327.875 15.902344 L 327.9375 15.808594 L 327.964844 15.757812 L 327.992188 15.703125 L 328.039062 15.585938 L 328.0625 15.523438 L 328.082031 15.460938 L 328.097656 15.390625 L 328.117188 15.320312 L 328.132812 15.25 L 328.144531 15.171875 L 328.160156 15.09375 L 328.167969 15.011719 L 328.179688 14.925781 L 328.183594 14.835938 L 328.191406 14.746094 L 328.199219 14.550781 L 328.199219 14.351562 L 328.195312 14.257812 L 328.191406 14.167969 L 328.183594 14.078125 L 328.179688 13.996094 L 328.167969 13.914062 L 328.160156 13.832031 L 328.144531 13.757812 L 328.132812 13.6875 L 328.117188 13.617188 L 328.097656 13.550781 L 328.082031 13.484375 L 328.0625 13.421875 L 328.015625 13.304688 L 327.992188 13.25 L 327.964844 13.199219 L 327.9375 13.152344 L 327.90625 13.105469 L 327.84375 13.019531 L 327.808594 12.984375 L 327.773438 12.945312 L 327.738281 12.914062 L 327.660156 12.851562 L 327.617188 12.828125 L 327.574219 12.800781 L 327.53125 12.78125 L 327.4375 12.742188 L 327.390625 12.726562 L 327.339844 12.714844 L 327.292969 12.699219 L 327.128906 12.675781 L 327.074219 12.671875 L 327.015625 12.667969 L 326.902344 12.667969 L 326.792969 12.675781 L 326.691406 12.691406 L 326.597656 12.714844 L 326.550781 12.730469 L 326.507812 12.746094 L 326.464844 12.765625 L 326.425781 12.785156 L 326.386719 12.808594 L 326.347656 12.835938 L 326.3125 12.863281 L 326.242188 12.925781 L 326.210938 12.960938 L 326.179688 13 L 326.152344 13.039062 L 326.121094 13.082031 L 326.097656 13.128906 L 326.070312 13.175781 L 326.046875 13.226562 L 326.023438 13.28125 L 326.003906 13.335938 L 325.984375 13.394531 L 325.945312 13.519531 L 325.929688 13.585938 L 325.90625 13.726562 L 325.894531 13.800781 L 325.882812 13.878906 L 325.875 13.957031 L 325.867188 14.039062 L 325.863281 14.125 L 325.859375 14.214844 L 325.851562 14.402344 Z M 325.851562 14.5 "/>
<path style=" stroke:none;fill-rule:evenodd;fill:rgb(10.196078%,10.196078%,10.196078%);fill-opacity:1;" d="M 334.214844 16.832031 L 330.972656 11.675781 L 330.976562 11.714844 L 330.976562 11.757812 L 330.980469 11.800781 L 330.980469 11.84375 L 330.984375 11.882812 L 330.984375 11.925781 L 330.988281 11.96875 L 330.992188 12.007812 L 330.992188 12.050781 L 330.996094 12.089844 L 330.996094 12.125 L 331 12.164062 L 331 12.234375 L 331.003906 12.273438 L 331.003906 12.347656 L 331.007812 12.386719 L 331.007812 12.464844 L 331.011719 12.503906 L 331.011719 12.578125 L 331.015625 12.613281 L 331.015625 16.832031 L 330.285156 16.832031 L 330.285156 10.777344 L 331.242188 10.777344 L 334.515625 15.964844 L 334.511719 15.925781 L 334.507812 15.882812 L 334.507812 15.839844 L 334.503906 15.796875 L 334.5 15.757812 L 334.5 15.714844 L 334.492188 15.628906 L 334.492188 15.585938 L 334.488281 15.546875 L 334.488281 15.507812 L 334.484375 15.472656 L 334.484375 15.433594 L 334.480469 15.394531 L 334.480469 15.316406 L 334.476562 15.277344 L 334.476562 15.238281 L 334.472656 15.195312 L 334.472656 15.15625 L 334.46875 15.113281 L 334.46875 15.027344 L 334.464844 14.984375 L 334.464844 10.777344 L 335.203125 10.777344 L 335.203125 16.832031 Z M 334.214844 16.832031 "/>
<g clip-path="url(#clip6)" clip-rule="nonzero">
<path style=" stroke:none;fill-rule:evenodd;fill:rgb(85.098039%,85.098039%,85.098039%);fill-opacity:1;" d="M 438.023438 22.128906 L 642.519531 22.128906 L 642.519531 5.480469 L 438.023438 5.480469 Z M 438.023438 22.128906 "/>
</g>
<path style=" stroke:none;fill-rule:evenodd;fill:rgb(10.196078%,10.196078%,10.196078%);fill-opacity:1;" d="M 538.417969 16.082031 L 538.375 16.167969 L 538.328125 16.25 L 538.277344 16.328125 L 538.222656 16.398438 L 538.167969 16.464844 L 538.109375 16.527344 L 538.046875 16.585938 L 537.984375 16.636719 L 537.917969 16.683594 L 537.847656 16.722656 L 537.699219 16.792969 L 537.621094 16.820312 L 537.535156 16.847656 L 537.363281 16.886719 L 537.269531 16.898438 L 537.171875 16.910156 L 537.074219 16.914062 L 536.96875 16.917969 L 536.796875 16.910156 L 536.636719 16.894531 L 536.484375 16.863281 L 536.339844 16.820312 L 536.203125 16.769531 L 536.078125 16.703125 L 535.964844 16.625 L 535.855469 16.535156 L 535.761719 16.4375 L 535.671875 16.324219 L 535.59375 16.199219 L 535.523438 16.0625 L 535.460938 15.914062 L 535.40625 15.75 L 535.363281 15.578125 L 535.324219 15.390625 L 535.296875 15.195312 L 535.277344 14.984375 L 535.265625 14.761719 L 535.257812 14.527344 L 535.277344 14.066406 L 535.328125 13.652344 L 535.414062 13.285156 L 535.535156 12.972656 L 535.6875 12.703125 L 535.875 12.484375 L 536.097656 12.3125 L 536.355469 12.191406 L 536.644531 12.121094 L 536.96875 12.09375 L 537.074219 12.097656 L 537.175781 12.101562 L 537.363281 12.125 L 537.453125 12.144531 L 537.539062 12.164062 L 537.625 12.191406 L 537.703125 12.21875 L 537.777344 12.25 L 537.851562 12.289062 L 537.917969 12.328125 L 537.984375 12.375 L 538.050781 12.425781 L 538.109375 12.480469 L 538.167969 12.539062 L 538.222656 12.601562 L 538.277344 12.671875 L 538.328125 12.742188 L 538.375 12.820312 L 538.417969 12.902344 L 538.425781 12.902344 L 538.425781 12.820312 L 538.421875 12.804688 L 538.421875 12.636719 L 538.417969 12.617188 L 538.417969 10.453125 L 539.191406 10.453125 L 539.191406 16.253906 L 539.195312 16.285156 L 539.195312 16.398438 L 539.199219 16.425781 L 539.199219 16.503906 L 539.203125 16.527344 L 539.203125 16.621094 L 539.207031 16.640625 L 539.207031 16.703125 L 539.210938 16.71875 L 539.210938 16.777344 L 539.214844 16.792969 L 539.214844 16.820312 L 539.21875 16.832031 L 538.476562 16.832031 L 538.476562 16.820312 L 538.472656 16.8125 L 538.472656 16.789062 L 538.46875 16.777344 L 538.46875 16.765625 L 538.464844 16.753906 L 538.464844 16.738281 L 538.460938 16.726562 L 538.460938 16.695312 L 538.457031 16.675781 L 538.457031 16.625 L 538.453125 16.605469 L 538.453125 16.585938 L 538.449219 16.566406 L 538.449219 16.523438 L 538.445312 16.503906 L 538.445312 16.421875 L 538.441406 16.398438 L 538.441406 16.332031 L 538.4375 16.308594 L 538.4375 16.171875 L 538.433594 16.148438 L 538.433594 16.082031 Z M 536.070312 14.5 L 536.074219 14.597656 L 536.074219 14.6875 L 536.078125 14.777344 L 536.085938 14.949219 L 536.09375 15.03125 L 536.101562 15.109375 L 536.109375 15.183594 L 536.121094 15.257812 L 536.132812 15.328125 L 536.144531 15.394531 L 536.160156 15.460938 L 536.175781 15.523438 L 536.191406 15.582031 L 536.210938 15.640625 L 536.25 15.75 L 536.273438 15.800781 L 536.300781 15.847656 L 536.324219 15.894531 L 536.351562 15.9375 L 536.382812 15.976562 L 536.410156 16.015625 L 536.476562 16.082031 L 536.546875 16.144531 L 536.585938 16.171875 L 536.625 16.195312 L 536.664062 16.214844 L 536.75 16.253906 L 536.796875 16.269531 L 536.84375 16.28125 L 536.894531 16.292969 L 536.996094 16.308594 L 537.050781 16.316406 L 537.109375 16.316406 L 537.167969 16.320312 L 537.226562 16.316406 L 537.285156 16.316406 L 537.34375 16.308594 L 537.398438 16.304688 L 537.453125 16.292969 L 537.507812 16.285156 L 537.609375 16.253906 L 537.65625 16.238281 L 537.75 16.199219 L 537.796875 16.175781 L 537.839844 16.148438 L 537.878906 16.121094 L 537.921875 16.089844 L 537.957031 16.058594 L 537.996094 16.023438 L 538.03125 15.984375 L 538.0625 15.945312 L 538.09375 15.902344 L 538.15625 15.808594 L 538.183594 15.757812 L 538.210938 15.703125 L 538.257812 15.585938 L 538.28125 15.523438 L 538.300781 15.460938 L 538.320312 15.390625 L 538.351562 15.25 L 538.367188 15.171875 L 538.378906 15.09375 L 538.386719 15.011719 L 538.398438 14.925781 L 538.40625 14.835938 L 538.410156 14.746094 L 538.417969 14.550781 L 538.417969 14.351562 L 538.414062 14.257812 L 538.40625 14.078125 L 538.398438 13.996094 L 538.386719 13.914062 L 538.378906 13.832031 L 538.367188 13.757812 L 538.335938 13.617188 L 538.320312 13.550781 L 538.300781 13.484375 L 538.28125 13.421875 L 538.234375 13.304688 L 538.210938 13.25 L 538.183594 13.199219 L 538.15625 13.152344 L 538.125 13.105469 L 538.0625 13.019531 L 538.027344 12.984375 L 537.992188 12.945312 L 537.957031 12.914062 L 537.878906 12.851562 L 537.835938 12.828125 L 537.792969 12.800781 L 537.75 12.78125 L 537.703125 12.761719 L 537.660156 12.742188 L 537.609375 12.726562 L 537.5625 12.714844 L 537.511719 12.699219 L 537.457031 12.691406 L 537.40625 12.683594 L 537.351562 12.675781 L 537.234375 12.667969 L 537.121094 12.667969 L 537.011719 12.675781 L 536.910156 12.691406 L 536.816406 12.714844 L 536.773438 12.730469 L 536.726562 12.746094 L 536.6875 12.765625 L 536.644531 12.785156 L 536.605469 12.808594 L 536.570312 12.835938 L 536.53125 12.863281 L 536.496094 12.894531 L 536.429688 12.960938 L 536.398438 13 L 536.371094 13.039062 L 536.34375 13.082031 L 536.289062 13.175781 L 536.265625 13.226562 L 536.242188 13.28125 L 536.222656 13.335938 L 536.203125 13.394531 L 536.183594 13.457031 L 536.167969 13.519531 L 536.152344 13.585938 L 536.136719 13.65625 L 536.125 13.726562 L 536.113281 13.800781 L 536.101562 13.878906 L 536.09375 13.957031 L 536.085938 14.039062 L 536.082031 14.125 L 536.078125 14.214844 L 536.074219 14.308594 L 536.074219 14.402344 Z M 536.070312 14.5 "/>
<path style=" stroke:none;fill-rule:evenodd;fill:rgb(10.196078%,10.196078%,10.196078%);fill-opacity:1;" d="M 545.25 15.160156 L 545.25 15.234375 L 545.226562 15.457031 L 545.195312 15.597656 L 545.175781 15.664062 L 545.128906 15.796875 L 545.097656 15.863281 L 545.070312 15.925781 L 545.035156 15.988281 L 544.996094 16.050781 L 544.957031 16.109375 L 544.914062 16.164062 L 544.867188 16.21875 L 544.816406 16.273438 L 544.761719 16.324219 L 544.703125 16.375 L 544.644531 16.421875 L 544.582031 16.46875 L 544.515625 16.511719 L 544.445312 16.550781 L 544.371094 16.59375 L 544.214844 16.664062 L 544.128906 16.699219 L 544.042969 16.730469 L 543.953125 16.761719 L 543.863281 16.789062 L 543.765625 16.8125 L 543.667969 16.832031 L 543.566406 16.851562 L 543.460938 16.871094 L 543.347656 16.882812 L 543.238281 16.894531 L 543.121094 16.90625 L 543 16.910156 L 542.75 16.917969 L 542.527344 16.914062 L 542.316406 16.902344 L 542.117188 16.878906 L 541.925781 16.851562 L 541.742188 16.816406 L 541.574219 16.773438 L 541.410156 16.722656 L 541.261719 16.664062 L 541.117188 16.597656 L 540.988281 16.519531 L 540.867188 16.4375 L 540.753906 16.347656 L 540.648438 16.253906 L 540.554688 16.148438 L 540.46875 16.039062 L 540.394531 15.917969 L 540.328125 15.796875 L 540.269531 15.664062 L 540.222656 15.523438 L 540.183594 15.378906 L 540.980469 15.21875 L 541.003906 15.3125 L 541.019531 15.355469 L 541.039062 15.402344 L 541.054688 15.445312 L 541.074219 15.488281 L 541.09375 15.527344 L 541.117188 15.570312 L 541.1875 15.6875 L 541.214844 15.722656 L 541.246094 15.761719 L 541.277344 15.796875 L 541.34375 15.863281 L 541.378906 15.894531 L 541.417969 15.925781 L 541.457031 15.953125 L 541.5 15.984375 L 541.542969 16.011719 L 541.589844 16.035156 L 541.636719 16.0625 L 541.6875 16.085938 L 541.738281 16.105469 L 541.792969 16.128906 L 541.847656 16.148438 L 541.90625 16.164062 L 541.964844 16.183594 L 542.089844 16.214844 L 542.15625 16.226562 L 542.296875 16.25 L 542.371094 16.257812 L 542.449219 16.265625 L 542.527344 16.269531 L 542.609375 16.273438 L 542.691406 16.273438 L 542.777344 16.277344 L 542.851562 16.277344 L 543.0625 16.265625 L 543.128906 16.261719 L 543.261719 16.246094 L 543.324219 16.238281 L 543.449219 16.214844 L 543.507812 16.203125 L 543.625 16.171875 L 543.679688 16.152344 L 543.734375 16.136719 L 543.785156 16.117188 L 543.835938 16.09375 L 543.929688 16.046875 L 543.972656 16.023438 L 544.058594 15.96875 L 544.097656 15.9375 L 544.167969 15.875 L 544.261719 15.769531 L 544.289062 15.730469 L 544.3125 15.691406 L 544.359375 15.605469 L 544.375 15.5625 L 544.394531 15.515625 L 544.40625 15.464844 L 544.417969 15.417969 L 544.425781 15.363281 L 544.433594 15.3125 L 544.4375 15.257812 L 544.4375 15.144531 L 544.433594 15.085938 L 544.425781 15.035156 L 544.402344 14.933594 L 544.371094 14.839844 L 544.351562 14.800781 L 544.328125 14.757812 L 544.300781 14.71875 L 544.273438 14.683594 L 544.242188 14.648438 L 544.175781 14.582031 L 544.140625 14.550781 L 544.101562 14.523438 L 544.058594 14.492188 L 544.015625 14.464844 L 543.96875 14.441406 L 543.921875 14.414062 L 543.820312 14.367188 L 543.765625 14.347656 L 543.710938 14.324219 L 543.59375 14.285156 L 543.46875 14.246094 L 543.40625 14.230469 L 543.335938 14.214844 L 543.269531 14.195312 L 543.128906 14.164062 L 543.054688 14.144531 L 542.980469 14.128906 L 542.902344 14.109375 L 542.828125 14.09375 L 542.746094 14.074219 L 542.667969 14.054688 L 542.585938 14.039062 L 542.28125 13.96875 L 542.230469 13.953125 L 542.175781 13.941406 L 542.074219 13.917969 L 542.023438 13.902344 L 541.972656 13.890625 L 541.925781 13.875 L 541.824219 13.84375 L 541.777344 13.828125 L 541.726562 13.808594 L 541.632812 13.777344 L 541.492188 13.71875 L 541.449219 13.699219 L 541.402344 13.675781 L 541.359375 13.65625 L 541.144531 13.539062 L 541.105469 13.511719 L 541.066406 13.488281 L 541.027344 13.460938 L 540.992188 13.433594 L 540.953125 13.402344 L 540.917969 13.371094 L 540.886719 13.339844 L 540.851562 13.308594 L 540.820312 13.277344 L 540.789062 13.242188 L 540.761719 13.207031 L 540.730469 13.171875 L 540.707031 13.132812 L 540.679688 13.09375 L 540.65625 13.054688 L 540.609375 12.96875 L 540.570312 12.882812 L 540.554688 12.839844 L 540.535156 12.792969 L 540.523438 12.742188 L 540.507812 12.691406 L 540.5 12.640625 L 540.488281 12.589844 L 540.480469 12.535156 L 540.476562 12.480469 L 540.472656 12.421875 L 540.46875 12.367188 L 540.46875 12.222656 L 540.472656 12.140625 L 540.484375 12.058594 L 540.496094 11.980469 L 540.511719 11.90625 L 540.527344 11.835938 L 540.550781 11.765625 L 540.605469 11.632812 L 540.640625 11.570312 L 540.675781 11.511719 L 540.714844 11.453125 L 540.757812 11.394531 L 540.800781 11.339844 L 540.847656 11.289062 L 540.898438 11.238281 L 540.953125 11.191406 L 541.0625 11.105469 L 541.125 11.0625 L 541.1875 11.027344 L 541.253906 10.988281 L 541.320312 10.953125 L 541.390625 10.921875 L 541.460938 10.894531 L 541.535156 10.867188 L 541.613281 10.839844 L 541.691406 10.816406 L 541.855469 10.777344 L 541.941406 10.757812 L 542.027344 10.742188 L 542.113281 10.730469 L 542.292969 10.707031 L 542.386719 10.699219 L 542.667969 10.6875 L 542.878906 10.6875 L 543.089844 10.695312 L 543.191406 10.699219 L 543.289062 10.707031 L 543.382812 10.71875 L 543.5625 10.742188 L 543.648438 10.757812 L 543.730469 10.777344 L 543.808594 10.792969 L 543.882812 10.8125 L 543.957031 10.835938 L 544.097656 10.882812 L 544.164062 10.910156 L 544.289062 10.972656 L 544.347656 11.003906 L 544.457031 11.074219 L 544.558594 11.152344 L 544.605469 11.191406 L 544.652344 11.234375 L 544.691406 11.28125 L 544.734375 11.328125 L 544.773438 11.375 L 544.808594 11.425781 L 544.839844 11.476562 L 544.875 11.527344 L 544.90625 11.582031 L 544.9375 11.640625 L 544.964844 11.695312 L 544.992188 11.753906 L 545.019531 11.816406 L 545.042969 11.878906 L 545.066406 11.945312 L 545.085938 12.011719 L 545.109375 12.078125 L 544.300781 12.21875 L 544.289062 12.175781 L 544.273438 12.132812 L 544.257812 12.09375 L 544.242188 12.050781 L 544.226562 12.011719 L 544.207031 11.972656 L 544.1875 11.9375 L 544.167969 11.898438 L 544.148438 11.863281 L 544.125 11.828125 L 544.101562 11.796875 L 544.078125 11.761719 L 544.023438 11.699219 L 543.992188 11.671875 L 543.964844 11.644531 L 543.933594 11.617188 L 543.898438 11.589844 L 543.863281 11.566406 L 543.828125 11.539062 L 543.789062 11.519531 L 543.75 11.496094 L 543.710938 11.476562 L 543.667969 11.457031 L 543.621094 11.4375 L 543.578125 11.421875 L 543.527344 11.40625 L 543.480469 11.390625 L 543.429688 11.378906 L 543.375 11.363281 L 543.324219 11.351562 L 543.269531 11.34375 L 543.152344 11.328125 L 543.027344 11.3125 L 542.964844 11.308594 L 542.898438 11.308594 L 542.828125 11.304688 L 542.675781 11.304688 L 542.59375 11.308594 L 542.515625 11.3125 L 542.441406 11.316406 L 542.300781 11.332031 L 542.167969 11.355469 L 542.109375 11.367188 L 542.046875 11.382812 L 541.992188 11.398438 L 541.941406 11.414062 L 541.886719 11.429688 L 541.746094 11.488281 L 541.703125 11.511719 L 541.625 11.558594 L 541.589844 11.582031 L 541.554688 11.609375 L 541.523438 11.636719 L 541.464844 11.695312 L 541.441406 11.726562 L 541.417969 11.753906 L 541.394531 11.789062 L 541.375 11.820312 L 541.355469 11.855469 L 541.339844 11.890625 L 541.324219 11.921875 L 541.3125 11.957031 L 541.300781 11.996094 L 541.292969 12.03125 L 541.285156 12.070312 L 541.277344 12.105469 L 541.265625 12.222656 L 541.265625 12.261719 L 541.269531 12.316406 L 541.277344 12.417969 L 541.300781 12.511719 L 541.316406 12.554688 L 541.332031 12.59375 L 541.351562 12.636719 L 541.375 12.671875 L 541.398438 12.710938 L 541.429688 12.742188 L 541.457031 12.777344 L 541.492188 12.808594 L 541.523438 12.839844 L 541.5625 12.867188 L 541.597656 12.894531 L 541.636719 12.921875 L 541.679688 12.949219 L 541.722656 12.972656 L 541.863281 13.042969 L 541.914062 13.0625 L 541.964844 13.085938 L 542.019531 13.105469 L 542.074219 13.121094 L 542.128906 13.140625 L 542.1875 13.160156 L 542.304688 13.191406 L 542.492188 13.238281 L 542.558594 13.253906 L 542.621094 13.269531 L 542.886719 13.332031 L 542.957031 13.34375 L 543.011719 13.359375 L 543.121094 13.382812 L 543.179688 13.398438 L 543.234375 13.410156 L 543.289062 13.425781 L 543.34375 13.4375 L 543.398438 13.453125 L 543.453125 13.464844 L 543.507812 13.480469 L 543.566406 13.492188 L 543.621094 13.503906 L 543.730469 13.535156 L 543.78125 13.550781 L 543.835938 13.566406 L 543.886719 13.582031 L 543.941406 13.601562 L 543.992188 13.621094 L 544.042969 13.636719 L 544.09375 13.65625 L 544.140625 13.675781 L 544.191406 13.695312 L 544.238281 13.714844 L 544.289062 13.738281 L 544.335938 13.757812 L 544.378906 13.78125 L 544.472656 13.828125 L 544.515625 13.851562 L 544.644531 13.933594 L 544.683594 13.960938 L 544.761719 14.023438 L 544.796875 14.054688 L 544.835938 14.085938 L 544.867188 14.121094 L 544.902344 14.15625 L 544.964844 14.234375 L 545.019531 14.3125 L 545.046875 14.355469 L 545.09375 14.441406 L 545.117188 14.488281 L 545.15625 14.582031 L 545.1875 14.683594 L 545.203125 14.738281 L 545.226562 14.847656 L 545.234375 14.90625 L 545.242188 14.96875 L 545.25 15.09375 Z M 545.25 15.160156 "/>
<path style=" stroke:none;fill-rule:evenodd;fill:rgb(0%,0%,0%);fill-opacity:1;" d="M 321.582031 208.238281 L 321.582031 203.707031 L 321.578125 203.667969 L 321.578125 203.445312 L 321.574219 203.410156 L 321.574219 203.144531 L 321.570312 203.109375 L 321.570312 203.003906 L 321.566406 202.96875 L 321.566406 202.898438 L 321.5625 202.867188 L 321.5625 202.769531 L 321.558594 202.738281 L 321.558594 202.644531 L 321.554688 202.613281 L 321.554688 202.558594 L 321.550781 202.53125 L 321.550781 202.453125 L 321.546875 202.425781 L 322.460938 202.425781 L 322.460938 202.453125 L 322.464844 202.476562 L 322.464844 202.558594 L 322.46875 202.589844 L 322.46875 202.648438 L 322.472656 202.679688 L 322.472656 202.742188 L 322.476562 202.773438 L 322.476562 202.804688 L 322.480469 202.835938 L 322.480469 202.871094 L 322.484375 202.902344 L 322.484375 202.96875 L 322.488281 203 L 322.488281 203.035156 L 322.492188 203.066406 L 322.492188 203.132812 L 322.496094 203.164062 L 322.496094 203.261719 L 322.5 203.292969 L 322.5 203.441406 L 322.503906 203.46875 L 322.503906 203.613281 L 322.527344 203.613281 L 322.546875 203.546875 L 322.566406 203.484375 L 322.589844 203.421875 L 322.628906 203.304688 L 322.652344 203.246094 L 322.675781 203.191406 L 322.695312 203.140625 L 322.71875 203.085938 L 322.742188 203.039062 L 322.765625 202.988281 L 322.789062 202.945312 L 322.816406 202.898438 L 322.839844 202.855469 L 322.867188 202.8125 L 322.894531 202.773438 L 322.925781 202.738281 L 322.953125 202.703125 L 322.984375 202.667969 L 323.078125 202.574219 L 323.148438 202.519531 L 323.183594 202.496094 L 323.222656 202.472656 L 323.300781 202.433594 L 323.34375 202.414062 L 323.429688 202.382812 L 323.570312 202.347656 L 323.621094 202.339844 L 323.730469 202.324219 L 323.789062 202.320312 L 323.976562 202.320312 L 324 202.324219 L 324.023438 202.324219 L 324.042969 202.328125 L 324.066406 202.328125 L 324.089844 202.332031 L 324.109375 202.335938 L 324.132812 202.339844 L 324.191406 202.351562 L 324.210938 202.351562 L 324.273438 202.367188 L 324.285156 202.371094 L 324.296875 202.371094 L 324.296875 203.257812 L 324.238281 203.246094 L 324.214844 203.238281 L 324.195312 203.234375 L 324.171875 203.230469 L 324.148438 203.230469 L 324.121094 203.226562 L 324.097656 203.222656 L 324.074219 203.222656 L 324.019531 203.214844 L 323.992188 203.214844 L 323.964844 203.210938 L 323.9375 203.210938 L 323.90625 203.207031 L 323.71875 203.207031 L 323.652344 203.210938 L 323.589844 203.21875 L 323.472656 203.242188 L 323.417969 203.257812 L 323.363281 203.277344 L 323.3125 203.300781 L 323.261719 203.328125 L 323.214844 203.355469 L 323.167969 203.386719 L 323.082031 203.457031 L 323.003906 203.535156 L 322.964844 203.578125 L 322.894531 203.671875 L 322.832031 203.773438 L 322.777344 203.882812 L 322.75 203.941406 L 322.726562 204.003906 L 322.707031 204.066406 L 322.683594 204.128906 L 322.664062 204.195312 L 322.632812 204.335938 L 322.617188 204.410156 L 322.605469 204.480469 L 322.59375 204.558594 L 322.582031 204.632812 L 322.566406 204.789062 L 322.558594 204.871094 L 322.554688 204.953125 L 322.550781 205.039062 L 322.546875 205.121094 L 322.546875 208.238281 Z M 321.582031 208.238281 "/>
<path style=" stroke:none;fill-rule:evenodd;fill:rgb(0%,0%,0%);fill-opacity:1;" d="M 326.703125 208.34375 L 326.535156 208.339844 L 326.371094 208.328125 L 326.21875 208.304688 L 326.074219 208.269531 L 325.9375 208.230469 L 325.8125 208.179688 L 325.691406 208.117188 L 325.582031 208.050781 L 325.480469 207.972656 L 325.386719 207.882812 L 325.304688 207.789062 L 325.230469 207.683594 L 325.164062 207.574219 L 325.105469 207.457031 L 325.058594 207.335938 L 325.019531 207.207031 L 324.988281 207.066406 L 324.964844 206.925781 L 324.953125 206.773438 L 324.949219 206.617188 L 324.949219 206.503906 L 324.957031 206.394531 L 324.96875 206.289062 L 325 206.09375 L 325.027344 206 L 325.054688 205.914062 L 325.085938 205.832031 L 325.121094 205.75 L 325.207031 205.601562 L 325.308594 205.46875 L 325.359375 205.40625 L 325.414062 205.34375 L 325.472656 205.289062 L 325.535156 205.234375 L 325.597656 205.1875 L 325.664062 205.140625 L 325.730469 205.097656 L 325.804688 205.054688 L 325.878906 205.015625 L 325.953125 204.980469 L 326.109375 204.917969 L 326.191406 204.890625 L 326.363281 204.84375 L 326.449219 204.824219 L 326.539062 204.804688 L 326.628906 204.789062 L 326.71875 204.777344 L 326.808594 204.761719 L 326.902344 204.753906 L 326.992188 204.742188 L 327.085938 204.734375 L 327.175781 204.726562 L 327.457031 204.714844 L 328.761719 204.691406 L 328.761719 204.304688 L 328.757812 204.238281 L 328.753906 204.167969 L 328.75 204.105469 L 328.742188 204.042969 L 328.726562 203.925781 L 328.714844 203.867188 L 328.699219 203.816406 L 328.6875 203.765625 L 328.671875 203.714844 L 328.632812 203.621094 L 328.613281 203.578125 L 328.589844 203.535156 L 328.542969 203.457031 L 328.515625 203.421875 L 328.484375 203.386719 L 328.457031 203.355469 L 328.421875 203.324219 L 328.390625 203.296875 L 328.355469 203.269531 L 328.316406 203.246094 L 328.28125 203.222656 L 328.238281 203.199219 L 328.199219 203.179688 L 328.15625 203.160156 L 328.0625 203.128906 L 328.015625 203.117188 L 327.96875 203.101562 L 327.917969 203.089844 L 327.863281 203.082031 L 327.8125 203.074219 L 327.753906 203.066406 L 327.699219 203.0625 L 327.640625 203.058594 L 327.578125 203.054688 L 327.40625 203.054688 L 327.351562 203.058594 L 327.199219 203.070312 L 327.152344 203.074219 L 327.101562 203.082031 L 327.054688 203.089844 L 327.011719 203.097656 L 326.964844 203.105469 L 326.921875 203.117188 L 326.878906 203.125 L 326.839844 203.140625 L 326.800781 203.152344 L 326.722656 203.183594 L 326.617188 203.242188 L 326.585938 203.265625 L 326.554688 203.285156 L 326.523438 203.3125 L 326.496094 203.335938 L 326.46875 203.363281 L 326.441406 203.394531 L 326.394531 203.457031 L 326.371094 203.492188 L 326.332031 203.5625 L 326.3125 203.601562 L 326.296875 203.640625 L 326.28125 203.683594 L 326.265625 203.730469 L 326.253906 203.773438 L 326.242188 203.824219 L 326.230469 203.871094 L 326.214844 203.980469 L 325.207031 203.886719 L 325.230469 203.753906 L 325.246094 203.6875 L 325.265625 203.621094 L 325.304688 203.496094 L 325.328125 203.433594 L 325.410156 203.257812 L 325.441406 203.203125 L 325.476562 203.144531 L 325.511719 203.09375 L 325.550781 203.039062 L 325.589844 202.988281 L 325.636719 202.941406 L 325.679688 202.890625 L 325.730469 202.847656 L 325.78125 202.800781 L 325.835938 202.757812 L 325.890625 202.71875 L 326.015625 202.640625 L 326.078125 202.605469 L 326.21875 202.542969 L 326.292969 202.511719 L 326.367188 202.484375 L 326.445312 202.460938 L 326.527344 202.4375 L 326.613281 202.414062 L 326.792969 202.375 L 326.890625 202.363281 L 326.988281 202.347656 L 327.09375 202.335938 L 327.199219 202.328125 L 327.308594 202.324219 L 327.421875 202.320312 L 327.535156 202.320312 L 327.75 202.324219 L 327.953125 202.339844 L 328.144531 202.363281 L 328.328125 202.398438 L 328.496094 202.445312 L 328.65625 202.5 L 328.804688 202.566406 L 328.941406 202.640625 L 329.070312 202.726562 L 329.1875 202.824219 L 329.292969 202.929688 L 329.386719 203.042969 L 329.46875 203.164062 L 329.539062 203.296875 L 329.601562 203.4375 L 329.652344 203.585938 L 329.691406 203.746094 L 329.71875 203.910156 L 329.734375 204.089844 L 329.738281 204.273438 L 329.738281 206.777344 L 329.742188 206.859375 L 329.742188 206.941406 L 329.75 207.015625 L 329.757812 207.085938 L 329.765625 207.152344 L 329.78125 207.21875 L 329.792969 207.277344 L 329.8125 207.332031 L 329.851562 207.425781 L 329.875 207.46875 L 329.90625 207.503906 L 329.9375 207.535156 L 330.015625 207.589844 L 330.109375 207.621094 L 330.164062 207.632812 L 330.21875 207.640625 L 330.363281 207.640625 L 330.378906 207.636719 L 330.410156 207.636719 L 330.425781 207.632812 L 330.441406 207.632812 L 330.457031 207.628906 L 330.476562 207.625 L 330.492188 207.625 L 330.523438 207.617188 L 330.539062 207.617188 L 330.554688 207.613281 L 330.566406 207.609375 L 330.582031 207.605469 L 330.597656 207.605469 L 330.597656 208.207031 L 330.527344 208.222656 L 330.488281 208.230469 L 330.453125 208.238281 L 330.414062 208.242188 L 330.378906 208.25 L 330.34375 208.253906 L 330.304688 208.261719 L 330.199219 208.273438 L 330.160156 208.277344 L 330.125 208.28125 L 330.085938 208.285156 L 330.050781 208.285156 L 330.011719 208.289062 L 329.933594 208.289062 L 329.894531 208.292969 L 329.851562 208.292969 L 329.796875 208.289062 L 329.746094 208.289062 L 329.644531 208.28125 L 329.503906 208.257812 L 329.417969 208.234375 L 329.378906 208.222656 L 329.339844 208.207031 L 329.304688 208.1875 L 329.269531 208.171875 L 329.234375 208.152344 L 329.171875 208.105469 L 329.144531 208.082031 L 329.113281 208.058594 L 329.089844 208.03125 L 329.0625 208 L 329.039062 207.972656 L 329.015625 207.9375 L 328.992188 207.90625 L 328.953125 207.835938 L 328.933594 207.796875 L 328.886719 207.679688 L 328.875 207.636719 L 328.863281 207.589844 L 328.851562 207.546875 L 328.839844 207.496094 L 328.832031 207.449219 L 328.820312 207.398438 L 328.816406 207.347656 L 328.800781 207.238281 L 328.796875 207.183594 L 328.792969 207.125 L 328.761719 207.125 L 328.699219 207.234375 L 328.664062 207.289062 L 328.632812 207.339844 L 328.527344 207.492188 L 328.457031 207.585938 L 328.417969 207.632812 L 328.378906 207.675781 L 328.34375 207.71875 L 328.261719 207.800781 L 328.175781 207.878906 L 328.128906 207.914062 L 328.085938 207.949219 L 328.035156 207.984375 L 327.988281 208.019531 L 327.9375 208.046875 L 327.886719 208.078125 L 327.832031 208.105469 L 327.78125 208.132812 L 327.722656 208.15625 L 327.667969 208.179688 L 327.609375 208.203125 L 327.546875 208.222656 L 327.488281 208.242188 L 327.425781 208.257812 L 327.359375 208.277344 L 327.296875 208.289062 L 327.230469 208.304688 L 327.160156 208.3125 L 327.089844 208.324219 L 327.015625 208.332031 L 326.941406 208.335938 L 326.863281 208.34375 Z M 326.925781 207.621094 L 327.105469 207.613281 L 327.191406 207.605469 L 327.277344 207.59375 L 327.355469 207.578125 L 327.4375 207.558594 L 327.511719 207.539062 L 327.589844 207.511719 L 327.660156 207.484375 L 327.730469 207.453125 L 327.800781 207.417969 L 327.863281 207.382812 L 327.929688 207.34375 L 328.105469 207.214844 L 328.160156 207.167969 L 328.210938 207.121094 L 328.304688 207.019531 L 328.351562 206.964844 L 328.394531 206.910156 L 328.472656 206.800781 L 328.507812 206.742188 L 328.570312 206.625 L 328.597656 206.566406 L 328.625 206.503906 L 328.648438 206.445312 L 328.671875 206.382812 L 328.691406 206.320312 L 328.707031 206.257812 L 328.722656 206.199219 L 328.734375 206.140625 L 328.742188 206.078125 L 328.757812 205.960938 L 328.761719 205.90625 L 328.761719 205.371094 L 327.703125 205.390625 L 327.632812 205.394531 L 327.5625 205.394531 L 327.492188 205.398438 L 327.425781 205.402344 L 327.355469 205.40625 L 327.289062 205.414062 L 327.222656 205.417969 L 327.15625 205.425781 L 327.089844 205.4375 L 326.964844 205.453125 L 326.902344 205.464844 L 326.84375 205.480469 L 326.785156 205.492188 L 326.730469 205.511719 L 326.671875 205.53125 L 326.621094 205.550781 L 326.566406 205.570312 L 326.515625 205.597656 L 326.46875 205.621094 L 326.421875 205.648438 L 326.375 205.679688 L 326.332031 205.710938 L 326.289062 205.746094 L 326.214844 205.820312 L 326.175781 205.863281 L 326.113281 205.949219 L 326.082031 206 L 326.054688 206.046875 L 326.03125 206.101562 L 326.011719 206.15625 L 325.992188 206.214844 L 325.976562 206.277344 L 325.953125 206.410156 L 325.949219 206.480469 L 325.941406 206.554688 L 325.941406 206.632812 L 325.945312 206.722656 L 325.953125 206.8125 L 325.964844 206.894531 L 325.980469 206.976562 L 326.003906 207.050781 L 326.03125 207.121094 L 326.066406 207.1875 L 326.101562 207.25 L 326.144531 207.308594 L 326.195312 207.363281 L 326.246094 207.410156 L 326.304688 207.457031 L 326.367188 207.492188 L 326.433594 207.527344 L 326.503906 207.554688 L 326.582031 207.578125 L 326.660156 207.597656 L 326.746094 207.609375 L 326.832031 207.617188 Z M 326.925781 207.621094 "/>
<path style=" stroke:none;fill-rule:evenodd;fill:rgb(0%,0%,0%);fill-opacity:1;" d="M 333.574219 208.195312 L 333.53125 208.207031 L 333.484375 208.21875 L 333.441406 208.226562 L 333.394531 208.238281 L 333.351562 208.246094 L 333.304688 208.257812 L 333.261719 208.265625 L 333.167969 208.28125 L 333.121094 208.285156 L 333.078125 208.292969 L 333.03125 208.300781 L 332.878906 208.3125 L 332.714844 208.324219 L 332.597656 208.324219 L 332.375 208.3125 L 332.179688 208.269531 L 332.003906 208.207031 L 331.855469 208.113281 L 331.726562 207.996094 L 331.621094 207.851562 L 331.539062 207.679688 L 331.484375 207.480469 L 331.449219 207.257812 L 331.4375 207.007812 L 331.4375 203.128906 L 330.765625 203.128906 L 330.765625 202.425781 L 331.472656 202.425781 L 331.757812 201.125 L 332.402344 201.125 L 332.402344 202.425781 L 333.476562 202.425781 L 333.476562 203.128906 L 332.402344 203.128906 L 332.402344 206.796875 L 332.40625 206.878906 L 332.410156 206.957031 L 332.414062 207.027344 L 332.425781 207.09375 L 332.4375 207.15625 L 332.46875 207.265625 L 332.488281 207.3125 L 332.511719 207.351562 L 332.539062 207.390625 L 332.566406 207.421875 L 332.601562 207.449219 L 332.679688 207.496094 L 332.726562 207.515625 L 332.777344 207.527344 L 332.886719 207.550781 L 332.949219 207.554688 L 333.097656 207.554688 L 333.125 207.550781 L 333.152344 207.550781 L 333.179688 207.546875 L 333.207031 207.546875 L 333.230469 207.542969 L 333.3125 207.53125 L 333.339844 207.523438 L 333.421875 207.511719 L 333.453125 207.503906 L 333.484375 207.5 L 333.511719 207.492188 L 333.542969 207.488281 L 333.574219 207.480469 Z M 333.574219 208.195312 "/>
<path style=" stroke:none;fill-rule:evenodd;fill:rgb(0%,0%,0%);fill-opacity:1;" d="M 335.136719 205.535156 L 335.136719 205.625 L 335.144531 205.804688 L 335.160156 205.976562 L 335.195312 206.222656 L 335.226562 206.378906 L 335.25 206.453125 L 335.269531 206.527344 L 335.296875 206.597656 L 335.320312 206.667969 L 335.347656 206.734375 L 335.378906 206.800781 L 335.410156 206.863281 L 335.445312 206.925781 L 335.480469 206.984375 L 335.558594 207.09375 L 335.601562 207.144531 L 335.648438 207.195312 L 335.695312 207.242188 L 335.742188 207.285156 L 335.796875 207.328125 L 335.847656 207.367188 L 335.964844 207.4375 L 336.023438 207.46875 L 336.085938 207.5 L 336.21875 207.546875 L 336.289062 207.566406 L 336.359375 207.582031 L 336.433594 207.597656 L 336.511719 207.605469 L 336.59375 207.613281 L 336.757812 207.621094 L 336.882812 207.617188 L 337 207.609375 L 337.113281 207.597656 L 337.222656 207.578125 L 337.324219 207.558594 L 337.421875 207.527344 L 337.515625 207.496094 L 337.601562 207.457031 L 337.6875 207.414062 L 337.761719 207.367188 L 337.835938 207.316406 L 337.90625 207.261719 L 337.96875 207.203125 L 338.027344 207.144531 L 338.082031 207.082031 L 338.132812 207.015625 L 338.175781 206.949219 L 338.214844 206.878906 L 338.25 206.804688 L 338.277344 206.730469 L 339.128906 206.96875 L 339.109375 207.019531 L 339.089844 207.066406 L 339.066406 207.117188 L 339.042969 207.164062 L 339.019531 207.214844 L 338.992188 207.261719 L 338.964844 207.3125 L 338.933594 207.359375 L 338.871094 207.460938 L 338.800781 207.554688 L 338.761719 207.601562 L 338.722656 207.644531 L 338.679688 207.691406 L 338.636719 207.734375 L 338.589844 207.777344 L 338.539062 207.816406 L 338.488281 207.859375 L 338.378906 207.9375 L 338.320312 207.972656 L 338.195312 208.042969 L 338.125 208.078125 L 338.054688 208.109375 L 337.984375 208.136719 L 337.90625 208.167969 L 337.828125 208.195312 L 337.746094 208.222656 L 337.664062 208.246094 L 337.578125 208.265625 L 337.488281 208.285156 L 337.394531 208.300781 L 337.296875 208.3125 L 337.09375 208.335938 L 336.875 208.34375 L 336.757812 208.34375 L 336.507812 208.335938 L 336.269531 208.316406 L 336.039062 208.277344 L 335.824219 208.222656 L 335.625 208.152344 L 335.433594 208.070312 L 335.253906 207.96875 L 335.089844 207.855469 L 334.933594 207.722656 L 334.792969 207.578125 L 334.664062 207.417969 L 334.550781 207.238281 L 334.449219 207.050781 L 334.363281 206.84375 L 334.289062 206.621094 L 334.230469 206.386719 L 334.183594 206.136719 L 334.148438 205.871094 L 334.128906 205.589844 L 334.121094 205.292969 L 334.125 205.132812 L 334.128906 204.976562 L 334.140625 204.828125 L 334.15625 204.683594 L 334.171875 204.542969 L 334.195312 204.40625 L 334.222656 204.273438 L 334.253906 204.148438 L 334.324219 203.914062 L 334.367188 203.800781 L 334.414062 203.695312 L 334.460938 203.59375 L 334.511719 203.492188 L 334.566406 203.398438 L 334.625 203.308594 L 334.6875 203.222656 L 334.75 203.140625 L 334.816406 203.0625 L 334.882812 202.992188 L 334.957031 202.921875 L 335.03125 202.855469 L 335.1875 202.738281 L 335.269531 202.683594 L 335.351562 202.636719 L 335.4375 202.589844 L 335.617188 202.511719 L 335.710938 202.480469 L 335.808594 202.449219 L 335.902344 202.421875 L 336 202.398438 L 336.101562 202.375 L 336.199219 202.359375 L 336.300781 202.34375 L 336.40625 202.332031 L 336.507812 202.324219 L 336.613281 202.320312 L 336.867188 202.320312 L 337.003906 202.328125 L 337.136719 202.339844 L 337.265625 202.355469 L 337.390625 202.378906 L 337.511719 202.402344 L 337.625 202.433594 L 337.734375 202.46875 L 337.839844 202.511719 L 337.941406 202.554688 L 338.039062 202.605469 L 338.128906 202.65625 L 338.21875 202.714844 L 338.304688 202.773438 L 338.386719 202.835938 L 338.535156 202.976562 L 338.605469 203.050781 L 338.667969 203.128906 L 338.730469 203.210938 L 338.789062 203.292969 L 338.84375 203.382812 L 338.894531 203.472656 L 338.988281 203.660156 L 339.066406 203.863281 L 339.097656 203.96875 L 339.128906 204.078125 L 339.15625 204.1875 L 339.179688 204.300781 L 339.203125 204.417969 L 339.21875 204.535156 L 339.238281 204.652344 L 339.25 204.773438 L 339.273438 205.023438 L 339.277344 205.148438 L 339.285156 205.40625 L 339.285156 205.535156 Z M 338.285156 204.796875 L 338.265625 204.617188 L 338.238281 204.449219 L 338.207031 204.289062 L 338.171875 204.140625 L 338.128906 204 L 338.078125 203.871094 L 338.023438 203.753906 L 337.960938 203.644531 L 337.890625 203.546875 L 337.816406 203.457031 L 337.738281 203.375 L 337.648438 203.304688 L 337.554688 203.242188 L 337.453125 203.1875 L 337.347656 203.140625 L 337.230469 203.101562 L 337.109375 203.070312 L 336.980469 203.050781 L 336.847656 203.039062 L 336.707031 203.035156 L 336.609375 203.035156 L 336.558594 203.039062 L 336.40625 203.0625 L 336.355469 203.074219 L 336.300781 203.085938 L 336.25 203.097656 L 336.195312 203.113281 L 336.144531 203.128906 L 336.089844 203.148438 L 336.039062 203.171875 L 335.992188 203.195312 L 335.941406 203.21875 L 335.894531 203.25 L 335.84375 203.28125 L 335.796875 203.3125 L 335.753906 203.347656 L 335.707031 203.386719 L 335.664062 203.429688 L 335.617188 203.472656 L 335.578125 203.519531 L 335.5 203.621094 L 335.460938 203.679688 L 335.390625 203.796875 L 335.355469 203.863281 L 335.324219 203.929688 L 335.296875 204 L 335.242188 204.148438 L 335.222656 204.230469 L 335.203125 204.316406 L 335.1875 204.402344 L 335.171875 204.496094 L 335.160156 204.59375 L 335.152344 204.691406 L 335.148438 204.796875 Z M 338.285156 204.796875 "/>
<path style=" stroke:none;fill-rule:evenodd;fill:rgb(0%,0%,0%);fill-opacity:1;" d="M 13.046875 119.882812 L 13.046875 121.027344 L 7.234375 123.140625 L 7.234375 122.109375 L 11.015625 120.828125 L 11.042969 120.824219 L 11.066406 120.8125 L 11.148438 120.789062 L 11.179688 120.78125 L 11.207031 120.773438 L 11.242188 120.761719 L 11.273438 120.753906 L 11.308594 120.742188 L 11.339844 120.734375 L 11.410156 120.710938 L 11.441406 120.699219 L 11.476562 120.691406 L 11.582031 120.65625 L 11.621094 120.648438 L 11.691406 120.625 L 11.730469 120.617188 L 11.800781 120.59375 L 11.835938 120.585938 L 11.871094 120.574219 L 11.941406 120.558594 L 11.976562 120.546875 L 12.011719 120.539062 L 12.042969 120.53125 L 12.074219 120.519531 L 12.136719 120.503906 L 12.21875 120.480469 L 12.265625 120.464844 L 12.289062 120.460938 L 12.21875 120.4375 L 12.136719 120.414062 L 12.074219 120.398438 L 12.042969 120.386719 L 12.011719 120.378906 L 11.941406 120.355469 L 11.90625 120.347656 L 11.800781 120.3125 L 11.765625 120.304688 L 11.660156 120.269531 L 11.625 120.261719 L 11.554688 120.238281 L 11.523438 120.226562 L 11.488281 120.21875 L 11.417969 120.195312 L 11.386719 120.183594 L 11.351562 120.175781 L 11.316406 120.164062 L 11.285156 120.152344 L 11.25 120.140625 L 11.21875 120.128906 L 11.1875 120.121094 L 11.132812 120.097656 L 11.105469 120.089844 L 11.078125 120.078125 L 11.050781 120.070312 L 11.027344 120.0625 L 7.234375 118.742188 L 7.234375 117.714844 Z M 13.046875 119.882812 "/>
<path style=" stroke:none;fill-rule:evenodd;fill:rgb(0%,0%,0%);fill-opacity:1;" d="M 13.15625 115.453125 L 13.148438 115.625 L 13.136719 115.785156 L 13.113281 115.941406 L 13.082031 116.085938 L 13.039062 116.21875 L 12.988281 116.347656 L 12.929688 116.464844 L 12.859375 116.574219 L 12.78125 116.675781 L 12.691406 116.769531 L 12.597656 116.851562 L 12.496094 116.929688 L 12.382812 116.992188 L 12.269531 117.050781 L 12.144531 117.101562 L 12.015625 117.140625 L 11.878906 117.171875 L 11.734375 117.191406 L 11.582031 117.207031 L 11.425781 117.210938 L 11.3125 117.207031 L 11.203125 117.203125 L 11.097656 117.191406 L 11 117.175781 L 10.902344 117.15625 L 10.8125 117.132812 L 10.722656 117.105469 L 10.640625 117.074219 L 10.558594 117.035156 L 10.484375 116.996094 L 10.34375 116.902344 L 10.277344 116.851562 L 10.214844 116.796875 L 10.15625 116.742188 L 10.097656 116.683594 L 10.046875 116.625 L 9.996094 116.558594 L 9.949219 116.496094 L 9.863281 116.355469 L 9.828125 116.28125 L 9.757812 116.125 L 9.726562 116.046875 L 9.699219 115.964844 L 9.675781 115.882812 L 9.652344 115.796875 L 9.632812 115.710938 L 9.613281 115.621094 L 9.601562 115.53125 L 9.585938 115.4375 L 9.5625 115.257812 L 9.550781 115.164062 L 9.542969 115.074219 L 9.535156 114.980469 L 9.527344 114.792969 L 9.523438 114.703125 L 9.503906 113.394531 L 9.183594 113.394531 L 9.113281 113.398438 L 9.046875 113.398438 L 8.980469 113.402344 L 8.914062 113.410156 L 8.851562 113.414062 L 8.792969 113.421875 L 8.734375 113.433594 L 8.625 113.457031 L 8.523438 113.488281 L 8.476562 113.503906 L 8.429688 113.523438 L 8.386719 113.542969 L 8.34375 113.566406 L 8.304688 113.589844 L 8.265625 113.617188 L 8.195312 113.671875 L 8.132812 113.734375 L 8.078125 113.804688 L 8.054688 113.839844 L 8.007812 113.917969 L 7.988281 113.960938 L 7.972656 114.003906 L 7.953125 114.046875 L 7.9375 114.09375 L 7.925781 114.140625 L 7.890625 114.292969 L 7.875 114.402344 L 7.863281 114.578125 L 7.863281 114.699219 L 7.867188 114.753906 L 7.867188 114.804688 L 7.871094 114.855469 L 7.875 114.910156 L 7.878906 114.957031 L 7.886719 115.007812 L 7.890625 115.054688 L 7.90625 115.148438 L 7.914062 115.191406 L 7.9375 115.277344 L 7.949219 115.316406 L 7.960938 115.359375 L 7.976562 115.398438 L 7.992188 115.433594 L 8.050781 115.539062 L 8.121094 115.632812 L 8.148438 115.664062 L 8.175781 115.691406 L 8.203125 115.714844 L 8.234375 115.742188 L 8.265625 115.765625 L 8.300781 115.785156 L 8.335938 115.808594 L 8.375 115.828125 L 8.410156 115.847656 L 8.453125 115.863281 L 8.492188 115.878906 L 8.539062 115.890625 L 8.585938 115.90625 L 8.632812 115.917969 L 8.734375 115.933594 L 8.789062 115.941406 L 8.695312 116.953125 L 8.628906 116.941406 L 8.429688 116.894531 L 8.367188 116.875 L 8.304688 116.851562 L 8.246094 116.828125 L 8.183594 116.804688 L 8.125 116.777344 L 8.066406 116.746094 L 7.957031 116.683594 L 7.902344 116.648438 L 7.847656 116.609375 L 7.796875 116.566406 L 7.75 116.523438 L 7.65625 116.429688 L 7.613281 116.378906 L 7.570312 116.324219 L 7.527344 116.265625 L 7.488281 116.207031 L 7.453125 116.144531 L 7.382812 116.011719 L 7.351562 115.941406 L 7.324219 115.867188 L 7.269531 115.710938 L 7.222656 115.546875 L 7.203125 115.457031 L 7.171875 115.269531 L 7.15625 115.167969 L 7.148438 115.066406 L 7.140625 114.960938 L 7.132812 114.851562 L 7.128906 114.738281 L 7.128906 114.621094 L 7.132812 114.40625 L 7.148438 114.203125 L 7.171875 114.011719 L 7.210938 113.832031 L 7.253906 113.660156 L 7.308594 113.5 L 7.375 113.351562 L 7.453125 113.214844 L 7.539062 113.089844 L 7.632812 112.972656 L 7.738281 112.867188 L 7.851562 112.773438 L 7.972656 112.691406 L 8.105469 112.617188 L 8.246094 112.558594 L 8.394531 112.507812 L 8.554688 112.46875 L 8.722656 112.441406 L 8.898438 112.425781 L 9.082031 112.417969 L 11.671875 112.417969 L 11.75 112.414062 L 11.824219 112.410156 L 11.898438 112.402344 L 11.964844 112.390625 L 12.027344 112.378906 L 12.085938 112.363281 L 12.140625 112.347656 L 12.191406 112.328125 L 12.277344 112.28125 L 12.3125 112.253906 L 12.347656 112.21875 L 12.375 112.183594 L 12.398438 112.140625 L 12.417969 112.097656 L 12.433594 112.046875 L 12.441406 111.996094 L 12.449219 111.9375 L 12.449219 111.796875 L 12.445312 111.78125 L 12.445312 111.746094 L 12.441406 111.730469 L 12.441406 111.714844 L 12.4375 111.699219 L 12.4375 111.683594 L 12.429688 111.652344 L 12.429688 111.636719 L 12.417969 111.589844 L 12.417969 111.574219 L 12.414062 111.558594 L 13.015625 111.558594 L 13.023438 111.597656 L 13.039062 111.667969 L 13.046875 111.707031 L 13.050781 111.742188 L 13.058594 111.777344 L 13.066406 111.816406 L 13.074219 111.886719 L 13.078125 111.925781 L 13.085938 111.996094 L 13.089844 112.035156 L 13.09375 112.070312 L 13.09375 112.109375 L 13.097656 112.148438 L 13.097656 112.1875 L 13.101562 112.226562 L 13.101562 112.359375 L 13.097656 112.414062 L 13.09375 112.464844 L 13.089844 112.511719 L 13.082031 112.5625 L 13.074219 112.609375 L 13.066406 112.652344 L 13.042969 112.738281 L 13.03125 112.777344 L 13.015625 112.816406 L 13 112.851562 L 12.960938 112.921875 L 12.890625 113.015625 L 12.867188 113.042969 L 12.839844 113.070312 L 12.8125 113.09375 L 12.78125 113.121094 L 12.75 113.144531 L 12.644531 113.203125 L 12.605469 113.222656 L 12.570312 113.238281 L 12.527344 113.253906 L 12.488281 113.269531 L 12.445312 113.285156 L 12.402344 113.296875 L 12.355469 113.308594 L 12.308594 113.316406 L 12.257812 113.328125 L 12.15625 113.34375 L 12.101562 113.351562 L 11.992188 113.359375 L 11.933594 113.363281 L 11.933594 113.394531 L 11.992188 113.429688 L 12.046875 113.460938 L 12.097656 113.492188 L 12.148438 113.527344 L 12.203125 113.558594 L 12.25 113.59375 L 12.300781 113.628906 L 12.347656 113.667969 L 12.441406 113.738281 L 12.570312 113.855469 L 12.609375 113.894531 L 12.6875 113.980469 L 12.726562 114.027344 L 12.761719 114.074219 L 12.792969 114.121094 L 12.828125 114.167969 L 12.859375 114.21875 L 12.886719 114.269531 L 12.941406 114.378906 L 12.964844 114.433594 L 13.011719 114.550781 L 13.03125 114.609375 L 13.070312 114.734375 L 13.085938 114.796875 L 13.101562 114.863281 L 13.113281 114.929688 L 13.125 115 L 13.140625 115.140625 L 13.148438 115.21875 L 13.152344 115.292969 L 13.152344 115.371094 Z M 12.429688 115.234375 L 12.429688 115.140625 L 12.421875 115.054688 L 12.414062 114.964844 L 12.402344 114.882812 L 12.386719 114.800781 L 12.371094 114.722656 L 12.347656 114.644531 L 12.324219 114.570312 L 12.292969 114.496094 L 12.261719 114.425781 L 12.191406 114.292969 L 12.152344 114.230469 L 12.109375 114.167969 L 12.070312 114.109375 L 11.976562 114 L 11.929688 113.949219 L 11.878906 113.898438 L 11.828125 113.851562 L 11.773438 113.808594 L 11.722656 113.765625 L 11.664062 113.726562 L 11.609375 113.6875 L 11.554688 113.652344 L 11.496094 113.617188 L 11.4375 113.585938 L 11.375 113.558594 L 11.316406 113.53125 L 11.253906 113.507812 L 11.128906 113.46875 L 11.070312 113.453125 L 11.007812 113.4375 L 10.890625 113.414062 L 10.832031 113.40625 L 10.65625 113.394531 L 10.179688 113.394531 L 10.199219 114.453125 L 10.203125 114.523438 L 10.203125 114.59375 L 10.210938 114.734375 L 10.214844 114.800781 L 10.253906 115.132812 L 10.265625 115.195312 L 10.273438 115.253906 L 10.289062 115.316406 L 10.304688 115.371094 L 10.320312 115.429688 L 10.359375 115.539062 L 10.429688 115.691406 L 10.460938 115.738281 L 10.488281 115.78125 L 10.523438 115.824219 L 10.554688 115.867188 L 10.632812 115.945312 L 10.671875 115.980469 L 10.714844 116.015625 L 10.808594 116.078125 L 10.855469 116.101562 L 10.964844 116.148438 L 11.023438 116.164062 L 11.085938 116.179688 L 11.152344 116.195312 L 11.21875 116.203125 L 11.289062 116.210938 L 11.363281 116.214844 L 11.535156 116.214844 L 11.621094 116.207031 L 11.707031 116.195312 L 11.785156 116.175781 L 11.859375 116.152344 L 11.929688 116.125 L 11.996094 116.09375 L 12.058594 116.054688 L 12.117188 116.011719 L 12.171875 115.964844 L 12.222656 115.910156 L 12.265625 115.851562 L 12.304688 115.789062 L 12.335938 115.722656 L 12.363281 115.652344 L 12.386719 115.578125 L 12.40625 115.496094 L 12.417969 115.414062 L 12.425781 115.324219 Z M 12.429688 115.234375 "/>
<path style=" stroke:none;fill-rule:evenodd;fill:rgb(0%,0%,0%);fill-opacity:1;" d="M 13.046875 110.816406 L 5.078125 110.816406 L 5.078125 109.851562 L 13.046875 109.851562 Z M 13.046875 110.816406 "/>
<path style=" stroke:none;fill-rule:evenodd;fill:rgb(0%,0%,0%);fill-opacity:1;" d="M 7.234375 107.429688 L 11.003906 107.429688 L 11.085938 107.425781 L 11.164062 107.421875 L 11.238281 107.417969 L 11.308594 107.414062 L 11.378906 107.40625 L 11.511719 107.390625 L 11.570312 107.382812 L 11.628906 107.371094 L 11.738281 107.339844 L 11.789062 107.324219 L 11.839844 107.304688 L 11.933594 107.265625 L 11.976562 107.242188 L 12.015625 107.21875 L 12.054688 107.191406 L 12.125 107.136719 L 12.1875 107.074219 L 12.214844 107.039062 L 12.261719 106.96875 L 12.285156 106.929688 L 12.324219 106.84375 L 12.339844 106.800781 L 12.351562 106.753906 L 12.375 106.652344 L 12.390625 106.542969 L 12.398438 106.484375 L 12.402344 106.425781 L 12.40625 106.363281 L 12.40625 106.164062 L 12.398438 106.03125 L 12.390625 105.96875 L 12.367188 105.84375 L 12.351562 105.785156 L 12.3125 105.667969 L 12.265625 105.558594 L 12.238281 105.503906 L 12.175781 105.402344 L 12.105469 105.308594 L 12.027344 105.222656 L 11.984375 105.179688 L 11.941406 105.140625 L 11.894531 105.101562 L 11.792969 105.03125 L 11.738281 104.996094 L 11.628906 104.933594 L 11.566406 104.90625 L 11.507812 104.882812 L 11.441406 104.855469 L 11.375 104.835938 L 11.308594 104.8125 L 11.238281 104.796875 L 11.089844 104.765625 L 11.015625 104.753906 L 10.9375 104.746094 L 10.773438 104.730469 L 10.691406 104.726562 L 7.234375 104.726562 L 7.234375 103.761719 L 12.191406 103.761719 L 12.234375 103.757812 L 12.351562 103.757812 L 12.386719 103.753906 L 12.5 103.753906 L 12.539062 103.75 L 12.609375 103.75 L 12.644531 103.746094 L 12.738281 103.746094 L 12.769531 103.742188 L 12.828125 103.742188 L 12.855469 103.738281 L 12.929688 103.738281 L 12.949219 103.734375 L 13.003906 103.734375 L 13.015625 103.730469 L 13.039062 103.730469 L 13.046875 103.726562 L 13.046875 104.640625 L 13.042969 104.640625 L 13.03125 104.644531 L 13.011719 104.644531 L 12.996094 104.648438 L 12.945312 104.648438 L 12.925781 104.652344 L 12.878906 104.652344 L 12.855469 104.65625 L 12.800781 104.65625 L 12.777344 104.660156 L 12.75 104.660156 L 12.722656 104.664062 L 12.691406 104.664062 L 12.664062 104.667969 L 12.601562 104.667969 L 12.570312 104.671875 L 12.476562 104.671875 L 12.445312 104.675781 L 12.382812 104.675781 L 12.351562 104.679688 L 12.261719 104.679688 L 12.230469 104.683594 L 12.054688 104.683594 L 12.054688 104.699219 L 12.105469 104.730469 L 12.199219 104.785156 L 12.339844 104.878906 L 12.46875 104.972656 L 12.511719 105.007812 L 12.550781 105.039062 L 12.589844 105.074219 L 12.664062 105.148438 L 12.734375 105.226562 L 12.765625 105.265625 L 12.800781 105.308594 L 12.828125 105.351562 L 12.859375 105.394531 L 12.886719 105.4375 L 12.914062 105.484375 L 12.960938 105.578125 L 12.984375 105.628906 L 13.003906 105.679688 L 13.023438 105.734375 L 13.042969 105.785156 L 13.058594 105.84375 L 13.074219 105.898438 L 13.089844 105.957031 L 13.101562 106.015625 L 13.117188 106.078125 L 13.125 106.140625 L 13.148438 106.339844 L 13.152344 106.414062 L 13.152344 106.484375 L 13.15625 106.558594 L 13.148438 106.746094 L 13.144531 106.835938 L 13.136719 106.925781 L 13.113281 107.089844 L 13.097656 107.167969 L 13.078125 107.246094 L 13.058594 107.320312 L 13.011719 107.460938 L 12.984375 107.527344 L 12.921875 107.652344 L 12.886719 107.710938 L 12.808594 107.820312 L 12.765625 107.871094 L 12.671875 107.964844 L 12.621094 108.011719 L 12.511719 108.089844 L 12.453125 108.128906 L 12.390625 108.164062 L 12.324219 108.195312 L 12.257812 108.222656 L 12.1875 108.25 L 12.113281 108.277344 L 12.039062 108.300781 L 11.957031 108.320312 L 11.792969 108.351562 L 11.613281 108.375 L 11.515625 108.386719 L 11.417969 108.390625 L 11.320312 108.398438 L 11.214844 108.398438 L 11.109375 108.402344 L 7.234375 108.402344 Z M 7.234375 107.429688 "/>
<path style=" stroke:none;fill-rule:evenodd;fill:rgb(0%,0%,0%);fill-opacity:1;" d="M 10.34375 101.515625 L 10.4375 101.515625 L 10.527344 101.511719 L 10.613281 101.507812 L 10.785156 101.492188 L 10.867188 101.484375 L 10.949219 101.472656 L 11.03125 101.457031 L 11.1875 101.425781 L 11.265625 101.402344 L 11.335938 101.382812 L 11.410156 101.359375 L 11.542969 101.304688 L 11.609375 101.273438 L 11.671875 101.242188 L 11.734375 101.207031 L 11.792969 101.171875 L 11.902344 101.09375 L 11.953125 101.050781 L 12.003906 101.003906 L 12.050781 100.957031 L 12.09375 100.910156 L 12.136719 100.855469 L 12.175781 100.804688 L 12.246094 100.6875 L 12.277344 100.628906 L 12.308594 100.566406 L 12.355469 100.433594 L 12.375 100.363281 L 12.390625 100.292969 L 12.40625 100.21875 L 12.417969 100.140625 L 12.421875 100.058594 L 12.429688 99.976562 L 12.429688 99.894531 L 12.425781 99.769531 L 12.417969 99.652344 L 12.40625 99.539062 L 12.390625 99.429688 L 12.367188 99.328125 L 12.339844 99.230469 L 12.304688 99.136719 L 12.269531 99.050781 L 12.226562 98.964844 L 12.125 98.816406 L 12.070312 98.746094 L 12.011719 98.683594 L 11.953125 98.625 L 11.890625 98.570312 L 11.824219 98.519531 L 11.757812 98.476562 L 11.6875 98.4375 L 11.613281 98.402344 L 11.539062 98.375 L 11.78125 97.523438 L 11.875 97.5625 L 11.925781 97.585938 L 11.972656 97.609375 L 12.023438 97.636719 L 12.070312 97.660156 L 12.121094 97.6875 L 12.167969 97.71875 L 12.269531 97.78125 L 12.363281 97.851562 L 12.410156 97.890625 L 12.453125 97.929688 L 12.5 97.972656 L 12.542969 98.015625 L 12.585938 98.0625 L 12.628906 98.113281 L 12.667969 98.164062 L 12.746094 98.273438 L 12.785156 98.332031 L 12.820312 98.394531 L 12.851562 98.460938 L 12.886719 98.527344 L 12.949219 98.667969 L 13.003906 98.824219 L 13.03125 98.90625 L 13.054688 98.988281 L 13.074219 99.074219 L 13.09375 99.164062 L 13.109375 99.257812 L 13.125 99.355469 L 13.136719 99.457031 L 13.144531 99.5625 L 13.148438 99.667969 L 13.152344 99.777344 L 13.15625 99.894531 L 13.148438 100.144531 L 13.125 100.382812 L 13.085938 100.613281 L 13.03125 100.828125 L 12.960938 101.03125 L 12.878906 101.21875 L 12.777344 101.398438 L 12.664062 101.5625 L 12.53125 101.71875 L 12.386719 101.859375 L 12.226562 101.988281 L 12.050781 102.101562 L 11.859375 102.203125 L 11.652344 102.289062 L 11.433594 102.363281 L 11.195312 102.421875 L 10.945312 102.46875 L 10.679688 102.503906 L 10.398438 102.523438 L 10.105469 102.53125 L 9.941406 102.527344 L 9.789062 102.523438 L 9.636719 102.511719 L 9.492188 102.496094 L 9.351562 102.480469 L 9.214844 102.457031 L 9.085938 102.429688 L 8.960938 102.398438 L 8.839844 102.367188 L 8.722656 102.328125 L 8.613281 102.285156 L 8.503906 102.238281 L 8.402344 102.191406 L 8.300781 102.140625 L 8.207031 102.085938 L 8.117188 102.027344 L 8.03125 101.96875 L 7.949219 101.902344 L 7.871094 101.835938 L 7.800781 101.769531 L 7.730469 101.695312 L 7.664062 101.621094 L 7.546875 101.464844 L 7.445312 101.300781 L 7.402344 101.214844 L 7.359375 101.125 L 7.324219 101.035156 L 7.289062 100.941406 L 7.257812 100.84375 L 7.230469 100.75 L 7.207031 100.652344 L 7.1875 100.550781 L 7.167969 100.453125 L 7.152344 100.351562 L 7.144531 100.246094 L 7.136719 100.144531 L 7.128906 100.039062 L 7.128906 99.789062 L 7.136719 99.648438 L 7.148438 99.515625 L 7.167969 99.386719 L 7.1875 99.261719 L 7.214844 99.140625 L 7.246094 99.027344 L 7.28125 98.917969 L 7.320312 98.8125 L 7.363281 98.710938 L 7.414062 98.613281 L 7.464844 98.523438 L 7.523438 98.433594 L 7.582031 98.347656 L 7.648438 98.265625 L 7.714844 98.191406 L 7.785156 98.117188 L 7.859375 98.046875 L 7.9375 97.984375 L 8.019531 97.921875 L 8.105469 97.863281 L 8.191406 97.808594 L 8.28125 97.757812 L 8.375 97.710938 L 8.472656 97.664062 L 8.570312 97.625 L 8.671875 97.589844 L 8.777344 97.554688 L 8.886719 97.523438 L 8.996094 97.496094 L 9.109375 97.472656 L 9.34375 97.433594 L 9.464844 97.414062 L 9.707031 97.390625 L 9.832031 97.378906 L 9.957031 97.375 L 10.214844 97.367188 L 10.34375 97.367188 Z M 9.605469 98.367188 L 9.425781 98.386719 L 9.257812 98.414062 L 9.097656 98.445312 L 8.949219 98.480469 L 8.8125 98.523438 L 8.683594 98.574219 L 8.5625 98.628906 L 8.453125 98.691406 L 8.355469 98.761719 L 8.265625 98.835938 L 8.1875 98.914062 L 8.113281 99.003906 L 8.050781 99.097656 L 7.996094 99.199219 L 7.949219 99.304688 L 7.910156 99.421875 L 7.882812 99.542969 L 7.859375 99.671875 L 7.847656 99.804688 L 7.84375 99.945312 L 7.84375 99.996094 L 7.847656 100.042969 L 7.855469 100.144531 L 7.871094 100.246094 L 7.882812 100.296875 L 7.894531 100.351562 L 7.90625 100.402344 L 7.921875 100.457031 L 7.941406 100.507812 L 7.957031 100.5625 L 7.980469 100.613281 L 8.003906 100.660156 L 8.03125 100.710938 L 8.058594 100.757812 L 8.089844 100.808594 L 8.121094 100.855469 L 8.160156 100.902344 L 8.195312 100.945312 L 8.238281 100.992188 L 8.28125 101.035156 L 8.328125 101.074219 L 8.378906 101.117188 L 8.433594 101.152344 L 8.488281 101.191406 L 8.546875 101.226562 L 8.671875 101.296875 L 8.738281 101.328125 L 8.808594 101.355469 L 8.882812 101.382812 L 8.960938 101.410156 L 9.039062 101.429688 L 9.125 101.449219 L 9.304688 101.480469 L 9.402344 101.492188 L 9.5 101.5 L 9.605469 101.503906 Z M 9.605469 98.367188 "/>
</g>
</svg>
