<?xml version="1.0" encoding="UTF-8"?>
<svg xmlns="http://www.w3.org/2000/svg" xmlns:xlink="http://www.w3.org/1999/xlink" width="864pt" height="216pt" viewBox="0 0 864 216" version="1.1">
<defs>
<clipPath id="clip1">
  <path d="M 0 0 L 216 0 L 216 216 L 0 216 Z M 0 0 "/>
</clipPath>
<clipPath id="clip2">
  <path d="M 8.21875 5.480469 L 210.519531 5.480469 L 210.519531 207.78125 L 8.21875 207.78125 Z M 8.21875 5.480469 "/>
</clipPath>
<clipPath id="clip3">
  <path d="M 216 0 L 432 0 L 432 216 L 216 216 Z M 216 0 "/>
</clipPath>
<clipPath id="clip4">
  <path d="M 224.21875 5.480469 L 426.519531 5.480469 L 426.519531 207.78125 L 224.21875 207.78125 Z M 224.21875 5.480469 "/>
</clipPath>
<clipPath id="clip5">
  <path d="M 432 0 L 648 0 L 648 216 L 432 216 Z M 432 0 "/>
</clipPath>
<clipPath id="clip6">
  <path d="M 440.21875 5.480469 L 642.519531 5.480469 L 642.519531 207.78125 L 440.21875 207.78125 Z M 440.21875 5.480469 "/>
</clipPath>
<clipPath id="clip7">
  <path d="M 648 0 L 864 0 L 864 216 L 648 216 Z M 648 0 "/>
</clipPath>
<clipPath id="clip8">
  <path d="M 656.21875 5.480469 L 858.519531 5.480469 L 858.519531 207.78125 L 656.21875 207.78125 Z M 656.21875 5.480469 "/>
</clipPath>
</defs>
<g id="surface450">
<rect x="0" y="0" width="864" height="216" style="fill:rgb(100%,100%,100%);fill-opacity:1;stroke:none;"/>
<path style=" stroke:none;fill-rule:nonzero;fill:rgb(100%,100%,100%);fill-opacity:1;" d="M 0 216 L 216 216 L 216 0 L 0 0 Z M 0 216 "/>
<g clip-path="url(#clip1)" clip-rule="nonzero">
<path style="fill:none;stroke-width:1.066978;stroke-linecap:round;stroke-linejoin:round;stroke:rgb(100%,100%,100%);stroke-opacity:1;stroke-miterlimit:10;" d="M 0 216 L 216 216 L 216 0 L 0 0 Z M 0 216 "/>
</g>
<g clip-path="url(#clip2)" clip-rule="nonzero">
<path style="fill-rule:nonzero;fill:rgb(100%,100%,100%);fill-opacity:1;stroke-width:1.066978;stroke-linecap:round;stroke-linejoin:round;stroke:rgb(100%,100%,100%);stroke-opacity:1;stroke-miterlimit:10;" d="M 8.21875 207.78125 L 210.519531 207.78125 L 210.519531 5.480469 L 8.21875 5.480469 Z M 8.21875 207.78125 "/>
</g>
<path style="fill:none;stroke-width:1.066978;stroke-linecap:round;stroke-linejoin:round;stroke:rgb(0%,0%,0%);stroke-opacity:1;stroke-miterlimit:10;" d="M 161.914062 30 L 175.050781 30 "/>
<path style="fill:none;stroke-width:1.066978;stroke-linecap:round;stroke-linejoin:round;stroke:rgb(0%,0%,0%);stroke-opacity:1;stroke-miterlimit:10;" d="M 161.914062 14.675781 L 175.050781 14.675781 "/>
<path style="fill:none;stroke-width:1.066978;stroke-linecap:round;stroke-linejoin:round;stroke:rgb(0%,0%,0%);stroke-opacity:1;stroke-miterlimit:10;" d="M 142.210938 45.328125 L 158.632812 45.328125 "/>
<path style="fill:none;stroke-width:1.066978;stroke-linecap:round;stroke-linejoin:round;stroke:rgb(0%,0%,0%);stroke-opacity:1;stroke-miterlimit:10;" d="M 115.9375 60.652344 L 135.644531 60.652344 "/>
<path style="fill:none;stroke-width:1.066978;stroke-linecap:round;stroke-linejoin:round;stroke:rgb(0%,0%,0%);stroke-opacity:1;stroke-miterlimit:10;" d="M 106.085938 75.976562 L 175.050781 75.976562 "/>
<path style="fill:none;stroke-width:1.066978;stroke-linecap:round;stroke-linejoin:round;stroke:rgb(0%,0%,0%);stroke-opacity:1;stroke-miterlimit:10;" d="M 161.914062 106.628906 L 175.050781 106.628906 "/>
<path style="fill:none;stroke-width:1.066978;stroke-linecap:round;stroke-linejoin:round;stroke:rgb(0%,0%,0%);stroke-opacity:1;stroke-miterlimit:10;" d="M 161.914062 91.304688 L 201.324219 91.304688 "/>
<path style="fill:none;stroke-width:1.066978;stroke-linecap:round;stroke-linejoin:round;stroke:rgb(0%,0%,0%);stroke-opacity:1;stroke-miterlimit:10;" d="M 115.9375 121.957031 L 142.210938 121.957031 "/>
<path style="fill:none;stroke-width:1.066978;stroke-linecap:round;stroke-linejoin:round;stroke:rgb(0%,0%,0%);stroke-opacity:1;stroke-miterlimit:10;" d="M 184.90625 183.257812 L 201.324219 183.257812 "/>
<path style="fill:none;stroke-width:1.066978;stroke-linecap:round;stroke-linejoin:round;stroke:rgb(0%,0%,0%);stroke-opacity:1;stroke-miterlimit:10;" d="M 184.90625 167.933594 L 191.472656 167.933594 "/>
<path style="fill:none;stroke-width:1.066978;stroke-linecap:round;stroke-linejoin:round;stroke:rgb(0%,0%,0%);stroke-opacity:1;stroke-miterlimit:10;" d="M 92.949219 152.609375 L 129.074219 152.609375 "/>
<path style="fill:none;stroke-width:1.066978;stroke-linecap:round;stroke-linejoin:round;stroke:rgb(0%,0%,0%);stroke-opacity:1;stroke-miterlimit:10;" d="M 92.949219 137.28125 L 129.074219 137.28125 "/>
<path style="fill:none;stroke-width:1.066978;stroke-linecap:round;stroke-linejoin:round;stroke:rgb(0%,0%,0%);stroke-opacity:1;stroke-miterlimit:10;" d="M 17.414062 198.585938 L 201.324219 198.585938 "/>
<path style="fill:none;stroke-width:1.066978;stroke-linecap:round;stroke-linejoin:round;stroke:rgb(0%,0%,0%);stroke-opacity:1;stroke-miterlimit:10;" d="M 17.414062 160.871094 L 17.414062 160.871094 "/>
<path style="fill:none;stroke-width:1.066978;stroke-linecap:round;stroke-linejoin:round;stroke:rgb(0%,0%,0%);stroke-opacity:1;stroke-miterlimit:10;" d="M 17.414062 123.152344 L 30.550781 123.152344 "/>
<path style="fill:none;stroke-width:1.066978;stroke-linecap:round;stroke-linejoin:round;stroke:rgb(0%,0%,0%);stroke-opacity:1;stroke-miterlimit:10;" d="M 30.550781 86.035156 L 73.246094 86.035156 "/>
<path style="fill:none;stroke-width:1.066978;stroke-linecap:round;stroke-linejoin:round;stroke:rgb(0%,0%,0%);stroke-opacity:1;stroke-miterlimit:10;" d="M 73.246094 61.609375 L 106.085938 61.609375 "/>
<path style="fill:none;stroke-width:1.066978;stroke-linecap:round;stroke-linejoin:round;stroke:rgb(0%,0%,0%);stroke-opacity:1;stroke-miterlimit:10;" d="M 106.085938 47.242188 L 115.9375 47.242188 "/>
<path style="fill:none;stroke-width:1.066978;stroke-linecap:round;stroke-linejoin:round;stroke:rgb(0%,0%,0%);stroke-opacity:1;stroke-miterlimit:10;" d="M 115.9375 33.832031 L 142.210938 33.832031 "/>
<path style="fill:none;stroke-width:1.066978;stroke-linecap:round;stroke-linejoin:round;stroke:rgb(0%,0%,0%);stroke-opacity:1;stroke-miterlimit:10;" d="M 142.210938 22.339844 L 161.914062 22.339844 "/>
<path style="fill:none;stroke-width:1.066978;stroke-linecap:round;stroke-linejoin:round;stroke:rgb(0%,0%,0%);stroke-opacity:1;stroke-miterlimit:10;" d="M 73.246094 110.460938 L 115.9375 110.460938 "/>
<path style="fill:none;stroke-width:1.066978;stroke-linecap:round;stroke-linejoin:round;stroke:rgb(0%,0%,0%);stroke-opacity:1;stroke-miterlimit:10;" d="M 115.9375 98.96875 L 161.914062 98.96875 "/>
<path style="fill:none;stroke-width:1.066978;stroke-linecap:round;stroke-linejoin:round;stroke:rgb(0%,0%,0%);stroke-opacity:1;stroke-miterlimit:10;" d="M 30.550781 160.269531 L 86.382812 160.269531 "/>
<path style="fill:none;stroke-width:1.066978;stroke-linecap:round;stroke-linejoin:round;stroke:rgb(0%,0%,0%);stroke-opacity:1;stroke-miterlimit:10;" d="M 86.382812 175.597656 L 184.90625 175.597656 "/>
<path style="fill:none;stroke-width:1.066978;stroke-linecap:round;stroke-linejoin:round;stroke:rgb(0%,0%,0%);stroke-opacity:1;stroke-miterlimit:10;" d="M 86.382812 144.945312 L 92.949219 144.945312 "/>
<path style="fill:none;stroke-width:1.066978;stroke-linecap:round;stroke-linejoin:round;stroke:rgb(0%,0%,0%);stroke-opacity:1;stroke-miterlimit:10;" d="M 161.914062 22.339844 L 161.914062 30 "/>
<path style="fill:none;stroke-width:1.066978;stroke-linecap:round;stroke-linejoin:round;stroke:rgb(0%,0%,0%);stroke-opacity:1;stroke-miterlimit:10;" d="M 161.914062 22.339844 L 161.914062 14.675781 "/>
<path style="fill:none;stroke-width:1.066978;stroke-linecap:round;stroke-linejoin:round;stroke:rgb(0%,0%,0%);stroke-opacity:1;stroke-miterlimit:10;" d="M 142.210938 33.832031 L 142.210938 45.328125 "/>
<path style="fill:none;stroke-width:1.066978;stroke-linecap:round;stroke-linejoin:round;stroke:rgb(0%,0%,0%);stroke-opacity:1;stroke-miterlimit:10;" d="M 115.9375 47.242188 L 115.9375 60.652344 "/>
<path style="fill:none;stroke-width:1.066978;stroke-linecap:round;stroke-linejoin:round;stroke:rgb(0%,0%,0%);stroke-opacity:1;stroke-miterlimit:10;" d="M 106.085938 61.609375 L 106.085938 75.976562 "/>
<path style="fill:none;stroke-width:1.066978;stroke-linecap:round;stroke-linejoin:round;stroke:rgb(0%,0%,0%);stroke-opacity:1;stroke-miterlimit:10;" d="M 161.914062 98.96875 L 161.914062 106.628906 "/>
<path style="fill:none;stroke-width:1.066978;stroke-linecap:round;stroke-linejoin:round;stroke:rgb(0%,0%,0%);stroke-opacity:1;stroke-miterlimit:10;" d="M 161.914062 98.96875 L 161.914062 91.304688 "/>
<path style="fill:none;stroke-width:1.066978;stroke-linecap:round;stroke-linejoin:round;stroke:rgb(0%,0%,0%);stroke-opacity:1;stroke-miterlimit:10;" d="M 115.9375 110.460938 L 115.9375 121.957031 "/>
<path style="fill:none;stroke-width:1.066978;stroke-linecap:round;stroke-linejoin:round;stroke:rgb(0%,0%,0%);stroke-opacity:1;stroke-miterlimit:10;" d="M 184.90625 175.597656 L 184.90625 183.257812 "/>
<path style="fill:none;stroke-width:1.066978;stroke-linecap:round;stroke-linejoin:round;stroke:rgb(0%,0%,0%);stroke-opacity:1;stroke-miterlimit:10;" d="M 184.90625 175.597656 L 184.90625 167.933594 "/>
<path style="fill:none;stroke-width:1.066978;stroke-linecap:round;stroke-linejoin:round;stroke:rgb(0%,0%,0%);stroke-opacity:1;stroke-miterlimit:10;" d="M 92.949219 144.945312 L 92.949219 152.609375 "/>
<path style="fill:none;stroke-width:1.066978;stroke-linecap:round;stroke-linejoin:round;stroke:rgb(0%,0%,0%);stroke-opacity:1;stroke-miterlimit:10;" d="M 92.949219 144.945312 L 92.949219 137.28125 "/>
<path style="fill:none;stroke-width:1.066978;stroke-linecap:round;stroke-linejoin:round;stroke:rgb(0%,0%,0%);stroke-opacity:1;stroke-miterlimit:10;" d="M 17.414062 160.871094 L 17.414062 198.585938 "/>
<path style="fill:none;stroke-width:1.066978;stroke-linecap:round;stroke-linejoin:round;stroke:rgb(0%,0%,0%);stroke-opacity:1;stroke-miterlimit:10;" d="M 17.414062 160.871094 L 17.414062 160.871094 "/>
<path style="fill:none;stroke-width:1.066978;stroke-linecap:round;stroke-linejoin:round;stroke:rgb(0%,0%,0%);stroke-opacity:1;stroke-miterlimit:10;" d="M 17.414062 160.871094 L 17.414062 123.152344 "/>
<path style="fill:none;stroke-width:1.066978;stroke-linecap:round;stroke-linejoin:round;stroke:rgb(0%,0%,0%);stroke-opacity:1;stroke-miterlimit:10;" d="M 30.550781 123.152344 L 30.550781 86.035156 "/>
<path style="fill:none;stroke-width:1.066978;stroke-linecap:round;stroke-linejoin:round;stroke:rgb(0%,0%,0%);stroke-opacity:1;stroke-miterlimit:10;" d="M 73.246094 86.035156 L 73.246094 61.609375 "/>
<path style="fill:none;stroke-width:1.066978;stroke-linecap:round;stroke-linejoin:round;stroke:rgb(0%,0%,0%);stroke-opacity:1;stroke-miterlimit:10;" d="M 106.085938 61.609375 L 106.085938 47.242188 "/>
<path style="fill:none;stroke-width:1.066978;stroke-linecap:round;stroke-linejoin:round;stroke:rgb(0%,0%,0%);stroke-opacity:1;stroke-miterlimit:10;" d="M 115.9375 47.242188 L 115.9375 33.832031 "/>
<path style="fill:none;stroke-width:1.066978;stroke-linecap:round;stroke-linejoin:round;stroke:rgb(0%,0%,0%);stroke-opacity:1;stroke-miterlimit:10;" d="M 142.210938 33.832031 L 142.210938 22.339844 "/>
<path style="fill:none;stroke-width:1.066978;stroke-linecap:round;stroke-linejoin:round;stroke:rgb(0%,0%,0%);stroke-opacity:1;stroke-miterlimit:10;" d="M 73.246094 86.035156 L 73.246094 110.460938 "/>
<path style="fill:none;stroke-width:1.066978;stroke-linecap:round;stroke-linejoin:round;stroke:rgb(0%,0%,0%);stroke-opacity:1;stroke-miterlimit:10;" d="M 115.9375 110.460938 L 115.9375 98.96875 "/>
<path style="fill:none;stroke-width:1.066978;stroke-linecap:round;stroke-linejoin:round;stroke:rgb(0%,0%,0%);stroke-opacity:1;stroke-miterlimit:10;" d="M 30.550781 123.152344 L 30.550781 160.269531 "/>
<path style="fill:none;stroke-width:1.066978;stroke-linecap:round;stroke-linejoin:round;stroke:rgb(0%,0%,0%);stroke-opacity:1;stroke-miterlimit:10;" d="M 86.382812 160.269531 L 86.382812 175.597656 "/>
<path style="fill:none;stroke-width:1.066978;stroke-linecap:round;stroke-linejoin:round;stroke:rgb(0%,0%,0%);stroke-opacity:1;stroke-miterlimit:10;" d="M 86.382812 160.269531 L 86.382812 144.945312 "/>
<path style=" stroke:none;fill-rule:evenodd;fill:rgb(0%,0%,0%);fill-opacity:1;" d="M 12.800781 14.449219 L 11.945312 11.988281 L 8.273438 11.988281 L 7.421875 14.449219 L 5.402344 14.449219 L 8.917969 4.816406 L 11.296875 4.816406 L 14.796875 14.449219 Z M 10.542969 7.699219 L 10.496094 7.558594 L 10.480469 7.507812 L 10.460938 7.460938 L 10.429688 7.367188 L 10.414062 7.316406 L 10.398438 7.269531 L 10.378906 7.222656 L 10.367188 7.171875 L 10.335938 7.078125 L 10.324219 7.03125 L 10.308594 6.988281 L 10.296875 6.945312 L 10.28125 6.902344 L 10.257812 6.816406 L 10.242188 6.777344 L 10.234375 6.738281 L 10.210938 6.660156 L 10.203125 6.625 L 10.191406 6.589844 L 10.183594 6.558594 L 10.171875 6.527344 L 10.164062 6.496094 L 10.148438 6.441406 L 10.140625 6.417969 L 10.136719 6.394531 L 10.128906 6.375 L 10.117188 6.328125 L 10.113281 6.316406 L 10.109375 6.308594 L 10.109375 6.304688 L 10.105469 6.300781 L 10.105469 6.304688 L 10.101562 6.3125 L 10.101562 6.320312 L 10.097656 6.332031 L 10.089844 6.363281 L 10.082031 6.382812 L 10.078125 6.402344 L 10.074219 6.425781 L 10.066406 6.449219 L 10.050781 6.503906 L 10.035156 6.566406 L 10.023438 6.597656 L 10.015625 6.628906 L 10.003906 6.664062 L 9.992188 6.703125 L 9.980469 6.738281 L 9.96875 6.777344 L 9.960938 6.816406 L 9.945312 6.859375 L 9.910156 6.988281 L 9.894531 7.03125 L 9.863281 7.125 L 9.851562 7.171875 L 9.832031 7.222656 L 9.820312 7.269531 L 9.804688 7.316406 L 9.789062 7.367188 L 9.742188 7.507812 L 9.726562 7.558594 L 9.707031 7.605469 L 9.675781 7.699219 L 8.726562 10.46875 L 11.496094 10.46875 Z M 10.542969 7.699219 "/>
<path style=" stroke:none;fill-rule:evenodd;fill:rgb(100%,100%,100%);fill-opacity:1;" d="M 216 216 L 432 216 L 432 0 L 216 0 Z M 216 216 "/>
<g clip-path="url(#clip3)" clip-rule="nonzero">
<path style="fill:none;stroke-width:1.066978;stroke-linecap:round;stroke-linejoin:round;stroke:rgb(100%,100%,100%);stroke-opacity:1;stroke-miterlimit:10;" d="M 216 216 L 432 216 L 432 0 L 216 0 Z M 216 216 "/>
</g>
<g clip-path="url(#clip4)" clip-rule="nonzero">
<path style="fill-rule:evenodd;fill:rgb(100%,100%,100%);fill-opacity:1;stroke-width:1.066978;stroke-linecap:round;stroke-linejoin:round;stroke:rgb(100%,100%,100%);stroke-opacity:1;stroke-miterlimit:10;" d="M 224.21875 207.78125 L 426.519531 207.78125 L 426.519531 5.480469 L 224.21875 5.480469 Z M 224.21875 207.78125 "/>
</g>
<path style="fill:none;stroke-width:4.267913;stroke-linecap:round;stroke-linejoin:round;stroke:rgb(69.803922%,13.333333%,13.333333%);stroke-opacity:1;stroke-dasharray:4.267913,12.80374;stroke-miterlimit:10;" d="M 377.914062 30 L 391.050781 30 "/>
<path style="fill:none;stroke-width:4.267913;stroke-linecap:round;stroke-linejoin:round;stroke:rgb(69.803922%,13.333333%,13.333333%);stroke-opacity:1;stroke-dasharray:4.267913,12.80374;stroke-miterlimit:10;" d="M 377.914062 14.675781 L 391.050781 14.675781 "/>
<path style="fill:none;stroke-width:4.267913;stroke-linecap:round;stroke-linejoin:round;stroke:rgb(69.803922%,13.333333%,13.333333%);stroke-opacity:1;stroke-dasharray:4.267913,12.80374;stroke-miterlimit:10;" d="M 358.210938 45.328125 L 374.632812 45.328125 "/>
<path style="fill:none;stroke-width:4.267913;stroke-linecap:round;stroke-linejoin:round;stroke:rgb(69.803922%,13.333333%,13.333333%);stroke-opacity:1;stroke-dasharray:4.267913,12.80374;stroke-miterlimit:10;" d="M 331.9375 60.652344 L 351.644531 60.652344 "/>
<path style="fill:none;stroke-width:4.267913;stroke-linecap:round;stroke-linejoin:round;stroke:rgb(69.803922%,13.333333%,13.333333%);stroke-opacity:1;stroke-dasharray:4.267913,12.80374;stroke-miterlimit:10;" d="M 322.085938 75.976562 L 391.050781 75.976562 "/>
<path style="fill:none;stroke-width:4.267913;stroke-linecap:round;stroke-linejoin:round;stroke:rgb(69.803922%,13.333333%,13.333333%);stroke-opacity:1;stroke-dasharray:4.267913,12.80374;stroke-miterlimit:10;" d="M 377.914062 106.628906 L 391.050781 106.628906 "/>
<path style="fill:none;stroke-width:4.267913;stroke-linecap:round;stroke-linejoin:round;stroke:rgb(69.803922%,13.333333%,13.333333%);stroke-opacity:1;stroke-dasharray:4.267913,12.80374;stroke-miterlimit:10;" d="M 377.914062 91.304688 L 417.324219 91.304688 "/>
<path style="fill:none;stroke-width:4.267913;stroke-linecap:round;stroke-linejoin:round;stroke:rgb(69.803922%,13.333333%,13.333333%);stroke-opacity:1;stroke-dasharray:4.267913,12.80374;stroke-miterlimit:10;" d="M 331.9375 121.957031 L 358.210938 121.957031 "/>
<path style="fill:none;stroke-width:4.267913;stroke-linecap:round;stroke-linejoin:round;stroke:rgb(69.803922%,13.333333%,13.333333%);stroke-opacity:1;stroke-dasharray:4.267913,12.80374;stroke-miterlimit:10;" d="M 400.90625 183.257812 L 417.324219 183.257812 "/>
<path style="fill:none;stroke-width:4.267913;stroke-linecap:round;stroke-linejoin:round;stroke:rgb(69.803922%,13.333333%,13.333333%);stroke-opacity:1;stroke-dasharray:4.267913,12.80374;stroke-miterlimit:10;" d="M 400.90625 167.933594 L 407.472656 167.933594 "/>
<path style="fill:none;stroke-width:4.267913;stroke-linecap:round;stroke-linejoin:round;stroke:rgb(69.803922%,13.333333%,13.333333%);stroke-opacity:1;stroke-dasharray:4.267913,12.80374;stroke-miterlimit:10;" d="M 308.949219 152.609375 L 345.074219 152.609375 "/>
<path style="fill:none;stroke-width:4.267913;stroke-linecap:round;stroke-linejoin:round;stroke:rgb(69.803922%,13.333333%,13.333333%);stroke-opacity:1;stroke-dasharray:4.267913,12.80374;stroke-miterlimit:10;" d="M 308.949219 137.28125 L 345.074219 137.28125 "/>
<path style="fill:none;stroke-width:4.267913;stroke-linecap:round;stroke-linejoin:round;stroke:rgb(69.803922%,13.333333%,13.333333%);stroke-opacity:1;stroke-dasharray:4.267913,12.80374;stroke-miterlimit:10;" d="M 233.414062 198.585938 L 417.324219 198.585938 "/>
<path style="fill:none;stroke-width:4.267913;stroke-linecap:round;stroke-linejoin:round;stroke:rgb(69.803922%,13.333333%,13.333333%);stroke-opacity:1;stroke-dasharray:4.267913,12.80374;stroke-miterlimit:10;" d="M 233.414062 160.871094 L 233.414062 160.871094 "/>
<path style="fill:none;stroke-width:4.267913;stroke-linecap:round;stroke-linejoin:round;stroke:rgb(69.803922%,13.333333%,13.333333%);stroke-opacity:1;stroke-dasharray:4.267913,12.80374;stroke-miterlimit:10;" d="M 233.414062 123.152344 L 246.550781 123.152344 "/>
<path style="fill:none;stroke-width:4.267913;stroke-linecap:round;stroke-linejoin:round;stroke:rgb(69.803922%,13.333333%,13.333333%);stroke-opacity:1;stroke-dasharray:4.267913,12.80374;stroke-miterlimit:10;" d="M 246.550781 86.035156 L 289.246094 86.035156 "/>
<path style="fill:none;stroke-width:4.267913;stroke-linecap:round;stroke-linejoin:round;stroke:rgb(69.803922%,13.333333%,13.333333%);stroke-opacity:1;stroke-dasharray:4.267913,12.80374;stroke-miterlimit:10;" d="M 289.246094 61.609375 L 322.085938 61.609375 "/>
<path style="fill:none;stroke-width:4.267913;stroke-linecap:round;stroke-linejoin:round;stroke:rgb(69.803922%,13.333333%,13.333333%);stroke-opacity:1;stroke-dasharray:4.267913,12.80374;stroke-miterlimit:10;" d="M 322.085938 47.242188 L 331.9375 47.242188 "/>
<path style="fill:none;stroke-width:4.267913;stroke-linecap:round;stroke-linejoin:round;stroke:rgb(69.803922%,13.333333%,13.333333%);stroke-opacity:1;stroke-dasharray:4.267913,12.80374;stroke-miterlimit:10;" d="M 331.9375 33.832031 L 358.210938 33.832031 "/>
<path style="fill:none;stroke-width:4.267913;stroke-linecap:round;stroke-linejoin:round;stroke:rgb(69.803922%,13.333333%,13.333333%);stroke-opacity:1;stroke-dasharray:4.267913,12.80374;stroke-miterlimit:10;" d="M 358.210938 22.339844 L 377.914062 22.339844 "/>
<path style="fill:none;stroke-width:4.267913;stroke-linecap:round;stroke-linejoin:round;stroke:rgb(69.803922%,13.333333%,13.333333%);stroke-opacity:1;stroke-dasharray:4.267913,12.80374;stroke-miterlimit:10;" d="M 289.246094 110.460938 L 331.9375 110.460938 "/>
<path style="fill:none;stroke-width:4.267913;stroke-linecap:round;stroke-linejoin:round;stroke:rgb(69.803922%,13.333333%,13.333333%);stroke-opacity:1;stroke-dasharray:4.267913,12.80374;stroke-miterlimit:10;" d="M 331.9375 98.96875 L 377.914062 98.96875 "/>
<path style="fill:none;stroke-width:4.267913;stroke-linecap:round;stroke-linejoin:round;stroke:rgb(69.803922%,13.333333%,13.333333%);stroke-opacity:1;stroke-dasharray:4.267913,12.80374;stroke-miterlimit:10;" d="M 246.550781 160.269531 L 302.382812 160.269531 "/>
<path style="fill:none;stroke-width:4.267913;stroke-linecap:round;stroke-linejoin:round;stroke:rgb(69.803922%,13.333333%,13.333333%);stroke-opacity:1;stroke-dasharray:4.267913,12.80374;stroke-miterlimit:10;" d="M 302.382812 175.597656 L 400.90625 175.597656 "/>
<path style="fill:none;stroke-width:4.267913;stroke-linecap:round;stroke-linejoin:round;stroke:rgb(69.803922%,13.333333%,13.333333%);stroke-opacity:1;stroke-dasharray:4.267913,12.80374;stroke-miterlimit:10;" d="M 302.382812 144.945312 L 308.949219 144.945312 "/>
<path style="fill:none;stroke-width:4.267913;stroke-linecap:round;stroke-linejoin:round;stroke:rgb(69.803922%,13.333333%,13.333333%);stroke-opacity:1;stroke-dasharray:4.267913,12.80374;stroke-miterlimit:10;" d="M 377.914062 22.339844 L 377.914062 30 "/>
<path style="fill:none;stroke-width:4.267913;stroke-linecap:round;stroke-linejoin:round;stroke:rgb(69.803922%,13.333333%,13.333333%);stroke-opacity:1;stroke-dasharray:4.267913,12.80374;stroke-miterlimit:10;" d="M 377.914062 22.339844 L 377.914062 14.675781 "/>
<path style="fill:none;stroke-width:4.267913;stroke-linecap:round;stroke-linejoin:round;stroke:rgb(69.803922%,13.333333%,13.333333%);stroke-opacity:1;stroke-dasharray:4.267913,12.80374;stroke-miterlimit:10;" d="M 358.210938 33.832031 L 358.210938 45.328125 "/>
<path style="fill:none;stroke-width:4.267913;stroke-linecap:round;stroke-linejoin:round;stroke:rgb(69.803922%,13.333333%,13.333333%);stroke-opacity:1;stroke-dasharray:4.267913,12.80374;stroke-miterlimit:10;" d="M 331.9375 47.242188 L 331.9375 60.652344 "/>
<path style="fill:none;stroke-width:4.267913;stroke-linecap:round;stroke-linejoin:round;stroke:rgb(69.803922%,13.333333%,13.333333%);stroke-opacity:1;stroke-dasharray:4.267913,12.80374;stroke-miterlimit:10;" d="M 322.085938 61.609375 L 322.085938 75.976562 "/>
<path style="fill:none;stroke-width:4.267913;stroke-linecap:round;stroke-linejoin:round;stroke:rgb(69.803922%,13.333333%,13.333333%);stroke-opacity:1;stroke-dasharray:4.267913,12.80374;stroke-miterlimit:10;" d="M 377.914062 98.96875 L 377.914062 106.628906 "/>
<path style="fill:none;stroke-width:4.267913;stroke-linecap:round;stroke-linejoin:round;stroke:rgb(69.803922%,13.333333%,13.333333%);stroke-opacity:1;stroke-dasharray:4.267913,12.80374;stroke-miterlimit:10;" d="M 377.914062 98.96875 L 377.914062 91.304688 "/>
<path style="fill:none;stroke-width:4.267913;stroke-linecap:round;stroke-linejoin:round;stroke:rgb(69.803922%,13.333333%,13.333333%);stroke-opacity:1;stroke-dasharray:4.267913,12.80374;stroke-miterlimit:10;" d="M 331.9375 110.460938 L 331.9375 121.957031 "/>
<path style="fill:none;stroke-width:4.267913;stroke-linecap:round;stroke-linejoin:round;stroke:rgb(69.803922%,13.333333%,13.333333%);stroke-opacity:1;stroke-dasharray:4.267913,12.80374;stroke-miterlimit:10;" d="M 400.90625 175.597656 L 400.90625 183.257812 "/>
<path style="fill:none;stroke-width:4.267913;stroke-linecap:round;stroke-linejoin:round;stroke:rgb(69.803922%,13.333333%,13.333333%);stroke-opacity:1;stroke-dasharray:4.267913,12.80374;stroke-miterlimit:10;" d="M 400.90625 175.597656 L 400.90625 167.933594 "/>
<path style="fill:none;stroke-width:4.267913;stroke-linecap:round;stroke-linejoin:round;stroke:rgb(69.803922%,13.333333%,13.333333%);stroke-opacity:1;stroke-dasharray:4.267913,12.80374;stroke-miterlimit:10;" d="M 308.949219 144.945312 L 308.949219 152.609375 "/>
<path style="fill:none;stroke-width:4.267913;stroke-linecap:round;stroke-linejoin:round;stroke:rgb(69.803922%,13.333333%,13.333333%);stroke-opacity:1;stroke-dasharray:4.267913,12.80374;stroke-miterlimit:10;" d="M 308.949219 144.945312 L 308.949219 137.28125 "/>
<path style="fill:none;stroke-width:4.267913;stroke-linecap:round;stroke-linejoin:round;stroke:rgb(69.803922%,13.333333%,13.333333%);stroke-opacity:1;stroke-dasharray:4.267913,12.80374;stroke-miterlimit:10;" d="M 233.414062 160.871094 L 233.414062 198.585938 "/>
<path style="fill:none;stroke-width:4.267913;stroke-linecap:round;stroke-linejoin:round;stroke:rgb(69.803922%,13.333333%,13.333333%);stroke-opacity:1;stroke-dasharray:4.267913,12.80374;stroke-miterlimit:10;" d="M 233.414062 160.871094 L 233.414062 160.871094 "/>
<path style="fill:none;stroke-width:4.267913;stroke-linecap:round;stroke-linejoin:round;stroke:rgb(69.803922%,13.333333%,13.333333%);stroke-opacity:1;stroke-dasharray:4.267913,12.80374;stroke-miterlimit:10;" d="M 233.414062 160.871094 L 233.414062 123.152344 "/>
<path style="fill:none;stroke-width:4.267913;stroke-linecap:round;stroke-linejoin:round;stroke:rgb(69.803922%,13.333333%,13.333333%);stroke-opacity:1;stroke-dasharray:4.267913,12.80374;stroke-miterlimit:10;" d="M 246.550781 123.152344 L 246.550781 86.035156 "/>
<path style="fill:none;stroke-width:4.267913;stroke-linecap:round;stroke-linejoin:round;stroke:rgb(69.803922%,13.333333%,13.333333%);stroke-opacity:1;stroke-dasharray:4.267913,12.80374;stroke-miterlimit:10;" d="M 289.246094 86.035156 L 289.246094 61.609375 "/>
<path style="fill:none;stroke-width:4.267913;stroke-linecap:round;stroke-linejoin:round;stroke:rgb(69.803922%,13.333333%,13.333333%);stroke-opacity:1;stroke-dasharray:4.267913,12.80374;stroke-miterlimit:10;" d="M 322.085938 61.609375 L 322.085938 47.242188 "/>
<path style="fill:none;stroke-width:4.267913;stroke-linecap:round;stroke-linejoin:round;stroke:rgb(69.803922%,13.333333%,13.333333%);stroke-opacity:1;stroke-dasharray:4.267913,12.80374;stroke-miterlimit:10;" d="M 331.9375 47.242188 L 331.9375 33.832031 "/>
<path style="fill:none;stroke-width:4.267913;stroke-linecap:round;stroke-linejoin:round;stroke:rgb(69.803922%,13.333333%,13.333333%);stroke-opacity:1;stroke-dasharray:4.267913,12.80374;stroke-miterlimit:10;" d="M 358.210938 33.832031 L 358.210938 22.339844 "/>
<path style="fill:none;stroke-width:4.267913;stroke-linecap:round;stroke-linejoin:round;stroke:rgb(69.803922%,13.333333%,13.333333%);stroke-opacity:1;stroke-dasharray:4.267913,12.80374;stroke-miterlimit:10;" d="M 289.246094 86.035156 L 289.246094 110.460938 "/>
<path style="fill:none;stroke-width:4.267913;stroke-linecap:round;stroke-linejoin:round;stroke:rgb(69.803922%,13.333333%,13.333333%);stroke-opacity:1;stroke-dasharray:4.267913,12.80374;stroke-miterlimit:10;" d="M 331.9375 110.460938 L 331.9375 98.96875 "/>
<path style="fill:none;stroke-width:4.267913;stroke-linecap:round;stroke-linejoin:round;stroke:rgb(69.803922%,13.333333%,13.333333%);stroke-opacity:1;stroke-dasharray:4.267913,12.80374;stroke-miterlimit:10;" d="M 246.550781 123.152344 L 246.550781 160.269531 "/>
<path style="fill:none;stroke-width:4.267913;stroke-linecap:round;stroke-linejoin:round;stroke:rgb(69.803922%,13.333333%,13.333333%);stroke-opacity:1;stroke-dasharray:4.267913,12.80374;stroke-miterlimit:10;" d="M 302.382812 160.269531 L 302.382812 175.597656 "/>
<path style="fill:none;stroke-width:4.267913;stroke-linecap:round;stroke-linejoin:round;stroke:rgb(69.803922%,13.333333%,13.333333%);stroke-opacity:1;stroke-dasharray:4.267913,12.80374;stroke-miterlimit:10;" d="M 302.382812 160.269531 L 302.382812 144.945312 "/>
<path style=" stroke:none;fill-rule:evenodd;fill:rgb(0%,0%,0%);fill-opacity:1;" d="M 230.53125 11.699219 L 230.527344 11.84375 L 230.519531 11.984375 L 230.503906 12.121094 L 230.484375 12.253906 L 230.457031 12.378906 L 230.425781 12.503906 L 230.386719 12.625 L 230.292969 12.851562 L 230.234375 12.957031 L 230.175781 13.058594 L 230.109375 13.15625 L 230.039062 13.253906 L 229.964844 13.34375 L 229.886719 13.429688 L 229.804688 13.515625 L 229.71875 13.59375 L 229.625 13.671875 L 229.53125 13.742188 L 229.429688 13.8125 L 229.328125 13.875 L 229.21875 13.9375 L 229.109375 13.992188 L 228.996094 14.046875 L 228.878906 14.097656 L 228.761719 14.144531 L 228.636719 14.1875 L 228.511719 14.226562 L 228.378906 14.265625 L 228.246094 14.296875 L 227.972656 14.351562 L 227.832031 14.375 L 227.691406 14.394531 L 227.550781 14.410156 L 227.40625 14.421875 L 227.257812 14.433594 L 227.109375 14.441406 L 226.8125 14.449219 L 221.992188 14.449219 L 221.992188 4.816406 L 226.570312 4.816406 L 226.734375 4.820312 L 226.894531 4.828125 L 227.054688 4.839844 L 227.207031 4.851562 L 227.503906 4.890625 L 227.785156 4.9375 L 227.917969 4.964844 L 228.050781 4.996094 L 228.179688 5.03125 L 228.300781 5.066406 L 228.421875 5.105469 L 228.535156 5.148438 L 228.644531 5.195312 L 228.753906 5.246094 L 228.855469 5.296875 L 228.953125 5.351562 L 229.046875 5.410156 L 229.136719 5.472656 L 229.300781 5.605469 L 229.375 5.675781 L 229.449219 5.75 L 229.515625 5.828125 L 229.578125 5.910156 L 229.636719 5.992188 L 229.6875 6.078125 L 229.738281 6.167969 L 229.824219 6.355469 L 229.859375 6.453125 L 229.890625 6.554688 L 229.917969 6.660156 L 229.9375 6.769531 L 229.953125 6.882812 L 229.964844 6.996094 L 229.972656 7.113281 L 229.976562 7.234375 L 229.972656 7.398438 L 229.957031 7.554688 L 229.933594 7.707031 L 229.902344 7.851562 L 229.863281 7.992188 L 229.8125 8.128906 L 229.75 8.261719 L 229.683594 8.386719 L 229.605469 8.507812 L 229.519531 8.625 L 229.421875 8.730469 L 229.320312 8.832031 L 229.203125 8.925781 L 229.082031 9.015625 L 228.949219 9.09375 L 228.804688 9.164062 L 228.652344 9.230469 L 228.488281 9.289062 L 228.320312 9.339844 L 228.136719 9.382812 L 228.367188 9.414062 L 228.582031 9.457031 L 228.789062 9.507812 L 228.984375 9.566406 L 229.167969 9.636719 L 229.339844 9.714844 L 229.5 9.800781 L 229.648438 9.898438 L 229.789062 10.003906 L 229.914062 10.121094 L 230.03125 10.242188 L 230.136719 10.375 L 230.226562 10.511719 L 230.308594 10.660156 L 230.375 10.8125 L 230.429688 10.972656 L 230.472656 11.144531 L 230.503906 11.320312 L 230.523438 11.507812 Z M 227.945312 7.507812 L 227.941406 7.382812 L 227.929688 7.265625 L 227.910156 7.152344 L 227.878906 7.050781 L 227.839844 6.953125 L 227.796875 6.867188 L 227.742188 6.785156 L 227.679688 6.710938 L 227.609375 6.644531 L 227.527344 6.585938 L 227.441406 6.535156 L 227.347656 6.488281 L 227.246094 6.445312 L 227.136719 6.410156 L 227.019531 6.382812 L 226.890625 6.355469 L 226.757812 6.335938 L 226.613281 6.324219 L 226.464844 6.316406 L 226.304688 6.3125 L 224.007812 6.3125 L 224.007812 8.699219 L 226.320312 8.699219 L 226.484375 8.695312 L 226.640625 8.6875 L 226.789062 8.671875 L 226.925781 8.652344 L 227.054688 8.625 L 227.175781 8.59375 L 227.285156 8.554688 L 227.382812 8.511719 L 227.476562 8.460938 L 227.554688 8.40625 L 227.628906 8.339844 L 227.695312 8.273438 L 227.753906 8.199219 L 227.804688 8.117188 L 227.847656 8.03125 L 227.882812 7.9375 L 227.910156 7.839844 L 227.929688 7.734375 L 227.941406 7.625 Z M 228.507812 11.542969 L 228.5 11.394531 L 228.492188 11.324219 L 228.46875 11.191406 L 228.453125 11.128906 L 228.433594 11.066406 L 228.410156 11.007812 L 228.355469 10.898438 L 228.324219 10.847656 L 228.292969 10.800781 L 228.253906 10.753906 L 228.21875 10.707031 L 228.175781 10.664062 L 228.089844 10.585938 L 228.039062 10.550781 L 227.992188 10.515625 L 227.9375 10.484375 L 227.886719 10.453125 L 227.832031 10.421875 L 227.773438 10.398438 L 227.714844 10.371094 L 227.65625 10.347656 L 227.59375 10.328125 L 227.527344 10.304688 L 227.394531 10.273438 L 227.324219 10.257812 L 227.183594 10.234375 L 227.109375 10.222656 L 226.960938 10.207031 L 226.882812 10.199219 L 226.726562 10.191406 L 226.644531 10.191406 L 226.566406 10.1875 L 224.007812 10.1875 L 224.007812 12.949219 L 226.796875 12.949219 L 226.875 12.945312 L 226.949219 12.941406 L 227.023438 12.933594 L 227.097656 12.929688 L 227.167969 12.921875 L 227.238281 12.910156 L 227.308594 12.902344 L 227.378906 12.890625 L 227.511719 12.859375 L 227.636719 12.820312 L 227.753906 12.773438 L 227.808594 12.75 L 227.917969 12.695312 L 227.964844 12.664062 L 228.015625 12.628906 L 228.0625 12.59375 L 228.109375 12.554688 L 228.152344 12.515625 L 228.191406 12.472656 L 228.230469 12.425781 L 228.300781 12.332031 L 228.332031 12.28125 L 228.363281 12.226562 L 228.390625 12.171875 L 228.414062 12.109375 L 228.4375 12.050781 L 228.46875 11.917969 L 228.484375 11.847656 L 228.492188 11.777344 L 228.5 11.699219 L 228.503906 11.625 Z M 228.507812 11.542969 "/>
<path style=" stroke:none;fill-rule:evenodd;fill:rgb(100%,100%,100%);fill-opacity:1;" d="M 432 216 L 648 216 L 648 0 L 432 0 Z M 432 216 "/>
<g clip-path="url(#clip5)" clip-rule="nonzero">
<path style="fill:none;stroke-width:1.066978;stroke-linecap:round;stroke-linejoin:round;stroke:rgb(100%,100%,100%);stroke-opacity:1;stroke-miterlimit:10;" d="M 432 216 L 648 216 L 648 0 L 432 0 Z M 432 216 "/>
</g>
<g clip-path="url(#clip6)" clip-rule="nonzero">
<path style="fill-rule:evenodd;fill:rgb(100%,100%,100%);fill-opacity:1;stroke-width:1.066978;stroke-linecap:round;stroke-linejoin:round;stroke:rgb(100%,100%,100%);stroke-opacity:1;stroke-miterlimit:10;" d="M 440.21875 207.78125 L 642.519531 207.78125 L 642.519531 5.480469 L 440.21875 5.480469 Z M 440.21875 207.78125 "/>
</g>
<path style="fill:none;stroke-width:1.066978;stroke-linecap:round;stroke-linejoin:round;stroke:rgb(0%,0%,0%);stroke-opacity:1;stroke-miterlimit:10;" d="M 593.914062 198.585938 L 607.050781 198.585938 "/>
<path style="fill:none;stroke-width:1.066978;stroke-linecap:round;stroke-linejoin:round;stroke:rgb(0%,0%,0%);stroke-opacity:1;stroke-miterlimit:10;" d="M 593.914062 183.257812 L 607.050781 183.257812 "/>
<path style="fill:none;stroke-width:1.066978;stroke-linecap:round;stroke-linejoin:round;stroke:rgb(0%,0%,0%);stroke-opacity:1;stroke-miterlimit:10;" d="M 574.210938 167.933594 L 590.632812 167.933594 "/>
<path style="fill:none;stroke-width:1.066978;stroke-linecap:round;stroke-linejoin:round;stroke:rgb(0%,0%,0%);stroke-opacity:1;stroke-miterlimit:10;" d="M 547.9375 152.609375 L 567.644531 152.609375 "/>
<path style="fill:none;stroke-width:1.066978;stroke-linecap:round;stroke-linejoin:round;stroke:rgb(0%,0%,0%);stroke-opacity:1;stroke-miterlimit:10;" d="M 538.085938 137.28125 L 607.050781 137.28125 "/>
<path style="fill:none;stroke-width:1.066978;stroke-linecap:round;stroke-linejoin:round;stroke:rgb(0%,0%,0%);stroke-opacity:1;stroke-miterlimit:10;" d="M 593.914062 121.957031 L 607.050781 121.957031 "/>
<path style="fill:none;stroke-width:1.066978;stroke-linecap:round;stroke-linejoin:round;stroke:rgb(0%,0%,0%);stroke-opacity:1;stroke-miterlimit:10;" d="M 593.914062 106.628906 L 633.324219 106.628906 "/>
<path style="fill:none;stroke-width:1.066978;stroke-linecap:round;stroke-linejoin:round;stroke:rgb(0%,0%,0%);stroke-opacity:1;stroke-miterlimit:10;" d="M 547.9375 91.304688 L 574.210938 91.304688 "/>
<path style="fill:none;stroke-width:1.066978;stroke-linecap:round;stroke-linejoin:round;stroke:rgb(0%,0%,0%);stroke-opacity:1;stroke-miterlimit:10;" d="M 616.90625 75.976562 L 633.324219 75.976562 "/>
<path style="fill:none;stroke-width:1.066978;stroke-linecap:round;stroke-linejoin:round;stroke:rgb(0%,0%,0%);stroke-opacity:1;stroke-miterlimit:10;" d="M 616.90625 60.652344 L 623.472656 60.652344 "/>
<path style="fill:none;stroke-width:1.066978;stroke-linecap:round;stroke-linejoin:round;stroke:rgb(0%,0%,0%);stroke-opacity:1;stroke-miterlimit:10;" d="M 524.949219 45.328125 L 561.074219 45.328125 "/>
<path style="fill:none;stroke-width:1.066978;stroke-linecap:round;stroke-linejoin:round;stroke:rgb(0%,0%,0%);stroke-opacity:1;stroke-miterlimit:10;" d="M 524.949219 30 L 561.074219 30 "/>
<path style="fill:none;stroke-width:1.066978;stroke-linecap:round;stroke-linejoin:round;stroke:rgb(0%,0%,0%);stroke-opacity:1;stroke-miterlimit:10;" d="M 449.414062 14.675781 L 633.324219 14.675781 "/>
<path style="fill:none;stroke-width:1.066978;stroke-linecap:round;stroke-linejoin:round;stroke:rgb(0%,0%,0%);stroke-opacity:1;stroke-miterlimit:10;" d="M 449.414062 52.390625 L 449.414062 52.390625 "/>
<path style="fill:none;stroke-width:1.066978;stroke-linecap:round;stroke-linejoin:round;stroke:rgb(0%,0%,0%);stroke-opacity:1;stroke-miterlimit:10;" d="M 449.414062 90.105469 L 462.550781 90.105469 "/>
<path style="fill:none;stroke-width:1.066978;stroke-linecap:round;stroke-linejoin:round;stroke:rgb(0%,0%,0%);stroke-opacity:1;stroke-miterlimit:10;" d="M 462.550781 127.222656 L 505.246094 127.222656 "/>
<path style="fill:none;stroke-width:1.066978;stroke-linecap:round;stroke-linejoin:round;stroke:rgb(0%,0%,0%);stroke-opacity:1;stroke-miterlimit:10;" d="M 505.246094 151.648438 L 538.085938 151.648438 "/>
<path style="fill:none;stroke-width:1.066978;stroke-linecap:round;stroke-linejoin:round;stroke:rgb(0%,0%,0%);stroke-opacity:1;stroke-miterlimit:10;" d="M 538.085938 166.019531 L 547.9375 166.019531 "/>
<path style="fill:none;stroke-width:1.066978;stroke-linecap:round;stroke-linejoin:round;stroke:rgb(0%,0%,0%);stroke-opacity:1;stroke-miterlimit:10;" d="M 547.9375 179.429688 L 574.210938 179.429688 "/>
<path style="fill:none;stroke-width:1.066978;stroke-linecap:round;stroke-linejoin:round;stroke:rgb(0%,0%,0%);stroke-opacity:1;stroke-miterlimit:10;" d="M 574.210938 190.921875 L 593.914062 190.921875 "/>
<path style="fill:none;stroke-width:1.066978;stroke-linecap:round;stroke-linejoin:round;stroke:rgb(0%,0%,0%);stroke-opacity:1;stroke-miterlimit:10;" d="M 505.246094 102.796875 L 547.9375 102.796875 "/>
<path style="fill:none;stroke-width:1.066978;stroke-linecap:round;stroke-linejoin:round;stroke:rgb(0%,0%,0%);stroke-opacity:1;stroke-miterlimit:10;" d="M 547.9375 114.292969 L 593.914062 114.292969 "/>
<path style="fill:none;stroke-width:1.066978;stroke-linecap:round;stroke-linejoin:round;stroke:rgb(0%,0%,0%);stroke-opacity:1;stroke-miterlimit:10;" d="M 462.550781 52.988281 L 518.382812 52.988281 "/>
<path style="fill:none;stroke-width:1.066978;stroke-linecap:round;stroke-linejoin:round;stroke:rgb(0%,0%,0%);stroke-opacity:1;stroke-miterlimit:10;" d="M 518.382812 68.316406 L 616.90625 68.316406 "/>
<path style="fill:none;stroke-width:1.066978;stroke-linecap:round;stroke-linejoin:round;stroke:rgb(0%,0%,0%);stroke-opacity:1;stroke-miterlimit:10;" d="M 518.382812 37.664062 L 524.949219 37.664062 "/>
<path style="fill:none;stroke-width:1.066978;stroke-linecap:round;stroke-linejoin:round;stroke:rgb(0%,0%,0%);stroke-opacity:1;stroke-miterlimit:10;" d="M 593.914062 190.921875 L 593.914062 198.585938 "/>
<path style="fill:none;stroke-width:1.066978;stroke-linecap:round;stroke-linejoin:round;stroke:rgb(0%,0%,0%);stroke-opacity:1;stroke-miterlimit:10;" d="M 593.914062 190.921875 L 593.914062 183.257812 "/>
<path style="fill:none;stroke-width:1.066978;stroke-linecap:round;stroke-linejoin:round;stroke:rgb(0%,0%,0%);stroke-opacity:1;stroke-miterlimit:10;" d="M 574.210938 179.429688 L 574.210938 167.933594 "/>
<path style="fill:none;stroke-width:1.066978;stroke-linecap:round;stroke-linejoin:round;stroke:rgb(0%,0%,0%);stroke-opacity:1;stroke-miterlimit:10;" d="M 547.9375 166.019531 L 547.9375 152.609375 "/>
<path style="fill:none;stroke-width:1.066978;stroke-linecap:round;stroke-linejoin:round;stroke:rgb(0%,0%,0%);stroke-opacity:1;stroke-miterlimit:10;" d="M 538.085938 151.648438 L 538.085938 137.28125 "/>
<path style="fill:none;stroke-width:1.066978;stroke-linecap:round;stroke-linejoin:round;stroke:rgb(0%,0%,0%);stroke-opacity:1;stroke-miterlimit:10;" d="M 593.914062 114.292969 L 593.914062 121.957031 "/>
<path style="fill:none;stroke-width:1.066978;stroke-linecap:round;stroke-linejoin:round;stroke:rgb(0%,0%,0%);stroke-opacity:1;stroke-miterlimit:10;" d="M 593.914062 114.292969 L 593.914062 106.628906 "/>
<path style="fill:none;stroke-width:1.066978;stroke-linecap:round;stroke-linejoin:round;stroke:rgb(0%,0%,0%);stroke-opacity:1;stroke-miterlimit:10;" d="M 547.9375 102.796875 L 547.9375 91.304688 "/>
<path style="fill:none;stroke-width:1.066978;stroke-linecap:round;stroke-linejoin:round;stroke:rgb(0%,0%,0%);stroke-opacity:1;stroke-miterlimit:10;" d="M 616.90625 68.316406 L 616.90625 75.976562 "/>
<path style="fill:none;stroke-width:1.066978;stroke-linecap:round;stroke-linejoin:round;stroke:rgb(0%,0%,0%);stroke-opacity:1;stroke-miterlimit:10;" d="M 616.90625 68.316406 L 616.90625 60.652344 "/>
<path style="fill:none;stroke-width:1.066978;stroke-linecap:round;stroke-linejoin:round;stroke:rgb(0%,0%,0%);stroke-opacity:1;stroke-miterlimit:10;" d="M 524.949219 37.664062 L 524.949219 45.328125 "/>
<path style="fill:none;stroke-width:1.066978;stroke-linecap:round;stroke-linejoin:round;stroke:rgb(0%,0%,0%);stroke-opacity:1;stroke-miterlimit:10;" d="M 524.949219 37.664062 L 524.949219 30 "/>
<path style="fill:none;stroke-width:1.066978;stroke-linecap:round;stroke-linejoin:round;stroke:rgb(0%,0%,0%);stroke-opacity:1;stroke-miterlimit:10;" d="M 449.414062 52.390625 L 449.414062 14.675781 "/>
<path style="fill:none;stroke-width:1.066978;stroke-linecap:round;stroke-linejoin:round;stroke:rgb(0%,0%,0%);stroke-opacity:1;stroke-miterlimit:10;" d="M 449.414062 52.390625 L 449.414062 52.390625 "/>
<path style="fill:none;stroke-width:1.066978;stroke-linecap:round;stroke-linejoin:round;stroke:rgb(0%,0%,0%);stroke-opacity:1;stroke-miterlimit:10;" d="M 449.414062 52.390625 L 449.414062 90.105469 "/>
<path style="fill:none;stroke-width:1.066978;stroke-linecap:round;stroke-linejoin:round;stroke:rgb(0%,0%,0%);stroke-opacity:1;stroke-miterlimit:10;" d="M 462.550781 90.105469 L 462.550781 127.222656 "/>
<path style="fill:none;stroke-width:1.066978;stroke-linecap:round;stroke-linejoin:round;stroke:rgb(0%,0%,0%);stroke-opacity:1;stroke-miterlimit:10;" d="M 505.246094 127.222656 L 505.246094 151.648438 "/>
<path style="fill:none;stroke-width:1.066978;stroke-linecap:round;stroke-linejoin:round;stroke:rgb(0%,0%,0%);stroke-opacity:1;stroke-miterlimit:10;" d="M 538.085938 151.648438 L 538.085938 166.019531 "/>
<path style="fill:none;stroke-width:1.066978;stroke-linecap:round;stroke-linejoin:round;stroke:rgb(0%,0%,0%);stroke-opacity:1;stroke-miterlimit:10;" d="M 547.9375 166.019531 L 547.9375 179.429688 "/>
<path style="fill:none;stroke-width:1.066978;stroke-linecap:round;stroke-linejoin:round;stroke:rgb(0%,0%,0%);stroke-opacity:1;stroke-miterlimit:10;" d="M 574.210938 179.429688 L 574.210938 190.921875 "/>
<path style="fill:none;stroke-width:1.066978;stroke-linecap:round;stroke-linejoin:round;stroke:rgb(0%,0%,0%);stroke-opacity:1;stroke-miterlimit:10;" d="M 505.246094 127.222656 L 505.246094 102.796875 "/>
<path style="fill:none;stroke-width:1.066978;stroke-linecap:round;stroke-linejoin:round;stroke:rgb(0%,0%,0%);stroke-opacity:1;stroke-miterlimit:10;" d="M 547.9375 102.796875 L 547.9375 114.292969 "/>
<path style="fill:none;stroke-width:1.066978;stroke-linecap:round;stroke-linejoin:round;stroke:rgb(0%,0%,0%);stroke-opacity:1;stroke-miterlimit:10;" d="M 462.550781 90.105469 L 462.550781 52.988281 "/>
<path style="fill:none;stroke-width:1.066978;stroke-linecap:round;stroke-linejoin:round;stroke:rgb(0%,0%,0%);stroke-opacity:1;stroke-miterlimit:10;" d="M 518.382812 52.988281 L 518.382812 68.316406 "/>
<path style="fill:none;stroke-width:1.066978;stroke-linecap:round;stroke-linejoin:round;stroke:rgb(0%,0%,0%);stroke-opacity:1;stroke-miterlimit:10;" d="M 518.382812 52.988281 L 518.382812 37.664062 "/>
<path style=" stroke:none;fill-rule:evenodd;fill:rgb(0%,0%,0%);fill-opacity:1;" d="M 442.488281 13 L 442.601562 12.996094 L 442.710938 12.992188 L 442.816406 12.984375 L 443.019531 12.960938 L 443.207031 12.921875 L 443.296875 12.898438 L 443.382812 12.871094 L 443.46875 12.839844 L 443.550781 12.808594 L 443.628906 12.773438 L 443.707031 12.734375 L 443.78125 12.695312 L 443.855469 12.652344 L 443.925781 12.609375 L 443.992188 12.566406 L 444.058594 12.515625 L 444.125 12.46875 L 444.183594 12.417969 L 444.246094 12.363281 L 444.304688 12.3125 L 444.359375 12.253906 L 444.414062 12.199219 L 444.515625 12.082031 L 444.5625 12.019531 L 444.648438 11.894531 L 444.691406 11.828125 L 444.730469 11.765625 L 444.808594 11.632812 L 444.878906 11.5 L 444.972656 11.300781 L 445.027344 11.167969 L 446.78125 11.828125 L 446.738281 11.933594 L 446.691406 12.035156 L 446.644531 12.140625 L 446.59375 12.242188 L 446.539062 12.34375 L 446.421875 12.546875 L 446.296875 12.75 L 446.230469 12.847656 L 446.160156 12.945312 L 446.085938 13.042969 L 445.929688 13.230469 L 445.84375 13.316406 L 445.757812 13.40625 L 445.667969 13.488281 L 445.574219 13.570312 L 445.476562 13.652344 L 445.375 13.730469 L 445.269531 13.804688 L 445.160156 13.878906 L 445.050781 13.945312 L 444.933594 14.011719 L 444.8125 14.078125 L 444.6875 14.136719 L 444.558594 14.195312 L 444.292969 14.304688 L 444.152344 14.351562 L 444.007812 14.394531 L 443.859375 14.4375 L 443.707031 14.46875 L 443.546875 14.5 L 443.382812 14.527344 L 443.214844 14.546875 L 443.042969 14.5625 L 442.863281 14.574219 L 442.679688 14.582031 L 442.488281 14.585938 L 442.242188 14.582031 L 442.003906 14.570312 L 441.769531 14.550781 L 441.542969 14.527344 L 441.324219 14.492188 L 441.109375 14.453125 L 440.902344 14.402344 L 440.703125 14.347656 L 440.507812 14.285156 L 440.324219 14.214844 L 440.144531 14.136719 L 439.96875 14.054688 L 439.800781 13.964844 L 439.640625 13.867188 L 439.484375 13.765625 L 439.335938 13.660156 L 439.195312 13.546875 L 439.058594 13.429688 L 438.929688 13.304688 L 438.804688 13.175781 L 438.6875 13.039062 L 438.578125 12.898438 L 438.476562 12.753906 L 438.378906 12.601562 L 438.285156 12.445312 L 438.199219 12.285156 L 438.121094 12.117188 L 438.046875 11.945312 L 437.976562 11.769531 L 437.917969 11.589844 L 437.863281 11.40625 L 437.8125 11.21875 L 437.769531 11.023438 L 437.734375 10.832031 L 437.703125 10.632812 L 437.675781 10.429688 L 437.65625 10.222656 L 437.640625 10.015625 L 437.632812 9.804688 L 437.628906 9.585938 L 437.632812 9.363281 L 437.640625 9.144531 L 437.65625 8.929688 L 437.675781 8.71875 L 437.703125 8.515625 L 437.734375 8.3125 L 437.769531 8.117188 L 437.8125 7.921875 L 437.863281 7.734375 L 437.917969 7.550781 L 437.976562 7.371094 L 438.046875 7.199219 L 438.121094 7.03125 L 438.199219 6.867188 L 438.285156 6.710938 L 438.375 6.558594 L 438.472656 6.410156 L 438.574219 6.269531 L 438.683594 6.136719 L 438.796875 6.003906 L 438.917969 5.878906 L 439.046875 5.761719 L 439.179688 5.648438 L 439.316406 5.539062 L 439.464844 5.4375 L 439.613281 5.34375 L 439.773438 5.253906 L 439.9375 5.167969 L 440.105469 5.09375 L 440.28125 5.019531 L 440.464844 4.953125 L 440.65625 4.894531 L 440.851562 4.84375 L 441.054688 4.796875 L 441.261719 4.757812 L 441.476562 4.726562 L 441.699219 4.703125 L 441.925781 4.6875 L 442.160156 4.675781 L 442.402344 4.671875 L 442.769531 4.679688 L 442.945312 4.691406 L 443.117188 4.703125 L 443.285156 4.722656 L 443.445312 4.742188 L 443.605469 4.769531 L 443.757812 4.800781 L 443.90625 4.832031 L 444.1875 4.910156 L 444.324219 4.957031 L 444.457031 5.003906 L 444.585938 5.054688 L 444.710938 5.109375 L 444.832031 5.167969 L 445.058594 5.292969 L 445.167969 5.359375 L 445.273438 5.429688 L 445.375 5.503906 L 445.472656 5.578125 L 445.566406 5.65625 L 445.746094 5.820312 L 445.828125 5.90625 L 445.910156 5.996094 L 445.984375 6.085938 L 446.058594 6.183594 L 446.125 6.277344 L 446.191406 6.375 L 446.257812 6.476562 L 446.316406 6.578125 L 446.375 6.683594 L 446.429688 6.789062 L 446.484375 6.898438 L 446.53125 7.007812 L 446.578125 7.121094 L 446.621094 7.234375 L 446.660156 7.351562 L 444.882812 7.835938 L 444.863281 7.777344 L 444.839844 7.714844 L 444.816406 7.65625 L 444.789062 7.59375 L 444.761719 7.535156 L 444.730469 7.476562 L 444.699219 7.421875 L 444.628906 7.304688 L 444.589844 7.25 L 444.546875 7.191406 L 444.460938 7.082031 L 444.414062 7.03125 L 444.3125 6.929688 L 444.257812 6.882812 L 444.203125 6.832031 L 444.144531 6.789062 L 444.082031 6.742188 L 444.019531 6.699219 L 443.957031 6.660156 L 443.824219 6.582031 L 443.683594 6.511719 L 443.609375 6.480469 L 443.53125 6.449219 L 443.453125 6.421875 L 443.289062 6.367188 L 443.203125 6.347656 L 443.117188 6.324219 L 443.027344 6.308594 L 442.933594 6.292969 L 442.839844 6.28125 L 442.742188 6.269531 L 442.644531 6.265625 L 442.542969 6.257812 L 442.441406 6.257812 L 442.296875 6.261719 L 442.15625 6.269531 L 442.023438 6.28125 L 441.890625 6.296875 L 441.761719 6.316406 L 441.636719 6.34375 L 441.519531 6.375 L 441.402344 6.410156 L 441.183594 6.496094 L 440.980469 6.597656 L 440.792969 6.714844 L 440.703125 6.78125 L 440.617188 6.851562 L 440.539062 6.921875 L 440.460938 7 L 440.386719 7.082031 L 440.316406 7.167969 L 440.25 7.257812 L 440.1875 7.347656 L 440.128906 7.445312 L 440.074219 7.546875 L 440.023438 7.648438 L 439.929688 7.867188 L 439.890625 7.980469 L 439.851562 8.097656 L 439.816406 8.21875 L 439.785156 8.34375 L 439.761719 8.46875 L 439.738281 8.597656 L 439.714844 8.730469 L 439.683594 9.003906 L 439.671875 9.144531 L 439.664062 9.289062 L 439.660156 9.4375 L 439.660156 9.738281 L 439.664062 9.882812 L 439.671875 10.027344 L 439.683594 10.167969 L 439.699219 10.308594 L 439.714844 10.445312 L 439.761719 10.710938 L 439.785156 10.839844 L 439.816406 10.96875 L 439.851562 11.089844 L 439.890625 11.210938 L 439.929688 11.324219 L 439.976562 11.4375 L 440.027344 11.546875 L 440.078125 11.652344 L 440.132812 11.753906 L 440.191406 11.855469 L 440.324219 12.042969 L 440.394531 12.128906 L 440.46875 12.214844 L 440.625 12.371094 L 440.710938 12.441406 L 440.800781 12.511719 L 440.894531 12.574219 L 440.992188 12.636719 L 441.09375 12.691406 L 441.199219 12.746094 L 441.308594 12.792969 L 441.421875 12.835938 L 441.539062 12.875 L 441.664062 12.90625 L 441.789062 12.933594 L 441.921875 12.957031 L 442.058594 12.976562 L 442.199219 12.988281 L 442.339844 12.996094 Z M 442.488281 13 "/>
<path style=" stroke:none;fill-rule:evenodd;fill:rgb(100%,100%,100%);fill-opacity:1;" d="M 648 216 L 864 216 L 864 0 L 648 0 Z M 648 216 "/>
<g clip-path="url(#clip7)" clip-rule="nonzero">
<path style="fill:none;stroke-width:1.066978;stroke-linecap:round;stroke-linejoin:round;stroke:rgb(100%,100%,100%);stroke-opacity:1;stroke-miterlimit:10;" d="M 648 216 L 864 216 L 864 0 L 648 0 Z M 648 216 "/>
</g>
<g clip-path="url(#clip8)" clip-rule="nonzero">
<path style="fill-rule:evenodd;fill:rgb(100%,100%,100%);fill-opacity:1;stroke-width:1.066978;stroke-linecap:round;stroke-linejoin:round;stroke:rgb(100%,100%,100%);stroke-opacity:1;stroke-miterlimit:10;" d="M 656.21875 207.78125 L 858.519531 207.78125 L 858.519531 5.480469 L 656.21875 5.480469 Z M 656.21875 207.78125 "/>
</g>
<path style="fill:none;stroke-width:1.066978;stroke-linecap:round;stroke-linejoin:round;stroke:rgb(0%,0%,0%);stroke-opacity:1;stroke-miterlimit:10;" d="M 823.050781 30 L 849.324219 30 "/>
<path style="fill:none;stroke-width:1.066978;stroke-linecap:round;stroke-linejoin:round;stroke:rgb(0%,0%,0%);stroke-opacity:1;stroke-miterlimit:10;" d="M 823.050781 14.675781 L 849.324219 14.675781 "/>
<path style="fill:none;stroke-width:1.066978;stroke-linecap:round;stroke-linejoin:round;stroke:rgb(0%,0%,0%);stroke-opacity:1;stroke-miterlimit:10;" d="M 796.777344 45.328125 L 849.324219 45.328125 "/>
<path style="fill:none;stroke-width:1.066978;stroke-linecap:round;stroke-linejoin:round;stroke:rgb(0%,0%,0%);stroke-opacity:1;stroke-miterlimit:10;" d="M 770.507812 60.652344 L 849.324219 60.652344 "/>
<path style="fill:none;stroke-width:1.066978;stroke-linecap:round;stroke-linejoin:round;stroke:rgb(0%,0%,0%);stroke-opacity:1;stroke-miterlimit:10;" d="M 744.234375 75.976562 L 849.324219 75.976562 "/>
<path style="fill:none;stroke-width:1.066978;stroke-linecap:round;stroke-linejoin:round;stroke:rgb(0%,0%,0%);stroke-opacity:1;stroke-miterlimit:10;" d="M 823.050781 106.628906 L 849.324219 106.628906 "/>
<path style="fill:none;stroke-width:1.066978;stroke-linecap:round;stroke-linejoin:round;stroke:rgb(0%,0%,0%);stroke-opacity:1;stroke-miterlimit:10;" d="M 823.050781 91.304688 L 849.324219 91.304688 "/>
<path style="fill:none;stroke-width:1.066978;stroke-linecap:round;stroke-linejoin:round;stroke:rgb(0%,0%,0%);stroke-opacity:1;stroke-miterlimit:10;" d="M 796.777344 121.957031 L 849.324219 121.957031 "/>
<path style="fill:none;stroke-width:1.066978;stroke-linecap:round;stroke-linejoin:round;stroke:rgb(0%,0%,0%);stroke-opacity:1;stroke-miterlimit:10;" d="M 823.050781 183.257812 L 849.324219 183.257812 "/>
<path style="fill:none;stroke-width:1.066978;stroke-linecap:round;stroke-linejoin:round;stroke:rgb(0%,0%,0%);stroke-opacity:1;stroke-miterlimit:10;" d="M 823.050781 167.933594 L 849.324219 167.933594 "/>
<path style="fill:none;stroke-width:1.066978;stroke-linecap:round;stroke-linejoin:round;stroke:rgb(0%,0%,0%);stroke-opacity:1;stroke-miterlimit:10;" d="M 823.050781 152.609375 L 849.324219 152.609375 "/>
<path style="fill:none;stroke-width:1.066978;stroke-linecap:round;stroke-linejoin:round;stroke:rgb(0%,0%,0%);stroke-opacity:1;stroke-miterlimit:10;" d="M 823.050781 137.28125 L 849.324219 137.28125 "/>
<path style="fill:none;stroke-width:1.066978;stroke-linecap:round;stroke-linejoin:round;stroke:rgb(0%,0%,0%);stroke-opacity:1;stroke-miterlimit:10;" d="M 665.414062 198.585938 L 849.324219 198.585938 "/>
<path style="fill:none;stroke-width:1.066978;stroke-linecap:round;stroke-linejoin:round;stroke:rgb(0%,0%,0%);stroke-opacity:1;stroke-miterlimit:10;" d="M 665.414062 160.871094 L 665.414062 160.871094 "/>
<path style="fill:none;stroke-width:1.066978;stroke-linecap:round;stroke-linejoin:round;stroke:rgb(0%,0%,0%);stroke-opacity:1;stroke-miterlimit:10;" d="M 665.414062 123.152344 L 691.6875 123.152344 "/>
<path style="fill:none;stroke-width:1.066978;stroke-linecap:round;stroke-linejoin:round;stroke:rgb(0%,0%,0%);stroke-opacity:1;stroke-miterlimit:10;" d="M 691.6875 86.035156 L 717.960938 86.035156 "/>
<path style="fill:none;stroke-width:1.066978;stroke-linecap:round;stroke-linejoin:round;stroke:rgb(0%,0%,0%);stroke-opacity:1;stroke-miterlimit:10;" d="M 717.960938 61.609375 L 744.234375 61.609375 "/>
<path style="fill:none;stroke-width:1.066978;stroke-linecap:round;stroke-linejoin:round;stroke:rgb(0%,0%,0%);stroke-opacity:1;stroke-miterlimit:10;" d="M 744.234375 47.242188 L 770.507812 47.242188 "/>
<path style="fill:none;stroke-width:1.066978;stroke-linecap:round;stroke-linejoin:round;stroke:rgb(0%,0%,0%);stroke-opacity:1;stroke-miterlimit:10;" d="M 770.507812 33.832031 L 796.777344 33.832031 "/>
<path style="fill:none;stroke-width:1.066978;stroke-linecap:round;stroke-linejoin:round;stroke:rgb(0%,0%,0%);stroke-opacity:1;stroke-miterlimit:10;" d="M 796.777344 22.339844 L 823.050781 22.339844 "/>
<path style="fill:none;stroke-width:1.066978;stroke-linecap:round;stroke-linejoin:round;stroke:rgb(0%,0%,0%);stroke-opacity:1;stroke-miterlimit:10;" d="M 717.960938 110.460938 L 796.777344 110.460938 "/>
<path style="fill:none;stroke-width:1.066978;stroke-linecap:round;stroke-linejoin:round;stroke:rgb(0%,0%,0%);stroke-opacity:1;stroke-miterlimit:10;" d="M 796.777344 98.96875 L 823.050781 98.96875 "/>
<path style="fill:none;stroke-width:1.066978;stroke-linecap:round;stroke-linejoin:round;stroke:rgb(0%,0%,0%);stroke-opacity:1;stroke-miterlimit:10;" d="M 691.6875 160.269531 L 796.777344 160.269531 "/>
<path style="fill:none;stroke-width:1.066978;stroke-linecap:round;stroke-linejoin:round;stroke:rgb(0%,0%,0%);stroke-opacity:1;stroke-miterlimit:10;" d="M 796.777344 175.597656 L 823.050781 175.597656 "/>
<path style="fill:none;stroke-width:1.066978;stroke-linecap:round;stroke-linejoin:round;stroke:rgb(0%,0%,0%);stroke-opacity:1;stroke-miterlimit:10;" d="M 796.777344 144.945312 L 823.050781 144.945312 "/>
<path style="fill:none;stroke-width:1.066978;stroke-linecap:round;stroke-linejoin:round;stroke:rgb(0%,0%,0%);stroke-opacity:1;stroke-miterlimit:10;" d="M 823.050781 22.339844 L 823.050781 30 "/>
<path style="fill:none;stroke-width:1.066978;stroke-linecap:round;stroke-linejoin:round;stroke:rgb(0%,0%,0%);stroke-opacity:1;stroke-miterlimit:10;" d="M 823.050781 22.339844 L 823.050781 14.675781 "/>
<path style="fill:none;stroke-width:1.066978;stroke-linecap:round;stroke-linejoin:round;stroke:rgb(0%,0%,0%);stroke-opacity:1;stroke-miterlimit:10;" d="M 796.777344 33.832031 L 796.777344 45.328125 "/>
<path style="fill:none;stroke-width:1.066978;stroke-linecap:round;stroke-linejoin:round;stroke:rgb(0%,0%,0%);stroke-opacity:1;stroke-miterlimit:10;" d="M 770.507812 47.242188 L 770.507812 60.652344 "/>
<path style="fill:none;stroke-width:1.066978;stroke-linecap:round;stroke-linejoin:round;stroke:rgb(0%,0%,0%);stroke-opacity:1;stroke-miterlimit:10;" d="M 744.234375 61.609375 L 744.234375 75.976562 "/>
<path style="fill:none;stroke-width:1.066978;stroke-linecap:round;stroke-linejoin:round;stroke:rgb(0%,0%,0%);stroke-opacity:1;stroke-miterlimit:10;" d="M 823.050781 98.96875 L 823.050781 106.628906 "/>
<path style="fill:none;stroke-width:1.066978;stroke-linecap:round;stroke-linejoin:round;stroke:rgb(0%,0%,0%);stroke-opacity:1;stroke-miterlimit:10;" d="M 823.050781 98.96875 L 823.050781 91.304688 "/>
<path style="fill:none;stroke-width:1.066978;stroke-linecap:round;stroke-linejoin:round;stroke:rgb(0%,0%,0%);stroke-opacity:1;stroke-miterlimit:10;" d="M 796.777344 110.460938 L 796.777344 121.957031 "/>
<path style="fill:none;stroke-width:1.066978;stroke-linecap:round;stroke-linejoin:round;stroke:rgb(0%,0%,0%);stroke-opacity:1;stroke-miterlimit:10;" d="M 823.050781 175.597656 L 823.050781 183.257812 "/>
<path style="fill:none;stroke-width:1.066978;stroke-linecap:round;stroke-linejoin:round;stroke:rgb(0%,0%,0%);stroke-opacity:1;stroke-miterlimit:10;" d="M 823.050781 175.597656 L 823.050781 167.933594 "/>
<path style="fill:none;stroke-width:1.066978;stroke-linecap:round;stroke-linejoin:round;stroke:rgb(0%,0%,0%);stroke-opacity:1;stroke-miterlimit:10;" d="M 823.050781 144.945312 L 823.050781 152.609375 "/>
<path style="fill:none;stroke-width:1.066978;stroke-linecap:round;stroke-linejoin:round;stroke:rgb(0%,0%,0%);stroke-opacity:1;stroke-miterlimit:10;" d="M 823.050781 144.945312 L 823.050781 137.28125 "/>
<path style="fill:none;stroke-width:1.066978;stroke-linecap:round;stroke-linejoin:round;stroke:rgb(0%,0%,0%);stroke-opacity:1;stroke-miterlimit:10;" d="M 665.414062 160.871094 L 665.414062 198.585938 "/>
<path style="fill:none;stroke-width:1.066978;stroke-linecap:round;stroke-linejoin:round;stroke:rgb(0%,0%,0%);stroke-opacity:1;stroke-miterlimit:10;" d="M 665.414062 160.871094 L 665.414062 160.871094 "/>
<path style="fill:none;stroke-width:1.066978;stroke-linecap:round;stroke-linejoin:round;stroke:rgb(0%,0%,0%);stroke-opacity:1;stroke-miterlimit:10;" d="M 665.414062 160.871094 L 665.414062 123.152344 "/>
<path style="fill:none;stroke-width:1.066978;stroke-linecap:round;stroke-linejoin:round;stroke:rgb(0%,0%,0%);stroke-opacity:1;stroke-miterlimit:10;" d="M 691.6875 123.152344 L 691.6875 86.035156 "/>
<path style="fill:none;stroke-width:1.066978;stroke-linecap:round;stroke-linejoin:round;stroke:rgb(0%,0%,0%);stroke-opacity:1;stroke-miterlimit:10;" d="M 717.960938 86.035156 L 717.960938 61.609375 "/>
<path style="fill:none;stroke-width:1.066978;stroke-linecap:round;stroke-linejoin:round;stroke:rgb(0%,0%,0%);stroke-opacity:1;stroke-miterlimit:10;" d="M 744.234375 61.609375 L 744.234375 47.242188 "/>
<path style="fill:none;stroke-width:1.066978;stroke-linecap:round;stroke-linejoin:round;stroke:rgb(0%,0%,0%);stroke-opacity:1;stroke-miterlimit:10;" d="M 770.507812 47.242188 L 770.507812 33.832031 "/>
<path style="fill:none;stroke-width:1.066978;stroke-linecap:round;stroke-linejoin:round;stroke:rgb(0%,0%,0%);stroke-opacity:1;stroke-miterlimit:10;" d="M 796.777344 33.832031 L 796.777344 22.339844 "/>
<path style="fill:none;stroke-width:1.066978;stroke-linecap:round;stroke-linejoin:round;stroke:rgb(0%,0%,0%);stroke-opacity:1;stroke-miterlimit:10;" d="M 717.960938 86.035156 L 717.960938 110.460938 "/>
<path style="fill:none;stroke-width:1.066978;stroke-linecap:round;stroke-linejoin:round;stroke:rgb(0%,0%,0%);stroke-opacity:1;stroke-miterlimit:10;" d="M 796.777344 110.460938 L 796.777344 98.96875 "/>
<path style="fill:none;stroke-width:1.066978;stroke-linecap:round;stroke-linejoin:round;stroke:rgb(0%,0%,0%);stroke-opacity:1;stroke-miterlimit:10;" d="M 691.6875 123.152344 L 691.6875 160.269531 "/>
<path style="fill:none;stroke-width:1.066978;stroke-linecap:round;stroke-linejoin:round;stroke:rgb(0%,0%,0%);stroke-opacity:1;stroke-miterlimit:10;" d="M 796.777344 160.269531 L 796.777344 175.597656 "/>
<path style="fill:none;stroke-width:1.066978;stroke-linecap:round;stroke-linejoin:round;stroke:rgb(0%,0%,0%);stroke-opacity:1;stroke-miterlimit:10;" d="M 796.777344 160.269531 L 796.777344 144.945312 "/>
<path style=" stroke:none;fill-rule:evenodd;fill:rgb(0%,0%,0%);fill-opacity:1;" d="M 662.578125 9.558594 L 662.574219 9.796875 L 662.5625 10.03125 L 662.546875 10.257812 L 662.519531 10.476562 L 662.488281 10.691406 L 662.445312 10.902344 L 662.398438 11.105469 L 662.347656 11.300781 L 662.285156 11.492188 L 662.214844 11.679688 L 662.140625 11.859375 L 662.058594 12.03125 L 661.972656 12.199219 L 661.882812 12.359375 L 661.785156 12.515625 L 661.683594 12.664062 L 661.578125 12.808594 L 661.464844 12.945312 L 661.347656 13.078125 L 661.222656 13.203125 L 661.097656 13.324219 L 660.964844 13.4375 L 660.824219 13.546875 L 660.683594 13.648438 L 660.539062 13.742188 L 660.386719 13.832031 L 660.230469 13.917969 L 660.070312 13.996094 L 659.902344 14.066406 L 659.734375 14.132812 L 659.5625 14.191406 L 659.386719 14.246094 L 659.207031 14.292969 L 659.027344 14.335938 L 658.660156 14.398438 L 658.46875 14.417969 L 658.277344 14.433594 L 658.085938 14.445312 L 657.886719 14.449219 L 653.992188 14.449219 L 653.992188 4.816406 L 657.476562 4.816406 L 657.699219 4.820312 L 657.917969 4.828125 L 658.132812 4.839844 L 658.34375 4.859375 L 658.554688 4.886719 L 658.757812 4.917969 L 658.957031 4.953125 L 659.152344 4.996094 L 659.347656 5.042969 L 659.535156 5.097656 L 659.71875 5.15625 L 659.898438 5.21875 L 660.074219 5.292969 L 660.242188 5.367188 L 660.40625 5.453125 L 660.566406 5.539062 L 660.71875 5.636719 L 660.867188 5.738281 L 661.011719 5.84375 L 661.148438 5.957031 L 661.28125 6.078125 L 661.40625 6.203125 L 661.527344 6.335938 L 661.640625 6.472656 L 661.75 6.617188 L 661.851562 6.769531 L 661.949219 6.925781 L 662.039062 7.089844 L 662.125 7.257812 L 662.203125 7.433594 L 662.273438 7.617188 L 662.335938 7.804688 L 662.394531 8 L 662.441406 8.203125 L 662.484375 8.414062 L 662.515625 8.628906 L 662.542969 8.851562 L 662.5625 9.082031 L 662.574219 9.316406 Z M 660.546875 9.558594 L 660.546875 9.394531 L 660.539062 9.234375 L 660.527344 9.078125 L 660.511719 8.925781 L 660.488281 8.777344 L 660.464844 8.636719 L 660.433594 8.5 L 660.398438 8.367188 L 660.359375 8.242188 L 660.316406 8.117188 L 660.269531 8 L 660.21875 7.886719 L 660.164062 7.777344 L 660.105469 7.671875 L 660.042969 7.570312 L 659.976562 7.472656 L 659.910156 7.382812 L 659.835938 7.296875 L 659.757812 7.210938 L 659.679688 7.132812 L 659.507812 6.984375 L 659.417969 6.917969 L 659.324219 6.855469 L 659.226562 6.792969 L 659.128906 6.738281 L 659.023438 6.6875 L 658.917969 6.640625 L 658.808594 6.597656 L 658.695312 6.558594 L 658.582031 6.523438 L 658.464844 6.492188 L 658.34375 6.464844 L 658.222656 6.441406 L 658.097656 6.421875 L 657.96875 6.402344 L 657.839844 6.390625 L 657.574219 6.375 L 656.007812 6.375 L 656.007812 12.890625 L 657.71875 12.890625 L 657.839844 12.886719 L 658.074219 12.871094 L 658.1875 12.855469 L 658.300781 12.835938 L 658.414062 12.8125 L 658.523438 12.785156 L 658.628906 12.753906 L 658.734375 12.71875 L 658.839844 12.675781 L 658.941406 12.632812 L 659.039062 12.585938 L 659.136719 12.53125 L 659.230469 12.476562 L 659.320312 12.414062 L 659.410156 12.347656 L 659.496094 12.28125 L 659.578125 12.207031 L 659.65625 12.128906 L 659.734375 12.046875 L 659.808594 11.960938 L 659.878906 11.871094 L 659.949219 11.777344 L 660.074219 11.574219 L 660.132812 11.46875 L 660.1875 11.359375 L 660.238281 11.242188 L 660.285156 11.125 L 660.328125 11.003906 L 660.371094 10.875 L 660.40625 10.746094 L 660.441406 10.613281 L 660.46875 10.472656 L 660.492188 10.332031 L 660.511719 10.183594 L 660.527344 10.035156 L 660.539062 9.878906 L 660.546875 9.722656 Z M 660.546875 9.558594 "/>
</g>
</svg>
