<?xml version="1.0" encoding="UTF-8"?>
<svg xmlns="http://www.w3.org/2000/svg" xmlns:xlink="http://www.w3.org/1999/xlink" width="864pt" height="216pt" viewBox="0 0 864 216" version="1.1">
<defs>
<clipPath id="clip1">
  <path d="M 5.480469 5.480469 L 218.355469 5.480469 L 218.355469 210.523438 L 5.480469 210.523438 Z M 5.480469 5.480469 "/>
</clipPath>
<clipPath id="clip2">
  <path d="M 23.035156 23.496094 L 212.871094 23.496094 L 212.871094 202.300781 L 23.035156 202.300781 Z M 23.035156 23.496094 "/>
</clipPath>
<clipPath id="clip3">
  <path d="M 218.351562 5.480469 L 431.226562 5.480469 L 431.226562 210.523438 L 218.351562 210.523438 Z M 218.351562 5.480469 "/>
</clipPath>
<clipPath id="clip4">
  <path d="M 235.910156 23.496094 L 425.746094 23.496094 L 425.746094 202.300781 L 235.910156 202.300781 Z M 235.910156 23.496094 "/>
</clipPath>
<clipPath id="clip5">
  <path d="M 431.226562 5.480469 L 644.875 5.480469 L 644.875 210.523438 L 431.226562 210.523438 Z M 431.226562 5.480469 "/>
</clipPath>
<clipPath id="clip6">
  <path d="M 449.558594 23.496094 L 639.394531 23.496094 L 639.394531 202.300781 L 449.558594 202.300781 Z M 449.558594 23.496094 "/>
</clipPath>
<clipPath id="clip7">
  <path d="M 644.875 5.480469 L 858.523438 5.480469 L 858.523438 210.523438 L 644.875 210.523438 Z M 644.875 5.480469 "/>
</clipPath>
<clipPath id="clip8">
  <path d="M 663.203125 23.496094 L 853.039062 23.496094 L 853.039062 202.300781 L 663.203125 202.300781 Z M 663.203125 23.496094 "/>
</clipPath>
</defs>
<g id="surface552">
<rect x="0" y="0" width="864" height="216" style="fill:rgb(100%,100%,100%);fill-opacity:1;stroke:none;"/>
<rect x="0" y="0" width="864" height="216" style="fill:rgb(100%,100%,100%);fill-opacity:1;stroke:none;"/>
<path style="fill:none;stroke-width:1.066978;stroke-linecap:round;stroke-linejoin:round;stroke:rgb(100%,100%,100%);stroke-opacity:1;stroke-miterlimit:10;" d="M 0 216 L 864 216 L 864 0 L 0 0 Z M 0 216 "/>
<g clip-path="url(#clip1)" clip-rule="nonzero">
<path style="fill-rule:nonzero;fill:rgb(100%,100%,100%);fill-opacity:1;stroke-width:1.066978;stroke-linecap:round;stroke-linejoin:round;stroke:rgb(100%,100%,100%);stroke-opacity:1;stroke-miterlimit:10;" d="M 5.480469 210.519531 L 218.355469 210.519531 L 218.355469 5.476562 L 5.480469 5.476562 Z M 5.480469 210.519531 "/>
</g>
<g clip-path="url(#clip2)" clip-rule="nonzero">
<path style="fill-rule:nonzero;fill:rgb(100%,100%,100%);fill-opacity:1;stroke-width:1.066978;stroke-linecap:round;stroke-linejoin:round;stroke:rgb(100%,100%,100%);stroke-opacity:1;stroke-miterlimit:10;" d="M 23.035156 202.300781 L 212.871094 202.300781 L 212.871094 23.496094 L 23.035156 23.496094 Z M 23.035156 202.300781 "/>
</g>
<path style="fill:none;stroke-width:1.066978;stroke-linecap:round;stroke-linejoin:round;stroke:rgb(0%,0%,0%);stroke-opacity:1;stroke-miterlimit:10;" d="M 167.265625 45.167969 L 179.589844 45.167969 "/>
<path style="fill:none;stroke-width:1.066978;stroke-linecap:round;stroke-linejoin:round;stroke:rgb(0%,0%,0%);stroke-opacity:1;stroke-miterlimit:10;" d="M 167.265625 31.625 L 179.589844 31.625 "/>
<path style="fill:none;stroke-width:1.066978;stroke-linecap:round;stroke-linejoin:round;stroke:rgb(0%,0%,0%);stroke-opacity:1;stroke-miterlimit:10;" d="M 148.773438 58.714844 L 164.183594 58.714844 "/>
<path style="fill:none;stroke-width:1.066978;stroke-linecap:round;stroke-linejoin:round;stroke:rgb(0%,0%,0%);stroke-opacity:1;stroke-miterlimit:10;" d="M 124.117188 72.261719 L 142.609375 72.261719 "/>
<path style="fill:none;stroke-width:1.066978;stroke-linecap:round;stroke-linejoin:round;stroke:rgb(0%,0%,0%);stroke-opacity:1;stroke-miterlimit:10;" d="M 114.875 85.808594 L 179.589844 85.808594 "/>
<path style="fill:none;stroke-width:1.066978;stroke-linecap:round;stroke-linejoin:round;stroke:rgb(0%,0%,0%);stroke-opacity:1;stroke-miterlimit:10;" d="M 167.265625 112.898438 L 179.589844 112.898438 "/>
<path style="fill:none;stroke-width:1.066978;stroke-linecap:round;stroke-linejoin:round;stroke:rgb(0%,0%,0%);stroke-opacity:1;stroke-miterlimit:10;" d="M 167.265625 99.351562 L 204.246094 99.351562 "/>
<path style="fill:none;stroke-width:1.066978;stroke-linecap:round;stroke-linejoin:round;stroke:rgb(0%,0%,0%);stroke-opacity:1;stroke-miterlimit:10;" d="M 124.117188 126.445312 L 148.773438 126.445312 "/>
<path style="fill:none;stroke-width:1.066978;stroke-linecap:round;stroke-linejoin:round;stroke:rgb(0%,0%,0%);stroke-opacity:1;stroke-miterlimit:10;" d="M 188.835938 180.628906 L 204.246094 180.628906 "/>
<path style="fill:none;stroke-width:1.066978;stroke-linecap:round;stroke-linejoin:round;stroke:rgb(0%,0%,0%);stroke-opacity:1;stroke-miterlimit:10;" d="M 188.835938 167.082031 L 195 167.082031 "/>
<path style="fill:none;stroke-width:1.066978;stroke-linecap:round;stroke-linejoin:round;stroke:rgb(0%,0%,0%);stroke-opacity:1;stroke-miterlimit:10;" d="M 102.546875 153.535156 L 136.445312 153.535156 "/>
<path style="fill:none;stroke-width:1.066978;stroke-linecap:round;stroke-linejoin:round;stroke:rgb(0%,0%,0%);stroke-opacity:1;stroke-miterlimit:10;" d="M 102.546875 139.992188 L 136.445312 139.992188 "/>
<path style="fill:none;stroke-width:1.066978;stroke-linecap:round;stroke-linejoin:round;stroke:rgb(0%,0%,0%);stroke-opacity:1;stroke-miterlimit:10;" d="M 31.664062 194.175781 L 204.246094 194.175781 "/>
<path style="fill:none;stroke-width:1.066978;stroke-linecap:round;stroke-linejoin:round;stroke:rgb(0%,0%,0%);stroke-opacity:1;stroke-miterlimit:10;" d="M 31.664062 160.839844 L 31.664062 160.839844 "/>
<path style="fill:none;stroke-width:1.066978;stroke-linecap:round;stroke-linejoin:round;stroke:rgb(0%,0%,0%);stroke-opacity:1;stroke-miterlimit:10;" d="M 31.664062 127.503906 L 43.992188 127.503906 "/>
<path style="fill:none;stroke-width:1.066978;stroke-linecap:round;stroke-linejoin:round;stroke:rgb(0%,0%,0%);stroke-opacity:1;stroke-miterlimit:10;" d="M 43.992188 94.695312 L 84.054688 94.695312 "/>
<path style="fill:none;stroke-width:1.066978;stroke-linecap:round;stroke-linejoin:round;stroke:rgb(0%,0%,0%);stroke-opacity:1;stroke-miterlimit:10;" d="M 84.054688 73.109375 L 114.875 73.109375 "/>
<path style="fill:none;stroke-width:1.066978;stroke-linecap:round;stroke-linejoin:round;stroke:rgb(0%,0%,0%);stroke-opacity:1;stroke-miterlimit:10;" d="M 114.875 60.410156 L 124.117188 60.410156 "/>
<path style="fill:none;stroke-width:1.066978;stroke-linecap:round;stroke-linejoin:round;stroke:rgb(0%,0%,0%);stroke-opacity:1;stroke-miterlimit:10;" d="M 124.117188 48.554688 L 148.773438 48.554688 "/>
<path style="fill:none;stroke-width:1.066978;stroke-linecap:round;stroke-linejoin:round;stroke:rgb(0%,0%,0%);stroke-opacity:1;stroke-miterlimit:10;" d="M 148.773438 38.394531 L 167.265625 38.394531 "/>
<path style="fill:none;stroke-width:1.066978;stroke-linecap:round;stroke-linejoin:round;stroke:rgb(0%,0%,0%);stroke-opacity:1;stroke-miterlimit:10;" d="M 84.054688 116.285156 L 124.117188 116.285156 "/>
<path style="fill:none;stroke-width:1.066978;stroke-linecap:round;stroke-linejoin:round;stroke:rgb(0%,0%,0%);stroke-opacity:1;stroke-miterlimit:10;" d="M 124.117188 106.125 L 167.265625 106.125 "/>
<path style="fill:none;stroke-width:1.066978;stroke-linecap:round;stroke-linejoin:round;stroke:rgb(0%,0%,0%);stroke-opacity:1;stroke-miterlimit:10;" d="M 43.992188 160.308594 L 96.382812 160.308594 "/>
<path style="fill:none;stroke-width:1.066978;stroke-linecap:round;stroke-linejoin:round;stroke:rgb(0%,0%,0%);stroke-opacity:1;stroke-miterlimit:10;" d="M 96.382812 173.855469 L 188.835938 173.855469 "/>
<path style="fill:none;stroke-width:1.066978;stroke-linecap:round;stroke-linejoin:round;stroke:rgb(0%,0%,0%);stroke-opacity:1;stroke-miterlimit:10;" d="M 96.382812 146.761719 L 102.546875 146.761719 "/>
<path style="fill:none;stroke-width:1.066978;stroke-linecap:round;stroke-linejoin:round;stroke:rgb(0%,0%,0%);stroke-opacity:1;stroke-miterlimit:10;" d="M 167.265625 38.394531 L 167.265625 45.167969 "/>
<path style="fill:none;stroke-width:1.066978;stroke-linecap:round;stroke-linejoin:round;stroke:rgb(0%,0%,0%);stroke-opacity:1;stroke-miterlimit:10;" d="M 167.265625 38.394531 L 167.265625 31.625 "/>
<path style="fill:none;stroke-width:1.066978;stroke-linecap:round;stroke-linejoin:round;stroke:rgb(0%,0%,0%);stroke-opacity:1;stroke-miterlimit:10;" d="M 148.773438 48.554688 L 148.773438 58.714844 "/>
<path style="fill:none;stroke-width:1.066978;stroke-linecap:round;stroke-linejoin:round;stroke:rgb(0%,0%,0%);stroke-opacity:1;stroke-miterlimit:10;" d="M 124.117188 60.410156 L 124.117188 72.261719 "/>
<path style="fill:none;stroke-width:1.066978;stroke-linecap:round;stroke-linejoin:round;stroke:rgb(0%,0%,0%);stroke-opacity:1;stroke-miterlimit:10;" d="M 114.875 73.109375 L 114.875 85.808594 "/>
<path style="fill:none;stroke-width:1.066978;stroke-linecap:round;stroke-linejoin:round;stroke:rgb(0%,0%,0%);stroke-opacity:1;stroke-miterlimit:10;" d="M 167.265625 106.125 L 167.265625 112.898438 "/>
<path style="fill:none;stroke-width:1.066978;stroke-linecap:round;stroke-linejoin:round;stroke:rgb(0%,0%,0%);stroke-opacity:1;stroke-miterlimit:10;" d="M 167.265625 106.125 L 167.265625 99.351562 "/>
<path style="fill:none;stroke-width:1.066978;stroke-linecap:round;stroke-linejoin:round;stroke:rgb(0%,0%,0%);stroke-opacity:1;stroke-miterlimit:10;" d="M 124.117188 116.285156 L 124.117188 126.445312 "/>
<path style="fill:none;stroke-width:1.066978;stroke-linecap:round;stroke-linejoin:round;stroke:rgb(0%,0%,0%);stroke-opacity:1;stroke-miterlimit:10;" d="M 188.835938 173.855469 L 188.835938 180.628906 "/>
<path style="fill:none;stroke-width:1.066978;stroke-linecap:round;stroke-linejoin:round;stroke:rgb(0%,0%,0%);stroke-opacity:1;stroke-miterlimit:10;" d="M 188.835938 173.855469 L 188.835938 167.082031 "/>
<path style="fill:none;stroke-width:1.066978;stroke-linecap:round;stroke-linejoin:round;stroke:rgb(0%,0%,0%);stroke-opacity:1;stroke-miterlimit:10;" d="M 102.546875 146.761719 L 102.546875 153.535156 "/>
<path style="fill:none;stroke-width:1.066978;stroke-linecap:round;stroke-linejoin:round;stroke:rgb(0%,0%,0%);stroke-opacity:1;stroke-miterlimit:10;" d="M 102.546875 146.761719 L 102.546875 139.992188 "/>
<path style="fill:none;stroke-width:1.066978;stroke-linecap:round;stroke-linejoin:round;stroke:rgb(0%,0%,0%);stroke-opacity:1;stroke-miterlimit:10;" d="M 31.664062 160.839844 L 31.664062 194.175781 "/>
<path style="fill:none;stroke-width:1.066978;stroke-linecap:round;stroke-linejoin:round;stroke:rgb(0%,0%,0%);stroke-opacity:1;stroke-miterlimit:10;" d="M 31.664062 160.839844 L 31.664062 160.839844 "/>
<path style="fill:none;stroke-width:1.066978;stroke-linecap:round;stroke-linejoin:round;stroke:rgb(0%,0%,0%);stroke-opacity:1;stroke-miterlimit:10;" d="M 31.664062 160.839844 L 31.664062 127.503906 "/>
<path style="fill:none;stroke-width:1.066978;stroke-linecap:round;stroke-linejoin:round;stroke:rgb(0%,0%,0%);stroke-opacity:1;stroke-miterlimit:10;" d="M 43.992188 127.503906 L 43.992188 94.695312 "/>
<path style="fill:none;stroke-width:1.066978;stroke-linecap:round;stroke-linejoin:round;stroke:rgb(0%,0%,0%);stroke-opacity:1;stroke-miterlimit:10;" d="M 84.054688 94.695312 L 84.054688 73.109375 "/>
<path style="fill:none;stroke-width:1.066978;stroke-linecap:round;stroke-linejoin:round;stroke:rgb(0%,0%,0%);stroke-opacity:1;stroke-miterlimit:10;" d="M 114.875 73.109375 L 114.875 60.410156 "/>
<path style="fill:none;stroke-width:1.066978;stroke-linecap:round;stroke-linejoin:round;stroke:rgb(0%,0%,0%);stroke-opacity:1;stroke-miterlimit:10;" d="M 124.117188 60.410156 L 124.117188 48.554688 "/>
<path style="fill:none;stroke-width:1.066978;stroke-linecap:round;stroke-linejoin:round;stroke:rgb(0%,0%,0%);stroke-opacity:1;stroke-miterlimit:10;" d="M 148.773438 48.554688 L 148.773438 38.394531 "/>
<path style="fill:none;stroke-width:1.066978;stroke-linecap:round;stroke-linejoin:round;stroke:rgb(0%,0%,0%);stroke-opacity:1;stroke-miterlimit:10;" d="M 84.054688 94.695312 L 84.054688 116.285156 "/>
<path style="fill:none;stroke-width:1.066978;stroke-linecap:round;stroke-linejoin:round;stroke:rgb(0%,0%,0%);stroke-opacity:1;stroke-miterlimit:10;" d="M 124.117188 116.285156 L 124.117188 106.125 "/>
<path style="fill:none;stroke-width:1.066978;stroke-linecap:round;stroke-linejoin:round;stroke:rgb(0%,0%,0%);stroke-opacity:1;stroke-miterlimit:10;" d="M 43.992188 127.503906 L 43.992188 160.308594 "/>
<path style="fill:none;stroke-width:1.066978;stroke-linecap:round;stroke-linejoin:round;stroke:rgb(0%,0%,0%);stroke-opacity:1;stroke-miterlimit:10;" d="M 96.382812 160.308594 L 96.382812 173.855469 "/>
<path style="fill:none;stroke-width:1.066978;stroke-linecap:round;stroke-linejoin:round;stroke:rgb(0%,0%,0%);stroke-opacity:1;stroke-miterlimit:10;" d="M 96.382812 160.308594 L 96.382812 146.761719 "/>
<path style=" stroke:none;fill-rule:nonzero;fill:rgb(0%,0%,0%);fill-opacity:1;" d="M 18.9375 22.042969 L 17.835938 19.226562 L 13.445312 19.226562 L 12.339844 22.042969 L 10.984375 22.042969 L 14.917969 12.410156 L 16.398438 12.410156 L 20.269531 22.042969 Z M 16.207031 15.03125 L 16.1875 14.976562 L 16.164062 14.921875 L 16.144531 14.863281 L 16.121094 14.808594 L 16.082031 14.699219 L 16.058594 14.644531 L 16.039062 14.585938 L 16.015625 14.53125 L 15.976562 14.421875 L 15.960938 14.367188 L 15.941406 14.3125 L 15.921875 14.261719 L 15.875 14.109375 L 15.855469 14.0625 L 15.824219 13.96875 L 15.8125 13.925781 L 15.796875 13.878906 L 15.78125 13.839844 L 15.769531 13.796875 L 15.757812 13.757812 L 15.742188 13.722656 L 15.730469 13.683594 L 15.71875 13.652344 L 15.707031 13.617188 L 15.695312 13.585938 L 15.671875 13.503906 L 15.664062 13.480469 L 15.660156 13.460938 L 15.652344 13.441406 L 15.648438 13.425781 L 15.644531 13.414062 L 15.644531 13.402344 L 15.640625 13.394531 L 15.636719 13.402344 L 15.628906 13.425781 L 15.625 13.441406 L 15.621094 13.460938 L 15.613281 13.480469 L 15.605469 13.503906 L 15.589844 13.558594 L 15.578125 13.585938 L 15.570312 13.621094 L 15.558594 13.652344 L 15.546875 13.6875 L 15.535156 13.726562 L 15.523438 13.761719 L 15.511719 13.804688 L 15.496094 13.84375 L 15.464844 13.929688 L 15.417969 14.070312 L 15.386719 14.171875 L 15.367188 14.222656 L 15.351562 14.273438 L 15.332031 14.324219 L 15.273438 14.488281 L 15.253906 14.546875 L 15.195312 14.710938 L 15.175781 14.769531 L 15.136719 14.878906 L 15.113281 14.933594 L 15.074219 15.042969 L 13.84375 18.207031 L 17.445312 18.207031 Z M 16.207031 15.03125 "/>
<g clip-path="url(#clip3)" clip-rule="nonzero">
<path style="fill-rule:nonzero;fill:rgb(100%,100%,100%);fill-opacity:1;stroke-width:1.066978;stroke-linecap:round;stroke-linejoin:round;stroke:rgb(100%,100%,100%);stroke-opacity:1;stroke-miterlimit:10;" d="M 218.351562 210.519531 L 431.226562 210.519531 L 431.226562 5.476562 L 218.351562 5.476562 Z M 218.351562 210.519531 "/>
</g>
<g clip-path="url(#clip4)" clip-rule="nonzero">
<path style="fill-rule:nonzero;fill:rgb(100%,100%,100%);fill-opacity:1;stroke-width:1.066978;stroke-linecap:round;stroke-linejoin:round;stroke:rgb(100%,100%,100%);stroke-opacity:1;stroke-miterlimit:10;" d="M 235.910156 202.300781 L 425.746094 202.300781 L 425.746094 23.496094 L 235.910156 23.496094 Z M 235.910156 202.300781 "/>
</g>
<path style="fill:none;stroke-width:4.267913;stroke-linecap:round;stroke-linejoin:round;stroke:rgb(69.803922%,13.333333%,13.333333%);stroke-opacity:1;stroke-dasharray:4.267913,12.80374;stroke-miterlimit:10;" d="M 380.136719 45.167969 L 392.464844 45.167969 "/>
<path style="fill:none;stroke-width:4.267913;stroke-linecap:round;stroke-linejoin:round;stroke:rgb(69.803922%,13.333333%,13.333333%);stroke-opacity:1;stroke-dasharray:4.267913,12.80374;stroke-miterlimit:10;" d="M 380.136719 31.625 L 392.464844 31.625 "/>
<path style="fill:none;stroke-width:4.267913;stroke-linecap:round;stroke-linejoin:round;stroke:rgb(69.803922%,13.333333%,13.333333%);stroke-opacity:1;stroke-dasharray:4.267913,12.80374;stroke-miterlimit:10;" d="M 361.648438 58.714844 L 377.054688 58.714844 "/>
<path style="fill:none;stroke-width:4.267913;stroke-linecap:round;stroke-linejoin:round;stroke:rgb(69.803922%,13.333333%,13.333333%);stroke-opacity:1;stroke-dasharray:4.267913,12.80374;stroke-miterlimit:10;" d="M 336.992188 72.261719 L 355.484375 72.261719 "/>
<path style="fill:none;stroke-width:4.267913;stroke-linecap:round;stroke-linejoin:round;stroke:rgb(69.803922%,13.333333%,13.333333%);stroke-opacity:1;stroke-dasharray:4.267913,12.80374;stroke-miterlimit:10;" d="M 327.746094 85.808594 L 392.464844 85.808594 "/>
<path style="fill:none;stroke-width:4.267913;stroke-linecap:round;stroke-linejoin:round;stroke:rgb(69.803922%,13.333333%,13.333333%);stroke-opacity:1;stroke-dasharray:4.267913,12.80374;stroke-miterlimit:10;" d="M 380.136719 112.898438 L 392.464844 112.898438 "/>
<path style="fill:none;stroke-width:4.267913;stroke-linecap:round;stroke-linejoin:round;stroke:rgb(69.803922%,13.333333%,13.333333%);stroke-opacity:1;stroke-dasharray:4.267913,12.80374;stroke-miterlimit:10;" d="M 380.136719 99.351562 L 417.117188 99.351562 "/>
<path style="fill:none;stroke-width:4.267913;stroke-linecap:round;stroke-linejoin:round;stroke:rgb(69.803922%,13.333333%,13.333333%);stroke-opacity:1;stroke-dasharray:4.267913,12.80374;stroke-miterlimit:10;" d="M 336.992188 126.445312 L 361.648438 126.445312 "/>
<path style="fill:none;stroke-width:4.267913;stroke-linecap:round;stroke-linejoin:round;stroke:rgb(69.803922%,13.333333%,13.333333%);stroke-opacity:1;stroke-dasharray:4.267913,12.80374;stroke-miterlimit:10;" d="M 401.710938 180.628906 L 417.117188 180.628906 "/>
<path style="fill:none;stroke-width:4.267913;stroke-linecap:round;stroke-linejoin:round;stroke:rgb(69.803922%,13.333333%,13.333333%);stroke-opacity:1;stroke-dasharray:4.267913,12.80374;stroke-miterlimit:10;" d="M 401.710938 167.082031 L 407.875 167.082031 "/>
<path style="fill:none;stroke-width:4.267913;stroke-linecap:round;stroke-linejoin:round;stroke:rgb(69.803922%,13.333333%,13.333333%);stroke-opacity:1;stroke-dasharray:4.267913,12.80374;stroke-miterlimit:10;" d="M 315.421875 153.535156 L 349.320312 153.535156 "/>
<path style="fill:none;stroke-width:4.267913;stroke-linecap:round;stroke-linejoin:round;stroke:rgb(69.803922%,13.333333%,13.333333%);stroke-opacity:1;stroke-dasharray:4.267913,12.80374;stroke-miterlimit:10;" d="M 315.421875 139.992188 L 349.320312 139.992188 "/>
<path style="fill:none;stroke-width:4.267913;stroke-linecap:round;stroke-linejoin:round;stroke:rgb(69.803922%,13.333333%,13.333333%);stroke-opacity:1;stroke-dasharray:4.267913,12.80374;stroke-miterlimit:10;" d="M 244.539062 194.175781 L 417.117188 194.175781 "/>
<path style="fill:none;stroke-width:4.267913;stroke-linecap:round;stroke-linejoin:round;stroke:rgb(69.803922%,13.333333%,13.333333%);stroke-opacity:1;stroke-dasharray:4.267913,12.80374;stroke-miterlimit:10;" d="M 244.539062 160.839844 L 244.539062 160.839844 "/>
<path style="fill:none;stroke-width:4.267913;stroke-linecap:round;stroke-linejoin:round;stroke:rgb(69.803922%,13.333333%,13.333333%);stroke-opacity:1;stroke-dasharray:4.267913,12.80374;stroke-miterlimit:10;" d="M 244.539062 127.503906 L 256.867188 127.503906 "/>
<path style="fill:none;stroke-width:4.267913;stroke-linecap:round;stroke-linejoin:round;stroke:rgb(69.803922%,13.333333%,13.333333%);stroke-opacity:1;stroke-dasharray:4.267913,12.80374;stroke-miterlimit:10;" d="M 256.867188 94.695312 L 296.929688 94.695312 "/>
<path style="fill:none;stroke-width:4.267913;stroke-linecap:round;stroke-linejoin:round;stroke:rgb(69.803922%,13.333333%,13.333333%);stroke-opacity:1;stroke-dasharray:4.267913,12.80374;stroke-miterlimit:10;" d="M 296.929688 73.109375 L 327.746094 73.109375 "/>
<path style="fill:none;stroke-width:4.267913;stroke-linecap:round;stroke-linejoin:round;stroke:rgb(69.803922%,13.333333%,13.333333%);stroke-opacity:1;stroke-dasharray:4.267913,12.80374;stroke-miterlimit:10;" d="M 327.746094 60.410156 L 336.992188 60.410156 "/>
<path style="fill:none;stroke-width:4.267913;stroke-linecap:round;stroke-linejoin:round;stroke:rgb(69.803922%,13.333333%,13.333333%);stroke-opacity:1;stroke-dasharray:4.267913,12.80374;stroke-miterlimit:10;" d="M 336.992188 48.554688 L 361.648438 48.554688 "/>
<path style="fill:none;stroke-width:4.267913;stroke-linecap:round;stroke-linejoin:round;stroke:rgb(69.803922%,13.333333%,13.333333%);stroke-opacity:1;stroke-dasharray:4.267913,12.80374;stroke-miterlimit:10;" d="M 361.648438 38.394531 L 380.136719 38.394531 "/>
<path style="fill:none;stroke-width:4.267913;stroke-linecap:round;stroke-linejoin:round;stroke:rgb(69.803922%,13.333333%,13.333333%);stroke-opacity:1;stroke-dasharray:4.267913,12.80374;stroke-miterlimit:10;" d="M 296.929688 116.285156 L 336.992188 116.285156 "/>
<path style="fill:none;stroke-width:4.267913;stroke-linecap:round;stroke-linejoin:round;stroke:rgb(69.803922%,13.333333%,13.333333%);stroke-opacity:1;stroke-dasharray:4.267913,12.80374;stroke-miterlimit:10;" d="M 336.992188 106.125 L 380.136719 106.125 "/>
<path style="fill:none;stroke-width:4.267913;stroke-linecap:round;stroke-linejoin:round;stroke:rgb(69.803922%,13.333333%,13.333333%);stroke-opacity:1;stroke-dasharray:4.267913,12.80374;stroke-miterlimit:10;" d="M 256.867188 160.308594 L 309.257812 160.308594 "/>
<path style="fill:none;stroke-width:4.267913;stroke-linecap:round;stroke-linejoin:round;stroke:rgb(69.803922%,13.333333%,13.333333%);stroke-opacity:1;stroke-dasharray:4.267913,12.80374;stroke-miterlimit:10;" d="M 309.257812 173.855469 L 401.710938 173.855469 "/>
<path style="fill:none;stroke-width:4.267913;stroke-linecap:round;stroke-linejoin:round;stroke:rgb(69.803922%,13.333333%,13.333333%);stroke-opacity:1;stroke-dasharray:4.267913,12.80374;stroke-miterlimit:10;" d="M 309.257812 146.761719 L 315.421875 146.761719 "/>
<path style="fill:none;stroke-width:4.267913;stroke-linecap:round;stroke-linejoin:round;stroke:rgb(69.803922%,13.333333%,13.333333%);stroke-opacity:1;stroke-dasharray:4.267913,12.80374;stroke-miterlimit:10;" d="M 380.136719 38.394531 L 380.136719 45.167969 "/>
<path style="fill:none;stroke-width:4.267913;stroke-linecap:round;stroke-linejoin:round;stroke:rgb(69.803922%,13.333333%,13.333333%);stroke-opacity:1;stroke-dasharray:4.267913,12.80374;stroke-miterlimit:10;" d="M 380.136719 38.394531 L 380.136719 31.625 "/>
<path style="fill:none;stroke-width:4.267913;stroke-linecap:round;stroke-linejoin:round;stroke:rgb(69.803922%,13.333333%,13.333333%);stroke-opacity:1;stroke-dasharray:4.267913,12.80374;stroke-miterlimit:10;" d="M 361.648438 48.554688 L 361.648438 58.714844 "/>
<path style="fill:none;stroke-width:4.267913;stroke-linecap:round;stroke-linejoin:round;stroke:rgb(69.803922%,13.333333%,13.333333%);stroke-opacity:1;stroke-dasharray:4.267913,12.80374;stroke-miterlimit:10;" d="M 336.992188 60.410156 L 336.992188 72.261719 "/>
<path style="fill:none;stroke-width:4.267913;stroke-linecap:round;stroke-linejoin:round;stroke:rgb(69.803922%,13.333333%,13.333333%);stroke-opacity:1;stroke-dasharray:4.267913,12.80374;stroke-miterlimit:10;" d="M 327.746094 73.109375 L 327.746094 85.808594 "/>
<path style="fill:none;stroke-width:4.267913;stroke-linecap:round;stroke-linejoin:round;stroke:rgb(69.803922%,13.333333%,13.333333%);stroke-opacity:1;stroke-dasharray:4.267913,12.80374;stroke-miterlimit:10;" d="M 380.136719 106.125 L 380.136719 112.898438 "/>
<path style="fill:none;stroke-width:4.267913;stroke-linecap:round;stroke-linejoin:round;stroke:rgb(69.803922%,13.333333%,13.333333%);stroke-opacity:1;stroke-dasharray:4.267913,12.80374;stroke-miterlimit:10;" d="M 380.136719 106.125 L 380.136719 99.351562 "/>
<path style="fill:none;stroke-width:4.267913;stroke-linecap:round;stroke-linejoin:round;stroke:rgb(69.803922%,13.333333%,13.333333%);stroke-opacity:1;stroke-dasharray:4.267913,12.80374;stroke-miterlimit:10;" d="M 336.992188 116.285156 L 336.992188 126.445312 "/>
<path style="fill:none;stroke-width:4.267913;stroke-linecap:round;stroke-linejoin:round;stroke:rgb(69.803922%,13.333333%,13.333333%);stroke-opacity:1;stroke-dasharray:4.267913,12.80374;stroke-miterlimit:10;" d="M 401.710938 173.855469 L 401.710938 180.628906 "/>
<path style="fill:none;stroke-width:4.267913;stroke-linecap:round;stroke-linejoin:round;stroke:rgb(69.803922%,13.333333%,13.333333%);stroke-opacity:1;stroke-dasharray:4.267913,12.80374;stroke-miterlimit:10;" d="M 401.710938 173.855469 L 401.710938 167.082031 "/>
<path style="fill:none;stroke-width:4.267913;stroke-linecap:round;stroke-linejoin:round;stroke:rgb(69.803922%,13.333333%,13.333333%);stroke-opacity:1;stroke-dasharray:4.267913,12.80374;stroke-miterlimit:10;" d="M 315.421875 146.761719 L 315.421875 153.535156 "/>
<path style="fill:none;stroke-width:4.267913;stroke-linecap:round;stroke-linejoin:round;stroke:rgb(69.803922%,13.333333%,13.333333%);stroke-opacity:1;stroke-dasharray:4.267913,12.80374;stroke-miterlimit:10;" d="M 315.421875 146.761719 L 315.421875 139.992188 "/>
<path style="fill:none;stroke-width:4.267913;stroke-linecap:round;stroke-linejoin:round;stroke:rgb(69.803922%,13.333333%,13.333333%);stroke-opacity:1;stroke-dasharray:4.267913,12.80374;stroke-miterlimit:10;" d="M 244.539062 160.839844 L 244.539062 194.175781 "/>
<path style="fill:none;stroke-width:4.267913;stroke-linecap:round;stroke-linejoin:round;stroke:rgb(69.803922%,13.333333%,13.333333%);stroke-opacity:1;stroke-dasharray:4.267913,12.80374;stroke-miterlimit:10;" d="M 244.539062 160.839844 L 244.539062 160.839844 "/>
<path style="fill:none;stroke-width:4.267913;stroke-linecap:round;stroke-linejoin:round;stroke:rgb(69.803922%,13.333333%,13.333333%);stroke-opacity:1;stroke-dasharray:4.267913,12.80374;stroke-miterlimit:10;" d="M 244.539062 160.839844 L 244.539062 127.503906 "/>
<path style="fill:none;stroke-width:4.267913;stroke-linecap:round;stroke-linejoin:round;stroke:rgb(69.803922%,13.333333%,13.333333%);stroke-opacity:1;stroke-dasharray:4.267913,12.80374;stroke-miterlimit:10;" d="M 256.867188 127.503906 L 256.867188 94.695312 "/>
<path style="fill:none;stroke-width:4.267913;stroke-linecap:round;stroke-linejoin:round;stroke:rgb(69.803922%,13.333333%,13.333333%);stroke-opacity:1;stroke-dasharray:4.267913,12.80374;stroke-miterlimit:10;" d="M 296.929688 94.695312 L 296.929688 73.109375 "/>
<path style="fill:none;stroke-width:4.267913;stroke-linecap:round;stroke-linejoin:round;stroke:rgb(69.803922%,13.333333%,13.333333%);stroke-opacity:1;stroke-dasharray:4.267913,12.80374;stroke-miterlimit:10;" d="M 327.746094 73.109375 L 327.746094 60.410156 "/>
<path style="fill:none;stroke-width:4.267913;stroke-linecap:round;stroke-linejoin:round;stroke:rgb(69.803922%,13.333333%,13.333333%);stroke-opacity:1;stroke-dasharray:4.267913,12.80374;stroke-miterlimit:10;" d="M 336.992188 60.410156 L 336.992188 48.554688 "/>
<path style="fill:none;stroke-width:4.267913;stroke-linecap:round;stroke-linejoin:round;stroke:rgb(69.803922%,13.333333%,13.333333%);stroke-opacity:1;stroke-dasharray:4.267913,12.80374;stroke-miterlimit:10;" d="M 361.648438 48.554688 L 361.648438 38.394531 "/>
<path style="fill:none;stroke-width:4.267913;stroke-linecap:round;stroke-linejoin:round;stroke:rgb(69.803922%,13.333333%,13.333333%);stroke-opacity:1;stroke-dasharray:4.267913,12.80374;stroke-miterlimit:10;" d="M 296.929688 94.695312 L 296.929688 116.285156 "/>
<path style="fill:none;stroke-width:4.267913;stroke-linecap:round;stroke-linejoin:round;stroke:rgb(69.803922%,13.333333%,13.333333%);stroke-opacity:1;stroke-dasharray:4.267913,12.80374;stroke-miterlimit:10;" d="M 336.992188 116.285156 L 336.992188 106.125 "/>
<path style="fill:none;stroke-width:4.267913;stroke-linecap:round;stroke-linejoin:round;stroke:rgb(69.803922%,13.333333%,13.333333%);stroke-opacity:1;stroke-dasharray:4.267913,12.80374;stroke-miterlimit:10;" d="M 256.867188 127.503906 L 256.867188 160.308594 "/>
<path style="fill:none;stroke-width:4.267913;stroke-linecap:round;stroke-linejoin:round;stroke:rgb(69.803922%,13.333333%,13.333333%);stroke-opacity:1;stroke-dasharray:4.267913,12.80374;stroke-miterlimit:10;" d="M 309.257812 160.308594 L 309.257812 173.855469 "/>
<path style="fill:none;stroke-width:4.267913;stroke-linecap:round;stroke-linejoin:round;stroke:rgb(69.803922%,13.333333%,13.333333%);stroke-opacity:1;stroke-dasharray:4.267913,12.80374;stroke-miterlimit:10;" d="M 309.257812 160.308594 L 309.257812 146.761719 "/>
<path style=" stroke:none;fill-rule:nonzero;fill:rgb(0%,0%,0%);fill-opacity:1;" d="M 232.433594 19.328125 L 232.429688 19.472656 L 232.421875 19.613281 L 232.40625 19.75 L 232.386719 19.878906 L 232.359375 20.007812 L 232.328125 20.132812 L 232.292969 20.25 L 232.25 20.363281 L 232.199219 20.472656 L 232.144531 20.582031 L 232.085938 20.679688 L 232.023438 20.777344 L 231.957031 20.871094 L 231.882812 20.960938 L 231.808594 21.046875 L 231.730469 21.128906 L 231.644531 21.207031 L 231.558594 21.28125 L 231.46875 21.355469 L 231.371094 21.421875 L 231.273438 21.484375 L 231.171875 21.542969 L 230.960938 21.652344 L 230.734375 21.746094 L 230.617188 21.789062 L 230.496094 21.824219 L 230.246094 21.894531 L 230.117188 21.921875 L 229.851562 21.96875 L 229.71875 21.988281 L 229.585938 22.003906 L 229.449219 22.019531 L 229.3125 22.03125 L 229.171875 22.039062 L 229.03125 22.042969 L 224.980469 22.042969 L 224.980469 12.410156 L 228.480469 12.410156 L 228.640625 12.414062 L 228.792969 12.417969 L 228.945312 12.425781 L 229.09375 12.433594 L 229.238281 12.445312 L 229.378906 12.460938 L 229.652344 12.5 L 229.910156 12.546875 L 230.035156 12.574219 L 230.152344 12.605469 L 230.269531 12.640625 L 230.382812 12.675781 L 230.492188 12.71875 L 230.597656 12.761719 L 230.792969 12.855469 L 230.886719 12.910156 L 230.976562 12.964844 L 231.0625 13.023438 L 231.144531 13.085938 L 231.292969 13.21875 L 231.425781 13.367188 L 231.484375 13.445312 L 231.539062 13.523438 L 231.59375 13.609375 L 231.640625 13.695312 L 231.683594 13.785156 L 231.722656 13.878906 L 231.757812 13.976562 L 231.789062 14.074219 L 231.835938 14.285156 L 231.851562 14.394531 L 231.863281 14.511719 L 231.871094 14.628906 L 231.871094 14.828125 L 231.867188 14.910156 L 231.863281 14.988281 L 231.851562 15.0625 L 231.84375 15.140625 L 231.832031 15.214844 L 231.816406 15.289062 L 231.777344 15.4375 L 231.753906 15.507812 L 231.734375 15.578125 L 231.707031 15.648438 L 231.679688 15.714844 L 231.617188 15.847656 L 231.582031 15.914062 L 231.503906 16.039062 L 231.460938 16.097656 L 231.367188 16.214844 L 231.320312 16.269531 L 231.214844 16.375 L 231.097656 16.476562 L 231.039062 16.523438 L 230.972656 16.570312 L 230.910156 16.613281 L 230.839844 16.65625 L 230.699219 16.734375 L 230.625 16.769531 L 230.546875 16.804688 L 230.46875 16.835938 L 230.386719 16.867188 L 230.304688 16.894531 L 230.21875 16.917969 L 230.039062 16.964844 L 230.15625 16.980469 L 230.265625 16.996094 L 230.375 17.015625 L 230.484375 17.039062 L 230.6875 17.09375 L 230.882812 17.15625 L 230.976562 17.191406 L 231.066406 17.230469 L 231.324219 17.359375 L 231.402344 17.40625 L 231.480469 17.457031 L 231.550781 17.507812 L 231.625 17.5625 L 231.691406 17.617188 L 231.753906 17.675781 L 231.816406 17.738281 L 231.933594 17.863281 L 231.984375 17.929688 L 232.035156 18 L 232.082031 18.070312 L 232.167969 18.21875 L 232.207031 18.292969 L 232.242188 18.375 L 232.273438 18.453125 L 232.304688 18.535156 L 232.332031 18.617188 L 232.355469 18.703125 L 232.394531 18.875 L 232.40625 18.964844 L 232.417969 19.050781 L 232.425781 19.144531 L 232.429688 19.234375 Z M 230.558594 14.90625 L 230.554688 14.753906 L 230.539062 14.613281 L 230.511719 14.480469 L 230.472656 14.355469 L 230.425781 14.238281 L 230.367188 14.132812 L 230.296875 14.035156 L 230.21875 13.945312 L 230.128906 13.863281 L 230.027344 13.792969 L 229.914062 13.730469 L 229.792969 13.671875 L 229.664062 13.621094 L 229.523438 13.578125 L 229.375 13.542969 L 229.214844 13.511719 L 229.046875 13.488281 L 228.867188 13.472656 L 228.679688 13.460938 L 228.480469 13.457031 L 226.285156 13.457031 L 226.285156 16.507812 L 228.480469 16.507812 L 228.59375 16.503906 L 228.703125 16.5 L 228.808594 16.496094 L 228.914062 16.488281 L 229.011719 16.480469 L 229.105469 16.46875 L 229.199219 16.453125 L 229.285156 16.4375 L 229.371094 16.417969 L 229.453125 16.398438 L 229.53125 16.371094 L 229.605469 16.347656 L 229.675781 16.320312 L 229.746094 16.289062 L 229.8125 16.257812 L 229.875 16.226562 L 229.933594 16.191406 L 229.988281 16.152344 L 230.042969 16.117188 L 230.09375 16.074219 L 230.1875 15.988281 L 230.230469 15.941406 L 230.269531 15.894531 L 230.339844 15.792969 L 230.402344 15.683594 L 230.425781 15.628906 L 230.472656 15.511719 L 230.488281 15.449219 L 230.507812 15.386719 L 230.519531 15.324219 L 230.542969 15.191406 L 230.550781 15.121094 L 230.558594 14.980469 Z M 231.113281 19.226562 L 231.113281 19.136719 L 231.097656 18.964844 L 231.085938 18.882812 L 231.070312 18.804688 L 231.050781 18.726562 L 231.03125 18.652344 L 230.976562 18.511719 L 230.941406 18.449219 L 230.90625 18.382812 L 230.871094 18.324219 L 230.832031 18.265625 L 230.785156 18.210938 L 230.742188 18.15625 L 230.640625 18.054688 L 230.582031 18.007812 L 230.464844 17.921875 L 230.332031 17.84375 L 230.191406 17.773438 L 230.117188 17.742188 L 229.960938 17.6875 L 229.878906 17.664062 L 229.792969 17.640625 L 229.703125 17.621094 L 229.617188 17.601562 L 229.527344 17.585938 L 229.433594 17.570312 L 229.238281 17.546875 L 229.140625 17.539062 L 229.039062 17.535156 L 228.933594 17.527344 L 228.828125 17.527344 L 228.71875 17.523438 L 226.285156 17.523438 L 226.285156 20.996094 L 229.019531 20.996094 L 229.113281 20.988281 L 229.210938 20.984375 L 229.390625 20.96875 L 229.570312 20.945312 L 229.65625 20.929688 L 229.738281 20.914062 L 229.824219 20.898438 L 229.902344 20.878906 L 230.058594 20.832031 L 230.132812 20.800781 L 230.203125 20.773438 L 230.273438 20.742188 L 230.339844 20.707031 L 230.464844 20.628906 L 230.523438 20.585938 L 230.582031 20.539062 L 230.636719 20.492188 L 230.738281 20.390625 L 230.785156 20.332031 L 230.828125 20.273438 L 230.90625 20.148438 L 230.941406 20.082031 L 230.976562 20.011719 L 231.003906 19.9375 L 231.03125 19.859375 L 231.050781 19.78125 L 231.070312 19.695312 L 231.085938 19.609375 L 231.097656 19.519531 L 231.105469 19.425781 L 231.113281 19.328125 Z M 231.113281 19.226562 "/>
<g clip-path="url(#clip5)" clip-rule="nonzero">
<path style="fill-rule:nonzero;fill:rgb(100%,100%,100%);fill-opacity:1;stroke-width:1.066978;stroke-linecap:round;stroke-linejoin:round;stroke:rgb(100%,100%,100%);stroke-opacity:1;stroke-miterlimit:10;" d="M 431.226562 210.519531 L 644.875 210.519531 L 644.875 5.476562 L 431.226562 5.476562 Z M 431.226562 210.519531 "/>
</g>
<g clip-path="url(#clip6)" clip-rule="nonzero">
<path style="fill-rule:nonzero;fill:rgb(100%,100%,100%);fill-opacity:1;stroke-width:1.066978;stroke-linecap:round;stroke-linejoin:round;stroke:rgb(100%,100%,100%);stroke-opacity:1;stroke-miterlimit:10;" d="M 449.558594 202.300781 L 639.394531 202.300781 L 639.394531 23.496094 L 449.558594 23.496094 Z M 449.558594 202.300781 "/>
</g>
<path style="fill:none;stroke-width:1.066978;stroke-linecap:round;stroke-linejoin:round;stroke:rgb(0%,0%,0%);stroke-opacity:1;stroke-miterlimit:10;" d="M 593.785156 194.175781 L 606.113281 194.175781 "/>
<path style="fill:none;stroke-width:1.066978;stroke-linecap:round;stroke-linejoin:round;stroke:rgb(0%,0%,0%);stroke-opacity:1;stroke-miterlimit:10;" d="M 593.785156 180.628906 L 606.113281 180.628906 "/>
<path style="fill:none;stroke-width:1.066978;stroke-linecap:round;stroke-linejoin:round;stroke:rgb(0%,0%,0%);stroke-opacity:1;stroke-miterlimit:10;" d="M 575.292969 167.082031 L 590.703125 167.082031 "/>
<path style="fill:none;stroke-width:1.066978;stroke-linecap:round;stroke-linejoin:round;stroke:rgb(0%,0%,0%);stroke-opacity:1;stroke-miterlimit:10;" d="M 550.640625 153.535156 L 569.128906 153.535156 "/>
<path style="fill:none;stroke-width:1.066978;stroke-linecap:round;stroke-linejoin:round;stroke:rgb(0%,0%,0%);stroke-opacity:1;stroke-miterlimit:10;" d="M 541.394531 139.992188 L 606.113281 139.992188 "/>
<path style="fill:none;stroke-width:1.066978;stroke-linecap:round;stroke-linejoin:round;stroke:rgb(0%,0%,0%);stroke-opacity:1;stroke-miterlimit:10;" d="M 593.785156 126.445312 L 606.113281 126.445312 "/>
<path style="fill:none;stroke-width:1.066978;stroke-linecap:round;stroke-linejoin:round;stroke:rgb(0%,0%,0%);stroke-opacity:1;stroke-miterlimit:10;" d="M 593.785156 112.898438 L 630.765625 112.898438 "/>
<path style="fill:none;stroke-width:1.066978;stroke-linecap:round;stroke-linejoin:round;stroke:rgb(0%,0%,0%);stroke-opacity:1;stroke-miterlimit:10;" d="M 550.640625 99.351562 L 575.292969 99.351562 "/>
<path style="fill:none;stroke-width:1.066978;stroke-linecap:round;stroke-linejoin:round;stroke:rgb(0%,0%,0%);stroke-opacity:1;stroke-miterlimit:10;" d="M 615.355469 85.808594 L 630.765625 85.808594 "/>
<path style="fill:none;stroke-width:1.066978;stroke-linecap:round;stroke-linejoin:round;stroke:rgb(0%,0%,0%);stroke-opacity:1;stroke-miterlimit:10;" d="M 615.355469 72.261719 L 621.519531 72.261719 "/>
<path style="fill:none;stroke-width:1.066978;stroke-linecap:round;stroke-linejoin:round;stroke:rgb(0%,0%,0%);stroke-opacity:1;stroke-miterlimit:10;" d="M 529.066406 58.714844 L 562.964844 58.714844 "/>
<path style="fill:none;stroke-width:1.066978;stroke-linecap:round;stroke-linejoin:round;stroke:rgb(0%,0%,0%);stroke-opacity:1;stroke-miterlimit:10;" d="M 529.066406 45.167969 L 562.964844 45.167969 "/>
<path style="fill:none;stroke-width:1.066978;stroke-linecap:round;stroke-linejoin:round;stroke:rgb(0%,0%,0%);stroke-opacity:1;stroke-miterlimit:10;" d="M 458.1875 31.625 L 630.765625 31.625 "/>
<path style="fill:none;stroke-width:1.066978;stroke-linecap:round;stroke-linejoin:round;stroke:rgb(0%,0%,0%);stroke-opacity:1;stroke-miterlimit:10;" d="M 458.1875 64.960938 L 458.1875 64.960938 "/>
<path style="fill:none;stroke-width:1.066978;stroke-linecap:round;stroke-linejoin:round;stroke:rgb(0%,0%,0%);stroke-opacity:1;stroke-miterlimit:10;" d="M 458.1875 98.292969 L 470.511719 98.292969 "/>
<path style="fill:none;stroke-width:1.066978;stroke-linecap:round;stroke-linejoin:round;stroke:rgb(0%,0%,0%);stroke-opacity:1;stroke-miterlimit:10;" d="M 470.511719 131.101562 L 510.578125 131.101562 "/>
<path style="fill:none;stroke-width:1.066978;stroke-linecap:round;stroke-linejoin:round;stroke:rgb(0%,0%,0%);stroke-opacity:1;stroke-miterlimit:10;" d="M 510.578125 152.691406 L 541.394531 152.691406 "/>
<path style="fill:none;stroke-width:1.066978;stroke-linecap:round;stroke-linejoin:round;stroke:rgb(0%,0%,0%);stroke-opacity:1;stroke-miterlimit:10;" d="M 541.394531 165.390625 L 550.640625 165.390625 "/>
<path style="fill:none;stroke-width:1.066978;stroke-linecap:round;stroke-linejoin:round;stroke:rgb(0%,0%,0%);stroke-opacity:1;stroke-miterlimit:10;" d="M 550.640625 177.242188 L 575.292969 177.242188 "/>
<path style="fill:none;stroke-width:1.066978;stroke-linecap:round;stroke-linejoin:round;stroke:rgb(0%,0%,0%);stroke-opacity:1;stroke-miterlimit:10;" d="M 575.292969 187.402344 L 593.785156 187.402344 "/>
<path style="fill:none;stroke-width:1.066978;stroke-linecap:round;stroke-linejoin:round;stroke:rgb(0%,0%,0%);stroke-opacity:1;stroke-miterlimit:10;" d="M 510.578125 109.511719 L 550.640625 109.511719 "/>
<path style="fill:none;stroke-width:1.066978;stroke-linecap:round;stroke-linejoin:round;stroke:rgb(0%,0%,0%);stroke-opacity:1;stroke-miterlimit:10;" d="M 550.640625 119.671875 L 593.785156 119.671875 "/>
<path style="fill:none;stroke-width:1.066978;stroke-linecap:round;stroke-linejoin:round;stroke:rgb(0%,0%,0%);stroke-opacity:1;stroke-miterlimit:10;" d="M 470.511719 65.488281 L 522.902344 65.488281 "/>
<path style="fill:none;stroke-width:1.066978;stroke-linecap:round;stroke-linejoin:round;stroke:rgb(0%,0%,0%);stroke-opacity:1;stroke-miterlimit:10;" d="M 522.902344 79.035156 L 615.355469 79.035156 "/>
<path style="fill:none;stroke-width:1.066978;stroke-linecap:round;stroke-linejoin:round;stroke:rgb(0%,0%,0%);stroke-opacity:1;stroke-miterlimit:10;" d="M 522.902344 51.941406 L 529.066406 51.941406 "/>
<path style="fill:none;stroke-width:1.066978;stroke-linecap:round;stroke-linejoin:round;stroke:rgb(0%,0%,0%);stroke-opacity:1;stroke-miterlimit:10;" d="M 593.785156 187.402344 L 593.785156 194.175781 "/>
<path style="fill:none;stroke-width:1.066978;stroke-linecap:round;stroke-linejoin:round;stroke:rgb(0%,0%,0%);stroke-opacity:1;stroke-miterlimit:10;" d="M 593.785156 187.402344 L 593.785156 180.628906 "/>
<path style="fill:none;stroke-width:1.066978;stroke-linecap:round;stroke-linejoin:round;stroke:rgb(0%,0%,0%);stroke-opacity:1;stroke-miterlimit:10;" d="M 575.292969 177.242188 L 575.292969 167.082031 "/>
<path style="fill:none;stroke-width:1.066978;stroke-linecap:round;stroke-linejoin:round;stroke:rgb(0%,0%,0%);stroke-opacity:1;stroke-miterlimit:10;" d="M 550.640625 165.390625 L 550.640625 153.535156 "/>
<path style="fill:none;stroke-width:1.066978;stroke-linecap:round;stroke-linejoin:round;stroke:rgb(0%,0%,0%);stroke-opacity:1;stroke-miterlimit:10;" d="M 541.394531 152.691406 L 541.394531 139.992188 "/>
<path style="fill:none;stroke-width:1.066978;stroke-linecap:round;stroke-linejoin:round;stroke:rgb(0%,0%,0%);stroke-opacity:1;stroke-miterlimit:10;" d="M 593.785156 119.671875 L 593.785156 126.445312 "/>
<path style="fill:none;stroke-width:1.066978;stroke-linecap:round;stroke-linejoin:round;stroke:rgb(0%,0%,0%);stroke-opacity:1;stroke-miterlimit:10;" d="M 593.785156 119.671875 L 593.785156 112.898438 "/>
<path style="fill:none;stroke-width:1.066978;stroke-linecap:round;stroke-linejoin:round;stroke:rgb(0%,0%,0%);stroke-opacity:1;stroke-miterlimit:10;" d="M 550.640625 109.511719 L 550.640625 99.351562 "/>
<path style="fill:none;stroke-width:1.066978;stroke-linecap:round;stroke-linejoin:round;stroke:rgb(0%,0%,0%);stroke-opacity:1;stroke-miterlimit:10;" d="M 615.355469 79.035156 L 615.355469 85.808594 "/>
<path style="fill:none;stroke-width:1.066978;stroke-linecap:round;stroke-linejoin:round;stroke:rgb(0%,0%,0%);stroke-opacity:1;stroke-miterlimit:10;" d="M 615.355469 79.035156 L 615.355469 72.261719 "/>
<path style="fill:none;stroke-width:1.066978;stroke-linecap:round;stroke-linejoin:round;stroke:rgb(0%,0%,0%);stroke-opacity:1;stroke-miterlimit:10;" d="M 529.066406 51.941406 L 529.066406 58.714844 "/>
<path style="fill:none;stroke-width:1.066978;stroke-linecap:round;stroke-linejoin:round;stroke:rgb(0%,0%,0%);stroke-opacity:1;stroke-miterlimit:10;" d="M 529.066406 51.941406 L 529.066406 45.167969 "/>
<path style="fill:none;stroke-width:1.066978;stroke-linecap:round;stroke-linejoin:round;stroke:rgb(0%,0%,0%);stroke-opacity:1;stroke-miterlimit:10;" d="M 458.1875 64.960938 L 458.1875 31.625 "/>
<path style="fill:none;stroke-width:1.066978;stroke-linecap:round;stroke-linejoin:round;stroke:rgb(0%,0%,0%);stroke-opacity:1;stroke-miterlimit:10;" d="M 458.1875 64.960938 L 458.1875 64.960938 "/>
<path style="fill:none;stroke-width:1.066978;stroke-linecap:round;stroke-linejoin:round;stroke:rgb(0%,0%,0%);stroke-opacity:1;stroke-miterlimit:10;" d="M 458.1875 64.960938 L 458.1875 98.292969 "/>
<path style="fill:none;stroke-width:1.066978;stroke-linecap:round;stroke-linejoin:round;stroke:rgb(0%,0%,0%);stroke-opacity:1;stroke-miterlimit:10;" d="M 470.511719 98.292969 L 470.511719 131.101562 "/>
<path style="fill:none;stroke-width:1.066978;stroke-linecap:round;stroke-linejoin:round;stroke:rgb(0%,0%,0%);stroke-opacity:1;stroke-miterlimit:10;" d="M 510.578125 131.101562 L 510.578125 152.691406 "/>
<path style="fill:none;stroke-width:1.066978;stroke-linecap:round;stroke-linejoin:round;stroke:rgb(0%,0%,0%);stroke-opacity:1;stroke-miterlimit:10;" d="M 541.394531 152.691406 L 541.394531 165.390625 "/>
<path style="fill:none;stroke-width:1.066978;stroke-linecap:round;stroke-linejoin:round;stroke:rgb(0%,0%,0%);stroke-opacity:1;stroke-miterlimit:10;" d="M 550.640625 165.390625 L 550.640625 177.242188 "/>
<path style="fill:none;stroke-width:1.066978;stroke-linecap:round;stroke-linejoin:round;stroke:rgb(0%,0%,0%);stroke-opacity:1;stroke-miterlimit:10;" d="M 575.292969 177.242188 L 575.292969 187.402344 "/>
<path style="fill:none;stroke-width:1.066978;stroke-linecap:round;stroke-linejoin:round;stroke:rgb(0%,0%,0%);stroke-opacity:1;stroke-miterlimit:10;" d="M 510.578125 131.101562 L 510.578125 109.511719 "/>
<path style="fill:none;stroke-width:1.066978;stroke-linecap:round;stroke-linejoin:round;stroke:rgb(0%,0%,0%);stroke-opacity:1;stroke-miterlimit:10;" d="M 550.640625 109.511719 L 550.640625 119.671875 "/>
<path style="fill:none;stroke-width:1.066978;stroke-linecap:round;stroke-linejoin:round;stroke:rgb(0%,0%,0%);stroke-opacity:1;stroke-miterlimit:10;" d="M 470.511719 98.292969 L 470.511719 65.488281 "/>
<path style="fill:none;stroke-width:1.066978;stroke-linecap:round;stroke-linejoin:round;stroke:rgb(0%,0%,0%);stroke-opacity:1;stroke-miterlimit:10;" d="M 522.902344 65.488281 L 522.902344 79.035156 "/>
<path style="fill:none;stroke-width:1.066978;stroke-linecap:round;stroke-linejoin:round;stroke:rgb(0%,0%,0%);stroke-opacity:1;stroke-miterlimit:10;" d="M 522.902344 65.488281 L 522.902344 51.941406 "/>
<path style=" stroke:none;fill-rule:nonzero;fill:rgb(0%,0%,0%);fill-opacity:1;" d="M 442.121094 13.335938 L 441.957031 13.335938 L 441.800781 13.34375 L 441.644531 13.359375 L 441.496094 13.378906 L 441.347656 13.402344 L 441.203125 13.433594 L 441.0625 13.46875 L 440.925781 13.507812 L 440.792969 13.554688 L 440.664062 13.609375 L 440.542969 13.664062 L 440.421875 13.726562 L 440.304688 13.792969 L 440.195312 13.863281 L 440.085938 13.9375 L 439.980469 14.019531 L 439.882812 14.105469 L 439.785156 14.195312 L 439.695312 14.289062 L 439.605469 14.386719 L 439.523438 14.492188 L 439.445312 14.597656 L 439.371094 14.710938 L 439.300781 14.824219 L 439.234375 14.945312 L 439.171875 15.066406 L 439.113281 15.195312 L 439.058594 15.328125 L 439.007812 15.464844 L 438.960938 15.605469 L 438.921875 15.746094 L 438.882812 15.894531 L 438.851562 16.042969 L 438.796875 16.355469 L 438.777344 16.511719 L 438.765625 16.675781 L 438.753906 16.84375 L 438.746094 17.011719 L 438.742188 17.183594 L 438.746094 17.355469 L 438.753906 17.523438 L 438.765625 17.691406 L 438.78125 17.855469 L 438.800781 18.015625 L 438.828125 18.171875 L 438.859375 18.328125 L 438.894531 18.480469 L 438.933594 18.628906 L 438.976562 18.777344 L 439.027344 18.917969 L 439.082031 19.054688 L 439.136719 19.1875 L 439.199219 19.316406 L 439.265625 19.445312 L 439.335938 19.566406 L 439.410156 19.683594 L 439.484375 19.796875 L 439.566406 19.90625 L 439.652344 20.011719 L 439.742188 20.113281 L 439.839844 20.210938 L 439.9375 20.304688 L 440.039062 20.390625 L 440.144531 20.472656 L 440.253906 20.554688 L 440.367188 20.625 L 440.488281 20.695312 L 440.609375 20.761719 L 440.734375 20.820312 L 440.863281 20.875 L 440.996094 20.921875 L 441.132812 20.964844 L 441.273438 21.003906 L 441.414062 21.035156 L 441.5625 21.0625 L 441.710938 21.082031 L 442.015625 21.105469 L 442.285156 21.105469 L 442.394531 21.101562 L 442.503906 21.09375 L 442.609375 21.082031 L 442.710938 21.070312 L 442.8125 21.054688 L 443.007812 21.015625 L 443.101562 20.992188 L 443.195312 20.964844 L 443.285156 20.933594 L 443.464844 20.863281 L 443.636719 20.785156 L 443.71875 20.742188 L 443.875 20.648438 L 443.953125 20.597656 L 444.027344 20.546875 L 444.175781 20.4375 L 444.246094 20.378906 L 444.316406 20.316406 L 444.449219 20.191406 L 444.515625 20.125 L 444.578125 20.058594 L 444.636719 19.988281 L 444.699219 19.917969 L 444.757812 19.84375 L 444.976562 19.53125 L 445.027344 19.449219 L 445.078125 19.363281 L 445.21875 19.105469 L 446.285156 19.636719 L 446.230469 19.746094 L 446.175781 19.851562 L 446.117188 19.953125 L 446.054688 20.058594 L 445.992188 20.160156 L 445.929688 20.257812 L 445.789062 20.453125 L 445.71875 20.546875 L 445.5625 20.734375 L 445.484375 20.824219 L 445.3125 20.996094 L 445.222656 21.074219 L 445.132812 21.15625 L 445.039062 21.234375 L 444.941406 21.308594 L 444.738281 21.449219 L 444.636719 21.515625 L 444.417969 21.640625 L 444.304688 21.699219 L 444.191406 21.753906 L 444.074219 21.808594 L 443.949219 21.855469 L 443.828125 21.902344 L 443.699219 21.949219 L 443.570312 21.988281 L 443.304688 22.058594 L 443.167969 22.085938 L 443.027344 22.109375 L 442.882812 22.132812 L 442.585938 22.164062 L 442.273438 22.179688 L 442.113281 22.179688 L 441.882812 22.175781 L 441.65625 22.164062 L 441.4375 22.148438 L 441.226562 22.121094 L 441.015625 22.085938 L 440.816406 22.046875 L 440.617188 22 L 440.425781 21.945312 L 440.242188 21.882812 L 440.0625 21.8125 L 439.890625 21.734375 L 439.726562 21.648438 L 439.5625 21.558594 L 439.410156 21.464844 L 439.257812 21.363281 L 439.113281 21.257812 L 438.976562 21.144531 L 438.84375 21.027344 L 438.714844 20.902344 L 438.59375 20.773438 L 438.480469 20.636719 L 438.371094 20.492188 L 438.265625 20.347656 L 438.171875 20.195312 L 438.078125 20.039062 L 437.992188 19.878906 L 437.914062 19.714844 L 437.839844 19.542969 L 437.773438 19.367188 L 437.710938 19.1875 L 437.65625 19 L 437.605469 18.8125 L 437.5625 18.621094 L 437.523438 18.425781 L 437.492188 18.226562 L 437.464844 18.023438 L 437.445312 17.820312 L 437.429688 17.609375 L 437.421875 17.398438 L 437.417969 17.183594 L 437.421875 16.960938 L 437.429688 16.742188 L 437.445312 16.527344 L 437.46875 16.316406 L 437.496094 16.109375 L 437.527344 15.910156 L 437.570312 15.710938 L 437.613281 15.519531 L 437.667969 15.328125 L 437.726562 15.144531 L 437.792969 14.96875 L 437.863281 14.792969 L 437.9375 14.625 L 438.023438 14.460938 L 438.109375 14.304688 L 438.203125 14.152344 L 438.304688 14.007812 L 438.40625 13.867188 L 438.519531 13.730469 L 438.632812 13.601562 L 438.757812 13.476562 L 438.886719 13.355469 L 439.019531 13.242188 L 439.160156 13.136719 L 439.304688 13.035156 L 439.453125 12.9375 L 439.609375 12.847656 L 439.773438 12.765625 L 439.9375 12.6875 L 440.109375 12.617188 L 440.289062 12.550781 L 440.472656 12.492188 L 440.660156 12.4375 L 440.851562 12.394531 L 441.046875 12.355469 L 441.25 12.324219 L 441.457031 12.300781 L 441.667969 12.28125 L 441.886719 12.269531 L 442.105469 12.269531 L 442.410156 12.273438 L 442.703125 12.292969 L 442.984375 12.320312 L 443.257812 12.363281 L 443.519531 12.417969 L 443.769531 12.484375 L 444.011719 12.5625 L 444.246094 12.652344 L 444.464844 12.753906 L 444.675781 12.871094 L 444.878906 12.996094 L 445.070312 13.132812 L 445.246094 13.28125 L 445.414062 13.445312 L 445.574219 13.617188 L 445.71875 13.800781 L 445.855469 13.996094 L 445.980469 14.203125 L 446.09375 14.421875 L 446.195312 14.652344 L 444.957031 15.0625 L 444.929688 14.996094 L 444.867188 14.863281 L 444.796875 14.730469 L 444.757812 14.667969 L 444.71875 14.601562 L 444.679688 14.539062 L 444.632812 14.476562 L 444.589844 14.414062 L 444.542969 14.351562 L 444.492188 14.292969 L 444.328125 14.117188 L 444.269531 14.0625 L 444.207031 14.011719 L 444.140625 13.960938 L 444.078125 13.910156 L 444.007812 13.859375 L 443.9375 13.8125 L 443.789062 13.726562 L 443.710938 13.683594 L 443.628906 13.644531 L 443.546875 13.609375 L 443.460938 13.574219 L 443.371094 13.539062 L 443.28125 13.507812 L 443.1875 13.476562 L 443.09375 13.449219 L 442.996094 13.425781 L 442.792969 13.386719 L 442.582031 13.355469 L 442.355469 13.339844 L 442.238281 13.335938 Z M 442.121094 13.335938 "/>
<g clip-path="url(#clip7)" clip-rule="nonzero">
<path style="fill-rule:nonzero;fill:rgb(100%,100%,100%);fill-opacity:1;stroke-width:1.066978;stroke-linecap:round;stroke-linejoin:round;stroke:rgb(100%,100%,100%);stroke-opacity:1;stroke-miterlimit:10;" d="M 644.875 210.519531 L 858.523438 210.519531 L 858.523438 5.476562 L 644.875 5.476562 Z M 644.875 210.519531 "/>
</g>
<g clip-path="url(#clip8)" clip-rule="nonzero">
<path style="fill-rule:nonzero;fill:rgb(100%,100%,100%);fill-opacity:1;stroke-width:1.066978;stroke-linecap:round;stroke-linejoin:round;stroke:rgb(100%,100%,100%);stroke-opacity:1;stroke-miterlimit:10;" d="M 663.203125 202.300781 L 853.039062 202.300781 L 853.039062 23.496094 L 663.203125 23.496094 Z M 663.203125 202.300781 "/>
</g>
<path style="fill:none;stroke-width:1.066978;stroke-linecap:round;stroke-linejoin:round;stroke:rgb(0%,0%,0%);stroke-opacity:1;stroke-miterlimit:10;" d="M 819.757812 45.167969 L 844.414062 45.167969 "/>
<path style="fill:none;stroke-width:1.066978;stroke-linecap:round;stroke-linejoin:round;stroke:rgb(0%,0%,0%);stroke-opacity:1;stroke-miterlimit:10;" d="M 819.757812 31.625 L 844.414062 31.625 "/>
<path style="fill:none;stroke-width:1.066978;stroke-linecap:round;stroke-linejoin:round;stroke:rgb(0%,0%,0%);stroke-opacity:1;stroke-miterlimit:10;" d="M 795.105469 58.714844 L 844.414062 58.714844 "/>
<path style="fill:none;stroke-width:1.066978;stroke-linecap:round;stroke-linejoin:round;stroke:rgb(0%,0%,0%);stroke-opacity:1;stroke-miterlimit:10;" d="M 770.449219 72.261719 L 844.414062 72.261719 "/>
<path style="fill:none;stroke-width:1.066978;stroke-linecap:round;stroke-linejoin:round;stroke:rgb(0%,0%,0%);stroke-opacity:1;stroke-miterlimit:10;" d="M 745.796875 85.808594 L 844.414062 85.808594 "/>
<path style="fill:none;stroke-width:1.066978;stroke-linecap:round;stroke-linejoin:round;stroke:rgb(0%,0%,0%);stroke-opacity:1;stroke-miterlimit:10;" d="M 819.757812 112.898438 L 844.414062 112.898438 "/>
<path style="fill:none;stroke-width:1.066978;stroke-linecap:round;stroke-linejoin:round;stroke:rgb(0%,0%,0%);stroke-opacity:1;stroke-miterlimit:10;" d="M 819.757812 99.351562 L 844.414062 99.351562 "/>
<path style="fill:none;stroke-width:1.066978;stroke-linecap:round;stroke-linejoin:round;stroke:rgb(0%,0%,0%);stroke-opacity:1;stroke-miterlimit:10;" d="M 795.105469 126.445312 L 844.414062 126.445312 "/>
<path style="fill:none;stroke-width:1.066978;stroke-linecap:round;stroke-linejoin:round;stroke:rgb(0%,0%,0%);stroke-opacity:1;stroke-miterlimit:10;" d="M 819.757812 180.628906 L 844.414062 180.628906 "/>
<path style="fill:none;stroke-width:1.066978;stroke-linecap:round;stroke-linejoin:round;stroke:rgb(0%,0%,0%);stroke-opacity:1;stroke-miterlimit:10;" d="M 819.757812 167.082031 L 844.414062 167.082031 "/>
<path style="fill:none;stroke-width:1.066978;stroke-linecap:round;stroke-linejoin:round;stroke:rgb(0%,0%,0%);stroke-opacity:1;stroke-miterlimit:10;" d="M 819.757812 153.535156 L 844.414062 153.535156 "/>
<path style="fill:none;stroke-width:1.066978;stroke-linecap:round;stroke-linejoin:round;stroke:rgb(0%,0%,0%);stroke-opacity:1;stroke-miterlimit:10;" d="M 819.757812 139.992188 L 844.414062 139.992188 "/>
<path style="fill:none;stroke-width:1.066978;stroke-linecap:round;stroke-linejoin:round;stroke:rgb(0%,0%,0%);stroke-opacity:1;stroke-miterlimit:10;" d="M 671.832031 194.175781 L 844.414062 194.175781 "/>
<path style="fill:none;stroke-width:1.066978;stroke-linecap:round;stroke-linejoin:round;stroke:rgb(0%,0%,0%);stroke-opacity:1;stroke-miterlimit:10;" d="M 671.832031 160.839844 L 671.832031 160.839844 "/>
<path style="fill:none;stroke-width:1.066978;stroke-linecap:round;stroke-linejoin:round;stroke:rgb(0%,0%,0%);stroke-opacity:1;stroke-miterlimit:10;" d="M 671.832031 127.503906 L 696.488281 127.503906 "/>
<path style="fill:none;stroke-width:1.066978;stroke-linecap:round;stroke-linejoin:round;stroke:rgb(0%,0%,0%);stroke-opacity:1;stroke-miterlimit:10;" d="M 696.488281 94.695312 L 721.140625 94.695312 "/>
<path style="fill:none;stroke-width:1.066978;stroke-linecap:round;stroke-linejoin:round;stroke:rgb(0%,0%,0%);stroke-opacity:1;stroke-miterlimit:10;" d="M 721.140625 73.109375 L 745.796875 73.109375 "/>
<path style="fill:none;stroke-width:1.066978;stroke-linecap:round;stroke-linejoin:round;stroke:rgb(0%,0%,0%);stroke-opacity:1;stroke-miterlimit:10;" d="M 745.796875 60.410156 L 770.449219 60.410156 "/>
<path style="fill:none;stroke-width:1.066978;stroke-linecap:round;stroke-linejoin:round;stroke:rgb(0%,0%,0%);stroke-opacity:1;stroke-miterlimit:10;" d="M 770.449219 48.554688 L 795.105469 48.554688 "/>
<path style="fill:none;stroke-width:1.066978;stroke-linecap:round;stroke-linejoin:round;stroke:rgb(0%,0%,0%);stroke-opacity:1;stroke-miterlimit:10;" d="M 795.105469 38.394531 L 819.757812 38.394531 "/>
<path style="fill:none;stroke-width:1.066978;stroke-linecap:round;stroke-linejoin:round;stroke:rgb(0%,0%,0%);stroke-opacity:1;stroke-miterlimit:10;" d="M 721.140625 116.285156 L 795.105469 116.285156 "/>
<path style="fill:none;stroke-width:1.066978;stroke-linecap:round;stroke-linejoin:round;stroke:rgb(0%,0%,0%);stroke-opacity:1;stroke-miterlimit:10;" d="M 795.105469 106.125 L 819.757812 106.125 "/>
<path style="fill:none;stroke-width:1.066978;stroke-linecap:round;stroke-linejoin:round;stroke:rgb(0%,0%,0%);stroke-opacity:1;stroke-miterlimit:10;" d="M 696.488281 160.308594 L 795.105469 160.308594 "/>
<path style="fill:none;stroke-width:1.066978;stroke-linecap:round;stroke-linejoin:round;stroke:rgb(0%,0%,0%);stroke-opacity:1;stroke-miterlimit:10;" d="M 795.105469 173.855469 L 819.757812 173.855469 "/>
<path style="fill:none;stroke-width:1.066978;stroke-linecap:round;stroke-linejoin:round;stroke:rgb(0%,0%,0%);stroke-opacity:1;stroke-miterlimit:10;" d="M 795.105469 146.761719 L 819.757812 146.761719 "/>
<path style="fill:none;stroke-width:1.066978;stroke-linecap:round;stroke-linejoin:round;stroke:rgb(0%,0%,0%);stroke-opacity:1;stroke-miterlimit:10;" d="M 819.757812 38.394531 L 819.757812 45.167969 "/>
<path style="fill:none;stroke-width:1.066978;stroke-linecap:round;stroke-linejoin:round;stroke:rgb(0%,0%,0%);stroke-opacity:1;stroke-miterlimit:10;" d="M 819.757812 38.394531 L 819.757812 31.625 "/>
<path style="fill:none;stroke-width:1.066978;stroke-linecap:round;stroke-linejoin:round;stroke:rgb(0%,0%,0%);stroke-opacity:1;stroke-miterlimit:10;" d="M 795.105469 48.554688 L 795.105469 58.714844 "/>
<path style="fill:none;stroke-width:1.066978;stroke-linecap:round;stroke-linejoin:round;stroke:rgb(0%,0%,0%);stroke-opacity:1;stroke-miterlimit:10;" d="M 770.449219 60.410156 L 770.449219 72.261719 "/>
<path style="fill:none;stroke-width:1.066978;stroke-linecap:round;stroke-linejoin:round;stroke:rgb(0%,0%,0%);stroke-opacity:1;stroke-miterlimit:10;" d="M 745.796875 73.109375 L 745.796875 85.808594 "/>
<path style="fill:none;stroke-width:1.066978;stroke-linecap:round;stroke-linejoin:round;stroke:rgb(0%,0%,0%);stroke-opacity:1;stroke-miterlimit:10;" d="M 819.757812 106.125 L 819.757812 112.898438 "/>
<path style="fill:none;stroke-width:1.066978;stroke-linecap:round;stroke-linejoin:round;stroke:rgb(0%,0%,0%);stroke-opacity:1;stroke-miterlimit:10;" d="M 819.757812 106.125 L 819.757812 99.351562 "/>
<path style="fill:none;stroke-width:1.066978;stroke-linecap:round;stroke-linejoin:round;stroke:rgb(0%,0%,0%);stroke-opacity:1;stroke-miterlimit:10;" d="M 795.105469 116.285156 L 795.105469 126.445312 "/>
<path style="fill:none;stroke-width:1.066978;stroke-linecap:round;stroke-linejoin:round;stroke:rgb(0%,0%,0%);stroke-opacity:1;stroke-miterlimit:10;" d="M 819.757812 173.855469 L 819.757812 180.628906 "/>
<path style="fill:none;stroke-width:1.066978;stroke-linecap:round;stroke-linejoin:round;stroke:rgb(0%,0%,0%);stroke-opacity:1;stroke-miterlimit:10;" d="M 819.757812 173.855469 L 819.757812 167.082031 "/>
<path style="fill:none;stroke-width:1.066978;stroke-linecap:round;stroke-linejoin:round;stroke:rgb(0%,0%,0%);stroke-opacity:1;stroke-miterlimit:10;" d="M 819.757812 146.761719 L 819.757812 153.535156 "/>
<path style="fill:none;stroke-width:1.066978;stroke-linecap:round;stroke-linejoin:round;stroke:rgb(0%,0%,0%);stroke-opacity:1;stroke-miterlimit:10;" d="M 819.757812 146.761719 L 819.757812 139.992188 "/>
<path style="fill:none;stroke-width:1.066978;stroke-linecap:round;stroke-linejoin:round;stroke:rgb(0%,0%,0%);stroke-opacity:1;stroke-miterlimit:10;" d="M 671.832031 160.839844 L 671.832031 194.175781 "/>
<path style="fill:none;stroke-width:1.066978;stroke-linecap:round;stroke-linejoin:round;stroke:rgb(0%,0%,0%);stroke-opacity:1;stroke-miterlimit:10;" d="M 671.832031 160.839844 L 671.832031 160.839844 "/>
<path style="fill:none;stroke-width:1.066978;stroke-linecap:round;stroke-linejoin:round;stroke:rgb(0%,0%,0%);stroke-opacity:1;stroke-miterlimit:10;" d="M 671.832031 160.839844 L 671.832031 127.503906 "/>
<path style="fill:none;stroke-width:1.066978;stroke-linecap:round;stroke-linejoin:round;stroke:rgb(0%,0%,0%);stroke-opacity:1;stroke-miterlimit:10;" d="M 696.488281 127.503906 L 696.488281 94.695312 "/>
<path style="fill:none;stroke-width:1.066978;stroke-linecap:round;stroke-linejoin:round;stroke:rgb(0%,0%,0%);stroke-opacity:1;stroke-miterlimit:10;" d="M 721.140625 94.695312 L 721.140625 73.109375 "/>
<path style="fill:none;stroke-width:1.066978;stroke-linecap:round;stroke-linejoin:round;stroke:rgb(0%,0%,0%);stroke-opacity:1;stroke-miterlimit:10;" d="M 745.796875 73.109375 L 745.796875 60.410156 "/>
<path style="fill:none;stroke-width:1.066978;stroke-linecap:round;stroke-linejoin:round;stroke:rgb(0%,0%,0%);stroke-opacity:1;stroke-miterlimit:10;" d="M 770.449219 60.410156 L 770.449219 48.554688 "/>
<path style="fill:none;stroke-width:1.066978;stroke-linecap:round;stroke-linejoin:round;stroke:rgb(0%,0%,0%);stroke-opacity:1;stroke-miterlimit:10;" d="M 795.105469 48.554688 L 795.105469 38.394531 "/>
<path style="fill:none;stroke-width:1.066978;stroke-linecap:round;stroke-linejoin:round;stroke:rgb(0%,0%,0%);stroke-opacity:1;stroke-miterlimit:10;" d="M 721.140625 94.695312 L 721.140625 116.285156 "/>
<path style="fill:none;stroke-width:1.066978;stroke-linecap:round;stroke-linejoin:round;stroke:rgb(0%,0%,0%);stroke-opacity:1;stroke-miterlimit:10;" d="M 795.105469 116.285156 L 795.105469 106.125 "/>
<path style="fill:none;stroke-width:1.066978;stroke-linecap:round;stroke-linejoin:round;stroke:rgb(0%,0%,0%);stroke-opacity:1;stroke-miterlimit:10;" d="M 696.488281 127.503906 L 696.488281 160.308594 "/>
<path style="fill:none;stroke-width:1.066978;stroke-linecap:round;stroke-linejoin:round;stroke:rgb(0%,0%,0%);stroke-opacity:1;stroke-miterlimit:10;" d="M 795.105469 160.308594 L 795.105469 173.855469 "/>
<path style="fill:none;stroke-width:1.066978;stroke-linecap:round;stroke-linejoin:round;stroke:rgb(0%,0%,0%);stroke-opacity:1;stroke-miterlimit:10;" d="M 795.105469 160.308594 L 795.105469 146.761719 "/>
<path style=" stroke:none;fill-rule:nonzero;fill:rgb(0%,0%,0%);fill-opacity:1;" d="M 659.792969 17.128906 L 659.789062 17.367188 L 659.78125 17.597656 L 659.761719 17.824219 L 659.734375 18.046875 L 659.703125 18.261719 L 659.664062 18.472656 L 659.617188 18.675781 L 659.5625 18.875 L 659.5 19.066406 L 659.429688 19.253906 L 659.355469 19.433594 L 659.277344 19.609375 L 659.191406 19.777344 L 659.097656 19.941406 L 659.003906 20.097656 L 658.902344 20.246094 L 658.792969 20.394531 L 658.679688 20.53125 L 658.5625 20.664062 L 658.441406 20.792969 L 658.3125 20.914062 L 658.179688 21.027344 L 658.042969 21.136719 L 657.898438 21.238281 L 657.753906 21.335938 L 657.601562 21.425781 L 657.445312 21.507812 L 657.285156 21.589844 L 657.121094 21.660156 L 656.949219 21.730469 L 656.777344 21.789062 L 656.601562 21.84375 L 656.425781 21.890625 L 656.246094 21.929688 L 656.0625 21.964844 L 655.875 21.992188 L 655.6875 22.015625 L 655.496094 22.03125 L 655.300781 22.039062 L 655.105469 22.042969 L 651.5 22.042969 L 651.5 12.410156 L 654.6875 12.410156 L 654.910156 12.414062 L 655.125 12.421875 L 655.339844 12.4375 L 655.550781 12.457031 L 655.757812 12.480469 L 655.960938 12.511719 L 656.160156 12.550781 L 656.355469 12.589844 L 656.550781 12.636719 L 656.738281 12.691406 L 656.925781 12.75 L 657.105469 12.8125 L 657.28125 12.882812 L 657.449219 12.960938 L 657.613281 13.042969 L 657.773438 13.128906 L 657.929688 13.226562 L 658.078125 13.328125 L 658.21875 13.433594 L 658.359375 13.546875 L 658.492188 13.664062 L 658.617188 13.789062 L 658.738281 13.917969 L 658.851562 14.054688 L 658.960938 14.199219 L 659.0625 14.347656 L 659.160156 14.503906 L 659.25 14.667969 L 659.332031 14.835938 L 659.410156 15.007812 L 659.484375 15.191406 L 659.550781 15.378906 L 659.605469 15.574219 L 659.65625 15.773438 L 659.699219 15.984375 L 659.734375 16.199219 L 659.757812 16.421875 L 659.777344 16.648438 L 659.789062 16.886719 Z M 658.480469 17.128906 L 658.480469 16.9375 L 658.46875 16.75 L 658.457031 16.566406 L 658.4375 16.390625 L 658.410156 16.222656 L 658.378906 16.058594 L 658.34375 15.902344 L 658.300781 15.746094 L 658.253906 15.601562 L 658.199219 15.460938 L 658.144531 15.324219 L 658.078125 15.191406 L 658.011719 15.066406 L 657.941406 14.941406 L 657.785156 14.714844 L 657.699219 14.609375 L 657.609375 14.507812 L 657.515625 14.410156 L 657.3125 14.230469 L 657.09375 14.074219 L 656.980469 14 L 656.859375 13.933594 L 656.738281 13.871094 L 656.609375 13.8125 L 656.480469 13.761719 L 656.34375 13.710938 L 656.203125 13.667969 L 656.0625 13.628906 L 655.917969 13.59375 L 655.769531 13.5625 L 655.621094 13.535156 L 655.464844 13.511719 L 655.3125 13.492188 L 655.152344 13.476562 L 654.992188 13.464844 L 654.828125 13.460938 L 654.660156 13.457031 L 652.808594 13.457031 L 652.808594 20.996094 L 655.105469 20.996094 L 655.253906 20.988281 L 655.398438 20.976562 L 655.542969 20.957031 L 655.683594 20.9375 L 655.824219 20.910156 L 655.960938 20.875 L 656.09375 20.839844 L 656.226562 20.796875 L 656.355469 20.75 L 656.484375 20.699219 L 656.609375 20.644531 L 656.730469 20.582031 L 656.847656 20.515625 L 656.960938 20.445312 L 657.070312 20.371094 L 657.175781 20.289062 L 657.28125 20.203125 L 657.378906 20.113281 L 657.476562 20.019531 L 657.570312 19.921875 L 657.65625 19.816406 L 657.742188 19.707031 L 657.820312 19.59375 L 657.898438 19.476562 L 657.96875 19.351562 L 658.035156 19.222656 L 658.101562 19.089844 L 658.160156 18.953125 L 658.214844 18.808594 L 658.265625 18.664062 L 658.3125 18.511719 L 658.351562 18.355469 L 658.386719 18.191406 L 658.414062 18.027344 L 658.4375 17.855469 L 658.457031 17.679688 L 658.472656 17.5 L 658.480469 17.316406 Z M 658.480469 17.128906 "/>
</g>
</svg>
