<?xml version="1.0" encoding="UTF-8"?>
<svg xmlns="http://www.w3.org/2000/svg" xmlns:xlink="http://www.w3.org/1999/xlink" width="576pt" height="288pt" viewBox="0 0 576 288" version="1.1">
<defs>
<clipPath id="clip1">
  <path d="M 0 0 L 288 0 L 288 288 L 0 288 Z M 0 0 "/>
</clipPath>
<clipPath id="clip2">
  <path d="M 288 0 L 576 0 L 576 288 L 288 288 Z M 288 0 "/>
</clipPath>
</defs>
<g id="surface2037">
<rect x="0" y="0" width="576" height="288" style="fill:rgb(100%,100%,100%);fill-opacity:1;stroke:none;"/>
<path style=" stroke:none;fill-rule:nonzero;fill:rgb(100%,100%,100%);fill-opacity:1;" d="M 0 288 L 288 288 L 288 0 L 0 0 Z M 0 288 "/>
<g clip-path="url(#clip1)" clip-rule="nonzero">
<path style="fill:none;stroke-width:1.066978;stroke-linecap:round;stroke-linejoin:round;stroke:rgb(100%,100%,100%);stroke-opacity:1;stroke-miterlimit:10;" d="M 0 288 L 288 288 L 288 0 L 0 0 Z M 0 288 "/>
</g>
<path style="fill-rule:nonzero;fill:rgb(100%,100%,100%);fill-opacity:1;stroke-width:1.066978;stroke-linecap:round;stroke-linejoin:round;stroke:rgb(100%,100%,100%);stroke-opacity:1;stroke-miterlimit:10;" d="M 8.21875 279.78125 L 282.519531 279.78125 L 282.519531 5.480469 L 8.21875 5.480469 Z M 8.21875 279.78125 "/>
<path style="fill:none;stroke-width:1.066978;stroke-linecap:round;stroke-linejoin:round;stroke:rgb(0%,0%,0%);stroke-opacity:1;stroke-miterlimit:10;" d="M 132.101562 224.265625 L 131.78125 226.234375 "/>
<path style="fill:none;stroke-width:1.066978;stroke-linecap:round;stroke-linejoin:round;stroke:rgb(0%,0%,0%);stroke-opacity:1;stroke-miterlimit:10;" d="M 149.375 242.050781 L 149.382812 242.183594 "/>
<path style="fill:none;stroke-width:1.066978;stroke-linecap:round;stroke-linejoin:round;stroke:rgb(0%,0%,0%);stroke-opacity:1;stroke-miterlimit:10;" d="M 169.183594 239.242188 L 169.78125 241.671875 "/>
<path style="fill:none;stroke-width:1.066978;stroke-linecap:round;stroke-linejoin:round;stroke:rgb(0%,0%,0%);stroke-opacity:1;stroke-miterlimit:10;" d="M 188.285156 233.070312 L 189.660156 235.972656 "/>
<path style="fill:none;stroke-width:1.066978;stroke-linecap:round;stroke-linejoin:round;stroke:rgb(0%,0%,0%);stroke-opacity:1;stroke-miterlimit:10;" d="M 205.507812 222.660156 L 208.601562 226.773438 "/>
<path style="fill:none;stroke-width:1.066978;stroke-linecap:round;stroke-linejoin:round;stroke:rgb(0%,0%,0%);stroke-opacity:1;stroke-miterlimit:10;" d="M 215.667969 204.910156 L 220.042969 208.785156 "/>
<path style="fill:none;stroke-width:1.066978;stroke-linecap:round;stroke-linejoin:round;stroke:rgb(0%,0%,0%);stroke-opacity:1;stroke-miterlimit:10;" d="M 241.113281 174.59375 L 246.765625 176.480469 "/>
<path style="fill:none;stroke-width:1.066978;stroke-linecap:round;stroke-linejoin:round;stroke:rgb(0%,0%,0%);stroke-opacity:1;stroke-miterlimit:10;" d="M 245.574219 154.796875 L 250.429688 155.386719 "/>
<path style="fill:none;stroke-width:1.066978;stroke-linecap:round;stroke-linejoin:round;stroke:rgb(0%,0%,0%);stroke-opacity:1;stroke-miterlimit:10;" d="M 227.726562 190.179688 L 229.097656 190.972656 "/>
<path style="fill:none;stroke-width:1.066978;stroke-linecap:round;stroke-linejoin:round;stroke:rgb(0%,0%,0%);stroke-opacity:1;stroke-miterlimit:10;" d="M 65.035156 176.859375 L 63.050781 177.703125 "/>
<path style="fill:none;stroke-width:1.066978;stroke-linecap:round;stroke-linejoin:round;stroke:rgb(0%,0%,0%);stroke-opacity:1;stroke-miterlimit:10;" d="M 64.535156 198.425781 L 63.707031 199 "/>
<path style="fill:none;stroke-width:1.066978;stroke-linecap:round;stroke-linejoin:round;stroke:rgb(0%,0%,0%);stroke-opacity:1;stroke-miterlimit:10;" d="M 77.328125 213.46875 L 74.589844 216.320312 "/>
<path style="fill:none;stroke-width:1.066978;stroke-linecap:round;stroke-linejoin:round;stroke:rgb(0%,0%,0%);stroke-opacity:1;stroke-miterlimit:10;" d="M 95.464844 221.546875 L 95.210938 221.953125 "/>
<path style="fill:none;stroke-width:1.066978;stroke-linecap:round;stroke-linejoin:round;stroke:rgb(0%,0%,0%);stroke-opacity:1;stroke-miterlimit:10;" d="M 112.257812 229.933594 L 111.761719 231.246094 "/>
<path style="fill:none;stroke-width:1.066978;stroke-linecap:round;stroke-linejoin:round;stroke:rgb(0%,0%,0%);stroke-opacity:1;stroke-miterlimit:10;" d="M 66.285156 158.773438 L 64.789062 159.082031 "/>
<path style="fill:none;stroke-width:1.066978;stroke-linecap:round;stroke-linejoin:round;stroke:rgb(0%,0%,0%);stroke-opacity:1;stroke-miterlimit:10;" d="M 217.226562 101.144531 L 217.621094 100.914062 "/>
<path style="fill:none;stroke-width:1.066978;stroke-linecap:round;stroke-linejoin:round;stroke:rgb(0%,0%,0%);stroke-opacity:1;stroke-miterlimit:10;" d="M 205.234375 62.96875 L 207.132812 60.441406 "/>
<path style="fill:none;stroke-width:1.066978;stroke-linecap:round;stroke-linejoin:round;stroke:rgb(0%,0%,0%);stroke-opacity:1;stroke-miterlimit:10;" d="M 188.089844 52.601562 L 189.527344 49.570312 "/>
<path style="fill:none;stroke-width:1.066978;stroke-linecap:round;stroke-linejoin:round;stroke:rgb(0%,0%,0%);stroke-opacity:1;stroke-miterlimit:10;" d="M 149.59375 37.828125 L 149.789062 33 "/>
<path style="fill:none;stroke-width:1.066978;stroke-linecap:round;stroke-linejoin:round;stroke:rgb(0%,0%,0%);stroke-opacity:1;stroke-miterlimit:10;" d="M 128.542969 39.101562 L 128.507812 38.878906 "/>
<path style="fill:none;stroke-width:1.066978;stroke-linecap:round;stroke-linejoin:round;stroke:rgb(0%,0%,0%);stroke-opacity:1;stroke-miterlimit:10;" d="M 169.34375 45.367188 L 170.097656 42.3125 "/>
<path style="fill:none;stroke-width:1.066978;stroke-linecap:round;stroke-linejoin:round;stroke:rgb(0%,0%,0%);stroke-opacity:1;stroke-miterlimit:10;" d="M 212.699219 82.980469 L 213.171875 82.5625 "/>
<path style="fill:none;stroke-width:1.066978;stroke-linecap:round;stroke-linejoin:round;stroke:rgb(0%,0%,0%);stroke-opacity:1;stroke-miterlimit:10;" d="M 74.054688 68.386719 L 73.429688 67.730469 "/>
<path style="fill:none;stroke-width:1.066978;stroke-linecap:round;stroke-linejoin:round;stroke:rgb(0%,0%,0%);stroke-opacity:1;stroke-miterlimit:10;" d="M 60.648438 84.148438 L 56.605469 81.363281 "/>
<path style="fill:none;stroke-width:1.066978;stroke-linecap:round;stroke-linejoin:round;stroke:rgb(0%,0%,0%);stroke-opacity:1;stroke-miterlimit:10;" d="M 93.335938 60.34375 L 92.488281 59.003906 "/>
<path style="fill:none;stroke-width:1.066978;stroke-linecap:round;stroke-linejoin:round;stroke:rgb(0%,0%,0%);stroke-opacity:1;stroke-miterlimit:10;" d="M 61.464844 106.882812 L 56.8125 104.898438 "/>
<path style="fill:none;stroke-width:1.066978;stroke-linecap:round;stroke-linejoin:round;stroke:rgb(0%,0%,0%);stroke-opacity:1;stroke-miterlimit:10;" d="M 49.53125 123.066406 L 46.933594 122.535156 "/>
<path style="fill:none;stroke-width:1.066978;stroke-linecap:round;stroke-linejoin:round;stroke:rgb(0%,0%,0%);stroke-opacity:1;stroke-miterlimit:10;" d="M 47.554688 142.628906 L 40.578125 142.628906 "/>
<path style="fill:none;stroke-width:1.066978;stroke-linecap:round;stroke-linejoin:round;stroke:rgb(0%,0%,0%);stroke-opacity:1;stroke-miterlimit:10;" d="M 115.460938 63.765625 L 114.667969 61.671875 "/>
<path style="fill:none;stroke-width:1.066978;stroke-linecap:round;stroke-linejoin:round;stroke:rgb(0%,0%,0%);stroke-opacity:1;stroke-miterlimit:10;" d="M 211.605469 120.519531 L 214.394531 119.585938 "/>
<path style="fill:none;stroke-width:1.066978;stroke-linecap:round;stroke-linejoin:round;stroke:rgb(0%,0%,0%);stroke-opacity:1;stroke-miterlimit:10;" d="M 150.484375 72.992188 L 150.484375 72.992188 "/>
<path style="fill:none;stroke-width:1.066978;stroke-linecap:round;stroke-linejoin:round;stroke:rgb(0%,0%,0%);stroke-opacity:1;stroke-miterlimit:10;" d="M 83.078125 111.078125 L 76.894531 107.945312 "/>
<path style="fill:none;stroke-width:1.066978;stroke-linecap:round;stroke-linejoin:round;stroke:rgb(0%,0%,0%);stroke-opacity:1;stroke-miterlimit:10;" d="M 112.597656 212.039062 L 112.308594 212.648438 "/>
<path style="fill:none;stroke-width:1.066978;stroke-linecap:round;stroke-linejoin:round;stroke:rgb(0%,0%,0%);stroke-opacity:1;stroke-miterlimit:10;" d="M 165.316406 217.449219 L 166.675781 222.542969 "/>
<path style="fill:none;stroke-width:1.066978;stroke-linecap:round;stroke-linejoin:round;stroke:rgb(0%,0%,0%);stroke-opacity:1;stroke-miterlimit:10;" d="M 197.515625 206.824219 L 200.835938 210.914062 "/>
<path style="fill:none;stroke-width:1.066978;stroke-linecap:round;stroke-linejoin:round;stroke:rgb(0%,0%,0%);stroke-opacity:1;stroke-miterlimit:10;" d="M 174.902344 225.5 L 176.972656 231.308594 "/>
<path style="fill:none;stroke-width:1.066978;stroke-linecap:round;stroke-linejoin:round;stroke:rgb(0%,0%,0%);stroke-opacity:1;stroke-miterlimit:10;" d="M 158.597656 235.839844 L 159.351562 241.144531 "/>
<path style="fill:none;stroke-width:1.066978;stroke-linecap:round;stroke-linejoin:round;stroke:rgb(0%,0%,0%);stroke-opacity:1;stroke-miterlimit:10;" d="M 194.074219 223.195312 L 197.160156 228.296875 "/>
<path style="fill:none;stroke-width:1.066978;stroke-linecap:round;stroke-linejoin:round;stroke:rgb(0%,0%,0%);stroke-opacity:1;stroke-miterlimit:10;" d="M 220.425781 188.519531 L 225.5 191.621094 "/>
<path style="fill:none;stroke-width:1.066978;stroke-linecap:round;stroke-linejoin:round;stroke:rgb(0%,0%,0%);stroke-opacity:1;stroke-miterlimit:10;" d="M 232.847656 176.816406 L 233.941406 177.246094 "/>
<path style="fill:none;stroke-width:1.066978;stroke-linecap:round;stroke-linejoin:round;stroke:rgb(0%,0%,0%);stroke-opacity:1;stroke-miterlimit:10;" d="M 238.144531 163.523438 L 243.84375 164.808594 "/>
<path style="fill:none;stroke-width:1.066978;stroke-linecap:round;stroke-linejoin:round;stroke:rgb(0%,0%,0%);stroke-opacity:1;stroke-miterlimit:10;" d="M 74.921875 174.761719 L 71.933594 176.125 "/>
<path style="fill:none;stroke-width:1.066978;stroke-linecap:round;stroke-linejoin:round;stroke:rgb(0%,0%,0%);stroke-opacity:1;stroke-miterlimit:10;" d="M 81.335938 191.765625 L 76.09375 195.789062 "/>
<path style="fill:none;stroke-width:1.066978;stroke-linecap:round;stroke-linejoin:round;stroke:rgb(0%,0%,0%);stroke-opacity:1;stroke-miterlimit:10;" d="M 91.515625 211.367188 L 88.179688 215.628906 "/>
<path style="fill:none;stroke-width:1.066978;stroke-linecap:round;stroke-linejoin:round;stroke:rgb(0%,0%,0%);stroke-opacity:1;stroke-miterlimit:10;" d="M 74.734375 202.714844 L 70.550781 206.269531 "/>
<path style="fill:none;stroke-width:1.066978;stroke-linecap:round;stroke-linejoin:round;stroke:rgb(0%,0%,0%);stroke-opacity:1;stroke-miterlimit:10;" d="M 103.9375 225.59375 L 103.652344 226.164062 "/>
<path style="fill:none;stroke-width:1.066978;stroke-linecap:round;stroke-linejoin:round;stroke:rgb(0%,0%,0%);stroke-opacity:1;stroke-miterlimit:10;" d="M 181.933594 75.144531 L 184.894531 69.679688 "/>
<path style="fill:none;stroke-width:1.066978;stroke-linecap:round;stroke-linejoin:round;stroke:rgb(0%,0%,0%);stroke-opacity:1;stroke-miterlimit:10;" d="M 140.882812 59.78125 L 140.835938 58.90625 "/>
<path style="fill:none;stroke-width:1.066978;stroke-linecap:round;stroke-linejoin:round;stroke:rgb(0%,0%,0%);stroke-opacity:1;stroke-miterlimit:10;" d="M 191.425781 72.5625 L 194.777344 67.460938 "/>
<path style="fill:none;stroke-width:1.066978;stroke-linecap:round;stroke-linejoin:round;stroke:rgb(0%,0%,0%);stroke-opacity:1;stroke-miterlimit:10;" d="M 173.425781 57.164062 L 174.941406 52.539062 "/>
<path style="fill:none;stroke-width:1.066978;stroke-linecap:round;stroke-linejoin:round;stroke:rgb(0%,0%,0%);stroke-opacity:1;stroke-miterlimit:10;" d="M 194.421875 61.484375 L 196.921875 57.351562 "/>
<path style="fill:none;stroke-width:1.066978;stroke-linecap:round;stroke-linejoin:round;stroke:rgb(0%,0%,0%);stroke-opacity:1;stroke-miterlimit:10;" d="M 153.949219 48.199219 L 154.433594 42.867188 "/>
<path style="fill:none;stroke-width:1.066978;stroke-linecap:round;stroke-linejoin:round;stroke:rgb(0%,0%,0%);stroke-opacity:1;stroke-miterlimit:10;" d="M 139.320312 42.640625 L 139.035156 37.933594 "/>
<path style="fill:none;stroke-width:1.066978;stroke-linecap:round;stroke-linejoin:round;stroke:rgb(0%,0%,0%);stroke-opacity:1;stroke-miterlimit:10;" d="M 92.015625 77.949219 L 91.699219 77.566406 "/>
<path style="fill:none;stroke-width:1.066978;stroke-linecap:round;stroke-linejoin:round;stroke:rgb(0%,0%,0%);stroke-opacity:1;stroke-miterlimit:10;" d="M 73.632812 98.269531 L 68.265625 94.953125 "/>
<path style="fill:none;stroke-width:1.066978;stroke-linecap:round;stroke-linejoin:round;stroke:rgb(0%,0%,0%);stroke-opacity:1;stroke-miterlimit:10;" d="M 85.941406 74.171875 L 81.546875 69.109375 "/>
<path style="fill:none;stroke-width:1.066978;stroke-linecap:round;stroke-linejoin:round;stroke:rgb(0%,0%,0%);stroke-opacity:1;stroke-miterlimit:10;" d="M 71.210938 79.550781 L 66.953125 75.929688 "/>
<path style="fill:none;stroke-width:1.066978;stroke-linecap:round;stroke-linejoin:round;stroke:rgb(0%,0%,0%);stroke-opacity:1;stroke-miterlimit:10;" d="M 57.574219 120.050781 L 57.039062 119.914062 "/>
<path style="fill:none;stroke-width:1.066978;stroke-linecap:round;stroke-linejoin:round;stroke:rgb(0%,0%,0%);stroke-opacity:1;stroke-miterlimit:10;" d="M 54.628906 133.460938 L 48.050781 132.796875 "/>
<path style="fill:none;stroke-width:1.066978;stroke-linecap:round;stroke-linejoin:round;stroke:rgb(0%,0%,0%);stroke-opacity:1;stroke-miterlimit:10;" d="M 166.675781 222.542969 L 162.910156 223.453125 L 159.105469 224.1875 L 155.269531 224.742188 L 151.414062 225.113281 L 147.542969 225.308594 L 143.667969 225.316406 L 139.800781 225.148438 L 135.941406 224.796875 L 132.101562 224.265625 "/>
<path style="fill:none;stroke-width:1.066978;stroke-linecap:round;stroke-linejoin:round;stroke:rgb(0%,0%,0%);stroke-opacity:1;stroke-miterlimit:10;" d="M 159.351562 241.144531 L 154.375 241.722656 L 149.375 242.050781 "/>
<path style="fill:none;stroke-width:1.066978;stroke-linecap:round;stroke-linejoin:round;stroke:rgb(0%,0%,0%);stroke-opacity:1;stroke-miterlimit:10;" d="M 159.351562 241.144531 L 164.289062 240.316406 L 169.183594 239.242188 "/>
<path style="fill:none;stroke-width:1.066978;stroke-linecap:round;stroke-linejoin:round;stroke:rgb(0%,0%,0%);stroke-opacity:1;stroke-miterlimit:10;" d="M 197.160156 228.296875 L 192.78125 230.796875 L 188.285156 233.070312 "/>
<path style="fill:none;stroke-width:1.066978;stroke-linecap:round;stroke-linejoin:round;stroke:rgb(0%,0%,0%);stroke-opacity:1;stroke-miterlimit:10;" d="M 197.160156 228.296875 L 201.402344 225.582031 L 205.507812 222.660156 "/>
<path style="fill:none;stroke-width:1.066978;stroke-linecap:round;stroke-linejoin:round;stroke:rgb(0%,0%,0%);stroke-opacity:1;stroke-miterlimit:10;" d="M 225.5 191.621094 L 223.265625 195.105469 L 220.878906 198.484375 L 218.34375 201.753906 L 215.667969 204.910156 "/>
<path style="fill:none;stroke-width:1.066978;stroke-linecap:round;stroke-linejoin:round;stroke:rgb(0%,0%,0%);stroke-opacity:1;stroke-miterlimit:10;" d="M 243.84375 164.808594 L 242.601562 169.734375 L 241.113281 174.59375 "/>
<path style="fill:none;stroke-width:1.066978;stroke-linecap:round;stroke-linejoin:round;stroke:rgb(0%,0%,0%);stroke-opacity:1;stroke-miterlimit:10;" d="M 243.84375 164.808594 L 244.835938 159.824219 L 245.574219 154.796875 "/>
<path style="fill:none;stroke-width:1.066978;stroke-linecap:round;stroke-linejoin:round;stroke:rgb(0%,0%,0%);stroke-opacity:1;stroke-miterlimit:10;" d="M 233.941406 177.246094 L 232.089844 181.660156 L 230.015625 185.972656 L 227.726562 190.179688 "/>
<path style="fill:none;stroke-width:1.066978;stroke-linecap:round;stroke-linejoin:round;stroke:rgb(0%,0%,0%);stroke-opacity:1;stroke-miterlimit:10;" d="M 76.09375 195.789062 L 73.503906 192.234375 L 71.101562 188.554688 L 68.882812 184.757812 L 66.859375 180.855469 L 65.035156 176.859375 "/>
<path style="fill:none;stroke-width:1.066978;stroke-linecap:round;stroke-linejoin:round;stroke:rgb(0%,0%,0%);stroke-opacity:1;stroke-miterlimit:10;" d="M 70.550781 206.269531 L 67.445312 202.425781 L 64.535156 198.425781 "/>
<path style="fill:none;stroke-width:1.066978;stroke-linecap:round;stroke-linejoin:round;stroke:rgb(0%,0%,0%);stroke-opacity:1;stroke-miterlimit:10;" d="M 70.550781 206.269531 L 73.847656 209.957031 L 77.328125 213.46875 "/>
<path style="fill:none;stroke-width:1.066978;stroke-linecap:round;stroke-linejoin:round;stroke:rgb(0%,0%,0%);stroke-opacity:1;stroke-miterlimit:10;" d="M 103.652344 226.164062 L 99.5 223.957031 L 95.464844 221.546875 "/>
<path style="fill:none;stroke-width:1.066978;stroke-linecap:round;stroke-linejoin:round;stroke:rgb(0%,0%,0%);stroke-opacity:1;stroke-miterlimit:10;" d="M 103.652344 226.164062 L 107.90625 228.15625 L 112.257812 229.933594 "/>
<path style="fill:none;stroke-width:1.066978;stroke-linecap:round;stroke-linejoin:round;stroke:rgb(0%,0%,0%);stroke-opacity:1;stroke-miterlimit:10;" d="M 71.933594 176.125 L 70.15625 171.914062 L 68.617188 167.609375 L 67.328125 163.226562 L 66.285156 158.773438 "/>
<path style="fill:none;stroke-width:1.066978;stroke-linecap:round;stroke-linejoin:round;stroke:rgb(0%,0%,0%);stroke-opacity:1;stroke-miterlimit:10;" d="M 184.894531 69.679688 L 188.199219 71.570312 L 191.414062 73.609375 L 194.535156 75.792969 L 197.546875 78.117188 L 200.453125 80.582031 L 203.242188 83.171875 L 205.90625 85.890625 L 208.445312 88.726562 L 210.851562 91.675781 L 213.121094 94.734375 L 215.246094 97.890625 L 217.226562 101.144531 "/>
<path style="fill:none;stroke-width:1.066978;stroke-linecap:round;stroke-linejoin:round;stroke:rgb(0%,0%,0%);stroke-opacity:1;stroke-miterlimit:10;" d="M 196.921875 57.351562 L 201.148438 60.054688 L 205.234375 62.96875 "/>
<path style="fill:none;stroke-width:1.066978;stroke-linecap:round;stroke-linejoin:round;stroke:rgb(0%,0%,0%);stroke-opacity:1;stroke-miterlimit:10;" d="M 196.921875 57.351562 L 192.566406 54.867188 L 188.089844 52.601562 "/>
<path style="fill:none;stroke-width:1.066978;stroke-linecap:round;stroke-linejoin:round;stroke:rgb(0%,0%,0%);stroke-opacity:1;stroke-miterlimit:10;" d="M 139.035156 37.933594 L 144.3125 37.746094 L 149.59375 37.828125 "/>
<path style="fill:none;stroke-width:1.066978;stroke-linecap:round;stroke-linejoin:round;stroke:rgb(0%,0%,0%);stroke-opacity:1;stroke-miterlimit:10;" d="M 139.035156 37.933594 L 133.777344 38.386719 L 128.542969 39.101562 "/>
<path style="fill:none;stroke-width:1.066978;stroke-linecap:round;stroke-linejoin:round;stroke:rgb(0%,0%,0%);stroke-opacity:1;stroke-miterlimit:10;" d="M 154.433594 42.867188 L 158.195312 43.28125 L 161.9375 43.835938 L 165.652344 44.53125 L 169.34375 45.367188 "/>
<path style="fill:none;stroke-width:1.066978;stroke-linecap:round;stroke-linejoin:round;stroke:rgb(0%,0%,0%);stroke-opacity:1;stroke-miterlimit:10;" d="M 194.777344 67.460938 L 198.042969 69.710938 L 201.203125 72.101562 L 204.253906 74.628906 L 207.191406 77.285156 L 210.007812 80.074219 L 212.699219 82.980469 "/>
<path style="fill:none;stroke-width:1.066978;stroke-linecap:round;stroke-linejoin:round;stroke:rgb(0%,0%,0%);stroke-opacity:1;stroke-miterlimit:10;" d="M 66.953125 75.929688 L 70.410156 72.066406 L 74.054688 68.386719 "/>
<path style="fill:none;stroke-width:1.066978;stroke-linecap:round;stroke-linejoin:round;stroke:rgb(0%,0%,0%);stroke-opacity:1;stroke-miterlimit:10;" d="M 66.953125 75.929688 L 63.695312 79.960938 L 60.648438 84.148438 "/>
<path style="fill:none;stroke-width:1.066978;stroke-linecap:round;stroke-linejoin:round;stroke:rgb(0%,0%,0%);stroke-opacity:1;stroke-miterlimit:10;" d="M 81.546875 69.109375 L 85.328125 65.992188 L 89.261719 63.066406 L 93.335938 60.34375 "/>
<path style="fill:none;stroke-width:1.066978;stroke-linecap:round;stroke-linejoin:round;stroke:rgb(0%,0%,0%);stroke-opacity:1;stroke-miterlimit:10;" d="M 57.039062 119.914062 L 58.292969 115.496094 L 59.769531 111.148438 L 61.464844 106.882812 "/>
<path style="fill:none;stroke-width:1.066978;stroke-linecap:round;stroke-linejoin:round;stroke:rgb(0%,0%,0%);stroke-opacity:1;stroke-miterlimit:10;" d="M 48.050781 132.796875 L 48.667969 127.914062 L 49.53125 123.066406 "/>
<path style="fill:none;stroke-width:1.066978;stroke-linecap:round;stroke-linejoin:round;stroke:rgb(0%,0%,0%);stroke-opacity:1;stroke-miterlimit:10;" d="M 48.050781 132.796875 L 47.679688 137.707031 L 47.554688 142.628906 "/>
<path style="fill:none;stroke-width:1.066978;stroke-linecap:round;stroke-linejoin:round;stroke:rgb(0%,0%,0%);stroke-opacity:1;stroke-miterlimit:10;" d="M 91.699219 77.566406 L 94.796875 75.128906 L 98.007812 72.839844 L 101.320312 70.699219 L 104.730469 68.722656 L 108.226562 66.902344 L 111.808594 65.25 L 115.460938 63.765625 "/>
<path style="fill:none;stroke-width:1.066978;stroke-linecap:round;stroke-linejoin:round;stroke:rgb(0%,0%,0%);stroke-opacity:1;stroke-miterlimit:10;" d="M 150.484375 72.992188 L 154.195312 73.363281 L 157.882812 73.933594 L 161.53125 74.699219 L 165.136719 75.660156 L 168.683594 76.808594 L 172.164062 78.148438 L 175.570312 79.671875 L 178.890625 81.375 L 182.113281 83.25 L 185.230469 85.296875 L 188.234375 87.507812 L 191.117188 89.875 L 193.867188 92.394531 L 196.480469 95.054688 L 198.949219 97.851562 L 201.261719 100.777344 L 203.417969 103.820312 L 205.40625 106.976562 L 207.226562 110.230469 L 208.867188 113.582031 L 210.328125 117.011719 L 211.605469 120.519531 "/>
<path style="fill:none;stroke-width:1.066978;stroke-linecap:round;stroke-linejoin:round;stroke:rgb(0%,0%,0%);stroke-opacity:1;stroke-miterlimit:10;" d="M 150.484375 72.992188 L 150.484375 72.992188 "/>
<path style="fill:none;stroke-width:1.066978;stroke-linecap:round;stroke-linejoin:round;stroke:rgb(0%,0%,0%);stroke-opacity:1;stroke-miterlimit:10;" d="M 150.484375 72.992188 L 146.757812 72.816406 L 143.027344 72.84375 L 139.304688 73.066406 L 135.601562 73.488281 L 131.921875 74.109375 L 128.28125 74.925781 L 124.691406 75.933594 L 121.160156 77.132812 L 117.699219 78.519531 L 114.3125 80.089844 L 111.019531 81.835938 L 107.820312 83.757812 L 104.730469 85.847656 L 101.757812 88.097656 L 98.910156 90.503906 L 96.191406 93.058594 L 93.613281 95.753906 L 91.183594 98.585938 L 88.910156 101.542969 L 86.796875 104.617188 L 84.851562 107.796875 L 83.078125 111.078125 "/>
<path style="fill:none;stroke-width:1.066978;stroke-linecap:round;stroke-linejoin:round;stroke:rgb(0%,0%,0%);stroke-opacity:1;stroke-miterlimit:10;" d="M 76.894531 107.945312 L 75.296875 111.304688 L 73.863281 114.734375 L 72.59375 118.226562 L 71.5 121.78125 L 70.578125 125.382812 L 69.828125 129.023438 L 69.257812 132.695312 L 68.867188 136.394531 L 68.65625 140.105469 L 68.621094 143.824219 L 68.769531 147.539062 L 69.097656 151.242188 L 69.605469 154.925781 L 70.289062 158.578125 L 71.148438 162.195312 L 72.183594 165.765625 L 73.390625 169.28125 L 74.765625 172.738281 L 76.304688 176.121094 L 78.007812 179.425781 L 79.867188 182.644531 L 81.882812 185.769531 L 84.046875 188.792969 L 86.351562 191.707031 L 88.796875 194.507812 L 91.375 197.183594 L 94.082031 199.734375 L 96.90625 202.152344 L 99.84375 204.429688 L 102.890625 206.558594 L 106.035156 208.542969 L 109.273438 210.371094 L 112.597656 212.039062 "/>
<path style="fill:none;stroke-width:1.066978;stroke-linecap:round;stroke-linejoin:round;stroke:rgb(0%,0%,0%);stroke-opacity:1;stroke-miterlimit:10;" d="M 112.308594 212.648438 L 115.859375 214.214844 L 119.480469 215.605469 L 123.167969 216.808594 L 126.914062 217.828125 L 130.703125 218.660156 L 134.53125 219.296875 L 138.386719 219.746094 L 142.257812 220 L 146.140625 220.058594 L 150.015625 219.921875 L 153.882812 219.589844 L 157.730469 219.066406 L 161.542969 218.351562 L 165.316406 217.449219 "/>
<path style="fill:none;stroke-width:1.066978;stroke-linecap:round;stroke-linejoin:round;stroke:rgb(0%,0%,0%);stroke-opacity:1;stroke-miterlimit:10;" d="M 166.675781 222.542969 L 170.394531 221.460938 L 174.058594 220.199219 L 177.660156 218.773438 L 181.191406 217.175781 L 184.640625 215.417969 L 188.007812 213.496094 L 191.28125 211.421875 L 194.453125 209.199219 L 197.515625 206.824219 "/>
<path style="fill:none;stroke-width:1.066978;stroke-linecap:round;stroke-linejoin:round;stroke:rgb(0%,0%,0%);stroke-opacity:1;stroke-miterlimit:10;" d="M 200.835938 210.914062 L 197.886719 213.210938 L 194.84375 215.375 L 191.710938 217.410156 L 188.492188 219.3125 L 185.195312 221.074219 L 181.828125 222.695312 L 178.394531 224.171875 L 174.902344 225.5 "/>
<path style="fill:none;stroke-width:1.066978;stroke-linecap:round;stroke-linejoin:round;stroke:rgb(0%,0%,0%);stroke-opacity:1;stroke-miterlimit:10;" d="M 176.972656 231.308594 L 173.378906 232.511719 L 169.734375 233.566406 L 166.054688 234.472656 L 162.339844 235.230469 L 158.597656 235.839844 "/>
<path style="fill:none;stroke-width:1.066978;stroke-linecap:round;stroke-linejoin:round;stroke:rgb(0%,0%,0%);stroke-opacity:1;stroke-miterlimit:10;" d="M 176.972656 231.308594 L 180.519531 229.964844 L 184.007812 228.480469 L 187.433594 226.851562 L 190.789062 225.089844 L 194.074219 223.195312 "/>
<path style="fill:none;stroke-width:1.066978;stroke-linecap:round;stroke-linejoin:round;stroke:rgb(0%,0%,0%);stroke-opacity:1;stroke-miterlimit:10;" d="M 200.835938 210.914062 L 203.6875 208.5 L 206.433594 205.960938 L 209.066406 203.3125 L 211.585938 200.554688 L 213.984375 197.6875 L 216.261719 194.726562 L 218.410156 191.667969 L 220.425781 188.519531 "/>
<path style="fill:none;stroke-width:1.066978;stroke-linecap:round;stroke-linejoin:round;stroke:rgb(0%,0%,0%);stroke-opacity:1;stroke-miterlimit:10;" d="M 225.5 191.621094 L 227.578125 188.046875 L 229.5 184.382812 L 231.257812 180.636719 L 232.847656 176.816406 "/>
<path style="fill:none;stroke-width:1.066978;stroke-linecap:round;stroke-linejoin:round;stroke:rgb(0%,0%,0%);stroke-opacity:1;stroke-miterlimit:10;" d="M 233.941406 177.246094 L 235.574219 172.746094 L 236.972656 168.167969 L 238.144531 163.523438 "/>
<path style="fill:none;stroke-width:1.066978;stroke-linecap:round;stroke-linejoin:round;stroke:rgb(0%,0%,0%);stroke-opacity:1;stroke-miterlimit:10;" d="M 112.308594 212.648438 L 108.839844 210.902344 L 105.46875 208.988281 L 102.191406 206.90625 L 99.027344 204.660156 L 95.976562 202.261719 L 93.050781 199.710938 L 90.257812 197.019531 L 87.601562 194.1875 L 85.089844 191.230469 L 82.730469 188.148438 L 80.53125 184.953125 L 78.492188 181.652344 L 76.621094 178.253906 L 74.921875 174.761719 "/>
<path style="fill:none;stroke-width:1.066978;stroke-linecap:round;stroke-linejoin:round;stroke:rgb(0%,0%,0%);stroke-opacity:1;stroke-miterlimit:10;" d="M 71.933594 176.125 L 73.949219 180.230469 L 76.191406 184.214844 L 78.65625 188.0625 L 81.335938 191.765625 "/>
<path style="fill:none;stroke-width:1.066978;stroke-linecap:round;stroke-linejoin:round;stroke:rgb(0%,0%,0%);stroke-opacity:1;stroke-miterlimit:10;" d="M 76.09375 195.789062 L 78.855469 199.207031 L 81.785156 202.484375 L 84.878906 205.605469 L 88.125 208.570312 L 91.515625 211.367188 "/>
<path style="fill:none;stroke-width:1.066978;stroke-linecap:round;stroke-linejoin:round;stroke:rgb(0%,0%,0%);stroke-opacity:1;stroke-miterlimit:10;" d="M 88.179688 215.628906 L 85.285156 213.265625 L 82.492188 210.789062 L 79.796875 208.203125 L 77.210938 205.507812 L 74.734375 202.714844 "/>
<path style="fill:none;stroke-width:1.066978;stroke-linecap:round;stroke-linejoin:round;stroke:rgb(0%,0%,0%);stroke-opacity:1;stroke-miterlimit:10;" d="M 88.179688 215.628906 L 91.164062 217.871094 L 94.238281 219.992188 L 97.394531 221.988281 L 100.628906 223.855469 L 103.9375 225.59375 "/>
<path style="fill:none;stroke-width:1.066978;stroke-linecap:round;stroke-linejoin:round;stroke:rgb(0%,0%,0%);stroke-opacity:1;stroke-miterlimit:10;" d="M 76.894531 107.945312 L 78.65625 104.671875 L 80.570312 101.488281 L 82.640625 98.398438 L 84.855469 95.410156 L 87.210938 92.535156 L 89.707031 89.78125 L 92.332031 87.148438 L 95.078125 84.644531 L 97.945312 82.277344 L 100.925781 80.050781 L 104.007812 77.972656 L 107.1875 76.046875 L 110.453125 74.273438 L 113.804688 72.664062 L 117.230469 71.21875 L 120.722656 69.9375 L 124.269531 68.832031 L 127.867188 67.894531 L 131.507812 67.136719 L 135.179688 66.554688 L 138.875 66.148438 L 142.585938 65.925781 L 146.300781 65.878906 L 150.015625 66.015625 L 153.722656 66.328125 L 157.40625 66.824219 L 161.0625 67.496094 L 164.683594 68.34375 L 168.257812 69.363281 L 171.777344 70.558594 L 175.234375 71.921875 L 178.625 73.453125 L 181.933594 75.144531 "/>
<path style="fill:none;stroke-width:1.066978;stroke-linecap:round;stroke-linejoin:round;stroke:rgb(0%,0%,0%);stroke-opacity:1;stroke-miterlimit:10;" d="M 184.894531 69.679688 L 181.507812 67.941406 L 178.042969 66.363281 L 174.511719 64.945312 L 170.917969 63.691406 L 167.269531 62.601562 L 163.574219 61.679688 L 159.84375 60.929688 L 156.078125 60.351562 L 152.292969 59.949219 L 148.492188 59.71875 L 144.6875 59.660156 L 140.882812 59.78125 "/>
<path style="fill:none;stroke-width:1.066978;stroke-linecap:round;stroke-linejoin:round;stroke:rgb(0%,0%,0%);stroke-opacity:1;stroke-miterlimit:10;" d="M 140.835938 58.90625 L 144.636719 58.785156 L 148.445312 58.839844 L 152.246094 59.066406 L 156.03125 59.464844 L 159.792969 60.03125 L 163.527344 60.773438 L 167.222656 61.679688 L 170.875 62.757812 L 174.472656 63.996094 L 178.011719 65.398438 L 181.484375 66.960938 L 184.882812 68.675781 L 188.199219 70.546875 L 191.425781 72.5625 "/>
<path style="fill:none;stroke-width:1.066978;stroke-linecap:round;stroke-linejoin:round;stroke:rgb(0%,0%,0%);stroke-opacity:1;stroke-miterlimit:10;" d="M 194.777344 67.460938 L 191.421875 65.359375 L 187.972656 63.40625 L 184.441406 61.605469 L 180.835938 59.964844 L 177.160156 58.484375 L 173.425781 57.164062 "/>
<path style="fill:none;stroke-width:1.066978;stroke-linecap:round;stroke-linejoin:round;stroke:rgb(0%,0%,0%);stroke-opacity:1;stroke-miterlimit:10;" d="M 174.941406 52.539062 L 178.992188 53.972656 L 182.972656 55.585938 L 186.878906 57.378906 L 190.699219 59.347656 L 194.421875 61.484375 "/>
<path style="fill:none;stroke-width:1.066978;stroke-linecap:round;stroke-linejoin:round;stroke:rgb(0%,0%,0%);stroke-opacity:1;stroke-miterlimit:10;" d="M 174.941406 52.539062 L 170.832031 51.292969 L 166.667969 50.234375 L 162.460938 49.363281 L 158.21875 48.6875 L 153.949219 48.199219 "/>
<path style="fill:none;stroke-width:1.066978;stroke-linecap:round;stroke-linejoin:round;stroke:rgb(0%,0%,0%);stroke-opacity:1;stroke-miterlimit:10;" d="M 154.433594 42.867188 L 150.664062 42.597656 L 146.882812 42.46875 L 143.101562 42.484375 L 139.320312 42.640625 "/>
<path style="fill:none;stroke-width:1.066978;stroke-linecap:round;stroke-linejoin:round;stroke:rgb(0%,0%,0%);stroke-opacity:1;stroke-miterlimit:10;" d="M 140.835938 58.90625 L 137.039062 59.199219 L 133.261719 59.660156 L 129.507812 60.296875 L 125.789062 61.101562 L 122.105469 62.074219 L 118.476562 63.214844 L 114.898438 64.515625 L 111.382812 65.980469 L 107.941406 67.601562 L 104.574219 69.375 L 101.292969 71.304688 L 98.101562 73.378906 L 95.003906 75.59375 L 92.015625 77.949219 "/>
<path style="fill:none;stroke-width:1.066978;stroke-linecap:round;stroke-linejoin:round;stroke:rgb(0%,0%,0%);stroke-opacity:1;stroke-miterlimit:10;" d="M 91.699219 77.566406 L 88.714844 80.144531 L 85.855469 82.859375 L 83.128906 85.707031 L 80.535156 88.675781 L 78.085938 91.765625 L 75.78125 94.964844 L 73.632812 98.269531 "/>
<path style="fill:none;stroke-width:1.066978;stroke-linecap:round;stroke-linejoin:round;stroke:rgb(0%,0%,0%);stroke-opacity:1;stroke-miterlimit:10;" d="M 68.265625 94.953125 L 70.394531 91.671875 L 72.664062 88.484375 L 75.066406 85.398438 L 77.601562 82.417969 L 80.261719 79.550781 L 83.042969 76.800781 L 85.941406 74.171875 "/>
<path style="fill:none;stroke-width:1.066978;stroke-linecap:round;stroke-linejoin:round;stroke:rgb(0%,0%,0%);stroke-opacity:1;stroke-miterlimit:10;" d="M 81.546875 69.109375 L 77.929688 72.414062 L 74.480469 75.898438 L 71.210938 79.550781 "/>
<path style="fill:none;stroke-width:1.066978;stroke-linecap:round;stroke-linejoin:round;stroke:rgb(0%,0%,0%);stroke-opacity:1;stroke-miterlimit:10;" d="M 68.265625 94.953125 L 66.28125 98.324219 L 64.441406 101.777344 L 62.753906 105.304688 L 61.222656 108.902344 L 59.847656 112.566406 L 58.628906 116.285156 L 57.574219 120.050781 "/>
<path style="fill:none;stroke-width:1.066978;stroke-linecap:round;stroke-linejoin:round;stroke:rgb(0%,0%,0%);stroke-opacity:1;stroke-miterlimit:10;" d="M 57.039062 119.914062 L 56.007812 124.386719 L 55.203125 128.90625 L 54.628906 133.460938 "/>
<path style=" stroke:none;fill-rule:nonzero;fill:rgb(0%,0%,0%);fill-opacity:1;" d="M 12.800781 14.449219 L 11.945312 11.988281 L 8.273438 11.988281 L 7.421875 14.449219 L 5.402344 14.449219 L 8.917969 4.816406 L 11.296875 4.816406 L 14.796875 14.449219 Z M 10.542969 7.699219 L 10.496094 7.558594 L 10.480469 7.507812 L 10.460938 7.460938 L 10.429688 7.367188 L 10.414062 7.316406 L 10.398438 7.269531 L 10.378906 7.222656 L 10.367188 7.171875 L 10.335938 7.078125 L 10.324219 7.03125 L 10.308594 6.988281 L 10.296875 6.945312 L 10.28125 6.902344 L 10.257812 6.816406 L 10.242188 6.777344 L 10.234375 6.738281 L 10.210938 6.660156 L 10.203125 6.625 L 10.191406 6.589844 L 10.183594 6.558594 L 10.171875 6.527344 L 10.164062 6.496094 L 10.148438 6.441406 L 10.140625 6.417969 L 10.136719 6.394531 L 10.128906 6.375 L 10.117188 6.328125 L 10.113281 6.316406 L 10.109375 6.308594 L 10.109375 6.304688 L 10.105469 6.300781 L 10.105469 6.304688 L 10.101562 6.3125 L 10.101562 6.320312 L 10.097656 6.332031 L 10.089844 6.363281 L 10.082031 6.382812 L 10.078125 6.402344 L 10.074219 6.425781 L 10.066406 6.449219 L 10.050781 6.503906 L 10.035156 6.566406 L 10.023438 6.597656 L 10.015625 6.628906 L 10.003906 6.664062 L 9.992188 6.703125 L 9.980469 6.738281 L 9.96875 6.777344 L 9.960938 6.816406 L 9.945312 6.859375 L 9.910156 6.988281 L 9.894531 7.03125 L 9.863281 7.125 L 9.851562 7.171875 L 9.832031 7.222656 L 9.820312 7.269531 L 9.804688 7.316406 L 9.789062 7.367188 L 9.742188 7.507812 L 9.726562 7.558594 L 9.707031 7.605469 L 9.675781 7.699219 L 8.726562 10.46875 L 11.496094 10.46875 Z M 10.542969 7.699219 "/>
<path style=" stroke:none;fill-rule:nonzero;fill:rgb(100%,100%,100%);fill-opacity:1;" d="M 288 288 L 576 288 L 576 0 L 288 0 Z M 288 288 "/>
<g clip-path="url(#clip2)" clip-rule="nonzero">
<path style="fill:none;stroke-width:1.066978;stroke-linecap:round;stroke-linejoin:round;stroke:rgb(100%,100%,100%);stroke-opacity:1;stroke-miterlimit:10;" d="M 288 288 L 576 288 L 576 0 L 288 0 Z M 288 288 "/>
</g>
<path style="fill-rule:nonzero;fill:rgb(100%,100%,100%);fill-opacity:1;stroke-width:1.066978;stroke-linecap:round;stroke-linejoin:round;stroke:rgb(100%,100%,100%);stroke-opacity:1;stroke-miterlimit:10;" d="M 296.21875 279.78125 L 570.519531 279.78125 L 570.519531 5.480469 L 296.21875 5.480469 Z M 296.21875 279.78125 "/>
<path style="fill:none;stroke-width:1.066978;stroke-linecap:round;stroke-linejoin:round;stroke:rgb(0%,0%,0%);stroke-opacity:1;stroke-miterlimit:10;" d="M 422.125 211.820312 L 421.65625 214.707031 "/>
<path style="fill:none;stroke-width:1.066978;stroke-linecap:round;stroke-linejoin:round;stroke:rgb(0%,0%,0%);stroke-opacity:1;stroke-miterlimit:10;" d="M 437.183594 237.289062 L 437.191406 237.480469 "/>
<path style="fill:none;stroke-width:1.066978;stroke-linecap:round;stroke-linejoin:round;stroke:rgb(0%,0%,0%);stroke-opacity:1;stroke-miterlimit:10;" d="M 456.042969 234.609375 L 456.921875 238.175781 "/>
<path style="fill:none;stroke-width:1.066978;stroke-linecap:round;stroke-linejoin:round;stroke:rgb(0%,0%,0%);stroke-opacity:1;stroke-miterlimit:10;" d="M 474.359375 229.015625 L 476.378906 233.273438 "/>
<path style="fill:none;stroke-width:1.066978;stroke-linecap:round;stroke-linejoin:round;stroke:rgb(0%,0%,0%);stroke-opacity:1;stroke-miterlimit:10;" d="M 490.8125 219.070312 L 493.078125 222.089844 L 495.347656 225.109375 "/>
<path style="fill:none;stroke-width:1.066978;stroke-linecap:round;stroke-linejoin:round;stroke:rgb(0%,0%,0%);stroke-opacity:1;stroke-miterlimit:10;" d="M 498.148438 200.019531 L 501.355469 202.859375 L 504.5625 205.703125 "/>
<path style="fill:none;stroke-width:1.066978;stroke-linecap:round;stroke-linejoin:round;stroke:rgb(0%,0%,0%);stroke-opacity:1;stroke-miterlimit:10;" d="M 525.226562 173.296875 L 533.515625 176.0625 "/>
<path style="fill:none;stroke-width:1.066978;stroke-linecap:round;stroke-linejoin:round;stroke:rgb(0%,0%,0%);stroke-opacity:1;stroke-miterlimit:10;" d="M 529.503906 154.304688 L 536.628906 155.167969 "/>
<path style="fill:none;stroke-width:1.066978;stroke-linecap:round;stroke-linejoin:round;stroke:rgb(0%,0%,0%);stroke-opacity:1;stroke-miterlimit:10;" d="M 509.816406 186.765625 L 511.828125 187.929688 "/>
<path style="fill:none;stroke-width:1.066978;stroke-linecap:round;stroke-linejoin:round;stroke:rgb(0%,0%,0%);stroke-opacity:1;stroke-miterlimit:10;" d="M 362.652344 172.761719 L 359.742188 174 "/>
<path style="fill:none;stroke-width:1.066978;stroke-linecap:round;stroke-linejoin:round;stroke:rgb(0%,0%,0%);stroke-opacity:1;stroke-miterlimit:10;" d="M 356.949219 195.378906 L 355.734375 196.21875 "/>
<path style="fill:none;stroke-width:1.066978;stroke-linecap:round;stroke-linejoin:round;stroke:rgb(0%,0%,0%);stroke-opacity:1;stroke-miterlimit:10;" d="M 369.046875 209.597656 L 365.03125 213.777344 "/>
<path style="fill:none;stroke-width:1.066978;stroke-linecap:round;stroke-linejoin:round;stroke:rgb(0%,0%,0%);stroke-opacity:1;stroke-miterlimit:10;" d="M 387.542969 215.097656 L 387.167969 215.691406 "/>
<path style="fill:none;stroke-width:1.066978;stroke-linecap:round;stroke-linejoin:round;stroke:rgb(0%,0%,0%);stroke-opacity:1;stroke-miterlimit:10;" d="M 402.964844 222.800781 L 402.238281 224.722656 "/>
<path style="fill:none;stroke-width:1.066978;stroke-linecap:round;stroke-linejoin:round;stroke:rgb(0%,0%,0%);stroke-opacity:1;stroke-miterlimit:10;" d="M 367.550781 156.066406 L 365.351562 156.515625 "/>
<path style="fill:none;stroke-width:1.066978;stroke-linecap:round;stroke-linejoin:round;stroke:rgb(0%,0%,0%);stroke-opacity:1;stroke-miterlimit:10;" d="M 494.414062 107.386719 L 494.996094 107.050781 "/>
<path style="fill:none;stroke-width:1.066978;stroke-linecap:round;stroke-linejoin:round;stroke:rgb(0%,0%,0%);stroke-opacity:1;stroke-miterlimit:10;" d="M 490.410156 66.726562 L 493.195312 63.019531 "/>
<path style="fill:none;stroke-width:1.066978;stroke-linecap:round;stroke-linejoin:round;stroke:rgb(0%,0%,0%);stroke-opacity:1;stroke-miterlimit:10;" d="M 474.074219 56.847656 L 476.183594 52.398438 "/>
<path style="fill:none;stroke-width:1.066978;stroke-linecap:round;stroke-linejoin:round;stroke:rgb(0%,0%,0%);stroke-opacity:1;stroke-miterlimit:10;" d="M 437.503906 40.082031 L 437.789062 33 "/>
<path style="fill:none;stroke-width:1.066978;stroke-linecap:round;stroke-linejoin:round;stroke:rgb(0%,0%,0%);stroke-opacity:1;stroke-miterlimit:10;" d="M 416.90625 41.328125 L 416.855469 41.003906 "/>
<path style="fill:none;stroke-width:1.066978;stroke-linecap:round;stroke-linejoin:round;stroke:rgb(0%,0%,0%);stroke-opacity:1;stroke-miterlimit:10;" d="M 456.277344 49.695312 L 457.378906 45.214844 "/>
<path style="fill:none;stroke-width:1.066978;stroke-linecap:round;stroke-linejoin:round;stroke:rgb(0%,0%,0%);stroke-opacity:1;stroke-miterlimit:10;" d="M 493.796875 89.097656 L 494.484375 88.484375 "/>
<path style="fill:none;stroke-width:1.066978;stroke-linecap:round;stroke-linejoin:round;stroke:rgb(0%,0%,0%);stroke-opacity:1;stroke-miterlimit:10;" d="M 364.246094 70.664062 L 363.324219 69.707031 "/>
<path style="fill:none;stroke-width:1.066978;stroke-linecap:round;stroke-linejoin:round;stroke:rgb(0%,0%,0%);stroke-opacity:1;stroke-miterlimit:10;" d="M 351.25 85.945312 L 345.324219 81.855469 "/>
<path style="fill:none;stroke-width:1.066978;stroke-linecap:round;stroke-linejoin:round;stroke:rgb(0%,0%,0%);stroke-opacity:1;stroke-miterlimit:10;" d="M 384.417969 65.222656 L 383.175781 63.257812 "/>
<path style="fill:none;stroke-width:1.066978;stroke-linecap:round;stroke-linejoin:round;stroke:rgb(0%,0%,0%);stroke-opacity:1;stroke-miterlimit:10;" d="M 357.414062 110.269531 L 350.59375 107.363281 "/>
<path style="fill:none;stroke-width:1.066978;stroke-linecap:round;stroke-linejoin:round;stroke:rgb(0%,0%,0%);stroke-opacity:1;stroke-miterlimit:10;" d="M 342.976562 124.175781 L 339.164062 123.398438 "/>
<path style="fill:none;stroke-width:1.066978;stroke-linecap:round;stroke-linejoin:round;stroke:rgb(0%,0%,0%);stroke-opacity:1;stroke-miterlimit:10;" d="M 341.113281 142.628906 L 330.875 142.628906 "/>
<path style="fill:none;stroke-width:1.066978;stroke-linecap:round;stroke-linejoin:round;stroke:rgb(0%,0%,0%);stroke-opacity:1;stroke-miterlimit:10;" d="M 407.660156 74.839844 L 406.496094 71.769531 "/>
<path style="fill:none;stroke-width:1.066978;stroke-linecap:round;stroke-linejoin:round;stroke:rgb(0%,0%,0%);stroke-opacity:1;stroke-miterlimit:10;" d="M 481.941406 126.414062 L 486.035156 125.046875 "/>
<path style="fill:none;stroke-width:1.066978;stroke-linecap:round;stroke-linejoin:round;stroke:rgb(0%,0%,0%);stroke-opacity:1;stroke-miterlimit:10;" d="M 437.121094 91.558594 L 437.121094 91.558594 "/>
<path style="fill:none;stroke-width:1.066978;stroke-linecap:round;stroke-linejoin:round;stroke:rgb(0%,0%,0%);stroke-opacity:1;stroke-miterlimit:10;" d="M 387.6875 119.492188 L 383.152344 117.195312 L 378.621094 114.898438 "/>
<path style="fill:none;stroke-width:1.066978;stroke-linecap:round;stroke-linejoin:round;stroke:rgb(0%,0%,0%);stroke-opacity:1;stroke-miterlimit:10;" d="M 407.164062 198.125 L 406.742188 199.019531 "/>
<path style="fill:none;stroke-width:1.066978;stroke-linecap:round;stroke-linejoin:round;stroke:rgb(0%,0%,0%);stroke-opacity:1;stroke-miterlimit:10;" d="M 449.433594 202.886719 L 451.425781 210.363281 "/>
<path style="fill:none;stroke-width:1.066978;stroke-linecap:round;stroke-linejoin:round;stroke:rgb(0%,0%,0%);stroke-opacity:1;stroke-miterlimit:10;" d="M 477.566406 197.039062 L 480.003906 200.039062 L 482.4375 203.039062 "/>
<path style="fill:none;stroke-width:1.066978;stroke-linecap:round;stroke-linejoin:round;stroke:rgb(0%,0%,0%);stroke-opacity:1;stroke-miterlimit:10;" d="M 459.496094 215.941406 L 461.015625 220.199219 L 462.535156 224.460938 "/>
<path style="fill:none;stroke-width:1.066978;stroke-linecap:round;stroke-linejoin:round;stroke:rgb(0%,0%,0%);stroke-opacity:1;stroke-miterlimit:10;" d="M 445.574219 228.640625 L 446.128906 232.53125 L 446.679688 236.425781 "/>
<path style="fill:none;stroke-width:1.066978;stroke-linecap:round;stroke-linejoin:round;stroke:rgb(0%,0%,0%);stroke-opacity:1;stroke-miterlimit:10;" d="M 478.3125 216.972656 L 482.835938 224.457031 "/>
<path style="fill:none;stroke-width:1.066978;stroke-linecap:round;stroke-linejoin:round;stroke:rgb(0%,0%,0%);stroke-opacity:1;stroke-miterlimit:10;" d="M 499.769531 183.226562 L 503.488281 185.5 L 507.207031 187.777344 "/>
<path style="fill:none;stroke-width:1.066978;stroke-linecap:round;stroke-linejoin:round;stroke:rgb(0%,0%,0%);stroke-opacity:1;stroke-miterlimit:10;" d="M 513.976562 174.132812 L 515.585938 174.761719 "/>
<path style="fill:none;stroke-width:1.066978;stroke-linecap:round;stroke-linejoin:round;stroke:rgb(0%,0%,0%);stroke-opacity:1;stroke-miterlimit:10;" d="M 519.484375 162.023438 L 527.84375 163.90625 "/>
<path style="fill:none;stroke-width:1.066978;stroke-linecap:round;stroke-linejoin:round;stroke:rgb(0%,0%,0%);stroke-opacity:1;stroke-miterlimit:10;" d="M 376.632812 168.507812 L 372.25 170.507812 "/>
<path style="fill:none;stroke-width:1.066978;stroke-linecap:round;stroke-linejoin:round;stroke:rgb(0%,0%,0%);stroke-opacity:1;stroke-miterlimit:10;" d="M 380.074219 183.523438 L 376.230469 186.476562 L 372.386719 189.425781 "/>
<path style="fill:none;stroke-width:1.066978;stroke-linecap:round;stroke-linejoin:round;stroke:rgb(0%,0%,0%);stroke-opacity:1;stroke-miterlimit:10;" d="M 385.964844 203.140625 L 383.515625 206.265625 L 381.070312 209.386719 "/>
<path style="fill:none;stroke-width:1.066978;stroke-linecap:round;stroke-linejoin:round;stroke:rgb(0%,0%,0%);stroke-opacity:1;stroke-miterlimit:10;" d="M 368.773438 197.578125 L 365.707031 200.183594 L 362.640625 202.792969 "/>
<path style="fill:none;stroke-width:1.066978;stroke-linecap:round;stroke-linejoin:round;stroke:rgb(0%,0%,0%);stroke-opacity:1;stroke-miterlimit:10;" d="M 395.480469 218.5 L 395.058594 219.339844 "/>
<path style="fill:none;stroke-width:1.066978;stroke-linecap:round;stroke-linejoin:round;stroke:rgb(0%,0%,0%);stroke-opacity:1;stroke-miterlimit:10;" d="M 462.605469 88.667969 L 464.777344 84.664062 L 466.949219 80.65625 "/>
<path style="fill:none;stroke-width:1.066978;stroke-linecap:round;stroke-linejoin:round;stroke:rgb(0%,0%,0%);stroke-opacity:1;stroke-miterlimit:10;" d="M 429.558594 72.246094 L 429.488281 70.964844 "/>
<path style="fill:none;stroke-width:1.066978;stroke-linecap:round;stroke-linejoin:round;stroke:rgb(0%,0%,0%);stroke-opacity:1;stroke-miterlimit:10;" d="M 472.792969 82.65625 L 475.25 78.914062 L 477.710938 75.171875 "/>
<path style="fill:none;stroke-width:1.066978;stroke-linecap:round;stroke-linejoin:round;stroke:rgb(0%,0%,0%);stroke-opacity:1;stroke-miterlimit:10;" d="M 458.546875 65.929688 L 460.773438 59.148438 "/>
<path style="fill:none;stroke-width:1.066978;stroke-linecap:round;stroke-linejoin:round;stroke:rgb(0%,0%,0%);stroke-opacity:1;stroke-miterlimit:10;" d="M 478.824219 67.4375 L 482.488281 61.375 "/>
<path style="fill:none;stroke-width:1.066978;stroke-linecap:round;stroke-linejoin:round;stroke:rgb(0%,0%,0%);stroke-opacity:1;stroke-miterlimit:10;" d="M 441.320312 55.125 L 441.675781 51.214844 L 442.03125 47.308594 "/>
<path style="fill:none;stroke-width:1.066978;stroke-linecap:round;stroke-linejoin:round;stroke:rgb(0%,0%,0%);stroke-opacity:1;stroke-miterlimit:10;" d="M 427.589844 47.089844 L 427.171875 40.183594 "/>
<path style="fill:none;stroke-width:1.066978;stroke-linecap:round;stroke-linejoin:round;stroke:rgb(0%,0%,0%);stroke-opacity:1;stroke-miterlimit:10;" d="M 387.699219 87.265625 L 387.234375 86.699219 "/>
<path style="fill:none;stroke-width:1.066978;stroke-linecap:round;stroke-linejoin:round;stroke:rgb(0%,0%,0%);stroke-opacity:1;stroke-miterlimit:10;" d="M 371.703125 104.5 L 363.835938 99.632812 "/>
<path style="fill:none;stroke-width:1.066978;stroke-linecap:round;stroke-linejoin:round;stroke:rgb(0%,0%,0%);stroke-opacity:1;stroke-miterlimit:10;" d="M 379.773438 80.890625 L 373.328125 73.46875 "/>
<path style="fill:none;stroke-width:1.066978;stroke-linecap:round;stroke-linejoin:round;stroke:rgb(0%,0%,0%);stroke-opacity:1;stroke-miterlimit:10;" d="M 363.605469 83.289062 L 357.363281 77.976562 "/>
<path style="fill:none;stroke-width:1.066978;stroke-linecap:round;stroke-linejoin:round;stroke:rgb(0%,0%,0%);stroke-opacity:1;stroke-miterlimit:10;" d="M 354.191406 122.265625 L 353.410156 122.066406 "/>
<path style="fill:none;stroke-width:1.066978;stroke-linecap:round;stroke-linejoin:round;stroke:rgb(0%,0%,0%);stroke-opacity:1;stroke-miterlimit:10;" d="M 351.226562 134.332031 L 341.578125 133.355469 "/>
<path style="fill:none;stroke-width:1.066978;stroke-linecap:round;stroke-linejoin:round;stroke:rgb(0%,0%,0%);stroke-opacity:1;stroke-miterlimit:10;" d="M 451.425781 210.363281 L 447.316406 211.324219 L 443.15625 212.039062 L 438.960938 212.503906 L 434.742188 212.714844 L 430.523438 212.667969 L 426.3125 212.371094 L 422.125 211.820312 "/>
<path style="fill:none;stroke-width:1.066978;stroke-linecap:round;stroke-linejoin:round;stroke:rgb(0%,0%,0%);stroke-opacity:1;stroke-miterlimit:10;" d="M 446.679688 236.425781 L 441.941406 236.976562 L 437.183594 237.289062 "/>
<path style="fill:none;stroke-width:1.066978;stroke-linecap:round;stroke-linejoin:round;stroke:rgb(0%,0%,0%);stroke-opacity:1;stroke-miterlimit:10;" d="M 446.679688 236.425781 L 451.382812 235.636719 L 456.042969 234.609375 "/>
<path style="fill:none;stroke-width:1.066978;stroke-linecap:round;stroke-linejoin:round;stroke:rgb(0%,0%,0%);stroke-opacity:1;stroke-miterlimit:10;" d="M 482.835938 224.457031 L 478.65625 226.84375 L 474.359375 229.015625 "/>
<path style="fill:none;stroke-width:1.066978;stroke-linecap:round;stroke-linejoin:round;stroke:rgb(0%,0%,0%);stroke-opacity:1;stroke-miterlimit:10;" d="M 482.835938 224.457031 L 486.890625 221.867188 L 490.8125 219.070312 "/>
<path style="fill:none;stroke-width:1.066978;stroke-linecap:round;stroke-linejoin:round;stroke:rgb(0%,0%,0%);stroke-opacity:1;stroke-miterlimit:10;" d="M 507.207031 187.777344 L 505.148438 190.984375 L 502.949219 194.097656 L 500.613281 197.113281 L 498.148438 200.019531 "/>
<path style="fill:none;stroke-width:1.066978;stroke-linecap:round;stroke-linejoin:round;stroke:rgb(0%,0%,0%);stroke-opacity:1;stroke-miterlimit:10;" d="M 527.84375 163.90625 L 526.65625 168.636719 L 525.226562 173.296875 "/>
<path style="fill:none;stroke-width:1.066978;stroke-linecap:round;stroke-linejoin:round;stroke:rgb(0%,0%,0%);stroke-opacity:1;stroke-miterlimit:10;" d="M 527.84375 163.90625 L 528.796875 159.125 L 529.503906 154.304688 "/>
<path style="fill:none;stroke-width:1.066978;stroke-linecap:round;stroke-linejoin:round;stroke:rgb(0%,0%,0%);stroke-opacity:1;stroke-miterlimit:10;" d="M 515.585938 174.761719 L 513.863281 178.859375 L 511.941406 182.863281 L 509.816406 186.765625 "/>
<path style="fill:none;stroke-width:1.066978;stroke-linecap:round;stroke-linejoin:round;stroke:rgb(0%,0%,0%);stroke-opacity:1;stroke-miterlimit:10;" d="M 372.386719 189.425781 L 370.109375 186.296875 L 367.992188 183.058594 L 366.039062 179.714844 L 364.257812 176.28125 L 362.652344 172.761719 "/>
<path style="fill:none;stroke-width:1.066978;stroke-linecap:round;stroke-linejoin:round;stroke:rgb(0%,0%,0%);stroke-opacity:1;stroke-miterlimit:10;" d="M 362.640625 202.792969 L 359.699219 199.15625 L 356.949219 195.378906 "/>
<path style="fill:none;stroke-width:1.066978;stroke-linecap:round;stroke-linejoin:round;stroke:rgb(0%,0%,0%);stroke-opacity:1;stroke-miterlimit:10;" d="M 362.640625 202.792969 L 365.757812 206.277344 L 369.046875 209.597656 "/>
<path style="fill:none;stroke-width:1.066978;stroke-linecap:round;stroke-linejoin:round;stroke:rgb(0%,0%,0%);stroke-opacity:1;stroke-miterlimit:10;" d="M 395.058594 219.339844 L 391.25 217.3125 L 387.542969 215.097656 "/>
<path style="fill:none;stroke-width:1.066978;stroke-linecap:round;stroke-linejoin:round;stroke:rgb(0%,0%,0%);stroke-opacity:1;stroke-miterlimit:10;" d="M 395.058594 219.339844 L 398.96875 221.167969 L 402.964844 222.800781 "/>
<path style="fill:none;stroke-width:1.066978;stroke-linecap:round;stroke-linejoin:round;stroke:rgb(0%,0%,0%);stroke-opacity:1;stroke-miterlimit:10;" d="M 372.25 170.507812 L 370.769531 167.003906 L 369.492188 163.421875 L 368.417969 159.773438 L 367.550781 156.066406 "/>
<path style="fill:none;stroke-width:1.066978;stroke-linecap:round;stroke-linejoin:round;stroke:rgb(0%,0%,0%);stroke-opacity:1;stroke-miterlimit:10;" d="M 466.949219 80.65625 L 470.308594 82.597656 L 473.558594 84.722656 L 476.683594 87.019531 L 479.679688 89.488281 L 482.53125 92.117188 L 485.238281 94.902344 L 487.785156 97.828125 L 490.171875 100.890625 L 492.382812 104.082031 L 494.414062 107.386719 "/>
<path style="fill:none;stroke-width:1.066978;stroke-linecap:round;stroke-linejoin:round;stroke:rgb(0%,0%,0%);stroke-opacity:1;stroke-miterlimit:10;" d="M 482.488281 61.375 L 486.515625 63.949219 L 490.410156 66.726562 "/>
<path style="fill:none;stroke-width:1.066978;stroke-linecap:round;stroke-linejoin:round;stroke:rgb(0%,0%,0%);stroke-opacity:1;stroke-miterlimit:10;" d="M 482.488281 61.375 L 478.339844 59.007812 L 474.074219 56.847656 "/>
<path style="fill:none;stroke-width:1.066978;stroke-linecap:round;stroke-linejoin:round;stroke:rgb(0%,0%,0%);stroke-opacity:1;stroke-miterlimit:10;" d="M 427.171875 40.183594 L 432.335938 40.003906 L 437.503906 40.082031 "/>
<path style="fill:none;stroke-width:1.066978;stroke-linecap:round;stroke-linejoin:round;stroke:rgb(0%,0%,0%);stroke-opacity:1;stroke-miterlimit:10;" d="M 427.171875 40.183594 L 422.027344 40.625 L 416.90625 41.328125 "/>
<path style="fill:none;stroke-width:1.066978;stroke-linecap:round;stroke-linejoin:round;stroke:rgb(0%,0%,0%);stroke-opacity:1;stroke-miterlimit:10;" d="M 442.03125 47.308594 L 446.816406 47.863281 L 451.570312 48.660156 L 456.277344 49.695312 "/>
<path style="fill:none;stroke-width:1.066978;stroke-linecap:round;stroke-linejoin:round;stroke:rgb(0%,0%,0%);stroke-opacity:1;stroke-miterlimit:10;" d="M 477.710938 75.171875 L 481.214844 77.609375 L 484.582031 80.226562 L 487.808594 83.019531 L 490.882812 85.980469 L 493.796875 89.097656 "/>
<path style="fill:none;stroke-width:1.066978;stroke-linecap:round;stroke-linejoin:round;stroke:rgb(0%,0%,0%);stroke-opacity:1;stroke-miterlimit:10;" d="M 357.363281 77.976562 L 360.710938 74.234375 L 364.246094 70.664062 "/>
<path style="fill:none;stroke-width:1.066978;stroke-linecap:round;stroke-linejoin:round;stroke:rgb(0%,0%,0%);stroke-opacity:1;stroke-miterlimit:10;" d="M 357.363281 77.976562 L 354.207031 81.886719 L 351.25 85.945312 "/>
<path style="fill:none;stroke-width:1.066978;stroke-linecap:round;stroke-linejoin:round;stroke:rgb(0%,0%,0%);stroke-opacity:1;stroke-miterlimit:10;" d="M 373.328125 73.46875 L 376.886719 70.535156 L 380.585938 67.78125 L 384.417969 65.222656 "/>
<path style="fill:none;stroke-width:1.066978;stroke-linecap:round;stroke-linejoin:round;stroke:rgb(0%,0%,0%);stroke-opacity:1;stroke-miterlimit:10;" d="M 353.410156 122.066406 L 354.546875 118.066406 L 355.882812 114.132812 L 357.414062 110.269531 "/>
<path style="fill:none;stroke-width:1.066978;stroke-linecap:round;stroke-linejoin:round;stroke:rgb(0%,0%,0%);stroke-opacity:1;stroke-miterlimit:10;" d="M 341.578125 133.355469 L 342.164062 128.75 L 342.976562 124.175781 "/>
<path style="fill:none;stroke-width:1.066978;stroke-linecap:round;stroke-linejoin:round;stroke:rgb(0%,0%,0%);stroke-opacity:1;stroke-miterlimit:10;" d="M 341.578125 133.355469 L 341.230469 137.988281 L 341.113281 142.628906 "/>
<path style="fill:none;stroke-width:1.066978;stroke-linecap:round;stroke-linejoin:round;stroke:rgb(0%,0%,0%);stroke-opacity:1;stroke-miterlimit:10;" d="M 387.234375 86.699219 L 390.351562 84.269531 L 393.597656 82.011719 L 396.960938 79.933594 L 400.433594 78.039062 L 404.003906 76.339844 L 407.660156 74.839844 "/>
<path style="fill:none;stroke-width:1.066978;stroke-linecap:round;stroke-linejoin:round;stroke:rgb(0%,0%,0%);stroke-opacity:1;stroke-miterlimit:10;" d="M 437.121094 91.558594 L 440.859375 91.972656 L 444.554688 92.660156 L 448.195312 93.613281 L 451.75 94.835938 L 455.207031 96.3125 L 458.550781 98.039062 L 461.753906 100.007812 L 464.804688 102.207031 L 467.6875 104.621094 L 470.382812 107.242188 L 472.882812 110.054688 L 475.164062 113.042969 L 477.222656 116.1875 L 479.046875 119.480469 L 480.621094 122.894531 L 481.941406 126.414062 "/>
<path style="fill:none;stroke-width:1.066978;stroke-linecap:round;stroke-linejoin:round;stroke:rgb(0%,0%,0%);stroke-opacity:1;stroke-miterlimit:10;" d="M 437.121094 91.558594 L 437.121094 91.558594 "/>
<path style="fill:none;stroke-width:1.066978;stroke-linecap:round;stroke-linejoin:round;stroke:rgb(0%,0%,0%);stroke-opacity:1;stroke-miterlimit:10;" d="M 437.121094 91.558594 L 433.363281 91.421875 L 429.605469 91.558594 L 425.867188 91.972656 L 422.167969 92.660156 L 418.53125 93.617188 L 414.976562 94.839844 L 411.519531 96.316406 L 408.179688 98.046875 L 404.972656 100.015625 L 401.921875 102.214844 L 399.042969 104.632812 L 396.347656 107.253906 L 393.851562 110.066406 L 391.566406 113.054688 L 389.507812 116.199219 L 387.6875 119.492188 "/>
<path style="fill:none;stroke-width:1.066978;stroke-linecap:round;stroke-linejoin:round;stroke:rgb(0%,0%,0%);stroke-opacity:1;stroke-miterlimit:10;" d="M 378.621094 114.898438 L 377.019531 118.316406 L 375.632812 121.824219 L 374.464844 125.410156 L 373.515625 129.0625 L 372.796875 132.765625 L 372.304688 136.503906 L 372.042969 140.269531 L 372.015625 144.042969 L 372.21875 147.808594 L 372.652344 151.554688 L 373.3125 155.269531 L 374.203125 158.9375 L 375.316406 162.539062 L 376.652344 166.070312 L 378.199219 169.511719 L 379.953125 172.847656 L 381.910156 176.074219 L 384.0625 179.171875 L 386.402344 182.132812 L 388.917969 184.945312 L 391.601562 187.59375 L 394.441406 190.078125 L 397.433594 192.378906 L 400.554688 194.492188 L 403.804688 196.410156 L 407.164062 198.125 "/>
<path style="fill:none;stroke-width:1.066978;stroke-linecap:round;stroke-linejoin:round;stroke:rgb(0%,0%,0%);stroke-opacity:1;stroke-miterlimit:10;" d="M 406.742188 199.019531 L 410.390625 200.601562 L 414.132812 201.949219 L 417.953125 203.054688 L 421.839844 203.914062 L 425.769531 204.523438 L 429.730469 204.882812 L 433.707031 204.988281 L 437.679688 204.839844 L 441.636719 204.441406 L 445.558594 203.789062 L 449.433594 202.886719 "/>
<path style="fill:none;stroke-width:1.066978;stroke-linecap:round;stroke-linejoin:round;stroke:rgb(0%,0%,0%);stroke-opacity:1;stroke-miterlimit:10;" d="M 451.425781 210.363281 L 455.472656 209.152344 L 459.4375 207.699219 L 463.304688 206.011719 L 467.066406 204.097656 L 470.707031 201.957031 L 474.210938 199.601562 L 477.566406 197.039062 "/>
<path style="fill:none;stroke-width:1.066978;stroke-linecap:round;stroke-linejoin:round;stroke:rgb(0%,0%,0%);stroke-opacity:1;stroke-miterlimit:10;" d="M 482.4375 203.039062 L 479.449219 205.347656 L 476.351562 207.511719 L 473.152344 209.519531 L 469.859375 211.371094 L 466.480469 213.0625 L 463.023438 214.585938 L 459.496094 215.941406 "/>
<path style="fill:none;stroke-width:1.066978;stroke-linecap:round;stroke-linejoin:round;stroke:rgb(0%,0%,0%);stroke-opacity:1;stroke-miterlimit:10;" d="M 462.535156 224.460938 L 458.378906 225.824219 L 454.160156 226.976562 L 449.886719 227.917969 L 445.574219 228.640625 "/>
<path style="fill:none;stroke-width:1.066978;stroke-linecap:round;stroke-linejoin:round;stroke:rgb(0%,0%,0%);stroke-opacity:1;stroke-miterlimit:10;" d="M 462.535156 224.460938 L 466.613281 222.890625 L 470.609375 221.113281 L 474.515625 219.140625 L 478.3125 216.972656 "/>
<path style="fill:none;stroke-width:1.066978;stroke-linecap:round;stroke-linejoin:round;stroke:rgb(0%,0%,0%);stroke-opacity:1;stroke-miterlimit:10;" d="M 482.4375 203.039062 L 485.3125 200.585938 L 488.0625 197.996094 L 490.6875 195.277344 L 493.171875 192.433594 L 495.519531 189.472656 L 497.71875 186.402344 L 499.769531 183.226562 "/>
<path style="fill:none;stroke-width:1.066978;stroke-linecap:round;stroke-linejoin:round;stroke:rgb(0%,0%,0%);stroke-opacity:1;stroke-miterlimit:10;" d="M 507.207031 187.777344 L 509.125 184.480469 L 510.894531 181.101562 L 512.511719 177.652344 L 513.976562 174.132812 "/>
<path style="fill:none;stroke-width:1.066978;stroke-linecap:round;stroke-linejoin:round;stroke:rgb(0%,0%,0%);stroke-opacity:1;stroke-miterlimit:10;" d="M 515.585938 174.761719 L 517.097656 170.582031 L 518.398438 166.335938 L 519.484375 162.023438 "/>
<path style="fill:none;stroke-width:1.066978;stroke-linecap:round;stroke-linejoin:round;stroke:rgb(0%,0%,0%);stroke-opacity:1;stroke-miterlimit:10;" d="M 406.742188 199.019531 L 403.203125 197.207031 L 399.785156 195.171875 L 396.503906 192.925781 L 393.371094 190.472656 L 390.402344 187.828125 L 387.609375 184.996094 L 385.003906 181.992188 L 382.589844 178.828125 L 380.386719 175.519531 L 378.398438 172.074219 L 376.632812 168.507812 "/>
<path style="fill:none;stroke-width:1.066978;stroke-linecap:round;stroke-linejoin:round;stroke:rgb(0%,0%,0%);stroke-opacity:1;stroke-miterlimit:10;" d="M 372.25 170.507812 L 373.925781 173.925781 L 375.792969 177.238281 L 377.84375 180.441406 L 380.074219 183.523438 "/>
<path style="fill:none;stroke-width:1.066978;stroke-linecap:round;stroke-linejoin:round;stroke:rgb(0%,0%,0%);stroke-opacity:1;stroke-miterlimit:10;" d="M 372.386719 189.425781 L 374.816406 192.433594 L 377.398438 195.316406 L 380.121094 198.066406 L 382.980469 200.675781 L 385.964844 203.140625 "/>
<path style="fill:none;stroke-width:1.066978;stroke-linecap:round;stroke-linejoin:round;stroke:rgb(0%,0%,0%);stroke-opacity:1;stroke-miterlimit:10;" d="M 381.070312 209.386719 L 377.773438 206.671875 L 374.621094 203.792969 L 371.621094 200.757812 L 368.773438 197.578125 "/>
<path style="fill:none;stroke-width:1.066978;stroke-linecap:round;stroke-linejoin:round;stroke:rgb(0%,0%,0%);stroke-opacity:1;stroke-miterlimit:10;" d="M 381.070312 209.386719 L 384.496094 211.933594 L 388.042969 214.308594 L 391.707031 216.496094 L 395.480469 218.5 "/>
<path style="fill:none;stroke-width:1.066978;stroke-linecap:round;stroke-linejoin:round;stroke:rgb(0%,0%,0%);stroke-opacity:1;stroke-miterlimit:10;" d="M 378.621094 114.898438 L 380.429688 111.585938 L 382.433594 108.394531 L 384.636719 105.328125 L 387.019531 102.40625 L 389.578125 99.632812 L 392.304688 97.023438 L 395.183594 94.585938 L 398.207031 92.332031 L 401.363281 90.265625 L 404.640625 88.398438 L 408.027344 86.734375 L 411.511719 85.285156 L 415.074219 84.046875 L 418.707031 83.035156 L 422.398438 82.246094 L 426.128906 81.6875 L 429.886719 81.355469 L 433.65625 81.257812 L 437.429688 81.394531 L 441.183594 81.757812 L 444.910156 82.351562 L 448.589844 83.175781 L 452.214844 84.222656 L 455.765625 85.492188 L 459.234375 86.976562 L 462.605469 88.667969 "/>
<path style="fill:none;stroke-width:1.066978;stroke-linecap:round;stroke-linejoin:round;stroke:rgb(0%,0%,0%);stroke-opacity:1;stroke-miterlimit:10;" d="M 466.949219 80.65625 L 463.488281 78.902344 L 459.933594 77.339844 L 456.300781 75.976562 L 452.597656 74.816406 L 448.835938 73.859375 L 445.027344 73.113281 L 441.183594 72.578125 L 437.316406 72.253906 L 433.4375 72.144531 L 429.558594 72.246094 "/>
<path style="fill:none;stroke-width:1.066978;stroke-linecap:round;stroke-linejoin:round;stroke:rgb(0%,0%,0%);stroke-opacity:1;stroke-miterlimit:10;" d="M 429.488281 70.964844 L 433.285156 70.859375 L 437.085938 70.953125 L 440.875 71.253906 L 444.644531 71.75 L 448.382812 72.445312 L 452.078125 73.339844 L 455.71875 74.425781 L 459.296875 75.707031 L 462.804688 77.171875 L 466.230469 78.824219 L 469.5625 80.652344 L 472.792969 82.65625 "/>
<path style="fill:none;stroke-width:1.066978;stroke-linecap:round;stroke-linejoin:round;stroke:rgb(0%,0%,0%);stroke-opacity:1;stroke-miterlimit:10;" d="M 477.710938 75.171875 L 474.085938 72.921875 L 470.34375 70.867188 L 466.5 69.015625 L 462.566406 67.367188 L 458.546875 65.929688 "/>
<path style="fill:none;stroke-width:1.066978;stroke-linecap:round;stroke-linejoin:round;stroke:rgb(0%,0%,0%);stroke-opacity:1;stroke-miterlimit:10;" d="M 460.773438 59.148438 L 464.527344 60.476562 L 468.214844 61.972656 L 471.835938 63.632812 L 475.371094 65.457031 L 478.824219 67.4375 "/>
<path style="fill:none;stroke-width:1.066978;stroke-linecap:round;stroke-linejoin:round;stroke:rgb(0%,0%,0%);stroke-opacity:1;stroke-miterlimit:10;" d="M 460.773438 59.148438 L 456.964844 57.992188 L 453.105469 57.011719 L 449.207031 56.203125 L 445.277344 55.578125 L 441.320312 55.125 "/>
<path style="fill:none;stroke-width:1.066978;stroke-linecap:round;stroke-linejoin:round;stroke:rgb(0%,0%,0%);stroke-opacity:1;stroke-miterlimit:10;" d="M 442.03125 47.308594 L 437.222656 46.992188 L 432.40625 46.917969 L 427.589844 47.089844 "/>
<path style="fill:none;stroke-width:1.066978;stroke-linecap:round;stroke-linejoin:round;stroke:rgb(0%,0%,0%);stroke-opacity:1;stroke-miterlimit:10;" d="M 429.488281 70.964844 L 425.699219 71.269531 L 421.929688 71.777344 L 418.195312 72.480469 L 414.503906 73.382812 L 410.863281 74.480469 L 407.285156 75.765625 L 403.785156 77.242188 L 400.363281 78.898438 L 397.035156 80.734375 L 393.808594 82.746094 L 390.695312 84.925781 L 387.699219 87.265625 "/>
<path style="fill:none;stroke-width:1.066978;stroke-linecap:round;stroke-linejoin:round;stroke:rgb(0%,0%,0%);stroke-opacity:1;stroke-miterlimit:10;" d="M 387.234375 86.699219 L 384.253906 89.296875 L 381.417969 92.054688 L 378.738281 94.964844 L 376.222656 98.011719 L 373.875 101.195312 L 371.703125 104.5 "/>
<path style="fill:none;stroke-width:1.066978;stroke-linecap:round;stroke-linejoin:round;stroke:rgb(0%,0%,0%);stroke-opacity:1;stroke-miterlimit:10;" d="M 363.835938 99.632812 L 366.085938 96.1875 L 368.507812 92.859375 L 371.09375 89.660156 L 373.839844 86.59375 L 376.734375 83.667969 L 379.773438 80.890625 "/>
<path style="fill:none;stroke-width:1.066978;stroke-linecap:round;stroke-linejoin:round;stroke:rgb(0%,0%,0%);stroke-opacity:1;stroke-miterlimit:10;" d="M 373.328125 73.46875 L 369.925781 76.578125 L 366.679688 79.851562 L 363.605469 83.289062 "/>
<path style="fill:none;stroke-width:1.066978;stroke-linecap:round;stroke-linejoin:round;stroke:rgb(0%,0%,0%);stroke-opacity:1;stroke-miterlimit:10;" d="M 363.835938 99.632812 L 361.757812 103.1875 L 359.863281 106.839844 L 358.15625 110.585938 L 356.636719 114.410156 L 355.316406 118.308594 L 354.191406 122.265625 "/>
<path style="fill:none;stroke-width:1.066978;stroke-linecap:round;stroke-linejoin:round;stroke:rgb(0%,0%,0%);stroke-opacity:1;stroke-miterlimit:10;" d="M 353.410156 122.066406 L 352.476562 126.117188 L 351.746094 130.207031 L 351.226562 134.332031 "/>
<path style="fill:none;stroke-width:1.066978;stroke-linecap:butt;stroke-linejoin:round;stroke:rgb(0%,0%,0%);stroke-opacity:1;stroke-miterlimit:10;" d="M 437.121094 91.558594 L 436.542969 99.417969 L 436.253906 103.34375 L 435.964844 107.273438 L 435.679688 111.203125 L 435.390625 115.128906 L 434.523438 126.917969 L 434.234375 130.84375 L 433.945312 134.773438 L 433.660156 138.703125 L 433.371094 142.628906 "/>
<path style=" stroke:none;fill-rule:nonzero;fill:rgb(0%,0%,0%);fill-opacity:1;" d="M 302.53125 11.699219 L 302.527344 11.84375 L 302.519531 11.984375 L 302.503906 12.121094 L 302.484375 12.253906 L 302.457031 12.378906 L 302.425781 12.503906 L 302.386719 12.625 L 302.292969 12.851562 L 302.234375 12.957031 L 302.175781 13.058594 L 302.109375 13.15625 L 302.039062 13.253906 L 301.964844 13.34375 L 301.886719 13.429688 L 301.804688 13.515625 L 301.71875 13.59375 L 301.625 13.671875 L 301.53125 13.742188 L 301.429688 13.8125 L 301.328125 13.875 L 301.21875 13.9375 L 301.109375 13.992188 L 300.996094 14.046875 L 300.878906 14.097656 L 300.761719 14.144531 L 300.636719 14.1875 L 300.511719 14.226562 L 300.378906 14.265625 L 300.246094 14.296875 L 299.972656 14.351562 L 299.832031 14.375 L 299.691406 14.394531 L 299.550781 14.410156 L 299.40625 14.421875 L 299.257812 14.433594 L 299.109375 14.441406 L 298.8125 14.449219 L 293.992188 14.449219 L 293.992188 4.816406 L 298.570312 4.816406 L 298.734375 4.820312 L 298.894531 4.828125 L 299.054688 4.839844 L 299.207031 4.855469 L 299.355469 4.871094 L 299.503906 4.890625 L 299.785156 4.9375 L 299.917969 4.964844 L 300.050781 4.996094 L 300.179688 5.03125 L 300.300781 5.066406 L 300.421875 5.105469 L 300.535156 5.148438 L 300.644531 5.195312 L 300.753906 5.246094 L 300.855469 5.296875 L 300.953125 5.351562 L 301.046875 5.410156 L 301.136719 5.472656 L 301.300781 5.605469 L 301.375 5.675781 L 301.449219 5.75 L 301.515625 5.828125 L 301.578125 5.910156 L 301.636719 5.992188 L 301.6875 6.078125 L 301.738281 6.167969 L 301.824219 6.355469 L 301.859375 6.453125 L 301.890625 6.554688 L 301.917969 6.660156 L 301.9375 6.769531 L 301.953125 6.882812 L 301.964844 6.996094 L 301.972656 7.113281 L 301.976562 7.234375 L 301.972656 7.398438 L 301.957031 7.554688 L 301.933594 7.707031 L 301.902344 7.851562 L 301.863281 7.992188 L 301.8125 8.128906 L 301.75 8.261719 L 301.683594 8.386719 L 301.605469 8.507812 L 301.519531 8.625 L 301.421875 8.730469 L 301.320312 8.832031 L 301.203125 8.925781 L 301.082031 9.015625 L 300.949219 9.09375 L 300.804688 9.164062 L 300.652344 9.230469 L 300.488281 9.289062 L 300.320312 9.339844 L 300.136719 9.382812 L 300.367188 9.414062 L 300.582031 9.457031 L 300.789062 9.507812 L 300.984375 9.566406 L 301.167969 9.636719 L 301.339844 9.714844 L 301.5 9.800781 L 301.648438 9.898438 L 301.789062 10.003906 L 301.914062 10.121094 L 302.03125 10.242188 L 302.136719 10.375 L 302.226562 10.511719 L 302.308594 10.660156 L 302.375 10.8125 L 302.429688 10.972656 L 302.472656 11.144531 L 302.503906 11.320312 L 302.523438 11.507812 Z M 299.945312 7.507812 L 299.941406 7.382812 L 299.929688 7.265625 L 299.910156 7.152344 L 299.878906 7.050781 L 299.839844 6.953125 L 299.796875 6.867188 L 299.742188 6.785156 L 299.679688 6.710938 L 299.609375 6.644531 L 299.527344 6.585938 L 299.441406 6.535156 L 299.347656 6.488281 L 299.246094 6.445312 L 299.136719 6.410156 L 299.019531 6.382812 L 298.890625 6.355469 L 298.757812 6.335938 L 298.613281 6.324219 L 298.464844 6.316406 L 298.304688 6.3125 L 296.007812 6.3125 L 296.007812 8.699219 L 298.320312 8.699219 L 298.484375 8.695312 L 298.640625 8.6875 L 298.789062 8.671875 L 298.925781 8.652344 L 299.054688 8.625 L 299.175781 8.59375 L 299.285156 8.554688 L 299.382812 8.511719 L 299.476562 8.460938 L 299.554688 8.40625 L 299.628906 8.339844 L 299.695312 8.273438 L 299.753906 8.199219 L 299.804688 8.117188 L 299.847656 8.03125 L 299.882812 7.9375 L 299.910156 7.839844 L 299.929688 7.734375 L 299.941406 7.625 Z M 300.507812 11.542969 L 300.5 11.394531 L 300.492188 11.324219 L 300.46875 11.191406 L 300.453125 11.128906 L 300.433594 11.066406 L 300.410156 11.007812 L 300.355469 10.898438 L 300.324219 10.847656 L 300.292969 10.800781 L 300.253906 10.753906 L 300.21875 10.707031 L 300.175781 10.664062 L 300.089844 10.585938 L 300.039062 10.550781 L 299.992188 10.515625 L 299.9375 10.484375 L 299.886719 10.453125 L 299.832031 10.421875 L 299.773438 10.398438 L 299.714844 10.371094 L 299.65625 10.347656 L 299.59375 10.328125 L 299.527344 10.304688 L 299.394531 10.273438 L 299.324219 10.257812 L 299.183594 10.234375 L 299.109375 10.222656 L 298.960938 10.207031 L 298.882812 10.199219 L 298.726562 10.191406 L 298.644531 10.191406 L 298.566406 10.1875 L 296.007812 10.1875 L 296.007812 12.949219 L 298.796875 12.949219 L 298.875 12.945312 L 298.949219 12.941406 L 299.023438 12.933594 L 299.097656 12.929688 L 299.167969 12.921875 L 299.238281 12.910156 L 299.308594 12.902344 L 299.378906 12.890625 L 299.511719 12.859375 L 299.636719 12.820312 L 299.753906 12.773438 L 299.808594 12.75 L 299.917969 12.695312 L 299.964844 12.664062 L 300.015625 12.628906 L 300.0625 12.59375 L 300.109375 12.554688 L 300.152344 12.515625 L 300.191406 12.472656 L 300.230469 12.425781 L 300.300781 12.332031 L 300.332031 12.28125 L 300.363281 12.226562 L 300.390625 12.171875 L 300.414062 12.109375 L 300.4375 12.050781 L 300.46875 11.917969 L 300.484375 11.847656 L 300.492188 11.777344 L 300.5 11.699219 L 300.503906 11.625 Z M 300.507812 11.542969 "/>
</g>
</svg>
