<?xml version="1.0" encoding="UTF-8"?>
<svg xmlns="http://www.w3.org/2000/svg" xmlns:xlink="http://www.w3.org/1999/xlink" width="576pt" height="288pt" viewBox="0 0 576 288" version="1.1">
<defs>
<clipPath id="clip1">
  <path d="M 8.679688 0 L 567.324219 0 L 567.324219 288 L 8.679688 288 Z M 8.679688 0 "/>
</clipPath>
<clipPath id="clip2">
  <path d="M 14.15625 5.480469 L 288 5.480469 L 288 282.523438 L 14.15625 282.523438 Z M 14.15625 5.480469 "/>
</clipPath>
<clipPath id="clip3">
  <path d="M 288 5.480469 L 561.84375 5.480469 L 561.84375 282.523438 L 288 282.523438 Z M 288 5.480469 "/>
</clipPath>
</defs>
<g id="surface2287">
<rect x="0" y="0" width="576" height="288" style="fill:rgb(100%,100%,100%);fill-opacity:1;stroke:none;"/>
<g clip-path="url(#clip1)" clip-rule="nonzero">
<path style="fill-rule:nonzero;fill:rgb(100%,100%,100%);fill-opacity:1;stroke-width:1.066978;stroke-linecap:round;stroke-linejoin:round;stroke:rgb(100%,100%,100%);stroke-opacity:1;stroke-miterlimit:10;" d="M 8.679688 288 L 567.324219 288 L 567.324219 0 L 8.679688 0 Z M 8.679688 288 "/>
</g>
<g clip-path="url(#clip2)" clip-rule="nonzero">
<path style="fill-rule:nonzero;fill:rgb(100%,100%,100%);fill-opacity:1;stroke-width:1.066978;stroke-linecap:round;stroke-linejoin:round;stroke:rgb(100%,100%,100%);stroke-opacity:1;stroke-miterlimit:10;" d="M 14.15625 282.519531 L 288 282.519531 L 288 5.476562 L 14.15625 5.476562 Z M 14.15625 282.519531 "/>
</g>
<path style="fill-rule:nonzero;fill:rgb(100%,100%,100%);fill-opacity:1;stroke-width:1.066978;stroke-linecap:round;stroke-linejoin:round;stroke:rgb(100%,100%,100%);stroke-opacity:1;stroke-miterlimit:10;" d="M 31.714844 274.300781 L 282.519531 274.300781 L 282.519531 23.496094 L 31.714844 23.496094 Z M 31.714844 274.300781 "/>
<path style="fill:none;stroke-width:1.066978;stroke-linecap:round;stroke-linejoin:round;stroke:rgb(0%,0%,0%);stroke-opacity:1;stroke-miterlimit:10;" d="M 144.988281 223.539062 L 144.695312 225.339844 "/>
<path style="fill:none;stroke-width:1.066978;stroke-linecap:round;stroke-linejoin:round;stroke:rgb(0%,0%,0%);stroke-opacity:1;stroke-miterlimit:10;" d="M 160.78125 239.804688 L 160.785156 239.925781 "/>
<path style="fill:none;stroke-width:1.066978;stroke-linecap:round;stroke-linejoin:round;stroke:rgb(0%,0%,0%);stroke-opacity:1;stroke-miterlimit:10;" d="M 178.890625 237.234375 L 179.4375 239.457031 "/>
<path style="fill:none;stroke-width:1.066978;stroke-linecap:round;stroke-linejoin:round;stroke:rgb(0%,0%,0%);stroke-opacity:1;stroke-miterlimit:10;" d="M 196.355469 231.59375 L 197.617188 234.246094 "/>
<path style="fill:none;stroke-width:1.066978;stroke-linecap:round;stroke-linejoin:round;stroke:rgb(0%,0%,0%);stroke-opacity:1;stroke-miterlimit:10;" d="M 212.105469 222.074219 L 214.933594 225.835938 "/>
<path style="fill:none;stroke-width:1.066978;stroke-linecap:round;stroke-linejoin:round;stroke:rgb(0%,0%,0%);stroke-opacity:1;stroke-miterlimit:10;" d="M 221.394531 205.84375 L 225.394531 209.386719 "/>
<path style="fill:none;stroke-width:1.066978;stroke-linecap:round;stroke-linejoin:round;stroke:rgb(0%,0%,0%);stroke-opacity:1;stroke-miterlimit:10;" d="M 244.660156 178.125 L 249.828125 179.847656 "/>
<path style="fill:none;stroke-width:1.066978;stroke-linecap:round;stroke-linejoin:round;stroke:rgb(0%,0%,0%);stroke-opacity:1;stroke-miterlimit:10;" d="M 248.738281 160.023438 L 253.179688 160.5625 "/>
<path style="fill:none;stroke-width:1.066978;stroke-linecap:round;stroke-linejoin:round;stroke:rgb(0%,0%,0%);stroke-opacity:1;stroke-miterlimit:10;" d="M 232.417969 192.375 L 233.675781 193.097656 "/>
<path style="fill:none;stroke-width:1.066978;stroke-linecap:round;stroke-linejoin:round;stroke:rgb(0%,0%,0%);stroke-opacity:1;stroke-miterlimit:10;" d="M 83.664062 180.195312 L 81.851562 180.96875 "/>
<path style="fill:none;stroke-width:1.066978;stroke-linecap:round;stroke-linejoin:round;stroke:rgb(0%,0%,0%);stroke-opacity:1;stroke-miterlimit:10;" d="M 83.207031 199.917969 L 82.449219 200.4375 "/>
<path style="fill:none;stroke-width:1.066978;stroke-linecap:round;stroke-linejoin:round;stroke:rgb(0%,0%,0%);stroke-opacity:1;stroke-miterlimit:10;" d="M 94.90625 213.667969 L 92.402344 216.273438 "/>
<path style="fill:none;stroke-width:1.066978;stroke-linecap:round;stroke-linejoin:round;stroke:rgb(0%,0%,0%);stroke-opacity:1;stroke-miterlimit:10;" d="M 111.488281 221.054688 L 111.253906 221.425781 "/>
<path style="fill:none;stroke-width:1.066978;stroke-linecap:round;stroke-linejoin:round;stroke:rgb(0%,0%,0%);stroke-opacity:1;stroke-miterlimit:10;" d="M 126.84375 228.726562 L 126.390625 229.921875 "/>
<path style="fill:none;stroke-width:1.066978;stroke-linecap:round;stroke-linejoin:round;stroke:rgb(0%,0%,0%);stroke-opacity:1;stroke-miterlimit:10;" d="M 84.808594 163.660156 L 83.4375 163.941406 "/>
<path style="fill:none;stroke-width:1.066978;stroke-linecap:round;stroke-linejoin:round;stroke:rgb(0%,0%,0%);stroke-opacity:1;stroke-miterlimit:10;" d="M 222.816406 110.964844 L 223.183594 110.757812 "/>
<path style="fill:none;stroke-width:1.066978;stroke-linecap:round;stroke-linejoin:round;stroke:rgb(0%,0%,0%);stroke-opacity:1;stroke-miterlimit:10;" d="M 211.851562 76.058594 L 213.589844 73.75 "/>
<path style="fill:none;stroke-width:1.066978;stroke-linecap:round;stroke-linejoin:round;stroke:rgb(0%,0%,0%);stroke-opacity:1;stroke-miterlimit:10;" d="M 196.175781 66.582031 L 197.492188 63.808594 "/>
<path style="fill:none;stroke-width:1.066978;stroke-linecap:round;stroke-linejoin:round;stroke:rgb(0%,0%,0%);stroke-opacity:1;stroke-miterlimit:10;" d="M 160.980469 53.074219 L 161.15625 48.65625 "/>
<path style="fill:none;stroke-width:1.066978;stroke-linecap:round;stroke-linejoin:round;stroke:rgb(0%,0%,0%);stroke-opacity:1;stroke-miterlimit:10;" d="M 141.734375 54.238281 L 141.699219 54.035156 "/>
<path style="fill:none;stroke-width:1.066978;stroke-linecap:round;stroke-linejoin:round;stroke:rgb(0%,0%,0%);stroke-opacity:1;stroke-miterlimit:10;" d="M 179.039062 59.96875 L 179.726562 57.175781 "/>
<path style="fill:none;stroke-width:1.066978;stroke-linecap:round;stroke-linejoin:round;stroke:rgb(0%,0%,0%);stroke-opacity:1;stroke-miterlimit:10;" d="M 218.679688 94.359375 L 219.113281 93.976562 "/>
<path style="fill:none;stroke-width:1.066978;stroke-linecap:round;stroke-linejoin:round;stroke:rgb(0%,0%,0%);stroke-opacity:1;stroke-miterlimit:10;" d="M 91.914062 81.011719 L 91.339844 80.414062 "/>
<path style="fill:none;stroke-width:1.066978;stroke-linecap:round;stroke-linejoin:round;stroke:rgb(0%,0%,0%);stroke-opacity:1;stroke-miterlimit:10;" d="M 79.652344 95.425781 L 75.957031 92.878906 "/>
<path style="fill:none;stroke-width:1.066978;stroke-linecap:round;stroke-linejoin:round;stroke:rgb(0%,0%,0%);stroke-opacity:1;stroke-miterlimit:10;" d="M 109.539062 73.660156 L 108.765625 72.4375 "/>
<path style="fill:none;stroke-width:1.066978;stroke-linecap:round;stroke-linejoin:round;stroke:rgb(0%,0%,0%);stroke-opacity:1;stroke-miterlimit:10;" d="M 80.398438 116.210938 L 76.148438 114.402344 "/>
<path style="fill:none;stroke-width:1.066978;stroke-linecap:round;stroke-linejoin:round;stroke:rgb(0%,0%,0%);stroke-opacity:1;stroke-miterlimit:10;" d="M 69.488281 131.007812 L 67.113281 130.523438 "/>
<path style="fill:none;stroke-width:1.066978;stroke-linecap:round;stroke-linejoin:round;stroke:rgb(0%,0%,0%);stroke-opacity:1;stroke-miterlimit:10;" d="M 67.683594 148.898438 L 61.300781 148.898438 "/>
<path style="fill:none;stroke-width:1.066978;stroke-linecap:round;stroke-linejoin:round;stroke:rgb(0%,0%,0%);stroke-opacity:1;stroke-miterlimit:10;" d="M 129.769531 76.789062 L 129.046875 74.875 "/>
<path style="fill:none;stroke-width:1.066978;stroke-linecap:round;stroke-linejoin:round;stroke:rgb(0%,0%,0%);stroke-opacity:1;stroke-miterlimit:10;" d="M 217.679688 128.679688 L 220.230469 127.828125 "/>
<path style="fill:none;stroke-width:1.066978;stroke-linecap:round;stroke-linejoin:round;stroke:rgb(0%,0%,0%);stroke-opacity:1;stroke-miterlimit:10;" d="M 161.792969 85.222656 L 161.792969 85.222656 "/>
<path style="fill:none;stroke-width:1.066978;stroke-linecap:round;stroke-linejoin:round;stroke:rgb(0%,0%,0%);stroke-opacity:1;stroke-miterlimit:10;" d="M 100.160156 120.050781 L 94.507812 117.1875 "/>
<path style="fill:none;stroke-width:1.066978;stroke-linecap:round;stroke-linejoin:round;stroke:rgb(0%,0%,0%);stroke-opacity:1;stroke-miterlimit:10;" d="M 127.152344 212.359375 L 126.886719 212.917969 "/>
<path style="fill:none;stroke-width:1.066978;stroke-linecap:round;stroke-linejoin:round;stroke:rgb(0%,0%,0%);stroke-opacity:1;stroke-miterlimit:10;" d="M 175.355469 217.308594 L 176.597656 221.96875 "/>
<path style="fill:none;stroke-width:1.066978;stroke-linecap:round;stroke-linejoin:round;stroke:rgb(0%,0%,0%);stroke-opacity:1;stroke-miterlimit:10;" d="M 204.796875 207.59375 L 207.835938 211.335938 "/>
<path style="fill:none;stroke-width:1.066978;stroke-linecap:round;stroke-linejoin:round;stroke:rgb(0%,0%,0%);stroke-opacity:1;stroke-miterlimit:10;" d="M 184.121094 224.667969 L 186.015625 229.980469 "/>
<path style="fill:none;stroke-width:1.066978;stroke-linecap:round;stroke-linejoin:round;stroke:rgb(0%,0%,0%);stroke-opacity:1;stroke-miterlimit:10;" d="M 169.210938 234.125 L 169.902344 238.976562 "/>
<path style="fill:none;stroke-width:1.066978;stroke-linecap:round;stroke-linejoin:round;stroke:rgb(0%,0%,0%);stroke-opacity:1;stroke-miterlimit:10;" d="M 201.648438 222.5625 L 204.46875 227.230469 "/>
<path style="fill:none;stroke-width:1.066978;stroke-linecap:round;stroke-linejoin:round;stroke:rgb(0%,0%,0%);stroke-opacity:1;stroke-miterlimit:10;" d="M 225.746094 190.859375 L 230.382812 193.695312 "/>
<path style="fill:none;stroke-width:1.066978;stroke-linecap:round;stroke-linejoin:round;stroke:rgb(0%,0%,0%);stroke-opacity:1;stroke-miterlimit:10;" d="M 237.101562 180.15625 L 238.105469 180.550781 "/>
<path style="fill:none;stroke-width:1.066978;stroke-linecap:round;stroke-linejoin:round;stroke:rgb(0%,0%,0%);stroke-opacity:1;stroke-miterlimit:10;" d="M 241.945312 168.003906 L 247.15625 169.175781 "/>
<path style="fill:none;stroke-width:1.066978;stroke-linecap:round;stroke-linejoin:round;stroke:rgb(0%,0%,0%);stroke-opacity:1;stroke-miterlimit:10;" d="M 92.703125 178.28125 L 89.972656 179.527344 "/>
<path style="fill:none;stroke-width:1.066978;stroke-linecap:round;stroke-linejoin:round;stroke:rgb(0%,0%,0%);stroke-opacity:1;stroke-miterlimit:10;" d="M 98.566406 193.824219 L 93.773438 197.503906 "/>
<path style="fill:none;stroke-width:1.066978;stroke-linecap:round;stroke-linejoin:round;stroke:rgb(0%,0%,0%);stroke-opacity:1;stroke-miterlimit:10;" d="M 107.878906 211.75 L 104.824219 215.644531 "/>
<path style="fill:none;stroke-width:1.066978;stroke-linecap:round;stroke-linejoin:round;stroke:rgb(0%,0%,0%);stroke-opacity:1;stroke-miterlimit:10;" d="M 92.53125 203.835938 L 88.707031 207.085938 "/>
<path style="fill:none;stroke-width:1.066978;stroke-linecap:round;stroke-linejoin:round;stroke:rgb(0%,0%,0%);stroke-opacity:1;stroke-miterlimit:10;" d="M 119.234375 224.753906 L 118.972656 225.277344 "/>
<path style="fill:none;stroke-width:1.066978;stroke-linecap:round;stroke-linejoin:round;stroke:rgb(0%,0%,0%);stroke-opacity:1;stroke-miterlimit:10;" d="M 190.550781 87.191406 L 193.257812 82.195312 "/>
<path style="fill:none;stroke-width:1.066978;stroke-linecap:round;stroke-linejoin:round;stroke:rgb(0%,0%,0%);stroke-opacity:1;stroke-miterlimit:10;" d="M 153.015625 73.144531 L 152.96875 72.347656 "/>
<path style="fill:none;stroke-width:1.066978;stroke-linecap:round;stroke-linejoin:round;stroke:rgb(0%,0%,0%);stroke-opacity:1;stroke-miterlimit:10;" d="M 199.226562 84.835938 L 202.292969 80.167969 "/>
<path style="fill:none;stroke-width:1.066978;stroke-linecap:round;stroke-linejoin:round;stroke:rgb(0%,0%,0%);stroke-opacity:1;stroke-miterlimit:10;" d="M 182.769531 70.753906 L 184.15625 66.527344 "/>
<path style="fill:none;stroke-width:1.066978;stroke-linecap:round;stroke-linejoin:round;stroke:rgb(0%,0%,0%);stroke-opacity:1;stroke-miterlimit:10;" d="M 201.96875 74.703125 L 204.253906 70.925781 "/>
<path style="fill:none;stroke-width:1.066978;stroke-linecap:round;stroke-linejoin:round;stroke:rgb(0%,0%,0%);stroke-opacity:1;stroke-miterlimit:10;" d="M 164.964844 62.558594 L 165.40625 57.683594 "/>
<path style="fill:none;stroke-width:1.066978;stroke-linecap:round;stroke-linejoin:round;stroke:rgb(0%,0%,0%);stroke-opacity:1;stroke-miterlimit:10;" d="M 151.585938 57.472656 L 151.328125 53.171875 "/>
<path style="fill:none;stroke-width:1.066978;stroke-linecap:round;stroke-linejoin:round;stroke:rgb(0%,0%,0%);stroke-opacity:1;stroke-miterlimit:10;" d="M 108.332031 89.757812 L 108.042969 89.40625 "/>
<path style="fill:none;stroke-width:1.066978;stroke-linecap:round;stroke-linejoin:round;stroke:rgb(0%,0%,0%);stroke-opacity:1;stroke-miterlimit:10;" d="M 91.523438 108.339844 L 86.617188 105.304688 "/>
<path style="fill:none;stroke-width:1.066978;stroke-linecap:round;stroke-linejoin:round;stroke:rgb(0%,0%,0%);stroke-opacity:1;stroke-miterlimit:10;" d="M 102.78125 86.304688 L 98.761719 81.675781 "/>
<path style="fill:none;stroke-width:1.066978;stroke-linecap:round;stroke-linejoin:round;stroke:rgb(0%,0%,0%);stroke-opacity:1;stroke-miterlimit:10;" d="M 89.3125 91.222656 L 85.417969 87.910156 "/>
<path style="fill:none;stroke-width:1.066978;stroke-linecap:round;stroke-linejoin:round;stroke:rgb(0%,0%,0%);stroke-opacity:1;stroke-miterlimit:10;" d="M 76.839844 128.253906 L 76.355469 128.128906 "/>
<path style="fill:none;stroke-width:1.066978;stroke-linecap:round;stroke-linejoin:round;stroke:rgb(0%,0%,0%);stroke-opacity:1;stroke-miterlimit:10;" d="M 74.148438 140.515625 L 68.136719 139.910156 "/>
<path style="fill:none;stroke-width:1.066978;stroke-linecap:round;stroke-linejoin:round;stroke:rgb(0%,0%,0%);stroke-opacity:1;stroke-miterlimit:10;" d="M 176.597656 221.96875 L 173.15625 222.800781 L 169.675781 223.46875 L 166.171875 223.976562 L 162.644531 224.316406 L 159.105469 224.492188 L 155.5625 224.503906 L 152.023438 224.347656 L 148.496094 224.027344 L 144.988281 223.539062 "/>
<path style="fill:none;stroke-width:1.066978;stroke-linecap:round;stroke-linejoin:round;stroke:rgb(0%,0%,0%);stroke-opacity:1;stroke-miterlimit:10;" d="M 169.902344 238.976562 L 165.351562 239.503906 L 160.78125 239.804688 "/>
<path style="fill:none;stroke-width:1.066978;stroke-linecap:round;stroke-linejoin:round;stroke:rgb(0%,0%,0%);stroke-opacity:1;stroke-miterlimit:10;" d="M 169.902344 238.976562 L 174.417969 238.21875 L 178.890625 237.234375 "/>
<path style="fill:none;stroke-width:1.066978;stroke-linecap:round;stroke-linejoin:round;stroke:rgb(0%,0%,0%);stroke-opacity:1;stroke-miterlimit:10;" d="M 204.46875 227.230469 L 200.46875 229.511719 L 196.355469 231.59375 "/>
<path style="fill:none;stroke-width:1.066978;stroke-linecap:round;stroke-linejoin:round;stroke:rgb(0%,0%,0%);stroke-opacity:1;stroke-miterlimit:10;" d="M 204.46875 227.230469 L 208.351562 224.746094 L 212.105469 222.074219 "/>
<path style="fill:none;stroke-width:1.066978;stroke-linecap:round;stroke-linejoin:round;stroke:rgb(0%,0%,0%);stroke-opacity:1;stroke-miterlimit:10;" d="M 230.382812 193.695312 L 228.339844 196.878906 L 226.15625 199.96875 L 223.839844 202.957031 L 221.394531 205.84375 "/>
<path style="fill:none;stroke-width:1.066978;stroke-linecap:round;stroke-linejoin:round;stroke:rgb(0%,0%,0%);stroke-opacity:1;stroke-miterlimit:10;" d="M 247.15625 169.175781 L 246.023438 173.683594 L 244.660156 178.125 "/>
<path style="fill:none;stroke-width:1.066978;stroke-linecap:round;stroke-linejoin:round;stroke:rgb(0%,0%,0%);stroke-opacity:1;stroke-miterlimit:10;" d="M 247.15625 169.175781 L 248.0625 164.621094 L 248.738281 160.023438 "/>
<path style="fill:none;stroke-width:1.066978;stroke-linecap:round;stroke-linejoin:round;stroke:rgb(0%,0%,0%);stroke-opacity:1;stroke-miterlimit:10;" d="M 238.105469 180.550781 L 236.410156 184.585938 L 234.511719 188.53125 L 232.417969 192.375 "/>
<path style="fill:none;stroke-width:1.066978;stroke-linecap:round;stroke-linejoin:round;stroke:rgb(0%,0%,0%);stroke-opacity:1;stroke-miterlimit:10;" d="M 93.773438 197.503906 L 91.410156 194.253906 L 89.210938 190.890625 L 87.183594 187.417969 L 85.332031 183.851562 L 83.664062 180.195312 "/>
<path style="fill:none;stroke-width:1.066978;stroke-linecap:round;stroke-linejoin:round;stroke:rgb(0%,0%,0%);stroke-opacity:1;stroke-miterlimit:10;" d="M 88.707031 207.085938 L 85.867188 203.570312 L 83.207031 199.917969 "/>
<path style="fill:none;stroke-width:1.066978;stroke-linecap:round;stroke-linejoin:round;stroke:rgb(0%,0%,0%);stroke-opacity:1;stroke-miterlimit:10;" d="M 88.707031 207.085938 L 91.722656 210.457031 L 94.90625 213.667969 "/>
<path style="fill:none;stroke-width:1.066978;stroke-linecap:round;stroke-linejoin:round;stroke:rgb(0%,0%,0%);stroke-opacity:1;stroke-miterlimit:10;" d="M 118.972656 225.277344 L 115.175781 223.261719 L 111.488281 221.054688 "/>
<path style="fill:none;stroke-width:1.066978;stroke-linecap:round;stroke-linejoin:round;stroke:rgb(0%,0%,0%);stroke-opacity:1;stroke-miterlimit:10;" d="M 118.972656 225.277344 L 122.863281 227.101562 L 126.84375 228.726562 "/>
<path style="fill:none;stroke-width:1.066978;stroke-linecap:round;stroke-linejoin:round;stroke:rgb(0%,0%,0%);stroke-opacity:1;stroke-miterlimit:10;" d="M 89.972656 179.527344 L 88.347656 175.675781 L 86.941406 171.738281 L 85.761719 167.730469 L 84.808594 163.660156 "/>
<path style="fill:none;stroke-width:1.066978;stroke-linecap:round;stroke-linejoin:round;stroke:rgb(0%,0%,0%);stroke-opacity:1;stroke-miterlimit:10;" d="M 193.257812 82.195312 L 196.28125 83.925781 L 199.21875 85.789062 L 202.070312 87.785156 L 204.824219 89.914062 L 207.480469 92.164062 L 210.03125 94.535156 L 212.46875 97.019531 L 214.789062 99.613281 L 216.992188 102.308594 L 219.066406 105.105469 L 221.007812 107.992188 L 222.816406 110.964844 "/>
<path style="fill:none;stroke-width:1.066978;stroke-linecap:round;stroke-linejoin:round;stroke:rgb(0%,0%,0%);stroke-opacity:1;stroke-miterlimit:10;" d="M 204.253906 70.925781 L 208.117188 73.398438 L 211.851562 76.058594 "/>
<path style="fill:none;stroke-width:1.066978;stroke-linecap:round;stroke-linejoin:round;stroke:rgb(0%,0%,0%);stroke-opacity:1;stroke-miterlimit:10;" d="M 204.253906 70.925781 L 200.269531 68.652344 L 196.175781 66.582031 "/>
<path style="fill:none;stroke-width:1.066978;stroke-linecap:round;stroke-linejoin:round;stroke:rgb(0%,0%,0%);stroke-opacity:1;stroke-miterlimit:10;" d="M 151.328125 53.171875 L 156.152344 53 L 160.980469 53.074219 "/>
<path style="fill:none;stroke-width:1.066978;stroke-linecap:round;stroke-linejoin:round;stroke:rgb(0%,0%,0%);stroke-opacity:1;stroke-miterlimit:10;" d="M 151.328125 53.171875 L 146.515625 53.582031 L 141.734375 54.238281 "/>
<path style="fill:none;stroke-width:1.066978;stroke-linecap:round;stroke-linejoin:round;stroke:rgb(0%,0%,0%);stroke-opacity:1;stroke-miterlimit:10;" d="M 165.40625 57.683594 L 168.84375 58.0625 L 172.265625 58.566406 L 175.664062 59.203125 L 179.039062 59.96875 "/>
<path style="fill:none;stroke-width:1.066978;stroke-linecap:round;stroke-linejoin:round;stroke:rgb(0%,0%,0%);stroke-opacity:1;stroke-miterlimit:10;" d="M 202.292969 80.167969 L 205.277344 82.226562 L 208.167969 84.410156 L 210.957031 86.722656 L 213.644531 89.152344 L 216.21875 91.699219 L 218.679688 94.359375 "/>
<path style="fill:none;stroke-width:1.066978;stroke-linecap:round;stroke-linejoin:round;stroke:rgb(0%,0%,0%);stroke-opacity:1;stroke-miterlimit:10;" d="M 85.417969 87.910156 L 88.578125 84.378906 L 91.914062 81.011719 "/>
<path style="fill:none;stroke-width:1.066978;stroke-linecap:round;stroke-linejoin:round;stroke:rgb(0%,0%,0%);stroke-opacity:1;stroke-miterlimit:10;" d="M 85.417969 87.910156 L 82.441406 91.597656 L 79.652344 95.425781 "/>
<path style="fill:none;stroke-width:1.066978;stroke-linecap:round;stroke-linejoin:round;stroke:rgb(0%,0%,0%);stroke-opacity:1;stroke-miterlimit:10;" d="M 98.761719 81.675781 L 102.21875 78.824219 L 105.816406 76.152344 L 109.539062 73.660156 "/>
<path style="fill:none;stroke-width:1.066978;stroke-linecap:round;stroke-linejoin:round;stroke:rgb(0%,0%,0%);stroke-opacity:1;stroke-miterlimit:10;" d="M 76.355469 128.128906 L 77.5 124.089844 L 78.851562 120.113281 L 80.398438 116.210938 "/>
<path style="fill:none;stroke-width:1.066978;stroke-linecap:round;stroke-linejoin:round;stroke:rgb(0%,0%,0%);stroke-opacity:1;stroke-miterlimit:10;" d="M 68.136719 139.910156 L 68.699219 135.441406 L 69.488281 131.007812 "/>
<path style="fill:none;stroke-width:1.066978;stroke-linecap:round;stroke-linejoin:round;stroke:rgb(0%,0%,0%);stroke-opacity:1;stroke-miterlimit:10;" d="M 68.136719 139.910156 L 67.796875 144.398438 L 67.683594 148.898438 "/>
<path style="fill:none;stroke-width:1.066978;stroke-linecap:round;stroke-linejoin:round;stroke:rgb(0%,0%,0%);stroke-opacity:1;stroke-miterlimit:10;" d="M 108.042969 89.40625 L 110.875 87.179688 L 113.8125 85.085938 L 116.839844 83.128906 L 119.957031 81.320312 L 123.15625 79.65625 L 126.429688 78.144531 L 129.769531 76.789062 "/>
<path style="fill:none;stroke-width:1.066978;stroke-linecap:round;stroke-linejoin:round;stroke:rgb(0%,0%,0%);stroke-opacity:1;stroke-miterlimit:10;" d="M 161.792969 85.222656 L 165.1875 85.566406 L 168.558594 86.085938 L 171.894531 86.785156 L 175.191406 87.664062 L 178.433594 88.714844 L 181.617188 89.941406 L 184.730469 91.332031 L 187.765625 92.890625 L 190.710938 94.605469 L 193.5625 96.476562 L 196.3125 98.496094 L 198.945312 100.664062 L 201.460938 102.964844 L 203.851562 105.398438 L 206.109375 107.957031 L 208.222656 110.628906 L 210.195312 113.414062 L 212.011719 116.296875 L 213.675781 119.277344 L 215.175781 122.339844 L 216.511719 125.476562 L 217.679688 128.679688 "/>
<path style="fill:none;stroke-width:1.066978;stroke-linecap:round;stroke-linejoin:round;stroke:rgb(0%,0%,0%);stroke-opacity:1;stroke-miterlimit:10;" d="M 161.792969 85.222656 L 161.792969 85.222656 "/>
<path style="fill:none;stroke-width:1.066978;stroke-linecap:round;stroke-linejoin:round;stroke:rgb(0%,0%,0%);stroke-opacity:1;stroke-miterlimit:10;" d="M 161.792969 85.222656 L 158.386719 85.066406 L 154.976562 85.089844 L 151.574219 85.292969 L 148.183594 85.679688 L 144.824219 86.246094 L 141.496094 86.992188 L 138.210938 87.917969 L 134.980469 89.011719 L 131.816406 90.28125 L 128.722656 91.714844 L 125.710938 93.3125 L 122.785156 95.070312 L 119.960938 96.980469 L 117.242188 99.035156 L 114.636719 101.238281 L 112.152344 103.574219 L 109.796875 106.039062 L 107.574219 108.628906 L 105.496094 111.328125 L 103.5625 114.140625 L 101.78125 117.050781 L 100.160156 120.050781 "/>
<path style="fill:none;stroke-width:1.066978;stroke-linecap:round;stroke-linejoin:round;stroke:rgb(0%,0%,0%);stroke-opacity:1;stroke-miterlimit:10;" d="M 94.507812 117.1875 L 93.046875 120.253906 L 91.734375 123.390625 L 90.578125 126.585938 L 89.574219 129.835938 L 88.730469 133.128906 L 88.046875 136.457031 L 87.527344 139.816406 L 87.167969 143.195312 L 86.972656 146.589844 L 86.945312 149.988281 L 87.078125 153.386719 L 87.378906 156.773438 L 87.84375 160.140625 L 88.46875 163.480469 L 89.253906 166.789062 L 90.199219 170.050781 L 91.304688 173.269531 L 92.558594 176.425781 L 93.96875 179.519531 L 95.523438 182.542969 L 97.226562 185.484375 L 99.066406 188.339844 L 101.046875 191.105469 L 103.15625 193.769531 L 105.390625 196.332031 L 107.75 198.78125 L 110.222656 201.113281 L 112.804688 203.320312 L 115.492188 205.402344 L 118.277344 207.351562 L 121.152344 209.164062 L 124.113281 210.835938 L 127.152344 212.359375 "/>
<path style="fill:none;stroke-width:1.066978;stroke-linecap:round;stroke-linejoin:round;stroke:rgb(0%,0%,0%);stroke-opacity:1;stroke-miterlimit:10;" d="M 126.886719 212.917969 L 130.132812 214.351562 L 133.445312 215.621094 L 136.820312 216.722656 L 140.242188 217.65625 L 143.707031 218.414062 L 147.207031 219 L 150.734375 219.40625 L 154.273438 219.640625 L 157.820312 219.691406 L 161.367188 219.570312 L 164.902344 219.265625 L 168.417969 218.789062 L 171.90625 218.136719 L 175.355469 217.308594 "/>
<path style="fill:none;stroke-width:1.066978;stroke-linecap:round;stroke-linejoin:round;stroke:rgb(0%,0%,0%);stroke-opacity:1;stroke-miterlimit:10;" d="M 176.597656 221.96875 L 180 220.976562 L 183.347656 219.824219 L 186.640625 218.519531 L 189.871094 217.058594 L 193.027344 215.449219 L 196.105469 213.695312 L 199.09375 211.800781 L 201.996094 209.765625 L 204.796875 207.59375 "/>
<path style="fill:none;stroke-width:1.066978;stroke-linecap:round;stroke-linejoin:round;stroke:rgb(0%,0%,0%);stroke-opacity:1;stroke-miterlimit:10;" d="M 207.835938 211.335938 L 205.136719 213.433594 L 202.351562 215.414062 L 199.488281 217.273438 L 196.546875 219.011719 L 193.53125 220.625 L 190.453125 222.105469 L 187.316406 223.453125 L 184.121094 224.667969 "/>
<path style="fill:none;stroke-width:1.066978;stroke-linecap:round;stroke-linejoin:round;stroke:rgb(0%,0%,0%);stroke-opacity:1;stroke-miterlimit:10;" d="M 186.015625 229.980469 L 182.726562 231.078125 L 179.398438 232.042969 L 176.03125 232.875 L 172.632812 233.566406 L 169.210938 234.125 "/>
<path style="fill:none;stroke-width:1.066978;stroke-linecap:round;stroke-linejoin:round;stroke:rgb(0%,0%,0%);stroke-opacity:1;stroke-miterlimit:10;" d="M 186.015625 229.980469 L 189.257812 228.753906 L 192.445312 227.394531 L 195.578125 225.90625 L 198.648438 224.296875 L 201.648438 222.5625 "/>
<path style="fill:none;stroke-width:1.066978;stroke-linecap:round;stroke-linejoin:round;stroke:rgb(0%,0%,0%);stroke-opacity:1;stroke-miterlimit:10;" d="M 207.835938 211.335938 L 210.441406 209.125 L 212.949219 206.804688 L 215.359375 204.382812 L 217.660156 201.859375 L 219.855469 199.242188 L 221.9375 196.53125 L 223.902344 193.734375 L 225.746094 190.859375 "/>
<path style="fill:none;stroke-width:1.066978;stroke-linecap:round;stroke-linejoin:round;stroke:rgb(0%,0%,0%);stroke-opacity:1;stroke-miterlimit:10;" d="M 230.382812 193.695312 L 232.285156 190.425781 L 234.039062 187.074219 L 235.648438 183.648438 L 237.101562 180.15625 "/>
<path style="fill:none;stroke-width:1.066978;stroke-linecap:round;stroke-linejoin:round;stroke:rgb(0%,0%,0%);stroke-opacity:1;stroke-miterlimit:10;" d="M 238.105469 180.550781 L 239.59375 176.433594 L 240.875 172.246094 L 241.945312 168.003906 "/>
<path style="fill:none;stroke-width:1.066978;stroke-linecap:round;stroke-linejoin:round;stroke:rgb(0%,0%,0%);stroke-opacity:1;stroke-miterlimit:10;" d="M 126.886719 212.917969 L 123.71875 211.324219 L 120.632812 209.570312 L 117.640625 207.667969 L 114.746094 205.617188 L 111.957031 203.421875 L 109.28125 201.089844 L 106.726562 198.628906 L 104.296875 196.042969 L 102.003906 193.335938 L 99.84375 190.519531 L 97.832031 187.597656 L 95.96875 184.578125 L 94.257812 181.46875 L 92.703125 178.28125 "/>
<path style="fill:none;stroke-width:1.066978;stroke-linecap:round;stroke-linejoin:round;stroke:rgb(0%,0%,0%);stroke-opacity:1;stroke-miterlimit:10;" d="M 89.972656 179.527344 L 91.8125 183.277344 L 93.863281 186.917969 L 96.117188 190.4375 L 98.566406 193.824219 "/>
<path style="fill:none;stroke-width:1.066978;stroke-linecap:round;stroke-linejoin:round;stroke:rgb(0%,0%,0%);stroke-opacity:1;stroke-miterlimit:10;" d="M 93.773438 197.503906 L 96.300781 200.628906 L 98.980469 203.625 L 101.808594 206.480469 L 104.777344 209.191406 L 107.878906 211.75 "/>
<path style="fill:none;stroke-width:1.066978;stroke-linecap:round;stroke-linejoin:round;stroke:rgb(0%,0%,0%);stroke-opacity:1;stroke-miterlimit:10;" d="M 104.824219 215.644531 L 102.179688 213.484375 L 99.625 211.21875 L 97.160156 208.855469 L 94.796875 206.390625 L 92.53125 203.835938 "/>
<path style="fill:none;stroke-width:1.066978;stroke-linecap:round;stroke-linejoin:round;stroke:rgb(0%,0%,0%);stroke-opacity:1;stroke-miterlimit:10;" d="M 104.824219 215.644531 L 107.554688 217.695312 L 110.367188 219.636719 L 113.253906 221.460938 L 116.210938 223.167969 L 119.234375 224.753906 "/>
<path style="fill:none;stroke-width:1.066978;stroke-linecap:round;stroke-linejoin:round;stroke:rgb(0%,0%,0%);stroke-opacity:1;stroke-miterlimit:10;" d="M 94.507812 117.1875 L 96.117188 114.191406 L 97.871094 111.277344 L 99.761719 108.453125 L 101.785156 105.726562 L 103.941406 103.097656 L 106.222656 100.574219 L 108.621094 98.167969 L 111.136719 95.878906 L 113.757812 93.714844 L 116.480469 91.679688 L 119.296875 89.777344 L 122.203125 88.015625 L 125.191406 86.398438 L 128.257812 84.925781 L 131.386719 83.601562 L 134.582031 82.433594 L 137.824219 81.421875 L 141.113281 80.566406 L 144.441406 79.871094 L 147.800781 79.339844 L 151.179688 78.96875 L 154.570312 78.761719 L 157.96875 78.722656 L 161.367188 78.84375 L 164.753906 79.132812 L 168.125 79.585938 L 171.464844 80.199219 L 174.777344 80.976562 L 178.042969 81.910156 L 181.261719 83 L 184.425781 84.246094 L 187.523438 85.644531 L 190.550781 87.191406 "/>
<path style="fill:none;stroke-width:1.066978;stroke-linecap:round;stroke-linejoin:round;stroke:rgb(0%,0%,0%);stroke-opacity:1;stroke-miterlimit:10;" d="M 193.257812 82.195312 L 190.160156 80.609375 L 186.992188 79.164062 L 183.761719 77.867188 L 180.476562 76.71875 L 177.140625 75.722656 L 173.761719 74.882812 L 170.351562 74.199219 L 166.910156 73.667969 L 163.449219 73.300781 L 159.972656 73.089844 L 156.492188 73.035156 L 153.015625 73.144531 "/>
<path style="fill:none;stroke-width:1.066978;stroke-linecap:round;stroke-linejoin:round;stroke:rgb(0%,0%,0%);stroke-opacity:1;stroke-miterlimit:10;" d="M 152.96875 72.347656 L 156.449219 72.238281 L 159.929688 72.285156 L 163.402344 72.492188 L 166.863281 72.855469 L 170.304688 73.375 L 173.71875 74.054688 L 177.101562 74.882812 L 180.4375 75.867188 L 183.730469 77 L 186.964844 78.28125 L 190.140625 79.710938 L 193.246094 81.28125 L 196.277344 82.988281 L 199.226562 84.835938 "/>
<path style="fill:none;stroke-width:1.066978;stroke-linecap:round;stroke-linejoin:round;stroke:rgb(0%,0%,0%);stroke-opacity:1;stroke-miterlimit:10;" d="M 202.292969 80.167969 L 199.222656 78.246094 L 196.070312 76.460938 L 192.84375 74.816406 L 189.546875 73.3125 L 186.1875 71.957031 L 182.769531 70.753906 "/>
<path style="fill:none;stroke-width:1.066978;stroke-linecap:round;stroke-linejoin:round;stroke:rgb(0%,0%,0%);stroke-opacity:1;stroke-miterlimit:10;" d="M 184.15625 66.527344 L 187.859375 67.835938 L 191.5 69.3125 L 195.070312 70.949219 L 198.5625 72.75 L 201.96875 74.703125 "/>
<path style="fill:none;stroke-width:1.066978;stroke-linecap:round;stroke-linejoin:round;stroke:rgb(0%,0%,0%);stroke-opacity:1;stroke-miterlimit:10;" d="M 184.15625 66.527344 L 180.398438 65.386719 L 176.59375 64.417969 L 172.746094 63.621094 L 168.867188 63 L 164.964844 62.558594 "/>
<path style="fill:none;stroke-width:1.066978;stroke-linecap:round;stroke-linejoin:round;stroke:rgb(0%,0%,0%);stroke-opacity:1;stroke-miterlimit:10;" d="M 165.40625 57.683594 L 161.957031 57.433594 L 158.5 57.316406 L 155.042969 57.332031 L 151.585938 57.472656 "/>
<path style="fill:none;stroke-width:1.066978;stroke-linecap:round;stroke-linejoin:round;stroke:rgb(0%,0%,0%);stroke-opacity:1;stroke-miterlimit:10;" d="M 152.96875 72.347656 L 149.5 72.613281 L 146.046875 73.039062 L 142.613281 73.617188 L 139.210938 74.355469 L 135.847656 75.242188 L 132.527344 76.285156 L 129.257812 77.476562 L 126.042969 78.8125 L 122.894531 80.296875 L 119.816406 81.921875 L 116.816406 83.683594 L 113.898438 85.578125 L 111.066406 87.605469 L 108.332031 89.757812 "/>
<path style="fill:none;stroke-width:1.066978;stroke-linecap:round;stroke-linejoin:round;stroke:rgb(0%,0%,0%);stroke-opacity:1;stroke-miterlimit:10;" d="M 108.042969 89.40625 L 105.316406 91.765625 L 102.703125 94.25 L 100.207031 96.851562 L 97.839844 99.566406 L 95.597656 102.390625 L 93.492188 105.316406 L 91.523438 108.339844 "/>
<path style="fill:none;stroke-width:1.066978;stroke-linecap:round;stroke-linejoin:round;stroke:rgb(0%,0%,0%);stroke-opacity:1;stroke-miterlimit:10;" d="M 86.617188 105.304688 L 88.566406 102.304688 L 90.636719 99.390625 L 92.835938 96.566406 L 95.152344 93.84375 L 97.585938 91.222656 L 100.128906 88.707031 L 102.78125 86.304688 "/>
<path style="fill:none;stroke-width:1.066978;stroke-linecap:round;stroke-linejoin:round;stroke:rgb(0%,0%,0%);stroke-opacity:1;stroke-miterlimit:10;" d="M 98.761719 81.675781 L 95.453125 84.699219 L 92.300781 87.882812 L 89.3125 91.222656 "/>
<path style="fill:none;stroke-width:1.066978;stroke-linecap:round;stroke-linejoin:round;stroke:rgb(0%,0%,0%);stroke-opacity:1;stroke-miterlimit:10;" d="M 86.617188 105.304688 L 84.804688 108.386719 L 83.121094 111.542969 L 81.582031 114.769531 L 80.179688 118.0625 L 78.917969 121.410156 L 77.804688 124.808594 L 76.839844 128.253906 "/>
<path style="fill:none;stroke-width:1.066978;stroke-linecap:round;stroke-linejoin:round;stroke:rgb(0%,0%,0%);stroke-opacity:1;stroke-miterlimit:10;" d="M 76.355469 128.128906 L 75.410156 132.21875 L 74.675781 136.351562 L 74.148438 140.515625 "/>
<path style=" stroke:none;fill-rule:nonzero;fill:rgb(0%,0%,0%);fill-opacity:1;" d="M 27.613281 22.042969 L 26.515625 19.226562 L 22.125 19.226562 L 21.019531 22.042969 L 19.664062 22.042969 L 23.59375 12.410156 L 25.078125 12.410156 L 28.949219 22.042969 Z M 24.886719 15.03125 L 24.867188 14.976562 L 24.84375 14.921875 L 24.824219 14.863281 L 24.800781 14.808594 L 24.78125 14.753906 L 24.757812 14.699219 L 24.738281 14.644531 L 24.71875 14.585938 L 24.695312 14.53125 L 24.636719 14.367188 L 24.621094 14.3125 L 24.601562 14.261719 L 24.585938 14.210938 L 24.566406 14.160156 L 24.550781 14.109375 L 24.503906 13.96875 L 24.488281 13.925781 L 24.476562 13.878906 L 24.460938 13.839844 L 24.449219 13.796875 L 24.433594 13.757812 L 24.421875 13.722656 L 24.410156 13.683594 L 24.398438 13.652344 L 24.386719 13.617188 L 24.375 13.585938 L 24.367188 13.558594 L 24.355469 13.53125 L 24.351562 13.503906 L 24.34375 13.480469 L 24.335938 13.460938 L 24.332031 13.441406 L 24.328125 13.425781 L 24.320312 13.402344 L 24.320312 13.394531 L 24.316406 13.402344 L 24.308594 13.425781 L 24.304688 13.441406 L 24.296875 13.460938 L 24.292969 13.480469 L 24.285156 13.503906 L 24.269531 13.558594 L 24.257812 13.585938 L 24.25 13.621094 L 24.238281 13.652344 L 24.226562 13.6875 L 24.214844 13.726562 L 24.203125 13.761719 L 24.1875 13.804688 L 24.175781 13.84375 L 24.144531 13.929688 L 24.097656 14.070312 L 24.082031 14.121094 L 24.0625 14.171875 L 24.046875 14.222656 L 24.027344 14.273438 L 24.011719 14.324219 L 23.972656 14.433594 L 23.949219 14.488281 L 23.933594 14.546875 L 23.875 14.710938 L 23.855469 14.769531 L 23.832031 14.824219 L 23.753906 15.042969 L 22.523438 18.207031 L 26.125 18.207031 Z M 24.886719 15.03125 "/>
<g clip-path="url(#clip3)" clip-rule="nonzero">
<path style="fill-rule:nonzero;fill:rgb(100%,100%,100%);fill-opacity:1;stroke-width:1.066978;stroke-linecap:round;stroke-linejoin:round;stroke:rgb(100%,100%,100%);stroke-opacity:1;stroke-miterlimit:10;" d="M 288 282.519531 L 561.84375 282.519531 L 561.84375 5.476562 L 288 5.476562 Z M 288 282.519531 "/>
</g>
<path style="fill-rule:nonzero;fill:rgb(100%,100%,100%);fill-opacity:1;stroke-width:1.066978;stroke-linecap:round;stroke-linejoin:round;stroke:rgb(100%,100%,100%);stroke-opacity:1;stroke-miterlimit:10;" d="M 305.558594 274.300781 L 556.363281 274.300781 L 556.363281 23.496094 L 305.558594 23.496094 Z M 305.558594 274.300781 "/>
<path style="fill:none;stroke-width:1.066978;stroke-linecap:round;stroke-linejoin:round;stroke:rgb(0%,0%,0%);stroke-opacity:1;stroke-miterlimit:10;" d="M 420.679688 212.160156 L 420.25 214.800781 "/>
<path style="fill:none;stroke-width:1.066978;stroke-linecap:round;stroke-linejoin:round;stroke:rgb(0%,0%,0%);stroke-opacity:1;stroke-miterlimit:10;" d="M 434.449219 235.449219 L 434.453125 235.625 "/>
<path style="fill:none;stroke-width:1.066978;stroke-linecap:round;stroke-linejoin:round;stroke:rgb(0%,0%,0%);stroke-opacity:1;stroke-miterlimit:10;" d="M 451.6875 233 L 452.492188 236.261719 "/>
<path style="fill:none;stroke-width:1.066978;stroke-linecap:round;stroke-linejoin:round;stroke:rgb(0%,0%,0%);stroke-opacity:1;stroke-miterlimit:10;" d="M 468.4375 227.886719 L 470.285156 231.777344 "/>
<path style="fill:none;stroke-width:1.066978;stroke-linecap:round;stroke-linejoin:round;stroke:rgb(0%,0%,0%);stroke-opacity:1;stroke-miterlimit:10;" d="M 483.480469 218.792969 L 485.554688 221.550781 L 487.628906 224.3125 "/>
<path style="fill:none;stroke-width:1.066978;stroke-linecap:round;stroke-linejoin:round;stroke:rgb(0%,0%,0%);stroke-opacity:1;stroke-miterlimit:10;" d="M 490.191406 201.371094 L 493.121094 203.96875 L 496.054688 206.566406 "/>
<path style="fill:none;stroke-width:1.066978;stroke-linecap:round;stroke-linejoin:round;stroke:rgb(0%,0%,0%);stroke-opacity:1;stroke-miterlimit:10;" d="M 514.949219 176.9375 L 522.527344 179.46875 "/>
<path style="fill:none;stroke-width:1.066978;stroke-linecap:round;stroke-linejoin:round;stroke:rgb(0%,0%,0%);stroke-opacity:1;stroke-miterlimit:10;" d="M 518.859375 159.570312 L 525.375 160.363281 "/>
<path style="fill:none;stroke-width:1.066978;stroke-linecap:round;stroke-linejoin:round;stroke:rgb(0%,0%,0%);stroke-opacity:1;stroke-miterlimit:10;" d="M 500.855469 189.253906 L 502.699219 190.316406 "/>
<path style="fill:none;stroke-width:1.066978;stroke-linecap:round;stroke-linejoin:round;stroke:rgb(0%,0%,0%);stroke-opacity:1;stroke-miterlimit:10;" d="M 366.300781 176.449219 L 363.636719 177.582031 "/>
<path style="fill:none;stroke-width:1.066978;stroke-linecap:round;stroke-linejoin:round;stroke:rgb(0%,0%,0%);stroke-opacity:1;stroke-miterlimit:10;" d="M 361.085938 197.128906 L 359.976562 197.894531 "/>
<path style="fill:none;stroke-width:1.066978;stroke-linecap:round;stroke-linejoin:round;stroke:rgb(0%,0%,0%);stroke-opacity:1;stroke-miterlimit:10;" d="M 372.144531 210.132812 L 368.472656 213.953125 "/>
<path style="fill:none;stroke-width:1.066978;stroke-linecap:round;stroke-linejoin:round;stroke:rgb(0%,0%,0%);stroke-opacity:1;stroke-miterlimit:10;" d="M 389.058594 215.160156 L 388.714844 215.703125 "/>
<path style="fill:none;stroke-width:1.066978;stroke-linecap:round;stroke-linejoin:round;stroke:rgb(0%,0%,0%);stroke-opacity:1;stroke-miterlimit:10;" d="M 403.160156 222.203125 L 402.492188 223.957031 "/>
<path style="fill:none;stroke-width:1.066978;stroke-linecap:round;stroke-linejoin:round;stroke:rgb(0%,0%,0%);stroke-opacity:1;stroke-miterlimit:10;" d="M 370.777344 161.183594 L 368.769531 161.59375 "/>
<path style="fill:none;stroke-width:1.066978;stroke-linecap:round;stroke-linejoin:round;stroke:rgb(0%,0%,0%);stroke-opacity:1;stroke-miterlimit:10;" d="M 486.773438 116.675781 L 487.308594 116.367188 "/>
<path style="fill:none;stroke-width:1.066978;stroke-linecap:round;stroke-linejoin:round;stroke:rgb(0%,0%,0%);stroke-opacity:1;stroke-miterlimit:10;" d="M 483.113281 79.496094 L 485.660156 76.105469 "/>
<path style="fill:none;stroke-width:1.066978;stroke-linecap:round;stroke-linejoin:round;stroke:rgb(0%,0%,0%);stroke-opacity:1;stroke-miterlimit:10;" d="M 468.175781 70.464844 L 470.105469 66.398438 "/>
<path style="fill:none;stroke-width:1.066978;stroke-linecap:round;stroke-linejoin:round;stroke:rgb(0%,0%,0%);stroke-opacity:1;stroke-miterlimit:10;" d="M 434.738281 55.132812 L 435 48.65625 "/>
<path style="fill:none;stroke-width:1.066978;stroke-linecap:round;stroke-linejoin:round;stroke:rgb(0%,0%,0%);stroke-opacity:1;stroke-miterlimit:10;" d="M 415.90625 56.273438 L 415.859375 55.976562 "/>
<path style="fill:none;stroke-width:1.066978;stroke-linecap:round;stroke-linejoin:round;stroke:rgb(0%,0%,0%);stroke-opacity:1;stroke-miterlimit:10;" d="M 451.902344 63.925781 L 452.914062 59.828125 "/>
<path style="fill:none;stroke-width:1.066978;stroke-linecap:round;stroke-linejoin:round;stroke:rgb(0%,0%,0%);stroke-opacity:1;stroke-miterlimit:10;" d="M 486.210938 99.953125 L 486.839844 99.394531 "/>
<path style="fill:none;stroke-width:1.066978;stroke-linecap:round;stroke-linejoin:round;stroke:rgb(0%,0%,0%);stroke-opacity:1;stroke-miterlimit:10;" d="M 367.757812 83.097656 L 366.914062 82.21875 "/>
<path style="fill:none;stroke-width:1.066978;stroke-linecap:round;stroke-linejoin:round;stroke:rgb(0%,0%,0%);stroke-opacity:1;stroke-miterlimit:10;" d="M 355.871094 97.070312 L 350.457031 93.332031 "/>
<path style="fill:none;stroke-width:1.066978;stroke-linecap:round;stroke-linejoin:round;stroke:rgb(0%,0%,0%);stroke-opacity:1;stroke-miterlimit:10;" d="M 386.203125 78.121094 L 385.066406 76.324219 "/>
<path style="fill:none;stroke-width:1.066978;stroke-linecap:round;stroke-linejoin:round;stroke:rgb(0%,0%,0%);stroke-opacity:1;stroke-miterlimit:10;" d="M 361.507812 119.308594 L 355.273438 116.652344 "/>
<path style="fill:none;stroke-width:1.066978;stroke-linecap:round;stroke-linejoin:round;stroke:rgb(0%,0%,0%);stroke-opacity:1;stroke-miterlimit:10;" d="M 348.308594 132.027344 L 344.820312 131.3125 "/>
<path style="fill:none;stroke-width:1.066978;stroke-linecap:round;stroke-linejoin:round;stroke:rgb(0%,0%,0%);stroke-opacity:1;stroke-miterlimit:10;" d="M 346.605469 148.898438 L 337.246094 148.898438 "/>
<path style="fill:none;stroke-width:1.066978;stroke-linecap:round;stroke-linejoin:round;stroke:rgb(0%,0%,0%);stroke-opacity:1;stroke-miterlimit:10;" d="M 407.453125 86.914062 L 406.386719 84.109375 "/>
<path style="fill:none;stroke-width:1.066978;stroke-linecap:round;stroke-linejoin:round;stroke:rgb(0%,0%,0%);stroke-opacity:1;stroke-miterlimit:10;" d="M 475.371094 134.070312 L 479.113281 132.820312 "/>
<path style="fill:none;stroke-width:1.066978;stroke-linecap:round;stroke-linejoin:round;stroke:rgb(0%,0%,0%);stroke-opacity:1;stroke-miterlimit:10;" d="M 434.390625 102.203125 L 434.390625 102.203125 "/>
<path style="fill:none;stroke-width:1.066978;stroke-linecap:round;stroke-linejoin:round;stroke:rgb(0%,0%,0%);stroke-opacity:1;stroke-miterlimit:10;" d="M 389.191406 127.742188 L 385.046875 125.640625 L 380.898438 123.542969 "/>
<path style="fill:none;stroke-width:1.066978;stroke-linecap:round;stroke-linejoin:round;stroke:rgb(0%,0%,0%);stroke-opacity:1;stroke-miterlimit:10;" d="M 407 199.640625 L 406.613281 200.457031 "/>
<path style="fill:none;stroke-width:1.066978;stroke-linecap:round;stroke-linejoin:round;stroke:rgb(0%,0%,0%);stroke-opacity:1;stroke-miterlimit:10;" d="M 445.648438 203.992188 L 447.46875 210.828125 "/>
<path style="fill:none;stroke-width:1.066978;stroke-linecap:round;stroke-linejoin:round;stroke:rgb(0%,0%,0%);stroke-opacity:1;stroke-miterlimit:10;" d="M 471.371094 198.648438 L 475.824219 204.132812 "/>
<path style="fill:none;stroke-width:1.066978;stroke-linecap:round;stroke-linejoin:round;stroke:rgb(0%,0%,0%);stroke-opacity:1;stroke-miterlimit:10;" d="M 454.847656 215.929688 L 456.238281 219.824219 L 457.625 223.71875 "/>
<path style="fill:none;stroke-width:1.066978;stroke-linecap:round;stroke-linejoin:round;stroke:rgb(0%,0%,0%);stroke-opacity:1;stroke-miterlimit:10;" d="M 442.121094 227.542969 L 443.128906 234.660156 "/>
<path style="fill:none;stroke-width:1.066978;stroke-linecap:round;stroke-linejoin:round;stroke:rgb(0%,0%,0%);stroke-opacity:1;stroke-miterlimit:10;" d="M 472.050781 216.875 L 476.191406 223.71875 "/>
<path style="fill:none;stroke-width:1.066978;stroke-linecap:round;stroke-linejoin:round;stroke:rgb(0%,0%,0%);stroke-opacity:1;stroke-miterlimit:10;" d="M 491.671875 186.019531 L 495.070312 188.097656 L 498.472656 190.175781 "/>
<path style="fill:none;stroke-width:1.066978;stroke-linecap:round;stroke-linejoin:round;stroke:rgb(0%,0%,0%);stroke-opacity:1;stroke-miterlimit:10;" d="M 504.664062 177.703125 L 506.132812 178.277344 "/>
<path style="fill:none;stroke-width:1.066978;stroke-linecap:round;stroke-linejoin:round;stroke:rgb(0%,0%,0%);stroke-opacity:1;stroke-miterlimit:10;" d="M 509.699219 166.632812 L 513.519531 167.492188 L 517.34375 168.355469 "/>
<path style="fill:none;stroke-width:1.066978;stroke-linecap:round;stroke-linejoin:round;stroke:rgb(0%,0%,0%);stroke-opacity:1;stroke-miterlimit:10;" d="M 379.082031 172.5625 L 375.074219 174.390625 "/>
<path style="fill:none;stroke-width:1.066978;stroke-linecap:round;stroke-linejoin:round;stroke:rgb(0%,0%,0%);stroke-opacity:1;stroke-miterlimit:10;" d="M 382.230469 186.289062 L 378.714844 188.988281 L 375.199219 191.683594 "/>
<path style="fill:none;stroke-width:1.066978;stroke-linecap:round;stroke-linejoin:round;stroke:rgb(0%,0%,0%);stroke-opacity:1;stroke-miterlimit:10;" d="M 387.613281 204.226562 L 383.136719 209.9375 "/>
<path style="fill:none;stroke-width:1.066978;stroke-linecap:round;stroke-linejoin:round;stroke:rgb(0%,0%,0%);stroke-opacity:1;stroke-miterlimit:10;" d="M 371.894531 199.140625 L 369.089844 201.523438 L 366.289062 203.910156 "/>
<path style="fill:none;stroke-width:1.066978;stroke-linecap:round;stroke-linejoin:round;stroke:rgb(0%,0%,0%);stroke-opacity:1;stroke-miterlimit:10;" d="M 396.3125 218.269531 L 395.933594 219.035156 "/>
<path style="fill:none;stroke-width:1.066978;stroke-linecap:round;stroke-linejoin:round;stroke:rgb(0%,0%,0%);stroke-opacity:1;stroke-miterlimit:10;" d="M 457.691406 99.558594 L 459.675781 95.898438 L 461.664062 92.234375 "/>
<path style="fill:none;stroke-width:1.066978;stroke-linecap:round;stroke-linejoin:round;stroke:rgb(0%,0%,0%);stroke-opacity:1;stroke-miterlimit:10;" d="M 427.472656 84.542969 L 427.410156 83.371094 "/>
<path style="fill:none;stroke-width:1.066978;stroke-linecap:round;stroke-linejoin:round;stroke:rgb(0%,0%,0%);stroke-opacity:1;stroke-miterlimit:10;" d="M 467.003906 94.0625 L 471.503906 87.21875 "/>
<path style="fill:none;stroke-width:1.066978;stroke-linecap:round;stroke-linejoin:round;stroke:rgb(0%,0%,0%);stroke-opacity:1;stroke-miterlimit:10;" d="M 453.980469 78.769531 L 456.015625 72.566406 "/>
<path style="fill:none;stroke-width:1.066978;stroke-linecap:round;stroke-linejoin:round;stroke:rgb(0%,0%,0%);stroke-opacity:1;stroke-miterlimit:10;" d="M 472.523438 80.148438 L 475.871094 74.605469 "/>
<path style="fill:none;stroke-width:1.066978;stroke-linecap:round;stroke-linejoin:round;stroke:rgb(0%,0%,0%);stroke-opacity:1;stroke-miterlimit:10;" d="M 438.230469 68.890625 L 438.878906 61.742188 "/>
<path style="fill:none;stroke-width:1.066978;stroke-linecap:round;stroke-linejoin:round;stroke:rgb(0%,0%,0%);stroke-opacity:1;stroke-miterlimit:10;" d="M 425.675781 61.542969 L 425.292969 55.230469 "/>
<path style="fill:none;stroke-width:1.066978;stroke-linecap:round;stroke-linejoin:round;stroke:rgb(0%,0%,0%);stroke-opacity:1;stroke-miterlimit:10;" d="M 389.199219 98.277344 L 388.773438 97.761719 "/>
<path style="fill:none;stroke-width:1.066978;stroke-linecap:round;stroke-linejoin:round;stroke:rgb(0%,0%,0%);stroke-opacity:1;stroke-miterlimit:10;" d="M 374.574219 114.035156 L 367.378906 109.582031 "/>
<path style="fill:none;stroke-width:1.066978;stroke-linecap:round;stroke-linejoin:round;stroke:rgb(0%,0%,0%);stroke-opacity:1;stroke-miterlimit:10;" d="M 381.957031 92.449219 L 379.007812 89.054688 L 376.0625 85.660156 "/>
<path style="fill:none;stroke-width:1.066978;stroke-linecap:round;stroke-linejoin:round;stroke:rgb(0%,0%,0%);stroke-opacity:1;stroke-miterlimit:10;" d="M 367.171875 94.640625 L 364.316406 92.210938 L 361.464844 89.785156 "/>
<path style="fill:none;stroke-width:1.066978;stroke-linecap:round;stroke-linejoin:round;stroke:rgb(0%,0%,0%);stroke-opacity:1;stroke-miterlimit:10;" d="M 358.5625 130.277344 L 357.847656 130.09375 "/>
<path style="fill:none;stroke-width:1.066978;stroke-linecap:round;stroke-linejoin:round;stroke:rgb(0%,0%,0%);stroke-opacity:1;stroke-miterlimit:10;" d="M 355.851562 141.308594 L 347.03125 140.417969 "/>
<path style="fill:none;stroke-width:1.066978;stroke-linecap:round;stroke-linejoin:round;stroke:rgb(0%,0%,0%);stroke-opacity:1;stroke-miterlimit:10;" d="M 447.46875 210.828125 L 443.710938 211.710938 L 439.90625 212.363281 L 436.070312 212.789062 L 432.214844 212.980469 L 428.355469 212.9375 L 424.503906 212.664062 L 420.679688 212.160156 "/>
<path style="fill:none;stroke-width:1.066978;stroke-linecap:round;stroke-linejoin:round;stroke:rgb(0%,0%,0%);stroke-opacity:1;stroke-miterlimit:10;" d="M 443.128906 234.660156 L 438.796875 235.164062 L 434.449219 235.449219 "/>
<path style="fill:none;stroke-width:1.066978;stroke-linecap:round;stroke-linejoin:round;stroke:rgb(0%,0%,0%);stroke-opacity:1;stroke-miterlimit:10;" d="M 443.128906 234.660156 L 447.429688 233.9375 L 451.6875 233 "/>
<path style="fill:none;stroke-width:1.066978;stroke-linecap:round;stroke-linejoin:round;stroke:rgb(0%,0%,0%);stroke-opacity:1;stroke-miterlimit:10;" d="M 476.191406 223.71875 L 472.367188 225.898438 L 468.4375 227.886719 "/>
<path style="fill:none;stroke-width:1.066978;stroke-linecap:round;stroke-linejoin:round;stroke:rgb(0%,0%,0%);stroke-opacity:1;stroke-miterlimit:10;" d="M 476.191406 223.71875 L 479.898438 221.347656 L 483.480469 218.792969 "/>
<path style="fill:none;stroke-width:1.066978;stroke-linecap:round;stroke-linejoin:round;stroke:rgb(0%,0%,0%);stroke-opacity:1;stroke-miterlimit:10;" d="M 498.472656 190.175781 L 496.589844 193.109375 L 494.578125 195.957031 L 492.445312 198.714844 L 490.191406 201.371094 "/>
<path style="fill:none;stroke-width:1.066978;stroke-linecap:round;stroke-linejoin:round;stroke:rgb(0%,0%,0%);stroke-opacity:1;stroke-miterlimit:10;" d="M 517.34375 168.355469 L 516.253906 172.675781 L 514.949219 176.9375 "/>
<path style="fill:none;stroke-width:1.066978;stroke-linecap:round;stroke-linejoin:round;stroke:rgb(0%,0%,0%);stroke-opacity:1;stroke-miterlimit:10;" d="M 517.34375 168.355469 L 518.210938 163.980469 L 518.859375 159.570312 "/>
<path style="fill:none;stroke-width:1.066978;stroke-linecap:round;stroke-linejoin:round;stroke:rgb(0%,0%,0%);stroke-opacity:1;stroke-miterlimit:10;" d="M 506.132812 178.277344 L 504.558594 182.023438 L 502.800781 185.683594 L 500.855469 189.253906 "/>
<path style="fill:none;stroke-width:1.066978;stroke-linecap:round;stroke-linejoin:round;stroke:rgb(0%,0%,0%);stroke-opacity:1;stroke-miterlimit:10;" d="M 375.199219 191.683594 L 373.117188 188.824219 L 371.179688 185.863281 L 369.398438 182.808594 L 367.769531 179.667969 L 366.300781 176.449219 "/>
<path style="fill:none;stroke-width:1.066978;stroke-linecap:round;stroke-linejoin:round;stroke:rgb(0%,0%,0%);stroke-opacity:1;stroke-miterlimit:10;" d="M 366.289062 203.910156 L 363.601562 200.585938 L 361.085938 197.128906 "/>
<path style="fill:none;stroke-width:1.066978;stroke-linecap:round;stroke-linejoin:round;stroke:rgb(0%,0%,0%);stroke-opacity:1;stroke-miterlimit:10;" d="M 366.289062 203.910156 L 369.136719 207.09375 L 372.144531 210.132812 "/>
<path style="fill:none;stroke-width:1.066978;stroke-linecap:round;stroke-linejoin:round;stroke:rgb(0%,0%,0%);stroke-opacity:1;stroke-miterlimit:10;" d="M 395.933594 219.035156 L 392.445312 217.183594 L 389.058594 215.160156 "/>
<path style="fill:none;stroke-width:1.066978;stroke-linecap:round;stroke-linejoin:round;stroke:rgb(0%,0%,0%);stroke-opacity:1;stroke-miterlimit:10;" d="M 395.933594 219.035156 L 399.503906 220.710938 L 403.160156 222.203125 "/>
<path style="fill:none;stroke-width:1.066978;stroke-linecap:round;stroke-linejoin:round;stroke:rgb(0%,0%,0%);stroke-opacity:1;stroke-miterlimit:10;" d="M 375.074219 174.390625 L 373.722656 171.183594 L 372.550781 167.910156 L 371.570312 164.570312 L 370.777344 161.183594 "/>
<path style="fill:none;stroke-width:1.066978;stroke-linecap:round;stroke-linejoin:round;stroke:rgb(0%,0%,0%);stroke-opacity:1;stroke-miterlimit:10;" d="M 461.664062 92.234375 L 464.734375 94.007812 L 467.703125 95.949219 L 470.5625 98.054688 L 473.300781 100.308594 L 475.910156 102.714844 L 478.386719 105.257812 L 480.714844 107.933594 L 482.894531 110.734375 L 484.917969 113.652344 L 486.773438 116.675781 "/>
<path style="fill:none;stroke-width:1.066978;stroke-linecap:round;stroke-linejoin:round;stroke:rgb(0%,0%,0%);stroke-opacity:1;stroke-miterlimit:10;" d="M 475.871094 74.605469 L 479.554688 76.957031 L 483.113281 79.496094 "/>
<path style="fill:none;stroke-width:1.066978;stroke-linecap:round;stroke-linejoin:round;stroke:rgb(0%,0%,0%);stroke-opacity:1;stroke-miterlimit:10;" d="M 475.871094 74.605469 L 472.078125 72.4375 L 468.175781 70.464844 "/>
<path style="fill:none;stroke-width:1.066978;stroke-linecap:round;stroke-linejoin:round;stroke:rgb(0%,0%,0%);stroke-opacity:1;stroke-miterlimit:10;" d="M 425.292969 55.230469 L 430.015625 55.0625 L 434.738281 55.132812 "/>
<path style="fill:none;stroke-width:1.066978;stroke-linecap:round;stroke-linejoin:round;stroke:rgb(0%,0%,0%);stroke-opacity:1;stroke-miterlimit:10;" d="M 425.292969 55.230469 L 420.585938 55.632812 L 415.90625 56.273438 "/>
<path style="fill:none;stroke-width:1.066978;stroke-linecap:round;stroke-linejoin:round;stroke:rgb(0%,0%,0%);stroke-opacity:1;stroke-miterlimit:10;" d="M 438.878906 61.742188 L 443.257812 62.25 L 447.601562 62.976562 L 451.902344 63.925781 "/>
<path style="fill:none;stroke-width:1.066978;stroke-linecap:round;stroke-linejoin:round;stroke:rgb(0%,0%,0%);stroke-opacity:1;stroke-miterlimit:10;" d="M 471.503906 87.21875 L 474.707031 89.445312 L 477.785156 91.839844 L 480.734375 94.394531 L 483.546875 97.101562 L 486.210938 99.953125 "/>
<path style="fill:none;stroke-width:1.066978;stroke-linecap:round;stroke-linejoin:round;stroke:rgb(0%,0%,0%);stroke-opacity:1;stroke-miterlimit:10;" d="M 361.464844 89.785156 L 364.527344 86.363281 L 367.757812 83.097656 "/>
<path style="fill:none;stroke-width:1.066978;stroke-linecap:round;stroke-linejoin:round;stroke:rgb(0%,0%,0%);stroke-opacity:1;stroke-miterlimit:10;" d="M 361.464844 89.785156 L 358.574219 93.355469 L 355.871094 97.070312 "/>
<path style="fill:none;stroke-width:1.066978;stroke-linecap:round;stroke-linejoin:round;stroke:rgb(0%,0%,0%);stroke-opacity:1;stroke-miterlimit:10;" d="M 376.0625 85.660156 L 379.3125 82.976562 L 382.695312 80.460938 L 386.203125 78.121094 "/>
<path style="fill:none;stroke-width:1.066978;stroke-linecap:round;stroke-linejoin:round;stroke:rgb(0%,0%,0%);stroke-opacity:1;stroke-miterlimit:10;" d="M 357.847656 130.09375 L 358.886719 126.441406 L 360.109375 122.839844 L 361.507812 119.308594 "/>
<path style="fill:none;stroke-width:1.066978;stroke-linecap:round;stroke-linejoin:round;stroke:rgb(0%,0%,0%);stroke-opacity:1;stroke-miterlimit:10;" d="M 347.03125 140.417969 L 347.566406 136.207031 L 348.308594 132.027344 "/>
<path style="fill:none;stroke-width:1.066978;stroke-linecap:round;stroke-linejoin:round;stroke:rgb(0%,0%,0%);stroke-opacity:1;stroke-miterlimit:10;" d="M 347.03125 140.417969 L 346.710938 144.652344 L 346.605469 148.898438 "/>
<path style="fill:none;stroke-width:1.066978;stroke-linecap:round;stroke-linejoin:round;stroke:rgb(0%,0%,0%);stroke-opacity:1;stroke-miterlimit:10;" d="M 388.773438 97.761719 L 391.625 95.535156 L 394.59375 93.472656 L 397.667969 91.570312 L 400.84375 89.839844 L 404.109375 88.289062 L 407.453125 86.914062 "/>
<path style="fill:none;stroke-width:1.066978;stroke-linecap:round;stroke-linejoin:round;stroke:rgb(0%,0%,0%);stroke-opacity:1;stroke-miterlimit:10;" d="M 434.390625 102.203125 L 437.808594 102.582031 L 441.1875 103.207031 L 444.511719 104.082031 L 447.765625 105.195312 L 450.929688 106.546875 L 453.980469 108.128906 L 456.914062 109.925781 L 459.703125 111.9375 L 462.335938 114.144531 L 464.804688 116.542969 L 467.085938 119.113281 L 469.175781 121.84375 L 471.058594 124.722656 L 472.722656 127.730469 L 474.164062 130.851562 L 475.371094 134.070312 "/>
<path style="fill:none;stroke-width:1.066978;stroke-linecap:round;stroke-linejoin:round;stroke:rgb(0%,0%,0%);stroke-opacity:1;stroke-miterlimit:10;" d="M 434.390625 102.203125 L 434.390625 102.203125 "/>
<path style="fill:none;stroke-width:1.066978;stroke-linecap:round;stroke-linejoin:round;stroke:rgb(0%,0%,0%);stroke-opacity:1;stroke-miterlimit:10;" d="M 434.390625 102.203125 L 430.953125 102.078125 L 427.515625 102.203125 L 424.097656 102.582031 L 420.71875 103.210938 L 417.394531 104.085938 L 414.140625 105.203125 L 410.980469 106.554688 L 407.925781 108.132812 L 404.996094 109.933594 L 402.207031 111.945312 L 399.574219 114.15625 L 397.109375 116.550781 L 394.824219 119.125 L 392.738281 121.855469 L 390.855469 124.734375 L 389.191406 127.742188 "/>
<path style="fill:none;stroke-width:1.066978;stroke-linecap:round;stroke-linejoin:round;stroke:rgb(0%,0%,0%);stroke-opacity:1;stroke-miterlimit:10;" d="M 380.898438 123.542969 L 379.4375 126.667969 L 378.167969 129.875 L 377.097656 133.152344 L 376.234375 136.492188 L 375.574219 139.878906 L 375.125 143.296875 L 374.886719 146.738281 L 374.859375 150.1875 L 375.046875 153.632812 L 375.441406 157.058594 L 376.046875 160.457031 L 376.863281 163.808594 L 377.878906 167.101562 L 379.097656 170.332031 L 380.511719 173.476562 L 382.117188 176.527344 L 383.910156 179.476562 L 385.875 182.3125 L 388.015625 185.019531 L 390.316406 187.589844 L 392.769531 190.011719 L 395.367188 192.28125 L 398.101562 194.386719 L 400.957031 196.320312 L 403.925781 198.074219 L 407 199.640625 "/>
<path style="fill:none;stroke-width:1.066978;stroke-linecap:round;stroke-linejoin:round;stroke:rgb(0%,0%,0%);stroke-opacity:1;stroke-miterlimit:10;" d="M 406.613281 200.457031 L 409.949219 201.90625 L 413.371094 203.136719 L 416.863281 204.148438 L 420.414062 204.933594 L 424.007812 205.492188 L 427.632812 205.820312 L 431.265625 205.917969 L 434.902344 205.78125 L 438.519531 205.414062 L 442.105469 204.816406 L 445.648438 203.992188 "/>
<path style="fill:none;stroke-width:1.066978;stroke-linecap:round;stroke-linejoin:round;stroke:rgb(0%,0%,0%);stroke-opacity:1;stroke-miterlimit:10;" d="M 447.46875 210.828125 L 451.167969 209.722656 L 454.792969 208.394531 L 458.332031 206.851562 L 461.769531 205.101562 L 465.097656 203.144531 L 468.300781 200.988281 L 471.371094 198.648438 "/>
<path style="fill:none;stroke-width:1.066978;stroke-linecap:round;stroke-linejoin:round;stroke:rgb(0%,0%,0%);stroke-opacity:1;stroke-miterlimit:10;" d="M 475.824219 204.132812 L 473.09375 206.246094 L 470.257812 208.222656 L 467.335938 210.058594 L 464.324219 211.753906 L 461.234375 213.296875 L 458.074219 214.691406 L 454.847656 215.929688 "/>
<path style="fill:none;stroke-width:1.066978;stroke-linecap:round;stroke-linejoin:round;stroke:rgb(0%,0%,0%);stroke-opacity:1;stroke-miterlimit:10;" d="M 457.625 223.71875 L 453.824219 224.96875 L 449.96875 226.019531 L 446.0625 226.878906 L 442.121094 227.542969 "/>
<path style="fill:none;stroke-width:1.066978;stroke-linecap:round;stroke-linejoin:round;stroke:rgb(0%,0%,0%);stroke-opacity:1;stroke-miterlimit:10;" d="M 457.625 223.71875 L 461.355469 222.28125 L 465.011719 220.660156 L 468.578125 218.855469 L 472.050781 216.875 "/>
<path style="fill:none;stroke-width:1.066978;stroke-linecap:round;stroke-linejoin:round;stroke:rgb(0%,0%,0%);stroke-opacity:1;stroke-miterlimit:10;" d="M 475.824219 204.132812 L 478.453125 201.890625 L 480.96875 199.523438 L 483.367188 197.035156 L 485.640625 194.4375 L 487.785156 191.730469 L 489.796875 188.921875 L 491.671875 186.019531 "/>
<path style="fill:none;stroke-width:1.066978;stroke-linecap:round;stroke-linejoin:round;stroke:rgb(0%,0%,0%);stroke-opacity:1;stroke-miterlimit:10;" d="M 498.472656 190.175781 L 500.226562 187.164062 L 501.84375 184.078125 L 503.324219 180.921875 L 504.664062 177.703125 "/>
<path style="fill:none;stroke-width:1.066978;stroke-linecap:round;stroke-linejoin:round;stroke:rgb(0%,0%,0%);stroke-opacity:1;stroke-miterlimit:10;" d="M 506.132812 178.277344 L 507.515625 174.457031 L 508.707031 170.570312 L 509.699219 166.632812 "/>
<path style="fill:none;stroke-width:1.066978;stroke-linecap:round;stroke-linejoin:round;stroke:rgb(0%,0%,0%);stroke-opacity:1;stroke-miterlimit:10;" d="M 406.613281 200.457031 L 403.375 198.800781 L 400.25 196.941406 L 397.25 194.886719 L 394.386719 192.644531 L 391.675781 190.222656 L 389.121094 187.636719 L 386.734375 184.890625 L 384.53125 181.996094 L 382.515625 178.96875 L 380.695312 175.820312 L 379.082031 172.5625 "/>
<path style="fill:none;stroke-width:1.066978;stroke-linecap:round;stroke-linejoin:round;stroke:rgb(0%,0%,0%);stroke-opacity:1;stroke-miterlimit:10;" d="M 375.074219 174.390625 L 376.609375 177.511719 L 378.316406 180.542969 L 380.191406 183.472656 L 382.230469 186.289062 "/>
<path style="fill:none;stroke-width:1.066978;stroke-linecap:round;stroke-linejoin:round;stroke:rgb(0%,0%,0%);stroke-opacity:1;stroke-miterlimit:10;" d="M 375.199219 191.683594 L 377.421875 194.4375 L 379.78125 197.074219 L 382.273438 199.585938 L 384.886719 201.972656 L 387.613281 204.226562 "/>
<path style="fill:none;stroke-width:1.066978;stroke-linecap:round;stroke-linejoin:round;stroke:rgb(0%,0%,0%);stroke-opacity:1;stroke-miterlimit:10;" d="M 383.136719 209.9375 L 380.128906 207.453125 L 377.246094 204.820312 L 374.5 202.046875 L 371.894531 199.140625 "/>
<path style="fill:none;stroke-width:1.066978;stroke-linecap:round;stroke-linejoin:round;stroke:rgb(0%,0%,0%);stroke-opacity:1;stroke-miterlimit:10;" d="M 383.136719 209.9375 L 386.269531 212.265625 L 389.515625 214.4375 L 392.867188 216.4375 L 396.3125 218.269531 "/>
<path style="fill:none;stroke-width:1.066978;stroke-linecap:round;stroke-linejoin:round;stroke:rgb(0%,0%,0%);stroke-opacity:1;stroke-miterlimit:10;" d="M 380.898438 123.542969 L 382.554688 120.515625 L 384.386719 117.59375 L 386.398438 114.792969 L 388.578125 112.117188 L 390.917969 109.585938 L 393.410156 107.199219 L 396.042969 104.96875 L 398.808594 102.90625 L 401.695312 101.019531 L 404.691406 99.3125 L 407.789062 97.792969 L 410.972656 96.464844 L 414.230469 95.335938 L 417.554688 94.410156 L 420.925781 93.6875 L 424.339844 93.175781 L 427.773438 92.875 L 431.222656 92.785156 L 434.671875 92.90625 L 438.105469 93.242188 L 441.511719 93.785156 L 444.875 94.535156 L 448.191406 95.496094 L 451.4375 96.652344 L 454.609375 98.011719 L 457.691406 99.558594 "/>
<path style="fill:none;stroke-width:1.066978;stroke-linecap:round;stroke-linejoin:round;stroke:rgb(0%,0%,0%);stroke-opacity:1;stroke-miterlimit:10;" d="M 461.664062 92.234375 L 458.496094 90.628906 L 455.25 89.203125 L 451.925781 87.953125 L 448.539062 86.894531 L 445.101562 86.019531 L 441.617188 85.335938 L 438.105469 84.847656 L 434.566406 84.550781 L 431.019531 84.449219 L 427.472656 84.542969 "/>
<path style="fill:none;stroke-width:1.066978;stroke-linecap:round;stroke-linejoin:round;stroke:rgb(0%,0%,0%);stroke-opacity:1;stroke-miterlimit:10;" d="M 427.410156 83.371094 L 430.882812 83.273438 L 434.359375 83.363281 L 437.824219 83.636719 L 441.269531 84.089844 L 444.6875 84.726562 L 448.0625 85.542969 L 451.394531 86.539062 L 454.667969 87.707031 L 457.875 89.046875 L 461.003906 90.558594 L 464.050781 92.230469 L 467.003906 94.0625 "/>
<path style="fill:none;stroke-width:1.066978;stroke-linecap:round;stroke-linejoin:round;stroke:rgb(0%,0%,0%);stroke-opacity:1;stroke-miterlimit:10;" d="M 471.503906 87.21875 L 468.1875 85.160156 L 464.765625 83.285156 L 461.253906 81.589844 L 457.65625 80.082031 L 453.980469 78.769531 "/>
<path style="fill:none;stroke-width:1.066978;stroke-linecap:round;stroke-linejoin:round;stroke:rgb(0%,0%,0%);stroke-opacity:1;stroke-miterlimit:10;" d="M 456.015625 72.566406 L 459.449219 73.78125 L 462.820312 75.148438 L 466.128906 76.667969 L 469.363281 78.335938 L 472.523438 80.148438 "/>
<path style="fill:none;stroke-width:1.066978;stroke-linecap:round;stroke-linejoin:round;stroke:rgb(0%,0%,0%);stroke-opacity:1;stroke-miterlimit:10;" d="M 456.015625 72.566406 L 452.53125 71.511719 L 449.003906 70.613281 L 445.441406 69.875 L 441.847656 69.300781 L 438.230469 68.890625 "/>
<path style="fill:none;stroke-width:1.066978;stroke-linecap:round;stroke-linejoin:round;stroke:rgb(0%,0%,0%);stroke-opacity:1;stroke-miterlimit:10;" d="M 438.878906 61.742188 L 434.484375 61.453125 L 430.078125 61.386719 L 425.675781 61.542969 "/>
<path style="fill:none;stroke-width:1.066978;stroke-linecap:round;stroke-linejoin:round;stroke:rgb(0%,0%,0%);stroke-opacity:1;stroke-miterlimit:10;" d="M 427.410156 83.371094 L 423.945312 83.652344 L 420.5 84.113281 L 417.085938 84.757812 L 413.710938 85.582031 L 410.382812 86.585938 L 407.109375 87.761719 L 403.90625 89.109375 L 400.78125 90.625 L 397.738281 92.304688 L 394.789062 94.144531 L 391.941406 96.136719 L 389.199219 98.277344 "/>
<path style="fill:none;stroke-width:1.066978;stroke-linecap:round;stroke-linejoin:round;stroke:rgb(0%,0%,0%);stroke-opacity:1;stroke-miterlimit:10;" d="M 388.773438 97.761719 L 386.050781 100.136719 L 383.457031 102.65625 L 381.007812 105.316406 L 378.707031 108.101562 L 376.558594 111.011719 L 374.574219 114.035156 "/>
<path style="fill:none;stroke-width:1.066978;stroke-linecap:round;stroke-linejoin:round;stroke:rgb(0%,0%,0%);stroke-opacity:1;stroke-miterlimit:10;" d="M 367.378906 109.582031 L 369.4375 106.433594 L 371.652344 103.390625 L 374.019531 100.464844 L 376.527344 97.660156 L 379.175781 94.988281 L 381.957031 92.449219 "/>
<path style="fill:none;stroke-width:1.066978;stroke-linecap:round;stroke-linejoin:round;stroke:rgb(0%,0%,0%);stroke-opacity:1;stroke-miterlimit:10;" d="M 376.0625 85.660156 L 372.949219 88.503906 L 369.984375 91.5 L 367.171875 94.640625 "/>
<path style="fill:none;stroke-width:1.066978;stroke-linecap:round;stroke-linejoin:round;stroke:rgb(0%,0%,0%);stroke-opacity:1;stroke-miterlimit:10;" d="M 367.378906 109.582031 L 365.480469 112.832031 L 363.75 116.175781 L 362.1875 119.597656 L 360.800781 123.097656 L 359.589844 126.660156 L 358.5625 130.277344 "/>
<path style="fill:none;stroke-width:1.066978;stroke-linecap:round;stroke-linejoin:round;stroke:rgb(0%,0%,0%);stroke-opacity:1;stroke-miterlimit:10;" d="M 357.847656 130.09375 L 356.996094 133.796875 L 356.328125 137.539062 L 355.851562 141.308594 "/>
<path style="fill:none;stroke-width:1.066978;stroke-linecap:butt;stroke-linejoin:round;stroke:rgb(0%,0%,0%);stroke-opacity:1;stroke-miterlimit:10;" d="M 434.390625 102.203125 L 434.125 105.792969 L 433.863281 109.386719 L 433.597656 112.980469 L 433.335938 116.570312 L 433.070312 120.164062 L 432.804688 123.753906 L 432.542969 127.347656 L 432.277344 130.9375 L 432.015625 134.53125 L 431.75 138.121094 L 431.488281 141.714844 L 431.222656 145.308594 L 430.960938 148.898438 "/>
<path style=" stroke:none;fill-rule:nonzero;fill:rgb(0%,0%,0%);fill-opacity:1;" d="M 302.078125 19.328125 L 302.078125 19.472656 L 302.066406 19.613281 L 302.054688 19.75 L 302.007812 20.007812 L 301.976562 20.132812 L 301.9375 20.25 L 301.894531 20.363281 L 301.847656 20.472656 L 301.792969 20.582031 L 301.734375 20.679688 L 301.667969 20.777344 L 301.601562 20.871094 L 301.53125 20.960938 L 301.457031 21.046875 L 301.375 21.128906 L 301.292969 21.207031 L 301.207031 21.28125 L 301.113281 21.355469 L 301.019531 21.421875 L 300.921875 21.484375 L 300.820312 21.542969 L 300.714844 21.597656 L 300.605469 21.652344 L 300.496094 21.699219 L 300.378906 21.746094 L 300.261719 21.789062 L 300.019531 21.859375 L 299.890625 21.894531 L 299.761719 21.921875 L 299.632812 21.945312 L 299.5 21.96875 L 299.367188 21.988281 L 299.230469 22.003906 L 299.097656 22.019531 L 298.957031 22.03125 L 298.820312 22.039062 L 298.679688 22.042969 L 294.628906 22.042969 L 294.628906 12.410156 L 298.128906 12.410156 L 298.441406 12.417969 L 298.59375 12.425781 L 298.742188 12.433594 L 298.886719 12.445312 L 299.027344 12.460938 L 299.164062 12.480469 L 299.296875 12.5 L 299.429688 12.523438 L 299.554688 12.546875 L 299.679688 12.574219 L 299.800781 12.605469 L 299.917969 12.640625 L 300.027344 12.675781 L 300.136719 12.71875 L 300.242188 12.761719 L 300.34375 12.808594 L 300.441406 12.855469 L 300.535156 12.910156 L 300.621094 12.964844 L 300.707031 13.023438 L 300.789062 13.085938 L 300.867188 13.152344 L 300.9375 13.21875 L 301.007812 13.292969 L 301.070312 13.367188 L 301.132812 13.445312 L 301.1875 13.523438 L 301.238281 13.609375 L 301.285156 13.695312 L 301.332031 13.785156 L 301.371094 13.878906 L 301.40625 13.976562 L 301.433594 14.074219 L 301.460938 14.179688 L 301.480469 14.285156 L 301.496094 14.394531 L 301.507812 14.511719 L 301.515625 14.628906 L 301.519531 14.75 L 301.515625 14.828125 L 301.515625 14.910156 L 301.507812 14.988281 L 301.5 15.0625 L 301.488281 15.140625 L 301.476562 15.214844 L 301.445312 15.363281 L 301.425781 15.4375 L 301.355469 15.648438 L 301.324219 15.714844 L 301.296875 15.78125 L 301.226562 15.914062 L 301.148438 16.039062 L 301.105469 16.097656 L 301.058594 16.15625 L 301.015625 16.214844 L 300.914062 16.324219 L 300.804688 16.425781 L 300.746094 16.476562 L 300.621094 16.570312 L 300.554688 16.613281 L 300.484375 16.65625 L 300.417969 16.695312 L 300.34375 16.734375 L 300.195312 16.804688 L 300.117188 16.835938 L 300.035156 16.867188 L 299.949219 16.894531 L 299.777344 16.941406 L 299.6875 16.964844 L 299.914062 16.996094 L 300.023438 17.015625 L 300.128906 17.039062 L 300.234375 17.066406 L 300.335938 17.09375 L 300.433594 17.125 L 300.527344 17.15625 L 300.621094 17.191406 L 300.710938 17.230469 L 300.800781 17.273438 L 300.886719 17.316406 L 300.96875 17.359375 L 301.046875 17.40625 L 301.125 17.457031 L 301.199219 17.507812 L 301.269531 17.5625 L 301.335938 17.617188 L 301.402344 17.675781 L 301.464844 17.738281 L 301.523438 17.800781 L 301.578125 17.863281 L 301.632812 17.929688 L 301.679688 18 L 301.730469 18.070312 L 301.816406 18.21875 L 301.851562 18.292969 L 301.890625 18.375 L 301.921875 18.453125 L 301.953125 18.535156 L 301.976562 18.617188 L 302.003906 18.703125 L 302.023438 18.789062 L 302.039062 18.875 L 302.054688 18.964844 L 302.066406 19.050781 L 302.074219 19.144531 L 302.078125 19.234375 Z M 300.207031 14.90625 L 300.199219 14.753906 L 300.183594 14.613281 L 300.15625 14.480469 L 300.121094 14.355469 L 300.074219 14.238281 L 300.015625 14.132812 L 299.945312 14.035156 L 299.863281 13.945312 L 299.773438 13.863281 L 299.671875 13.792969 L 299.5625 13.730469 L 299.441406 13.671875 L 299.308594 13.621094 L 299.167969 13.578125 L 299.019531 13.542969 L 298.859375 13.511719 L 298.691406 13.488281 L 298.511719 13.472656 L 298.324219 13.460938 L 298.128906 13.457031 L 295.933594 13.457031 L 295.933594 16.507812 L 298.128906 16.507812 L 298.242188 16.503906 L 298.351562 16.5 L 298.457031 16.496094 L 298.558594 16.488281 L 298.65625 16.480469 L 298.753906 16.46875 L 298.933594 16.4375 L 299.097656 16.398438 L 299.175781 16.371094 L 299.25 16.347656 L 299.324219 16.320312 L 299.457031 16.257812 L 299.519531 16.226562 L 299.578125 16.191406 L 299.636719 16.152344 L 299.691406 16.117188 L 299.742188 16.074219 L 299.835938 15.988281 L 299.875 15.941406 L 299.917969 15.894531 L 299.988281 15.792969 L 300.019531 15.738281 L 300.074219 15.628906 L 300.097656 15.570312 L 300.117188 15.511719 L 300.136719 15.449219 L 300.167969 15.324219 L 300.179688 15.257812 L 300.1875 15.191406 L 300.203125 15.050781 L 300.203125 14.980469 Z M 300.757812 19.226562 L 300.757812 19.136719 L 300.753906 19.050781 L 300.746094 18.964844 L 300.730469 18.882812 L 300.71875 18.804688 L 300.699219 18.726562 L 300.675781 18.652344 L 300.621094 18.511719 L 300.589844 18.449219 L 300.554688 18.382812 L 300.476562 18.265625 L 300.433594 18.210938 L 300.386719 18.15625 L 300.285156 18.054688 L 300.230469 18.007812 L 300.171875 17.964844 L 300.109375 17.921875 L 300.046875 17.882812 L 299.980469 17.84375 L 299.839844 17.773438 L 299.761719 17.742188 L 299.6875 17.714844 L 299.605469 17.6875 L 299.523438 17.664062 L 299.4375 17.640625 L 299.351562 17.621094 L 299.261719 17.601562 L 299.171875 17.585938 L 299.078125 17.570312 L 298.984375 17.558594 L 298.886719 17.546875 L 298.789062 17.539062 L 298.683594 17.535156 L 298.582031 17.527344 L 298.476562 17.527344 L 298.367188 17.523438 L 295.933594 17.523438 L 295.933594 20.996094 L 298.664062 20.996094 L 298.761719 20.988281 L 298.855469 20.984375 L 298.949219 20.976562 L 299.039062 20.96875 L 299.128906 20.957031 L 299.214844 20.945312 L 299.386719 20.914062 L 299.46875 20.898438 L 299.550781 20.878906 L 299.628906 20.855469 L 299.703125 20.832031 L 299.777344 20.800781 L 299.851562 20.773438 L 299.917969 20.742188 L 299.984375 20.707031 L 300.050781 20.667969 L 300.109375 20.628906 L 300.171875 20.585938 L 300.28125 20.492188 L 300.335938 20.441406 L 300.382812 20.390625 L 300.429688 20.332031 L 300.472656 20.273438 L 300.515625 20.210938 L 300.554688 20.148438 L 300.589844 20.082031 L 300.621094 20.011719 L 300.648438 19.9375 L 300.675781 19.859375 L 300.699219 19.78125 L 300.71875 19.695312 L 300.730469 19.609375 L 300.746094 19.519531 L 300.753906 19.425781 L 300.757812 19.328125 Z M 300.757812 19.226562 "/>
</g>
</svg>
