<?xml version="1.0" encoding="UTF-8"?>
<svg xmlns="http://www.w3.org/2000/svg" xmlns:xlink="http://www.w3.org/1999/xlink" width="576pt" height="288pt" viewBox="0 0 576 288" version="1.1">
<defs>
<clipPath id="clip1">
  <path d="M 5.480469 5.480469 L 288 5.480469 L 288 282.523438 L 5.480469 282.523438 Z M 5.480469 5.480469 "/>
</clipPath>
<clipPath id="clip2">
  <path d="M 23.035156 23.496094 L 282.519531 23.496094 L 282.519531 274.300781 L 23.035156 274.300781 Z M 23.035156 23.496094 "/>
</clipPath>
<clipPath id="clip3">
  <path d="M 288 5.480469 L 570.519531 5.480469 L 570.519531 282.523438 L 288 282.523438 Z M 288 5.480469 "/>
</clipPath>
<clipPath id="clip4">
  <path d="M 305.558594 23.496094 L 565.042969 23.496094 L 565.042969 274.300781 L 305.558594 274.300781 Z M 305.558594 23.496094 "/>
</clipPath>
</defs>
<g id="surface1099">
<rect x="0" y="0" width="576" height="288" style="fill:rgb(100%,100%,100%);fill-opacity:1;stroke:none;"/>
<rect x="0" y="0" width="576" height="288" style="fill:rgb(100%,100%,100%);fill-opacity:1;stroke:none;"/>
<path style="fill:none;stroke-width:1.066978;stroke-linecap:round;stroke-linejoin:round;stroke:rgb(100%,100%,100%);stroke-opacity:1;stroke-miterlimit:10;" d="M 0 288 L 576 288 L 576 0 L 0 0 Z M 0 288 "/>
<g clip-path="url(#clip1)" clip-rule="nonzero">
<path style="fill-rule:nonzero;fill:rgb(100%,100%,100%);fill-opacity:1;stroke-width:1.066978;stroke-linecap:round;stroke-linejoin:round;stroke:rgb(100%,100%,100%);stroke-opacity:1;stroke-miterlimit:10;" d="M 5.480469 282.519531 L 288 282.519531 L 288 5.476562 L 5.480469 5.476562 Z M 5.480469 282.519531 "/>
</g>
<g clip-path="url(#clip2)" clip-rule="nonzero">
<path style="fill-rule:nonzero;fill:rgb(100%,100%,100%);fill-opacity:1;stroke-width:1.066978;stroke-linecap:round;stroke-linejoin:round;stroke:rgb(100%,100%,100%);stroke-opacity:1;stroke-miterlimit:10;" d="M 23.035156 274.300781 L 282.519531 274.300781 L 282.519531 23.496094 L 23.035156 23.496094 Z M 23.035156 274.300781 "/>
</g>
<path style="fill:none;stroke-width:1.066978;stroke-linecap:round;stroke-linejoin:round;stroke:rgb(69.803922%,13.333333%,13.333333%);stroke-opacity:1;stroke-miterlimit:10;" d="M 220.175781 72.433594 L 237.027344 72.433594 "/>
<path style="fill:none;stroke-width:1.066978;stroke-linecap:round;stroke-linejoin:round;stroke:rgb(69.803922%,13.333333%,13.333333%);stroke-opacity:1;stroke-miterlimit:10;" d="M 220.175781 41.847656 L 237.027344 41.847656 "/>
<path style="fill:none;stroke-width:1.066978;stroke-linecap:round;stroke-linejoin:round;stroke:rgb(69.803922%,13.333333%,13.333333%);stroke-opacity:1;stroke-miterlimit:10;" d="M 194.902344 103.019531 L 215.964844 103.019531 "/>
<path style="fill:none;stroke-width:1.066978;stroke-linecap:round;stroke-linejoin:round;stroke:rgb(69.803922%,13.333333%,13.333333%);stroke-opacity:1;stroke-miterlimit:10;" d="M 161.203125 133.605469 L 186.476562 133.605469 "/>
<path style="fill:none;stroke-width:1.066978;stroke-linecap:round;stroke-linejoin:round;stroke:rgb(69.803922%,13.333333%,13.333333%);stroke-opacity:1;stroke-miterlimit:10;" d="M 148.566406 164.191406 L 237.027344 164.191406 "/>
<path style="fill:none;stroke-width:1.066978;stroke-linecap:round;stroke-linejoin:round;stroke:rgb(0%,0%,0%);stroke-opacity:1;stroke-miterlimit:10;" d="M 34.832031 255.949219 L 270.726562 255.949219 "/>
<path style="fill:none;stroke-width:1.066978;stroke-linecap:round;stroke-linejoin:round;stroke:rgb(0%,0%,0%);stroke-opacity:1;stroke-miterlimit:10;" d="M 34.832031 225.601562 L 34.832031 225.601562 "/>
<path style="fill:none;stroke-width:1.066978;stroke-linecap:round;stroke-linejoin:round;stroke:rgb(0%,0%,0%);stroke-opacity:1;stroke-miterlimit:10;" d="M 34.832031 195.253906 L 51.679688 195.253906 "/>
<path style="fill:none;stroke-width:1.066978;stroke-linecap:round;stroke-linejoin:round;stroke:rgb(0%,0%,0%);stroke-opacity:1;stroke-miterlimit:10;" d="M 51.679688 165.148438 L 106.441406 165.148438 "/>
<path style="fill:none;stroke-width:1.066978;stroke-linecap:round;stroke-linejoin:round;stroke:rgb(69.803922%,13.333333%,13.333333%);stroke-opacity:1;stroke-miterlimit:10;" d="M 106.441406 135.515625 L 148.566406 135.515625 "/>
<path style="fill:none;stroke-width:1.066978;stroke-linecap:round;stroke-linejoin:round;stroke:rgb(69.803922%,13.333333%,13.333333%);stroke-opacity:1;stroke-miterlimit:10;" d="M 148.566406 106.84375 L 161.203125 106.84375 "/>
<path style="fill:none;stroke-width:1.066978;stroke-linecap:round;stroke-linejoin:round;stroke:rgb(69.803922%,13.333333%,13.333333%);stroke-opacity:1;stroke-miterlimit:10;" d="M 161.203125 80.082031 L 194.902344 80.082031 "/>
<path style="fill:none;stroke-width:1.066978;stroke-linecap:round;stroke-linejoin:round;stroke:rgb(69.803922%,13.333333%,13.333333%);stroke-opacity:1;stroke-miterlimit:10;" d="M 194.902344 57.140625 L 220.175781 57.140625 "/>
<path style="fill:none;stroke-width:1.066978;stroke-linecap:round;stroke-linejoin:round;stroke:rgb(27.45098%,50.980392%,70.588235%);stroke-opacity:1;stroke-miterlimit:10;" d="M 106.441406 194.777344 L 161.203125 194.777344 "/>
<path style="fill:none;stroke-width:1.066978;stroke-linecap:round;stroke-linejoin:round;stroke:rgb(0%,0%,0%);stroke-opacity:1;stroke-miterlimit:10;" d="M 51.679688 225.363281 L 123.292969 225.363281 "/>
<path style="fill:none;stroke-width:1.066978;stroke-linecap:round;stroke-linejoin:round;stroke:rgb(69.803922%,13.333333%,13.333333%);stroke-opacity:1;stroke-miterlimit:10;" d="M 220.175781 57.140625 L 220.175781 72.433594 "/>
<path style="fill:none;stroke-width:1.066978;stroke-linecap:round;stroke-linejoin:round;stroke:rgb(69.803922%,13.333333%,13.333333%);stroke-opacity:1;stroke-miterlimit:10;" d="M 220.175781 57.140625 L 220.175781 41.847656 "/>
<path style="fill:none;stroke-width:1.066978;stroke-linecap:round;stroke-linejoin:round;stroke:rgb(69.803922%,13.333333%,13.333333%);stroke-opacity:1;stroke-miterlimit:10;" d="M 194.902344 80.082031 L 194.902344 103.019531 "/>
<path style="fill:none;stroke-width:1.066978;stroke-linecap:round;stroke-linejoin:round;stroke:rgb(69.803922%,13.333333%,13.333333%);stroke-opacity:1;stroke-miterlimit:10;" d="M 161.203125 106.84375 L 161.203125 133.605469 "/>
<path style="fill:none;stroke-width:1.066978;stroke-linecap:round;stroke-linejoin:round;stroke:rgb(69.803922%,13.333333%,13.333333%);stroke-opacity:1;stroke-miterlimit:10;" d="M 148.566406 135.515625 L 148.566406 164.191406 "/>
<path style="fill:none;stroke-width:1.066978;stroke-linecap:round;stroke-linejoin:round;stroke:rgb(0%,0%,0%);stroke-opacity:1;stroke-miterlimit:10;" d="M 34.832031 225.601562 L 34.832031 255.949219 "/>
<path style="fill:none;stroke-width:1.066978;stroke-linecap:round;stroke-linejoin:round;stroke:rgb(0%,0%,0%);stroke-opacity:1;stroke-miterlimit:10;" d="M 34.832031 225.601562 L 34.832031 225.601562 "/>
<path style="fill:none;stroke-width:1.066978;stroke-linecap:round;stroke-linejoin:round;stroke:rgb(0%,0%,0%);stroke-opacity:1;stroke-miterlimit:10;" d="M 34.832031 225.601562 L 34.832031 195.253906 "/>
<path style="fill:none;stroke-width:1.066978;stroke-linecap:round;stroke-linejoin:round;stroke:rgb(0%,0%,0%);stroke-opacity:1;stroke-miterlimit:10;" d="M 51.679688 195.253906 L 51.679688 165.148438 "/>
<path style="fill:none;stroke-width:1.066978;stroke-linecap:round;stroke-linejoin:round;stroke:rgb(69.803922%,13.333333%,13.333333%);stroke-opacity:1;stroke-miterlimit:10;" d="M 106.441406 165.148438 L 106.441406 135.515625 "/>
<path style="fill:none;stroke-width:1.066978;stroke-linecap:round;stroke-linejoin:round;stroke:rgb(69.803922%,13.333333%,13.333333%);stroke-opacity:1;stroke-miterlimit:10;" d="M 148.566406 135.515625 L 148.566406 106.84375 "/>
<path style="fill:none;stroke-width:1.066978;stroke-linecap:round;stroke-linejoin:round;stroke:rgb(69.803922%,13.333333%,13.333333%);stroke-opacity:1;stroke-miterlimit:10;" d="M 161.203125 106.84375 L 161.203125 80.082031 "/>
<path style="fill:none;stroke-width:1.066978;stroke-linecap:round;stroke-linejoin:round;stroke:rgb(69.803922%,13.333333%,13.333333%);stroke-opacity:1;stroke-miterlimit:10;" d="M 194.902344 80.082031 L 194.902344 57.140625 "/>
<path style="fill:none;stroke-width:1.066978;stroke-linecap:round;stroke-linejoin:round;stroke:rgb(27.45098%,50.980392%,70.588235%);stroke-opacity:1;stroke-miterlimit:10;" d="M 106.441406 165.148438 L 106.441406 194.777344 "/>
<path style="fill:none;stroke-width:1.066978;stroke-linecap:round;stroke-linejoin:round;stroke:rgb(0%,0%,0%);stroke-opacity:1;stroke-miterlimit:10;" d="M 51.679688 195.253906 L 51.679688 225.363281 "/>
<path style="fill-rule:nonzero;fill:rgb(0%,100%,0%);fill-opacity:1;stroke-width:0.708661;stroke-linecap:round;stroke-linejoin:round;stroke:rgb(27.45098%,50.980392%,70.588235%);stroke-opacity:1;stroke-miterlimit:10;" d="M 166.890625 194.777344 C 166.890625 197.917969 164.34375 200.46875 161.203125 200.46875 C 158.0625 200.46875 155.515625 197.917969 155.515625 194.777344 C 155.515625 191.636719 158.0625 189.089844 161.203125 189.089844 C 164.34375 189.089844 166.890625 191.636719 166.890625 194.777344 "/>
<path style="fill-rule:nonzero;fill:rgb(100%,0%,0%);fill-opacity:1;stroke-width:0.708661;stroke-linecap:round;stroke-linejoin:round;stroke:rgb(0%,0%,0%);stroke-opacity:1;stroke-miterlimit:10;" d="M 123.292969 232.492188 L 130.421875 225.363281 L 123.292969 218.234375 L 116.160156 225.363281 Z M 123.292969 232.492188 "/>
<path style=" stroke:none;fill-rule:nonzero;fill:rgb(0%,0%,0%);fill-opacity:1;" d="M 18.9375 22.042969 L 17.835938 19.226562 L 13.445312 19.226562 L 12.339844 22.042969 L 10.984375 22.042969 L 14.917969 12.410156 L 16.398438 12.410156 L 20.269531 22.042969 Z M 16.207031 15.03125 L 16.1875 14.976562 L 16.164062 14.921875 L 16.144531 14.863281 L 16.121094 14.808594 L 16.082031 14.699219 L 16.058594 14.644531 L 16.039062 14.585938 L 16.015625 14.53125 L 15.976562 14.421875 L 15.960938 14.367188 L 15.941406 14.3125 L 15.921875 14.261719 L 15.875 14.109375 L 15.855469 14.0625 L 15.824219 13.96875 L 15.8125 13.925781 L 15.796875 13.878906 L 15.78125 13.839844 L 15.769531 13.796875 L 15.757812 13.757812 L 15.742188 13.722656 L 15.730469 13.683594 L 15.71875 13.652344 L 15.707031 13.617188 L 15.695312 13.585938 L 15.671875 13.503906 L 15.664062 13.480469 L 15.660156 13.460938 L 15.652344 13.441406 L 15.648438 13.425781 L 15.644531 13.414062 L 15.644531 13.402344 L 15.640625 13.394531 L 15.636719 13.402344 L 15.628906 13.425781 L 15.625 13.441406 L 15.621094 13.460938 L 15.613281 13.480469 L 15.605469 13.503906 L 15.589844 13.558594 L 15.578125 13.585938 L 15.570312 13.621094 L 15.558594 13.652344 L 15.546875 13.6875 L 15.535156 13.726562 L 15.523438 13.761719 L 15.511719 13.804688 L 15.496094 13.84375 L 15.464844 13.929688 L 15.417969 14.070312 L 15.386719 14.171875 L 15.367188 14.222656 L 15.351562 14.273438 L 15.332031 14.324219 L 15.273438 14.488281 L 15.253906 14.546875 L 15.195312 14.710938 L 15.175781 14.769531 L 15.136719 14.878906 L 15.113281 14.933594 L 15.074219 15.042969 L 13.84375 18.207031 L 17.445312 18.207031 Z M 16.207031 15.03125 "/>
<g clip-path="url(#clip3)" clip-rule="nonzero">
<path style="fill-rule:nonzero;fill:rgb(100%,100%,100%);fill-opacity:1;stroke-width:1.066978;stroke-linecap:round;stroke-linejoin:round;stroke:rgb(100%,100%,100%);stroke-opacity:1;stroke-miterlimit:10;" d="M 288 282.519531 L 570.519531 282.519531 L 570.519531 5.476562 L 288 5.476562 Z M 288 282.519531 "/>
</g>
<g clip-path="url(#clip4)" clip-rule="nonzero">
<path style="fill-rule:nonzero;fill:rgb(100%,100%,100%);fill-opacity:1;stroke-width:1.066978;stroke-linecap:round;stroke-linejoin:round;stroke:rgb(100%,100%,100%);stroke-opacity:1;stroke-miterlimit:10;" d="M 305.558594 274.300781 L 565.042969 274.300781 L 565.042969 23.496094 L 305.558594 23.496094 Z M 305.558594 274.300781 "/>
</g>
<path style="fill:none;stroke-width:1.066978;stroke-linecap:round;stroke-linejoin:round;stroke:rgb(69.803922%,13.333333%,13.333333%);stroke-opacity:1;stroke-miterlimit:10;" d="M 502.699219 53.898438 L 519.546875 53.898438 "/>
<path style="fill:none;stroke-width:1.066978;stroke-linecap:round;stroke-linejoin:round;stroke:rgb(69.803922%,13.333333%,13.333333%);stroke-opacity:1;stroke-miterlimit:10;" d="M 502.699219 34.894531 L 519.546875 34.894531 "/>
<path style="fill:none;stroke-width:1.066978;stroke-linecap:round;stroke-linejoin:round;stroke:rgb(69.803922%,13.333333%,13.333333%);stroke-opacity:1;stroke-miterlimit:10;" d="M 477.421875 72.898438 L 498.484375 72.898438 "/>
<path style="fill:none;stroke-width:1.066978;stroke-linecap:round;stroke-linejoin:round;stroke:rgb(69.803922%,13.333333%,13.333333%);stroke-opacity:1;stroke-miterlimit:10;" d="M 443.722656 91.898438 L 469 91.898438 "/>
<path style="fill:none;stroke-width:1.066978;stroke-linecap:round;stroke-linejoin:round;stroke:rgb(69.803922%,13.333333%,13.333333%);stroke-opacity:1;stroke-miterlimit:10;" d="M 431.085938 110.898438 L 519.546875 110.898438 "/>
<path style="fill:none;stroke-width:1.066978;stroke-linecap:round;stroke-linejoin:round;stroke:rgb(27.45098%,50.980392%,70.588235%);stroke-opacity:1;stroke-miterlimit:10;" d="M 502.699219 148.898438 L 519.546875 148.898438 "/>
<path style="fill:none;stroke-width:1.066978;stroke-linecap:round;stroke-linejoin:round;stroke:rgb(27.45098%,50.980392%,70.588235%);stroke-opacity:1;stroke-miterlimit:10;" d="M 502.699219 129.898438 L 553.246094 129.898438 "/>
<path style="fill:none;stroke-width:1.066978;stroke-linecap:round;stroke-linejoin:round;stroke:rgb(27.45098%,50.980392%,70.588235%);stroke-opacity:1;stroke-miterlimit:10;" d="M 443.722656 167.898438 L 477.421875 167.898438 "/>
<path style="fill:none;stroke-width:1.066978;stroke-linecap:round;stroke-linejoin:round;stroke:rgb(0%,0%,0%);stroke-opacity:1;stroke-miterlimit:10;" d="M 532.183594 243.902344 L 553.246094 243.902344 "/>
<path style="fill:none;stroke-width:1.066978;stroke-linecap:round;stroke-linejoin:round;stroke:rgb(0%,0%,0%);stroke-opacity:1;stroke-miterlimit:10;" d="M 532.183594 224.898438 L 540.609375 224.898438 "/>
<path style="fill:none;stroke-width:1.066978;stroke-linecap:round;stroke-linejoin:round;stroke:rgb(0%,0%,0%);stroke-opacity:1;stroke-miterlimit:10;" d="M 414.238281 205.898438 L 460.574219 205.898438 "/>
<path style="fill:none;stroke-width:1.066978;stroke-linecap:round;stroke-linejoin:round;stroke:rgb(0%,0%,0%);stroke-opacity:1;stroke-miterlimit:10;" d="M 414.238281 186.898438 L 460.574219 186.898438 "/>
<path style="fill:none;stroke-width:1.066978;stroke-linecap:round;stroke-linejoin:round;stroke:rgb(0%,0%,0%);stroke-opacity:1;stroke-miterlimit:10;" d="M 317.351562 262.902344 L 553.246094 262.902344 "/>
<path style="fill:none;stroke-width:1.066978;stroke-linecap:round;stroke-linejoin:round;stroke:rgb(0%,0%,0%);stroke-opacity:1;stroke-miterlimit:10;" d="M 317.351562 216.140625 L 317.351562 216.140625 "/>
<path style="fill:none;stroke-width:1.066978;stroke-linecap:round;stroke-linejoin:round;stroke:rgb(0%,0%,0%);stroke-opacity:1;stroke-miterlimit:10;" d="M 317.351562 169.382812 L 334.203125 169.382812 "/>
<path style="fill:none;stroke-width:1.066978;stroke-linecap:round;stroke-linejoin:round;stroke:rgb(0%,0%,0%);stroke-opacity:1;stroke-miterlimit:10;" d="M 334.203125 123.367188 L 388.960938 123.367188 "/>
<path style="fill:none;stroke-width:1.066978;stroke-linecap:round;stroke-linejoin:round;stroke:rgb(69.803922%,13.333333%,13.333333%);stroke-opacity:1;stroke-miterlimit:10;" d="M 388.960938 93.085938 L 431.085938 93.085938 "/>
<path style="fill:none;stroke-width:1.066978;stroke-linecap:round;stroke-linejoin:round;stroke:rgb(69.803922%,13.333333%,13.333333%);stroke-opacity:1;stroke-miterlimit:10;" d="M 431.085938 75.273438 L 443.722656 75.273438 "/>
<path style="fill:none;stroke-width:1.066978;stroke-linecap:round;stroke-linejoin:round;stroke:rgb(69.803922%,13.333333%,13.333333%);stroke-opacity:1;stroke-miterlimit:10;" d="M 443.722656 58.648438 L 477.421875 58.648438 "/>
<path style="fill:none;stroke-width:1.066978;stroke-linecap:round;stroke-linejoin:round;stroke:rgb(69.803922%,13.333333%,13.333333%);stroke-opacity:1;stroke-miterlimit:10;" d="M 477.421875 44.394531 L 502.699219 44.394531 "/>
<path style="fill:none;stroke-width:1.066978;stroke-linecap:round;stroke-linejoin:round;stroke:rgb(27.45098%,50.980392%,70.588235%);stroke-opacity:1;stroke-miterlimit:10;" d="M 388.960938 153.648438 L 443.722656 153.648438 "/>
<path style="fill:none;stroke-width:1.066978;stroke-linecap:round;stroke-linejoin:round;stroke:rgb(27.45098%,50.980392%,70.588235%);stroke-opacity:1;stroke-miterlimit:10;" d="M 443.722656 139.398438 L 502.699219 139.398438 "/>
<path style="fill:none;stroke-width:1.066978;stroke-linecap:round;stroke-linejoin:round;stroke:rgb(0%,0%,0%);stroke-opacity:1;stroke-miterlimit:10;" d="M 334.203125 215.398438 L 405.8125 215.398438 "/>
<path style="fill:none;stroke-width:1.066978;stroke-linecap:round;stroke-linejoin:round;stroke:rgb(0%,0%,0%);stroke-opacity:1;stroke-miterlimit:10;" d="M 405.8125 234.402344 L 532.183594 234.402344 "/>
<path style="fill:none;stroke-width:1.066978;stroke-linecap:round;stroke-linejoin:round;stroke:rgb(0%,0%,0%);stroke-opacity:1;stroke-miterlimit:10;" d="M 405.8125 196.398438 L 414.238281 196.398438 "/>
<path style="fill:none;stroke-width:1.066978;stroke-linecap:round;stroke-linejoin:round;stroke:rgb(69.803922%,13.333333%,13.333333%);stroke-opacity:1;stroke-miterlimit:10;" d="M 502.699219 44.394531 L 502.699219 53.898438 "/>
<path style="fill:none;stroke-width:1.066978;stroke-linecap:round;stroke-linejoin:round;stroke:rgb(69.803922%,13.333333%,13.333333%);stroke-opacity:1;stroke-miterlimit:10;" d="M 502.699219 44.394531 L 502.699219 34.894531 "/>
<path style="fill:none;stroke-width:1.066978;stroke-linecap:round;stroke-linejoin:round;stroke:rgb(69.803922%,13.333333%,13.333333%);stroke-opacity:1;stroke-miterlimit:10;" d="M 477.421875 58.648438 L 477.421875 72.898438 "/>
<path style="fill:none;stroke-width:1.066978;stroke-linecap:round;stroke-linejoin:round;stroke:rgb(69.803922%,13.333333%,13.333333%);stroke-opacity:1;stroke-miterlimit:10;" d="M 443.722656 75.273438 L 443.722656 91.898438 "/>
<path style="fill:none;stroke-width:1.066978;stroke-linecap:round;stroke-linejoin:round;stroke:rgb(69.803922%,13.333333%,13.333333%);stroke-opacity:1;stroke-miterlimit:10;" d="M 431.085938 93.085938 L 431.085938 110.898438 "/>
<path style="fill:none;stroke-width:1.066978;stroke-linecap:round;stroke-linejoin:round;stroke:rgb(27.45098%,50.980392%,70.588235%);stroke-opacity:1;stroke-miterlimit:10;" d="M 502.699219 139.398438 L 502.699219 148.898438 "/>
<path style="fill:none;stroke-width:1.066978;stroke-linecap:round;stroke-linejoin:round;stroke:rgb(27.45098%,50.980392%,70.588235%);stroke-opacity:1;stroke-miterlimit:10;" d="M 502.699219 139.398438 L 502.699219 129.898438 "/>
<path style="fill:none;stroke-width:1.066978;stroke-linecap:round;stroke-linejoin:round;stroke:rgb(27.45098%,50.980392%,70.588235%);stroke-opacity:1;stroke-miterlimit:10;" d="M 443.722656 153.648438 L 443.722656 167.898438 "/>
<path style="fill:none;stroke-width:1.066978;stroke-linecap:round;stroke-linejoin:round;stroke:rgb(0%,0%,0%);stroke-opacity:1;stroke-miterlimit:10;" d="M 532.183594 234.402344 L 532.183594 243.902344 "/>
<path style="fill:none;stroke-width:1.066978;stroke-linecap:round;stroke-linejoin:round;stroke:rgb(0%,0%,0%);stroke-opacity:1;stroke-miterlimit:10;" d="M 532.183594 234.402344 L 532.183594 224.898438 "/>
<path style="fill:none;stroke-width:1.066978;stroke-linecap:round;stroke-linejoin:round;stroke:rgb(0%,0%,0%);stroke-opacity:1;stroke-miterlimit:10;" d="M 414.238281 196.398438 L 414.238281 205.898438 "/>
<path style="fill:none;stroke-width:1.066978;stroke-linecap:round;stroke-linejoin:round;stroke:rgb(0%,0%,0%);stroke-opacity:1;stroke-miterlimit:10;" d="M 414.238281 196.398438 L 414.238281 186.898438 "/>
<path style="fill:none;stroke-width:1.066978;stroke-linecap:round;stroke-linejoin:round;stroke:rgb(0%,0%,0%);stroke-opacity:1;stroke-miterlimit:10;" d="M 317.351562 216.140625 L 317.351562 262.902344 "/>
<path style="fill:none;stroke-width:1.066978;stroke-linecap:round;stroke-linejoin:round;stroke:rgb(0%,0%,0%);stroke-opacity:1;stroke-miterlimit:10;" d="M 317.351562 216.140625 L 317.351562 216.140625 "/>
<path style="fill:none;stroke-width:1.066978;stroke-linecap:round;stroke-linejoin:round;stroke:rgb(0%,0%,0%);stroke-opacity:1;stroke-miterlimit:10;" d="M 317.351562 216.140625 L 317.351562 169.382812 "/>
<path style="fill:none;stroke-width:1.066978;stroke-linecap:round;stroke-linejoin:round;stroke:rgb(0%,0%,0%);stroke-opacity:1;stroke-miterlimit:10;" d="M 334.203125 169.382812 L 334.203125 123.367188 "/>
<path style="fill:none;stroke-width:1.066978;stroke-linecap:round;stroke-linejoin:round;stroke:rgb(69.803922%,13.333333%,13.333333%);stroke-opacity:1;stroke-miterlimit:10;" d="M 388.960938 123.367188 L 388.960938 93.085938 "/>
<path style="fill:none;stroke-width:1.066978;stroke-linecap:round;stroke-linejoin:round;stroke:rgb(69.803922%,13.333333%,13.333333%);stroke-opacity:1;stroke-miterlimit:10;" d="M 431.085938 93.085938 L 431.085938 75.273438 "/>
<path style="fill:none;stroke-width:1.066978;stroke-linecap:round;stroke-linejoin:round;stroke:rgb(69.803922%,13.333333%,13.333333%);stroke-opacity:1;stroke-miterlimit:10;" d="M 443.722656 75.273438 L 443.722656 58.648438 "/>
<path style="fill:none;stroke-width:1.066978;stroke-linecap:round;stroke-linejoin:round;stroke:rgb(69.803922%,13.333333%,13.333333%);stroke-opacity:1;stroke-miterlimit:10;" d="M 477.421875 58.648438 L 477.421875 44.394531 "/>
<path style="fill:none;stroke-width:1.066978;stroke-linecap:round;stroke-linejoin:round;stroke:rgb(27.45098%,50.980392%,70.588235%);stroke-opacity:1;stroke-miterlimit:10;" d="M 388.960938 123.367188 L 388.960938 153.648438 "/>
<path style="fill:none;stroke-width:1.066978;stroke-linecap:round;stroke-linejoin:round;stroke:rgb(27.45098%,50.980392%,70.588235%);stroke-opacity:1;stroke-miterlimit:10;" d="M 443.722656 153.648438 L 443.722656 139.398438 "/>
<path style="fill:none;stroke-width:1.066978;stroke-linecap:round;stroke-linejoin:round;stroke:rgb(0%,0%,0%);stroke-opacity:1;stroke-miterlimit:10;" d="M 334.203125 169.382812 L 334.203125 215.398438 "/>
<path style="fill:none;stroke-width:1.066978;stroke-linecap:round;stroke-linejoin:round;stroke:rgb(0%,0%,0%);stroke-opacity:1;stroke-miterlimit:10;" d="M 405.8125 215.398438 L 405.8125 234.402344 "/>
<path style="fill:none;stroke-width:1.066978;stroke-linecap:round;stroke-linejoin:round;stroke:rgb(0%,0%,0%);stroke-opacity:1;stroke-miterlimit:10;" d="M 405.8125 215.398438 L 405.8125 196.398438 "/>
<path style="fill-rule:nonzero;fill:rgb(0%,100%,0%);fill-opacity:1;stroke-width:0.708661;stroke-linecap:round;stroke-linejoin:round;stroke:rgb(27.45098%,50.980392%,70.588235%);stroke-opacity:1;stroke-miterlimit:10;" d="M 449.414062 153.648438 C 449.414062 156.789062 446.867188 159.339844 443.722656 159.339844 C 440.582031 159.339844 438.035156 156.789062 438.035156 153.648438 C 438.035156 150.507812 440.582031 147.960938 443.722656 147.960938 C 446.867188 147.960938 449.414062 150.507812 449.414062 153.648438 "/>
<path style="fill-rule:nonzero;fill:rgb(100%,0%,0%);fill-opacity:1;stroke-width:0.708661;stroke-linecap:round;stroke-linejoin:round;stroke:rgb(0%,0%,0%);stroke-opacity:1;stroke-miterlimit:10;" d="M 405.8125 222.53125 L 412.941406 215.398438 L 405.8125 208.269531 L 398.683594 215.398438 Z M 405.8125 222.53125 "/>
<path style=" stroke:none;fill-rule:nonzero;fill:rgb(0%,0%,0%);fill-opacity:1;" d="M 302.078125 19.328125 L 302.078125 19.472656 L 302.066406 19.613281 L 302.054688 19.75 L 302.007812 20.007812 L 301.976562 20.132812 L 301.9375 20.25 L 301.894531 20.363281 L 301.847656 20.472656 L 301.792969 20.582031 L 301.734375 20.679688 L 301.667969 20.777344 L 301.601562 20.871094 L 301.53125 20.960938 L 301.457031 21.046875 L 301.375 21.128906 L 301.292969 21.207031 L 301.207031 21.28125 L 301.113281 21.355469 L 301.019531 21.421875 L 300.921875 21.484375 L 300.820312 21.542969 L 300.714844 21.597656 L 300.605469 21.652344 L 300.496094 21.699219 L 300.378906 21.746094 L 300.261719 21.789062 L 300.019531 21.859375 L 299.890625 21.894531 L 299.761719 21.921875 L 299.632812 21.945312 L 299.5 21.96875 L 299.367188 21.988281 L 299.230469 22.003906 L 299.097656 22.019531 L 298.957031 22.03125 L 298.820312 22.039062 L 298.679688 22.042969 L 294.628906 22.042969 L 294.628906 12.410156 L 298.128906 12.410156 L 298.441406 12.417969 L 298.59375 12.425781 L 298.742188 12.433594 L 298.886719 12.445312 L 299.027344 12.460938 L 299.164062 12.480469 L 299.296875 12.5 L 299.429688 12.523438 L 299.554688 12.546875 L 299.679688 12.574219 L 299.800781 12.605469 L 299.917969 12.640625 L 300.027344 12.675781 L 300.136719 12.71875 L 300.242188 12.761719 L 300.34375 12.808594 L 300.441406 12.855469 L 300.535156 12.910156 L 300.621094 12.964844 L 300.707031 13.023438 L 300.789062 13.085938 L 300.867188 13.152344 L 300.9375 13.21875 L 301.007812 13.292969 L 301.070312 13.367188 L 301.132812 13.445312 L 301.1875 13.523438 L 301.238281 13.609375 L 301.285156 13.695312 L 301.332031 13.785156 L 301.371094 13.878906 L 301.40625 13.976562 L 301.433594 14.074219 L 301.460938 14.179688 L 301.480469 14.285156 L 301.496094 14.394531 L 301.507812 14.511719 L 301.515625 14.628906 L 301.519531 14.75 L 301.515625 14.828125 L 301.515625 14.910156 L 301.507812 14.988281 L 301.5 15.0625 L 301.488281 15.140625 L 301.476562 15.214844 L 301.445312 15.363281 L 301.425781 15.4375 L 301.355469 15.648438 L 301.324219 15.714844 L 301.296875 15.78125 L 301.226562 15.914062 L 301.148438 16.039062 L 301.105469 16.097656 L 301.058594 16.15625 L 301.015625 16.214844 L 300.914062 16.324219 L 300.804688 16.425781 L 300.746094 16.476562 L 300.621094 16.570312 L 300.554688 16.613281 L 300.484375 16.65625 L 300.417969 16.695312 L 300.34375 16.734375 L 300.195312 16.804688 L 300.117188 16.835938 L 300.035156 16.867188 L 299.949219 16.894531 L 299.777344 16.941406 L 299.6875 16.964844 L 299.914062 16.996094 L 300.023438 17.015625 L 300.128906 17.039062 L 300.234375 17.066406 L 300.335938 17.09375 L 300.433594 17.125 L 300.527344 17.15625 L 300.621094 17.191406 L 300.710938 17.230469 L 300.800781 17.273438 L 300.886719 17.316406 L 300.96875 17.359375 L 301.046875 17.40625 L 301.125 17.457031 L 301.199219 17.507812 L 301.269531 17.5625 L 301.335938 17.617188 L 301.402344 17.675781 L 301.464844 17.738281 L 301.523438 17.800781 L 301.578125 17.863281 L 301.632812 17.929688 L 301.679688 18 L 301.730469 18.070312 L 301.816406 18.21875 L 301.851562 18.292969 L 301.890625 18.375 L 301.921875 18.453125 L 301.953125 18.535156 L 301.976562 18.617188 L 302.003906 18.703125 L 302.023438 18.789062 L 302.039062 18.875 L 302.054688 18.964844 L 302.066406 19.050781 L 302.074219 19.144531 L 302.078125 19.234375 Z M 300.207031 14.90625 L 300.199219 14.753906 L 300.183594 14.613281 L 300.15625 14.480469 L 300.121094 14.355469 L 300.074219 14.238281 L 300.015625 14.132812 L 299.945312 14.035156 L 299.863281 13.945312 L 299.773438 13.863281 L 299.671875 13.792969 L 299.5625 13.730469 L 299.441406 13.671875 L 299.308594 13.621094 L 299.167969 13.578125 L 299.019531 13.542969 L 298.859375 13.511719 L 298.691406 13.488281 L 298.511719 13.472656 L 298.324219 13.460938 L 298.128906 13.457031 L 295.933594 13.457031 L 295.933594 16.507812 L 298.128906 16.507812 L 298.242188 16.503906 L 298.351562 16.5 L 298.457031 16.496094 L 298.558594 16.488281 L 298.65625 16.480469 L 298.753906 16.46875 L 298.933594 16.4375 L 299.097656 16.398438 L 299.175781 16.371094 L 299.25 16.347656 L 299.324219 16.320312 L 299.457031 16.257812 L 299.519531 16.226562 L 299.578125 16.191406 L 299.636719 16.152344 L 299.691406 16.117188 L 299.742188 16.074219 L 299.835938 15.988281 L 299.875 15.941406 L 299.917969 15.894531 L 299.988281 15.792969 L 300.019531 15.738281 L 300.074219 15.628906 L 300.097656 15.570312 L 300.117188 15.511719 L 300.136719 15.449219 L 300.167969 15.324219 L 300.179688 15.257812 L 300.1875 15.191406 L 300.203125 15.050781 L 300.203125 14.980469 Z M 300.757812 19.226562 L 300.757812 19.136719 L 300.753906 19.050781 L 300.746094 18.964844 L 300.730469 18.882812 L 300.71875 18.804688 L 300.699219 18.726562 L 300.675781 18.652344 L 300.621094 18.511719 L 300.589844 18.449219 L 300.554688 18.382812 L 300.476562 18.265625 L 300.433594 18.210938 L 300.386719 18.15625 L 300.285156 18.054688 L 300.230469 18.007812 L 300.171875 17.964844 L 300.109375 17.921875 L 300.046875 17.882812 L 299.980469 17.84375 L 299.839844 17.773438 L 299.761719 17.742188 L 299.6875 17.714844 L 299.605469 17.6875 L 299.523438 17.664062 L 299.4375 17.640625 L 299.351562 17.621094 L 299.261719 17.601562 L 299.171875 17.585938 L 299.078125 17.570312 L 298.984375 17.558594 L 298.886719 17.546875 L 298.789062 17.539062 L 298.683594 17.535156 L 298.582031 17.527344 L 298.476562 17.527344 L 298.367188 17.523438 L 295.933594 17.523438 L 295.933594 20.996094 L 298.664062 20.996094 L 298.761719 20.988281 L 298.855469 20.984375 L 298.949219 20.976562 L 299.039062 20.96875 L 299.128906 20.957031 L 299.214844 20.945312 L 299.386719 20.914062 L 299.46875 20.898438 L 299.550781 20.878906 L 299.628906 20.855469 L 299.703125 20.832031 L 299.777344 20.800781 L 299.851562 20.773438 L 299.917969 20.742188 L 299.984375 20.707031 L 300.050781 20.667969 L 300.109375 20.628906 L 300.171875 20.585938 L 300.28125 20.492188 L 300.335938 20.441406 L 300.382812 20.390625 L 300.429688 20.332031 L 300.472656 20.273438 L 300.515625 20.210938 L 300.554688 20.148438 L 300.589844 20.082031 L 300.621094 20.011719 L 300.648438 19.9375 L 300.675781 19.859375 L 300.699219 19.78125 L 300.71875 19.695312 L 300.730469 19.609375 L 300.746094 19.519531 L 300.753906 19.425781 L 300.757812 19.328125 Z M 300.757812 19.226562 "/>
</g>
</svg>
