<?xml version="1.0" encoding="UTF-8"?>
<svg xmlns="http://www.w3.org/2000/svg" xmlns:xlink="http://www.w3.org/1999/xlink" width="432pt" height="216pt" viewBox="0 0 432 216" version="1.1">
<defs>
<clipPath id="clip1">
  <path d="M 5.480469 5.480469 L 216 5.480469 L 216 210.523438 L 5.480469 210.523438 Z M 5.480469 5.480469 "/>
</clipPath>
<clipPath id="clip2">
  <path d="M 23.035156 23.496094 L 210.519531 23.496094 L 210.519531 192.230469 L 23.035156 192.230469 Z M 23.035156 23.496094 "/>
</clipPath>
<clipPath id="clip3">
  <path d="M 216 5.480469 L 426.519531 5.480469 L 426.519531 210.523438 L 216 210.523438 Z M 216 5.480469 "/>
</clipPath>
<clipPath id="clip4">
  <path d="M 233.558594 23.496094 L 421.042969 23.496094 L 421.042969 192.230469 L 233.558594 192.230469 Z M 233.558594 23.496094 "/>
</clipPath>
</defs>
<g id="surface2297">
<rect x="0" y="0" width="432" height="216" style="fill:rgb(100%,100%,100%);fill-opacity:1;stroke:none;"/>
<rect x="0" y="0" width="432" height="216" style="fill:rgb(100%,100%,100%);fill-opacity:1;stroke:none;"/>
<path style="fill:none;stroke-width:1.066978;stroke-linecap:round;stroke-linejoin:round;stroke:rgb(100%,100%,100%);stroke-opacity:1;stroke-miterlimit:10;" d="M 0 216 L 432 216 L 432 0 L 0 0 Z M 0 216 "/>
<g clip-path="url(#clip1)" clip-rule="nonzero">
<path style="fill-rule:nonzero;fill:rgb(100%,100%,100%);fill-opacity:1;stroke-width:1.066978;stroke-linecap:round;stroke-linejoin:round;stroke:rgb(100%,100%,100%);stroke-opacity:1;stroke-miterlimit:10;" d="M 5.480469 210.519531 L 216 210.519531 L 216 5.476562 L 5.480469 5.476562 Z M 5.480469 210.519531 "/>
</g>
<g clip-path="url(#clip2)" clip-rule="nonzero">
<path style="fill-rule:nonzero;fill:rgb(100%,100%,100%);fill-opacity:1;stroke-width:1.066978;stroke-linecap:round;stroke-linejoin:round;stroke:rgb(100%,100%,100%);stroke-opacity:1;stroke-miterlimit:10;" d="M 23.035156 192.230469 L 210.519531 192.230469 L 210.519531 23.496094 L 23.035156 23.496094 Z M 23.035156 192.230469 "/>
</g>
<path style="fill:none;stroke-width:1.066978;stroke-linecap:round;stroke-linejoin:round;stroke:rgb(0%,0%,0%);stroke-opacity:1;stroke-miterlimit:10;" d="M 69.988281 132.675781 L 127.777344 132.675781 "/>
<path style="fill:none;stroke-width:1.066978;stroke-linecap:round;stroke-linejoin:round;stroke:rgb(0%,0%,0%);stroke-opacity:1;stroke-miterlimit:10;" d="M 127.621094 83.050781 L 127.734375 83.050781 "/>
<path style="fill:none;stroke-width:1.066978;stroke-linecap:round;stroke-linejoin:round;stroke:rgb(0%,0%,0%);stroke-opacity:1;stroke-miterlimit:10;" d="M 152.671875 49.964844 L 202 49.964844 "/>
<path style="fill:none;stroke-width:1.066978;stroke-linecap:round;stroke-linejoin:round;stroke:rgb(0%,0%,0%);stroke-opacity:1;stroke-miterlimit:10;" d="M 152.671875 33.421875 L 156.429688 33.421875 "/>
<path style="fill:none;stroke-width:1.066978;stroke-linecap:round;stroke-linejoin:round;stroke:rgb(0%,0%,0%);stroke-opacity:1;stroke-miterlimit:10;" d="M 143.429688 66.507812 L 189.132812 66.507812 "/>
<path style="fill:none;stroke-width:1.066978;stroke-linecap:round;stroke-linejoin:round;stroke:rgb(0%,0%,0%);stroke-opacity:1;stroke-miterlimit:10;" d="M 131.726562 116.132812 L 135.1875 116.132812 "/>
<path style="fill:none;stroke-width:1.066978;stroke-linecap:round;stroke-linejoin:round;stroke:rgb(0%,0%,0%);stroke-opacity:1;stroke-miterlimit:10;" d="M 131.726562 99.589844 L 151.3125 99.589844 "/>
<path style="fill:none;stroke-width:1.066978;stroke-linecap:round;stroke-linejoin:round;stroke:rgb(0%,0%,0%);stroke-opacity:1;stroke-miterlimit:10;" d="M 47.234375 182.304688 L 50.839844 182.304688 "/>
<path style="fill:none;stroke-width:1.066978;stroke-linecap:round;stroke-linejoin:round;stroke:rgb(0%,0%,0%);stroke-opacity:1;stroke-miterlimit:10;" d="M 56.417969 165.761719 L 63.871094 165.761719 "/>
<path style="fill:none;stroke-width:1.066978;stroke-linecap:round;stroke-linejoin:round;stroke:rgb(0%,0%,0%);stroke-opacity:1;stroke-miterlimit:10;" d="M 56.417969 149.21875 L 62.214844 149.21875 "/>
<path style="fill:none;stroke-width:1.066978;stroke-linecap:round;stroke-linejoin:round;stroke:rgb(0%,0%,0%);stroke-opacity:1;stroke-miterlimit:10;" d="M 31.558594 140.171875 L 31.558594 140.171875 "/>
<path style="fill:none;stroke-width:1.066978;stroke-linecap:round;stroke-linejoin:round;stroke:rgb(0%,0%,0%);stroke-opacity:1;stroke-miterlimit:10;" d="M 31.558594 110.449219 L 69.988281 110.449219 "/>
<path style="fill:none;stroke-width:1.066978;stroke-linecap:round;stroke-linejoin:round;stroke:rgb(0%,0%,0%);stroke-opacity:1;stroke-miterlimit:10;" d="M 69.988281 88.21875 L 116.453125 88.21875 "/>
<path style="fill:none;stroke-width:1.066978;stroke-linecap:round;stroke-linejoin:round;stroke:rgb(0%,0%,0%);stroke-opacity:1;stroke-miterlimit:10;" d="M 116.453125 68.574219 L 127.621094 68.574219 "/>
<path style="fill:none;stroke-width:1.066978;stroke-linecap:round;stroke-linejoin:round;stroke:rgb(0%,0%,0%);stroke-opacity:1;stroke-miterlimit:10;" d="M 127.621094 54.097656 L 143.429688 54.097656 "/>
<path style="fill:none;stroke-width:1.066978;stroke-linecap:round;stroke-linejoin:round;stroke:rgb(0%,0%,0%);stroke-opacity:1;stroke-miterlimit:10;" d="M 143.429688 41.691406 L 152.671875 41.691406 "/>
<path style="fill:none;stroke-width:1.066978;stroke-linecap:round;stroke-linejoin:round;stroke:rgb(0%,0%,0%);stroke-opacity:1;stroke-miterlimit:10;" d="M 116.453125 107.863281 L 131.726562 107.863281 "/>
<path style="fill:none;stroke-width:1.066978;stroke-linecap:round;stroke-linejoin:round;stroke:rgb(0%,0%,0%);stroke-opacity:1;stroke-miterlimit:10;" d="M 31.558594 169.898438 L 47.234375 169.898438 "/>
<path style="fill:none;stroke-width:1.066978;stroke-linecap:round;stroke-linejoin:round;stroke:rgb(0%,0%,0%);stroke-opacity:1;stroke-miterlimit:10;" d="M 47.234375 157.488281 L 56.417969 157.488281 "/>
<path style="fill:none;stroke-width:1.066978;stroke-linecap:round;stroke-linejoin:round;stroke:rgb(0%,0%,0%);stroke-opacity:1;stroke-miterlimit:10;" d="M 69.988281 110.449219 L 69.988281 132.675781 "/>
<path style="fill:none;stroke-width:1.066978;stroke-linecap:round;stroke-linejoin:round;stroke:rgb(0%,0%,0%);stroke-opacity:1;stroke-miterlimit:10;" d="M 127.621094 68.574219 L 127.621094 83.050781 "/>
<path style="fill:none;stroke-width:1.066978;stroke-linecap:round;stroke-linejoin:round;stroke:rgb(0%,0%,0%);stroke-opacity:1;stroke-miterlimit:10;" d="M 152.671875 41.691406 L 152.671875 49.964844 "/>
<path style="fill:none;stroke-width:1.066978;stroke-linecap:round;stroke-linejoin:round;stroke:rgb(0%,0%,0%);stroke-opacity:1;stroke-miterlimit:10;" d="M 152.671875 41.691406 L 152.671875 33.421875 "/>
<path style="fill:none;stroke-width:1.066978;stroke-linecap:round;stroke-linejoin:round;stroke:rgb(0%,0%,0%);stroke-opacity:1;stroke-miterlimit:10;" d="M 143.429688 54.097656 L 143.429688 66.507812 "/>
<path style="fill:none;stroke-width:1.066978;stroke-linecap:round;stroke-linejoin:round;stroke:rgb(0%,0%,0%);stroke-opacity:1;stroke-miterlimit:10;" d="M 131.726562 107.863281 L 131.726562 116.132812 "/>
<path style="fill:none;stroke-width:1.066978;stroke-linecap:round;stroke-linejoin:round;stroke:rgb(0%,0%,0%);stroke-opacity:1;stroke-miterlimit:10;" d="M 131.726562 107.863281 L 131.726562 99.589844 "/>
<path style="fill:none;stroke-width:1.066978;stroke-linecap:round;stroke-linejoin:round;stroke:rgb(0%,0%,0%);stroke-opacity:1;stroke-miterlimit:10;" d="M 47.234375 169.898438 L 47.234375 182.304688 "/>
<path style="fill:none;stroke-width:1.066978;stroke-linecap:round;stroke-linejoin:round;stroke:rgb(0%,0%,0%);stroke-opacity:1;stroke-miterlimit:10;" d="M 56.417969 157.488281 L 56.417969 165.761719 "/>
<path style="fill:none;stroke-width:1.066978;stroke-linecap:round;stroke-linejoin:round;stroke:rgb(0%,0%,0%);stroke-opacity:1;stroke-miterlimit:10;" d="M 56.417969 157.488281 L 56.417969 149.21875 "/>
<path style="fill:none;stroke-width:1.066978;stroke-linecap:round;stroke-linejoin:round;stroke:rgb(0%,0%,0%);stroke-opacity:1;stroke-miterlimit:10;" d="M 31.558594 140.171875 L 31.558594 140.171875 "/>
<path style="fill:none;stroke-width:1.066978;stroke-linecap:round;stroke-linejoin:round;stroke:rgb(0%,0%,0%);stroke-opacity:1;stroke-miterlimit:10;" d="M 31.558594 140.171875 L 31.558594 110.449219 "/>
<path style="fill:none;stroke-width:1.066978;stroke-linecap:round;stroke-linejoin:round;stroke:rgb(0%,0%,0%);stroke-opacity:1;stroke-miterlimit:10;" d="M 69.988281 110.449219 L 69.988281 88.21875 "/>
<path style="fill:none;stroke-width:1.066978;stroke-linecap:round;stroke-linejoin:round;stroke:rgb(0%,0%,0%);stroke-opacity:1;stroke-miterlimit:10;" d="M 116.453125 88.21875 L 116.453125 68.574219 "/>
<path style="fill:none;stroke-width:1.066978;stroke-linecap:round;stroke-linejoin:round;stroke:rgb(0%,0%,0%);stroke-opacity:1;stroke-miterlimit:10;" d="M 127.621094 68.574219 L 127.621094 54.097656 "/>
<path style="fill:none;stroke-width:1.066978;stroke-linecap:round;stroke-linejoin:round;stroke:rgb(0%,0%,0%);stroke-opacity:1;stroke-miterlimit:10;" d="M 143.429688 54.097656 L 143.429688 41.691406 "/>
<path style="fill:none;stroke-width:1.066978;stroke-linecap:round;stroke-linejoin:round;stroke:rgb(0%,0%,0%);stroke-opacity:1;stroke-miterlimit:10;" d="M 116.453125 88.21875 L 116.453125 107.863281 "/>
<path style="fill:none;stroke-width:1.066978;stroke-linecap:round;stroke-linejoin:round;stroke:rgb(0%,0%,0%);stroke-opacity:1;stroke-miterlimit:10;" d="M 31.558594 140.171875 L 31.558594 169.898438 "/>
<path style="fill:none;stroke-width:1.066978;stroke-linecap:round;stroke-linejoin:round;stroke:rgb(0%,0%,0%);stroke-opacity:1;stroke-miterlimit:10;" d="M 47.234375 169.898438 L 47.234375 157.488281 "/>
<path style="fill:none;stroke-width:1.066978;stroke-linecap:butt;stroke-linejoin:round;stroke:rgb(0%,0%,0%);stroke-opacity:1;stroke-miterlimit:10;" d="M 23.035156 192.230469 L 210.519531 192.230469 "/>
<path style="fill:none;stroke-width:1.066978;stroke-linecap:butt;stroke-linejoin:round;stroke:rgb(20%,20%,20%);stroke-opacity:1;stroke-miterlimit:10;" d="M 31.558594 194.96875 L 31.558594 192.230469 "/>
<path style="fill:none;stroke-width:1.066978;stroke-linecap:butt;stroke-linejoin:round;stroke:rgb(20%,20%,20%);stroke-opacity:1;stroke-miterlimit:10;" d="M 93.019531 194.96875 L 93.019531 192.230469 "/>
<path style="fill:none;stroke-width:1.066978;stroke-linecap:butt;stroke-linejoin:round;stroke:rgb(20%,20%,20%);stroke-opacity:1;stroke-miterlimit:10;" d="M 154.476562 194.96875 L 154.476562 192.230469 "/>
<path style=" stroke:none;fill-rule:nonzero;fill:rgb(30.196078%,30.196078%,30.196078%);fill-opacity:1;" d="M 33.660156 200.1875 L 33.660156 200.355469 L 33.65625 200.523438 L 33.648438 200.683594 L 33.636719 200.839844 L 33.621094 200.988281 L 33.601562 201.132812 L 33.578125 201.273438 L 33.554688 201.40625 L 33.527344 201.53125 L 33.496094 201.65625 L 33.460938 201.773438 L 33.425781 201.882812 L 33.386719 201.992188 L 33.34375 202.09375 L 33.300781 202.191406 L 33.253906 202.285156 L 33.203125 202.375 L 33.152344 202.460938 L 33.097656 202.542969 L 33.042969 202.617188 L 32.984375 202.6875 L 32.925781 202.753906 L 32.863281 202.816406 L 32.800781 202.875 L 32.734375 202.929688 L 32.664062 202.980469 L 32.59375 203.027344 L 32.523438 203.070312 L 32.449219 203.109375 L 32.292969 203.171875 L 32.214844 203.199219 L 32.136719 203.222656 L 31.972656 203.261719 L 31.890625 203.277344 L 31.804688 203.285156 L 31.722656 203.292969 L 31.636719 203.300781 L 31.460938 203.300781 L 31.203125 203.277344 L 31.121094 203.261719 L 30.957031 203.222656 L 30.878906 203.199219 L 30.800781 203.171875 L 30.722656 203.140625 L 30.648438 203.109375 L 30.574219 203.070312 L 30.503906 203.027344 L 30.433594 202.980469 L 30.363281 202.929688 L 30.300781 202.875 L 30.234375 202.816406 L 30.175781 202.753906 L 30.113281 202.6875 L 30.058594 202.617188 L 30.003906 202.542969 L 29.949219 202.460938 L 29.898438 202.378906 L 29.851562 202.289062 L 29.804688 202.195312 L 29.761719 202.097656 L 29.722656 201.996094 L 29.683594 201.886719 L 29.648438 201.777344 L 29.613281 201.660156 L 29.582031 201.539062 L 29.558594 201.410156 L 29.53125 201.277344 L 29.511719 201.136719 L 29.496094 200.992188 L 29.480469 200.84375 L 29.46875 200.6875 L 29.460938 200.523438 L 29.457031 200.359375 L 29.457031 200.003906 L 29.460938 199.832031 L 29.46875 199.664062 L 29.480469 199.503906 L 29.496094 199.351562 L 29.511719 199.203125 L 29.53125 199.058594 L 29.558594 198.925781 L 29.582031 198.796875 L 29.613281 198.671875 L 29.648438 198.554688 L 29.683594 198.441406 L 29.722656 198.335938 L 29.765625 198.230469 L 29.808594 198.132812 L 29.851562 198.039062 L 29.902344 197.949219 L 29.953125 197.867188 L 30.003906 197.789062 L 30.0625 197.714844 L 30.117188 197.644531 L 30.242188 197.519531 L 30.304688 197.464844 L 30.371094 197.410156 L 30.4375 197.363281 L 30.507812 197.320312 L 30.582031 197.28125 L 30.65625 197.246094 L 30.730469 197.214844 L 30.808594 197.1875 L 30.890625 197.164062 L 30.96875 197.140625 L 31.050781 197.121094 L 31.136719 197.105469 L 31.21875 197.09375 L 31.304688 197.082031 L 31.394531 197.078125 L 31.484375 197.070312 L 31.660156 197.070312 L 31.746094 197.078125 L 31.828125 197.082031 L 31.992188 197.105469 L 32.074219 197.121094 L 32.152344 197.140625 L 32.308594 197.1875 L 32.386719 197.214844 L 32.460938 197.246094 L 32.535156 197.28125 L 32.605469 197.320312 L 32.675781 197.363281 L 32.742188 197.410156 L 32.808594 197.464844 L 32.871094 197.519531 L 32.933594 197.582031 L 32.992188 197.644531 L 33.050781 197.714844 L 33.105469 197.789062 L 33.160156 197.867188 L 33.210938 197.949219 L 33.257812 198.039062 L 33.304688 198.132812 L 33.347656 198.230469 L 33.390625 198.335938 L 33.429688 198.441406 L 33.464844 198.554688 L 33.5 198.671875 L 33.53125 198.796875 L 33.558594 198.925781 L 33.582031 199.058594 L 33.601562 199.203125 L 33.621094 199.351562 L 33.636719 199.503906 L 33.648438 199.664062 L 33.65625 199.832031 L 33.660156 200.003906 Z M 32.875 200.1875 L 32.875 200.042969 L 32.871094 199.90625 L 32.867188 199.773438 L 32.863281 199.648438 L 32.855469 199.523438 L 32.84375 199.40625 L 32.820312 199.1875 L 32.804688 199.085938 L 32.773438 198.890625 L 32.75 198.800781 L 32.730469 198.714844 L 32.707031 198.632812 L 32.683594 198.554688 L 32.65625 198.480469 L 32.628906 198.410156 L 32.601562 198.34375 L 32.570312 198.28125 L 32.535156 198.222656 L 32.464844 198.113281 L 32.429688 198.066406 L 32.390625 198.019531 L 32.308594 197.9375 L 32.261719 197.902344 L 32.21875 197.871094 L 32.125 197.816406 L 32.074219 197.796875 L 32.023438 197.773438 L 31.921875 197.742188 L 31.867188 197.726562 L 31.808594 197.71875 L 31.753906 197.707031 L 31.695312 197.703125 L 31.632812 197.699219 L 31.507812 197.699219 L 31.382812 197.707031 L 31.324219 197.71875 L 31.265625 197.726562 L 31.210938 197.742188 L 31.152344 197.757812 L 31.101562 197.773438 L 31.046875 197.796875 L 30.996094 197.816406 L 30.902344 197.871094 L 30.855469 197.90625 L 30.8125 197.941406 L 30.769531 197.980469 L 30.726562 198.023438 L 30.648438 198.117188 L 30.578125 198.226562 L 30.542969 198.285156 L 30.511719 198.347656 L 30.484375 198.414062 L 30.457031 198.484375 L 30.429688 198.558594 L 30.40625 198.636719 L 30.382812 198.71875 L 30.359375 198.804688 L 30.339844 198.898438 L 30.324219 198.992188 L 30.308594 199.089844 L 30.292969 199.191406 L 30.269531 199.410156 L 30.257812 199.527344 L 30.25 199.648438 L 30.246094 199.777344 L 30.238281 200.042969 L 30.238281 200.324219 L 30.242188 200.457031 L 30.25 200.707031 L 30.257812 200.828125 L 30.28125 201.054688 L 30.292969 201.160156 L 30.308594 201.261719 L 30.324219 201.359375 L 30.34375 201.453125 L 30.363281 201.542969 L 30.382812 201.628906 L 30.40625 201.710938 L 30.433594 201.789062 L 30.488281 201.9375 L 30.515625 202.003906 L 30.546875 202.066406 L 30.582031 202.128906 L 30.652344 202.238281 L 30.730469 202.332031 L 30.769531 202.375 L 30.8125 202.417969 L 30.855469 202.453125 L 30.902344 202.488281 L 30.996094 202.542969 L 31.097656 202.589844 L 31.152344 202.609375 L 31.203125 202.625 L 31.261719 202.636719 L 31.316406 202.648438 L 31.433594 202.664062 L 31.496094 202.667969 L 31.617188 202.667969 L 31.675781 202.664062 L 31.734375 202.65625 L 31.789062 202.648438 L 31.847656 202.636719 L 31.902344 202.625 L 31.953125 202.609375 L 32.007812 202.589844 L 32.058594 202.566406 L 32.105469 202.542969 L 32.15625 202.515625 L 32.203125 202.488281 L 32.289062 202.417969 L 32.332031 202.375 L 32.371094 202.332031 L 32.449219 202.238281 L 32.519531 202.128906 L 32.550781 202.066406 L 32.585938 202.003906 L 32.613281 201.9375 L 32.644531 201.863281 L 32.671875 201.789062 L 32.695312 201.710938 L 32.71875 201.628906 L 32.742188 201.542969 L 32.761719 201.453125 L 32.78125 201.359375 L 32.800781 201.261719 L 32.816406 201.160156 L 32.828125 201.054688 L 32.851562 200.828125 L 32.859375 200.707031 L 32.867188 200.582031 L 32.871094 200.457031 L 32.875 200.324219 Z M 32.875 200.1875 "/>
<path style=" stroke:none;fill-rule:nonzero;fill:rgb(30.196078%,30.196078%,30.196078%);fill-opacity:1;" d="M 91.242188 203.214844 L 91.242188 202.558594 L 92.785156 202.558594 L 92.785156 197.898438 L 91.417969 198.875 L 91.417969 198.144531 L 92.847656 197.160156 L 93.5625 197.160156 L 93.5625 202.558594 L 95.035156 202.558594 L 95.035156 203.214844 Z M 91.242188 203.214844 "/>
<path style=" stroke:none;fill-rule:nonzero;fill:rgb(30.196078%,30.196078%,30.196078%);fill-opacity:1;" d="M 152.472656 203.214844 L 152.472656 202.667969 L 152.566406 202.472656 L 152.613281 202.378906 L 152.664062 202.285156 L 152.714844 202.195312 L 152.769531 202.109375 L 152.828125 202.023438 L 152.882812 201.941406 L 153.070312 201.707031 L 153.132812 201.632812 L 153.199219 201.558594 L 153.398438 201.347656 L 153.464844 201.28125 L 153.535156 201.214844 L 153.601562 201.152344 L 153.8125 200.964844 L 153.878906 200.902344 L 154.019531 200.785156 L 154.085938 200.730469 L 154.15625 200.671875 L 154.222656 200.617188 L 154.292969 200.5625 L 154.425781 200.453125 L 154.496094 200.402344 L 154.558594 200.347656 L 154.625 200.292969 L 154.6875 200.242188 L 154.746094 200.1875 L 154.808594 200.136719 L 154.867188 200.082031 L 154.921875 200.027344 L 154.976562 199.976562 L 155.03125 199.921875 L 155.132812 199.8125 L 155.226562 199.703125 L 155.269531 199.644531 L 155.3125 199.589844 L 155.347656 199.53125 L 155.386719 199.476562 L 155.421875 199.417969 L 155.453125 199.355469 L 155.484375 199.296875 L 155.53125 199.171875 L 155.550781 199.105469 L 155.566406 199.039062 L 155.578125 198.96875 L 155.585938 198.898438 L 155.589844 198.828125 L 155.59375 198.753906 L 155.59375 198.703125 L 155.589844 198.652344 L 155.582031 198.558594 L 155.574219 198.511719 L 155.566406 198.46875 L 155.542969 198.382812 L 155.53125 198.34375 L 155.5 198.265625 L 155.480469 198.226562 L 155.421875 198.121094 L 155.375 198.058594 L 155.347656 198.027344 L 155.292969 197.972656 L 155.261719 197.945312 L 155.199219 197.898438 L 155.164062 197.878906 L 155.128906 197.855469 L 155.09375 197.835938 L 155.058594 197.820312 L 154.941406 197.773438 L 154.8125 197.738281 L 154.726562 197.722656 L 154.679688 197.71875 L 154.632812 197.710938 L 154.585938 197.710938 L 154.539062 197.707031 L 154.398438 197.707031 L 154.351562 197.710938 L 154.308594 197.714844 L 154.261719 197.722656 L 154.132812 197.746094 L 154.089844 197.757812 L 154.050781 197.769531 L 153.894531 197.832031 L 153.824219 197.871094 L 153.789062 197.894531 L 153.753906 197.914062 L 153.722656 197.9375 L 153.6875 197.964844 L 153.65625 197.992188 L 153.628906 198.019531 L 153.597656 198.046875 L 153.542969 198.109375 L 153.519531 198.140625 L 153.492188 198.175781 L 153.46875 198.210938 L 153.449219 198.25 L 153.425781 198.285156 L 153.40625 198.324219 L 153.390625 198.363281 L 153.34375 198.492188 L 153.332031 198.535156 L 153.324219 198.582031 L 153.3125 198.628906 L 153.296875 198.730469 L 152.507812 198.65625 L 152.515625 198.589844 L 152.539062 198.464844 L 152.570312 198.339844 L 152.589844 198.277344 L 152.613281 198.21875 L 152.636719 198.15625 L 152.660156 198.097656 L 152.6875 198.042969 L 152.71875 197.984375 L 152.78125 197.875 L 152.820312 197.824219 L 152.855469 197.773438 L 152.898438 197.722656 L 152.9375 197.675781 L 153.03125 197.582031 L 153.078125 197.539062 L 153.128906 197.496094 L 153.183594 197.453125 L 153.238281 197.414062 L 153.292969 197.378906 L 153.351562 197.34375 L 153.414062 197.308594 L 153.476562 197.277344 L 153.675781 197.195312 L 153.746094 197.171875 L 153.820312 197.148438 L 154.054688 197.101562 L 154.136719 197.089844 L 154.308594 197.074219 L 154.398438 197.070312 L 154.578125 197.070312 L 154.75 197.078125 L 154.832031 197.085938 L 154.996094 197.109375 L 155.070312 197.121094 L 155.148438 197.140625 L 155.21875 197.15625 L 155.292969 197.179688 L 155.359375 197.199219 L 155.429688 197.226562 L 155.492188 197.25 L 155.617188 197.3125 L 155.675781 197.34375 L 155.785156 197.414062 L 155.835938 197.453125 L 155.886719 197.496094 L 155.933594 197.539062 L 155.976562 197.582031 L 156.019531 197.632812 L 156.0625 197.679688 L 156.101562 197.730469 L 156.171875 197.839844 L 156.203125 197.894531 L 156.230469 197.953125 L 156.285156 198.078125 L 156.324219 198.210938 L 156.339844 198.277344 L 156.355469 198.347656 L 156.367188 198.421875 L 156.382812 198.570312 L 156.386719 198.648438 L 156.386719 198.789062 L 156.382812 198.851562 L 156.378906 198.910156 L 156.371094 198.96875 L 156.347656 199.085938 L 156.332031 199.140625 L 156.316406 199.199219 L 156.277344 199.308594 L 156.230469 199.417969 L 156.203125 199.472656 L 156.175781 199.523438 L 156.148438 199.578125 L 156.121094 199.628906 L 156.085938 199.679688 L 156.054688 199.734375 L 156.019531 199.78125 L 155.984375 199.832031 L 155.945312 199.882812 L 155.910156 199.933594 L 155.871094 199.980469 L 155.828125 200.03125 L 155.789062 200.078125 L 155.703125 200.171875 L 155.65625 200.222656 L 155.5625 200.316406 L 155.515625 200.359375 L 155.464844 200.40625 L 155.417969 200.453125 L 155.367188 200.5 L 155.316406 200.542969 L 155.214844 200.636719 L 155.164062 200.679688 L 155.113281 200.726562 L 155.058594 200.769531 L 155.007812 200.8125 L 154.953125 200.859375 L 154.902344 200.902344 L 154.847656 200.945312 L 154.796875 200.988281 L 154.742188 201.03125 L 154.691406 201.078125 L 154.636719 201.121094 L 154.585938 201.164062 L 154.476562 201.25 L 154.324219 201.378906 L 154.273438 201.425781 L 154.171875 201.511719 L 154.078125 201.597656 L 154.027344 201.640625 L 153.984375 201.6875 L 153.9375 201.730469 L 153.894531 201.773438 L 153.851562 201.820312 L 153.808594 201.863281 L 153.765625 201.910156 L 153.726562 201.953125 L 153.6875 202 L 153.648438 202.042969 L 153.613281 202.089844 L 153.574219 202.132812 L 153.542969 202.179688 L 153.507812 202.226562 L 153.476562 202.269531 L 153.449219 202.316406 L 153.417969 202.363281 L 153.394531 202.414062 L 153.367188 202.460938 L 153.34375 202.507812 L 153.324219 202.558594 L 156.480469 202.558594 L 156.480469 203.214844 Z M 152.472656 203.214844 "/>
<path style=" stroke:none;fill-rule:nonzero;fill:rgb(0%,0%,0%);fill-opacity:1;" d="M 18.9375 22.042969 L 17.835938 19.226562 L 13.445312 19.226562 L 12.339844 22.042969 L 10.984375 22.042969 L 14.917969 12.410156 L 16.398438 12.410156 L 20.269531 22.042969 Z M 16.207031 15.03125 L 16.1875 14.976562 L 16.164062 14.921875 L 16.144531 14.863281 L 16.121094 14.808594 L 16.082031 14.699219 L 16.058594 14.644531 L 16.039062 14.585938 L 16.015625 14.53125 L 15.976562 14.421875 L 15.960938 14.367188 L 15.941406 14.3125 L 15.921875 14.261719 L 15.875 14.109375 L 15.855469 14.0625 L 15.824219 13.96875 L 15.8125 13.925781 L 15.796875 13.878906 L 15.78125 13.839844 L 15.769531 13.796875 L 15.757812 13.757812 L 15.742188 13.722656 L 15.730469 13.683594 L 15.71875 13.652344 L 15.707031 13.617188 L 15.695312 13.585938 L 15.671875 13.503906 L 15.664062 13.480469 L 15.660156 13.460938 L 15.652344 13.441406 L 15.648438 13.425781 L 15.644531 13.414062 L 15.644531 13.402344 L 15.640625 13.394531 L 15.636719 13.402344 L 15.628906 13.425781 L 15.625 13.441406 L 15.621094 13.460938 L 15.613281 13.480469 L 15.605469 13.503906 L 15.589844 13.558594 L 15.578125 13.585938 L 15.570312 13.621094 L 15.558594 13.652344 L 15.546875 13.6875 L 15.535156 13.726562 L 15.523438 13.761719 L 15.511719 13.804688 L 15.496094 13.84375 L 15.464844 13.929688 L 15.417969 14.070312 L 15.386719 14.171875 L 15.367188 14.222656 L 15.351562 14.273438 L 15.332031 14.324219 L 15.273438 14.488281 L 15.253906 14.546875 L 15.195312 14.710938 L 15.175781 14.769531 L 15.136719 14.878906 L 15.113281 14.933594 L 15.074219 15.042969 L 13.84375 18.207031 L 17.445312 18.207031 Z M 16.207031 15.03125 "/>
<g clip-path="url(#clip3)" clip-rule="nonzero">
<path style="fill-rule:nonzero;fill:rgb(100%,100%,100%);fill-opacity:1;stroke-width:1.066978;stroke-linecap:round;stroke-linejoin:round;stroke:rgb(100%,100%,100%);stroke-opacity:1;stroke-miterlimit:10;" d="M 216 210.519531 L 426.519531 210.519531 L 426.519531 5.476562 L 216 5.476562 Z M 216 210.519531 "/>
</g>
<g clip-path="url(#clip4)" clip-rule="nonzero">
<path style="fill-rule:nonzero;fill:rgb(100%,100%,100%);fill-opacity:1;stroke-width:1.066978;stroke-linecap:round;stroke-linejoin:round;stroke:rgb(100%,100%,100%);stroke-opacity:1;stroke-miterlimit:10;" d="M 233.558594 192.230469 L 421.042969 192.230469 L 421.042969 23.496094 L 233.558594 23.496094 Z M 233.558594 192.230469 "/>
</g>
<path style="fill:none;stroke-width:1.066978;stroke-linecap:round;stroke-linejoin:round;stroke:rgb(0%,0%,0%);stroke-opacity:1;stroke-miterlimit:10;" d="M 280.507812 132.675781 L 338.300781 132.675781 "/>
<path style="fill:none;stroke-width:1.066978;stroke-linecap:round;stroke-linejoin:round;stroke:rgb(0%,0%,0%);stroke-opacity:1;stroke-miterlimit:10;" d="M 338.140625 83.050781 L 338.253906 83.050781 "/>
<path style="fill:none;stroke-width:1.066978;stroke-linecap:round;stroke-linejoin:round;stroke:rgb(0%,0%,0%);stroke-opacity:1;stroke-miterlimit:10;" d="M 363.191406 49.964844 L 412.519531 49.964844 "/>
<path style="fill:none;stroke-width:1.066978;stroke-linecap:round;stroke-linejoin:round;stroke:rgb(0%,0%,0%);stroke-opacity:1;stroke-miterlimit:10;" d="M 363.191406 33.421875 L 366.953125 33.421875 "/>
<path style="fill:none;stroke-width:1.066978;stroke-linecap:round;stroke-linejoin:round;stroke:rgb(0%,0%,0%);stroke-opacity:1;stroke-miterlimit:10;" d="M 353.949219 66.507812 L 399.65625 66.507812 "/>
<path style="fill:none;stroke-width:1.066978;stroke-linecap:round;stroke-linejoin:round;stroke:rgb(0%,0%,0%);stroke-opacity:1;stroke-miterlimit:10;" d="M 342.246094 116.132812 L 345.710938 116.132812 "/>
<path style="fill:none;stroke-width:1.066978;stroke-linecap:round;stroke-linejoin:round;stroke:rgb(0%,0%,0%);stroke-opacity:1;stroke-miterlimit:10;" d="M 342.246094 99.589844 L 361.832031 99.589844 "/>
<path style="fill:none;stroke-width:1.066978;stroke-linecap:round;stroke-linejoin:round;stroke:rgb(0%,0%,0%);stroke-opacity:1;stroke-miterlimit:10;" d="M 257.757812 182.304688 L 261.363281 182.304688 "/>
<path style="fill:none;stroke-width:1.066978;stroke-linecap:round;stroke-linejoin:round;stroke:rgb(0%,0%,0%);stroke-opacity:1;stroke-miterlimit:10;" d="M 266.9375 165.761719 L 274.394531 165.761719 "/>
<path style="fill:none;stroke-width:1.066978;stroke-linecap:round;stroke-linejoin:round;stroke:rgb(0%,0%,0%);stroke-opacity:1;stroke-miterlimit:10;" d="M 266.9375 149.21875 L 272.738281 149.21875 "/>
<path style="fill:none;stroke-width:1.066978;stroke-linecap:round;stroke-linejoin:round;stroke:rgb(0%,0%,0%);stroke-opacity:1;stroke-miterlimit:10;" d="M 242.078125 140.171875 L 242.078125 140.171875 "/>
<path style="fill:none;stroke-width:1.066978;stroke-linecap:round;stroke-linejoin:round;stroke:rgb(0%,0%,0%);stroke-opacity:1;stroke-miterlimit:10;" d="M 242.078125 110.449219 L 280.507812 110.449219 "/>
<path style="fill:none;stroke-width:1.066978;stroke-linecap:round;stroke-linejoin:round;stroke:rgb(0%,0%,0%);stroke-opacity:1;stroke-miterlimit:10;" d="M 280.507812 88.21875 L 326.972656 88.21875 "/>
<path style="fill:none;stroke-width:1.066978;stroke-linecap:round;stroke-linejoin:round;stroke:rgb(0%,0%,0%);stroke-opacity:1;stroke-miterlimit:10;" d="M 326.972656 68.574219 L 338.140625 68.574219 "/>
<path style="fill:none;stroke-width:1.066978;stroke-linecap:round;stroke-linejoin:round;stroke:rgb(0%,0%,0%);stroke-opacity:1;stroke-miterlimit:10;" d="M 338.140625 54.097656 L 353.949219 54.097656 "/>
<path style="fill:none;stroke-width:1.066978;stroke-linecap:round;stroke-linejoin:round;stroke:rgb(0%,0%,0%);stroke-opacity:1;stroke-miterlimit:10;" d="M 353.949219 41.691406 L 363.191406 41.691406 "/>
<path style="fill:none;stroke-width:1.066978;stroke-linecap:round;stroke-linejoin:round;stroke:rgb(0%,0%,0%);stroke-opacity:1;stroke-miterlimit:10;" d="M 326.972656 107.863281 L 342.246094 107.863281 "/>
<path style="fill:none;stroke-width:1.066978;stroke-linecap:round;stroke-linejoin:round;stroke:rgb(0%,0%,0%);stroke-opacity:1;stroke-miterlimit:10;" d="M 242.078125 169.898438 L 257.757812 169.898438 "/>
<path style="fill:none;stroke-width:1.066978;stroke-linecap:round;stroke-linejoin:round;stroke:rgb(0%,0%,0%);stroke-opacity:1;stroke-miterlimit:10;" d="M 257.757812 157.488281 L 266.9375 157.488281 "/>
<path style="fill:none;stroke-width:1.066978;stroke-linecap:round;stroke-linejoin:round;stroke:rgb(0%,0%,0%);stroke-opacity:1;stroke-miterlimit:10;" d="M 280.507812 110.449219 L 280.507812 132.675781 "/>
<path style="fill:none;stroke-width:1.066978;stroke-linecap:round;stroke-linejoin:round;stroke:rgb(0%,0%,0%);stroke-opacity:1;stroke-miterlimit:10;" d="M 338.140625 68.574219 L 338.140625 83.050781 "/>
<path style="fill:none;stroke-width:1.066978;stroke-linecap:round;stroke-linejoin:round;stroke:rgb(0%,0%,0%);stroke-opacity:1;stroke-miterlimit:10;" d="M 363.191406 41.691406 L 363.191406 49.964844 "/>
<path style="fill:none;stroke-width:1.066978;stroke-linecap:round;stroke-linejoin:round;stroke:rgb(0%,0%,0%);stroke-opacity:1;stroke-miterlimit:10;" d="M 363.191406 41.691406 L 363.191406 33.421875 "/>
<path style="fill:none;stroke-width:1.066978;stroke-linecap:round;stroke-linejoin:round;stroke:rgb(0%,0%,0%);stroke-opacity:1;stroke-miterlimit:10;" d="M 353.949219 54.097656 L 353.949219 66.507812 "/>
<path style="fill:none;stroke-width:1.066978;stroke-linecap:round;stroke-linejoin:round;stroke:rgb(0%,0%,0%);stroke-opacity:1;stroke-miterlimit:10;" d="M 342.246094 107.863281 L 342.246094 116.132812 "/>
<path style="fill:none;stroke-width:1.066978;stroke-linecap:round;stroke-linejoin:round;stroke:rgb(0%,0%,0%);stroke-opacity:1;stroke-miterlimit:10;" d="M 342.246094 107.863281 L 342.246094 99.589844 "/>
<path style="fill:none;stroke-width:1.066978;stroke-linecap:round;stroke-linejoin:round;stroke:rgb(0%,0%,0%);stroke-opacity:1;stroke-miterlimit:10;" d="M 257.757812 169.898438 L 257.757812 182.304688 "/>
<path style="fill:none;stroke-width:1.066978;stroke-linecap:round;stroke-linejoin:round;stroke:rgb(0%,0%,0%);stroke-opacity:1;stroke-miterlimit:10;" d="M 266.9375 157.488281 L 266.9375 165.761719 "/>
<path style="fill:none;stroke-width:1.066978;stroke-linecap:round;stroke-linejoin:round;stroke:rgb(0%,0%,0%);stroke-opacity:1;stroke-miterlimit:10;" d="M 266.9375 157.488281 L 266.9375 149.21875 "/>
<path style="fill:none;stroke-width:1.066978;stroke-linecap:round;stroke-linejoin:round;stroke:rgb(0%,0%,0%);stroke-opacity:1;stroke-miterlimit:10;" d="M 242.078125 140.171875 L 242.078125 140.171875 "/>
<path style="fill:none;stroke-width:1.066978;stroke-linecap:round;stroke-linejoin:round;stroke:rgb(0%,0%,0%);stroke-opacity:1;stroke-miterlimit:10;" d="M 242.078125 140.171875 L 242.078125 110.449219 "/>
<path style="fill:none;stroke-width:1.066978;stroke-linecap:round;stroke-linejoin:round;stroke:rgb(0%,0%,0%);stroke-opacity:1;stroke-miterlimit:10;" d="M 280.507812 110.449219 L 280.507812 88.21875 "/>
<path style="fill:none;stroke-width:1.066978;stroke-linecap:round;stroke-linejoin:round;stroke:rgb(0%,0%,0%);stroke-opacity:1;stroke-miterlimit:10;" d="M 326.972656 88.21875 L 326.972656 68.574219 "/>
<path style="fill:none;stroke-width:1.066978;stroke-linecap:round;stroke-linejoin:round;stroke:rgb(0%,0%,0%);stroke-opacity:1;stroke-miterlimit:10;" d="M 338.140625 68.574219 L 338.140625 54.097656 "/>
<path style="fill:none;stroke-width:1.066978;stroke-linecap:round;stroke-linejoin:round;stroke:rgb(0%,0%,0%);stroke-opacity:1;stroke-miterlimit:10;" d="M 353.949219 54.097656 L 353.949219 41.691406 "/>
<path style="fill:none;stroke-width:1.066978;stroke-linecap:round;stroke-linejoin:round;stroke:rgb(0%,0%,0%);stroke-opacity:1;stroke-miterlimit:10;" d="M 326.972656 88.21875 L 326.972656 107.863281 "/>
<path style="fill:none;stroke-width:1.066978;stroke-linecap:round;stroke-linejoin:round;stroke:rgb(0%,0%,0%);stroke-opacity:1;stroke-miterlimit:10;" d="M 242.078125 140.171875 L 242.078125 169.898438 "/>
<path style="fill:none;stroke-width:1.066978;stroke-linecap:round;stroke-linejoin:round;stroke:rgb(0%,0%,0%);stroke-opacity:1;stroke-miterlimit:10;" d="M 257.757812 169.898438 L 257.757812 157.488281 "/>
<path style="fill:none;stroke-width:1.066978;stroke-linecap:butt;stroke-linejoin:round;stroke:rgb(0%,0%,0%);stroke-opacity:1;stroke-miterlimit:10;" d="M 233.558594 192.230469 L 421.042969 192.230469 "/>
<path style="fill:none;stroke-width:1.066978;stroke-linecap:butt;stroke-linejoin:round;stroke:rgb(20%,20%,20%);stroke-opacity:1;stroke-miterlimit:10;" d="M 289.601562 194.96875 L 289.601562 192.230469 "/>
<path style="fill:none;stroke-width:1.066978;stroke-linecap:butt;stroke-linejoin:round;stroke:rgb(20%,20%,20%);stroke-opacity:1;stroke-miterlimit:10;" d="M 351.058594 194.96875 L 351.058594 192.230469 "/>
<path style="fill:none;stroke-width:1.066978;stroke-linecap:butt;stroke-linejoin:round;stroke:rgb(20%,20%,20%);stroke-opacity:1;stroke-miterlimit:10;" d="M 412.519531 194.96875 L 412.519531 192.230469 "/>
<path style=" stroke:none;fill-rule:nonzero;fill:rgb(30.196078%,30.196078%,30.196078%);fill-opacity:1;" d="M 287.59375 203.214844 L 287.59375 202.667969 L 287.6875 202.472656 L 287.734375 202.378906 L 287.785156 202.285156 L 287.839844 202.195312 L 287.890625 202.109375 L 287.949219 202.023438 L 288.007812 201.941406 L 288.066406 201.863281 L 288.191406 201.707031 L 288.257812 201.632812 L 288.320312 201.558594 L 288.519531 201.347656 L 288.589844 201.28125 L 288.65625 201.214844 L 288.726562 201.152344 L 288.792969 201.089844 L 289.003906 200.902344 L 289.070312 200.84375 L 289.140625 200.785156 L 289.207031 200.730469 L 289.277344 200.671875 L 289.34375 200.617188 L 289.414062 200.5625 L 289.480469 200.507812 L 289.550781 200.453125 L 289.617188 200.402344 L 289.683594 200.347656 L 289.746094 200.292969 L 289.808594 200.242188 L 289.871094 200.1875 L 289.929688 200.136719 L 289.988281 200.082031 L 290.042969 200.027344 L 290.101562 199.976562 L 290.15625 199.921875 L 290.207031 199.867188 L 290.253906 199.8125 L 290.304688 199.757812 L 290.347656 199.703125 L 290.390625 199.644531 L 290.433594 199.589844 L 290.472656 199.53125 L 290.507812 199.476562 L 290.542969 199.417969 L 290.574219 199.355469 L 290.605469 199.296875 L 290.652344 199.171875 L 290.671875 199.105469 L 290.6875 199.039062 L 290.699219 198.96875 L 290.714844 198.828125 L 290.714844 198.703125 L 290.710938 198.652344 L 290.703125 198.558594 L 290.695312 198.511719 L 290.6875 198.46875 L 290.664062 198.382812 L 290.652344 198.34375 L 290.605469 198.226562 L 290.566406 198.15625 L 290.542969 198.121094 L 290.496094 198.058594 L 290.46875 198.027344 L 290.414062 197.972656 L 290.382812 197.945312 L 290.320312 197.898438 L 290.289062 197.878906 L 290.253906 197.855469 L 290.21875 197.835938 L 290.0625 197.773438 L 290.019531 197.761719 L 289.980469 197.75 L 289.9375 197.738281 L 289.894531 197.730469 L 289.847656 197.722656 L 289.800781 197.71875 L 289.757812 197.710938 L 289.707031 197.710938 L 289.660156 197.707031 L 289.519531 197.707031 L 289.472656 197.710938 L 289.429688 197.714844 L 289.386719 197.722656 L 289.339844 197.730469 L 289.296875 197.738281 L 289.257812 197.746094 L 289.171875 197.769531 L 289.054688 197.816406 L 289.019531 197.832031 L 288.980469 197.851562 L 288.945312 197.871094 L 288.910156 197.894531 L 288.875 197.914062 L 288.84375 197.9375 L 288.75 198.019531 L 288.691406 198.078125 L 288.667969 198.109375 L 288.640625 198.140625 L 288.59375 198.210938 L 288.570312 198.25 L 288.550781 198.285156 L 288.511719 198.363281 L 288.480469 198.449219 L 288.457031 198.535156 L 288.433594 198.628906 L 288.425781 198.679688 L 288.421875 198.730469 L 287.628906 198.65625 L 287.636719 198.589844 L 287.648438 198.527344 L 287.664062 198.464844 L 287.675781 198.402344 L 287.714844 198.277344 L 287.734375 198.21875 L 287.757812 198.15625 L 287.78125 198.097656 L 287.808594 198.042969 L 287.839844 197.984375 L 287.871094 197.929688 L 287.90625 197.875 L 287.941406 197.824219 L 288.019531 197.722656 L 288.105469 197.628906 L 288.152344 197.582031 L 288.304688 197.453125 L 288.359375 197.414062 L 288.535156 197.308594 L 288.597656 197.277344 L 288.796875 197.195312 L 288.945312 197.148438 L 289.019531 197.132812 L 289.097656 197.117188 L 289.179688 197.101562 L 289.261719 197.089844 L 289.34375 197.082031 L 289.429688 197.074219 L 289.519531 197.070312 L 289.699219 197.070312 L 289.789062 197.074219 L 289.871094 197.078125 L 289.957031 197.085938 L 290.039062 197.097656 L 290.195312 197.121094 L 290.269531 197.140625 L 290.34375 197.15625 L 290.414062 197.179688 L 290.484375 197.199219 L 290.550781 197.226562 L 290.617188 197.25 L 290.679688 197.28125 L 290.796875 197.34375 L 290.90625 197.414062 L 290.957031 197.453125 L 291.007812 197.496094 L 291.101562 197.582031 L 291.144531 197.632812 L 291.183594 197.679688 L 291.222656 197.730469 L 291.292969 197.839844 L 291.324219 197.894531 L 291.355469 197.953125 L 291.382812 198.015625 L 291.40625 198.078125 L 291.464844 198.277344 L 291.476562 198.347656 L 291.5 198.496094 L 291.503906 198.570312 L 291.507812 198.648438 L 291.511719 198.730469 L 291.507812 198.789062 L 291.503906 198.851562 L 291.5 198.910156 L 291.492188 198.96875 L 291.46875 199.085938 L 291.457031 199.140625 L 291.4375 199.199219 L 291.398438 199.308594 L 291.328125 199.472656 L 291.300781 199.523438 L 291.269531 199.578125 L 291.242188 199.628906 L 291.210938 199.679688 L 291.175781 199.734375 L 291.140625 199.78125 L 291.070312 199.882812 L 291.03125 199.933594 L 290.992188 199.980469 L 290.953125 200.03125 L 290.824219 200.171875 L 290.777344 200.222656 L 290.683594 200.316406 L 290.636719 200.359375 L 290.585938 200.40625 L 290.539062 200.453125 L 290.488281 200.5 L 290.4375 200.542969 L 290.335938 200.636719 L 290.285156 200.679688 L 290.234375 200.726562 L 290.183594 200.769531 L 290.128906 200.8125 L 290.078125 200.859375 L 290.023438 200.902344 L 289.972656 200.945312 L 289.917969 200.988281 L 289.867188 201.03125 L 289.8125 201.078125 L 289.761719 201.121094 L 289.652344 201.207031 L 289.601562 201.25 L 289.546875 201.292969 L 289.445312 201.378906 L 289.394531 201.425781 L 289.34375 201.46875 L 289.296875 201.511719 L 289.246094 201.554688 L 289.152344 201.640625 L 289.105469 201.6875 L 289.058594 201.730469 L 289.015625 201.773438 L 288.972656 201.820312 L 288.929688 201.863281 L 288.890625 201.910156 L 288.847656 201.953125 L 288.808594 202 L 288.773438 202.042969 L 288.734375 202.089844 L 288.699219 202.132812 L 288.628906 202.226562 L 288.597656 202.269531 L 288.542969 202.363281 L 288.515625 202.414062 L 288.46875 202.507812 L 288.445312 202.558594 L 291.605469 202.558594 L 291.605469 203.214844 Z M 287.59375 203.214844 "/>
<path style=" stroke:none;fill-rule:nonzero;fill:rgb(30.196078%,30.196078%,30.196078%);fill-opacity:1;" d="M 349.28125 203.214844 L 349.28125 202.558594 L 350.824219 202.558594 L 350.824219 197.898438 L 349.457031 198.875 L 349.457031 198.144531 L 350.890625 197.160156 L 351.601562 197.160156 L 351.601562 202.558594 L 353.078125 202.558594 L 353.078125 203.214844 Z M 349.28125 203.214844 "/>
<path style=" stroke:none;fill-rule:nonzero;fill:rgb(30.196078%,30.196078%,30.196078%);fill-opacity:1;" d="M 414.621094 200.1875 L 414.621094 200.355469 L 414.617188 200.523438 L 414.605469 200.683594 L 414.59375 200.839844 L 414.582031 200.988281 L 414.5625 201.132812 L 414.539062 201.273438 L 414.515625 201.40625 L 414.488281 201.53125 L 414.453125 201.65625 L 414.421875 201.773438 L 414.34375 201.992188 L 414.304688 202.09375 L 414.261719 202.191406 L 414.214844 202.285156 L 414.164062 202.375 L 414.113281 202.460938 L 414.058594 202.542969 L 414.003906 202.617188 L 413.945312 202.6875 L 413.886719 202.753906 L 413.824219 202.816406 L 413.761719 202.875 L 413.695312 202.929688 L 413.625 202.980469 L 413.554688 203.027344 L 413.484375 203.070312 L 413.410156 203.109375 L 413.253906 203.171875 L 413.175781 203.199219 L 413.097656 203.222656 L 412.933594 203.261719 L 412.851562 203.277344 L 412.59375 203.300781 L 412.421875 203.300781 L 412.332031 203.292969 L 412.25 203.285156 L 412.164062 203.277344 L 412.082031 203.261719 L 411.917969 203.222656 L 411.839844 203.199219 L 411.761719 203.171875 L 411.683594 203.140625 L 411.609375 203.109375 L 411.535156 203.070312 L 411.460938 203.027344 L 411.394531 202.980469 L 411.324219 202.929688 L 411.261719 202.875 L 411.195312 202.816406 L 411.132812 202.753906 L 411.074219 202.6875 L 411.015625 202.617188 L 410.960938 202.542969 L 410.859375 202.378906 L 410.8125 202.289062 L 410.765625 202.195312 L 410.722656 202.097656 L 410.683594 201.996094 L 410.644531 201.886719 L 410.609375 201.777344 L 410.574219 201.660156 L 410.542969 201.539062 L 410.515625 201.410156 L 410.492188 201.277344 L 410.472656 201.136719 L 410.457031 200.992188 L 410.441406 200.84375 L 410.429688 200.6875 L 410.421875 200.523438 L 410.417969 200.359375 L 410.414062 200.1875 L 410.417969 200.003906 L 410.421875 199.832031 L 410.429688 199.664062 L 410.441406 199.503906 L 410.457031 199.351562 L 410.472656 199.203125 L 410.492188 199.058594 L 410.515625 198.925781 L 410.542969 198.796875 L 410.574219 198.671875 L 410.609375 198.554688 L 410.644531 198.441406 L 410.683594 198.335938 L 410.726562 198.230469 L 410.769531 198.132812 L 410.8125 198.039062 L 410.863281 197.949219 L 410.914062 197.867188 L 410.964844 197.789062 L 411.023438 197.714844 L 411.078125 197.644531 L 411.140625 197.582031 L 411.199219 197.519531 L 411.332031 197.410156 L 411.398438 197.363281 L 411.46875 197.320312 L 411.542969 197.28125 L 411.617188 197.246094 L 411.691406 197.214844 L 411.769531 197.1875 L 411.847656 197.164062 L 411.929688 197.140625 L 412.011719 197.121094 L 412.097656 197.105469 L 412.179688 197.09375 L 412.265625 197.082031 L 412.355469 197.078125 L 412.445312 197.070312 L 412.621094 197.070312 L 412.707031 197.078125 L 412.789062 197.082031 L 412.953125 197.105469 L 413.035156 197.121094 L 413.113281 197.140625 L 413.269531 197.1875 L 413.347656 197.214844 L 413.421875 197.246094 L 413.496094 197.28125 L 413.566406 197.320312 L 413.636719 197.363281 L 413.703125 197.410156 L 413.769531 197.464844 L 413.832031 197.519531 L 413.894531 197.582031 L 413.953125 197.644531 L 414.011719 197.714844 L 414.066406 197.789062 L 414.121094 197.867188 L 414.171875 197.949219 L 414.21875 198.039062 L 414.265625 198.132812 L 414.308594 198.230469 L 414.351562 198.335938 L 414.390625 198.441406 L 414.425781 198.554688 L 414.460938 198.671875 L 414.488281 198.796875 L 414.519531 198.925781 L 414.542969 199.058594 L 414.5625 199.203125 L 414.582031 199.351562 L 414.597656 199.503906 L 414.609375 199.664062 L 414.617188 199.832031 L 414.621094 200.003906 Z M 413.835938 200.1875 L 413.835938 200.042969 L 413.832031 199.90625 L 413.828125 199.773438 L 413.824219 199.648438 L 413.816406 199.523438 L 413.804688 199.40625 L 413.78125 199.1875 L 413.765625 199.085938 L 413.75 198.988281 L 413.730469 198.890625 L 413.710938 198.800781 L 413.691406 198.714844 L 413.667969 198.632812 L 413.644531 198.554688 L 413.617188 198.480469 L 413.589844 198.410156 L 413.558594 198.34375 L 413.53125 198.28125 L 413.496094 198.222656 L 413.425781 198.113281 L 413.390625 198.066406 L 413.351562 198.019531 L 413.269531 197.9375 L 413.222656 197.902344 L 413.179688 197.871094 L 413.085938 197.816406 L 413.035156 197.796875 L 412.984375 197.773438 L 412.933594 197.757812 L 412.878906 197.742188 L 412.828125 197.726562 L 412.769531 197.71875 L 412.714844 197.707031 L 412.65625 197.703125 L 412.59375 197.699219 L 412.46875 197.699219 L 412.34375 197.707031 L 412.285156 197.71875 L 412.226562 197.726562 L 412.171875 197.742188 L 412.113281 197.757812 L 412.0625 197.773438 L 412.007812 197.796875 L 411.957031 197.816406 L 411.863281 197.871094 L 411.769531 197.941406 L 411.726562 197.980469 L 411.6875 198.023438 L 411.609375 198.117188 L 411.539062 198.226562 L 411.503906 198.285156 L 411.472656 198.347656 L 411.445312 198.414062 L 411.417969 198.484375 L 411.390625 198.558594 L 411.367188 198.636719 L 411.34375 198.71875 L 411.320312 198.804688 L 411.300781 198.898438 L 411.285156 198.992188 L 411.265625 199.089844 L 411.253906 199.191406 L 411.238281 199.300781 L 411.230469 199.410156 L 411.21875 199.527344 L 411.210938 199.648438 L 411.207031 199.777344 L 411.199219 200.042969 L 411.199219 200.324219 L 411.203125 200.457031 L 411.210938 200.707031 L 411.21875 200.828125 L 411.230469 200.941406 L 411.238281 201.054688 L 411.253906 201.160156 L 411.265625 201.261719 L 411.285156 201.359375 L 411.300781 201.453125 L 411.324219 201.542969 L 411.34375 201.628906 L 411.367188 201.710938 L 411.394531 201.789062 L 411.417969 201.863281 L 411.449219 201.9375 L 411.476562 202.003906 L 411.507812 202.066406 L 411.542969 202.128906 L 411.613281 202.238281 L 411.691406 202.332031 L 411.730469 202.375 L 411.773438 202.417969 L 411.816406 202.453125 L 411.863281 202.488281 L 411.957031 202.542969 L 412.058594 202.589844 L 412.113281 202.609375 L 412.164062 202.625 L 412.21875 202.636719 L 412.277344 202.648438 L 412.394531 202.664062 L 412.453125 202.667969 L 412.578125 202.667969 L 412.636719 202.664062 L 412.695312 202.65625 L 412.75 202.648438 L 412.808594 202.636719 L 412.863281 202.625 L 412.914062 202.609375 L 412.964844 202.589844 L 413.066406 202.542969 L 413.160156 202.488281 L 413.207031 202.453125 L 413.25 202.417969 L 413.292969 202.375 L 413.332031 202.332031 L 413.410156 202.238281 L 413.480469 202.128906 L 413.511719 202.066406 L 413.546875 202.003906 L 413.574219 201.9375 L 413.605469 201.863281 L 413.632812 201.789062 L 413.65625 201.710938 L 413.679688 201.628906 L 413.703125 201.542969 L 413.722656 201.453125 L 413.742188 201.359375 L 413.757812 201.261719 L 413.777344 201.160156 L 413.789062 201.054688 L 413.8125 200.828125 L 413.820312 200.707031 L 413.828125 200.582031 L 413.832031 200.457031 L 413.835938 200.324219 Z M 413.835938 200.1875 "/>
<path style=" stroke:none;fill-rule:nonzero;fill:rgb(0%,0%,0%);fill-opacity:1;" d="M 230.078125 19.328125 L 230.078125 19.472656 L 230.066406 19.613281 L 230.054688 19.75 L 230.007812 20.007812 L 229.976562 20.132812 L 229.9375 20.25 L 229.894531 20.363281 L 229.847656 20.472656 L 229.792969 20.582031 L 229.734375 20.679688 L 229.667969 20.777344 L 229.601562 20.871094 L 229.53125 20.960938 L 229.457031 21.046875 L 229.375 21.128906 L 229.292969 21.207031 L 229.207031 21.28125 L 229.113281 21.355469 L 229.019531 21.421875 L 228.921875 21.484375 L 228.820312 21.542969 L 228.714844 21.597656 L 228.605469 21.652344 L 228.496094 21.699219 L 228.378906 21.746094 L 228.261719 21.789062 L 228.019531 21.859375 L 227.890625 21.894531 L 227.761719 21.921875 L 227.632812 21.945312 L 227.5 21.96875 L 227.367188 21.988281 L 227.230469 22.003906 L 227.097656 22.019531 L 226.957031 22.03125 L 226.820312 22.039062 L 226.679688 22.042969 L 222.628906 22.042969 L 222.628906 12.410156 L 226.128906 12.410156 L 226.441406 12.417969 L 226.59375 12.425781 L 226.742188 12.433594 L 226.886719 12.445312 L 227.027344 12.460938 L 227.164062 12.480469 L 227.296875 12.5 L 227.429688 12.523438 L 227.554688 12.546875 L 227.679688 12.574219 L 227.800781 12.605469 L 227.917969 12.640625 L 228.027344 12.675781 L 228.136719 12.71875 L 228.242188 12.761719 L 228.34375 12.808594 L 228.441406 12.855469 L 228.535156 12.910156 L 228.621094 12.964844 L 228.707031 13.023438 L 228.789062 13.085938 L 228.867188 13.152344 L 228.9375 13.21875 L 229.007812 13.292969 L 229.070312 13.367188 L 229.132812 13.445312 L 229.1875 13.523438 L 229.238281 13.609375 L 229.285156 13.695312 L 229.332031 13.785156 L 229.371094 13.878906 L 229.40625 13.976562 L 229.433594 14.074219 L 229.460938 14.179688 L 229.480469 14.285156 L 229.496094 14.394531 L 229.507812 14.511719 L 229.515625 14.628906 L 229.519531 14.75 L 229.515625 14.828125 L 229.515625 14.910156 L 229.507812 14.988281 L 229.5 15.0625 L 229.488281 15.140625 L 229.476562 15.214844 L 229.445312 15.363281 L 229.425781 15.4375 L 229.355469 15.648438 L 229.324219 15.714844 L 229.296875 15.78125 L 229.226562 15.914062 L 229.148438 16.039062 L 229.105469 16.097656 L 229.058594 16.15625 L 229.015625 16.214844 L 228.914062 16.324219 L 228.804688 16.425781 L 228.746094 16.476562 L 228.621094 16.570312 L 228.554688 16.613281 L 228.484375 16.65625 L 228.417969 16.695312 L 228.34375 16.734375 L 228.195312 16.804688 L 228.117188 16.835938 L 228.035156 16.867188 L 227.949219 16.894531 L 227.777344 16.941406 L 227.6875 16.964844 L 227.914062 16.996094 L 228.023438 17.015625 L 228.128906 17.039062 L 228.234375 17.066406 L 228.335938 17.09375 L 228.433594 17.125 L 228.527344 17.15625 L 228.621094 17.191406 L 228.710938 17.230469 L 228.800781 17.273438 L 228.886719 17.316406 L 228.96875 17.359375 L 229.046875 17.40625 L 229.125 17.457031 L 229.199219 17.507812 L 229.269531 17.5625 L 229.335938 17.617188 L 229.402344 17.675781 L 229.464844 17.738281 L 229.523438 17.800781 L 229.578125 17.863281 L 229.632812 17.929688 L 229.679688 18 L 229.730469 18.070312 L 229.816406 18.21875 L 229.851562 18.292969 L 229.890625 18.375 L 229.921875 18.453125 L 229.953125 18.535156 L 229.976562 18.617188 L 230.003906 18.703125 L 230.023438 18.789062 L 230.039062 18.875 L 230.054688 18.964844 L 230.066406 19.050781 L 230.074219 19.144531 L 230.078125 19.234375 Z M 228.207031 14.90625 L 228.199219 14.753906 L 228.183594 14.613281 L 228.15625 14.480469 L 228.121094 14.355469 L 228.074219 14.238281 L 228.015625 14.132812 L 227.945312 14.035156 L 227.863281 13.945312 L 227.773438 13.863281 L 227.671875 13.792969 L 227.5625 13.730469 L 227.441406 13.671875 L 227.308594 13.621094 L 227.167969 13.578125 L 227.019531 13.542969 L 226.859375 13.511719 L 226.691406 13.488281 L 226.511719 13.472656 L 226.324219 13.460938 L 226.128906 13.457031 L 223.933594 13.457031 L 223.933594 16.507812 L 226.128906 16.507812 L 226.242188 16.503906 L 226.351562 16.5 L 226.457031 16.496094 L 226.558594 16.488281 L 226.65625 16.480469 L 226.753906 16.46875 L 226.933594 16.4375 L 227.097656 16.398438 L 227.175781 16.371094 L 227.25 16.347656 L 227.324219 16.320312 L 227.457031 16.257812 L 227.519531 16.226562 L 227.578125 16.191406 L 227.636719 16.152344 L 227.691406 16.117188 L 227.742188 16.074219 L 227.835938 15.988281 L 227.875 15.941406 L 227.917969 15.894531 L 227.988281 15.792969 L 228.019531 15.738281 L 228.074219 15.628906 L 228.097656 15.570312 L 228.117188 15.511719 L 228.136719 15.449219 L 228.167969 15.324219 L 228.179688 15.257812 L 228.1875 15.191406 L 228.203125 15.050781 L 228.203125 14.980469 Z M 228.757812 19.226562 L 228.757812 19.136719 L 228.753906 19.050781 L 228.746094 18.964844 L 228.730469 18.882812 L 228.71875 18.804688 L 228.699219 18.726562 L 228.675781 18.652344 L 228.621094 18.511719 L 228.589844 18.449219 L 228.554688 18.382812 L 228.476562 18.265625 L 228.433594 18.210938 L 228.386719 18.15625 L 228.285156 18.054688 L 228.230469 18.007812 L 228.171875 17.964844 L 228.109375 17.921875 L 228.046875 17.882812 L 227.980469 17.84375 L 227.839844 17.773438 L 227.761719 17.742188 L 227.6875 17.714844 L 227.605469 17.6875 L 227.523438 17.664062 L 227.4375 17.640625 L 227.351562 17.621094 L 227.261719 17.601562 L 227.171875 17.585938 L 227.078125 17.570312 L 226.984375 17.558594 L 226.886719 17.546875 L 226.789062 17.539062 L 226.683594 17.535156 L 226.582031 17.527344 L 226.476562 17.527344 L 226.367188 17.523438 L 223.933594 17.523438 L 223.933594 20.996094 L 226.664062 20.996094 L 226.761719 20.988281 L 226.855469 20.984375 L 226.949219 20.976562 L 227.039062 20.96875 L 227.128906 20.957031 L 227.214844 20.945312 L 227.386719 20.914062 L 227.46875 20.898438 L 227.550781 20.878906 L 227.628906 20.855469 L 227.703125 20.832031 L 227.777344 20.800781 L 227.851562 20.773438 L 227.917969 20.742188 L 227.984375 20.707031 L 228.050781 20.667969 L 228.109375 20.628906 L 228.171875 20.585938 L 228.28125 20.492188 L 228.335938 20.441406 L 228.382812 20.390625 L 228.429688 20.332031 L 228.472656 20.273438 L 228.515625 20.210938 L 228.554688 20.148438 L 228.589844 20.082031 L 228.621094 20.011719 L 228.648438 19.9375 L 228.675781 19.859375 L 228.699219 19.78125 L 228.71875 19.695312 L 228.730469 19.609375 L 228.746094 19.519531 L 228.753906 19.425781 L 228.757812 19.328125 Z M 228.757812 19.226562 "/>
</g>
</svg>
