<?xml version="1.0" encoding="UTF-8"?>
<svg xmlns="http://www.w3.org/2000/svg" xmlns:xlink="http://www.w3.org/1999/xlink" width="432pt" height="216pt" viewBox="0 0 432 216" version="1.1">
<defs>
<clipPath id="clip1">
  <path d="M 0 0 L 216 0 L 216 216 L 0 216 Z M 0 0 "/>
</clipPath>
<clipPath id="clip2">
  <path d="M 8.21875 5.480469 L 210.519531 5.480469 L 210.519531 197.554688 L 8.21875 197.554688 Z M 8.21875 5.480469 "/>
</clipPath>
<clipPath id="clip3">
  <path d="M 216 0 L 432 0 L 432 216 L 216 216 Z M 216 0 "/>
</clipPath>
<clipPath id="clip4">
  <path d="M 224.21875 5.480469 L 426.519531 5.480469 L 426.519531 197.554688 L 224.21875 197.554688 Z M 224.21875 5.480469 "/>
</clipPath>
</defs>
<g id="surface1086">
<rect x="0" y="0" width="432" height="216" style="fill:rgb(100%,100%,100%);fill-opacity:1;stroke:none;"/>
<path style=" stroke:none;fill-rule:nonzero;fill:rgb(100%,100%,100%);fill-opacity:1;" d="M 0 216 L 216 216 L 216 0 L 0 0 Z M 0 216 "/>
<g clip-path="url(#clip1)" clip-rule="nonzero">
<path style="fill:none;stroke-width:1.066978;stroke-linecap:round;stroke-linejoin:round;stroke:rgb(100%,100%,100%);stroke-opacity:1;stroke-miterlimit:10;" d="M 0 216 L 216 216 L 216 0 L 0 0 Z M 0 216 "/>
</g>
<g clip-path="url(#clip2)" clip-rule="nonzero">
<path style="fill-rule:nonzero;fill:rgb(100%,100%,100%);fill-opacity:1;stroke-width:1.066978;stroke-linecap:round;stroke-linejoin:round;stroke:rgb(100%,100%,100%);stroke-opacity:1;stroke-miterlimit:10;" d="M 8.21875 197.554688 L 210.519531 197.554688 L 210.519531 5.480469 L 8.21875 5.480469 Z M 8.21875 197.554688 "/>
</g>
<path style="fill:none;stroke-width:1.066978;stroke-linecap:round;stroke-linejoin:round;stroke:rgb(0%,0%,0%);stroke-opacity:1;stroke-miterlimit:10;" d="M 58.878906 129.761719 L 121.238281 129.761719 "/>
<path style="fill:none;stroke-width:1.066978;stroke-linecap:round;stroke-linejoin:round;stroke:rgb(0%,0%,0%);stroke-opacity:1;stroke-miterlimit:10;" d="M 121.070312 73.269531 L 121.191406 73.269531 "/>
<path style="fill:none;stroke-width:1.066978;stroke-linecap:round;stroke-linejoin:round;stroke:rgb(0%,0%,0%);stroke-opacity:1;stroke-miterlimit:10;" d="M 148.097656 35.609375 L 201.324219 35.609375 "/>
<path style="fill:none;stroke-width:1.066978;stroke-linecap:round;stroke-linejoin:round;stroke:rgb(0%,0%,0%);stroke-opacity:1;stroke-miterlimit:10;" d="M 148.097656 16.777344 L 152.15625 16.777344 "/>
<path style="fill:none;stroke-width:1.066978;stroke-linecap:round;stroke-linejoin:round;stroke:rgb(0%,0%,0%);stroke-opacity:1;stroke-miterlimit:10;" d="M 138.128906 54.441406 L 187.445312 54.441406 "/>
<path style="fill:none;stroke-width:1.066978;stroke-linecap:round;stroke-linejoin:round;stroke:rgb(0%,0%,0%);stroke-opacity:1;stroke-miterlimit:10;" d="M 125.5 110.933594 L 129.234375 110.933594 "/>
<path style="fill:none;stroke-width:1.066978;stroke-linecap:round;stroke-linejoin:round;stroke:rgb(0%,0%,0%);stroke-opacity:1;stroke-miterlimit:10;" d="M 125.5 92.101562 L 146.632812 92.101562 "/>
<path style="fill:none;stroke-width:1.066978;stroke-linecap:round;stroke-linejoin:round;stroke:rgb(0%,0%,0%);stroke-opacity:1;stroke-miterlimit:10;" d="M 34.332031 186.257812 L 38.222656 186.257812 "/>
<path style="fill:none;stroke-width:1.066978;stroke-linecap:round;stroke-linejoin:round;stroke:rgb(0%,0%,0%);stroke-opacity:1;stroke-miterlimit:10;" d="M 44.238281 167.425781 L 52.28125 167.425781 "/>
<path style="fill:none;stroke-width:1.066978;stroke-linecap:round;stroke-linejoin:round;stroke:rgb(0%,0%,0%);stroke-opacity:1;stroke-miterlimit:10;" d="M 44.238281 148.59375 L 50.496094 148.59375 "/>
<path style="fill:none;stroke-width:1.066978;stroke-linecap:round;stroke-linejoin:round;stroke:rgb(0%,0%,0%);stroke-opacity:1;stroke-miterlimit:10;" d="M 17.414062 138.296875 L 17.414062 138.296875 "/>
<path style="fill:none;stroke-width:1.066978;stroke-linecap:round;stroke-linejoin:round;stroke:rgb(0%,0%,0%);stroke-opacity:1;stroke-miterlimit:10;" d="M 17.414062 104.460938 L 58.878906 104.460938 "/>
<path style="fill:none;stroke-width:1.066978;stroke-linecap:round;stroke-linejoin:round;stroke:rgb(0%,0%,0%);stroke-opacity:1;stroke-miterlimit:10;" d="M 58.878906 79.15625 L 109.019531 79.15625 "/>
<path style="fill:none;stroke-width:1.066978;stroke-linecap:round;stroke-linejoin:round;stroke:rgb(0%,0%,0%);stroke-opacity:1;stroke-miterlimit:10;" d="M 109.019531 56.792969 L 121.070312 56.792969 "/>
<path style="fill:none;stroke-width:1.066978;stroke-linecap:round;stroke-linejoin:round;stroke:rgb(0%,0%,0%);stroke-opacity:1;stroke-miterlimit:10;" d="M 121.070312 40.316406 L 138.128906 40.316406 "/>
<path style="fill:none;stroke-width:1.066978;stroke-linecap:round;stroke-linejoin:round;stroke:rgb(0%,0%,0%);stroke-opacity:1;stroke-miterlimit:10;" d="M 138.128906 26.195312 L 148.097656 26.195312 "/>
<path style="fill:none;stroke-width:1.066978;stroke-linecap:round;stroke-linejoin:round;stroke:rgb(0%,0%,0%);stroke-opacity:1;stroke-miterlimit:10;" d="M 109.019531 101.515625 L 125.5 101.515625 "/>
<path style="fill:none;stroke-width:1.066978;stroke-linecap:round;stroke-linejoin:round;stroke:rgb(0%,0%,0%);stroke-opacity:1;stroke-miterlimit:10;" d="M 17.414062 172.132812 L 34.332031 172.132812 "/>
<path style="fill:none;stroke-width:1.066978;stroke-linecap:round;stroke-linejoin:round;stroke:rgb(0%,0%,0%);stroke-opacity:1;stroke-miterlimit:10;" d="M 34.332031 158.011719 L 44.238281 158.011719 "/>
<path style="fill:none;stroke-width:1.066978;stroke-linecap:round;stroke-linejoin:round;stroke:rgb(0%,0%,0%);stroke-opacity:1;stroke-miterlimit:10;" d="M 58.878906 104.460938 L 58.878906 129.761719 "/>
<path style="fill:none;stroke-width:1.066978;stroke-linecap:round;stroke-linejoin:round;stroke:rgb(0%,0%,0%);stroke-opacity:1;stroke-miterlimit:10;" d="M 121.070312 56.792969 L 121.070312 73.269531 "/>
<path style="fill:none;stroke-width:1.066978;stroke-linecap:round;stroke-linejoin:round;stroke:rgb(0%,0%,0%);stroke-opacity:1;stroke-miterlimit:10;" d="M 148.097656 26.195312 L 148.097656 35.609375 "/>
<path style="fill:none;stroke-width:1.066978;stroke-linecap:round;stroke-linejoin:round;stroke:rgb(0%,0%,0%);stroke-opacity:1;stroke-miterlimit:10;" d="M 148.097656 26.195312 L 148.097656 16.777344 "/>
<path style="fill:none;stroke-width:1.066978;stroke-linecap:round;stroke-linejoin:round;stroke:rgb(0%,0%,0%);stroke-opacity:1;stroke-miterlimit:10;" d="M 138.128906 40.316406 L 138.128906 54.441406 "/>
<path style="fill:none;stroke-width:1.066978;stroke-linecap:round;stroke-linejoin:round;stroke:rgb(0%,0%,0%);stroke-opacity:1;stroke-miterlimit:10;" d="M 125.5 101.515625 L 125.5 110.933594 "/>
<path style="fill:none;stroke-width:1.066978;stroke-linecap:round;stroke-linejoin:round;stroke:rgb(0%,0%,0%);stroke-opacity:1;stroke-miterlimit:10;" d="M 125.5 101.515625 L 125.5 92.101562 "/>
<path style="fill:none;stroke-width:1.066978;stroke-linecap:round;stroke-linejoin:round;stroke:rgb(0%,0%,0%);stroke-opacity:1;stroke-miterlimit:10;" d="M 34.332031 172.132812 L 34.332031 186.257812 "/>
<path style="fill:none;stroke-width:1.066978;stroke-linecap:round;stroke-linejoin:round;stroke:rgb(0%,0%,0%);stroke-opacity:1;stroke-miterlimit:10;" d="M 44.238281 158.011719 L 44.238281 167.425781 "/>
<path style="fill:none;stroke-width:1.066978;stroke-linecap:round;stroke-linejoin:round;stroke:rgb(0%,0%,0%);stroke-opacity:1;stroke-miterlimit:10;" d="M 44.238281 158.011719 L 44.238281 148.59375 "/>
<path style="fill:none;stroke-width:1.066978;stroke-linecap:round;stroke-linejoin:round;stroke:rgb(0%,0%,0%);stroke-opacity:1;stroke-miterlimit:10;" d="M 17.414062 138.296875 L 17.414062 138.296875 "/>
<path style="fill:none;stroke-width:1.066978;stroke-linecap:round;stroke-linejoin:round;stroke:rgb(0%,0%,0%);stroke-opacity:1;stroke-miterlimit:10;" d="M 17.414062 138.296875 L 17.414062 104.460938 "/>
<path style="fill:none;stroke-width:1.066978;stroke-linecap:round;stroke-linejoin:round;stroke:rgb(0%,0%,0%);stroke-opacity:1;stroke-miterlimit:10;" d="M 58.878906 104.460938 L 58.878906 79.15625 "/>
<path style="fill:none;stroke-width:1.066978;stroke-linecap:round;stroke-linejoin:round;stroke:rgb(0%,0%,0%);stroke-opacity:1;stroke-miterlimit:10;" d="M 109.019531 79.15625 L 109.019531 56.792969 "/>
<path style="fill:none;stroke-width:1.066978;stroke-linecap:round;stroke-linejoin:round;stroke:rgb(0%,0%,0%);stroke-opacity:1;stroke-miterlimit:10;" d="M 121.070312 56.792969 L 121.070312 40.316406 "/>
<path style="fill:none;stroke-width:1.066978;stroke-linecap:round;stroke-linejoin:round;stroke:rgb(0%,0%,0%);stroke-opacity:1;stroke-miterlimit:10;" d="M 138.128906 40.316406 L 138.128906 26.195312 "/>
<path style="fill:none;stroke-width:1.066978;stroke-linecap:round;stroke-linejoin:round;stroke:rgb(0%,0%,0%);stroke-opacity:1;stroke-miterlimit:10;" d="M 109.019531 79.15625 L 109.019531 101.515625 "/>
<path style="fill:none;stroke-width:1.066978;stroke-linecap:round;stroke-linejoin:round;stroke:rgb(0%,0%,0%);stroke-opacity:1;stroke-miterlimit:10;" d="M 17.414062 138.296875 L 17.414062 172.132812 "/>
<path style="fill:none;stroke-width:1.066978;stroke-linecap:round;stroke-linejoin:round;stroke:rgb(0%,0%,0%);stroke-opacity:1;stroke-miterlimit:10;" d="M 34.332031 172.132812 L 34.332031 158.011719 "/>
<path style="fill:none;stroke-width:1.066978;stroke-linecap:butt;stroke-linejoin:round;stroke:rgb(0%,0%,0%);stroke-opacity:1;stroke-miterlimit:10;" d="M 8.21875 197.554688 L 210.519531 197.554688 "/>
<path style="fill:none;stroke-width:1.066978;stroke-linecap:butt;stroke-linejoin:round;stroke:rgb(20%,20%,20%);stroke-opacity:1;stroke-miterlimit:10;" d="M 17.414062 200.292969 L 17.414062 197.554688 "/>
<path style="fill:none;stroke-width:1.066978;stroke-linecap:butt;stroke-linejoin:round;stroke:rgb(20%,20%,20%);stroke-opacity:1;stroke-miterlimit:10;" d="M 83.730469 200.292969 L 83.730469 197.554688 "/>
<path style="fill:none;stroke-width:1.066978;stroke-linecap:butt;stroke-linejoin:round;stroke:rgb(20%,20%,20%);stroke-opacity:1;stroke-miterlimit:10;" d="M 150.046875 200.292969 L 150.046875 197.554688 "/>
<path style=" stroke:none;fill-rule:nonzero;fill:rgb(30.196078%,30.196078%,30.196078%);fill-opacity:1;" d="M 19.519531 205.511719 L 19.515625 205.683594 L 19.511719 205.847656 L 19.503906 206.011719 L 19.492188 206.164062 L 19.476562 206.316406 L 19.4375 206.597656 L 19.410156 206.730469 L 19.382812 206.859375 L 19.351562 206.980469 L 19.316406 207.097656 L 19.28125 207.210938 L 19.242188 207.316406 L 19.15625 207.519531 L 19.109375 207.613281 L 19.0625 207.703125 L 19.007812 207.785156 L 18.957031 207.867188 L 18.839844 208.015625 L 18.78125 208.082031 L 18.71875 208.144531 L 18.65625 208.203125 L 18.589844 208.257812 L 18.523438 208.308594 L 18.453125 208.355469 L 18.304688 208.433594 L 18.230469 208.46875 L 18.152344 208.496094 L 18.070312 208.523438 L 17.992188 208.546875 L 17.910156 208.570312 L 17.746094 208.601562 L 17.664062 208.613281 L 17.578125 208.621094 L 17.492188 208.625 L 17.316406 208.625 L 17.230469 208.621094 L 17.144531 208.613281 L 17.058594 208.601562 L 16.894531 208.570312 L 16.8125 208.546875 L 16.734375 208.523438 L 16.578125 208.46875 L 16.503906 208.433594 L 16.429688 208.394531 L 16.359375 208.355469 L 16.289062 208.308594 L 16.222656 208.257812 L 16.15625 208.203125 L 16.09375 208.144531 L 16.03125 208.082031 L 15.96875 208.015625 L 15.859375 207.867188 L 15.804688 207.789062 L 15.753906 207.703125 L 15.707031 207.613281 L 15.664062 207.519531 L 15.621094 207.421875 L 15.578125 207.320312 L 15.539062 207.214844 L 15.503906 207.101562 L 15.46875 206.984375 L 15.441406 206.863281 L 15.414062 206.734375 L 15.390625 206.601562 L 15.367188 206.460938 L 15.351562 206.316406 L 15.335938 206.167969 L 15.324219 206.011719 L 15.316406 205.851562 L 15.3125 205.683594 L 15.3125 205.332031 L 15.316406 205.15625 L 15.324219 204.992188 L 15.335938 204.828125 L 15.351562 204.675781 L 15.367188 204.527344 L 15.390625 204.386719 L 15.414062 204.25 L 15.441406 204.121094 L 15.46875 204 L 15.503906 203.882812 L 15.539062 203.769531 L 15.578125 203.660156 L 15.664062 203.457031 L 15.710938 203.363281 L 15.757812 203.277344 L 15.808594 203.191406 L 15.863281 203.113281 L 15.917969 203.039062 L 16.035156 202.90625 L 16.160156 202.789062 L 16.226562 202.738281 L 16.292969 202.691406 L 16.363281 202.648438 L 16.4375 202.609375 L 16.511719 202.574219 L 16.585938 202.542969 L 16.664062 202.515625 L 16.746094 202.488281 L 16.824219 202.46875 L 16.90625 202.449219 L 17.078125 202.417969 L 17.25 202.402344 L 17.429688 202.394531 L 17.601562 202.402344 L 17.683594 202.410156 L 17.769531 202.417969 L 17.851562 202.433594 L 17.929688 202.449219 L 18.011719 202.46875 L 18.089844 202.488281 L 18.164062 202.515625 L 18.242188 202.542969 L 18.316406 202.574219 L 18.390625 202.609375 L 18.460938 202.648438 L 18.53125 202.691406 L 18.597656 202.738281 L 18.664062 202.789062 L 18.730469 202.847656 L 18.789062 202.90625 L 18.851562 202.972656 L 18.90625 203.039062 L 18.964844 203.113281 L 19.015625 203.191406 L 19.117188 203.363281 L 19.160156 203.457031 L 19.246094 203.660156 L 19.285156 203.769531 L 19.320312 203.882812 L 19.355469 204 L 19.386719 204.121094 L 19.414062 204.25 L 19.4375 204.386719 L 19.460938 204.527344 L 19.476562 204.675781 L 19.492188 204.828125 L 19.503906 204.992188 L 19.511719 205.15625 L 19.515625 205.332031 Z M 18.730469 205.511719 L 18.730469 205.371094 L 18.726562 205.230469 L 18.71875 204.972656 L 18.710938 204.851562 L 18.699219 204.734375 L 18.691406 204.621094 L 18.675781 204.511719 L 18.660156 204.410156 L 18.644531 204.3125 L 18.628906 204.21875 L 18.609375 204.128906 L 18.585938 204.042969 L 18.539062 203.878906 L 18.511719 203.804688 L 18.484375 203.734375 L 18.457031 203.667969 L 18.425781 203.605469 L 18.390625 203.546875 L 18.359375 203.492188 L 18.320312 203.4375 L 18.285156 203.390625 L 18.246094 203.34375 L 18.207031 203.300781 L 18.121094 203.230469 L 18.074219 203.195312 L 18.027344 203.167969 L 17.980469 203.144531 L 17.929688 203.121094 L 17.828125 203.082031 L 17.777344 203.066406 L 17.667969 203.042969 L 17.550781 203.027344 L 17.492188 203.023438 L 17.363281 203.023438 L 17.300781 203.027344 L 17.242188 203.035156 L 17.179688 203.042969 L 17.121094 203.054688 L 17.066406 203.066406 L 17.011719 203.082031 L 16.957031 203.101562 L 16.90625 203.121094 L 16.804688 203.167969 L 16.710938 203.230469 L 16.667969 203.265625 L 16.625 203.304688 L 16.582031 203.347656 L 16.542969 203.394531 L 16.503906 203.445312 L 16.46875 203.496094 L 16.433594 203.550781 L 16.398438 203.609375 L 16.367188 203.671875 L 16.339844 203.738281 L 16.3125 203.808594 L 16.285156 203.886719 L 16.261719 203.964844 L 16.238281 204.046875 L 16.21875 204.132812 L 16.199219 204.222656 L 16.179688 204.316406 L 16.164062 204.414062 L 16.148438 204.515625 L 16.136719 204.625 L 16.125 204.738281 L 16.113281 204.855469 L 16.105469 204.976562 L 16.101562 205.101562 L 16.097656 205.234375 L 16.09375 205.371094 L 16.09375 205.648438 L 16.097656 205.78125 L 16.101562 205.910156 L 16.105469 206.03125 L 16.113281 206.152344 L 16.125 206.269531 L 16.136719 206.378906 L 16.148438 206.484375 L 16.164062 206.585938 L 16.179688 206.683594 L 16.199219 206.777344 L 16.21875 206.867188 L 16.242188 206.953125 L 16.265625 207.035156 L 16.289062 207.113281 L 16.316406 207.191406 L 16.34375 207.261719 L 16.40625 207.394531 L 16.4375 207.453125 L 16.507812 207.5625 L 16.546875 207.613281 L 16.585938 207.660156 L 16.667969 207.742188 L 16.714844 207.777344 L 16.757812 207.8125 L 16.804688 207.84375 L 16.855469 207.871094 L 16.902344 207.894531 L 16.953125 207.914062 L 17.007812 207.933594 L 17.117188 207.964844 L 17.171875 207.976562 L 17.230469 207.984375 L 17.289062 207.988281 L 17.414062 207.996094 L 17.589844 207.984375 L 17.648438 207.976562 L 17.703125 207.964844 L 17.757812 207.949219 L 17.808594 207.933594 L 17.863281 207.914062 L 17.914062 207.894531 L 17.960938 207.871094 L 18.011719 207.84375 L 18.058594 207.8125 L 18.144531 207.742188 L 18.1875 207.703125 L 18.230469 207.660156 L 18.265625 207.613281 L 18.304688 207.5625 L 18.375 207.453125 L 18.410156 207.394531 L 18.472656 207.261719 L 18.5 207.191406 L 18.527344 207.113281 L 18.550781 207.035156 L 18.574219 206.953125 L 18.597656 206.867188 L 18.617188 206.777344 L 18.636719 206.683594 L 18.65625 206.585938 L 18.671875 206.484375 L 18.683594 206.378906 L 18.699219 206.269531 L 18.707031 206.152344 L 18.722656 205.910156 L 18.726562 205.78125 L 18.730469 205.648438 Z M 18.730469 205.511719 "/>
<path style=" stroke:none;fill-rule:nonzero;fill:rgb(30.196078%,30.196078%,30.196078%);fill-opacity:1;" d="M 81.953125 208.539062 L 81.953125 207.882812 L 83.496094 207.882812 L 83.496094 203.226562 L 82.132812 204.199219 L 82.132812 203.46875 L 83.5625 202.484375 L 84.273438 202.484375 L 84.273438 207.882812 L 85.75 207.882812 L 85.75 208.539062 Z M 81.953125 208.539062 "/>
<path style=" stroke:none;fill-rule:nonzero;fill:rgb(30.196078%,30.196078%,30.196078%);fill-opacity:1;" d="M 148.042969 208.539062 L 148.042969 207.996094 L 148.089844 207.894531 L 148.136719 207.796875 L 148.183594 207.703125 L 148.285156 207.523438 L 148.339844 207.433594 L 148.398438 207.351562 L 148.457031 207.265625 L 148.515625 207.1875 L 148.640625 207.03125 L 148.707031 206.957031 L 148.769531 206.882812 L 148.96875 206.671875 L 149.035156 206.605469 L 149.105469 206.539062 L 149.171875 206.476562 L 149.382812 206.289062 L 149.449219 206.230469 L 149.589844 206.113281 L 149.65625 206.054688 L 149.726562 205.996094 L 149.792969 205.941406 L 149.863281 205.886719 L 149.929688 205.832031 L 150 205.78125 L 150.066406 205.726562 L 150.128906 205.671875 L 150.195312 205.621094 L 150.257812 205.566406 L 150.316406 205.515625 L 150.378906 205.460938 L 150.4375 205.40625 L 150.492188 205.355469 L 150.550781 205.300781 L 150.601562 205.246094 L 150.65625 205.191406 L 150.796875 205.027344 L 150.839844 204.972656 L 150.882812 204.914062 L 150.921875 204.859375 L 150.992188 204.742188 L 151.023438 204.683594 L 151.054688 204.621094 L 151.101562 204.496094 L 151.121094 204.429688 L 151.136719 204.363281 L 151.148438 204.296875 L 151.15625 204.226562 L 151.160156 204.152344 L 151.164062 204.082031 L 151.164062 204.03125 L 151.15625 203.929688 L 151.152344 203.882812 L 151.144531 203.839844 L 151.136719 203.792969 L 151.125 203.75 L 151.113281 203.710938 L 151.101562 203.667969 L 151.070312 203.589844 L 151.050781 203.554688 L 151.035156 203.515625 L 151.011719 203.480469 L 150.992188 203.449219 L 150.96875 203.414062 L 150.945312 203.382812 L 150.917969 203.355469 L 150.890625 203.324219 L 150.863281 203.296875 L 150.832031 203.273438 L 150.800781 203.246094 L 150.769531 203.226562 L 150.734375 203.203125 L 150.703125 203.183594 L 150.664062 203.164062 L 150.628906 203.144531 L 150.550781 203.113281 L 150.511719 203.101562 L 150.46875 203.085938 L 150.425781 203.074219 L 150.386719 203.066406 L 150.339844 203.058594 L 150.296875 203.050781 L 150.25 203.042969 L 150.109375 203.03125 L 150.011719 203.03125 L 149.96875 203.035156 L 149.921875 203.039062 L 149.878906 203.042969 L 149.832031 203.046875 L 149.746094 203.0625 L 149.703125 203.074219 L 149.664062 203.085938 L 149.621094 203.097656 L 149.582031 203.109375 L 149.503906 203.140625 L 149.464844 203.160156 L 149.429688 203.175781 L 149.394531 203.195312 L 149.324219 203.242188 L 149.261719 203.289062 L 149.167969 203.371094 L 149.113281 203.433594 L 149.089844 203.46875 L 149.066406 203.5 L 149.042969 203.539062 L 149.019531 203.574219 L 148.996094 203.613281 L 148.980469 203.652344 L 148.960938 203.691406 L 148.945312 203.730469 L 148.929688 203.773438 L 148.917969 203.816406 L 148.902344 203.863281 L 148.894531 203.910156 L 148.882812 203.957031 L 148.875 204.003906 L 148.867188 204.054688 L 148.078125 203.980469 L 148.085938 203.917969 L 148.097656 203.851562 L 148.109375 203.789062 L 148.125 203.726562 L 148.144531 203.664062 L 148.160156 203.605469 L 148.183594 203.542969 L 148.230469 203.425781 L 148.257812 203.367188 L 148.289062 203.308594 L 148.320312 203.253906 L 148.355469 203.199219 L 148.425781 203.097656 L 148.46875 203.046875 L 148.554688 202.953125 L 148.601562 202.90625 L 148.648438 202.863281 L 148.699219 202.820312 L 148.863281 202.703125 L 148.921875 202.667969 L 149.046875 202.605469 L 149.113281 202.574219 L 149.246094 202.519531 L 149.320312 202.496094 L 149.390625 202.476562 L 149.46875 202.457031 L 149.625 202.425781 L 149.707031 202.414062 L 149.792969 202.40625 L 149.878906 202.402344 L 150.058594 202.394531 L 150.148438 202.398438 L 150.234375 202.398438 L 150.40625 202.414062 L 150.484375 202.421875 L 150.566406 202.433594 L 150.640625 202.449219 L 150.71875 202.464844 L 150.792969 202.484375 L 150.863281 202.503906 L 150.933594 202.527344 L 151 202.550781 L 151.125 202.605469 L 151.1875 202.636719 L 151.246094 202.667969 L 151.300781 202.703125 L 151.355469 202.742188 L 151.457031 202.820312 L 151.503906 202.863281 L 151.550781 202.910156 L 151.59375 202.957031 L 151.632812 203.003906 L 151.671875 203.058594 L 151.707031 203.109375 L 151.742188 203.164062 L 151.773438 203.222656 L 151.828125 203.339844 L 151.855469 203.402344 L 151.894531 203.535156 L 151.925781 203.675781 L 151.9375 203.746094 L 151.945312 203.820312 L 151.953125 203.898438 L 151.957031 203.976562 L 151.957031 204.117188 L 151.949219 204.234375 L 151.941406 204.292969 L 151.917969 204.410156 L 151.902344 204.46875 L 151.886719 204.523438 L 151.847656 204.632812 L 151.800781 204.742188 L 151.773438 204.796875 L 151.75 204.851562 L 151.71875 204.902344 L 151.691406 204.957031 L 151.660156 205.007812 L 151.554688 205.160156 L 151.519531 205.207031 L 151.441406 205.308594 L 151.402344 205.355469 L 151.359375 205.402344 L 151.316406 205.453125 L 151.273438 205.5 L 151.085938 205.6875 L 151.035156 205.734375 L 150.988281 205.777344 L 150.886719 205.871094 L 150.835938 205.914062 L 150.734375 206.007812 L 150.683594 206.050781 L 150.628906 206.09375 L 150.578125 206.140625 L 150.527344 206.183594 L 150.472656 206.226562 L 150.421875 206.269531 L 150.367188 206.316406 L 150.316406 206.359375 L 150.207031 206.445312 L 150.15625 206.488281 L 150.101562 206.535156 L 150.050781 206.578125 L 149.996094 206.621094 L 149.742188 206.835938 L 149.695312 206.878906 L 149.648438 206.925781 L 149.597656 206.96875 L 149.554688 207.011719 L 149.507812 207.054688 L 149.464844 207.101562 L 149.378906 207.1875 L 149.339844 207.234375 L 149.296875 207.277344 L 149.21875 207.371094 L 149.183594 207.414062 L 149.148438 207.460938 L 149.113281 207.503906 L 149.078125 207.550781 L 149.046875 207.597656 L 148.9375 207.785156 L 148.917969 207.835938 L 148.894531 207.882812 L 152.054688 207.882812 L 152.054688 208.539062 Z M 148.042969 208.539062 "/>
<path style=" stroke:none;fill-rule:nonzero;fill:rgb(0%,0%,0%);fill-opacity:1;" d="M 12.800781 14.449219 L 11.945312 11.988281 L 8.273438 11.988281 L 7.421875 14.449219 L 5.402344 14.449219 L 8.917969 4.816406 L 11.296875 4.816406 L 14.796875 14.449219 Z M 10.542969 7.699219 L 10.496094 7.558594 L 10.480469 7.507812 L 10.460938 7.460938 L 10.429688 7.367188 L 10.414062 7.316406 L 10.398438 7.269531 L 10.378906 7.222656 L 10.367188 7.171875 L 10.335938 7.078125 L 10.324219 7.03125 L 10.308594 6.988281 L 10.296875 6.945312 L 10.28125 6.902344 L 10.257812 6.816406 L 10.242188 6.777344 L 10.234375 6.738281 L 10.210938 6.660156 L 10.203125 6.625 L 10.191406 6.589844 L 10.183594 6.558594 L 10.171875 6.527344 L 10.164062 6.496094 L 10.148438 6.441406 L 10.140625 6.417969 L 10.136719 6.394531 L 10.128906 6.375 L 10.117188 6.328125 L 10.113281 6.316406 L 10.109375 6.308594 L 10.109375 6.304688 L 10.105469 6.300781 L 10.105469 6.304688 L 10.101562 6.3125 L 10.101562 6.320312 L 10.097656 6.332031 L 10.089844 6.363281 L 10.082031 6.382812 L 10.078125 6.402344 L 10.074219 6.425781 L 10.066406 6.449219 L 10.050781 6.503906 L 10.035156 6.566406 L 10.023438 6.597656 L 10.015625 6.628906 L 10.003906 6.664062 L 9.992188 6.703125 L 9.980469 6.738281 L 9.96875 6.777344 L 9.960938 6.816406 L 9.945312 6.859375 L 9.910156 6.988281 L 9.894531 7.03125 L 9.863281 7.125 L 9.851562 7.171875 L 9.832031 7.222656 L 9.820312 7.269531 L 9.804688 7.316406 L 9.789062 7.367188 L 9.742188 7.507812 L 9.726562 7.558594 L 9.707031 7.605469 L 9.675781 7.699219 L 8.726562 10.46875 L 11.496094 10.46875 Z M 10.542969 7.699219 "/>
<path style=" stroke:none;fill-rule:nonzero;fill:rgb(100%,100%,100%);fill-opacity:1;" d="M 216 216 L 432 216 L 432 0 L 216 0 Z M 216 216 "/>
<g clip-path="url(#clip3)" clip-rule="nonzero">
<path style="fill:none;stroke-width:1.066978;stroke-linecap:round;stroke-linejoin:round;stroke:rgb(100%,100%,100%);stroke-opacity:1;stroke-miterlimit:10;" d="M 216 216 L 432 216 L 432 0 L 216 0 Z M 216 216 "/>
</g>
<g clip-path="url(#clip4)" clip-rule="nonzero">
<path style="fill-rule:nonzero;fill:rgb(100%,100%,100%);fill-opacity:1;stroke-width:1.066978;stroke-linecap:round;stroke-linejoin:round;stroke:rgb(100%,100%,100%);stroke-opacity:1;stroke-miterlimit:10;" d="M 224.21875 197.554688 L 426.519531 197.554688 L 426.519531 5.480469 L 224.21875 5.480469 Z M 224.21875 197.554688 "/>
</g>
<path style="fill:none;stroke-width:1.066978;stroke-linecap:round;stroke-linejoin:round;stroke:rgb(0%,0%,0%);stroke-opacity:1;stroke-miterlimit:10;" d="M 274.878906 129.761719 L 337.238281 129.761719 "/>
<path style="fill:none;stroke-width:1.066978;stroke-linecap:round;stroke-linejoin:round;stroke:rgb(0%,0%,0%);stroke-opacity:1;stroke-miterlimit:10;" d="M 337.070312 73.269531 L 337.191406 73.269531 "/>
<path style="fill:none;stroke-width:1.066978;stroke-linecap:round;stroke-linejoin:round;stroke:rgb(0%,0%,0%);stroke-opacity:1;stroke-miterlimit:10;" d="M 364.097656 35.609375 L 417.324219 35.609375 "/>
<path style="fill:none;stroke-width:1.066978;stroke-linecap:round;stroke-linejoin:round;stroke:rgb(0%,0%,0%);stroke-opacity:1;stroke-miterlimit:10;" d="M 364.097656 16.777344 L 368.15625 16.777344 "/>
<path style="fill:none;stroke-width:1.066978;stroke-linecap:round;stroke-linejoin:round;stroke:rgb(0%,0%,0%);stroke-opacity:1;stroke-miterlimit:10;" d="M 354.128906 54.441406 L 403.445312 54.441406 "/>
<path style="fill:none;stroke-width:1.066978;stroke-linecap:round;stroke-linejoin:round;stroke:rgb(0%,0%,0%);stroke-opacity:1;stroke-miterlimit:10;" d="M 341.5 110.933594 L 345.234375 110.933594 "/>
<path style="fill:none;stroke-width:1.066978;stroke-linecap:round;stroke-linejoin:round;stroke:rgb(0%,0%,0%);stroke-opacity:1;stroke-miterlimit:10;" d="M 341.5 92.101562 L 362.632812 92.101562 "/>
<path style="fill:none;stroke-width:1.066978;stroke-linecap:round;stroke-linejoin:round;stroke:rgb(0%,0%,0%);stroke-opacity:1;stroke-miterlimit:10;" d="M 250.332031 186.257812 L 254.222656 186.257812 "/>
<path style="fill:none;stroke-width:1.066978;stroke-linecap:round;stroke-linejoin:round;stroke:rgb(0%,0%,0%);stroke-opacity:1;stroke-miterlimit:10;" d="M 260.238281 167.425781 L 268.28125 167.425781 "/>
<path style="fill:none;stroke-width:1.066978;stroke-linecap:round;stroke-linejoin:round;stroke:rgb(0%,0%,0%);stroke-opacity:1;stroke-miterlimit:10;" d="M 260.238281 148.59375 L 266.496094 148.59375 "/>
<path style="fill:none;stroke-width:1.066978;stroke-linecap:round;stroke-linejoin:round;stroke:rgb(0%,0%,0%);stroke-opacity:1;stroke-miterlimit:10;" d="M 233.414062 138.296875 L 233.414062 138.296875 "/>
<path style="fill:none;stroke-width:1.066978;stroke-linecap:round;stroke-linejoin:round;stroke:rgb(0%,0%,0%);stroke-opacity:1;stroke-miterlimit:10;" d="M 233.414062 104.460938 L 274.878906 104.460938 "/>
<path style="fill:none;stroke-width:1.066978;stroke-linecap:round;stroke-linejoin:round;stroke:rgb(0%,0%,0%);stroke-opacity:1;stroke-miterlimit:10;" d="M 274.878906 79.15625 L 325.019531 79.15625 "/>
<path style="fill:none;stroke-width:1.066978;stroke-linecap:round;stroke-linejoin:round;stroke:rgb(0%,0%,0%);stroke-opacity:1;stroke-miterlimit:10;" d="M 325.019531 56.792969 L 337.070312 56.792969 "/>
<path style="fill:none;stroke-width:1.066978;stroke-linecap:round;stroke-linejoin:round;stroke:rgb(0%,0%,0%);stroke-opacity:1;stroke-miterlimit:10;" d="M 337.070312 40.316406 L 354.128906 40.316406 "/>
<path style="fill:none;stroke-width:1.066978;stroke-linecap:round;stroke-linejoin:round;stroke:rgb(0%,0%,0%);stroke-opacity:1;stroke-miterlimit:10;" d="M 354.128906 26.195312 L 364.097656 26.195312 "/>
<path style="fill:none;stroke-width:1.066978;stroke-linecap:round;stroke-linejoin:round;stroke:rgb(0%,0%,0%);stroke-opacity:1;stroke-miterlimit:10;" d="M 325.019531 101.515625 L 341.5 101.515625 "/>
<path style="fill:none;stroke-width:1.066978;stroke-linecap:round;stroke-linejoin:round;stroke:rgb(0%,0%,0%);stroke-opacity:1;stroke-miterlimit:10;" d="M 233.414062 172.132812 L 250.332031 172.132812 "/>
<path style="fill:none;stroke-width:1.066978;stroke-linecap:round;stroke-linejoin:round;stroke:rgb(0%,0%,0%);stroke-opacity:1;stroke-miterlimit:10;" d="M 250.332031 158.011719 L 260.238281 158.011719 "/>
<path style="fill:none;stroke-width:1.066978;stroke-linecap:round;stroke-linejoin:round;stroke:rgb(0%,0%,0%);stroke-opacity:1;stroke-miterlimit:10;" d="M 274.878906 104.460938 L 274.878906 129.761719 "/>
<path style="fill:none;stroke-width:1.066978;stroke-linecap:round;stroke-linejoin:round;stroke:rgb(0%,0%,0%);stroke-opacity:1;stroke-miterlimit:10;" d="M 337.070312 56.792969 L 337.070312 73.269531 "/>
<path style="fill:none;stroke-width:1.066978;stroke-linecap:round;stroke-linejoin:round;stroke:rgb(0%,0%,0%);stroke-opacity:1;stroke-miterlimit:10;" d="M 364.097656 26.195312 L 364.097656 35.609375 "/>
<path style="fill:none;stroke-width:1.066978;stroke-linecap:round;stroke-linejoin:round;stroke:rgb(0%,0%,0%);stroke-opacity:1;stroke-miterlimit:10;" d="M 364.097656 26.195312 L 364.097656 16.777344 "/>
<path style="fill:none;stroke-width:1.066978;stroke-linecap:round;stroke-linejoin:round;stroke:rgb(0%,0%,0%);stroke-opacity:1;stroke-miterlimit:10;" d="M 354.128906 40.316406 L 354.128906 54.441406 "/>
<path style="fill:none;stroke-width:1.066978;stroke-linecap:round;stroke-linejoin:round;stroke:rgb(0%,0%,0%);stroke-opacity:1;stroke-miterlimit:10;" d="M 341.5 101.515625 L 341.5 110.933594 "/>
<path style="fill:none;stroke-width:1.066978;stroke-linecap:round;stroke-linejoin:round;stroke:rgb(0%,0%,0%);stroke-opacity:1;stroke-miterlimit:10;" d="M 341.5 101.515625 L 341.5 92.101562 "/>
<path style="fill:none;stroke-width:1.066978;stroke-linecap:round;stroke-linejoin:round;stroke:rgb(0%,0%,0%);stroke-opacity:1;stroke-miterlimit:10;" d="M 250.332031 172.132812 L 250.332031 186.257812 "/>
<path style="fill:none;stroke-width:1.066978;stroke-linecap:round;stroke-linejoin:round;stroke:rgb(0%,0%,0%);stroke-opacity:1;stroke-miterlimit:10;" d="M 260.238281 158.011719 L 260.238281 167.425781 "/>
<path style="fill:none;stroke-width:1.066978;stroke-linecap:round;stroke-linejoin:round;stroke:rgb(0%,0%,0%);stroke-opacity:1;stroke-miterlimit:10;" d="M 260.238281 158.011719 L 260.238281 148.59375 "/>
<path style="fill:none;stroke-width:1.066978;stroke-linecap:round;stroke-linejoin:round;stroke:rgb(0%,0%,0%);stroke-opacity:1;stroke-miterlimit:10;" d="M 233.414062 138.296875 L 233.414062 138.296875 "/>
<path style="fill:none;stroke-width:1.066978;stroke-linecap:round;stroke-linejoin:round;stroke:rgb(0%,0%,0%);stroke-opacity:1;stroke-miterlimit:10;" d="M 233.414062 138.296875 L 233.414062 104.460938 "/>
<path style="fill:none;stroke-width:1.066978;stroke-linecap:round;stroke-linejoin:round;stroke:rgb(0%,0%,0%);stroke-opacity:1;stroke-miterlimit:10;" d="M 274.878906 104.460938 L 274.878906 79.15625 "/>
<path style="fill:none;stroke-width:1.066978;stroke-linecap:round;stroke-linejoin:round;stroke:rgb(0%,0%,0%);stroke-opacity:1;stroke-miterlimit:10;" d="M 325.019531 79.15625 L 325.019531 56.792969 "/>
<path style="fill:none;stroke-width:1.066978;stroke-linecap:round;stroke-linejoin:round;stroke:rgb(0%,0%,0%);stroke-opacity:1;stroke-miterlimit:10;" d="M 337.070312 56.792969 L 337.070312 40.316406 "/>
<path style="fill:none;stroke-width:1.066978;stroke-linecap:round;stroke-linejoin:round;stroke:rgb(0%,0%,0%);stroke-opacity:1;stroke-miterlimit:10;" d="M 354.128906 40.316406 L 354.128906 26.195312 "/>
<path style="fill:none;stroke-width:1.066978;stroke-linecap:round;stroke-linejoin:round;stroke:rgb(0%,0%,0%);stroke-opacity:1;stroke-miterlimit:10;" d="M 325.019531 79.15625 L 325.019531 101.515625 "/>
<path style="fill:none;stroke-width:1.066978;stroke-linecap:round;stroke-linejoin:round;stroke:rgb(0%,0%,0%);stroke-opacity:1;stroke-miterlimit:10;" d="M 233.414062 138.296875 L 233.414062 172.132812 "/>
<path style="fill:none;stroke-width:1.066978;stroke-linecap:round;stroke-linejoin:round;stroke:rgb(0%,0%,0%);stroke-opacity:1;stroke-miterlimit:10;" d="M 250.332031 172.132812 L 250.332031 158.011719 "/>
<path style="fill:none;stroke-width:1.066978;stroke-linecap:butt;stroke-linejoin:round;stroke:rgb(0%,0%,0%);stroke-opacity:1;stroke-miterlimit:10;" d="M 224.21875 197.554688 L 426.519531 197.554688 "/>
<path style="fill:none;stroke-width:1.066978;stroke-linecap:butt;stroke-linejoin:round;stroke:rgb(20%,20%,20%);stroke-opacity:1;stroke-miterlimit:10;" d="M 284.691406 200.292969 L 284.691406 197.554688 "/>
<path style="fill:none;stroke-width:1.066978;stroke-linecap:butt;stroke-linejoin:round;stroke:rgb(20%,20%,20%);stroke-opacity:1;stroke-miterlimit:10;" d="M 351.007812 200.292969 L 351.007812 197.554688 "/>
<path style="fill:none;stroke-width:1.066978;stroke-linecap:butt;stroke-linejoin:round;stroke:rgb(20%,20%,20%);stroke-opacity:1;stroke-miterlimit:10;" d="M 417.324219 200.292969 L 417.324219 197.554688 "/>
<path style=" stroke:none;fill-rule:nonzero;fill:rgb(30.196078%,30.196078%,30.196078%);fill-opacity:1;" d="M 282.6875 208.539062 L 282.6875 207.996094 L 282.730469 207.894531 L 282.777344 207.796875 L 282.828125 207.703125 L 282.929688 207.523438 L 282.984375 207.433594 L 283.039062 207.351562 L 283.097656 207.265625 L 283.15625 207.1875 L 283.21875 207.109375 L 283.285156 207.03125 L 283.347656 206.957031 L 283.414062 206.882812 L 283.613281 206.671875 L 283.746094 206.539062 L 283.957031 206.351562 L 284.023438 206.289062 L 284.164062 206.171875 L 284.230469 206.113281 L 284.300781 206.054688 L 284.367188 205.996094 L 284.4375 205.941406 L 284.503906 205.886719 L 284.574219 205.832031 L 284.640625 205.78125 L 284.773438 205.671875 L 284.835938 205.621094 L 284.898438 205.566406 L 284.960938 205.515625 L 285.078125 205.40625 L 285.136719 205.355469 L 285.246094 205.246094 L 285.347656 205.136719 L 285.441406 205.027344 L 285.484375 204.972656 L 285.523438 204.914062 L 285.5625 204.859375 L 285.601562 204.800781 L 285.632812 204.742188 L 285.667969 204.683594 L 285.722656 204.558594 L 285.746094 204.496094 L 285.777344 204.363281 L 285.789062 204.296875 L 285.800781 204.226562 L 285.804688 204.152344 L 285.804688 203.980469 L 285.800781 203.929688 L 285.792969 203.882812 L 285.785156 203.839844 L 285.777344 203.792969 L 285.769531 203.75 L 285.757812 203.710938 L 285.742188 203.667969 L 285.730469 203.628906 L 285.710938 203.589844 L 285.695312 203.554688 L 285.675781 203.515625 L 285.65625 203.480469 L 285.632812 203.449219 L 285.613281 203.414062 L 285.585938 203.382812 L 285.5625 203.355469 L 285.535156 203.324219 L 285.503906 203.296875 L 285.476562 203.273438 L 285.445312 203.246094 L 285.414062 203.226562 L 285.378906 203.203125 L 285.273438 203.144531 L 285.195312 203.113281 L 285.152344 203.101562 L 285.113281 203.085938 L 285.070312 203.074219 L 284.984375 203.058594 L 284.9375 203.050781 L 284.894531 203.042969 L 284.800781 203.035156 L 284.75 203.03125 L 284.65625 203.03125 L 284.609375 203.035156 L 284.566406 203.039062 L 284.519531 203.042969 L 284.476562 203.046875 L 284.390625 203.0625 L 284.304688 203.085938 L 284.265625 203.097656 L 284.222656 203.109375 L 284.144531 203.140625 L 284.109375 203.160156 L 284.074219 203.175781 L 284.035156 203.195312 L 284.003906 203.21875 L 283.933594 203.265625 L 283.902344 203.289062 L 283.839844 203.34375 L 283.8125 203.371094 L 283.757812 203.433594 L 283.730469 203.46875 L 283.707031 203.5 L 283.683594 203.539062 L 283.660156 203.574219 L 283.621094 203.652344 L 283.605469 203.691406 L 283.585938 203.730469 L 283.574219 203.773438 L 283.558594 203.816406 L 283.535156 203.910156 L 283.519531 204.003906 L 283.511719 204.054688 L 282.722656 203.980469 L 282.730469 203.917969 L 282.742188 203.851562 L 282.753906 203.789062 L 282.785156 203.664062 L 282.804688 203.605469 L 282.824219 203.542969 L 282.847656 203.484375 L 282.929688 203.308594 L 282.960938 203.253906 L 282.996094 203.199219 L 283.03125 203.148438 L 283.109375 203.046875 L 283.195312 202.953125 L 283.242188 202.90625 L 283.34375 202.820312 L 283.394531 202.78125 L 283.449219 202.742188 L 283.507812 202.703125 L 283.566406 202.667969 L 283.753906 202.574219 L 283.820312 202.546875 L 283.890625 202.519531 L 283.960938 202.496094 L 284.109375 202.457031 L 284.1875 202.441406 L 284.269531 202.425781 L 284.351562 202.414062 L 284.4375 202.40625 L 284.609375 202.398438 L 284.703125 202.394531 L 284.792969 202.398438 L 284.878906 202.398438 L 284.964844 202.40625 L 285.128906 202.421875 L 285.207031 202.433594 L 285.285156 202.449219 L 285.359375 202.464844 L 285.433594 202.484375 L 285.503906 202.503906 L 285.574219 202.527344 L 285.640625 202.550781 L 285.707031 202.578125 L 285.769531 202.605469 L 285.886719 202.667969 L 285.945312 202.703125 L 285.996094 202.742188 L 286.050781 202.78125 L 286.097656 202.820312 L 286.144531 202.863281 L 286.191406 202.910156 L 286.277344 203.003906 L 286.3125 203.058594 L 286.351562 203.109375 L 286.382812 203.164062 L 286.417969 203.222656 L 286.472656 203.339844 L 286.496094 203.402344 L 286.519531 203.46875 L 286.539062 203.535156 L 286.570312 203.675781 L 286.582031 203.746094 L 286.589844 203.820312 L 286.597656 203.898438 L 286.601562 203.976562 L 286.601562 204.117188 L 286.597656 204.175781 L 286.574219 204.351562 L 286.5625 204.410156 L 286.546875 204.46875 L 286.53125 204.523438 L 286.511719 204.578125 L 286.488281 204.632812 L 286.46875 204.6875 L 286.445312 204.742188 L 286.390625 204.851562 L 286.363281 204.902344 L 286.332031 204.957031 L 286.269531 205.058594 L 286.199219 205.160156 L 286.160156 205.207031 L 286.082031 205.308594 L 286.042969 205.355469 L 286 205.402344 L 285.960938 205.453125 L 285.914062 205.5 L 285.871094 205.546875 L 285.777344 205.640625 L 285.726562 205.6875 L 285.679688 205.734375 L 285.628906 205.777344 L 285.582031 205.824219 L 285.53125 205.871094 L 285.480469 205.914062 L 285.378906 206.007812 L 285.324219 206.050781 L 285.273438 206.09375 L 285.222656 206.140625 L 285.167969 206.183594 L 285.117188 206.226562 L 285.0625 206.269531 L 285.011719 206.316406 L 284.957031 206.359375 L 284.90625 206.402344 L 284.796875 206.488281 L 284.746094 206.535156 L 284.691406 206.578125 L 284.640625 206.621094 L 284.585938 206.664062 L 284.484375 206.75 L 284.4375 206.792969 L 284.386719 206.835938 L 284.339844 206.878906 L 284.289062 206.925781 L 284.195312 207.011719 L 284.0625 207.144531 L 284.023438 207.1875 L 283.980469 207.234375 L 283.941406 207.277344 L 283.863281 207.371094 L 283.824219 207.414062 L 283.789062 207.460938 L 283.753906 207.503906 L 283.660156 207.644531 L 283.605469 207.738281 L 283.582031 207.785156 L 283.558594 207.835938 L 283.539062 207.882812 L 286.695312 207.882812 L 286.695312 208.539062 Z M 282.6875 208.539062 "/>
<path style=" stroke:none;fill-rule:nonzero;fill:rgb(30.196078%,30.196078%,30.196078%);fill-opacity:1;" d="M 349.230469 208.539062 L 349.230469 207.882812 L 350.773438 207.882812 L 350.773438 203.226562 L 349.40625 204.199219 L 349.40625 203.46875 L 350.839844 202.484375 L 351.550781 202.484375 L 351.550781 207.882812 L 353.027344 207.882812 L 353.027344 208.539062 Z M 349.230469 208.539062 "/>
<path style=" stroke:none;fill-rule:nonzero;fill:rgb(30.196078%,30.196078%,30.196078%);fill-opacity:1;" d="M 419.429688 205.511719 L 419.425781 205.683594 L 419.421875 205.847656 L 419.414062 206.011719 L 419.402344 206.164062 L 419.386719 206.316406 L 419.347656 206.597656 L 419.320312 206.730469 L 419.292969 206.859375 L 419.261719 206.980469 L 419.226562 207.097656 L 419.191406 207.210938 L 419.152344 207.316406 L 419.066406 207.519531 L 419.019531 207.613281 L 418.972656 207.703125 L 418.917969 207.785156 L 418.867188 207.867188 L 418.75 208.015625 L 418.691406 208.082031 L 418.628906 208.144531 L 418.566406 208.203125 L 418.5 208.257812 L 418.433594 208.308594 L 418.363281 208.355469 L 418.214844 208.433594 L 418.140625 208.46875 L 417.984375 208.523438 L 417.820312 208.570312 L 417.65625 208.601562 L 417.574219 208.613281 L 417.488281 208.621094 L 417.402344 208.625 L 417.226562 208.625 L 417.140625 208.621094 L 417.054688 208.613281 L 416.96875 208.601562 L 416.804688 208.570312 L 416.722656 208.546875 L 416.644531 208.523438 L 416.488281 208.46875 L 416.414062 208.433594 L 416.339844 208.394531 L 416.269531 208.355469 L 416.199219 208.308594 L 416.132812 208.257812 L 416.066406 208.203125 L 416.003906 208.144531 L 415.941406 208.082031 L 415.882812 208.015625 L 415.824219 207.941406 L 415.769531 207.867188 L 415.714844 207.789062 L 415.667969 207.703125 L 415.617188 207.613281 L 415.574219 207.519531 L 415.53125 207.421875 L 415.488281 207.320312 L 415.449219 207.214844 L 415.414062 207.101562 L 415.378906 206.984375 L 415.351562 206.863281 L 415.324219 206.734375 L 415.300781 206.601562 L 415.277344 206.460938 L 415.261719 206.316406 L 415.246094 206.167969 L 415.234375 206.011719 L 415.226562 205.851562 L 415.222656 205.683594 L 415.222656 205.332031 L 415.226562 205.15625 L 415.234375 204.992188 L 415.246094 204.828125 L 415.261719 204.675781 L 415.277344 204.527344 L 415.300781 204.386719 L 415.324219 204.25 L 415.351562 204.121094 L 415.378906 204 L 415.414062 203.882812 L 415.449219 203.769531 L 415.488281 203.660156 L 415.574219 203.457031 L 415.621094 203.363281 L 415.667969 203.277344 L 415.71875 203.191406 L 415.773438 203.113281 L 415.828125 203.039062 L 415.945312 202.90625 L 416.070312 202.789062 L 416.136719 202.738281 L 416.203125 202.691406 L 416.273438 202.648438 L 416.347656 202.609375 L 416.421875 202.574219 L 416.496094 202.542969 L 416.574219 202.515625 L 416.65625 202.488281 L 416.734375 202.46875 L 416.816406 202.449219 L 416.988281 202.417969 L 417.160156 202.402344 L 417.339844 202.394531 L 417.511719 202.402344 L 417.59375 202.410156 L 417.679688 202.417969 L 417.761719 202.433594 L 417.839844 202.449219 L 417.921875 202.46875 L 418 202.488281 L 418.074219 202.515625 L 418.152344 202.542969 L 418.226562 202.574219 L 418.300781 202.609375 L 418.371094 202.648438 L 418.441406 202.691406 L 418.511719 202.738281 L 418.574219 202.789062 L 418.640625 202.847656 L 418.699219 202.90625 L 418.761719 202.972656 L 418.816406 203.039062 L 418.875 203.113281 L 418.925781 203.191406 L 419.027344 203.363281 L 419.070312 203.457031 L 419.15625 203.660156 L 419.195312 203.769531 L 419.230469 203.882812 L 419.265625 204 L 419.296875 204.121094 L 419.324219 204.25 L 419.347656 204.386719 L 419.371094 204.527344 L 419.386719 204.675781 L 419.402344 204.828125 L 419.414062 204.992188 L 419.421875 205.15625 L 419.425781 205.332031 Z M 418.640625 205.511719 L 418.640625 205.371094 L 418.636719 205.230469 L 418.628906 204.972656 L 418.621094 204.851562 L 418.609375 204.734375 L 418.601562 204.621094 L 418.585938 204.511719 L 418.574219 204.410156 L 418.554688 204.3125 L 418.539062 204.21875 L 418.519531 204.128906 L 418.496094 204.042969 L 418.449219 203.878906 L 418.421875 203.804688 L 418.394531 203.734375 L 418.367188 203.667969 L 418.335938 203.605469 L 418.300781 203.546875 L 418.269531 203.492188 L 418.234375 203.4375 L 418.15625 203.34375 L 418.117188 203.300781 L 418.03125 203.230469 L 417.984375 203.195312 L 417.9375 203.167969 L 417.890625 203.144531 L 417.839844 203.121094 L 417.792969 203.101562 L 417.738281 203.082031 L 417.6875 203.066406 L 417.578125 203.042969 L 417.460938 203.027344 L 417.402344 203.023438 L 417.277344 203.023438 L 417.210938 203.027344 L 417.152344 203.035156 L 417.089844 203.042969 L 417.03125 203.054688 L 416.976562 203.066406 L 416.921875 203.082031 L 416.867188 203.101562 L 416.816406 203.121094 L 416.714844 203.167969 L 416.621094 203.230469 L 416.578125 203.265625 L 416.535156 203.304688 L 416.492188 203.347656 L 416.453125 203.394531 L 416.414062 203.445312 L 416.378906 203.496094 L 416.34375 203.550781 L 416.308594 203.609375 L 416.28125 203.671875 L 416.25 203.738281 L 416.222656 203.808594 L 416.195312 203.886719 L 416.171875 203.964844 L 416.148438 204.046875 L 416.128906 204.132812 L 416.109375 204.222656 L 416.089844 204.316406 L 416.074219 204.414062 L 416.058594 204.515625 L 416.046875 204.625 L 416.035156 204.738281 L 416.023438 204.855469 L 416.015625 204.976562 L 416.011719 205.101562 L 416.007812 205.234375 L 416.003906 205.371094 L 416.003906 205.648438 L 416.007812 205.78125 L 416.011719 205.910156 L 416.015625 206.03125 L 416.023438 206.152344 L 416.035156 206.269531 L 416.046875 206.378906 L 416.058594 206.484375 L 416.074219 206.585938 L 416.089844 206.683594 L 416.109375 206.777344 L 416.128906 206.867188 L 416.152344 206.953125 L 416.175781 207.035156 L 416.199219 207.113281 L 416.226562 207.191406 L 416.253906 207.261719 L 416.316406 207.394531 L 416.347656 207.453125 L 416.417969 207.5625 L 416.457031 207.613281 L 416.496094 207.660156 L 416.578125 207.742188 L 416.625 207.777344 L 416.667969 207.8125 L 416.714844 207.84375 L 416.765625 207.871094 L 416.8125 207.894531 L 416.863281 207.914062 L 416.917969 207.933594 L 417.027344 207.964844 L 417.082031 207.976562 L 417.140625 207.984375 L 417.199219 207.988281 L 417.324219 207.996094 L 417.5 207.984375 L 417.558594 207.976562 L 417.613281 207.964844 L 417.667969 207.949219 L 417.71875 207.933594 L 417.773438 207.914062 L 417.824219 207.894531 L 417.871094 207.871094 L 417.921875 207.84375 L 417.96875 207.8125 L 418.054688 207.742188 L 418.097656 207.703125 L 418.140625 207.660156 L 418.179688 207.613281 L 418.214844 207.5625 L 418.285156 207.453125 L 418.320312 207.394531 L 418.382812 207.261719 L 418.410156 207.191406 L 418.4375 207.113281 L 418.460938 207.035156 L 418.484375 206.953125 L 418.507812 206.867188 L 418.527344 206.777344 L 418.546875 206.683594 L 418.566406 206.585938 L 418.582031 206.484375 L 418.59375 206.378906 L 418.609375 206.269531 L 418.617188 206.152344 L 418.632812 205.910156 L 418.636719 205.78125 L 418.640625 205.648438 Z M 418.640625 205.511719 "/>
<path style=" stroke:none;fill-rule:nonzero;fill:rgb(0%,0%,0%);fill-opacity:1;" d="M 230.53125 11.699219 L 230.527344 11.84375 L 230.519531 11.984375 L 230.503906 12.121094 L 230.484375 12.253906 L 230.457031 12.378906 L 230.425781 12.503906 L 230.386719 12.625 L 230.292969 12.851562 L 230.234375 12.957031 L 230.175781 13.058594 L 230.109375 13.15625 L 230.039062 13.253906 L 229.964844 13.34375 L 229.886719 13.429688 L 229.804688 13.515625 L 229.71875 13.59375 L 229.625 13.671875 L 229.53125 13.742188 L 229.429688 13.8125 L 229.328125 13.875 L 229.21875 13.9375 L 229.109375 13.992188 L 228.996094 14.046875 L 228.878906 14.097656 L 228.761719 14.144531 L 228.636719 14.1875 L 228.511719 14.226562 L 228.378906 14.265625 L 228.246094 14.296875 L 227.972656 14.351562 L 227.832031 14.375 L 227.691406 14.394531 L 227.550781 14.410156 L 227.40625 14.421875 L 227.257812 14.433594 L 227.109375 14.441406 L 226.8125 14.449219 L 221.992188 14.449219 L 221.992188 4.816406 L 226.570312 4.816406 L 226.734375 4.820312 L 226.894531 4.828125 L 227.054688 4.839844 L 227.207031 4.851562 L 227.503906 4.890625 L 227.785156 4.9375 L 227.917969 4.964844 L 228.050781 4.996094 L 228.179688 5.03125 L 228.300781 5.066406 L 228.421875 5.105469 L 228.535156 5.148438 L 228.644531 5.195312 L 228.753906 5.246094 L 228.855469 5.296875 L 228.953125 5.351562 L 229.046875 5.410156 L 229.136719 5.472656 L 229.300781 5.605469 L 229.375 5.675781 L 229.449219 5.75 L 229.515625 5.828125 L 229.578125 5.910156 L 229.636719 5.992188 L 229.6875 6.078125 L 229.738281 6.167969 L 229.824219 6.355469 L 229.859375 6.453125 L 229.890625 6.554688 L 229.917969 6.660156 L 229.9375 6.769531 L 229.953125 6.882812 L 229.964844 6.996094 L 229.972656 7.113281 L 229.976562 7.234375 L 229.972656 7.398438 L 229.957031 7.554688 L 229.933594 7.707031 L 229.902344 7.851562 L 229.863281 7.992188 L 229.8125 8.128906 L 229.75 8.261719 L 229.683594 8.386719 L 229.605469 8.507812 L 229.519531 8.625 L 229.421875 8.730469 L 229.320312 8.832031 L 229.203125 8.925781 L 229.082031 9.015625 L 228.949219 9.09375 L 228.804688 9.164062 L 228.652344 9.230469 L 228.488281 9.289062 L 228.320312 9.339844 L 228.136719 9.382812 L 228.367188 9.414062 L 228.582031 9.457031 L 228.789062 9.507812 L 228.984375 9.566406 L 229.167969 9.636719 L 229.339844 9.714844 L 229.5 9.800781 L 229.648438 9.898438 L 229.789062 10.003906 L 229.914062 10.121094 L 230.03125 10.242188 L 230.136719 10.375 L 230.226562 10.511719 L 230.308594 10.660156 L 230.375 10.8125 L 230.429688 10.972656 L 230.472656 11.144531 L 230.503906 11.320312 L 230.523438 11.507812 Z M 227.945312 7.507812 L 227.941406 7.382812 L 227.929688 7.265625 L 227.910156 7.152344 L 227.878906 7.050781 L 227.839844 6.953125 L 227.796875 6.867188 L 227.742188 6.785156 L 227.679688 6.710938 L 227.609375 6.644531 L 227.527344 6.585938 L 227.441406 6.535156 L 227.347656 6.488281 L 227.246094 6.445312 L 227.136719 6.410156 L 227.019531 6.382812 L 226.890625 6.355469 L 226.757812 6.335938 L 226.613281 6.324219 L 226.464844 6.316406 L 226.304688 6.3125 L 224.007812 6.3125 L 224.007812 8.699219 L 226.320312 8.699219 L 226.484375 8.695312 L 226.640625 8.6875 L 226.789062 8.671875 L 226.925781 8.652344 L 227.054688 8.625 L 227.175781 8.59375 L 227.285156 8.554688 L 227.382812 8.511719 L 227.476562 8.460938 L 227.554688 8.40625 L 227.628906 8.339844 L 227.695312 8.273438 L 227.753906 8.199219 L 227.804688 8.117188 L 227.847656 8.03125 L 227.882812 7.9375 L 227.910156 7.839844 L 227.929688 7.734375 L 227.941406 7.625 Z M 228.507812 11.542969 L 228.5 11.394531 L 228.492188 11.324219 L 228.46875 11.191406 L 228.453125 11.128906 L 228.433594 11.066406 L 228.410156 11.007812 L 228.355469 10.898438 L 228.324219 10.847656 L 228.292969 10.800781 L 228.253906 10.753906 L 228.21875 10.707031 L 228.175781 10.664062 L 228.089844 10.585938 L 228.039062 10.550781 L 227.992188 10.515625 L 227.9375 10.484375 L 227.886719 10.453125 L 227.832031 10.421875 L 227.773438 10.398438 L 227.714844 10.371094 L 227.65625 10.347656 L 227.59375 10.328125 L 227.527344 10.304688 L 227.394531 10.273438 L 227.324219 10.257812 L 227.183594 10.234375 L 227.109375 10.222656 L 226.960938 10.207031 L 226.882812 10.199219 L 226.726562 10.191406 L 226.644531 10.191406 L 226.566406 10.1875 L 224.007812 10.1875 L 224.007812 12.949219 L 226.796875 12.949219 L 226.875 12.945312 L 226.949219 12.941406 L 227.023438 12.933594 L 227.097656 12.929688 L 227.167969 12.921875 L 227.238281 12.910156 L 227.308594 12.902344 L 227.378906 12.890625 L 227.511719 12.859375 L 227.636719 12.820312 L 227.753906 12.773438 L 227.808594 12.75 L 227.917969 12.695312 L 227.964844 12.664062 L 228.015625 12.628906 L 228.0625 12.59375 L 228.109375 12.554688 L 228.152344 12.515625 L 228.191406 12.472656 L 228.230469 12.425781 L 228.300781 12.332031 L 228.332031 12.28125 L 228.363281 12.226562 L 228.390625 12.171875 L 228.414062 12.109375 L 228.4375 12.050781 L 228.46875 11.917969 L 228.484375 11.847656 L 228.492188 11.777344 L 228.5 11.699219 L 228.503906 11.625 Z M 228.507812 11.542969 "/>
</g>
</svg>
