<?xml version="1.0" encoding="UTF-8"?>
<svg xmlns="http://www.w3.org/2000/svg" xmlns:xlink="http://www.w3.org/1999/xlink" width="432pt" height="252pt" viewBox="0 0 432 252" version="1.1">
<defs>
<clipPath id="clip1">
  <path d="M 8.21875 5.480469 L 426.519531 5.480469 L 426.519531 243.78125 L 8.21875 243.78125 Z M 8.21875 5.480469 "/>
</clipPath>
</defs>
<g id="surface1154">
<rect x="0" y="0" width="432" height="252" style="fill:rgb(100%,100%,100%);fill-opacity:1;stroke:none;"/>
<rect x="0" y="0" width="432" height="252" style="fill:rgb(100%,100%,100%);fill-opacity:1;stroke:none;"/>
<path style="fill:none;stroke-width:1.066978;stroke-linecap:round;stroke-linejoin:round;stroke:rgb(100%,100%,100%);stroke-opacity:1;stroke-miterlimit:10;" d="M 0 252 L 432 252 L 432 0 L 0 0 Z M 0 252 "/>
<g clip-path="url(#clip1)" clip-rule="nonzero">
<path style="fill-rule:nonzero;fill:rgb(100%,100%,100%);fill-opacity:1;stroke-width:1.066978;stroke-linecap:round;stroke-linejoin:round;stroke:rgb(100%,100%,100%);stroke-opacity:1;stroke-miterlimit:10;" d="M 8.21875 243.78125 L 426.519531 243.78125 L 426.519531 5.480469 L 8.21875 5.480469 Z M 8.21875 243.78125 "/>
</g>
<rect x="0" y="0" width="432" height="252" style="fill:rgb(100%,100%,100%);fill-opacity:1;stroke:none;"/>
<path style="fill:none;stroke-width:1.066978;stroke-linecap:round;stroke-linejoin:round;stroke:rgb(100%,100%,100%);stroke-opacity:1;stroke-miterlimit:10;" d="M -48.820312 478.800781 L 464.550781 478.800781 L 464.550781 -34.570312 L -48.820312 -34.570312 Z M -48.820312 478.800781 "/>
<rect x="0" y="0" width="432" height="252" style="fill:rgb(100%,100%,100%);fill-opacity:1;stroke:none;"/>
<path style="fill:none;stroke-width:1.066978;stroke-linecap:round;stroke-linejoin:round;stroke:rgb(100%,100%,100%);stroke-opacity:1;stroke-miterlimit:10;" d="M -40.601562 470.582031 L 459.070312 470.582031 L 459.070312 -29.089844 L -40.601562 -29.089844 Z M -40.601562 470.582031 "/>
<path style="fill:none;stroke-width:1.066978;stroke-linecap:round;stroke-linejoin:round;stroke:rgb(69.803922%,13.333333%,13.333333%);stroke-opacity:1;stroke-miterlimit:10;" d="M 57.515625 183.351562 L 50.617188 181.652344 L 43.722656 179.953125 "/>
<path style="fill:none;stroke-width:1.066978;stroke-linecap:round;stroke-linejoin:round;stroke:rgb(69.803922%,13.333333%,13.333333%);stroke-opacity:1;stroke-miterlimit:10;" d="M 52.976562 220.746094 L 38.769531 220.746094 "/>
<path style="fill:none;stroke-width:1.066978;stroke-linecap:round;stroke-linejoin:round;stroke:rgb(69.803922%,13.333333%,13.333333%);stroke-opacity:1;stroke-miterlimit:10;" d="M 89.742188 158.03125 L 81.878906 153.90625 L 74.019531 149.78125 "/>
<path style="fill:none;stroke-width:1.066978;stroke-linecap:round;stroke-linejoin:round;stroke:rgb(69.803922%,13.333333%,13.333333%);stroke-opacity:1;stroke-miterlimit:10;" d="M 129.488281 150.097656 L 124.171875 145.386719 L 118.855469 140.679688 L 113.539062 135.96875 "/>
<path style="fill:none;stroke-width:1.066978;stroke-linecap:round;stroke-linejoin:round;stroke:rgb(69.803922%,13.333333%,13.333333%);stroke-opacity:1;stroke-miterlimit:10;" d="M 154.761719 141.835938 L 150.914062 136.253906 L 143.210938 125.097656 L 139.359375 119.515625 L 135.507812 113.9375 L 131.65625 108.355469 L 123.953125 97.199219 L 120.101562 91.617188 L 116.25 86.039062 L 112.398438 80.457031 "/>
<path style="fill:none;stroke-width:1.066978;stroke-linecap:round;stroke-linejoin:round;stroke:rgb(27.45098%,50.980392%,70.588235%);stroke-opacity:1;stroke-miterlimit:10;" d="M 190.398438 65.628906 L 188.6875 51.527344 "/>
<path style="fill:none;stroke-width:1.066978;stroke-linecap:round;stroke-linejoin:round;stroke:rgb(27.45098%,50.980392%,70.588235%);stroke-opacity:1;stroke-miterlimit:10;" d="M 153.824219 74.644531 L 151.304688 68.003906 L 148.785156 61.359375 L 146.265625 54.71875 L 143.75 48.078125 L 138.710938 34.796875 "/>
<path style="fill:none;stroke-width:1.066978;stroke-linecap:round;stroke-linejoin:round;stroke:rgb(27.45098%,50.980392%,70.588235%);stroke-opacity:1;stroke-miterlimit:10;" d="M 222.074219 114.984375 L 223.785156 100.882812 L 224.644531 93.832031 L 225.5 86.78125 "/>
<path style="fill:none;stroke-width:1.066978;stroke-linecap:round;stroke-linejoin:round;stroke:rgb(0%,0%,0%);stroke-opacity:1;stroke-miterlimit:10;" d="M 369.605469 136.578125 L 377.464844 132.453125 L 385.328125 128.324219 "/>
<path style="fill:none;stroke-width:1.066978;stroke-linecap:round;stroke-linejoin:round;stroke:rgb(0%,0%,0%);stroke-opacity:1;stroke-miterlimit:10;" d="M 344.800781 100.644531 L 350.117188 95.933594 "/>
<path style="fill:none;stroke-width:1.066978;stroke-linecap:round;stroke-linejoin:round;stroke:rgb(0%,0%,0%);stroke-opacity:1;stroke-miterlimit:10;" d="M 255.632812 153.527344 L 260.070312 147.09375 L 264.507812 140.664062 L 268.949219 134.234375 L 277.824219 121.375 "/>
<path style="fill:none;stroke-width:1.066978;stroke-linecap:round;stroke-linejoin:round;stroke:rgb(0%,0%,0%);stroke-opacity:1;stroke-miterlimit:10;" d="M 238.195312 144.375 L 240.96875 137.070312 L 246.507812 122.460938 L 249.277344 115.152344 L 252.050781 107.847656 "/>
<path style="fill:none;stroke-width:1.066978;stroke-linecap:round;stroke-linejoin:round;stroke:rgb(0%,0%,0%);stroke-opacity:1;stroke-miterlimit:10;" d="M 209.234375 220.746094 L 215.890625 219.105469 L 222.550781 217.464844 L 229.207031 215.824219 L 235.867188 214.183594 L 242.523438 212.542969 L 249.183594 210.898438 L 255.84375 209.257812 L 262.5 207.617188 L 269.160156 205.976562 L 275.816406 204.335938 L 282.476562 202.695312 L 289.132812 201.054688 L 295.792969 199.410156 L 302.453125 197.769531 L 309.109375 196.128906 L 315.769531 194.488281 L 322.425781 192.847656 L 329.085938 191.207031 L 335.742188 189.566406 L 342.402344 187.925781 L 349.058594 186.28125 L 362.378906 183 L 369.035156 181.359375 L 375.695312 179.71875 L 382.351562 178.078125 L 389.011719 176.4375 L 395.667969 174.792969 L 402.328125 173.152344 "/>
<path style="fill:none;stroke-width:1.066978;stroke-linecap:round;stroke-linejoin:round;stroke:rgb(0%,0%,0%);stroke-opacity:1;stroke-miterlimit:10;" d="M 209.234375 220.746094 L 209.234375 220.746094 "/>
<path style="fill:none;stroke-width:1.066978;stroke-linecap:round;stroke-linejoin:round;stroke:rgb(0%,0%,0%);stroke-opacity:1;stroke-miterlimit:10;" d="M 209.234375 220.746094 L 210.222656 213.714844 L 211.210938 206.679688 "/>
<path style="fill:none;stroke-width:1.066978;stroke-linecap:round;stroke-linejoin:round;stroke:rgb(0%,0%,0%);stroke-opacity:1;stroke-miterlimit:10;" d="M 203.109375 207.929688 L 199.792969 200.984375 L 196.480469 194.042969 L 193.164062 187.097656 L 189.847656 180.15625 L 186.53125 173.210938 L 183.214844 166.269531 "/>
<path style="fill:none;stroke-width:1.066978;stroke-linecap:round;stroke-linejoin:round;stroke:rgb(69.803922%,13.333333%,13.333333%);stroke-opacity:1;stroke-miterlimit:10;" d="M 164.652344 180.035156 L 159.410156 175.246094 L 154.164062 170.457031 L 148.917969 165.664062 L 143.675781 160.875 L 138.429688 156.085938 "/>
<path style="fill:none;stroke-width:1.066978;stroke-linecap:round;stroke-linejoin:round;stroke:rgb(69.803922%,13.333333%,13.333333%);stroke-opacity:1;stroke-miterlimit:10;" d="M 125.714844 173.644531 L 116.433594 168.410156 "/>
<path style="fill:none;stroke-width:1.066978;stroke-linecap:round;stroke-linejoin:round;stroke:rgb(69.803922%,13.333333%,13.333333%);stroke-opacity:1;stroke-miterlimit:10;" d="M 107.515625 189.050781 L 100.734375 186.9375 L 93.957031 184.824219 L 80.394531 180.597656 "/>
<path style="fill:none;stroke-width:1.066978;stroke-linecap:round;stroke-linejoin:round;stroke:rgb(69.803922%,13.333333%,13.333333%);stroke-opacity:1;stroke-miterlimit:10;" d="M 75.265625 204.480469 L 54.113281 201.914062 "/>
<path style="fill:none;stroke-width:1.066978;stroke-linecap:round;stroke-linejoin:round;stroke:rgb(27.45098%,50.980392%,70.588235%);stroke-opacity:1;stroke-miterlimit:10;" d="M 205.585938 160.484375 L 205.125 152.804688 L 204.660156 145.125 L 204.195312 137.441406 L 202.800781 114.402344 "/>
<path style="fill:none;stroke-width:1.066978;stroke-linecap:round;stroke-linejoin:round;stroke:rgb(27.45098%,50.980392%,70.588235%);stroke-opacity:1;stroke-miterlimit:10;" d="M 183.734375 117.304688 L 182.035156 110.40625 L 180.335938 103.511719 L 178.636719 96.613281 L 176.9375 89.71875 L 175.238281 82.820312 L 173.539062 75.925781 L 171.835938 69.03125 "/>
<path style="fill:none;stroke-width:1.066978;stroke-linecap:round;stroke-linejoin:round;stroke:rgb(0%,0%,0%);stroke-opacity:1;stroke-miterlimit:10;" d="M 218.652344 210.113281 L 238.667969 187.519531 L 243.675781 181.871094 L 258.6875 164.925781 "/>
<path style="fill:none;stroke-width:1.066978;stroke-linecap:round;stroke-linejoin:round;stroke:rgb(0%,0%,0%);stroke-opacity:1;stroke-miterlimit:10;" d="M 270.609375 178.382812 L 276.453125 174.347656 L 282.300781 170.3125 L 288.144531 166.277344 L 293.992188 162.242188 L 305.679688 154.171875 L 311.527344 150.140625 L 317.371094 146.105469 L 323.21875 142.070312 L 329.0625 138.035156 L 334.910156 134 L 346.597656 125.929688 L 352.445312 121.894531 L 358.289062 117.859375 "/>
<path style="fill:none;stroke-width:1.066978;stroke-linecap:round;stroke-linejoin:round;stroke:rgb(0%,0%,0%);stroke-opacity:1;stroke-miterlimit:10;" d="M 243.890625 154.710938 L 247.191406 148.421875 "/>
<path style="fill:none;stroke-width:1.066978;stroke-linecap:round;stroke-linejoin:round;stroke:rgb(69.803922%,13.333333%,13.333333%);stroke-opacity:1;stroke-miterlimit:10;" d="M 54.113281 201.914062 L 55.535156 192.582031 L 57.515625 183.351562 "/>
<path style="fill:none;stroke-width:1.066978;stroke-linecap:round;stroke-linejoin:round;stroke:rgb(69.803922%,13.333333%,13.333333%);stroke-opacity:1;stroke-miterlimit:10;" d="M 54.113281 201.914062 L 53.257812 211.3125 L 52.976562 220.746094 "/>
<path style="fill:none;stroke-width:1.066978;stroke-linecap:round;stroke-linejoin:round;stroke:rgb(69.803922%,13.333333%,13.333333%);stroke-opacity:1;stroke-miterlimit:10;" d="M 80.394531 180.597656 L 83.050781 172.894531 L 86.171875 165.363281 L 89.742188 158.03125 "/>
<path style="fill:none;stroke-width:1.066978;stroke-linecap:round;stroke-linejoin:round;stroke:rgb(69.803922%,13.333333%,13.333333%);stroke-opacity:1;stroke-miterlimit:10;" d="M 116.433594 168.410156 L 120.351562 162.003906 L 124.710938 155.890625 L 129.488281 150.097656 "/>
<path style="fill:none;stroke-width:1.066978;stroke-linecap:round;stroke-linejoin:round;stroke:rgb(69.803922%,13.333333%,13.333333%);stroke-opacity:1;stroke-miterlimit:10;" d="M 138.429688 156.085938 L 143.511719 150.929688 L 148.964844 146.167969 L 154.761719 141.835938 "/>
<path style="fill:none;stroke-width:1.066978;stroke-linecap:round;stroke-linejoin:round;stroke:rgb(27.45098%,50.980392%,70.588235%);stroke-opacity:1;stroke-miterlimit:10;" d="M 171.835938 69.03125 L 181.066406 67.046875 L 190.398438 65.628906 "/>
<path style="fill:none;stroke-width:1.066978;stroke-linecap:round;stroke-linejoin:round;stroke:rgb(27.45098%,50.980392%,70.588235%);stroke-opacity:1;stroke-miterlimit:10;" d="M 171.835938 69.03125 L 162.746094 71.5625 L 153.824219 74.644531 "/>
<path style="fill:none;stroke-width:1.066978;stroke-linecap:round;stroke-linejoin:round;stroke:rgb(27.45098%,50.980392%,70.588235%);stroke-opacity:1;stroke-miterlimit:10;" d="M 202.800781 114.402344 L 212.449219 114.257812 L 222.074219 114.984375 "/>
<path style="fill:none;stroke-width:1.066978;stroke-linecap:round;stroke-linejoin:round;stroke:rgb(0%,0%,0%);stroke-opacity:1;stroke-miterlimit:10;" d="M 358.289062 117.859375 L 362.3125 123.945312 L 366.085938 130.1875 L 369.605469 136.578125 "/>
<path style="fill:none;stroke-width:1.066978;stroke-linecap:round;stroke-linejoin:round;stroke:rgb(0%,0%,0%);stroke-opacity:1;stroke-miterlimit:10;" d="M 358.289062 117.859375 L 354.027344 111.941406 L 349.527344 106.199219 L 344.800781 100.644531 "/>
<path style="fill:none;stroke-width:1.066978;stroke-linecap:round;stroke-linejoin:round;stroke:rgb(0%,0%,0%);stroke-opacity:1;stroke-miterlimit:10;" d="M 247.191406 148.421875 L 255.632812 153.527344 "/>
<path style="fill:none;stroke-width:1.066978;stroke-linecap:round;stroke-linejoin:round;stroke:rgb(0%,0%,0%);stroke-opacity:1;stroke-miterlimit:10;" d="M 247.191406 148.421875 L 238.195312 144.375 "/>
<path style="fill:none;stroke-width:1.066978;stroke-linecap:round;stroke-linejoin:round;stroke:rgb(0%,0%,0%);stroke-opacity:1;stroke-miterlimit:10;" d="M 209.234375 220.746094 L 209.234375 220.746094 "/>
<path style="fill:none;stroke-width:1.066978;stroke-linecap:round;stroke-linejoin:round;stroke:rgb(0%,0%,0%);stroke-opacity:1;stroke-miterlimit:10;" d="M 209.234375 220.746094 L 209.234375 220.746094 "/>
<path style="fill:none;stroke-width:1.066978;stroke-linecap:round;stroke-linejoin:round;stroke:rgb(0%,0%,0%);stroke-opacity:1;stroke-miterlimit:10;" d="M 209.234375 220.746094 L 209.234375 220.746094 "/>
<path style="fill:none;stroke-width:1.066978;stroke-linecap:round;stroke-linejoin:round;stroke:rgb(0%,0%,0%);stroke-opacity:1;stroke-miterlimit:10;" d="M 211.210938 206.679688 L 203.109375 207.929688 "/>
<path style="fill:none;stroke-width:1.066978;stroke-linecap:round;stroke-linejoin:round;stroke:rgb(69.803922%,13.333333%,13.333333%);stroke-opacity:1;stroke-miterlimit:10;" d="M 183.214844 166.269531 L 176.453125 170.046875 L 170.234375 174.664062 L 164.652344 180.035156 "/>
<path style="fill:none;stroke-width:1.066978;stroke-linecap:round;stroke-linejoin:round;stroke:rgb(69.803922%,13.333333%,13.333333%);stroke-opacity:1;stroke-miterlimit:10;" d="M 138.429688 156.085938 L 133.753906 161.613281 L 129.507812 167.476562 L 125.714844 173.644531 "/>
<path style="fill:none;stroke-width:1.066978;stroke-linecap:round;stroke-linejoin:round;stroke:rgb(69.803922%,13.333333%,13.333333%);stroke-opacity:1;stroke-miterlimit:10;" d="M 116.433594 168.410156 L 112.980469 175.074219 L 110.003906 181.964844 L 107.515625 189.050781 "/>
<path style="fill:none;stroke-width:1.066978;stroke-linecap:round;stroke-linejoin:round;stroke:rgb(69.803922%,13.333333%,13.333333%);stroke-opacity:1;stroke-miterlimit:10;" d="M 80.394531 180.597656 L 78.203125 188.453125 L 76.492188 196.421875 L 75.265625 204.480469 "/>
<path style="fill:none;stroke-width:1.066978;stroke-linecap:round;stroke-linejoin:round;stroke:rgb(27.45098%,50.980392%,70.588235%);stroke-opacity:1;stroke-miterlimit:10;" d="M 183.214844 166.269531 L 190.402344 163.386719 L 197.902344 161.449219 L 205.585938 160.484375 "/>
<path style="fill:none;stroke-width:1.066978;stroke-linecap:round;stroke-linejoin:round;stroke:rgb(27.45098%,50.980392%,70.588235%);stroke-opacity:1;stroke-miterlimit:10;" d="M 202.800781 114.402344 L 193.203125 115.421875 L 183.734375 117.304688 "/>
<path style="fill:none;stroke-width:1.066978;stroke-linecap:round;stroke-linejoin:round;stroke:rgb(0%,0%,0%);stroke-opacity:1;stroke-miterlimit:10;" d="M 211.210938 206.679688 L 218.652344 210.113281 "/>
<path style="fill:none;stroke-width:1.066978;stroke-linecap:round;stroke-linejoin:round;stroke:rgb(0%,0%,0%);stroke-opacity:1;stroke-miterlimit:10;" d="M 258.6875 164.925781 L 265.054688 171.292969 L 270.609375 178.382812 "/>
<path style="fill:none;stroke-width:1.066978;stroke-linecap:round;stroke-linejoin:round;stroke:rgb(0%,0%,0%);stroke-opacity:1;stroke-miterlimit:10;" d="M 258.6875 164.925781 L 251.597656 159.371094 L 243.890625 154.710938 "/>
<path style=" stroke:none;fill-rule:nonzero;fill:rgb(0%,0%,0%);fill-opacity:1;" d="M 388.507812 131.054688 L 385.8125 123.953125 L 386.777344 123.585938 L 389.46875 130.6875 Z M 388.507812 131.054688 "/>
<path style=" stroke:none;fill-rule:nonzero;fill:rgb(0%,0%,0%);fill-opacity:1;" d="M 355.109375 97.089844 L 354.957031 97.1875 L 354.804688 97.277344 L 354.652344 97.351562 L 354.5 97.414062 L 354.347656 97.46875 L 354.195312 97.507812 L 354.042969 97.539062 L 353.894531 97.554688 L 353.742188 97.5625 L 353.589844 97.554688 L 353.4375 97.535156 L 353.285156 97.503906 L 353.136719 97.457031 L 352.984375 97.398438 L 352.835938 97.324219 L 352.6875 97.234375 L 352.535156 97.132812 L 352.386719 97.019531 L 352.238281 96.890625 L 352.089844 96.75 L 352.824219 96.039062 L 352.871094 96.089844 L 352.921875 96.136719 L 352.96875 96.183594 L 353.019531 96.226562 L 353.066406 96.265625 L 353.117188 96.304688 L 353.167969 96.339844 L 353.214844 96.375 L 353.265625 96.40625 L 353.3125 96.433594 L 353.363281 96.460938 L 353.457031 96.507812 L 353.507812 96.527344 L 353.648438 96.574219 L 353.742188 96.597656 L 353.789062 96.605469 L 353.929688 96.617188 L 354.019531 96.617188 L 354.0625 96.613281 L 354.109375 96.609375 L 354.195312 96.59375 L 354.28125 96.570312 L 354.324219 96.554688 L 354.367188 96.542969 L 354.40625 96.523438 L 354.449219 96.507812 L 354.527344 96.46875 L 354.5625 96.445312 L 354.601562 96.421875 L 354.636719 96.398438 L 354.726562 96.332031 L 354.804688 96.265625 L 354.878906 96.191406 L 354.941406 96.113281 L 354.996094 96.035156 L 355.042969 95.953125 L 355.082031 95.863281 L 355.113281 95.773438 L 355.132812 95.679688 L 355.148438 95.582031 L 355.152344 95.480469 L 355.148438 95.375 L 355.132812 95.269531 L 355.109375 95.160156 L 355.078125 95.050781 L 355.035156 94.9375 L 354.980469 94.824219 L 354.921875 94.707031 L 354.851562 94.585938 L 354.769531 94.464844 L 352.207031 90.753906 L 351.003906 91.582031 L 350.527344 90.890625 L 352.574219 89.480469 L 355.601562 93.867188 L 355.71875 94.046875 L 355.820312 94.226562 L 355.863281 94.3125 L 355.90625 94.402344 L 355.945312 94.492188 L 356.007812 94.671875 L 356.035156 94.761719 L 356.058594 94.847656 L 356.078125 94.9375 L 356.09375 95.023438 L 356.105469 95.113281 L 356.113281 95.199219 L 356.117188 95.285156 L 356.117188 95.371094 L 356.113281 95.457031 L 356.097656 95.628906 L 356.066406 95.792969 L 356.042969 95.871094 L 356.019531 95.953125 L 355.957031 96.109375 L 355.921875 96.1875 L 355.878906 96.265625 L 355.835938 96.339844 L 355.789062 96.417969 L 355.738281 96.488281 L 355.683594 96.5625 L 355.625 96.632812 L 355.5625 96.703125 L 355.496094 96.769531 L 355.425781 96.835938 L 355.351562 96.902344 L 355.273438 96.964844 Z M 355.109375 97.089844 "/>
<path style=" stroke:none;fill-rule:nonzero;fill:rgb(0%,0%,0%);fill-opacity:1;" d="M 284.902344 117.808594 L 280.160156 118.222656 L 280.21875 119.46875 L 282.613281 121.121094 L 282.027344 121.96875 L 275.777344 117.65625 L 276.363281 116.808594 L 279.496094 118.96875 L 278.441406 113.796875 L 279.128906 112.796875 L 280.007812 117.332031 L 285.625 116.757812 Z M 284.902344 117.808594 "/>
<path style=" stroke:none;fill-rule:nonzero;fill:rgb(0%,0%,0%);fill-opacity:1;" d="M 256.273438 107.417969 L 249.171875 104.726562 L 249.539062 103.761719 L 255.851562 106.15625 L 257.214844 102.570312 L 258 102.867188 Z M 256.273438 107.417969 "/>
<path style=" stroke:none;fill-rule:nonzero;fill:rgb(0%,0%,0%);fill-opacity:1;" d="M 411.351562 174.839844 L 410.140625 169.921875 L 410.125 169.867188 L 410.101562 169.757812 L 410.085938 169.707031 L 410.0625 169.597656 L 410.046875 169.542969 L 410.035156 169.484375 L 410.011719 169.375 L 409.996094 169.320312 L 409.972656 169.210938 L 409.960938 169.160156 L 409.953125 169.109375 L 409.929688 169.007812 L 409.921875 168.957031 L 409.910156 168.910156 L 409.902344 168.863281 L 409.890625 168.808594 L 409.878906 168.757812 L 409.867188 168.703125 L 409.859375 168.648438 L 409.835938 168.546875 L 409.828125 168.492188 L 409.816406 168.441406 L 409.800781 168.339844 L 409.796875 168.394531 L 409.796875 168.453125 L 409.792969 168.507812 L 409.792969 168.566406 L 409.789062 168.621094 L 409.789062 168.679688 L 409.785156 168.734375 L 409.78125 168.792969 L 409.78125 168.847656 L 409.777344 168.90625 L 409.773438 168.953125 L 409.773438 169.003906 L 409.761719 169.15625 L 409.761719 169.207031 L 409.753906 169.316406 L 409.75 169.367188 L 409.746094 169.425781 L 409.742188 169.476562 L 409.738281 169.53125 L 409.726562 169.683594 L 409.71875 169.730469 L 409.714844 169.78125 L 409.710938 169.828125 L 409.707031 169.871094 L 409.699219 169.917969 L 409.03125 175.410156 L 408.332031 175.585938 L 405.164062 171.035156 L 405.152344 171.023438 L 405.128906 170.992188 L 405.121094 170.976562 L 405.109375 170.960938 L 405.097656 170.941406 L 405.085938 170.925781 L 405.074219 170.90625 L 405.0625 170.890625 L 405.027344 170.832031 L 405.011719 170.8125 L 405 170.792969 L 404.988281 170.769531 L 404.976562 170.75 L 404.960938 170.730469 L 404.949219 170.710938 L 404.933594 170.6875 L 404.921875 170.667969 L 404.90625 170.644531 L 404.894531 170.625 L 404.882812 170.601562 L 404.867188 170.578125 L 404.855469 170.558594 L 404.824219 170.511719 L 404.8125 170.492188 L 404.796875 170.46875 L 404.785156 170.445312 L 404.769531 170.421875 L 404.757812 170.402344 L 404.742188 170.378906 L 404.730469 170.355469 L 404.714844 170.332031 L 404.691406 170.285156 L 404.675781 170.265625 L 404.664062 170.242188 L 404.648438 170.21875 L 404.585938 170.117188 L 404.554688 170.0625 L 404.523438 170.011719 L 404.492188 169.957031 L 404.460938 169.90625 L 404.335938 169.6875 L 404.351562 169.742188 L 404.429688 170.035156 L 404.445312 170.089844 L 404.476562 170.207031 L 404.492188 170.261719 L 404.523438 170.363281 L 404.535156 170.410156 L 404.566406 170.511719 L 404.578125 170.566406 L 404.59375 170.617188 L 404.609375 170.671875 L 404.621094 170.722656 L 404.636719 170.777344 L 404.652344 170.828125 L 404.664062 170.882812 L 404.679688 170.929688 L 404.691406 170.980469 L 404.714844 171.074219 L 404.726562 171.117188 L 404.738281 171.164062 L 404.75 171.207031 L 404.757812 171.246094 L 405.972656 176.167969 L 405.082031 176.386719 L 403.265625 169.011719 L 404.578125 168.6875 L 407.800781 173.316406 L 407.8125 173.335938 L 407.828125 173.359375 L 407.839844 173.378906 L 407.855469 173.402344 L 407.871094 173.429688 L 407.886719 173.453125 L 407.902344 173.480469 L 407.921875 173.507812 L 407.9375 173.539062 L 407.957031 173.566406 L 407.976562 173.597656 L 407.992188 173.628906 L 408.011719 173.660156 L 408.03125 173.6875 L 408.046875 173.71875 L 408.085938 173.78125 L 408.101562 173.8125 L 408.121094 173.847656 L 408.140625 173.878906 L 408.15625 173.910156 L 408.175781 173.941406 L 408.207031 174.003906 L 408.226562 174.035156 L 408.273438 174.128906 L 408.289062 174.15625 L 408.304688 174.1875 L 408.320312 174.214844 L 408.332031 174.242188 L 408.347656 174.265625 L 408.382812 174.335938 L 408.394531 174.355469 L 408.402344 174.375 L 408.410156 174.390625 L 408.417969 174.410156 L 408.417969 174.085938 L 408.421875 174.050781 L 408.421875 173.980469 L 408.425781 173.945312 L 408.425781 173.875 L 408.429688 173.835938 L 408.429688 173.800781 L 408.433594 173.761719 L 408.4375 173.726562 L 408.4375 173.691406 L 408.441406 173.652344 L 408.449219 173.582031 L 408.449219 173.542969 L 408.457031 173.472656 L 408.457031 173.4375 L 408.460938 173.402344 L 408.464844 173.371094 L 408.464844 173.339844 L 408.472656 173.277344 L 408.472656 173.25 L 408.480469 173.195312 L 408.488281 173.148438 L 409.152344 167.558594 L 410.433594 167.246094 L 412.253906 174.617188 Z M 411.351562 174.839844 "/>
<path style=" stroke:none;fill-rule:nonzero;fill:rgb(27.45098%,50.980392%,70.588235%);fill-opacity:1;" d="M 230.117188 80.253906 L 226.625 79.828125 L 226.128906 83.90625 L 229.621094 84.332031 L 229.5 85.351562 L 221.957031 84.4375 L 222.082031 83.414062 L 225.273438 83.800781 L 225.765625 79.722656 L 222.578125 79.335938 L 222.703125 78.316406 L 230.242188 79.230469 Z M 230.117188 80.253906 "/>
<path style=" stroke:none;fill-rule:nonzero;fill:rgb(69.803922%,13.333333%,13.333333%);fill-opacity:1;" d="M 40.808594 183.144531 L 40.496094 180.78125 L 37.136719 179.953125 L 35.757812 181.898438 L 34.71875 181.644531 L 39.546875 175.011719 L 40.683594 175.292969 L 41.828125 183.398438 Z M 40.042969 177.261719 L 40.035156 177.214844 L 40.03125 177.167969 L 40.015625 177.074219 L 40.011719 177.03125 L 40.007812 176.984375 L 40 176.9375 L 39.996094 176.890625 L 39.988281 176.84375 L 39.980469 176.75 L 39.976562 176.707031 L 39.972656 176.660156 L 39.964844 176.574219 L 39.960938 176.535156 L 39.957031 176.492188 L 39.957031 176.453125 L 39.953125 176.414062 L 39.949219 176.378906 L 39.945312 176.339844 L 39.945312 176.304688 L 39.9375 176.234375 L 39.933594 176.203125 L 39.933594 176.171875 L 39.929688 176.140625 L 39.925781 176.113281 L 39.925781 176.085938 L 39.921875 176.058594 L 39.921875 176.035156 L 39.917969 176.011719 L 39.917969 175.929688 L 39.914062 175.917969 L 39.914062 175.910156 L 39.917969 175.902344 L 39.90625 175.914062 L 39.902344 175.925781 L 39.894531 175.933594 L 39.886719 175.949219 L 39.878906 175.960938 L 39.867188 175.980469 L 39.855469 175.996094 L 39.84375 176.015625 L 39.832031 176.039062 L 39.820312 176.058594 L 39.804688 176.085938 L 39.773438 176.132812 L 39.757812 176.160156 L 39.738281 176.191406 L 39.71875 176.21875 L 39.640625 176.34375 L 39.617188 176.378906 L 39.597656 176.414062 L 39.503906 176.554688 L 39.476562 176.59375 L 39.453125 176.632812 L 39.425781 176.671875 L 39.402344 176.710938 L 39.375 176.75 L 39.351562 176.789062 L 39.324219 176.828125 L 39.300781 176.863281 L 39.273438 176.902344 L 39.25 176.941406 L 39.195312 177.019531 L 39.171875 177.058594 L 37.632812 179.246094 L 40.390625 179.929688 Z M 40.042969 177.261719 "/>
<path style=" stroke:none;fill-rule:nonzero;fill:rgb(69.803922%,13.333333%,13.333333%);fill-opacity:1;" d="M 37.191406 222.40625 L 37.191406 222.519531 L 37.183594 222.628906 L 37.171875 222.734375 L 37.15625 222.839844 L 37.136719 222.941406 L 37.082031 223.128906 L 37.046875 223.21875 L 37.007812 223.308594 L 36.964844 223.390625 L 36.871094 223.546875 L 36.816406 223.621094 L 36.761719 223.691406 L 36.636719 223.824219 L 36.574219 223.886719 L 36.503906 223.945312 L 36.433594 224 L 36.355469 224.054688 L 36.28125 224.105469 L 36.199219 224.148438 L 36.117188 224.195312 L 35.945312 224.273438 L 35.851562 224.308594 L 35.761719 224.34375 L 35.664062 224.375 L 35.566406 224.402344 L 35.46875 224.425781 L 35.367188 224.449219 L 35.261719 224.46875 L 35.160156 224.488281 L 35.054688 224.503906 L 34.949219 224.515625 L 34.839844 224.527344 L 34.730469 224.535156 L 34.511719 224.542969 L 31.316406 224.542969 L 31.316406 216.949219 L 34.203125 216.949219 L 34.324219 216.953125 L 34.445312 216.960938 L 34.558594 216.96875 L 34.675781 216.976562 L 34.785156 216.988281 L 34.894531 217.003906 L 35 217.019531 L 35.101562 217.035156 L 35.203125 217.058594 L 35.300781 217.078125 L 35.394531 217.101562 L 35.488281 217.128906 L 35.578125 217.160156 L 35.660156 217.191406 L 35.746094 217.226562 L 35.824219 217.261719 L 35.902344 217.300781 L 36.042969 217.386719 L 36.113281 217.433594 L 36.175781 217.480469 L 36.238281 217.535156 L 36.292969 217.585938 L 36.347656 217.644531 L 36.398438 217.703125 L 36.445312 217.765625 L 36.488281 217.828125 L 36.53125 217.894531 L 36.601562 218.035156 L 36.632812 218.105469 L 36.660156 218.183594 L 36.683594 218.261719 L 36.722656 218.425781 L 36.734375 218.515625 L 36.742188 218.605469 L 36.75 218.699219 L 36.75 218.855469 L 36.742188 218.980469 L 36.734375 219.042969 L 36.71875 219.160156 L 36.707031 219.21875 L 36.675781 219.335938 L 36.660156 219.390625 L 36.621094 219.5 L 36.574219 219.609375 L 36.492188 219.761719 L 36.460938 219.808594 L 36.390625 219.902344 L 36.351562 219.949219 L 36.316406 219.992188 L 36.273438 220.035156 L 36.1875 220.113281 L 36.09375 220.191406 L 35.992188 220.261719 L 35.9375 220.296875 L 35.882812 220.328125 L 35.824219 220.359375 L 35.707031 220.414062 L 35.582031 220.460938 L 35.515625 220.484375 L 35.445312 220.503906 L 35.378906 220.523438 L 35.304688 220.539062 L 35.398438 220.550781 L 35.65625 220.597656 L 35.738281 220.621094 L 35.816406 220.640625 L 35.894531 220.664062 L 36.042969 220.71875 L 36.183594 220.78125 L 36.253906 220.816406 L 36.316406 220.851562 L 36.441406 220.929688 L 36.5 220.96875 L 36.609375 221.054688 L 36.660156 221.101562 L 36.707031 221.148438 L 36.753906 221.199219 L 36.839844 221.300781 L 36.917969 221.410156 L 36.953125 221.46875 L 36.984375 221.527344 L 37.015625 221.589844 L 37.070312 221.714844 L 37.09375 221.777344 L 37.132812 221.910156 L 37.148438 221.976562 L 37.183594 222.1875 L 37.1875 222.257812 L 37.191406 222.332031 Z M 35.714844 218.917969 L 35.710938 218.796875 L 35.699219 218.683594 L 35.679688 218.578125 L 35.648438 218.480469 L 35.609375 218.390625 L 35.5625 218.304688 L 35.511719 218.226562 L 35.445312 218.15625 L 35.375 218.09375 L 35.296875 218.039062 L 35.207031 217.988281 L 35.113281 217.945312 L 35.007812 217.902344 L 34.898438 217.871094 L 34.78125 217.839844 L 34.65625 217.816406 L 34.523438 217.796875 L 34.382812 217.785156 L 34.234375 217.777344 L 34.078125 217.773438 L 32.347656 217.773438 L 32.347656 220.179688 L 34.078125 220.179688 L 34.167969 220.175781 L 34.253906 220.175781 L 34.335938 220.171875 L 34.417969 220.164062 L 34.496094 220.15625 L 34.570312 220.148438 L 34.710938 220.125 L 34.84375 220.09375 L 34.960938 220.054688 L 35.019531 220.03125 L 35.074219 220.007812 L 35.125 219.984375 L 35.175781 219.957031 L 35.222656 219.929688 L 35.265625 219.902344 L 35.308594 219.871094 L 35.347656 219.839844 L 35.386719 219.804688 L 35.457031 219.734375 L 35.488281 219.695312 L 35.515625 219.65625 L 35.542969 219.613281 L 35.566406 219.574219 L 35.589844 219.53125 L 35.609375 219.484375 L 35.628906 219.441406 L 35.644531 219.394531 L 35.660156 219.34375 L 35.671875 219.296875 L 35.695312 219.195312 L 35.703125 219.140625 L 35.714844 218.976562 Z M 36.152344 222.324219 L 36.152344 222.253906 L 36.148438 222.183594 L 36.132812 222.050781 L 36.117188 221.988281 L 36.105469 221.929688 L 36.085938 221.871094 L 36.066406 221.816406 L 36.042969 221.761719 L 36.019531 221.710938 L 35.992188 221.660156 L 35.929688 221.566406 L 35.894531 221.519531 L 35.859375 221.480469 L 35.820312 221.4375 L 35.777344 221.398438 L 35.734375 221.363281 L 35.640625 221.292969 L 35.589844 221.261719 L 35.535156 221.234375 L 35.480469 221.203125 L 35.425781 221.179688 L 35.367188 221.152344 L 35.304688 221.132812 L 35.242188 221.109375 L 35.179688 221.089844 L 35.109375 221.074219 L 35.042969 221.058594 L 34.972656 221.042969 L 34.902344 221.03125 L 34.753906 221.007812 L 34.597656 220.992188 L 34.433594 220.984375 L 34.351562 220.984375 L 34.265625 220.980469 L 32.347656 220.980469 L 32.347656 223.71875 L 34.5 223.71875 L 34.578125 223.714844 L 34.652344 223.710938 L 34.722656 223.703125 L 34.796875 223.695312 L 34.867188 223.6875 L 34.933594 223.679688 L 35.003906 223.667969 L 35.070312 223.65625 L 35.136719 223.640625 L 35.261719 223.609375 L 35.320312 223.589844 L 35.378906 223.566406 L 35.433594 223.542969 L 35.542969 223.488281 L 35.59375 223.460938 L 35.640625 223.429688 L 35.734375 223.359375 L 35.777344 223.320312 L 35.855469 223.242188 L 35.894531 223.195312 L 35.925781 223.148438 L 35.960938 223.101562 L 35.988281 223.050781 L 36.019531 222.996094 L 36.042969 222.941406 L 36.066406 222.882812 L 36.085938 222.824219 L 36.105469 222.761719 L 36.117188 222.695312 L 36.132812 222.625 L 36.140625 222.554688 L 36.148438 222.480469 L 36.152344 222.402344 Z M 36.152344 222.324219 "/>
<path style=" stroke:none;fill-rule:nonzero;fill:rgb(69.803922%,13.333333%,13.333333%);fill-opacity:1;" d="M 71.285156 144.878906 L 71.171875 144.820312 L 71.058594 144.769531 L 70.945312 144.722656 L 70.832031 144.679688 L 70.71875 144.644531 L 70.609375 144.613281 L 70.496094 144.585938 L 70.386719 144.5625 L 70.277344 144.546875 L 70.167969 144.535156 L 70.058594 144.53125 L 69.953125 144.53125 L 69.847656 144.535156 L 69.746094 144.542969 L 69.640625 144.554688 L 69.539062 144.574219 L 69.4375 144.597656 L 69.339844 144.625 L 69.238281 144.65625 L 69.140625 144.691406 L 69.046875 144.734375 L 68.953125 144.78125 L 68.859375 144.832031 L 68.769531 144.886719 L 68.679688 144.945312 L 68.589844 145.007812 L 68.503906 145.078125 L 68.414062 145.148438 L 68.332031 145.226562 L 68.246094 145.308594 L 68.167969 145.390625 L 68.085938 145.480469 L 68.007812 145.574219 L 67.859375 145.769531 L 67.785156 145.875 L 67.714844 145.984375 L 67.648438 146.09375 L 67.515625 146.328125 L 67.453125 146.449219 L 67.34375 146.691406 L 67.296875 146.8125 L 67.253906 146.929688 L 67.210938 147.050781 L 67.175781 147.171875 L 67.144531 147.289062 L 67.117188 147.40625 L 67.09375 147.527344 L 67.078125 147.644531 L 67.066406 147.757812 L 67.054688 147.875 L 67.050781 147.988281 L 67.050781 148.097656 L 67.054688 148.210938 L 67.0625 148.320312 L 67.09375 148.53125 L 67.113281 148.636719 L 67.140625 148.742188 L 67.171875 148.84375 L 67.207031 148.945312 L 67.246094 149.042969 L 67.289062 149.140625 L 67.335938 149.234375 L 67.445312 149.421875 L 67.507812 149.507812 L 67.574219 149.597656 L 67.644531 149.683594 L 67.71875 149.765625 L 67.796875 149.847656 L 67.96875 149.996094 L 68.0625 150.070312 L 68.160156 150.136719 L 68.261719 150.203125 L 68.363281 150.265625 L 68.476562 150.328125 L 68.550781 150.367188 L 68.707031 150.4375 L 68.785156 150.46875 L 68.859375 150.496094 L 68.9375 150.523438 L 69.011719 150.546875 L 69.089844 150.566406 L 69.164062 150.585938 L 69.3125 150.609375 L 69.390625 150.621094 L 69.464844 150.628906 L 69.613281 150.636719 L 69.683594 150.636719 L 69.832031 150.628906 L 69.972656 150.613281 L 70.046875 150.601562 L 70.117188 150.589844 L 70.328125 150.542969 L 70.398438 150.519531 L 70.46875 150.5 L 70.535156 150.472656 L 70.605469 150.449219 L 70.671875 150.421875 L 70.738281 150.390625 L 70.808594 150.355469 L 70.875 150.324219 L 70.941406 150.289062 L 71.074219 150.210938 L 71.136719 150.171875 L 71.269531 150.085938 L 71.332031 150.042969 L 71.882812 150.804688 L 71.726562 150.914062 L 71.570312 151.015625 L 71.40625 151.109375 L 71.320312 151.152344 L 71.238281 151.195312 L 71.066406 151.273438 L 70.976562 151.308594 L 70.796875 151.371094 L 70.707031 151.398438 L 70.613281 151.421875 L 70.523438 151.445312 L 70.425781 151.464844 L 70.332031 151.480469 L 70.238281 151.492188 L 70.140625 151.503906 L 69.945312 151.519531 L 69.746094 151.519531 L 69.542969 151.511719 L 69.4375 151.5 L 69.335938 151.488281 L 69.230469 151.472656 L 69.125 151.453125 L 69.019531 151.429688 L 68.808594 151.375 L 68.699219 151.339844 L 68.589844 151.300781 L 68.484375 151.257812 L 68.371094 151.214844 L 68.261719 151.164062 L 68.152344 151.109375 L 68.039062 151.054688 L 67.878906 150.964844 L 67.726562 150.875 L 67.578125 150.78125 L 67.4375 150.6875 L 67.304688 150.585938 L 67.179688 150.484375 L 67.058594 150.378906 L 66.839844 150.160156 L 66.742188 150.042969 L 66.648438 149.925781 L 66.566406 149.808594 L 66.484375 149.683594 L 66.410156 149.5625 L 66.34375 149.4375 L 66.28125 149.308594 L 66.226562 149.179688 L 66.175781 149.046875 L 66.132812 148.914062 L 66.097656 148.78125 L 66.066406 148.640625 L 66.042969 148.503906 L 66.023438 148.363281 L 66.011719 148.222656 L 66.003906 148.082031 L 66.003906 147.9375 L 66.011719 147.792969 L 66.019531 147.644531 L 66.039062 147.5 L 66.0625 147.347656 L 66.089844 147.199219 L 66.125 147.050781 L 66.164062 146.898438 L 66.210938 146.75 L 66.257812 146.597656 L 66.316406 146.449219 L 66.375 146.296875 L 66.441406 146.144531 L 66.511719 145.996094 L 66.589844 145.84375 L 66.675781 145.6875 L 66.761719 145.539062 L 66.851562 145.394531 L 66.941406 145.253906 L 67.039062 145.121094 L 67.136719 144.992188 L 67.234375 144.871094 L 67.339844 144.753906 L 67.445312 144.640625 L 67.550781 144.535156 L 67.664062 144.433594 L 67.777344 144.335938 L 67.890625 144.25 L 68.007812 144.164062 L 68.128906 144.085938 L 68.25 144.015625 L 68.371094 143.949219 L 68.496094 143.890625 L 68.625 143.835938 L 68.753906 143.789062 L 68.882812 143.746094 L 69.019531 143.710938 L 69.152344 143.679688 L 69.289062 143.65625 L 69.429688 143.636719 L 69.570312 143.625 L 69.710938 143.621094 L 69.851562 143.621094 L 70 143.628906 L 70.144531 143.640625 L 70.292969 143.660156 L 70.441406 143.6875 L 70.589844 143.71875 L 70.742188 143.757812 L 70.894531 143.800781 L 71.046875 143.855469 L 71.199219 143.914062 L 71.355469 143.980469 L 71.511719 144.050781 L 71.664062 144.128906 L 71.875 144.246094 L 72.074219 144.363281 L 72.257812 144.488281 L 72.433594 144.617188 L 72.597656 144.753906 L 72.75 144.890625 L 72.886719 145.035156 L 73.015625 145.183594 L 73.132812 145.335938 L 73.238281 145.492188 L 73.335938 145.652344 L 73.417969 145.820312 L 73.488281 145.988281 L 73.546875 146.164062 L 73.589844 146.339844 L 73.625 146.523438 L 73.648438 146.710938 L 73.660156 146.902344 L 73.660156 147.09375 L 73.644531 147.292969 L 72.632812 147.125 L 72.636719 147.070312 L 72.640625 147.011719 L 72.640625 146.953125 L 72.644531 146.894531 L 72.640625 146.835938 L 72.640625 146.777344 L 72.632812 146.71875 L 72.628906 146.65625 L 72.613281 146.539062 L 72.601562 146.476562 L 72.589844 146.417969 L 72.574219 146.355469 L 72.558594 146.296875 L 72.539062 146.234375 L 72.46875 146.058594 L 72.4375 145.996094 L 72.410156 145.9375 L 72.375 145.878906 L 72.34375 145.820312 L 72.304688 145.761719 L 72.265625 145.707031 L 72.222656 145.648438 L 72.179688 145.59375 L 72.132812 145.535156 L 72.03125 145.425781 L 71.921875 145.316406 L 71.863281 145.265625 L 71.800781 145.210938 L 71.734375 145.160156 L 71.667969 145.113281 L 71.597656 145.0625 L 71.523438 145.015625 L 71.445312 144.96875 L 71.367188 144.925781 Z M 71.285156 144.878906 "/>
<path style=" stroke:none;fill-rule:nonzero;fill:rgb(69.803922%,13.333333%,13.333333%);fill-opacity:1;" d="M 112.449219 134.898438 L 112.324219 135.039062 L 112.195312 135.171875 L 112.066406 135.292969 L 111.9375 135.410156 L 111.804688 135.523438 L 111.671875 135.625 L 111.535156 135.71875 L 111.398438 135.808594 L 111.261719 135.890625 L 111.125 135.964844 L 110.984375 136.03125 L 110.847656 136.09375 L 110.707031 136.148438 L 110.570312 136.195312 L 110.429688 136.238281 L 110.292969 136.273438 L 110.152344 136.304688 L 110.011719 136.328125 L 109.875 136.34375 L 109.734375 136.355469 L 109.597656 136.359375 L 109.457031 136.355469 L 109.320312 136.347656 L 109.183594 136.335938 L 109.046875 136.316406 L 108.910156 136.289062 L 108.773438 136.257812 L 108.636719 136.222656 L 108.5 136.179688 L 108.367188 136.128906 L 108.234375 136.074219 L 108.101562 136.015625 L 107.972656 135.949219 L 107.84375 135.878906 L 107.71875 135.804688 L 107.59375 135.722656 L 107.46875 135.636719 L 107.347656 135.546875 L 107.230469 135.449219 L 107.113281 135.347656 L 104.984375 133.464844 L 110.023438 127.78125 L 111.902344 129.445312 L 112.03125 129.5625 L 112.15625 129.683594 L 112.273438 129.800781 L 112.386719 129.925781 L 112.496094 130.046875 L 112.601562 130.171875 L 112.699219 130.296875 L 112.792969 130.425781 L 112.882812 130.554688 L 112.964844 130.683594 L 113.046875 130.816406 L 113.1875 131.082031 L 113.246094 131.214844 L 113.300781 131.347656 L 113.347656 131.484375 L 113.390625 131.621094 L 113.425781 131.757812 L 113.453125 131.894531 L 113.476562 132.035156 L 113.492188 132.175781 L 113.5 132.3125 L 113.503906 132.453125 L 113.5 132.59375 L 113.488281 132.734375 L 113.472656 132.878906 L 113.445312 133.019531 L 113.414062 133.160156 L 113.375 133.304688 L 113.332031 133.449219 L 113.28125 133.59375 L 113.21875 133.738281 L 113.152344 133.882812 L 113.074219 134.03125 L 112.992188 134.175781 L 112.898438 134.320312 L 112.800781 134.464844 L 112.691406 134.609375 L 112.574219 134.753906 Z M 111.675781 134.214844 L 111.773438 134.097656 L 111.867188 133.984375 L 111.953125 133.871094 L 112.035156 133.757812 L 112.175781 133.53125 L 112.234375 133.417969 L 112.289062 133.304688 L 112.339844 133.195312 L 112.382812 133.082031 L 112.417969 132.972656 L 112.449219 132.859375 L 112.476562 132.75 L 112.5 132.640625 L 112.515625 132.53125 L 112.523438 132.425781 L 112.53125 132.316406 L 112.53125 132.210938 L 112.515625 132 L 112.5 131.894531 L 112.453125 131.683594 L 112.421875 131.582031 L 112.386719 131.480469 L 112.347656 131.378906 L 112.304688 131.277344 L 112.253906 131.179688 L 112.199219 131.082031 L 112.140625 130.980469 L 112.078125 130.882812 L 112.011719 130.785156 L 111.941406 130.691406 L 111.867188 130.597656 L 111.789062 130.503906 L 111.707031 130.410156 L 111.621094 130.316406 L 111.53125 130.226562 L 111.4375 130.136719 L 111.339844 130.050781 L 110.246094 129.082031 L 106.304688 133.53125 L 107.570312 134.652344 L 107.660156 134.730469 L 107.75 134.804688 L 107.9375 134.9375 L 108.03125 135 L 108.226562 135.109375 L 108.324219 135.15625 L 108.527344 135.242188 L 108.628906 135.277344 L 108.730469 135.308594 L 108.835938 135.335938 L 108.9375 135.359375 L 109.148438 135.390625 L 109.253906 135.398438 L 109.359375 135.402344 L 109.464844 135.402344 L 109.675781 135.386719 L 109.78125 135.371094 L 109.890625 135.347656 L 109.996094 135.324219 L 110.101562 135.292969 L 110.210938 135.257812 L 110.316406 135.21875 L 110.425781 135.171875 L 110.53125 135.121094 L 110.636719 135.066406 L 110.746094 135.007812 L 110.851562 134.941406 L 110.957031 134.871094 L 111.0625 134.792969 L 111.164062 134.710938 L 111.269531 134.621094 L 111.371094 134.527344 L 111.472656 134.429688 L 111.574219 134.324219 Z M 111.675781 134.214844 "/>
<path style=" stroke:none;fill-rule:nonzero;fill:rgb(69.803922%,13.333333%,13.333333%);fill-opacity:1;" d="M 105.039062 76.484375 L 111.289062 72.167969 L 114.5625 76.910156 L 113.871094 77.386719 L 111.183594 73.492188 L 109.179688 74.878906 L 111.683594 78.507812 L 111 78.976562 L 108.496094 75.347656 L 106.316406 76.851562 L 109.132812 80.929688 L 108.4375 81.40625 Z M 105.039062 76.484375 "/>
<path style=" stroke:none;fill-rule:nonzero;fill:rgb(27.45098%,50.980392%,70.588235%);fill-opacity:1;" d="M 190.921875 45.410156 L 188.117188 45.75 L 188.628906 49.957031 L 187.78125 50.058594 L 187.273438 45.851562 L 184.214844 46.222656 L 184.09375 45.203125 L 191.632812 44.285156 L 192.28125 49.644531 L 191.449219 49.746094 Z M 190.921875 45.410156 "/>
<path style=" stroke:none;fill-rule:nonzero;fill:rgb(27.45098%,50.980392%,70.588235%);fill-opacity:1;" d="M 135.542969 26.34375 L 135.707031 26.285156 L 135.871094 26.230469 L 136.035156 26.179688 L 136.195312 26.136719 L 136.355469 26.101562 L 136.511719 26.066406 L 136.824219 26.019531 L 137.128906 25.996094 L 137.425781 25.996094 L 137.574219 26.007812 L 137.714844 26.023438 L 137.855469 26.042969 L 137.992188 26.070312 L 138.128906 26.101562 L 138.261719 26.140625 L 138.394531 26.183594 L 138.523438 26.234375 L 138.648438 26.292969 L 138.773438 26.355469 L 138.894531 26.421875 L 139.015625 26.496094 L 139.132812 26.578125 L 139.246094 26.664062 L 139.355469 26.757812 L 139.460938 26.855469 L 139.566406 26.957031 L 139.769531 27.183594 L 139.863281 27.304688 L 139.957031 27.433594 L 140.046875 27.570312 L 140.132812 27.707031 L 140.214844 27.855469 L 140.292969 28.007812 L 140.367188 28.167969 L 140.4375 28.332031 L 140.507812 28.503906 L 140.554688 28.632812 L 140.597656 28.761719 L 140.640625 28.886719 L 140.710938 29.128906 L 140.742188 29.246094 L 140.769531 29.363281 L 140.792969 29.476562 L 140.8125 29.585938 L 140.828125 29.695312 L 140.839844 29.804688 L 140.847656 29.90625 L 140.855469 30.011719 L 140.859375 30.113281 L 140.859375 30.308594 L 140.84375 30.496094 L 140.832031 30.589844 L 140.820312 30.679688 L 140.800781 30.769531 L 140.78125 30.855469 L 140.757812 30.941406 L 140.734375 31.023438 L 140.707031 31.105469 L 140.675781 31.1875 L 140.605469 31.34375 L 140.566406 31.421875 L 140.480469 31.570312 L 140.386719 31.710938 L 140.285156 31.851562 L 140.230469 31.921875 L 140.054688 32.121094 L 139.988281 32.1875 L 139.371094 31.375 L 139.410156 31.328125 L 139.453125 31.28125 L 139.492188 31.230469 L 139.527344 31.183594 L 139.566406 31.132812 L 139.597656 31.082031 L 139.632812 31.03125 L 139.695312 30.929688 L 139.722656 30.875 L 139.753906 30.824219 L 139.777344 30.769531 L 139.804688 30.710938 L 139.828125 30.65625 L 139.867188 30.539062 L 139.882812 30.480469 L 139.898438 30.417969 L 139.921875 30.292969 L 139.933594 30.226562 L 139.941406 30.164062 L 139.945312 30.097656 L 139.949219 30.027344 L 139.949219 29.886719 L 139.941406 29.746094 L 139.933594 29.671875 L 139.921875 29.59375 L 139.914062 29.519531 L 139.902344 29.441406 L 139.886719 29.363281 L 139.867188 29.285156 L 139.847656 29.203125 L 139.824219 29.121094 L 139.800781 29.035156 L 139.773438 28.949219 L 139.710938 28.777344 L 139.660156 28.648438 L 139.609375 28.527344 L 139.550781 28.410156 L 139.433594 28.191406 L 139.367188 28.089844 L 139.300781 27.992188 L 139.230469 27.898438 L 139.160156 27.8125 L 139.082031 27.730469 L 139.007812 27.652344 L 138.925781 27.578125 L 138.84375 27.511719 L 138.761719 27.449219 L 138.675781 27.386719 L 138.585938 27.332031 L 138.496094 27.285156 L 138.402344 27.238281 L 138.308594 27.195312 L 138.210938 27.160156 L 138.113281 27.128906 L 138.011719 27.101562 L 137.90625 27.078125 L 137.800781 27.058594 L 137.695312 27.042969 L 137.585938 27.03125 L 137.367188 27.023438 L 137.25 27.027344 L 137.136719 27.03125 L 137.019531 27.042969 L 136.902344 27.058594 L 136.78125 27.078125 L 136.660156 27.101562 L 136.539062 27.128906 L 136.417969 27.160156 L 136.292969 27.195312 L 136.167969 27.234375 L 136.042969 27.277344 L 135.914062 27.324219 L 135.789062 27.371094 L 135.664062 27.425781 L 135.429688 27.535156 L 135.316406 27.597656 L 135.207031 27.660156 L 135.101562 27.722656 L 134.996094 27.792969 L 134.800781 27.933594 L 134.710938 28.007812 L 134.625 28.085938 L 134.542969 28.164062 L 134.460938 28.246094 L 134.386719 28.328125 L 134.316406 28.414062 L 134.25 28.5 L 134.1875 28.589844 L 134.128906 28.683594 L 134.074219 28.777344 L 134.023438 28.871094 L 133.976562 28.96875 L 133.9375 29.066406 L 133.902344 29.167969 L 133.871094 29.273438 L 133.84375 29.378906 L 133.820312 29.484375 L 133.789062 29.703125 L 133.78125 29.816406 L 133.777344 29.929688 L 133.78125 30.046875 L 133.789062 30.164062 L 133.804688 30.28125 L 133.820312 30.402344 L 133.847656 30.523438 L 133.875 30.648438 L 133.910156 30.769531 L 133.953125 30.898438 L 133.996094 31.023438 L 134.03125 31.105469 L 134.0625 31.1875 L 134.132812 31.34375 L 134.203125 31.492188 L 134.242188 31.566406 L 134.28125 31.632812 L 134.320312 31.703125 L 134.359375 31.769531 L 134.402344 31.832031 L 134.441406 31.894531 L 134.484375 31.957031 L 134.527344 32.015625 L 134.566406 32.074219 L 134.652344 32.183594 L 134.78125 32.335938 L 134.828125 32.382812 L 134.871094 32.429688 L 134.917969 32.472656 L 135.003906 32.558594 L 135.050781 32.597656 L 135.136719 32.675781 L 135.183594 32.710938 L 135.355469 32.835938 L 135.441406 32.890625 L 135.484375 32.914062 L 135.523438 32.9375 L 135.566406 32.960938 L 135.644531 33 L 136.925781 32.511719 L 136.121094 30.390625 L 136.925781 30.085938 L 138.070312 33.09375 L 135.617188 34.023438 L 135.417969 33.929688 L 135.351562 33.894531 L 135.285156 33.855469 L 135.214844 33.816406 L 135.082031 33.730469 L 135.011719 33.6875 L 134.941406 33.640625 L 134.875 33.59375 L 134.808594 33.542969 L 134.742188 33.488281 L 134.675781 33.4375 L 134.609375 33.378906 L 134.546875 33.320312 L 134.480469 33.261719 L 134.417969 33.199219 L 134.351562 33.136719 L 134.289062 33.070312 L 134.101562 32.859375 L 134.042969 32.785156 L 133.980469 32.710938 L 133.921875 32.628906 L 133.863281 32.550781 L 133.808594 32.46875 L 133.75 32.382812 L 133.695312 32.296875 L 133.640625 32.207031 L 133.589844 32.117188 L 133.535156 32.027344 L 133.488281 31.929688 L 133.4375 31.835938 L 133.390625 31.734375 L 133.34375 31.636719 L 133.214844 31.320312 L 133.152344 31.140625 L 133.09375 30.964844 L 133.042969 30.792969 L 133 30.621094 L 132.964844 30.453125 L 132.9375 30.289062 L 132.914062 30.125 L 132.902344 29.964844 L 132.894531 29.804688 L 132.894531 29.648438 L 132.902344 29.496094 L 132.914062 29.34375 L 132.933594 29.195312 L 132.960938 29.050781 L 132.992188 28.910156 L 133.027344 28.769531 L 133.070312 28.632812 L 133.121094 28.5 L 133.175781 28.367188 L 133.234375 28.242188 L 133.375 27.992188 L 133.453125 27.875 L 133.539062 27.757812 L 133.628906 27.644531 L 133.722656 27.535156 L 133.820312 27.429688 L 133.925781 27.324219 L 134.035156 27.222656 L 134.152344 27.125 L 134.269531 27.03125 L 134.394531 26.941406 L 134.523438 26.855469 L 134.65625 26.773438 L 134.792969 26.691406 L 135.082031 26.542969 L 135.230469 26.472656 L 135.386719 26.40625 Z M 135.542969 26.34375 "/>
</g>
</svg>
