<?xml version="1.0" encoding="UTF-8"?>
<svg xmlns="http://www.w3.org/2000/svg" xmlns:xlink="http://www.w3.org/1999/xlink" width="576pt" height="288pt" viewBox="0 0 576 288" version="1.1">
<defs>
<clipPath id="clip1">
  <path d="M 5.480469 5.480469 L 288 5.480469 L 288 282.523438 L 5.480469 282.523438 Z M 5.480469 5.480469 "/>
</clipPath>
<clipPath id="clip2">
  <path d="M 23.035156 23.496094 L 282.519531 23.496094 L 282.519531 274.300781 L 23.035156 274.300781 Z M 23.035156 23.496094 "/>
</clipPath>
<clipPath id="clip3">
  <path d="M 288 5.480469 L 570.519531 5.480469 L 570.519531 282.523438 L 288 282.523438 Z M 288 5.480469 "/>
</clipPath>
<clipPath id="clip4">
  <path d="M 305.558594 23.496094 L 565.042969 23.496094 L 565.042969 274.300781 L 305.558594 274.300781 Z M 305.558594 23.496094 "/>
</clipPath>
</defs>
<g id="surface176">
<rect x="0" y="0" width="576" height="288" style="fill:rgb(100%,100%,100%);fill-opacity:1;stroke:none;"/>
<rect x="0" y="0" width="576" height="288" style="fill:rgb(100%,100%,100%);fill-opacity:1;stroke:none;"/>
<path style="fill:none;stroke-width:1.066978;stroke-linecap:round;stroke-linejoin:round;stroke:rgb(100%,100%,100%);stroke-opacity:1;stroke-miterlimit:10;" d="M 0 288 L 576 288 L 576 0 L 0 0 Z M 0 288 "/>
<g clip-path="url(#clip1)" clip-rule="nonzero">
<path style="fill-rule:nonzero;fill:rgb(100%,100%,100%);fill-opacity:1;stroke-width:1.066978;stroke-linecap:round;stroke-linejoin:round;stroke:rgb(100%,100%,100%);stroke-opacity:1;stroke-miterlimit:10;" d="M 5.480469 282.519531 L 288 282.519531 L 288 5.476562 L 5.480469 5.476562 Z M 5.480469 282.519531 "/>
</g>
<g clip-path="url(#clip2)" clip-rule="nonzero">
<path style="fill-rule:nonzero;fill:rgb(100%,100%,100%);fill-opacity:1;stroke-width:1.066978;stroke-linecap:round;stroke-linejoin:round;stroke:rgb(100%,100%,100%);stroke-opacity:1;stroke-miterlimit:10;" d="M 23.035156 274.300781 L 282.519531 274.300781 L 282.519531 23.496094 L 23.035156 23.496094 Z M 23.035156 274.300781 "/>
</g>
<path style="fill:none;stroke-width:1.066978;stroke-linecap:round;stroke-linejoin:round;stroke:rgb(49.803922%,49.803922%,49.803922%);stroke-opacity:1;stroke-miterlimit:10;" d="M 191.3125 209.578125 L 269.550781 209.578125 "/>
<path style="fill:none;stroke-width:1.066978;stroke-linecap:round;stroke-linejoin:round;stroke:rgb(49.803922%,49.803922%,49.803922%);stroke-opacity:1;stroke-miterlimit:10;" d="M 191.3125 169.125 L 269.550781 169.125 "/>
<path style="fill:none;stroke-width:1.066978;stroke-linecap:round;stroke-linejoin:round;stroke:rgb(49.803922%,49.803922%,49.803922%);stroke-opacity:1;stroke-miterlimit:10;" d="M 113.070312 128.671875 L 269.550781 128.671875 "/>
<path style="fill:none;stroke-width:1.066978;stroke-linecap:round;stroke-linejoin:round;stroke:rgb(49.803922%,49.803922%,49.803922%);stroke-opacity:1;stroke-miterlimit:10;" d="M 191.3125 88.21875 L 269.550781 88.21875 "/>
<path style="fill:none;stroke-width:1.066978;stroke-linecap:round;stroke-linejoin:round;stroke:rgb(49.803922%,49.803922%,49.803922%);stroke-opacity:1;stroke-miterlimit:10;" d="M 191.3125 47.765625 L 269.550781 47.765625 "/>
<path style="fill:none;stroke-width:1.066978;stroke-linecap:round;stroke-linejoin:round;stroke:rgb(49.803922%,49.803922%,49.803922%);stroke-opacity:1;stroke-miterlimit:10;" d="M 34.832031 250.03125 L 269.550781 250.03125 "/>
<path style="fill:none;stroke-width:1.066978;stroke-linecap:round;stroke-linejoin:round;stroke:rgb(49.803922%,49.803922%,49.803922%);stroke-opacity:1;stroke-miterlimit:10;" d="M 34.832031 179.238281 L 34.832031 179.238281 "/>
<path style="fill:none;stroke-width:1.066978;stroke-linecap:round;stroke-linejoin:round;stroke:rgb(100%,0%,0%);stroke-opacity:1;stroke-miterlimit:10;" d="M 34.832031 189.351562 L 191.3125 189.351562 "/>
<path style="fill:none;stroke-width:1.066978;stroke-linecap:round;stroke-linejoin:round;stroke:rgb(0%,0%,100%);stroke-opacity:1;stroke-miterlimit:10;" d="M 34.832031 98.332031 L 113.070312 98.332031 "/>
<path style="fill:none;stroke-width:1.066978;stroke-linecap:round;stroke-linejoin:round;stroke:rgb(100%,64.705882%,0%);stroke-opacity:1;stroke-miterlimit:10;" d="M 113.070312 67.992188 L 191.3125 67.992188 "/>
<path style="fill:none;stroke-width:1.066978;stroke-linecap:round;stroke-linejoin:round;stroke:rgb(49.803922%,49.803922%,49.803922%);stroke-opacity:1;stroke-miterlimit:10;" d="M 191.3125 189.351562 L 191.3125 209.578125 "/>
<path style="fill:none;stroke-width:1.066978;stroke-linecap:round;stroke-linejoin:round;stroke:rgb(49.803922%,49.803922%,49.803922%);stroke-opacity:1;stroke-miterlimit:10;" d="M 191.3125 189.351562 L 191.3125 169.125 "/>
<path style="fill:none;stroke-width:1.066978;stroke-linecap:round;stroke-linejoin:round;stroke:rgb(49.803922%,49.803922%,49.803922%);stroke-opacity:1;stroke-miterlimit:10;" d="M 113.070312 98.332031 L 113.070312 128.671875 "/>
<path style="fill:none;stroke-width:1.066978;stroke-linecap:round;stroke-linejoin:round;stroke:rgb(49.803922%,49.803922%,49.803922%);stroke-opacity:1;stroke-miterlimit:10;" d="M 191.3125 67.992188 L 191.3125 88.21875 "/>
<path style="fill:none;stroke-width:1.066978;stroke-linecap:round;stroke-linejoin:round;stroke:rgb(49.803922%,49.803922%,49.803922%);stroke-opacity:1;stroke-miterlimit:10;" d="M 191.3125 67.992188 L 191.3125 47.765625 "/>
<path style="fill:none;stroke-width:1.066978;stroke-linecap:round;stroke-linejoin:round;stroke:rgb(49.803922%,49.803922%,49.803922%);stroke-opacity:1;stroke-miterlimit:10;" d="M 34.832031 179.238281 L 34.832031 250.03125 "/>
<path style="fill:none;stroke-width:1.066978;stroke-linecap:round;stroke-linejoin:round;stroke:rgb(49.803922%,49.803922%,49.803922%);stroke-opacity:1;stroke-miterlimit:10;" d="M 34.832031 179.238281 L 34.832031 179.238281 "/>
<path style="fill:none;stroke-width:1.066978;stroke-linecap:round;stroke-linejoin:round;stroke:rgb(100%,0%,0%);stroke-opacity:1;stroke-miterlimit:10;" d="M 34.832031 179.238281 L 34.832031 189.351562 "/>
<path style="fill:none;stroke-width:1.066978;stroke-linecap:round;stroke-linejoin:round;stroke:rgb(0%,0%,100%);stroke-opacity:1;stroke-miterlimit:10;" d="M 34.832031 179.238281 L 34.832031 98.332031 "/>
<path style="fill:none;stroke-width:1.066978;stroke-linecap:round;stroke-linejoin:round;stroke:rgb(100%,64.705882%,0%);stroke-opacity:1;stroke-miterlimit:10;" d="M 113.070312 98.332031 L 113.070312 67.992188 "/>
<path style=" stroke:none;fill-rule:nonzero;fill:rgb(49.803922%,49.803922%,49.803922%);fill-opacity:1;" d="M 274.996094 206.507812 L 274.867188 206.507812 L 274.742188 206.515625 L 274.621094 206.527344 L 274.5 206.542969 L 274.382812 206.5625 L 274.269531 206.585938 L 274.160156 206.613281 L 274.054688 206.644531 L 273.949219 206.683594 L 273.847656 206.722656 L 273.75 206.769531 L 273.65625 206.816406 L 273.5625 206.867188 L 273.390625 206.984375 L 273.308594 207.046875 L 273.230469 207.113281 L 273.152344 207.183594 L 273.082031 207.257812 L 273.011719 207.335938 L 272.945312 207.417969 L 272.882812 207.503906 L 272.824219 207.589844 L 272.769531 207.683594 L 272.71875 207.777344 L 272.667969 207.875 L 272.621094 207.976562 L 272.582031 208.078125 L 272.539062 208.1875 L 272.503906 208.296875 L 272.472656 208.410156 L 272.441406 208.527344 L 272.417969 208.644531 L 272.394531 208.765625 L 272.375 208.890625 L 272.359375 209.015625 L 272.347656 209.144531 L 272.339844 209.273438 L 272.332031 209.40625 L 272.332031 209.542969 L 272.335938 209.679688 L 272.339844 209.8125 L 272.347656 209.941406 L 272.378906 210.199219 L 272.398438 210.324219 L 272.421875 210.445312 L 272.449219 210.566406 L 272.480469 210.683594 L 272.515625 210.796875 L 272.554688 210.910156 L 272.597656 211.019531 L 272.644531 211.125 L 272.691406 211.226562 L 272.742188 211.324219 L 272.796875 211.421875 L 272.855469 211.515625 L 272.917969 211.605469 L 272.980469 211.691406 L 273.121094 211.855469 L 273.195312 211.929688 L 273.273438 212.003906 L 273.355469 212.074219 L 273.4375 212.136719 L 273.523438 212.199219 L 273.613281 212.257812 L 273.707031 212.3125 L 273.800781 212.363281 L 273.902344 212.410156 L 274.003906 212.453125 L 274.109375 212.492188 L 274.214844 212.527344 L 274.324219 212.554688 L 274.4375 212.578125 L 274.554688 212.601562 L 274.671875 212.617188 L 274.789062 212.628906 L 275.039062 212.636719 L 275.125 212.636719 L 275.210938 212.632812 L 275.296875 212.625 L 275.460938 212.609375 L 275.539062 212.597656 L 275.617188 212.582031 L 275.695312 212.5625 L 275.769531 212.542969 L 275.839844 212.523438 L 275.914062 212.5 L 276.054688 212.445312 L 276.1875 212.382812 L 276.253906 212.347656 L 276.316406 212.3125 L 276.441406 212.234375 L 276.5 212.195312 L 276.558594 212.152344 L 276.613281 212.105469 L 276.671875 212.0625 L 276.726562 212.015625 L 276.78125 211.964844 L 276.882812 211.863281 L 276.933594 211.808594 L 277.027344 211.699219 L 277.074219 211.640625 L 277.117188 211.578125 L 277.160156 211.519531 L 277.246094 211.394531 L 277.363281 211.195312 L 277.402344 211.125 L 277.4375 211.058594 L 278.277344 211.476562 L 278.234375 211.5625 L 278.191406 211.644531 L 278.097656 211.808594 L 278.046875 211.886719 L 277.996094 211.96875 L 277.945312 212.042969 L 277.886719 212.121094 L 277.832031 212.195312 L 277.769531 212.269531 L 277.710938 212.34375 L 277.644531 212.414062 L 277.582031 212.480469 L 277.441406 212.613281 L 277.371094 212.675781 L 277.296875 212.734375 L 277.140625 212.851562 L 277.058594 212.90625 L 276.894531 213.007812 L 276.808594 213.058594 L 276.71875 213.105469 L 276.628906 213.148438 L 276.535156 213.1875 L 276.339844 213.265625 L 276.238281 213.300781 L 276.136719 213.332031 L 276.035156 213.359375 L 275.929688 213.386719 L 275.820312 213.410156 L 275.707031 213.429688 L 275.59375 213.445312 L 275.480469 213.457031 L 275.359375 213.46875 L 275.238281 213.476562 L 275.117188 213.480469 L 274.988281 213.484375 L 274.808594 213.480469 L 274.628906 213.472656 L 274.457031 213.457031 L 274.289062 213.4375 L 274.125 213.410156 L 273.964844 213.378906 L 273.808594 213.339844 L 273.660156 213.296875 L 273.515625 213.246094 L 273.371094 213.191406 L 273.238281 213.128906 L 273.105469 213.0625 L 272.976562 212.992188 L 272.855469 212.917969 L 272.738281 212.839844 L 272.625 212.753906 L 272.515625 212.664062 L 272.410156 212.574219 L 272.308594 212.476562 L 272.214844 212.371094 L 272.125 212.265625 L 272.039062 212.152344 L 271.957031 212.039062 L 271.878906 211.917969 L 271.808594 211.796875 L 271.742188 211.667969 L 271.679688 211.539062 L 271.621094 211.402344 L 271.566406 211.265625 L 271.472656 210.976562 L 271.433594 210.828125 L 271.398438 210.675781 L 271.371094 210.523438 L 271.34375 210.367188 L 271.324219 210.207031 L 271.308594 210.042969 L 271.296875 209.878906 L 271.289062 209.710938 L 271.285156 209.542969 L 271.289062 209.367188 L 271.296875 209.195312 L 271.308594 209.023438 L 271.324219 208.859375 L 271.347656 208.695312 L 271.375 208.539062 L 271.40625 208.382812 L 271.441406 208.230469 L 271.484375 208.082031 L 271.527344 207.9375 L 271.582031 207.792969 L 271.636719 207.65625 L 271.699219 207.523438 L 271.761719 207.398438 L 271.832031 207.273438 L 271.90625 207.152344 L 271.984375 207.039062 L 272.066406 206.925781 L 272.15625 206.820312 L 272.246094 206.71875 L 272.34375 206.617188 L 272.445312 206.523438 L 272.550781 206.433594 L 272.660156 206.351562 L 272.773438 206.269531 L 272.894531 206.195312 L 273.015625 206.125 L 273.144531 206.058594 L 273.273438 205.996094 L 273.410156 205.941406 L 273.550781 205.890625 L 273.695312 205.84375 L 273.839844 205.800781 L 273.992188 205.765625 L 274.148438 205.734375 L 274.308594 205.710938 L 274.472656 205.691406 L 274.636719 205.675781 L 274.808594 205.667969 L 274.984375 205.667969 L 275.222656 205.671875 L 275.453125 205.6875 L 275.675781 205.710938 L 275.890625 205.742188 L 276.097656 205.785156 L 276.296875 205.835938 L 276.488281 205.898438 L 276.667969 205.96875 L 276.84375 206.050781 L 277.011719 206.140625 L 277.167969 206.242188 L 277.320312 206.347656 L 277.460938 206.46875 L 277.59375 206.59375 L 277.71875 206.730469 L 277.832031 206.875 L 277.9375 207.03125 L 278.039062 207.191406 L 278.125 207.367188 L 278.207031 207.546875 L 277.230469 207.871094 L 277.210938 207.816406 L 277.1875 207.765625 L 277.160156 207.710938 L 277.105469 207.609375 L 277.011719 207.457031 L 276.976562 207.40625 L 276.941406 207.359375 L 276.902344 207.308594 L 276.824219 207.214844 L 276.734375 207.125 L 276.6875 207.082031 L 276.640625 207.042969 L 276.589844 207 L 276.535156 206.960938 L 276.484375 206.921875 L 276.308594 206.816406 L 276.183594 206.753906 L 276.117188 206.722656 L 276.050781 206.695312 L 275.980469 206.667969 L 275.910156 206.644531 L 275.761719 206.597656 L 275.683594 206.578125 L 275.527344 206.546875 L 275.441406 206.535156 L 275.269531 206.519531 L 275.179688 206.511719 L 275.089844 206.507812 Z M 274.996094 206.507812 "/>
<path style=" stroke:none;fill-rule:nonzero;fill:rgb(49.803922%,49.803922%,49.803922%);fill-opacity:1;" d="M 278.171875 169.046875 L 278.167969 169.234375 L 278.160156 169.417969 L 278.144531 169.597656 L 278.125 169.769531 L 278.097656 169.941406 L 278.066406 170.105469 L 278.03125 170.265625 L 277.988281 170.421875 L 277.9375 170.574219 L 277.882812 170.722656 L 277.824219 170.867188 L 277.761719 171.003906 L 277.695312 171.136719 L 277.621094 171.265625 L 277.546875 171.386719 L 277.464844 171.507812 L 277.382812 171.621094 L 277.292969 171.730469 L 277.199219 171.835938 L 277.101562 171.9375 L 277 172.03125 L 276.898438 172.121094 L 276.789062 172.207031 L 276.5625 172.363281 L 276.441406 172.433594 L 276.320312 172.5 L 276.191406 172.5625 L 276.0625 172.621094 L 275.925781 172.675781 L 275.792969 172.722656 L 275.652344 172.765625 L 275.511719 172.800781 L 275.371094 172.832031 L 275.226562 172.859375 L 275.082031 172.882812 L 274.929688 172.898438 L 274.78125 172.914062 L 274.628906 172.921875 L 271.632812 172.921875 L 271.632812 165.328125 L 274.316406 165.328125 L 274.488281 165.335938 L 274.65625 165.347656 L 274.824219 165.363281 L 274.988281 165.382812 L 275.148438 165.40625 L 275.460938 165.46875 L 275.613281 165.507812 L 275.761719 165.546875 L 275.90625 165.59375 L 276.050781 165.644531 L 276.1875 165.699219 L 276.320312 165.757812 L 276.453125 165.824219 L 276.578125 165.894531 L 276.699219 165.96875 L 276.816406 166.046875 L 276.929688 166.132812 L 277.039062 166.222656 L 277.140625 166.316406 L 277.242188 166.414062 L 277.335938 166.515625 L 277.425781 166.625 L 277.511719 166.738281 L 277.59375 166.855469 L 277.667969 166.976562 L 277.738281 167.105469 L 277.804688 167.238281 L 277.867188 167.375 L 277.925781 167.519531 L 277.976562 167.667969 L 278.023438 167.820312 L 278.0625 167.980469 L 278.09375 168.144531 L 278.121094 168.3125 L 278.144531 168.488281 L 278.15625 168.667969 L 278.167969 168.855469 Z M 277.136719 169.046875 L 277.132812 168.894531 L 277.125 168.746094 L 277.101562 168.464844 L 277.078125 168.332031 L 277.054688 168.203125 L 277.027344 168.078125 L 276.992188 167.957031 L 276.957031 167.84375 L 276.914062 167.730469 L 276.820312 167.519531 L 276.765625 167.417969 L 276.648438 167.230469 L 276.585938 167.144531 L 276.515625 167.058594 L 276.445312 166.980469 L 276.371094 166.902344 L 276.292969 166.832031 L 276.210938 166.761719 L 276.128906 166.699219 L 276.039062 166.636719 L 275.949219 166.582031 L 275.855469 166.527344 L 275.660156 166.433594 L 275.554688 166.390625 L 275.449219 166.351562 L 275.339844 166.320312 L 275.113281 166.257812 L 274.878906 166.210938 L 274.636719 166.179688 L 274.511719 166.167969 L 274.253906 166.152344 L 272.660156 166.152344 L 272.660156 172.097656 L 274.472656 172.097656 L 274.589844 172.089844 L 274.703125 172.082031 L 274.929688 172.050781 L 275.039062 172.027344 L 275.144531 172.003906 L 275.253906 171.972656 L 275.355469 171.941406 L 275.558594 171.863281 L 275.65625 171.820312 L 275.753906 171.769531 L 275.847656 171.71875 L 275.9375 171.664062 L 276.023438 171.601562 L 276.105469 171.539062 L 276.1875 171.472656 L 276.265625 171.402344 L 276.34375 171.328125 L 276.414062 171.25 L 276.484375 171.167969 L 276.550781 171.082031 L 276.613281 170.992188 L 276.675781 170.898438 L 276.730469 170.800781 L 276.785156 170.699219 L 276.835938 170.59375 L 276.882812 170.484375 L 276.925781 170.371094 L 276.964844 170.257812 L 277 170.136719 L 277.03125 170.011719 L 277.058594 169.886719 L 277.082031 169.753906 L 277.101562 169.621094 L 277.117188 169.484375 L 277.132812 169.195312 Z M 277.136719 169.046875 "/>
<path style=" stroke:none;fill-rule:nonzero;fill:rgb(49.803922%,49.803922%,49.803922%);fill-opacity:1;" d="M 277.015625 132.46875 L 276.148438 130.25 L 272.6875 130.25 L 271.816406 132.46875 L 270.746094 132.46875 L 273.847656 124.875 L 275.015625 124.875 L 278.066406 132.46875 Z M 274.867188 126.9375 L 274.847656 126.894531 L 274.832031 126.851562 L 274.8125 126.808594 L 274.765625 126.679688 L 274.746094 126.636719 L 274.730469 126.589844 L 274.667969 126.417969 L 274.65625 126.375 L 274.640625 126.332031 L 274.628906 126.292969 L 274.613281 126.253906 L 274.589844 126.175781 L 274.574219 126.140625 L 274.5625 126.105469 L 274.550781 126.066406 L 274.539062 126.03125 L 274.53125 126 L 274.507812 125.9375 L 274.5 125.90625 L 274.488281 125.878906 L 274.480469 125.851562 L 274.46875 125.828125 L 274.460938 125.800781 L 274.453125 125.777344 L 274.449219 125.757812 L 274.441406 125.738281 L 274.4375 125.71875 L 274.429688 125.6875 L 274.421875 125.664062 L 274.417969 125.65625 L 274.417969 125.652344 L 274.414062 125.65625 L 274.414062 125.664062 L 274.40625 125.6875 L 274.402344 125.703125 L 274.394531 125.71875 L 274.390625 125.738281 L 274.382812 125.757812 L 274.378906 125.777344 L 274.371094 125.800781 L 274.355469 125.855469 L 274.34375 125.882812 L 274.335938 125.910156 L 274.324219 125.941406 L 274.316406 125.972656 L 274.304688 126.003906 L 274.28125 126.074219 L 274.265625 126.109375 L 274.253906 126.144531 L 274.230469 126.222656 L 274.214844 126.261719 L 274.203125 126.300781 L 274.1875 126.34375 L 274.171875 126.382812 L 274.160156 126.425781 L 274.128906 126.511719 L 274.113281 126.558594 L 274.082031 126.644531 L 274.066406 126.691406 L 273.972656 126.949219 L 273 129.445312 L 275.839844 129.445312 Z M 274.867188 126.9375 "/>
<path style=" stroke:none;fill-rule:nonzero;fill:rgb(49.803922%,49.803922%,49.803922%);fill-opacity:1;" d="M 277.507812 89.878906 L 277.503906 89.992188 L 277.496094 90.101562 L 277.488281 90.207031 L 277.472656 90.3125 L 277.449219 90.414062 L 277.425781 90.507812 L 277.363281 90.695312 L 277.324219 90.78125 L 277.28125 90.863281 L 277.234375 90.945312 L 277.183594 91.019531 L 277.128906 91.09375 L 277.074219 91.164062 L 277.015625 91.230469 L 276.953125 91.296875 L 276.886719 91.359375 L 276.816406 91.417969 L 276.746094 91.472656 L 276.671875 91.527344 L 276.59375 91.578125 L 276.511719 91.621094 L 276.429688 91.667969 L 276.257812 91.746094 L 276.167969 91.78125 L 276.074219 91.816406 L 275.980469 91.847656 L 275.882812 91.875 L 275.679688 91.921875 L 275.578125 91.941406 L 275.472656 91.960938 L 275.367188 91.976562 L 275.15625 92 L 275.046875 92.007812 L 274.828125 92.015625 L 271.632812 92.015625 L 271.632812 84.421875 L 274.515625 84.421875 L 274.636719 84.425781 L 274.757812 84.433594 L 274.875 84.441406 L 274.988281 84.449219 L 275.101562 84.460938 L 275.417969 84.507812 L 275.519531 84.53125 L 275.617188 84.550781 L 275.710938 84.574219 L 275.800781 84.601562 L 275.890625 84.632812 L 275.976562 84.664062 L 276.058594 84.699219 L 276.136719 84.734375 L 276.214844 84.773438 L 276.289062 84.816406 L 276.359375 84.859375 L 276.425781 84.90625 L 276.488281 84.953125 L 276.550781 85.007812 L 276.609375 85.058594 L 276.710938 85.175781 L 276.761719 85.238281 L 276.804688 85.300781 L 276.84375 85.367188 L 276.882812 85.4375 L 276.917969 85.507812 L 276.949219 85.578125 L 276.976562 85.65625 L 277 85.734375 L 277.019531 85.816406 L 277.035156 85.898438 L 277.058594 86.078125 L 277.066406 86.265625 L 277.0625 86.328125 L 277.0625 86.390625 L 277.058594 86.453125 L 277.050781 86.515625 L 277.042969 86.574219 L 277.007812 86.75 L 276.992188 86.808594 L 276.972656 86.863281 L 276.957031 86.917969 L 276.933594 86.972656 L 276.914062 87.027344 L 276.890625 87.082031 L 276.835938 87.183594 L 276.804688 87.234375 L 276.773438 87.28125 L 276.667969 87.421875 L 276.589844 87.507812 L 276.546875 87.546875 L 276.5 87.589844 L 276.457031 87.625 L 276.40625 87.664062 L 276.304688 87.734375 L 276.25 87.769531 L 276.140625 87.832031 L 276.082031 87.859375 L 276.019531 87.886719 L 275.894531 87.933594 L 275.828125 87.957031 L 275.761719 87.976562 L 275.691406 87.996094 L 275.621094 88.011719 L 275.710938 88.023438 L 275.800781 88.039062 L 275.886719 88.054688 L 275.96875 88.070312 L 276.050781 88.09375 L 276.132812 88.113281 L 276.210938 88.136719 L 276.359375 88.191406 L 276.5 88.253906 L 276.632812 88.324219 L 276.695312 88.363281 L 276.8125 88.441406 L 276.921875 88.527344 L 277.023438 88.621094 L 277.066406 88.671875 L 277.113281 88.722656 L 277.152344 88.773438 L 277.195312 88.828125 L 277.230469 88.882812 L 277.265625 88.941406 L 277.296875 89 L 277.328125 89.0625 L 277.382812 89.1875 L 277.40625 89.25 L 277.445312 89.382812 L 277.460938 89.449219 L 277.476562 89.519531 L 277.488281 89.589844 L 277.503906 89.730469 L 277.503906 89.804688 Z M 276.03125 86.390625 L 276.027344 86.269531 L 276.011719 86.15625 L 275.992188 86.054688 L 275.960938 85.953125 L 275.925781 85.863281 L 275.878906 85.777344 L 275.824219 85.703125 L 275.761719 85.632812 L 275.691406 85.566406 L 275.609375 85.511719 L 275.523438 85.460938 L 275.425781 85.417969 L 275.324219 85.375 L 275.210938 85.34375 L 275.09375 85.3125 L 274.96875 85.289062 L 274.835938 85.269531 L 274.695312 85.257812 L 274.546875 85.25 L 274.390625 85.246094 L 272.660156 85.246094 L 272.660156 87.652344 L 274.480469 87.652344 L 274.652344 87.644531 L 274.808594 87.628906 L 274.882812 87.621094 L 274.957031 87.609375 L 275.027344 87.597656 L 275.09375 87.582031 L 275.15625 87.566406 L 275.21875 87.546875 L 275.277344 87.527344 L 275.441406 87.457031 L 275.582031 87.375 L 275.625 87.34375 L 275.664062 87.3125 L 275.703125 87.277344 L 275.738281 87.242188 L 275.769531 87.207031 L 275.832031 87.128906 L 275.859375 87.085938 L 275.882812 87.046875 L 275.90625 87.003906 L 275.925781 86.957031 L 275.945312 86.914062 L 275.960938 86.867188 L 275.976562 86.816406 L 275.988281 86.769531 L 276 86.71875 L 276.007812 86.667969 L 276.023438 86.558594 L 276.027344 86.503906 L 276.027344 86.449219 Z M 276.464844 89.796875 L 276.464844 89.726562 L 276.460938 89.65625 L 276.445312 89.523438 L 276.433594 89.460938 L 276.402344 89.34375 L 276.378906 89.289062 L 276.359375 89.234375 L 276.304688 89.132812 L 276.277344 89.085938 L 276.242188 89.039062 L 276.210938 88.996094 L 276.132812 88.910156 L 276.09375 88.871094 L 276.050781 88.835938 L 276.003906 88.800781 L 275.953125 88.765625 L 275.902344 88.734375 L 275.851562 88.707031 L 275.796875 88.679688 L 275.738281 88.652344 L 275.621094 88.605469 L 275.558594 88.582031 L 275.492188 88.5625 L 275.425781 88.546875 L 275.285156 88.515625 L 275.214844 88.503906 L 275.066406 88.480469 L 274.910156 88.464844 L 274.832031 88.460938 L 274.75 88.457031 L 274.664062 88.457031 L 274.578125 88.453125 L 272.660156 88.453125 L 272.660156 91.191406 L 274.816406 91.191406 L 274.964844 91.183594 L 275.039062 91.175781 L 275.25 91.152344 L 275.382812 91.128906 L 275.449219 91.113281 L 275.574219 91.082031 L 275.636719 91.0625 L 275.691406 91.039062 L 275.75 91.015625 L 275.804688 90.988281 L 275.90625 90.933594 L 275.953125 90.902344 L 276.003906 90.867188 L 276.089844 90.796875 L 276.171875 90.714844 L 276.242188 90.621094 L 276.273438 90.574219 L 276.304688 90.523438 L 276.359375 90.414062 L 276.378906 90.355469 L 276.402344 90.296875 L 276.417969 90.234375 L 276.433594 90.167969 L 276.445312 90.097656 L 276.453125 90.027344 L 276.460938 89.953125 L 276.464844 89.875 Z M 276.464844 89.796875 "/>
<path style=" stroke:none;fill-rule:nonzero;fill:rgb(49.803922%,49.803922%,49.803922%);fill-opacity:1;" d="M 276.71875 51.566406 L 274.441406 48.246094 L 272.109375 51.566406 L 270.972656 51.566406 L 273.863281 47.621094 L 271.195312 43.96875 L 272.332031 43.96875 L 274.445312 46.949219 L 276.5 43.96875 L 277.636719 43.96875 L 275.039062 47.582031 L 277.855469 51.566406 Z M 276.71875 51.566406 "/>
<path style=" stroke:none;fill-rule:nonzero;fill:rgb(49.803922%,49.803922%,49.803922%);fill-opacity:1;" d="M 271.632812 253.828125 L 271.632812 246.230469 L 277.394531 246.230469 L 277.394531 247.074219 L 272.660156 247.074219 L 272.660156 249.507812 L 277.070312 249.507812 L 277.070312 250.339844 L 272.660156 250.339844 L 272.660156 252.988281 L 277.613281 252.988281 L 277.613281 253.828125 Z M 271.632812 253.828125 "/>
<path style=" stroke:none;fill-rule:nonzero;fill:rgb(100%,0%,0%);fill-opacity:1;" d="M 110.84375 189.101562 L 110.84375 188.277344 L 112.777344 188.277344 L 112.777344 182.433594 L 111.0625 183.660156 L 111.0625 182.742188 L 112.859375 181.507812 L 113.753906 181.507812 L 113.753906 188.277344 L 115.601562 188.277344 L 115.601562 189.101562 Z M 110.84375 189.101562 "/>
<path style=" stroke:none;fill-rule:nonzero;fill:rgb(0%,0%,100%);fill-opacity:1;" d="M 71.4375 98.085938 L 71.4375 97.402344 L 71.492188 97.277344 L 71.550781 97.15625 L 71.613281 97.035156 L 71.675781 96.921875 L 71.742188 96.808594 L 71.808594 96.699219 L 71.878906 96.59375 L 71.953125 96.488281 L 72.027344 96.386719 L 72.105469 96.289062 L 72.183594 96.195312 L 72.347656 96.007812 L 72.511719 95.828125 L 72.597656 95.742188 L 72.683594 95.660156 L 72.765625 95.578125 L 72.855469 95.496094 L 73.113281 95.261719 L 73.203125 95.1875 L 73.460938 94.964844 L 73.632812 94.824219 L 73.71875 94.757812 L 73.804688 94.6875 L 73.886719 94.621094 L 73.972656 94.554688 L 74.054688 94.488281 L 74.289062 94.289062 L 74.4375 94.15625 L 74.507812 94.085938 L 74.648438 93.953125 L 74.710938 93.886719 L 74.773438 93.816406 L 74.832031 93.75 L 74.890625 93.679688 L 74.945312 93.609375 L 74.996094 93.539062 L 75.046875 93.464844 L 75.089844 93.394531 L 75.175781 93.246094 L 75.246094 93.089844 L 75.273438 93.011719 L 75.296875 92.929688 L 75.316406 92.84375 L 75.332031 92.757812 L 75.339844 92.671875 L 75.347656 92.582031 L 75.351562 92.488281 L 75.347656 92.425781 L 75.347656 92.363281 L 75.339844 92.304688 L 75.335938 92.246094 L 75.324219 92.1875 L 75.316406 92.132812 L 75.300781 92.078125 L 75.289062 92.023438 L 75.273438 91.972656 L 75.253906 91.925781 L 75.234375 91.875 L 75.1875 91.78125 L 75.132812 91.695312 L 75.105469 91.65625 L 75.042969 91.578125 L 74.972656 91.507812 L 74.933594 91.476562 L 74.898438 91.445312 L 74.769531 91.363281 L 74.726562 91.339844 L 74.679688 91.316406 L 74.632812 91.296875 L 74.582031 91.277344 L 74.480469 91.246094 L 74.425781 91.230469 L 74.375 91.21875 L 74.320312 91.207031 L 74.261719 91.195312 L 74.207031 91.1875 L 74.148438 91.183594 L 74.085938 91.179688 L 74.027344 91.175781 L 73.90625 91.175781 L 73.851562 91.179688 L 73.792969 91.183594 L 73.738281 91.1875 L 73.628906 91.203125 L 73.519531 91.226562 L 73.46875 91.242188 L 73.414062 91.253906 L 73.363281 91.273438 L 73.222656 91.332031 L 73.175781 91.355469 L 73.128906 91.382812 L 73.042969 91.4375 L 73.003906 91.464844 L 72.960938 91.5 L 72.921875 91.53125 L 72.886719 91.566406 L 72.847656 91.601562 L 72.8125 91.640625 L 72.78125 91.679688 L 72.6875 91.808594 L 72.632812 91.902344 L 72.609375 91.949219 L 72.585938 92 L 72.566406 92.050781 L 72.546875 92.105469 L 72.515625 92.214844 L 72.492188 92.332031 L 72.480469 92.394531 L 72.472656 92.457031 L 71.480469 92.367188 L 71.503906 92.203125 L 71.519531 92.125 L 71.539062 92.046875 L 71.585938 91.890625 L 71.609375 91.816406 L 71.671875 91.667969 L 71.707031 91.59375 L 71.742188 91.523438 L 71.78125 91.453125 L 71.824219 91.386719 L 71.871094 91.320312 L 71.917969 91.257812 L 72.019531 91.132812 L 72.078125 91.074219 L 72.195312 90.964844 L 72.261719 90.910156 L 72.394531 90.808594 L 72.464844 90.761719 L 72.539062 90.71875 L 72.617188 90.675781 L 72.695312 90.636719 L 72.859375 90.566406 L 72.945312 90.535156 L 73.035156 90.503906 L 73.128906 90.476562 L 73.222656 90.453125 L 73.320312 90.433594 L 73.523438 90.402344 L 73.632812 90.390625 L 73.738281 90.382812 L 73.851562 90.378906 L 74.078125 90.378906 L 74.1875 90.382812 L 74.398438 90.398438 L 74.5 90.410156 L 74.695312 90.441406 L 74.792969 90.464844 L 74.882812 90.484375 L 74.972656 90.511719 L 75.058594 90.539062 L 75.144531 90.570312 L 75.226562 90.605469 L 75.304688 90.640625 L 75.453125 90.71875 L 75.523438 90.765625 L 75.589844 90.808594 L 75.65625 90.859375 L 75.714844 90.910156 L 75.777344 90.964844 L 75.832031 91.019531 L 75.886719 91.082031 L 75.9375 91.140625 L 75.988281 91.207031 L 76.074219 91.339844 L 76.117188 91.414062 L 76.1875 91.5625 L 76.214844 91.640625 L 76.269531 91.804688 L 76.289062 91.890625 L 76.308594 91.980469 L 76.320312 92.070312 L 76.332031 92.164062 L 76.347656 92.359375 L 76.347656 92.535156 L 76.34375 92.609375 L 76.335938 92.683594 L 76.3125 92.832031 L 76.296875 92.902344 L 76.277344 92.976562 L 76.257812 93.046875 L 76.234375 93.117188 L 76.207031 93.183594 L 76.179688 93.253906 L 76.148438 93.320312 L 76.117188 93.390625 L 76.085938 93.457031 L 76.046875 93.523438 L 76.011719 93.585938 L 75.972656 93.652344 L 75.929688 93.714844 L 75.886719 93.78125 L 75.746094 93.96875 L 75.699219 94.027344 L 75.648438 94.089844 L 75.59375 94.152344 L 75.542969 94.210938 L 75.488281 94.269531 L 75.3125 94.445312 L 75.25 94.503906 L 75.191406 94.5625 L 75.066406 94.679688 L 75.003906 94.734375 L 74.941406 94.792969 L 74.875 94.847656 L 74.8125 94.90625 L 74.746094 94.960938 L 74.683594 95.019531 L 73.820312 95.730469 L 73.507812 96.003906 L 73.449219 96.058594 L 73.386719 96.113281 L 73.332031 96.167969 L 73.273438 96.222656 L 73.21875 96.277344 L 73.164062 96.335938 L 73.113281 96.390625 L 73.058594 96.445312 L 73.007812 96.503906 L 72.960938 96.558594 L 72.914062 96.617188 L 72.863281 96.671875 L 72.820312 96.730469 L 72.777344 96.785156 L 72.734375 96.84375 L 72.695312 96.902344 L 72.589844 97.078125 L 72.558594 97.140625 L 72.53125 97.199219 L 72.503906 97.261719 L 76.464844 97.261719 L 76.464844 98.085938 Z M 71.4375 98.085938 "/>
<path style=" stroke:none;fill-rule:nonzero;fill:rgb(100%,64.705882%,0%);fill-opacity:1;" d="M 154.777344 65.648438 L 154.773438 65.753906 L 154.769531 65.855469 L 154.761719 65.953125 L 154.75 66.050781 L 154.734375 66.144531 L 154.714844 66.234375 L 154.667969 66.414062 L 154.636719 66.5 L 154.605469 66.582031 L 154.570312 66.664062 L 154.53125 66.742188 L 154.445312 66.890625 L 154.394531 66.960938 L 154.34375 67.027344 L 154.289062 67.09375 L 154.234375 67.15625 L 154.171875 67.21875 L 154.109375 67.277344 L 154.042969 67.332031 L 153.972656 67.382812 L 153.898438 67.433594 L 153.824219 67.480469 L 153.746094 67.523438 L 153.660156 67.566406 L 153.488281 67.644531 L 153.300781 67.707031 L 153.203125 67.734375 L 153.101562 67.761719 L 153 67.78125 L 152.894531 67.800781 L 152.785156 67.816406 L 152.671875 67.832031 L 152.558594 67.839844 L 152.441406 67.847656 L 152.324219 67.851562 L 152.199219 67.855469 L 151.925781 67.847656 L 151.796875 67.839844 L 151.671875 67.828125 L 151.550781 67.8125 L 151.433594 67.792969 L 151.320312 67.769531 L 151.210938 67.742188 L 151.109375 67.714844 L 151.007812 67.679688 L 150.914062 67.644531 L 150.734375 67.566406 L 150.652344 67.523438 L 150.570312 67.476562 L 150.492188 67.429688 L 150.417969 67.378906 L 150.347656 67.328125 L 150.214844 67.21875 L 150.15625 67.160156 L 150.097656 67.097656 L 150.042969 67.035156 L 149.992188 66.972656 L 149.941406 66.90625 L 149.855469 66.773438 L 149.816406 66.703125 L 149.78125 66.632812 L 149.746094 66.558594 L 149.71875 66.484375 L 149.6875 66.410156 L 149.664062 66.335938 L 149.640625 66.257812 L 149.617188 66.183594 L 149.597656 66.105469 L 149.582031 66.027344 L 149.566406 65.953125 L 149.554688 65.875 L 149.542969 65.792969 L 150.546875 65.703125 L 150.554688 65.761719 L 150.589844 65.9375 L 150.621094 66.046875 L 150.640625 66.097656 L 150.660156 66.152344 L 150.679688 66.203125 L 150.703125 66.253906 L 150.75 66.347656 L 150.78125 66.394531 L 150.808594 66.441406 L 150.839844 66.484375 L 150.871094 66.523438 L 150.90625 66.566406 L 150.941406 66.605469 L 150.980469 66.640625 L 151.019531 66.679688 L 151.058594 66.714844 L 151.101562 66.746094 L 151.195312 66.808594 L 151.242188 66.835938 L 151.292969 66.863281 L 151.34375 66.886719 L 151.453125 66.933594 L 151.570312 66.972656 L 151.628906 66.988281 L 151.695312 67.003906 L 151.828125 67.027344 L 151.96875 67.042969 L 152.042969 67.046875 L 152.121094 67.050781 L 152.199219 67.050781 L 152.34375 67.046875 L 152.480469 67.035156 L 152.609375 67.019531 L 152.734375 66.992188 L 152.851562 66.960938 L 152.964844 66.921875 L 153.070312 66.875 L 153.167969 66.820312 L 153.261719 66.757812 L 153.347656 66.691406 L 153.429688 66.613281 L 153.5 66.53125 L 153.5625 66.441406 L 153.617188 66.34375 L 153.664062 66.242188 L 153.699219 66.128906 L 153.730469 66.011719 L 153.75 65.886719 L 153.765625 65.753906 L 153.769531 65.617188 L 153.765625 65.535156 L 153.761719 65.457031 L 153.75 65.378906 L 153.738281 65.308594 L 153.722656 65.238281 L 153.699219 65.171875 L 153.675781 65.109375 L 153.648438 65.050781 L 153.617188 64.996094 L 153.578125 64.941406 L 153.542969 64.890625 L 153.503906 64.84375 L 153.460938 64.796875 L 153.417969 64.753906 L 153.324219 64.675781 L 153.277344 64.640625 L 153.222656 64.605469 L 153.171875 64.574219 L 153.117188 64.542969 L 153.0625 64.515625 L 153.003906 64.488281 L 152.886719 64.441406 L 152.828125 64.421875 L 152.765625 64.40625 L 152.703125 64.386719 L 152.640625 64.375 L 152.578125 64.359375 L 152.511719 64.351562 L 152.449219 64.339844 L 152.324219 64.324219 L 152.261719 64.320312 L 152.199219 64.3125 L 152.082031 64.304688 L 152.027344 64.304688 L 151.96875 64.300781 L 151.363281 64.300781 L 151.363281 63.460938 L 151.949219 63.460938 L 152.003906 63.457031 L 152.058594 63.457031 L 152.117188 63.453125 L 152.171875 63.445312 L 152.230469 63.441406 L 152.40625 63.417969 L 152.523438 63.394531 L 152.582031 63.378906 L 152.636719 63.363281 L 152.800781 63.304688 L 152.902344 63.257812 L 153.003906 63.203125 L 153.050781 63.171875 L 153.144531 63.101562 L 153.1875 63.066406 L 153.226562 63.023438 L 153.265625 62.984375 L 153.304688 62.941406 L 153.375 62.847656 L 153.4375 62.746094 L 153.464844 62.691406 L 153.511719 62.574219 L 153.542969 62.441406 L 153.554688 62.375 L 153.5625 62.300781 L 153.570312 62.152344 L 153.566406 62.03125 L 153.554688 61.917969 L 153.535156 61.808594 L 153.511719 61.703125 L 153.480469 61.605469 L 153.4375 61.511719 L 153.390625 61.425781 L 153.335938 61.339844 L 153.277344 61.265625 L 153.207031 61.191406 L 153.132812 61.125 L 153.050781 61.0625 L 152.960938 61.011719 L 152.867188 60.964844 L 152.765625 60.925781 L 152.65625 60.890625 L 152.539062 60.867188 L 152.414062 60.851562 L 152.285156 60.839844 L 152.144531 60.835938 L 152.019531 60.839844 L 151.898438 60.847656 L 151.78125 60.863281 L 151.671875 60.886719 L 151.566406 60.917969 L 151.464844 60.953125 L 151.367188 60.996094 L 151.273438 61.046875 L 151.1875 61.101562 L 151.105469 61.164062 L 151.03125 61.234375 L 150.960938 61.304688 L 150.898438 61.386719 L 150.84375 61.46875 L 150.792969 61.558594 L 150.75 61.65625 L 150.714844 61.757812 L 150.6875 61.863281 L 150.664062 61.972656 L 150.648438 62.089844 L 149.671875 62.015625 L 149.683594 61.917969 L 149.703125 61.820312 L 149.722656 61.726562 L 149.742188 61.636719 L 149.769531 61.546875 L 149.800781 61.460938 L 149.832031 61.378906 L 149.867188 61.296875 L 149.90625 61.21875 L 149.945312 61.144531 L 149.992188 61.070312 L 150.085938 60.929688 L 150.136719 60.867188 L 150.246094 60.742188 L 150.304688 60.683594 L 150.363281 60.628906 L 150.425781 60.578125 L 150.492188 60.527344 L 150.558594 60.480469 L 150.628906 60.433594 L 150.699219 60.390625 L 150.847656 60.3125 L 150.925781 60.277344 L 151.003906 60.246094 L 151.085938 60.214844 L 151.25 60.160156 L 151.335938 60.136719 L 151.421875 60.117188 L 151.511719 60.097656 L 151.601562 60.082031 L 151.78125 60.058594 L 151.96875 60.042969 L 152.0625 60.039062 L 152.28125 60.039062 L 152.402344 60.042969 L 152.523438 60.050781 L 152.636719 60.0625 L 152.75 60.078125 L 152.960938 60.117188 L 153.0625 60.140625 L 153.15625 60.167969 L 153.25 60.199219 L 153.339844 60.230469 L 153.425781 60.265625 L 153.511719 60.304688 L 153.589844 60.34375 L 153.667969 60.386719 L 153.742188 60.429688 L 153.808594 60.476562 L 153.878906 60.527344 L 153.941406 60.578125 L 154 60.628906 L 154.058594 60.683594 L 154.160156 60.800781 L 154.253906 60.925781 L 154.292969 60.988281 L 154.332031 61.054688 L 154.367188 61.125 L 154.398438 61.195312 L 154.425781 61.265625 L 154.453125 61.339844 L 154.476562 61.414062 L 154.496094 61.492188 L 154.515625 61.566406 L 154.53125 61.644531 L 154.542969 61.722656 L 154.554688 61.804688 L 154.5625 61.882812 L 154.566406 61.964844 L 154.566406 62.113281 L 154.558594 62.246094 L 154.535156 62.433594 L 154.519531 62.496094 L 154.507812 62.554688 L 154.492188 62.613281 L 154.472656 62.671875 L 154.457031 62.730469 L 154.433594 62.789062 L 154.386719 62.898438 L 154.355469 62.949219 L 154.328125 63 L 154.296875 63.050781 L 154.261719 63.101562 L 154.226562 63.148438 L 154.148438 63.242188 L 154.0625 63.328125 L 153.96875 63.414062 L 153.917969 63.453125 L 153.863281 63.488281 L 153.808594 63.527344 L 153.753906 63.5625 L 153.691406 63.59375 L 153.632812 63.628906 L 153.570312 63.660156 L 153.4375 63.714844 L 153.367188 63.742188 L 153.21875 63.789062 L 153.140625 63.8125 L 153.058594 63.832031 L 152.976562 63.847656 L 152.976562 63.871094 L 153.15625 63.894531 L 153.242188 63.910156 L 153.324219 63.925781 L 153.40625 63.945312 L 153.484375 63.96875 L 153.558594 63.992188 L 153.632812 64.019531 L 153.773438 64.082031 L 153.90625 64.144531 L 153.96875 64.179688 L 154.027344 64.21875 L 154.136719 64.296875 L 154.191406 64.339844 L 154.242188 64.382812 L 154.289062 64.425781 L 154.335938 64.472656 L 154.378906 64.523438 L 154.417969 64.570312 L 154.457031 64.621094 L 154.492188 64.675781 L 154.527344 64.726562 L 154.589844 64.835938 L 154.617188 64.894531 L 154.664062 65.011719 L 154.703125 65.136719 L 154.722656 65.195312 L 154.734375 65.261719 L 154.75 65.324219 L 154.757812 65.386719 L 154.765625 65.453125 L 154.773438 65.515625 L 154.773438 65.582031 Z M 154.777344 65.648438 "/>
<path style=" stroke:none;fill-rule:nonzero;fill:rgb(0%,0%,0%);fill-opacity:1;" d="M 18.9375 22.042969 L 17.835938 19.226562 L 13.445312 19.226562 L 12.339844 22.042969 L 10.984375 22.042969 L 14.917969 12.410156 L 16.398438 12.410156 L 20.269531 22.042969 Z M 16.207031 15.03125 L 16.1875 14.976562 L 16.164062 14.921875 L 16.144531 14.863281 L 16.121094 14.808594 L 16.082031 14.699219 L 16.058594 14.644531 L 16.039062 14.585938 L 16.015625 14.53125 L 15.976562 14.421875 L 15.960938 14.367188 L 15.941406 14.3125 L 15.921875 14.261719 L 15.875 14.109375 L 15.855469 14.0625 L 15.824219 13.96875 L 15.8125 13.925781 L 15.796875 13.878906 L 15.78125 13.839844 L 15.769531 13.796875 L 15.757812 13.757812 L 15.742188 13.722656 L 15.730469 13.683594 L 15.71875 13.652344 L 15.707031 13.617188 L 15.695312 13.585938 L 15.671875 13.503906 L 15.664062 13.480469 L 15.660156 13.460938 L 15.652344 13.441406 L 15.648438 13.425781 L 15.644531 13.414062 L 15.644531 13.402344 L 15.640625 13.394531 L 15.636719 13.402344 L 15.628906 13.425781 L 15.625 13.441406 L 15.621094 13.460938 L 15.613281 13.480469 L 15.605469 13.503906 L 15.589844 13.558594 L 15.578125 13.585938 L 15.570312 13.621094 L 15.558594 13.652344 L 15.546875 13.6875 L 15.535156 13.726562 L 15.523438 13.761719 L 15.511719 13.804688 L 15.496094 13.84375 L 15.464844 13.929688 L 15.417969 14.070312 L 15.386719 14.171875 L 15.367188 14.222656 L 15.351562 14.273438 L 15.332031 14.324219 L 15.273438 14.488281 L 15.253906 14.546875 L 15.195312 14.710938 L 15.175781 14.769531 L 15.136719 14.878906 L 15.113281 14.933594 L 15.074219 15.042969 L 13.84375 18.207031 L 17.445312 18.207031 Z M 16.207031 15.03125 "/>
<g clip-path="url(#clip3)" clip-rule="nonzero">
<path style="fill-rule:nonzero;fill:rgb(100%,100%,100%);fill-opacity:1;stroke-width:1.066978;stroke-linecap:round;stroke-linejoin:round;stroke:rgb(100%,100%,100%);stroke-opacity:1;stroke-miterlimit:10;" d="M 288 282.519531 L 570.519531 282.519531 L 570.519531 5.476562 L 288 5.476562 Z M 288 282.519531 "/>
</g>
<g clip-path="url(#clip4)" clip-rule="nonzero">
<path style="fill-rule:nonzero;fill:rgb(100%,100%,100%);fill-opacity:1;stroke-width:1.066978;stroke-linecap:round;stroke-linejoin:round;stroke:rgb(100%,100%,100%);stroke-opacity:1;stroke-miterlimit:10;" d="M 305.558594 274.300781 L 565.042969 274.300781 L 565.042969 23.496094 L 305.558594 23.496094 Z M 305.558594 274.300781 "/>
</g>
<path style="fill:none;stroke-width:1.066978;stroke-linecap:round;stroke-linejoin:round;stroke:rgb(49.803922%,49.803922%,49.803922%);stroke-opacity:1;stroke-miterlimit:10;" d="M 493.390625 88.21875 L 552.074219 88.21875 "/>
<path style="fill:none;stroke-width:1.066978;stroke-linecap:round;stroke-linejoin:round;stroke:rgb(49.803922%,49.803922%,49.803922%);stroke-opacity:1;stroke-miterlimit:10;" d="M 493.390625 47.765625 L 552.074219 47.765625 "/>
<path style="fill:none;stroke-width:1.066978;stroke-linecap:round;stroke-linejoin:round;stroke:rgb(49.803922%,49.803922%,49.803922%);stroke-opacity:1;stroke-miterlimit:10;" d="M 376.03125 169.125 L 552.074219 169.125 "/>
<path style="fill:none;stroke-width:1.066978;stroke-linecap:round;stroke-linejoin:round;stroke:rgb(49.803922%,49.803922%,49.803922%);stroke-opacity:1;stroke-miterlimit:10;" d="M 317.351562 250.03125 L 552.074219 250.03125 "/>
<path style="fill:none;stroke-width:1.066978;stroke-linecap:round;stroke-linejoin:round;stroke:rgb(49.803922%,49.803922%,49.803922%);stroke-opacity:1;stroke-miterlimit:10;" d="M 317.351562 209.578125 L 552.074219 209.578125 "/>
<path style="fill:none;stroke-width:1.066978;stroke-linecap:round;stroke-linejoin:round;stroke:rgb(49.803922%,49.803922%,49.803922%);stroke-opacity:1;stroke-miterlimit:10;" d="M 434.710938 128.671875 L 552.074219 128.671875 "/>
<path style="fill:none;stroke-width:1.066978;stroke-linecap:round;stroke-linejoin:round;stroke:rgb(49.803922%,49.803922%,49.803922%);stroke-opacity:1;stroke-miterlimit:10;" d="M 317.351562 197.777344 L 317.351562 197.777344 "/>
<path style="fill:none;stroke-width:1.066978;stroke-linecap:round;stroke-linejoin:round;stroke:rgb(0%,0%,100%);stroke-opacity:1;stroke-miterlimit:10;" d="M 376.03125 98.332031 L 434.710938 98.332031 "/>
<path style="fill:none;stroke-width:1.066978;stroke-linecap:round;stroke-linejoin:round;stroke:rgb(100%,0%,0%);stroke-opacity:1;stroke-miterlimit:10;" d="M 434.710938 67.992188 L 493.390625 67.992188 "/>
<path style="fill:none;stroke-width:1.066978;stroke-linecap:round;stroke-linejoin:round;stroke:rgb(100%,64.705882%,0%);stroke-opacity:1;stroke-miterlimit:10;" d="M 317.351562 133.730469 L 376.03125 133.730469 "/>
<path style="fill:none;stroke-width:1.066978;stroke-linecap:round;stroke-linejoin:round;stroke:rgb(49.803922%,49.803922%,49.803922%);stroke-opacity:1;stroke-miterlimit:10;" d="M 493.390625 67.992188 L 493.390625 88.21875 "/>
<path style="fill:none;stroke-width:1.066978;stroke-linecap:round;stroke-linejoin:round;stroke:rgb(49.803922%,49.803922%,49.803922%);stroke-opacity:1;stroke-miterlimit:10;" d="M 493.390625 67.992188 L 493.390625 47.765625 "/>
<path style="fill:none;stroke-width:1.066978;stroke-linecap:round;stroke-linejoin:round;stroke:rgb(49.803922%,49.803922%,49.803922%);stroke-opacity:1;stroke-miterlimit:10;" d="M 376.03125 133.730469 L 376.03125 169.125 "/>
<path style="fill:none;stroke-width:1.066978;stroke-linecap:round;stroke-linejoin:round;stroke:rgb(49.803922%,49.803922%,49.803922%);stroke-opacity:1;stroke-miterlimit:10;" d="M 317.351562 197.777344 L 317.351562 250.03125 "/>
<path style="fill:none;stroke-width:1.066978;stroke-linecap:round;stroke-linejoin:round;stroke:rgb(49.803922%,49.803922%,49.803922%);stroke-opacity:1;stroke-miterlimit:10;" d="M 317.351562 197.777344 L 317.351562 209.578125 "/>
<path style="fill:none;stroke-width:1.066978;stroke-linecap:round;stroke-linejoin:round;stroke:rgb(49.803922%,49.803922%,49.803922%);stroke-opacity:1;stroke-miterlimit:10;" d="M 434.710938 98.332031 L 434.710938 128.671875 "/>
<path style="fill:none;stroke-width:1.066978;stroke-linecap:round;stroke-linejoin:round;stroke:rgb(49.803922%,49.803922%,49.803922%);stroke-opacity:1;stroke-miterlimit:10;" d="M 317.351562 197.777344 L 317.351562 197.777344 "/>
<path style="fill:none;stroke-width:1.066978;stroke-linecap:round;stroke-linejoin:round;stroke:rgb(0%,0%,100%);stroke-opacity:1;stroke-miterlimit:10;" d="M 376.03125 133.730469 L 376.03125 98.332031 "/>
<path style="fill:none;stroke-width:1.066978;stroke-linecap:round;stroke-linejoin:round;stroke:rgb(100%,0%,0%);stroke-opacity:1;stroke-miterlimit:10;" d="M 434.710938 98.332031 L 434.710938 67.992188 "/>
<path style="fill:none;stroke-width:1.066978;stroke-linecap:round;stroke-linejoin:round;stroke:rgb(100%,64.705882%,0%);stroke-opacity:1;stroke-miterlimit:10;" d="M 317.351562 197.777344 L 317.351562 133.730469 "/>
<path style=" stroke:none;fill-rule:nonzero;fill:rgb(49.803922%,49.803922%,49.803922%);fill-opacity:1;" d="M 557.515625 85.148438 L 557.386719 85.152344 L 557.261719 85.160156 L 557.140625 85.167969 L 557.019531 85.183594 L 556.90625 85.203125 L 556.792969 85.226562 L 556.679688 85.253906 L 556.46875 85.324219 L 556.367188 85.367188 L 556.269531 85.410156 L 556.082031 85.511719 L 555.996094 85.566406 L 555.910156 85.628906 L 555.828125 85.691406 L 555.75 85.757812 L 555.675781 85.828125 L 555.601562 85.902344 L 555.53125 85.980469 L 555.464844 86.0625 L 555.40625 86.144531 L 555.289062 86.324219 L 555.238281 86.417969 L 555.1875 86.515625 L 555.144531 86.617188 L 555.101562 86.722656 L 555.0625 86.828125 L 555.023438 86.941406 L 554.992188 87.054688 L 554.964844 87.167969 L 554.9375 87.289062 L 554.914062 87.40625 L 554.894531 87.53125 L 554.878906 87.65625 L 554.867188 87.785156 L 554.859375 87.917969 L 554.851562 88.183594 L 554.855469 88.320312 L 554.859375 88.453125 L 554.871094 88.585938 L 554.882812 88.714844 L 554.898438 88.839844 L 554.917969 88.964844 L 554.941406 89.089844 L 554.96875 89.207031 L 555 89.324219 L 555.035156 89.441406 L 555.074219 89.550781 L 555.117188 89.660156 L 555.164062 89.765625 L 555.210938 89.867188 L 555.265625 89.96875 L 555.375 90.15625 L 555.4375 90.246094 L 555.570312 90.417969 L 555.640625 90.496094 L 555.714844 90.574219 L 555.792969 90.644531 L 555.875 90.714844 L 555.957031 90.78125 L 556.042969 90.84375 L 556.132812 90.898438 L 556.226562 90.953125 L 556.324219 91.003906 L 556.421875 91.050781 L 556.523438 91.09375 L 556.628906 91.132812 L 556.738281 91.167969 L 556.847656 91.199219 L 556.960938 91.222656 L 557.074219 91.242188 L 557.191406 91.257812 L 557.3125 91.269531 L 557.433594 91.277344 L 557.644531 91.277344 L 557.816406 91.269531 L 557.898438 91.261719 L 557.980469 91.25 L 558.058594 91.238281 L 558.214844 91.207031 L 558.289062 91.1875 L 558.363281 91.164062 L 558.433594 91.140625 L 558.574219 91.085938 L 558.644531 91.054688 L 558.710938 91.023438 L 558.773438 90.992188 L 558.839844 90.953125 L 558.898438 90.917969 L 558.960938 90.878906 L 559.136719 90.75 L 559.300781 90.609375 L 559.351562 90.558594 L 559.402344 90.503906 L 559.453125 90.453125 L 559.5 90.398438 L 559.59375 90.28125 L 559.636719 90.222656 L 559.683594 90.160156 L 559.726562 90.097656 L 559.765625 90.035156 L 559.804688 89.96875 L 559.847656 89.90625 L 559.882812 89.835938 L 559.921875 89.769531 L 559.957031 89.699219 L 560.796875 90.121094 L 560.757812 90.203125 L 560.710938 90.289062 L 560.667969 90.371094 L 560.617188 90.453125 L 560.570312 90.53125 L 560.519531 90.609375 L 560.464844 90.6875 L 560.410156 90.761719 L 560.351562 90.839844 L 560.292969 90.914062 L 560.167969 91.054688 L 560.101562 91.125 L 560.03125 91.191406 L 559.890625 91.316406 L 559.816406 91.378906 L 559.738281 91.4375 L 559.582031 91.546875 L 559.5 91.601562 L 559.414062 91.652344 L 559.328125 91.699219 L 559.238281 91.746094 L 559.148438 91.789062 L 559.054688 91.832031 L 558.957031 91.871094 L 558.761719 91.941406 L 558.660156 91.972656 L 558.554688 92.003906 L 558.449219 92.027344 L 558.339844 92.050781 L 558.230469 92.070312 L 558.117188 92.085938 L 558 92.101562 L 557.878906 92.113281 L 557.757812 92.121094 L 557.636719 92.125 L 557.511719 92.125 L 557.328125 92.121094 L 557.152344 92.113281 L 556.976562 92.097656 L 556.808594 92.078125 L 556.644531 92.050781 L 556.484375 92.019531 L 556.332031 91.984375 L 556.179688 91.9375 L 556.035156 91.890625 L 555.894531 91.835938 L 555.757812 91.773438 L 555.625 91.707031 L 555.5 91.636719 L 555.375 91.5625 L 555.257812 91.480469 L 555.144531 91.398438 L 555.035156 91.308594 L 554.929688 91.214844 L 554.832031 91.117188 L 554.734375 91.015625 L 554.644531 90.90625 L 554.558594 90.796875 L 554.476562 90.679688 L 554.398438 90.5625 L 554.328125 90.4375 L 554.261719 90.3125 L 554.199219 90.179688 L 554.140625 90.046875 L 554.085938 89.90625 L 554.039062 89.765625 L 553.996094 89.617188 L 553.957031 89.46875 L 553.921875 89.320312 L 553.890625 89.164062 L 553.863281 89.007812 L 553.84375 88.847656 L 553.828125 88.6875 L 553.816406 88.523438 L 553.808594 88.355469 L 553.808594 88.007812 L 553.816406 87.835938 L 553.828125 87.667969 L 553.847656 87.5 L 553.867188 87.339844 L 553.894531 87.179688 L 553.925781 87.023438 L 553.960938 86.871094 L 554.003906 86.722656 L 554.050781 86.578125 L 554.101562 86.4375 L 554.15625 86.300781 L 554.21875 86.167969 L 554.285156 86.039062 L 554.351562 85.914062 L 554.425781 85.796875 L 554.503906 85.679688 L 554.585938 85.570312 L 554.675781 85.460938 L 554.765625 85.359375 L 554.863281 85.261719 L 554.964844 85.167969 L 555.070312 85.078125 L 555.179688 84.992188 L 555.292969 84.914062 L 555.414062 84.835938 L 555.535156 84.765625 L 555.664062 84.703125 L 555.796875 84.640625 L 555.929688 84.585938 L 556.070312 84.53125 L 556.214844 84.484375 L 556.363281 84.445312 L 556.515625 84.40625 L 556.667969 84.378906 L 556.828125 84.351562 L 556.992188 84.332031 L 557.160156 84.320312 L 557.328125 84.3125 L 557.503906 84.308594 L 557.742188 84.3125 L 557.972656 84.328125 L 558.195312 84.351562 L 558.410156 84.386719 L 558.617188 84.429688 L 558.816406 84.480469 L 559.007812 84.542969 L 559.191406 84.613281 L 559.363281 84.695312 L 559.53125 84.785156 L 559.691406 84.882812 L 559.839844 84.992188 L 559.980469 85.109375 L 560.113281 85.238281 L 560.238281 85.371094 L 560.351562 85.519531 L 560.460938 85.671875 L 560.558594 85.835938 L 560.648438 86.007812 L 560.726562 86.191406 L 559.753906 86.515625 L 559.707031 86.40625 L 559.679688 86.355469 L 559.65625 86.300781 L 559.625 86.25 L 559.597656 86.199219 L 559.566406 86.148438 L 559.53125 86.101562 L 559.460938 86 L 559.425781 85.953125 L 559.382812 85.90625 L 559.34375 85.859375 L 559.300781 85.8125 L 559.160156 85.683594 L 559.109375 85.644531 L 559.058594 85.601562 L 559.003906 85.566406 L 558.949219 85.527344 L 558.890625 85.492188 L 558.828125 85.457031 L 558.769531 85.425781 L 558.703125 85.394531 L 558.570312 85.339844 L 558.429688 85.285156 L 558.355469 85.261719 L 558.207031 85.222656 L 558.125 85.207031 L 558.046875 85.191406 L 557.964844 85.179688 L 557.878906 85.167969 L 557.789062 85.160156 L 557.609375 85.152344 Z M 557.515625 85.148438 "/>
<path style=" stroke:none;fill-rule:nonzero;fill:rgb(49.803922%,49.803922%,49.803922%);fill-opacity:1;" d="M 560.691406 47.6875 L 560.6875 47.875 L 560.679688 48.058594 L 560.664062 48.238281 L 560.644531 48.414062 L 560.621094 48.582031 L 560.585938 48.75 L 560.550781 48.910156 L 560.507812 49.066406 L 560.460938 49.21875 L 560.40625 49.367188 L 560.34375 49.507812 L 560.28125 49.644531 L 560.214844 49.777344 L 560.144531 49.90625 L 560.066406 50.03125 L 559.988281 50.148438 L 559.902344 50.261719 L 559.8125 50.375 L 559.625 50.578125 L 559.523438 50.671875 L 559.417969 50.761719 L 559.308594 50.847656 L 559.195312 50.929688 L 559.082031 51.003906 L 558.960938 51.078125 L 558.839844 51.144531 L 558.710938 51.207031 L 558.582031 51.265625 L 558.449219 51.316406 L 558.3125 51.363281 L 558.175781 51.40625 L 558.035156 51.445312 L 557.890625 51.476562 L 557.746094 51.503906 L 557.601562 51.527344 L 557.453125 51.542969 L 557.300781 51.554688 L 557.148438 51.5625 L 556.992188 51.566406 L 554.152344 51.566406 L 554.152344 43.96875 L 556.664062 43.96875 L 556.839844 43.972656 L 557.011719 43.980469 L 557.179688 43.988281 L 557.34375 44.003906 L 557.507812 44.023438 L 557.667969 44.050781 L 557.824219 44.078125 L 557.980469 44.113281 L 558.132812 44.148438 L 558.28125 44.191406 L 558.429688 44.238281 L 558.570312 44.285156 L 558.84375 44.402344 L 558.972656 44.46875 L 559.097656 44.535156 L 559.21875 44.613281 L 559.335938 44.691406 L 559.449219 44.777344 L 559.558594 44.863281 L 559.664062 44.957031 L 559.761719 45.054688 L 559.859375 45.160156 L 559.949219 45.265625 L 560.03125 45.378906 L 560.113281 45.496094 L 560.191406 45.621094 L 560.261719 45.746094 L 560.328125 45.878906 L 560.390625 46.019531 L 560.445312 46.160156 L 560.496094 46.308594 L 560.542969 46.464844 L 560.582031 46.621094 L 560.613281 46.785156 L 560.640625 46.957031 L 560.664062 47.132812 L 560.679688 47.3125 L 560.6875 47.496094 Z M 559.65625 47.6875 L 559.648438 47.390625 L 559.636719 47.246094 L 559.621094 47.109375 L 559.601562 46.976562 L 559.574219 46.847656 L 559.546875 46.722656 L 559.515625 46.601562 L 559.476562 46.484375 L 559.433594 46.375 L 559.386719 46.265625 L 559.339844 46.164062 L 559.285156 46.0625 L 559.230469 45.964844 L 559.105469 45.785156 L 559.039062 45.703125 L 558.96875 45.621094 L 558.894531 45.546875 L 558.816406 45.472656 L 558.734375 45.40625 L 558.648438 45.339844 L 558.5625 45.28125 L 558.46875 45.222656 L 558.28125 45.121094 L 558.179688 45.074219 L 558.078125 45.035156 L 557.96875 44.996094 L 557.859375 44.960938 L 557.75 44.929688 L 557.632812 44.902344 L 557.519531 44.875 L 557.277344 44.835938 L 557.15625 44.820312 L 557.03125 44.808594 L 556.902344 44.800781 L 556.773438 44.796875 L 556.640625 44.792969 L 555.179688 44.792969 L 555.179688 50.742188 L 556.875 50.742188 L 557.109375 50.734375 L 557.226562 50.722656 L 557.339844 50.710938 L 557.558594 50.671875 L 557.667969 50.644531 L 557.773438 50.617188 L 557.875 50.582031 L 557.980469 50.546875 L 558.082031 50.503906 L 558.179688 50.460938 L 558.273438 50.414062 L 558.367188 50.359375 L 558.457031 50.304688 L 558.542969 50.246094 L 558.628906 50.183594 L 558.707031 50.113281 L 558.789062 50.042969 L 558.863281 49.96875 L 558.9375 49.890625 L 559.003906 49.808594 L 559.070312 49.722656 L 559.136719 49.632812 L 559.195312 49.539062 L 559.25 49.441406 L 559.304688 49.339844 L 559.355469 49.238281 L 559.402344 49.128906 L 559.445312 49.015625 L 559.484375 48.898438 L 559.519531 48.78125 L 559.550781 48.65625 L 559.578125 48.527344 L 559.601562 48.398438 L 559.621094 48.265625 L 559.636719 48.125 L 559.648438 47.984375 L 559.652344 47.839844 Z M 559.65625 47.6875 "/>
<path style=" stroke:none;fill-rule:nonzero;fill:rgb(49.803922%,49.803922%,49.803922%);fill-opacity:1;" d="M 559.535156 172.921875 L 558.667969 170.703125 L 555.207031 170.703125 L 554.335938 172.921875 L 553.269531 172.921875 L 556.367188 165.328125 L 557.539062 165.328125 L 560.589844 172.921875 Z M 557.386719 167.390625 L 557.367188 167.347656 L 557.335938 167.261719 L 557.316406 167.21875 L 557.285156 167.132812 L 557.269531 167.085938 L 557.25 167.042969 L 557.21875 166.957031 L 557.203125 166.910156 L 557.191406 166.867188 L 557.175781 166.828125 L 557.160156 166.785156 L 557.148438 166.746094 L 557.132812 166.707031 L 557.109375 166.628906 L 557.097656 166.59375 L 557.085938 166.554688 L 557.0625 166.484375 L 557.027344 166.390625 L 557.019531 166.359375 L 557.007812 166.332031 L 556.992188 166.277344 L 556.980469 166.253906 L 556.976562 166.230469 L 556.96875 166.207031 L 556.960938 166.1875 L 556.949219 166.140625 L 556.941406 166.117188 L 556.941406 166.109375 L 556.9375 166.105469 L 556.9375 166.109375 L 556.933594 166.117188 L 556.925781 166.140625 L 556.917969 166.171875 L 556.910156 166.1875 L 556.90625 166.207031 L 556.890625 166.253906 L 556.882812 166.28125 L 556.875 166.304688 L 556.867188 166.335938 L 556.855469 166.363281 L 556.847656 166.394531 L 556.824219 166.457031 L 556.777344 166.597656 L 556.761719 166.636719 L 556.738281 166.714844 L 556.722656 166.753906 L 556.710938 166.796875 L 556.695312 166.835938 L 556.648438 166.964844 L 556.632812 167.011719 L 556.585938 167.140625 L 556.570312 167.1875 L 556.492188 167.402344 L 555.519531 169.898438 L 558.363281 169.898438 Z M 557.386719 167.390625 "/>
<path style=" stroke:none;fill-rule:nonzero;fill:rgb(49.803922%,49.803922%,49.803922%);fill-opacity:1;" d="M 560.027344 251.6875 L 560.023438 251.800781 L 560.019531 251.910156 L 560.007812 252.019531 L 559.992188 252.121094 L 559.972656 252.222656 L 559.945312 252.320312 L 559.917969 252.414062 L 559.882812 252.503906 L 559.84375 252.589844 L 559.800781 252.675781 L 559.753906 252.753906 L 559.652344 252.902344 L 559.535156 253.042969 L 559.472656 253.105469 L 559.40625 253.167969 L 559.339844 253.226562 L 559.265625 253.285156 L 559.191406 253.335938 L 559.113281 253.386719 L 559.035156 253.433594 L 558.953125 253.476562 L 558.867188 253.519531 L 558.777344 253.554688 L 558.6875 253.59375 L 558.5 253.65625 L 558.402344 253.683594 L 558.199219 253.730469 L 558.097656 253.75 L 557.992188 253.769531 L 557.886719 253.785156 L 557.675781 253.808594 L 557.457031 253.824219 L 557.347656 253.828125 L 554.152344 253.828125 L 554.152344 246.230469 L 556.910156 246.230469 L 557.160156 246.238281 L 557.277344 246.242188 L 557.394531 246.25 L 557.507812 246.257812 L 557.621094 246.269531 L 557.730469 246.285156 L 557.835938 246.300781 L 558.039062 246.339844 L 558.136719 246.363281 L 558.230469 246.386719 L 558.324219 246.414062 L 558.410156 246.441406 L 558.496094 246.472656 L 558.660156 246.542969 L 558.734375 246.582031 L 558.808594 246.625 L 558.878906 246.667969 L 558.945312 246.714844 L 559.011719 246.765625 L 559.070312 246.816406 L 559.128906 246.871094 L 559.183594 246.925781 L 559.234375 246.984375 L 559.28125 247.046875 L 559.324219 247.109375 L 559.363281 247.175781 L 559.402344 247.246094 L 559.4375 247.316406 L 559.46875 247.390625 L 559.496094 247.464844 L 559.519531 247.542969 L 559.539062 247.625 L 559.570312 247.796875 L 559.578125 247.886719 L 559.585938 248.074219 L 559.585938 248.140625 L 559.582031 248.203125 L 559.578125 248.261719 L 559.570312 248.324219 L 559.5625 248.382812 L 559.550781 248.445312 L 559.527344 248.5625 L 559.511719 248.617188 L 559.492188 248.675781 L 559.476562 248.730469 L 559.457031 248.785156 L 559.433594 248.839844 L 559.410156 248.890625 L 559.355469 248.992188 L 559.324219 249.042969 L 559.292969 249.089844 L 559.261719 249.140625 L 559.222656 249.1875 L 559.1875 249.230469 L 559.109375 249.316406 L 559.066406 249.359375 L 559.023438 249.398438 L 558.976562 249.4375 L 558.929688 249.472656 L 558.878906 249.511719 L 558.824219 249.546875 L 558.773438 249.578125 L 558.714844 249.609375 L 558.660156 249.640625 L 558.542969 249.695312 L 558.480469 249.722656 L 558.414062 249.746094 L 558.28125 249.785156 L 558.140625 249.824219 L 558.320312 249.847656 L 558.40625 249.863281 L 558.570312 249.902344 L 558.652344 249.925781 L 558.730469 249.949219 L 558.804688 249.972656 L 558.878906 250.003906 L 558.949219 250.03125 L 559.019531 250.066406 L 559.085938 250.097656 L 559.152344 250.132812 L 559.277344 250.210938 L 559.332031 250.25 L 559.390625 250.292969 L 559.441406 250.339844 L 559.492188 250.382812 L 559.542969 250.429688 L 559.589844 250.480469 L 559.632812 250.53125 L 559.675781 250.585938 L 559.714844 250.636719 L 559.75 250.695312 L 559.785156 250.75 L 559.820312 250.8125 L 559.847656 250.871094 L 559.878906 250.933594 L 559.902344 250.996094 L 559.925781 251.0625 L 559.949219 251.125 L 559.96875 251.191406 L 559.984375 251.261719 L 559.996094 251.328125 L 560.007812 251.398438 L 560.023438 251.539062 L 560.027344 251.613281 Z M 558.550781 248.199219 L 558.546875 248.082031 L 558.535156 247.96875 L 558.511719 247.863281 L 558.484375 247.765625 L 558.445312 247.671875 L 558.398438 247.589844 L 558.34375 247.511719 L 558.28125 247.441406 L 558.210938 247.378906 L 558.128906 247.320312 L 558.042969 247.269531 L 557.945312 247.226562 L 557.84375 247.1875 L 557.734375 247.152344 L 557.617188 247.125 L 557.488281 247.097656 L 557.355469 247.082031 L 557.214844 247.066406 L 557.066406 247.058594 L 555.179688 247.058594 L 555.179688 249.460938 L 557 249.460938 L 557.171875 249.453125 L 557.25 249.449219 L 557.328125 249.441406 L 557.40625 249.429688 L 557.546875 249.40625 L 557.613281 249.390625 L 557.675781 249.375 L 557.738281 249.355469 L 557.796875 249.335938 L 557.855469 249.3125 L 557.910156 249.289062 L 557.960938 249.265625 L 558.011719 249.238281 L 558.058594 249.210938 L 558.101562 249.183594 L 558.144531 249.152344 L 558.183594 249.121094 L 558.222656 249.085938 L 558.257812 249.050781 L 558.289062 249.015625 L 558.351562 248.9375 L 558.378906 248.898438 L 558.425781 248.8125 L 558.445312 248.769531 L 558.464844 248.722656 L 558.496094 248.628906 L 558.519531 248.527344 L 558.527344 248.476562 L 558.542969 248.367188 L 558.550781 248.257812 Z M 558.988281 251.605469 L 558.980469 251.464844 L 558.976562 251.398438 L 558.953125 251.273438 L 558.9375 251.210938 L 558.921875 251.152344 L 558.902344 251.097656 L 558.878906 251.042969 L 558.824219 250.941406 L 558.796875 250.894531 L 558.765625 250.847656 L 558.695312 250.761719 L 558.65625 250.722656 L 558.570312 250.644531 L 558.523438 250.609375 L 558.476562 250.578125 L 558.425781 250.546875 L 558.371094 250.515625 L 558.261719 250.460938 L 558.203125 250.4375 L 558.140625 250.414062 L 558.078125 250.394531 L 557.945312 250.355469 L 557.875 250.339844 L 557.808594 250.324219 L 557.660156 250.300781 L 557.511719 250.285156 L 557.433594 250.277344 L 557.351562 250.269531 L 557.269531 250.265625 L 555.179688 250.265625 L 555.179688 253.003906 L 557.257812 253.003906 L 557.335938 253 L 557.558594 252.988281 L 557.699219 252.972656 L 557.769531 252.960938 L 557.96875 252.925781 L 558.035156 252.910156 L 558.09375 252.890625 L 558.15625 252.871094 L 558.214844 252.847656 L 558.324219 252.800781 L 558.375 252.773438 L 558.476562 252.710938 L 558.523438 252.679688 L 558.566406 252.644531 L 558.652344 252.566406 L 558.691406 252.523438 L 558.726562 252.480469 L 558.761719 252.433594 L 558.824219 252.332031 L 558.851562 252.28125 L 558.878906 252.226562 L 558.902344 252.167969 L 558.921875 252.105469 L 558.9375 252.042969 L 558.953125 251.976562 L 558.964844 251.910156 L 558.976562 251.835938 L 558.984375 251.6875 Z M 558.988281 251.605469 "/>
<path style=" stroke:none;fill-rule:nonzero;fill:rgb(49.803922%,49.803922%,49.803922%);fill-opacity:1;" d="M 559.242188 213.375 L 556.960938 210.054688 L 554.632812 213.375 L 553.496094 213.375 L 556.382812 209.429688 L 553.714844 205.78125 L 554.851562 205.78125 L 556.964844 208.761719 L 559.019531 205.78125 L 560.15625 205.78125 L 557.558594 209.390625 L 560.378906 213.375 Z M 559.242188 213.375 "/>
<path style=" stroke:none;fill-rule:nonzero;fill:rgb(49.803922%,49.803922%,49.803922%);fill-opacity:1;" d="M 554.152344 132.46875 L 554.152344 124.875 L 559.914062 124.875 L 559.914062 125.714844 L 555.179688 125.714844 L 555.179688 128.152344 L 559.589844 128.152344 L 559.589844 128.980469 L 555.179688 128.980469 L 555.179688 131.628906 L 560.136719 131.628906 L 560.136719 132.46875 Z M 554.152344 132.46875 "/>
<path style=" stroke:none;fill-rule:nonzero;fill:rgb(100%,0%,0%);fill-opacity:1;" d="M 461.824219 67.746094 L 461.824219 66.921875 L 463.757812 66.921875 L 463.757812 61.078125 L 462.042969 62.300781 L 462.042969 61.386719 L 463.839844 60.152344 L 464.734375 60.152344 L 464.734375 66.921875 L 466.582031 66.921875 L 466.582031 67.746094 Z M 461.824219 67.746094 "/>
<path style=" stroke:none;fill-rule:nonzero;fill:rgb(0%,0%,100%);fill-opacity:1;" d="M 402.859375 98.085938 L 402.859375 97.402344 L 402.914062 97.277344 L 403.03125 97.035156 L 403.097656 96.921875 L 403.160156 96.808594 L 403.230469 96.699219 L 403.300781 96.59375 L 403.375 96.488281 L 403.449219 96.386719 L 403.527344 96.289062 L 403.605469 96.195312 L 403.769531 96.007812 L 403.933594 95.828125 L 404.101562 95.660156 L 404.273438 95.496094 L 404.363281 95.417969 L 404.535156 95.261719 L 404.621094 95.1875 L 404.710938 95.113281 L 404.882812 94.964844 L 405.054688 94.824219 L 405.136719 94.757812 L 405.222656 94.6875 L 405.394531 94.554688 L 405.476562 94.488281 L 405.710938 94.289062 L 405.859375 94.15625 L 405.929688 94.085938 L 406 94.019531 L 406.132812 93.886719 L 406.195312 93.816406 L 406.253906 93.75 L 406.3125 93.679688 L 406.367188 93.609375 L 406.417969 93.539062 L 406.464844 93.464844 L 406.511719 93.394531 L 406.597656 93.246094 L 406.632812 93.167969 L 406.695312 93.011719 L 406.71875 92.929688 L 406.738281 92.84375 L 406.761719 92.671875 L 406.769531 92.582031 L 406.769531 92.425781 L 406.765625 92.363281 L 406.761719 92.304688 L 406.746094 92.1875 L 406.722656 92.078125 L 406.707031 92.023438 L 406.691406 91.972656 L 406.675781 91.925781 L 406.652344 91.875 L 406.632812 91.828125 L 406.609375 91.78125 L 406.554688 91.695312 L 406.527344 91.65625 L 406.464844 91.578125 L 406.394531 91.507812 L 406.316406 91.445312 L 406.277344 91.417969 L 406.191406 91.363281 L 406.148438 91.339844 L 406.101562 91.316406 L 406.050781 91.296875 L 406.003906 91.277344 L 405.953125 91.261719 L 405.898438 91.246094 L 405.847656 91.230469 L 405.683594 91.195312 L 405.625 91.1875 L 405.449219 91.175781 L 405.328125 91.175781 L 405.269531 91.179688 L 405.214844 91.183594 L 405.15625 91.1875 L 405.046875 91.203125 L 404.992188 91.214844 L 404.941406 91.226562 L 404.886719 91.242188 L 404.835938 91.253906 L 404.785156 91.273438 L 404.738281 91.292969 L 404.6875 91.3125 L 404.640625 91.332031 L 404.597656 91.355469 L 404.550781 91.382812 L 404.421875 91.464844 L 404.382812 91.5 L 404.34375 91.53125 L 404.304688 91.566406 L 404.269531 91.601562 L 404.199219 91.679688 L 404.136719 91.765625 L 404.109375 91.808594 L 404.054688 91.902344 L 404.03125 91.949219 L 404.007812 92 L 403.988281 92.050781 L 403.96875 92.105469 L 403.9375 92.214844 L 403.921875 92.273438 L 403.910156 92.332031 L 403.902344 92.394531 L 403.890625 92.457031 L 402.902344 92.367188 L 402.910156 92.285156 L 402.925781 92.203125 L 402.941406 92.125 L 402.980469 91.96875 L 403.003906 91.890625 L 403.03125 91.816406 L 403.09375 91.667969 L 403.128906 91.59375 L 403.164062 91.523438 L 403.203125 91.453125 L 403.289062 91.320312 L 403.441406 91.132812 L 403.496094 91.074219 L 403.554688 91.019531 L 403.679688 90.910156 L 403.746094 90.859375 L 403.816406 90.808594 L 403.886719 90.761719 L 403.960938 90.71875 L 404.039062 90.675781 L 404.117188 90.636719 L 404.195312 90.601562 L 404.28125 90.566406 L 404.367188 90.535156 L 404.457031 90.503906 L 404.550781 90.476562 L 404.644531 90.453125 L 404.742188 90.433594 L 404.945312 90.402344 L 405.050781 90.390625 L 405.160156 90.382812 L 405.273438 90.378906 L 405.496094 90.378906 L 405.605469 90.382812 L 405.714844 90.390625 L 405.820312 90.398438 L 405.921875 90.410156 L 406.117188 90.441406 L 406.210938 90.464844 L 406.304688 90.484375 L 406.394531 90.511719 L 406.480469 90.539062 L 406.566406 90.570312 L 406.644531 90.605469 L 406.726562 90.640625 L 406.875 90.71875 L 406.945312 90.765625 L 407.011719 90.808594 L 407.136719 90.910156 L 407.199219 90.964844 L 407.253906 91.019531 L 407.308594 91.082031 L 407.359375 91.140625 L 407.410156 91.207031 L 407.496094 91.339844 L 407.574219 91.488281 L 407.605469 91.5625 L 407.636719 91.640625 L 407.664062 91.722656 L 407.6875 91.804688 L 407.710938 91.890625 L 407.742188 92.070312 L 407.753906 92.164062 L 407.761719 92.261719 L 407.769531 92.457031 L 407.765625 92.535156 L 407.761719 92.609375 L 407.746094 92.757812 L 407.734375 92.832031 L 407.71875 92.902344 L 407.699219 92.976562 L 407.679688 93.046875 L 407.65625 93.117188 L 407.628906 93.183594 L 407.601562 93.253906 L 407.570312 93.320312 L 407.539062 93.390625 L 407.46875 93.523438 L 407.429688 93.585938 L 407.390625 93.652344 L 407.351562 93.714844 L 407.308594 93.78125 L 407.167969 93.96875 L 407.117188 94.027344 L 407.015625 94.152344 L 406.851562 94.328125 L 406.734375 94.445312 L 406.671875 94.503906 L 406.613281 94.5625 L 406.488281 94.679688 L 406.425781 94.734375 L 406.359375 94.792969 L 406.296875 94.847656 L 406.234375 94.90625 L 406.167969 94.960938 L 406.101562 95.019531 L 406.035156 95.074219 L 405.972656 95.128906 L 405.242188 95.730469 L 405.179688 95.785156 L 405.113281 95.839844 L 404.988281 95.949219 L 404.929688 96.003906 L 404.867188 96.058594 L 404.75 96.167969 L 404.640625 96.277344 L 404.585938 96.335938 L 404.53125 96.390625 L 404.480469 96.445312 L 404.429688 96.503906 L 404.382812 96.558594 L 404.332031 96.617188 L 404.285156 96.671875 L 404.242188 96.730469 L 404.199219 96.785156 L 404.15625 96.84375 L 404.078125 96.960938 L 404.042969 97.019531 L 404.011719 97.078125 L 403.980469 97.140625 L 403.953125 97.199219 L 403.925781 97.261719 L 407.886719 97.261719 L 407.886719 98.085938 Z M 402.859375 98.085938 "/>
<path style=" stroke:none;fill-rule:nonzero;fill:rgb(100%,64.705882%,0%);fill-opacity:1;" d="M 349.277344 131.382812 L 349.273438 131.488281 L 349.269531 131.589844 L 349.261719 131.6875 L 349.25 131.785156 L 349.234375 131.878906 L 349.214844 131.972656 L 349.191406 132.0625 L 349.167969 132.148438 L 349.136719 132.234375 L 349.105469 132.316406 L 349.070312 132.398438 L 349.03125 132.476562 L 348.945312 132.625 L 348.898438 132.695312 L 348.84375 132.765625 L 348.789062 132.828125 L 348.734375 132.894531 L 348.609375 133.011719 L 348.542969 133.066406 L 348.472656 133.121094 L 348.324219 133.214844 L 348.246094 133.261719 L 348.160156 133.300781 L 348.078125 133.339844 L 347.988281 133.378906 L 347.894531 133.414062 L 347.800781 133.445312 L 347.703125 133.472656 L 347.5 133.519531 L 347.394531 133.535156 L 347.285156 133.554688 L 347.171875 133.566406 L 347.058594 133.574219 L 346.941406 133.582031 L 346.824219 133.585938 L 346.699219 133.589844 L 346.425781 133.582031 L 346.296875 133.574219 L 346.171875 133.5625 L 346.050781 133.546875 L 345.933594 133.527344 L 345.820312 133.503906 L 345.710938 133.480469 L 345.507812 133.417969 L 345.414062 133.378906 L 345.234375 133.300781 L 345.152344 133.257812 L 345.070312 133.210938 L 344.992188 133.164062 L 344.917969 133.113281 L 344.847656 133.0625 L 344.714844 132.953125 L 344.65625 132.894531 L 344.597656 132.832031 L 344.542969 132.773438 L 344.492188 132.707031 L 344.441406 132.644531 L 344.398438 132.578125 L 344.355469 132.507812 L 344.316406 132.4375 L 344.246094 132.296875 L 344.21875 132.222656 L 344.1875 132.144531 L 344.140625 131.996094 L 344.117188 131.917969 L 344.097656 131.839844 L 344.082031 131.765625 L 344.066406 131.6875 L 344.042969 131.53125 L 345.046875 131.4375 L 345.054688 131.5 L 345.066406 131.558594 L 345.078125 131.613281 L 345.089844 131.671875 L 345.121094 131.78125 L 345.140625 131.835938 L 345.179688 131.9375 L 345.203125 131.988281 L 345.226562 132.035156 L 345.253906 132.085938 L 345.28125 132.128906 L 345.308594 132.175781 L 345.371094 132.261719 L 345.441406 132.339844 L 345.480469 132.378906 L 345.558594 132.449219 L 345.601562 132.480469 L 345.695312 132.542969 L 345.742188 132.570312 L 345.84375 132.625 L 345.898438 132.648438 L 345.953125 132.667969 L 346.070312 132.707031 L 346.128906 132.722656 L 346.195312 132.738281 L 346.328125 132.761719 L 346.46875 132.777344 L 346.542969 132.78125 L 346.621094 132.785156 L 346.699219 132.785156 L 346.84375 132.78125 L 346.980469 132.773438 L 347.109375 132.753906 L 347.234375 132.726562 L 347.355469 132.695312 L 347.464844 132.65625 L 347.570312 132.609375 L 347.667969 132.554688 L 347.761719 132.492188 L 347.847656 132.425781 L 347.929688 132.347656 L 348 132.265625 L 348.0625 132.175781 L 348.117188 132.078125 L 348.164062 131.976562 L 348.203125 131.867188 L 348.230469 131.746094 L 348.25 131.621094 L 348.265625 131.492188 L 348.269531 131.351562 L 348.265625 131.269531 L 348.261719 131.191406 L 348.25 131.113281 L 348.238281 131.042969 L 348.222656 130.972656 L 348.199219 130.90625 L 348.175781 130.84375 L 348.148438 130.785156 L 348.117188 130.730469 L 348.078125 130.679688 L 348.042969 130.628906 L 348.003906 130.578125 L 347.917969 130.492188 L 347.871094 130.449219 L 347.824219 130.410156 L 347.777344 130.375 L 347.726562 130.339844 L 347.671875 130.308594 L 347.617188 130.28125 L 347.5625 130.25 L 347.503906 130.226562 L 347.445312 130.199219 L 347.386719 130.179688 L 347.328125 130.15625 L 347.265625 130.140625 L 347.207031 130.125 L 347.140625 130.109375 L 347.078125 130.097656 L 347.011719 130.085938 L 346.949219 130.074219 L 346.886719 130.066406 L 346.824219 130.0625 L 346.761719 130.054688 L 346.703125 130.050781 L 346.640625 130.042969 L 346.582031 130.042969 L 346.527344 130.039062 L 346.46875 130.039062 L 346.414062 130.035156 L 345.863281 130.035156 L 345.863281 129.195312 L 346.503906 129.195312 L 346.558594 129.191406 L 346.617188 129.1875 L 346.671875 129.183594 L 346.90625 129.152344 L 347.023438 129.128906 L 347.082031 129.113281 L 347.191406 129.082031 L 347.246094 129.0625 L 347.300781 129.039062 L 347.402344 128.992188 L 347.503906 128.9375 L 347.550781 128.90625 L 347.644531 128.835938 L 347.6875 128.800781 L 347.769531 128.71875 L 347.804688 128.675781 L 347.875 128.582031 L 347.9375 128.480469 L 347.964844 128.425781 L 348.011719 128.308594 L 348.027344 128.246094 L 348.042969 128.179688 L 348.054688 128.109375 L 348.0625 128.039062 L 348.066406 127.964844 L 348.070312 127.886719 L 348.066406 127.765625 L 348.054688 127.652344 L 348.035156 127.542969 L 348.011719 127.441406 L 347.980469 127.339844 L 347.9375 127.25 L 347.890625 127.160156 L 347.839844 127.078125 L 347.777344 127 L 347.707031 126.925781 L 347.632812 126.859375 L 347.550781 126.796875 L 347.464844 126.746094 L 347.367188 126.699219 L 347.265625 126.660156 L 347.15625 126.628906 L 347.039062 126.601562 L 346.914062 126.585938 L 346.785156 126.574219 L 346.644531 126.570312 L 346.519531 126.574219 L 346.398438 126.582031 L 346.28125 126.601562 L 346.171875 126.625 L 346.066406 126.652344 L 345.964844 126.6875 L 345.867188 126.730469 L 345.773438 126.78125 L 345.6875 126.835938 L 345.605469 126.898438 L 345.53125 126.96875 L 345.460938 127.042969 L 345.398438 127.121094 L 345.34375 127.207031 L 345.292969 127.296875 L 345.25 127.390625 L 345.214844 127.492188 L 345.1875 127.597656 L 345.164062 127.710938 L 345.148438 127.828125 L 344.171875 127.75 L 344.183594 127.652344 L 344.203125 127.554688 L 344.222656 127.460938 L 344.269531 127.28125 L 344.300781 127.195312 L 344.332031 127.113281 L 344.367188 127.03125 L 344.40625 126.953125 L 344.445312 126.878906 L 344.492188 126.804688 L 344.539062 126.734375 L 344.585938 126.667969 L 344.636719 126.601562 L 344.746094 126.476562 L 344.863281 126.367188 L 344.925781 126.3125 L 344.992188 126.261719 L 345.058594 126.214844 L 345.128906 126.167969 L 345.199219 126.125 L 345.347656 126.046875 L 345.425781 126.011719 L 345.503906 125.980469 L 345.585938 125.949219 L 345.667969 125.921875 L 345.75 125.898438 L 345.921875 125.851562 L 346.011719 125.832031 L 346.101562 125.816406 L 346.28125 125.792969 L 346.46875 125.777344 L 346.5625 125.773438 L 346.78125 125.773438 L 347.023438 125.789062 L 347.25 125.8125 L 347.460938 125.851562 L 347.5625 125.875 L 347.65625 125.902344 L 347.75 125.933594 L 347.929688 126.003906 L 348.011719 126.039062 L 348.089844 126.078125 L 348.167969 126.121094 L 348.242188 126.164062 L 348.3125 126.210938 L 348.378906 126.261719 L 348.441406 126.3125 L 348.558594 126.421875 L 348.609375 126.476562 L 348.660156 126.535156 L 348.753906 126.660156 L 348.792969 126.722656 L 348.832031 126.789062 L 348.867188 126.859375 L 348.898438 126.929688 L 348.925781 127.003906 L 348.953125 127.074219 L 348.976562 127.152344 L 348.996094 127.226562 L 349.015625 127.304688 L 349.03125 127.378906 L 349.042969 127.460938 L 349.054688 127.539062 L 349.0625 127.621094 L 349.066406 127.699219 L 349.066406 127.851562 L 349.0625 127.914062 L 349.058594 127.980469 L 349.035156 128.167969 L 349.023438 128.230469 L 349.007812 128.289062 L 348.992188 128.351562 L 348.976562 128.410156 L 348.957031 128.464844 L 348.933594 128.523438 L 348.886719 128.632812 L 348.859375 128.683594 L 348.828125 128.738281 L 348.796875 128.789062 L 348.761719 128.835938 L 348.726562 128.886719 L 348.6875 128.933594 L 348.648438 128.976562 L 348.605469 129.023438 L 348.5625 129.066406 L 348.515625 129.105469 L 348.46875 129.148438 L 348.417969 129.1875 L 348.363281 129.222656 L 348.308594 129.261719 L 348.253906 129.296875 L 348.191406 129.332031 L 348.132812 129.363281 L 348.070312 129.394531 L 348.003906 129.421875 L 347.9375 129.453125 L 347.867188 129.476562 L 347.792969 129.503906 L 347.71875 129.523438 L 347.640625 129.546875 L 347.476562 129.585938 L 347.476562 129.605469 L 347.65625 129.628906 L 347.742188 129.644531 L 347.90625 129.683594 L 347.984375 129.703125 L 348.058594 129.730469 L 348.132812 129.753906 L 348.273438 129.816406 L 348.339844 129.847656 L 348.40625 129.882812 L 348.46875 129.917969 L 348.527344 129.953125 L 348.582031 129.992188 L 348.640625 130.03125 L 348.742188 130.117188 L 348.835938 130.210938 L 348.878906 130.257812 L 348.957031 130.359375 L 349.027344 130.460938 L 349.058594 130.515625 L 349.089844 130.574219 L 349.117188 130.628906 L 349.140625 130.6875 L 349.164062 130.75 L 349.183594 130.808594 L 349.222656 130.933594 L 349.234375 130.996094 L 349.25 131.058594 L 349.257812 131.121094 L 349.273438 131.253906 L 349.277344 131.316406 Z M 349.277344 131.382812 "/>
<path style=" stroke:none;fill-rule:nonzero;fill:rgb(0%,0%,0%);fill-opacity:1;" d="M 302.078125 19.328125 L 302.078125 19.472656 L 302.066406 19.613281 L 302.054688 19.75 L 302.007812 20.007812 L 301.976562 20.132812 L 301.9375 20.25 L 301.894531 20.363281 L 301.847656 20.472656 L 301.792969 20.582031 L 301.734375 20.679688 L 301.667969 20.777344 L 301.601562 20.871094 L 301.53125 20.960938 L 301.457031 21.046875 L 301.375 21.128906 L 301.292969 21.207031 L 301.207031 21.28125 L 301.113281 21.355469 L 301.019531 21.421875 L 300.921875 21.484375 L 300.820312 21.542969 L 300.714844 21.597656 L 300.605469 21.652344 L 300.496094 21.699219 L 300.378906 21.746094 L 300.261719 21.789062 L 300.019531 21.859375 L 299.890625 21.894531 L 299.761719 21.921875 L 299.632812 21.945312 L 299.5 21.96875 L 299.367188 21.988281 L 299.230469 22.003906 L 299.097656 22.019531 L 298.957031 22.03125 L 298.820312 22.039062 L 298.679688 22.042969 L 294.628906 22.042969 L 294.628906 12.410156 L 298.128906 12.410156 L 298.441406 12.417969 L 298.59375 12.425781 L 298.742188 12.433594 L 298.886719 12.445312 L 299.027344 12.460938 L 299.164062 12.480469 L 299.296875 12.5 L 299.429688 12.523438 L 299.554688 12.546875 L 299.679688 12.574219 L 299.800781 12.605469 L 299.917969 12.640625 L 300.027344 12.675781 L 300.136719 12.71875 L 300.242188 12.761719 L 300.34375 12.808594 L 300.441406 12.855469 L 300.535156 12.910156 L 300.621094 12.964844 L 300.707031 13.023438 L 300.789062 13.085938 L 300.867188 13.152344 L 300.9375 13.21875 L 301.007812 13.292969 L 301.070312 13.367188 L 301.132812 13.445312 L 301.1875 13.523438 L 301.238281 13.609375 L 301.285156 13.695312 L 301.332031 13.785156 L 301.371094 13.878906 L 301.40625 13.976562 L 301.433594 14.074219 L 301.460938 14.179688 L 301.480469 14.285156 L 301.496094 14.394531 L 301.507812 14.511719 L 301.515625 14.628906 L 301.519531 14.75 L 301.515625 14.828125 L 301.515625 14.910156 L 301.507812 14.988281 L 301.5 15.0625 L 301.488281 15.140625 L 301.476562 15.214844 L 301.445312 15.363281 L 301.425781 15.4375 L 301.355469 15.648438 L 301.324219 15.714844 L 301.296875 15.78125 L 301.226562 15.914062 L 301.148438 16.039062 L 301.105469 16.097656 L 301.058594 16.15625 L 301.015625 16.214844 L 300.914062 16.324219 L 300.804688 16.425781 L 300.746094 16.476562 L 300.621094 16.570312 L 300.554688 16.613281 L 300.484375 16.65625 L 300.417969 16.695312 L 300.34375 16.734375 L 300.195312 16.804688 L 300.117188 16.835938 L 300.035156 16.867188 L 299.949219 16.894531 L 299.777344 16.941406 L 299.6875 16.964844 L 299.914062 16.996094 L 300.023438 17.015625 L 300.128906 17.039062 L 300.234375 17.066406 L 300.335938 17.09375 L 300.433594 17.125 L 300.527344 17.15625 L 300.621094 17.191406 L 300.710938 17.230469 L 300.800781 17.273438 L 300.886719 17.316406 L 300.96875 17.359375 L 301.046875 17.40625 L 301.125 17.457031 L 301.199219 17.507812 L 301.269531 17.5625 L 301.335938 17.617188 L 301.402344 17.675781 L 301.464844 17.738281 L 301.523438 17.800781 L 301.578125 17.863281 L 301.632812 17.929688 L 301.679688 18 L 301.730469 18.070312 L 301.816406 18.21875 L 301.851562 18.292969 L 301.890625 18.375 L 301.921875 18.453125 L 301.953125 18.535156 L 301.976562 18.617188 L 302.003906 18.703125 L 302.023438 18.789062 L 302.039062 18.875 L 302.054688 18.964844 L 302.066406 19.050781 L 302.074219 19.144531 L 302.078125 19.234375 Z M 300.207031 14.90625 L 300.199219 14.753906 L 300.183594 14.613281 L 300.15625 14.480469 L 300.121094 14.355469 L 300.074219 14.238281 L 300.015625 14.132812 L 299.945312 14.035156 L 299.863281 13.945312 L 299.773438 13.863281 L 299.671875 13.792969 L 299.5625 13.730469 L 299.441406 13.671875 L 299.308594 13.621094 L 299.167969 13.578125 L 299.019531 13.542969 L 298.859375 13.511719 L 298.691406 13.488281 L 298.511719 13.472656 L 298.324219 13.460938 L 298.128906 13.457031 L 295.933594 13.457031 L 295.933594 16.507812 L 298.128906 16.507812 L 298.242188 16.503906 L 298.351562 16.5 L 298.457031 16.496094 L 298.558594 16.488281 L 298.65625 16.480469 L 298.753906 16.46875 L 298.933594 16.4375 L 299.097656 16.398438 L 299.175781 16.371094 L 299.25 16.347656 L 299.324219 16.320312 L 299.457031 16.257812 L 299.519531 16.226562 L 299.578125 16.191406 L 299.636719 16.152344 L 299.691406 16.117188 L 299.742188 16.074219 L 299.835938 15.988281 L 299.875 15.941406 L 299.917969 15.894531 L 299.988281 15.792969 L 300.019531 15.738281 L 300.074219 15.628906 L 300.097656 15.570312 L 300.117188 15.511719 L 300.136719 15.449219 L 300.167969 15.324219 L 300.179688 15.257812 L 300.1875 15.191406 L 300.203125 15.050781 L 300.203125 14.980469 Z M 300.757812 19.226562 L 300.757812 19.136719 L 300.753906 19.050781 L 300.746094 18.964844 L 300.730469 18.882812 L 300.71875 18.804688 L 300.699219 18.726562 L 300.675781 18.652344 L 300.621094 18.511719 L 300.589844 18.449219 L 300.554688 18.382812 L 300.476562 18.265625 L 300.433594 18.210938 L 300.386719 18.15625 L 300.285156 18.054688 L 300.230469 18.007812 L 300.171875 17.964844 L 300.109375 17.921875 L 300.046875 17.882812 L 299.980469 17.84375 L 299.839844 17.773438 L 299.761719 17.742188 L 299.6875 17.714844 L 299.605469 17.6875 L 299.523438 17.664062 L 299.4375 17.640625 L 299.351562 17.621094 L 299.261719 17.601562 L 299.171875 17.585938 L 299.078125 17.570312 L 298.984375 17.558594 L 298.886719 17.546875 L 298.789062 17.539062 L 298.683594 17.535156 L 298.582031 17.527344 L 298.476562 17.527344 L 298.367188 17.523438 L 295.933594 17.523438 L 295.933594 20.996094 L 298.664062 20.996094 L 298.761719 20.988281 L 298.855469 20.984375 L 298.949219 20.976562 L 299.039062 20.96875 L 299.128906 20.957031 L 299.214844 20.945312 L 299.386719 20.914062 L 299.46875 20.898438 L 299.550781 20.878906 L 299.628906 20.855469 L 299.703125 20.832031 L 299.777344 20.800781 L 299.851562 20.773438 L 299.917969 20.742188 L 299.984375 20.707031 L 300.050781 20.667969 L 300.109375 20.628906 L 300.171875 20.585938 L 300.28125 20.492188 L 300.335938 20.441406 L 300.382812 20.390625 L 300.429688 20.332031 L 300.472656 20.273438 L 300.515625 20.210938 L 300.554688 20.148438 L 300.589844 20.082031 L 300.621094 20.011719 L 300.648438 19.9375 L 300.675781 19.859375 L 300.699219 19.78125 L 300.71875 19.695312 L 300.730469 19.609375 L 300.746094 19.519531 L 300.753906 19.425781 L 300.757812 19.328125 Z M 300.757812 19.226562 "/>
</g>
</svg>
