<?xml version="1.0" encoding="UTF-8"?>
<svg xmlns="http://www.w3.org/2000/svg" xmlns:xlink="http://www.w3.org/1999/xlink" width="432pt" height="288pt" viewBox="0 0 432 288" version="1.1">
<defs>
<clipPath id="clip1">
  <path d="M 0 0 L 216 0 L 216 144 L 0 144 Z M 0 0 "/>
</clipPath>
<clipPath id="clip2">
  <path d="M 8.21875 5.480469 L 210.519531 5.480469 L 210.519531 135.78125 L 8.21875 135.78125 Z M 8.21875 5.480469 "/>
</clipPath>
<clipPath id="clip3">
  <path d="M 216 0 L 432 0 L 432 144 L 216 144 Z M 216 0 "/>
</clipPath>
<clipPath id="clip4">
  <path d="M 224.21875 5.480469 L 426.519531 5.480469 L 426.519531 135.78125 L 224.21875 135.78125 Z M 224.21875 5.480469 "/>
</clipPath>
<clipPath id="clip5">
  <path d="M 0 144 L 216 144 L 216 288 L 0 288 Z M 0 144 "/>
</clipPath>
<clipPath id="clip6">
  <path d="M 8.21875 149.480469 L 210.519531 149.480469 L 210.519531 279.78125 L 8.21875 279.78125 Z M 8.21875 149.480469 "/>
</clipPath>
<clipPath id="clip7">
  <path d="M 216 144 L 432 144 L 432 288 L 216 288 Z M 216 144 "/>
</clipPath>
<clipPath id="clip8">
  <path d="M 224.21875 149.480469 L 426.519531 149.480469 L 426.519531 279.78125 L 224.21875 279.78125 Z M 224.21875 149.480469 "/>
</clipPath>
</defs>
<g id="surface687">
<rect x="0" y="0" width="432" height="288" style="fill:rgb(100%,100%,100%);fill-opacity:1;stroke:none;"/>
<path style=" stroke:none;fill-rule:nonzero;fill:rgb(100%,100%,100%);fill-opacity:1;" d="M 0 144 L 216 144 L 216 0 L 0 0 Z M 0 144 "/>
<g clip-path="url(#clip1)" clip-rule="nonzero">
<path style="fill:none;stroke-width:1.066978;stroke-linecap:round;stroke-linejoin:round;stroke:rgb(100%,100%,100%);stroke-opacity:1;stroke-miterlimit:10;" d="M 0 144 L 216 144 L 216 0 L 0 0 Z M 0 144 "/>
</g>
<g clip-path="url(#clip2)" clip-rule="nonzero">
<path style="fill-rule:nonzero;fill:rgb(100%,100%,100%);fill-opacity:1;stroke-width:1.066978;stroke-linecap:round;stroke-linejoin:round;stroke:rgb(100%,100%,100%);stroke-opacity:1;stroke-miterlimit:10;" d="M 8.21875 135.78125 L 210.519531 135.78125 L 210.519531 5.480469 L 8.21875 5.480469 Z M 8.21875 135.78125 "/>
</g>
<path style="fill:none;stroke-width:1.066978;stroke-linecap:round;stroke-linejoin:round;stroke:rgb(0%,0%,0%);stroke-opacity:1;stroke-miterlimit:10;" d="M 139.511719 70.628906 L 170.039062 70.628906 "/>
<path style="fill:none;stroke-width:1.066978;stroke-linecap:round;stroke-linejoin:round;stroke:rgb(0%,0%,0%);stroke-opacity:1;stroke-miterlimit:10;" d="M 139.511719 29.910156 L 200.5625 29.910156 "/>
<path style="fill:none;stroke-width:1.066978;stroke-linecap:round;stroke-linejoin:round;stroke:rgb(0%,0%,0%);stroke-opacity:1;stroke-miterlimit:10;" d="M 47.9375 111.347656 L 108.988281 111.347656 "/>
<path style="fill:none;stroke-width:1.066978;stroke-linecap:round;stroke-linejoin:round;stroke:rgb(0%,0%,0%);stroke-opacity:1;stroke-miterlimit:10;" d="M 47.9375 80.808594 L 47.9375 80.808594 "/>
<path style="fill:none;stroke-width:1.066978;stroke-linecap:round;stroke-linejoin:round;stroke:rgb(0%,0%,0%);stroke-opacity:1;stroke-miterlimit:10;" d="M 47.9375 50.269531 L 139.511719 50.269531 "/>
<path style="fill:none;stroke-width:1.066978;stroke-linecap:round;stroke-linejoin:round;stroke:rgb(0%,0%,0%);stroke-opacity:1;stroke-miterlimit:10;" d="M 139.511719 50.269531 L 139.511719 70.628906 "/>
<path style="fill:none;stroke-width:1.066978;stroke-linecap:round;stroke-linejoin:round;stroke:rgb(0%,0%,0%);stroke-opacity:1;stroke-miterlimit:10;" d="M 139.511719 50.269531 L 139.511719 29.910156 "/>
<path style="fill:none;stroke-width:1.066978;stroke-linecap:round;stroke-linejoin:round;stroke:rgb(0%,0%,0%);stroke-opacity:1;stroke-miterlimit:10;" d="M 47.9375 80.808594 L 47.9375 111.347656 "/>
<path style="fill:none;stroke-width:1.066978;stroke-linecap:round;stroke-linejoin:round;stroke:rgb(0%,0%,0%);stroke-opacity:1;stroke-miterlimit:10;" d="M 47.9375 80.808594 L 47.9375 80.808594 "/>
<path style="fill:none;stroke-width:1.066978;stroke-linecap:round;stroke-linejoin:round;stroke:rgb(0%,0%,0%);stroke-opacity:1;stroke-miterlimit:10;" d="M 47.9375 80.808594 L 47.9375 50.269531 "/>
<path style=" stroke:none;fill-rule:nonzero;fill:rgb(0%,0%,0%);fill-opacity:1;" d="M 177.089844 74.425781 L 176.222656 72.207031 L 172.761719 72.207031 L 171.890625 74.425781 L 170.820312 74.425781 L 173.921875 66.832031 L 175.089844 66.832031 L 178.140625 74.425781 Z M 174.941406 68.898438 L 174.921875 68.855469 L 174.90625 68.8125 L 174.890625 68.765625 L 174.871094 68.722656 L 174.839844 68.636719 L 174.820312 68.59375 L 174.804688 68.546875 L 174.742188 68.375 L 174.730469 68.332031 L 174.714844 68.289062 L 174.703125 68.25 L 174.6875 68.210938 L 174.664062 68.132812 L 174.652344 68.097656 L 174.636719 68.0625 L 174.625 68.027344 L 174.617188 67.992188 L 174.605469 67.957031 L 174.582031 67.894531 L 174.574219 67.863281 L 174.5625 67.835938 L 174.554688 67.808594 L 174.542969 67.785156 L 174.535156 67.757812 L 174.527344 67.734375 L 174.523438 67.714844 L 174.515625 67.695312 L 174.511719 67.675781 L 174.503906 67.644531 L 174.5 67.632812 L 174.496094 67.625 L 174.496094 67.613281 L 174.492188 67.609375 L 174.492188 67.613281 L 174.488281 67.625 L 174.484375 67.632812 L 174.480469 67.644531 L 174.476562 67.660156 L 174.46875 67.675781 L 174.464844 67.695312 L 174.457031 67.714844 L 174.453125 67.734375 L 174.445312 67.757812 L 174.429688 67.8125 L 174.417969 67.839844 L 174.410156 67.867188 L 174.398438 67.898438 L 174.390625 67.929688 L 174.378906 67.960938 L 174.34375 68.066406 L 174.328125 68.105469 L 174.316406 68.140625 L 174.292969 68.21875 L 174.277344 68.257812 L 174.261719 68.300781 L 174.25 68.34375 L 174.234375 68.382812 L 174.21875 68.425781 L 174.203125 68.472656 L 174.15625 68.601562 L 174.140625 68.648438 L 174.046875 68.90625 L 173.074219 71.402344 L 175.917969 71.402344 Z M 174.941406 68.898438 "/>
<path style=" stroke:none;fill-rule:nonzero;fill:rgb(0%,0%,0%);fill-opacity:1;" d="M 208.105469 31.570312 L 208.105469 31.683594 L 208.097656 31.792969 L 208.085938 31.898438 L 208.070312 32.003906 L 208.050781 32.105469 L 207.996094 32.292969 L 207.960938 32.382812 L 207.921875 32.472656 L 207.878906 32.554688 L 207.832031 32.632812 L 207.78125 32.710938 L 207.730469 32.785156 L 207.671875 32.855469 L 207.613281 32.921875 L 207.550781 32.988281 L 207.484375 33.050781 L 207.417969 33.109375 L 207.269531 33.21875 L 207.113281 33.3125 L 207.03125 33.359375 L 206.945312 33.398438 L 206.855469 33.4375 L 206.675781 33.507812 L 206.578125 33.539062 L 206.480469 33.566406 L 206.382812 33.589844 L 206.28125 33.613281 L 206.175781 33.632812 L 206.074219 33.652344 L 205.96875 33.664062 L 205.859375 33.679688 L 205.753906 33.691406 L 205.644531 33.699219 L 205.425781 33.707031 L 202.230469 33.707031 L 202.230469 26.113281 L 205.117188 26.113281 L 205.238281 26.117188 L 205.355469 26.125 L 205.472656 26.128906 L 205.699219 26.152344 L 205.808594 26.167969 L 205.914062 26.183594 L 206.015625 26.199219 L 206.117188 26.222656 L 206.214844 26.242188 L 206.308594 26.265625 L 206.402344 26.292969 L 206.574219 26.355469 L 206.738281 26.425781 L 206.8125 26.464844 L 206.886719 26.507812 L 206.957031 26.550781 L 207.027344 26.597656 L 207.089844 26.644531 L 207.148438 26.695312 L 207.207031 26.75 L 207.261719 26.808594 L 207.3125 26.867188 L 207.359375 26.925781 L 207.445312 27.058594 L 207.480469 27.125 L 207.515625 27.195312 L 207.546875 27.269531 L 207.574219 27.347656 L 207.597656 27.425781 L 207.636719 27.589844 L 207.648438 27.679688 L 207.664062 27.859375 L 207.664062 28.019531 L 207.65625 28.144531 L 207.648438 28.207031 L 207.632812 28.324219 L 207.621094 28.382812 L 207.589844 28.5 L 207.574219 28.554688 L 207.535156 28.664062 L 207.488281 28.773438 L 207.433594 28.875 L 207.402344 28.925781 L 207.339844 29.019531 L 207.304688 29.066406 L 207.265625 29.113281 L 207.1875 29.199219 L 207.101562 29.277344 L 207.007812 29.355469 L 206.957031 29.390625 L 206.902344 29.425781 L 206.851562 29.460938 L 206.796875 29.492188 L 206.738281 29.523438 L 206.621094 29.578125 L 206.558594 29.601562 L 206.492188 29.625 L 206.429688 29.648438 L 206.289062 29.6875 L 206.21875 29.703125 L 206.308594 29.714844 L 206.398438 29.730469 L 206.570312 29.761719 L 206.652344 29.78125 L 206.808594 29.828125 L 206.957031 29.882812 L 207.097656 29.945312 L 207.230469 30.015625 L 207.292969 30.050781 L 207.355469 30.089844 L 207.414062 30.132812 L 207.46875 30.175781 L 207.519531 30.21875 L 207.574219 30.265625 L 207.621094 30.3125 L 207.667969 30.363281 L 207.753906 30.464844 L 207.792969 30.519531 L 207.828125 30.574219 L 207.898438 30.691406 L 207.929688 30.753906 L 207.957031 30.816406 L 208.003906 30.941406 L 208.027344 31.007812 L 208.046875 31.074219 L 208.0625 31.140625 L 208.085938 31.28125 L 208.101562 31.421875 L 208.105469 31.496094 Z M 206.628906 28.082031 L 206.625 27.960938 L 206.613281 27.847656 L 206.589844 27.742188 L 206.5625 27.644531 L 206.523438 27.554688 L 206.476562 27.46875 L 206.421875 27.390625 L 206.359375 27.320312 L 206.289062 27.257812 L 206.207031 27.203125 L 206.121094 27.152344 L 206.027344 27.105469 L 205.921875 27.066406 L 205.8125 27.035156 L 205.695312 27.003906 L 205.570312 26.980469 L 205.433594 26.960938 L 205.292969 26.949219 L 205.144531 26.941406 L 204.992188 26.9375 L 203.261719 26.9375 L 203.261719 29.34375 L 204.992188 29.34375 L 205.078125 29.339844 L 205.167969 29.339844 L 205.25 29.335938 L 205.332031 29.328125 L 205.410156 29.320312 L 205.484375 29.3125 L 205.554688 29.300781 L 205.625 29.285156 L 205.691406 29.273438 L 205.757812 29.257812 L 205.816406 29.238281 L 205.875 29.214844 L 205.933594 29.195312 L 205.988281 29.171875 L 206.039062 29.148438 L 206.089844 29.121094 L 206.136719 29.09375 L 206.179688 29.066406 L 206.222656 29.035156 L 206.261719 29.003906 L 206.300781 28.96875 L 206.371094 28.898438 L 206.402344 28.859375 L 206.429688 28.820312 L 206.457031 28.777344 L 206.480469 28.738281 L 206.503906 28.695312 L 206.523438 28.648438 L 206.542969 28.605469 L 206.558594 28.558594 L 206.574219 28.507812 L 206.585938 28.460938 L 206.597656 28.410156 L 206.609375 28.355469 L 206.617188 28.304688 L 206.625 28.195312 L 206.628906 28.136719 Z M 207.066406 31.488281 L 207.066406 31.417969 L 207.058594 31.347656 L 207.054688 31.28125 L 207.042969 31.214844 L 207.03125 31.152344 L 207 31.035156 L 206.980469 30.980469 L 206.957031 30.925781 L 206.902344 30.824219 L 206.875 30.777344 L 206.84375 30.730469 L 206.808594 30.683594 L 206.773438 30.644531 L 206.734375 30.601562 L 206.691406 30.5625 L 206.648438 30.527344 L 206.554688 30.457031 L 206.503906 30.425781 L 206.449219 30.398438 L 206.394531 30.367188 L 206.339844 30.34375 L 206.28125 30.316406 L 206.21875 30.296875 L 206.15625 30.273438 L 206.089844 30.253906 L 205.957031 30.222656 L 205.886719 30.207031 L 205.8125 30.195312 L 205.742188 30.183594 L 205.664062 30.171875 L 205.589844 30.164062 L 205.511719 30.15625 L 205.265625 30.144531 L 203.261719 30.144531 L 203.261719 32.882812 L 205.414062 32.882812 L 205.492188 32.878906 L 205.566406 32.875 L 205.636719 32.867188 L 205.710938 32.859375 L 205.777344 32.851562 L 205.847656 32.84375 L 205.980469 32.820312 L 206.113281 32.789062 L 206.175781 32.773438 L 206.234375 32.75 L 206.292969 32.730469 L 206.347656 32.707031 L 206.402344 32.679688 L 206.503906 32.625 L 206.554688 32.59375 L 206.648438 32.523438 L 206.691406 32.484375 L 206.730469 32.445312 L 206.769531 32.402344 L 206.804688 32.359375 L 206.839844 32.3125 L 206.871094 32.265625 L 206.902344 32.214844 L 206.957031 32.105469 L 206.980469 32.046875 L 207 31.988281 L 207.015625 31.925781 L 207.03125 31.859375 L 207.054688 31.71875 L 207.058594 31.644531 L 207.066406 31.566406 Z M 207.066406 31.488281 "/>
<path style=" stroke:none;fill-rule:nonzero;fill:rgb(0%,0%,0%);fill-opacity:1;" d="M 114.019531 108.28125 L 113.894531 108.28125 L 113.769531 108.289062 L 113.644531 108.300781 L 113.527344 108.3125 L 113.410156 108.332031 L 113.296875 108.355469 L 113.078125 108.417969 L 112.972656 108.453125 L 112.871094 108.496094 L 112.773438 108.539062 L 112.679688 108.589844 L 112.589844 108.640625 L 112.5 108.695312 L 112.414062 108.757812 L 112.332031 108.820312 L 112.253906 108.886719 L 112.179688 108.957031 L 112.105469 109.03125 L 112.035156 109.109375 L 111.972656 109.191406 L 111.910156 109.277344 L 111.851562 109.363281 L 111.796875 109.453125 L 111.742188 109.550781 L 111.695312 109.644531 L 111.648438 109.746094 L 111.605469 109.851562 L 111.566406 109.957031 L 111.496094 110.183594 L 111.46875 110.296875 L 111.441406 110.417969 L 111.417969 110.539062 L 111.402344 110.660156 L 111.386719 110.785156 L 111.375 110.914062 L 111.363281 111.046875 L 111.359375 111.179688 L 111.359375 111.449219 L 111.363281 111.582031 L 111.375 111.714844 L 111.386719 111.84375 L 111.402344 111.96875 L 111.421875 112.09375 L 111.449219 112.21875 L 111.476562 112.335938 L 111.507812 112.453125 L 111.542969 112.570312 L 111.582031 112.683594 L 111.621094 112.789062 L 111.667969 112.894531 L 111.769531 113.097656 L 111.824219 113.191406 L 111.882812 113.285156 L 111.941406 113.375 L 112.074219 113.546875 L 112.144531 113.625 L 112.222656 113.703125 L 112.296875 113.773438 L 112.378906 113.84375 L 112.460938 113.910156 L 112.550781 113.972656 L 112.640625 114.03125 L 112.730469 114.085938 L 112.828125 114.136719 L 112.925781 114.183594 L 113.027344 114.226562 L 113.132812 114.261719 L 113.242188 114.296875 L 113.351562 114.328125 L 113.464844 114.351562 L 113.578125 114.371094 L 113.695312 114.386719 L 113.816406 114.398438 L 113.9375 114.40625 L 114.0625 114.410156 L 114.152344 114.40625 L 114.238281 114.402344 L 114.320312 114.398438 L 114.40625 114.390625 L 114.484375 114.378906 L 114.566406 114.367188 L 114.644531 114.351562 L 114.71875 114.335938 L 114.867188 114.296875 L 114.941406 114.269531 L 115.082031 114.214844 L 115.148438 114.1875 L 115.214844 114.152344 L 115.28125 114.121094 L 115.34375 114.085938 L 115.40625 114.046875 L 115.464844 114.007812 L 115.640625 113.878906 L 115.804688 113.738281 L 115.90625 113.636719 L 116.007812 113.527344 L 116.054688 113.46875 L 116.097656 113.410156 L 116.144531 113.351562 L 116.230469 113.226562 L 116.269531 113.164062 L 116.3125 113.101562 L 116.351562 113.035156 L 116.390625 112.964844 L 116.425781 112.898438 L 116.460938 112.828125 L 117.304688 113.25 L 117.261719 113.335938 L 117.21875 113.417969 L 117.125 113.582031 L 117.023438 113.738281 L 116.914062 113.894531 L 116.796875 114.042969 L 116.671875 114.183594 L 116.605469 114.253906 L 116.539062 114.320312 L 116.46875 114.382812 L 116.320312 114.507812 L 116.246094 114.566406 L 116.167969 114.625 L 116.085938 114.679688 L 116.003906 114.730469 L 115.917969 114.78125 L 115.832031 114.828125 L 115.742188 114.875 L 115.652344 114.917969 L 115.558594 114.960938 L 115.464844 115 L 115.367188 115.035156 L 115.164062 115.105469 L 115.058594 115.132812 L 114.953125 115.15625 L 114.84375 115.179688 L 114.734375 115.199219 L 114.621094 115.21875 L 114.386719 115.242188 L 114.265625 115.25 L 114.140625 115.253906 L 114.015625 115.253906 L 113.832031 115.25 L 113.65625 115.242188 L 113.484375 115.226562 L 113.3125 115.207031 L 113.148438 115.183594 L 112.835938 115.113281 L 112.683594 115.070312 L 112.539062 115.019531 L 112.398438 114.964844 L 112.261719 114.902344 L 112.132812 114.835938 L 112.003906 114.765625 L 111.882812 114.691406 L 111.761719 114.609375 L 111.648438 114.527344 L 111.539062 114.4375 L 111.4375 114.34375 L 111.335938 114.246094 L 111.238281 114.144531 L 111.148438 114.035156 L 111.0625 113.925781 L 110.980469 113.808594 L 110.90625 113.691406 L 110.832031 113.566406 L 110.765625 113.441406 L 110.703125 113.308594 L 110.644531 113.175781 L 110.542969 112.894531 L 110.5 112.746094 L 110.460938 112.597656 L 110.425781 112.449219 L 110.394531 112.292969 L 110.371094 112.136719 L 110.347656 111.976562 L 110.332031 111.816406 L 110.320312 111.652344 L 110.3125 111.484375 L 110.3125 111.3125 L 110.316406 111.136719 L 110.320312 110.964844 L 110.332031 110.796875 L 110.351562 110.628906 L 110.371094 110.46875 L 110.398438 110.308594 L 110.429688 110.152344 L 110.46875 110 L 110.507812 109.851562 L 110.554688 109.707031 L 110.605469 109.566406 L 110.664062 109.429688 L 110.722656 109.296875 L 110.789062 109.167969 L 110.859375 109.042969 L 110.933594 108.925781 L 111.011719 108.808594 L 111.09375 108.699219 L 111.179688 108.59375 L 111.273438 108.488281 L 111.367188 108.390625 L 111.46875 108.296875 L 111.574219 108.207031 L 111.683594 108.121094 L 111.800781 108.042969 L 111.917969 107.96875 L 112.042969 107.898438 L 112.167969 107.832031 L 112.300781 107.769531 L 112.574219 107.660156 L 112.71875 107.613281 L 112.867188 107.574219 L 113.019531 107.539062 L 113.175781 107.507812 L 113.332031 107.484375 L 113.496094 107.464844 L 113.664062 107.449219 L 113.835938 107.441406 L 114.011719 107.4375 L 114.25 107.441406 L 114.480469 107.457031 L 114.703125 107.480469 L 114.917969 107.515625 L 115.121094 107.558594 L 115.320312 107.609375 L 115.511719 107.671875 L 115.695312 107.742188 L 115.871094 107.824219 L 116.035156 107.914062 L 116.195312 108.011719 L 116.34375 108.121094 L 116.484375 108.238281 L 116.617188 108.367188 L 116.742188 108.5 L 116.859375 108.648438 L 116.964844 108.800781 L 117.0625 108.964844 L 117.152344 109.136719 L 117.234375 109.320312 L 116.257812 109.644531 L 116.210938 109.535156 L 116.1875 109.484375 L 116.160156 109.433594 L 116.132812 109.378906 L 116.070312 109.277344 L 116.035156 109.230469 L 116.003906 109.179688 L 115.964844 109.132812 L 115.929688 109.082031 L 115.890625 109.035156 L 115.804688 108.941406 L 115.761719 108.898438 L 115.714844 108.855469 L 115.664062 108.8125 L 115.5625 108.734375 L 115.453125 108.65625 L 115.394531 108.621094 L 115.335938 108.589844 L 115.273438 108.554688 L 115.210938 108.523438 L 115.144531 108.496094 L 115.074219 108.46875 L 115.007812 108.441406 L 114.933594 108.417969 L 114.863281 108.394531 L 114.789062 108.371094 L 114.710938 108.351562 L 114.632812 108.335938 L 114.550781 108.320312 L 114.46875 108.308594 L 114.382812 108.296875 L 114.296875 108.289062 L 114.207031 108.285156 L 114.113281 108.28125 Z M 114.019531 108.28125 "/>
<path style="fill:none;stroke-width:1.066978;stroke-linecap:butt;stroke-linejoin:round;stroke:rgb(0%,0%,0%);stroke-opacity:1;stroke-miterlimit:10;" d="M 47.9375 80.808594 L 17.414062 80.808594 "/>
<path style=" stroke:none;fill-rule:nonzero;fill:rgb(0%,0%,0%);fill-opacity:1;" d="M 12.800781 14.449219 L 11.945312 11.988281 L 8.273438 11.988281 L 7.421875 14.449219 L 5.402344 14.449219 L 8.917969 4.816406 L 11.296875 4.816406 L 14.796875 14.449219 Z M 10.542969 7.699219 L 10.496094 7.558594 L 10.480469 7.507812 L 10.460938 7.460938 L 10.429688 7.367188 L 10.414062 7.316406 L 10.398438 7.269531 L 10.378906 7.222656 L 10.367188 7.171875 L 10.335938 7.078125 L 10.324219 7.03125 L 10.308594 6.988281 L 10.296875 6.945312 L 10.28125 6.902344 L 10.257812 6.816406 L 10.242188 6.777344 L 10.234375 6.738281 L 10.210938 6.660156 L 10.203125 6.625 L 10.191406 6.589844 L 10.183594 6.558594 L 10.171875 6.527344 L 10.164062 6.496094 L 10.148438 6.441406 L 10.140625 6.417969 L 10.136719 6.394531 L 10.128906 6.375 L 10.117188 6.328125 L 10.113281 6.316406 L 10.109375 6.308594 L 10.109375 6.304688 L 10.105469 6.300781 L 10.105469 6.304688 L 10.101562 6.3125 L 10.101562 6.320312 L 10.097656 6.332031 L 10.089844 6.363281 L 10.082031 6.382812 L 10.078125 6.402344 L 10.074219 6.425781 L 10.066406 6.449219 L 10.050781 6.503906 L 10.035156 6.566406 L 10.023438 6.597656 L 10.015625 6.628906 L 10.003906 6.664062 L 9.992188 6.703125 L 9.980469 6.738281 L 9.96875 6.777344 L 9.960938 6.816406 L 9.945312 6.859375 L 9.910156 6.988281 L 9.894531 7.03125 L 9.863281 7.125 L 9.851562 7.171875 L 9.832031 7.222656 L 9.820312 7.269531 L 9.804688 7.316406 L 9.789062 7.367188 L 9.742188 7.507812 L 9.726562 7.558594 L 9.707031 7.605469 L 9.675781 7.699219 L 8.726562 10.46875 L 11.496094 10.46875 Z M 10.542969 7.699219 "/>
<path style=" stroke:none;fill-rule:nonzero;fill:rgb(100%,100%,100%);fill-opacity:1;" d="M 216 144 L 432 144 L 432 0 L 216 0 Z M 216 144 "/>
<g clip-path="url(#clip3)" clip-rule="nonzero">
<path style="fill:none;stroke-width:1.066978;stroke-linecap:round;stroke-linejoin:round;stroke:rgb(100%,100%,100%);stroke-opacity:1;stroke-miterlimit:10;" d="M 216 144 L 432 144 L 432 0 L 216 0 Z M 216 144 "/>
</g>
<g clip-path="url(#clip4)" clip-rule="nonzero">
<path style="fill-rule:nonzero;fill:rgb(100%,100%,100%);fill-opacity:1;stroke-width:1.066978;stroke-linecap:round;stroke-linejoin:round;stroke:rgb(100%,100%,100%);stroke-opacity:1;stroke-miterlimit:10;" d="M 224.21875 135.78125 L 426.519531 135.78125 L 426.519531 5.480469 L 224.21875 5.480469 Z M 224.21875 135.78125 "/>
</g>
<path style="fill:none;stroke-width:1.066978;stroke-linecap:round;stroke-linejoin:round;stroke:rgb(0%,0%,0%);stroke-opacity:1;stroke-miterlimit:10;" d="M 343.210938 70.628906 L 379.8125 70.628906 "/>
<path style="fill:none;stroke-width:1.066978;stroke-linecap:round;stroke-linejoin:round;stroke:rgb(0%,0%,0%);stroke-opacity:1;stroke-miterlimit:10;" d="M 343.210938 29.910156 L 416.410156 29.910156 "/>
<path style="fill:none;stroke-width:1.066978;stroke-linecap:round;stroke-linejoin:round;stroke:rgb(0%,0%,0%);stroke-opacity:1;stroke-miterlimit:10;" d="M 233.414062 111.347656 L 306.613281 111.347656 "/>
<path style="fill:none;stroke-width:1.066978;stroke-linecap:round;stroke-linejoin:round;stroke:rgb(0%,0%,0%);stroke-opacity:1;stroke-miterlimit:10;" d="M 233.414062 80.808594 L 233.414062 80.808594 "/>
<path style="fill:none;stroke-width:1.066978;stroke-linecap:round;stroke-linejoin:round;stroke:rgb(0%,0%,0%);stroke-opacity:1;stroke-miterlimit:10;" d="M 233.414062 50.269531 L 343.210938 50.269531 "/>
<path style="fill:none;stroke-width:1.066978;stroke-linecap:round;stroke-linejoin:round;stroke:rgb(0%,0%,0%);stroke-opacity:1;stroke-miterlimit:10;" d="M 343.210938 50.269531 L 343.210938 70.628906 "/>
<path style="fill:none;stroke-width:1.066978;stroke-linecap:round;stroke-linejoin:round;stroke:rgb(0%,0%,0%);stroke-opacity:1;stroke-miterlimit:10;" d="M 343.210938 50.269531 L 343.210938 29.910156 "/>
<path style="fill:none;stroke-width:1.066978;stroke-linecap:round;stroke-linejoin:round;stroke:rgb(0%,0%,0%);stroke-opacity:1;stroke-miterlimit:10;" d="M 233.414062 80.808594 L 233.414062 111.347656 "/>
<path style="fill:none;stroke-width:1.066978;stroke-linecap:round;stroke-linejoin:round;stroke:rgb(0%,0%,0%);stroke-opacity:1;stroke-miterlimit:10;" d="M 233.414062 80.808594 L 233.414062 80.808594 "/>
<path style="fill:none;stroke-width:1.066978;stroke-linecap:round;stroke-linejoin:round;stroke:rgb(0%,0%,0%);stroke-opacity:1;stroke-miterlimit:10;" d="M 233.414062 80.808594 L 233.414062 50.269531 "/>
<path style=" stroke:none;fill-rule:nonzero;fill:rgb(0%,0%,0%);fill-opacity:1;" d="M 387.015625 74.425781 L 386.148438 72.207031 L 382.6875 72.207031 L 381.816406 74.425781 L 380.746094 74.425781 L 383.847656 66.832031 L 385.015625 66.832031 L 388.066406 74.425781 Z M 384.867188 68.898438 L 384.847656 68.855469 L 384.832031 68.8125 L 384.816406 68.765625 L 384.796875 68.722656 L 384.765625 68.636719 L 384.746094 68.59375 L 384.730469 68.546875 L 384.667969 68.375 L 384.65625 68.332031 L 384.640625 68.289062 L 384.628906 68.25 L 384.613281 68.210938 L 384.589844 68.132812 L 384.574219 68.097656 L 384.539062 67.992188 L 384.53125 67.957031 L 384.507812 67.894531 L 384.5 67.863281 L 384.488281 67.835938 L 384.480469 67.808594 L 384.46875 67.785156 L 384.460938 67.757812 L 384.453125 67.734375 L 384.449219 67.714844 L 384.441406 67.695312 L 384.4375 67.675781 L 384.429688 67.644531 L 384.425781 67.632812 L 384.421875 67.625 L 384.417969 67.613281 L 384.417969 67.609375 L 384.414062 67.613281 L 384.414062 67.625 L 384.410156 67.632812 L 384.40625 67.644531 L 384.402344 67.660156 L 384.394531 67.675781 L 384.390625 67.695312 L 384.382812 67.714844 L 384.378906 67.734375 L 384.371094 67.757812 L 384.355469 67.8125 L 384.34375 67.839844 L 384.335938 67.867188 L 384.324219 67.898438 L 384.316406 67.929688 L 384.304688 67.960938 L 384.28125 68.03125 L 384.265625 68.066406 L 384.253906 68.105469 L 384.242188 68.140625 L 384.230469 68.179688 L 384.214844 68.21875 L 384.203125 68.257812 L 384.1875 68.300781 L 384.175781 68.34375 L 384.160156 68.382812 L 384.144531 68.425781 L 384.128906 68.472656 L 384.082031 68.601562 L 384.066406 68.648438 L 383.972656 68.90625 L 383 71.402344 L 385.839844 71.402344 Z M 384.867188 68.898438 "/>
<path style=" stroke:none;fill-rule:nonzero;fill:rgb(0%,0%,0%);fill-opacity:1;" d="M 424.105469 31.570312 L 424.105469 31.683594 L 424.097656 31.792969 L 424.085938 31.898438 L 424.070312 32.003906 L 424.050781 32.105469 L 423.996094 32.292969 L 423.960938 32.382812 L 423.921875 32.472656 L 423.878906 32.554688 L 423.832031 32.632812 L 423.78125 32.710938 L 423.730469 32.785156 L 423.671875 32.855469 L 423.613281 32.921875 L 423.550781 32.988281 L 423.484375 33.050781 L 423.417969 33.109375 L 423.269531 33.21875 L 423.113281 33.3125 L 423.03125 33.359375 L 422.945312 33.398438 L 422.855469 33.4375 L 422.675781 33.507812 L 422.578125 33.539062 L 422.480469 33.566406 L 422.382812 33.589844 L 422.28125 33.613281 L 422.175781 33.632812 L 422.074219 33.652344 L 421.96875 33.664062 L 421.859375 33.679688 L 421.753906 33.691406 L 421.644531 33.699219 L 421.425781 33.707031 L 418.230469 33.707031 L 418.230469 26.113281 L 421.117188 26.113281 L 421.238281 26.117188 L 421.355469 26.125 L 421.472656 26.128906 L 421.699219 26.152344 L 421.808594 26.167969 L 421.914062 26.183594 L 422.015625 26.199219 L 422.117188 26.222656 L 422.214844 26.242188 L 422.308594 26.265625 L 422.402344 26.292969 L 422.574219 26.355469 L 422.738281 26.425781 L 422.8125 26.464844 L 422.886719 26.507812 L 422.957031 26.550781 L 423.027344 26.597656 L 423.089844 26.644531 L 423.148438 26.695312 L 423.207031 26.75 L 423.261719 26.808594 L 423.3125 26.867188 L 423.359375 26.925781 L 423.445312 27.058594 L 423.480469 27.125 L 423.515625 27.195312 L 423.546875 27.269531 L 423.574219 27.347656 L 423.597656 27.425781 L 423.636719 27.589844 L 423.648438 27.679688 L 423.664062 27.859375 L 423.664062 28.019531 L 423.65625 28.144531 L 423.648438 28.207031 L 423.632812 28.324219 L 423.621094 28.382812 L 423.589844 28.5 L 423.574219 28.554688 L 423.535156 28.664062 L 423.488281 28.773438 L 423.433594 28.875 L 423.402344 28.925781 L 423.339844 29.019531 L 423.304688 29.066406 L 423.265625 29.113281 L 423.1875 29.199219 L 423.101562 29.277344 L 423.007812 29.355469 L 422.957031 29.390625 L 422.902344 29.425781 L 422.851562 29.460938 L 422.796875 29.492188 L 422.738281 29.523438 L 422.621094 29.578125 L 422.558594 29.601562 L 422.492188 29.625 L 422.429688 29.648438 L 422.289062 29.6875 L 422.21875 29.703125 L 422.308594 29.714844 L 422.398438 29.730469 L 422.570312 29.761719 L 422.652344 29.78125 L 422.808594 29.828125 L 422.957031 29.882812 L 423.097656 29.945312 L 423.230469 30.015625 L 423.292969 30.050781 L 423.355469 30.089844 L 423.414062 30.132812 L 423.46875 30.175781 L 423.519531 30.21875 L 423.574219 30.265625 L 423.621094 30.3125 L 423.667969 30.363281 L 423.753906 30.464844 L 423.792969 30.519531 L 423.828125 30.574219 L 423.898438 30.691406 L 423.929688 30.753906 L 423.957031 30.816406 L 424.003906 30.941406 L 424.027344 31.007812 L 424.046875 31.074219 L 424.0625 31.140625 L 424.085938 31.28125 L 424.101562 31.421875 L 424.105469 31.496094 Z M 422.628906 28.082031 L 422.625 27.960938 L 422.613281 27.847656 L 422.589844 27.742188 L 422.5625 27.644531 L 422.523438 27.554688 L 422.476562 27.46875 L 422.421875 27.390625 L 422.359375 27.320312 L 422.289062 27.257812 L 422.207031 27.203125 L 422.121094 27.152344 L 422.027344 27.105469 L 421.921875 27.066406 L 421.8125 27.035156 L 421.695312 27.003906 L 421.570312 26.980469 L 421.433594 26.960938 L 421.292969 26.949219 L 421.144531 26.941406 L 420.992188 26.9375 L 419.261719 26.9375 L 419.261719 29.34375 L 420.992188 29.34375 L 421.078125 29.339844 L 421.167969 29.339844 L 421.25 29.335938 L 421.332031 29.328125 L 421.410156 29.320312 L 421.484375 29.3125 L 421.554688 29.300781 L 421.625 29.285156 L 421.691406 29.273438 L 421.757812 29.257812 L 421.816406 29.238281 L 421.875 29.214844 L 421.933594 29.195312 L 421.988281 29.171875 L 422.039062 29.148438 L 422.089844 29.121094 L 422.136719 29.09375 L 422.179688 29.066406 L 422.222656 29.035156 L 422.261719 29.003906 L 422.300781 28.96875 L 422.371094 28.898438 L 422.402344 28.859375 L 422.429688 28.820312 L 422.457031 28.777344 L 422.480469 28.738281 L 422.503906 28.695312 L 422.523438 28.648438 L 422.542969 28.605469 L 422.558594 28.558594 L 422.574219 28.507812 L 422.585938 28.460938 L 422.597656 28.410156 L 422.609375 28.355469 L 422.617188 28.304688 L 422.625 28.195312 L 422.628906 28.136719 Z M 423.066406 31.488281 L 423.066406 31.417969 L 423.058594 31.347656 L 423.054688 31.28125 L 423.042969 31.214844 L 423.03125 31.152344 L 423 31.035156 L 422.980469 30.980469 L 422.957031 30.925781 L 422.902344 30.824219 L 422.875 30.777344 L 422.84375 30.730469 L 422.808594 30.683594 L 422.773438 30.644531 L 422.734375 30.601562 L 422.691406 30.5625 L 422.648438 30.527344 L 422.554688 30.457031 L 422.503906 30.425781 L 422.449219 30.398438 L 422.394531 30.367188 L 422.339844 30.34375 L 422.28125 30.316406 L 422.21875 30.296875 L 422.15625 30.273438 L 422.089844 30.253906 L 421.957031 30.222656 L 421.886719 30.207031 L 421.8125 30.195312 L 421.742188 30.183594 L 421.664062 30.171875 L 421.589844 30.164062 L 421.511719 30.15625 L 421.265625 30.144531 L 419.261719 30.144531 L 419.261719 32.882812 L 421.414062 32.882812 L 421.492188 32.878906 L 421.566406 32.875 L 421.636719 32.867188 L 421.710938 32.859375 L 421.777344 32.851562 L 421.847656 32.84375 L 421.980469 32.820312 L 422.113281 32.789062 L 422.175781 32.773438 L 422.234375 32.75 L 422.292969 32.730469 L 422.347656 32.707031 L 422.402344 32.679688 L 422.503906 32.625 L 422.554688 32.59375 L 422.648438 32.523438 L 422.691406 32.484375 L 422.730469 32.445312 L 422.769531 32.402344 L 422.804688 32.359375 L 422.839844 32.3125 L 422.871094 32.265625 L 422.902344 32.214844 L 422.957031 32.105469 L 422.980469 32.046875 L 423 31.988281 L 423.015625 31.925781 L 423.03125 31.859375 L 423.054688 31.71875 L 423.058594 31.644531 L 423.066406 31.566406 Z M 423.066406 31.488281 "/>
<path style=" stroke:none;fill-rule:nonzero;fill:rgb(0%,0%,0%);fill-opacity:1;" d="M 311.796875 108.28125 L 311.667969 108.28125 L 311.542969 108.289062 L 311.421875 108.300781 L 311.304688 108.3125 L 311.1875 108.332031 L 311.074219 108.355469 L 310.960938 108.386719 L 310.855469 108.417969 L 310.75 108.453125 L 310.648438 108.496094 L 310.550781 108.539062 L 310.457031 108.589844 L 310.367188 108.640625 L 310.277344 108.695312 L 310.191406 108.757812 L 310.109375 108.820312 L 310.03125 108.886719 L 309.957031 108.957031 L 309.882812 109.03125 L 309.8125 109.109375 L 309.75 109.191406 L 309.6875 109.277344 L 309.628906 109.363281 L 309.570312 109.453125 L 309.519531 109.550781 L 309.46875 109.644531 L 309.425781 109.746094 L 309.382812 109.851562 L 309.34375 109.957031 L 309.273438 110.183594 L 309.246094 110.296875 L 309.21875 110.417969 L 309.195312 110.539062 L 309.175781 110.660156 L 309.160156 110.785156 L 309.148438 110.914062 L 309.140625 111.046875 L 309.132812 111.3125 L 309.136719 111.449219 L 309.140625 111.582031 L 309.152344 111.714844 L 309.164062 111.84375 L 309.179688 111.96875 L 309.199219 112.09375 L 309.222656 112.21875 L 309.25 112.335938 L 309.28125 112.453125 L 309.316406 112.570312 L 309.355469 112.683594 L 309.398438 112.789062 L 309.445312 112.894531 L 309.492188 112.996094 L 309.546875 113.097656 L 309.65625 113.285156 L 309.71875 113.375 L 309.851562 113.546875 L 309.921875 113.625 L 309.996094 113.703125 L 310.074219 113.773438 L 310.15625 113.84375 L 310.238281 113.910156 L 310.324219 113.972656 L 310.414062 114.03125 L 310.507812 114.085938 L 310.605469 114.136719 L 310.703125 114.183594 L 310.804688 114.226562 L 310.910156 114.261719 L 311.019531 114.296875 L 311.128906 114.328125 L 311.242188 114.351562 L 311.355469 114.371094 L 311.472656 114.386719 L 311.59375 114.398438 L 311.714844 114.40625 L 311.839844 114.410156 L 311.929688 114.40625 L 312.015625 114.402344 L 312.097656 114.398438 L 312.179688 114.390625 L 312.261719 114.378906 L 312.339844 114.367188 L 312.496094 114.335938 L 312.644531 114.296875 L 312.925781 114.1875 L 312.992188 114.152344 L 313.054688 114.121094 L 313.121094 114.085938 L 313.179688 114.046875 L 313.242188 114.007812 L 313.417969 113.878906 L 313.582031 113.738281 L 313.683594 113.636719 L 313.734375 113.582031 L 313.78125 113.527344 L 313.875 113.410156 L 313.917969 113.351562 L 313.964844 113.289062 L 314.007812 113.226562 L 314.046875 113.164062 L 314.089844 113.101562 L 314.128906 113.035156 L 314.164062 112.964844 L 314.203125 112.898438 L 314.238281 112.828125 L 315.078125 113.25 L 315.039062 113.335938 L 314.992188 113.417969 L 314.949219 113.5 L 314.902344 113.582031 L 314.800781 113.738281 L 314.691406 113.894531 L 314.574219 114.042969 L 314.449219 114.183594 L 314.382812 114.253906 L 314.3125 114.320312 L 314.246094 114.382812 L 314.097656 114.507812 L 313.941406 114.625 L 313.863281 114.679688 L 313.78125 114.730469 L 313.695312 114.78125 L 313.609375 114.828125 L 313.519531 114.875 L 313.429688 114.917969 L 313.335938 114.960938 L 313.238281 115 L 313.042969 115.070312 L 312.941406 115.105469 L 312.835938 115.132812 L 312.730469 115.15625 L 312.621094 115.179688 L 312.511719 115.199219 L 312.398438 115.21875 L 312.164062 115.242188 L 312.042969 115.25 L 311.917969 115.253906 L 311.792969 115.253906 L 311.609375 115.25 L 311.433594 115.242188 L 311.257812 115.226562 L 311.089844 115.207031 L 310.925781 115.183594 L 310.765625 115.148438 L 310.613281 115.113281 L 310.460938 115.070312 L 310.316406 115.019531 L 310.175781 114.964844 L 310.039062 114.902344 L 309.90625 114.835938 L 309.78125 114.765625 L 309.65625 114.691406 L 309.539062 114.609375 L 309.425781 114.527344 L 309.316406 114.4375 L 309.210938 114.34375 L 309.113281 114.246094 L 309.015625 114.144531 L 308.925781 114.035156 L 308.839844 113.925781 L 308.757812 113.808594 L 308.683594 113.691406 L 308.609375 113.566406 L 308.542969 113.441406 L 308.480469 113.308594 L 308.421875 113.175781 L 308.367188 113.035156 L 308.320312 112.894531 L 308.277344 112.746094 L 308.238281 112.597656 L 308.203125 112.449219 L 308.171875 112.292969 L 308.144531 112.136719 L 308.125 111.976562 L 308.109375 111.816406 L 308.097656 111.652344 L 308.089844 111.484375 L 308.089844 111.136719 L 308.097656 110.964844 L 308.109375 110.796875 L 308.128906 110.628906 L 308.148438 110.46875 L 308.175781 110.308594 L 308.207031 110.152344 L 308.242188 110 L 308.285156 109.851562 L 308.332031 109.707031 L 308.382812 109.566406 L 308.4375 109.429688 L 308.5 109.296875 L 308.566406 109.167969 L 308.632812 109.042969 L 308.707031 108.925781 L 308.785156 108.808594 L 308.871094 108.699219 L 308.957031 108.59375 L 309.046875 108.488281 L 309.144531 108.390625 L 309.246094 108.296875 L 309.351562 108.207031 L 309.460938 108.121094 L 309.578125 108.042969 L 309.695312 107.96875 L 309.816406 107.898438 L 309.945312 107.832031 L 310.078125 107.769531 L 310.210938 107.714844 L 310.351562 107.660156 L 310.496094 107.613281 L 310.644531 107.574219 L 310.796875 107.539062 L 310.949219 107.507812 L 311.109375 107.484375 L 311.273438 107.464844 L 311.441406 107.449219 L 311.613281 107.441406 L 311.785156 107.4375 L 312.023438 107.441406 L 312.253906 107.457031 L 312.476562 107.480469 L 312.691406 107.515625 L 312.898438 107.558594 L 313.097656 107.609375 L 313.289062 107.671875 L 313.472656 107.742188 L 313.644531 107.824219 L 313.8125 107.914062 L 313.972656 108.011719 L 314.121094 108.121094 L 314.261719 108.238281 L 314.394531 108.367188 L 314.519531 108.5 L 314.632812 108.648438 L 314.742188 108.800781 L 314.839844 108.964844 L 314.929688 109.136719 L 315.011719 109.320312 L 314.035156 109.644531 L 313.988281 109.535156 L 313.960938 109.484375 L 313.9375 109.433594 L 313.90625 109.378906 L 313.878906 109.328125 L 313.847656 109.277344 L 313.8125 109.230469 L 313.777344 109.179688 L 313.742188 109.132812 L 313.707031 109.082031 L 313.667969 109.035156 L 313.582031 108.941406 L 313.441406 108.8125 L 313.339844 108.734375 L 313.230469 108.65625 L 313.171875 108.621094 L 313.109375 108.589844 L 313.050781 108.554688 L 312.984375 108.523438 L 312.921875 108.496094 L 312.78125 108.441406 L 312.710938 108.417969 L 312.5625 108.371094 L 312.488281 108.351562 L 312.410156 108.335938 L 312.328125 108.320312 L 312.246094 108.308594 L 312.160156 108.296875 L 312.070312 108.289062 L 311.984375 108.285156 L 311.890625 108.28125 Z M 311.796875 108.28125 "/>
<path style="fill:none;stroke-width:1.066978;stroke-linecap:butt;stroke-linejoin:round;stroke:rgb(0%,0%,0%);stroke-opacity:1;stroke-miterlimit:10;" d="M 233.414062 80.808594 L 233.414062 80.808594 "/>
<path style=" stroke:none;fill-rule:nonzero;fill:rgb(0%,0%,0%);fill-opacity:1;" d="M 230.53125 11.699219 L 230.527344 11.84375 L 230.519531 11.984375 L 230.503906 12.121094 L 230.484375 12.253906 L 230.457031 12.378906 L 230.425781 12.503906 L 230.386719 12.625 L 230.292969 12.851562 L 230.234375 12.957031 L 230.175781 13.058594 L 230.109375 13.15625 L 230.039062 13.253906 L 229.964844 13.34375 L 229.886719 13.429688 L 229.804688 13.515625 L 229.71875 13.59375 L 229.625 13.671875 L 229.53125 13.742188 L 229.429688 13.8125 L 229.328125 13.875 L 229.21875 13.9375 L 229.109375 13.992188 L 228.996094 14.046875 L 228.878906 14.097656 L 228.761719 14.144531 L 228.636719 14.1875 L 228.511719 14.226562 L 228.378906 14.265625 L 228.246094 14.296875 L 227.972656 14.351562 L 227.832031 14.375 L 227.691406 14.394531 L 227.550781 14.410156 L 227.40625 14.421875 L 227.257812 14.433594 L 227.109375 14.441406 L 226.8125 14.449219 L 221.992188 14.449219 L 221.992188 4.816406 L 226.570312 4.816406 L 226.734375 4.820312 L 226.894531 4.828125 L 227.054688 4.839844 L 227.207031 4.855469 L 227.355469 4.871094 L 227.503906 4.890625 L 227.785156 4.9375 L 227.917969 4.964844 L 228.050781 4.996094 L 228.179688 5.03125 L 228.300781 5.066406 L 228.421875 5.105469 L 228.535156 5.148438 L 228.644531 5.195312 L 228.753906 5.246094 L 228.855469 5.296875 L 228.953125 5.351562 L 229.046875 5.410156 L 229.136719 5.472656 L 229.300781 5.605469 L 229.375 5.675781 L 229.449219 5.75 L 229.515625 5.828125 L 229.578125 5.910156 L 229.636719 5.992188 L 229.6875 6.078125 L 229.738281 6.167969 L 229.824219 6.355469 L 229.859375 6.453125 L 229.890625 6.554688 L 229.917969 6.660156 L 229.9375 6.769531 L 229.953125 6.882812 L 229.964844 6.996094 L 229.972656 7.113281 L 229.976562 7.234375 L 229.972656 7.398438 L 229.957031 7.554688 L 229.933594 7.707031 L 229.902344 7.851562 L 229.863281 7.992188 L 229.8125 8.128906 L 229.75 8.261719 L 229.683594 8.386719 L 229.605469 8.507812 L 229.519531 8.625 L 229.421875 8.730469 L 229.320312 8.832031 L 229.203125 8.925781 L 229.082031 9.015625 L 228.949219 9.09375 L 228.804688 9.164062 L 228.652344 9.230469 L 228.488281 9.289062 L 228.320312 9.339844 L 228.136719 9.382812 L 228.367188 9.414062 L 228.582031 9.457031 L 228.789062 9.507812 L 228.984375 9.566406 L 229.167969 9.636719 L 229.339844 9.714844 L 229.5 9.800781 L 229.648438 9.898438 L 229.789062 10.003906 L 229.914062 10.121094 L 230.03125 10.242188 L 230.136719 10.375 L 230.226562 10.511719 L 230.308594 10.660156 L 230.375 10.8125 L 230.429688 10.972656 L 230.472656 11.144531 L 230.503906 11.320312 L 230.523438 11.507812 Z M 227.945312 7.507812 L 227.941406 7.382812 L 227.929688 7.265625 L 227.910156 7.152344 L 227.878906 7.050781 L 227.839844 6.953125 L 227.796875 6.867188 L 227.742188 6.785156 L 227.679688 6.710938 L 227.609375 6.644531 L 227.527344 6.585938 L 227.441406 6.535156 L 227.347656 6.488281 L 227.246094 6.445312 L 227.136719 6.410156 L 227.019531 6.382812 L 226.890625 6.355469 L 226.757812 6.335938 L 226.613281 6.324219 L 226.464844 6.316406 L 226.304688 6.3125 L 224.007812 6.3125 L 224.007812 8.699219 L 226.320312 8.699219 L 226.484375 8.695312 L 226.640625 8.6875 L 226.789062 8.671875 L 226.925781 8.652344 L 227.054688 8.625 L 227.175781 8.59375 L 227.285156 8.554688 L 227.382812 8.511719 L 227.476562 8.460938 L 227.554688 8.40625 L 227.628906 8.339844 L 227.695312 8.273438 L 227.753906 8.199219 L 227.804688 8.117188 L 227.847656 8.03125 L 227.882812 7.9375 L 227.910156 7.839844 L 227.929688 7.734375 L 227.941406 7.625 Z M 228.507812 11.542969 L 228.5 11.394531 L 228.492188 11.324219 L 228.46875 11.191406 L 228.453125 11.128906 L 228.433594 11.066406 L 228.410156 11.007812 L 228.355469 10.898438 L 228.324219 10.847656 L 228.292969 10.800781 L 228.253906 10.753906 L 228.21875 10.707031 L 228.175781 10.664062 L 228.089844 10.585938 L 228.039062 10.550781 L 227.992188 10.515625 L 227.9375 10.484375 L 227.886719 10.453125 L 227.832031 10.421875 L 227.773438 10.398438 L 227.714844 10.371094 L 227.65625 10.347656 L 227.59375 10.328125 L 227.527344 10.304688 L 227.394531 10.273438 L 227.324219 10.257812 L 227.183594 10.234375 L 227.109375 10.222656 L 226.960938 10.207031 L 226.882812 10.199219 L 226.726562 10.191406 L 226.644531 10.191406 L 226.566406 10.1875 L 224.007812 10.1875 L 224.007812 12.949219 L 226.796875 12.949219 L 226.875 12.945312 L 226.949219 12.941406 L 227.023438 12.933594 L 227.097656 12.929688 L 227.167969 12.921875 L 227.238281 12.910156 L 227.308594 12.902344 L 227.378906 12.890625 L 227.511719 12.859375 L 227.636719 12.820312 L 227.753906 12.773438 L 227.808594 12.75 L 227.917969 12.695312 L 227.964844 12.664062 L 228.015625 12.628906 L 228.0625 12.59375 L 228.109375 12.554688 L 228.152344 12.515625 L 228.191406 12.472656 L 228.230469 12.425781 L 228.300781 12.332031 L 228.332031 12.28125 L 228.363281 12.226562 L 228.390625 12.171875 L 228.414062 12.109375 L 228.4375 12.050781 L 228.46875 11.917969 L 228.484375 11.847656 L 228.492188 11.777344 L 228.5 11.699219 L 228.503906 11.625 Z M 228.507812 11.542969 "/>
<path style=" stroke:none;fill-rule:nonzero;fill:rgb(100%,100%,100%);fill-opacity:1;" d="M 0 288 L 216 288 L 216 144 L 0 144 Z M 0 288 "/>
<g clip-path="url(#clip5)" clip-rule="nonzero">
<path style="fill:none;stroke-width:1.066978;stroke-linecap:round;stroke-linejoin:round;stroke:rgb(100%,100%,100%);stroke-opacity:1;stroke-miterlimit:10;" d="M 0 288 L 216 288 L 216 144 L 0 144 Z M 0 288 "/>
</g>
<g clip-path="url(#clip6)" clip-rule="nonzero">
<path style="fill-rule:nonzero;fill:rgb(100%,100%,100%);fill-opacity:1;stroke-width:1.066978;stroke-linecap:round;stroke-linejoin:round;stroke:rgb(100%,100%,100%);stroke-opacity:1;stroke-miterlimit:10;" d="M 8.21875 279.78125 L 210.519531 279.78125 L 210.519531 149.480469 L 8.21875 149.480469 Z M 8.21875 279.78125 "/>
</g>
<path style="fill:none;stroke-width:1.066978;stroke-linecap:round;stroke-linejoin:round;stroke:rgb(0%,0%,0%);stroke-opacity:1;stroke-miterlimit:10;" d="M 148.3125 214.628906 L 174.492188 214.628906 "/>
<path style="fill:none;stroke-width:1.066978;stroke-linecap:round;stroke-linejoin:round;stroke:rgb(0%,0%,0%);stroke-opacity:1;stroke-miterlimit:10;" d="M 148.3125 173.910156 L 200.671875 173.910156 "/>
<path style="fill:none;stroke-width:1.066978;stroke-linecap:round;stroke-linejoin:round;stroke:rgb(0%,0%,0%);stroke-opacity:1;stroke-miterlimit:10;" d="M 69.773438 255.347656 L 122.132812 255.347656 "/>
<path style="fill:none;stroke-width:1.066978;stroke-linecap:round;stroke-linejoin:round;stroke:rgb(0%,0%,0%);stroke-opacity:1;stroke-miterlimit:10;" d="M 69.773438 224.808594 L 69.773438 224.808594 "/>
<path style="fill:none;stroke-width:1.066978;stroke-linecap:round;stroke-linejoin:round;stroke:rgb(0%,0%,0%);stroke-opacity:1;stroke-miterlimit:10;" d="M 69.773438 194.269531 L 148.3125 194.269531 "/>
<path style="fill:none;stroke-width:1.066978;stroke-linecap:round;stroke-linejoin:round;stroke:rgb(0%,0%,0%);stroke-opacity:1;stroke-miterlimit:10;" d="M 148.3125 194.269531 L 148.3125 214.628906 "/>
<path style="fill:none;stroke-width:1.066978;stroke-linecap:round;stroke-linejoin:round;stroke:rgb(0%,0%,0%);stroke-opacity:1;stroke-miterlimit:10;" d="M 148.3125 194.269531 L 148.3125 173.910156 "/>
<path style="fill:none;stroke-width:1.066978;stroke-linecap:round;stroke-linejoin:round;stroke:rgb(0%,0%,0%);stroke-opacity:1;stroke-miterlimit:10;" d="M 69.773438 224.808594 L 69.773438 255.347656 "/>
<path style="fill:none;stroke-width:1.066978;stroke-linecap:round;stroke-linejoin:round;stroke:rgb(0%,0%,0%);stroke-opacity:1;stroke-miterlimit:10;" d="M 69.773438 224.808594 L 69.773438 224.808594 "/>
<path style="fill:none;stroke-width:1.066978;stroke-linecap:round;stroke-linejoin:round;stroke:rgb(0%,0%,0%);stroke-opacity:1;stroke-miterlimit:10;" d="M 69.773438 224.808594 L 69.773438 194.269531 "/>
<path style=" stroke:none;fill-rule:nonzero;fill:rgb(0%,0%,0%);fill-opacity:1;" d="M 181.4375 218.425781 L 180.570312 216.207031 L 177.109375 216.207031 L 176.234375 218.425781 L 175.167969 218.425781 L 178.265625 210.832031 L 179.4375 210.832031 L 182.488281 218.425781 Z M 179.285156 212.898438 L 179.269531 212.855469 L 179.25 212.8125 L 179.234375 212.765625 L 179.21875 212.722656 L 179.199219 212.679688 L 179.167969 212.59375 L 179.152344 212.546875 L 179.132812 212.503906 L 179.101562 212.417969 L 179.089844 212.375 L 179.074219 212.332031 L 179.0625 212.289062 L 179.046875 212.25 L 179.035156 212.210938 L 179.019531 212.171875 L 179.007812 212.132812 L 178.949219 211.957031 L 178.9375 211.925781 L 178.929688 211.894531 L 178.917969 211.863281 L 178.910156 211.835938 L 178.898438 211.808594 L 178.890625 211.785156 L 178.882812 211.757812 L 178.875 211.734375 L 178.867188 211.714844 L 178.863281 211.695312 L 178.855469 211.675781 L 178.847656 211.644531 L 178.84375 211.632812 L 178.839844 211.625 L 178.839844 211.609375 L 178.835938 211.613281 L 178.832031 211.625 L 178.828125 211.632812 L 178.824219 211.644531 L 178.816406 211.675781 L 178.808594 211.695312 L 178.804688 211.714844 L 178.796875 211.734375 L 178.789062 211.757812 L 178.765625 211.839844 L 178.753906 211.867188 L 178.746094 211.898438 L 178.722656 211.960938 L 178.6875 212.066406 L 178.675781 212.105469 L 178.664062 212.140625 L 178.648438 212.179688 L 178.636719 212.21875 L 178.621094 212.257812 L 178.609375 212.300781 L 178.59375 212.34375 L 178.578125 212.382812 L 178.5625 212.425781 L 178.546875 212.472656 L 178.5 212.601562 L 178.484375 212.648438 L 178.390625 212.90625 L 177.421875 215.402344 L 180.261719 215.402344 Z M 179.285156 212.898438 "/>
<path style=" stroke:none;fill-rule:nonzero;fill:rgb(0%,0%,0%);fill-opacity:1;" d="M 208.105469 175.570312 L 208.105469 175.683594 L 208.097656 175.792969 L 208.085938 175.898438 L 208.070312 176.003906 L 208.050781 176.105469 L 207.996094 176.292969 L 207.960938 176.382812 L 207.921875 176.472656 L 207.878906 176.554688 L 207.832031 176.632812 L 207.78125 176.710938 L 207.730469 176.785156 L 207.671875 176.855469 L 207.613281 176.921875 L 207.550781 176.988281 L 207.484375 177.050781 L 207.417969 177.109375 L 207.269531 177.21875 L 207.113281 177.3125 L 207.03125 177.359375 L 206.945312 177.398438 L 206.855469 177.4375 L 206.675781 177.507812 L 206.578125 177.539062 L 206.480469 177.566406 L 206.382812 177.589844 L 206.28125 177.613281 L 206.175781 177.632812 L 206.074219 177.652344 L 205.96875 177.664062 L 205.859375 177.679688 L 205.753906 177.691406 L 205.644531 177.699219 L 205.425781 177.707031 L 202.230469 177.707031 L 202.230469 170.113281 L 205.117188 170.113281 L 205.238281 170.117188 L 205.355469 170.125 L 205.472656 170.128906 L 205.699219 170.152344 L 205.808594 170.167969 L 205.914062 170.183594 L 206.015625 170.199219 L 206.117188 170.222656 L 206.214844 170.242188 L 206.308594 170.265625 L 206.402344 170.292969 L 206.574219 170.355469 L 206.738281 170.425781 L 206.8125 170.464844 L 206.886719 170.507812 L 206.957031 170.550781 L 207.027344 170.597656 L 207.089844 170.644531 L 207.148438 170.695312 L 207.207031 170.75 L 207.261719 170.808594 L 207.3125 170.867188 L 207.359375 170.925781 L 207.445312 171.058594 L 207.480469 171.125 L 207.515625 171.195312 L 207.546875 171.269531 L 207.574219 171.347656 L 207.597656 171.425781 L 207.636719 171.589844 L 207.648438 171.679688 L 207.664062 171.859375 L 207.664062 172.019531 L 207.65625 172.144531 L 207.648438 172.207031 L 207.632812 172.324219 L 207.621094 172.382812 L 207.589844 172.5 L 207.574219 172.554688 L 207.535156 172.664062 L 207.488281 172.773438 L 207.433594 172.875 L 207.402344 172.925781 L 207.339844 173.019531 L 207.304688 173.066406 L 207.265625 173.113281 L 207.1875 173.199219 L 207.101562 173.277344 L 207.007812 173.355469 L 206.957031 173.390625 L 206.902344 173.425781 L 206.851562 173.460938 L 206.796875 173.492188 L 206.738281 173.523438 L 206.621094 173.578125 L 206.558594 173.601562 L 206.492188 173.625 L 206.429688 173.648438 L 206.289062 173.6875 L 206.21875 173.703125 L 206.308594 173.714844 L 206.398438 173.730469 L 206.570312 173.761719 L 206.652344 173.78125 L 206.808594 173.828125 L 206.957031 173.882812 L 207.097656 173.945312 L 207.230469 174.015625 L 207.292969 174.050781 L 207.355469 174.089844 L 207.414062 174.132812 L 207.46875 174.175781 L 207.519531 174.21875 L 207.574219 174.265625 L 207.621094 174.3125 L 207.667969 174.363281 L 207.753906 174.464844 L 207.792969 174.519531 L 207.828125 174.574219 L 207.898438 174.691406 L 207.929688 174.753906 L 207.957031 174.816406 L 208.003906 174.941406 L 208.027344 175.007812 L 208.046875 175.074219 L 208.0625 175.140625 L 208.085938 175.28125 L 208.101562 175.421875 L 208.105469 175.496094 Z M 206.628906 172.082031 L 206.625 171.960938 L 206.613281 171.847656 L 206.589844 171.742188 L 206.5625 171.644531 L 206.523438 171.554688 L 206.476562 171.46875 L 206.421875 171.390625 L 206.359375 171.320312 L 206.289062 171.257812 L 206.207031 171.203125 L 206.121094 171.152344 L 206.027344 171.105469 L 205.921875 171.066406 L 205.8125 171.035156 L 205.695312 171.003906 L 205.570312 170.980469 L 205.433594 170.960938 L 205.292969 170.949219 L 205.144531 170.941406 L 204.992188 170.9375 L 203.261719 170.9375 L 203.261719 173.34375 L 204.992188 173.34375 L 205.078125 173.339844 L 205.167969 173.339844 L 205.25 173.335938 L 205.332031 173.328125 L 205.410156 173.320312 L 205.484375 173.3125 L 205.554688 173.300781 L 205.625 173.285156 L 205.691406 173.273438 L 205.757812 173.257812 L 205.816406 173.238281 L 205.875 173.214844 L 205.933594 173.195312 L 205.988281 173.171875 L 206.039062 173.148438 L 206.089844 173.121094 L 206.136719 173.09375 L 206.179688 173.066406 L 206.222656 173.035156 L 206.261719 173.003906 L 206.300781 172.96875 L 206.371094 172.898438 L 206.402344 172.859375 L 206.429688 172.820312 L 206.457031 172.777344 L 206.480469 172.738281 L 206.503906 172.695312 L 206.523438 172.648438 L 206.542969 172.605469 L 206.558594 172.558594 L 206.574219 172.507812 L 206.585938 172.460938 L 206.597656 172.410156 L 206.609375 172.355469 L 206.617188 172.304688 L 206.625 172.195312 L 206.628906 172.136719 Z M 207.066406 175.488281 L 207.066406 175.417969 L 207.058594 175.347656 L 207.054688 175.28125 L 207.042969 175.214844 L 207.03125 175.152344 L 207 175.035156 L 206.980469 174.980469 L 206.957031 174.925781 L 206.902344 174.824219 L 206.875 174.777344 L 206.84375 174.730469 L 206.808594 174.683594 L 206.773438 174.644531 L 206.734375 174.601562 L 206.691406 174.5625 L 206.648438 174.527344 L 206.554688 174.457031 L 206.503906 174.425781 L 206.449219 174.398438 L 206.394531 174.367188 L 206.339844 174.34375 L 206.28125 174.316406 L 206.21875 174.296875 L 206.15625 174.273438 L 206.089844 174.253906 L 205.957031 174.222656 L 205.886719 174.207031 L 205.8125 174.195312 L 205.742188 174.183594 L 205.664062 174.171875 L 205.589844 174.164062 L 205.511719 174.15625 L 205.265625 174.144531 L 203.261719 174.144531 L 203.261719 176.882812 L 205.414062 176.882812 L 205.492188 176.878906 L 205.566406 176.875 L 205.636719 176.867188 L 205.710938 176.859375 L 205.777344 176.851562 L 205.847656 176.84375 L 205.980469 176.820312 L 206.113281 176.789062 L 206.175781 176.773438 L 206.234375 176.75 L 206.292969 176.730469 L 206.347656 176.707031 L 206.402344 176.679688 L 206.503906 176.625 L 206.554688 176.59375 L 206.648438 176.523438 L 206.691406 176.484375 L 206.730469 176.445312 L 206.769531 176.402344 L 206.804688 176.359375 L 206.839844 176.3125 L 206.871094 176.265625 L 206.902344 176.214844 L 206.957031 176.105469 L 206.980469 176.046875 L 207 175.988281 L 207.015625 175.925781 L 207.03125 175.859375 L 207.054688 175.71875 L 207.058594 175.644531 L 207.066406 175.566406 Z M 207.066406 175.488281 "/>
<path style=" stroke:none;fill-rule:nonzero;fill:rgb(0%,0%,0%);fill-opacity:1;" d="M 127.054688 252.28125 L 126.929688 252.28125 L 126.804688 252.289062 L 126.679688 252.300781 L 126.5625 252.3125 L 126.445312 252.332031 L 126.332031 252.355469 L 126.113281 252.417969 L 126.007812 252.453125 L 125.90625 252.496094 L 125.808594 252.539062 L 125.714844 252.589844 L 125.625 252.640625 L 125.535156 252.695312 L 125.449219 252.757812 L 125.367188 252.820312 L 125.289062 252.886719 L 125.214844 252.957031 L 125.140625 253.03125 L 125.074219 253.109375 L 125.007812 253.191406 L 124.945312 253.277344 L 124.886719 253.363281 L 124.832031 253.453125 L 124.777344 253.550781 L 124.730469 253.644531 L 124.683594 253.746094 L 124.640625 253.851562 L 124.601562 253.957031 L 124.53125 254.183594 L 124.503906 254.296875 L 124.476562 254.417969 L 124.4375 254.660156 L 124.421875 254.785156 L 124.410156 254.914062 L 124.398438 255.046875 L 124.394531 255.179688 L 124.394531 255.449219 L 124.410156 255.714844 L 124.421875 255.84375 L 124.4375 255.96875 L 124.484375 256.21875 L 124.511719 256.335938 L 124.542969 256.453125 L 124.578125 256.570312 L 124.617188 256.683594 L 124.65625 256.789062 L 124.703125 256.894531 L 124.804688 257.097656 L 124.859375 257.191406 L 124.917969 257.285156 L 124.976562 257.375 L 125.109375 257.546875 L 125.257812 257.703125 L 125.332031 257.773438 L 125.414062 257.84375 L 125.5 257.910156 L 125.585938 257.972656 L 125.675781 258.03125 L 125.765625 258.085938 L 125.863281 258.136719 L 125.960938 258.183594 L 126.0625 258.226562 L 126.167969 258.261719 L 126.277344 258.296875 L 126.386719 258.328125 L 126.5 258.351562 L 126.613281 258.371094 L 126.730469 258.386719 L 126.851562 258.398438 L 126.972656 258.40625 L 127.097656 258.410156 L 127.1875 258.40625 L 127.273438 258.402344 L 127.355469 258.398438 L 127.441406 258.390625 L 127.519531 258.378906 L 127.601562 258.367188 L 127.679688 258.351562 L 127.753906 258.335938 L 127.902344 258.296875 L 127.976562 258.269531 L 128.117188 258.214844 L 128.183594 258.1875 L 128.25 258.152344 L 128.316406 258.121094 L 128.378906 258.085938 L 128.441406 258.046875 L 128.5 258.007812 L 128.675781 257.878906 L 128.839844 257.738281 L 128.890625 257.6875 L 128.945312 257.636719 L 128.992188 257.582031 L 129.042969 257.527344 L 129.089844 257.46875 L 129.132812 257.410156 L 129.179688 257.351562 L 129.265625 257.226562 L 129.304688 257.164062 L 129.347656 257.101562 L 129.386719 257.035156 L 129.425781 256.964844 L 129.460938 256.898438 L 129.496094 256.828125 L 130.339844 257.25 L 130.296875 257.335938 L 130.253906 257.417969 L 130.160156 257.582031 L 130.058594 257.738281 L 129.949219 257.894531 L 129.832031 258.042969 L 129.707031 258.183594 L 129.640625 258.253906 L 129.574219 258.320312 L 129.503906 258.382812 L 129.355469 258.507812 L 129.28125 258.566406 L 129.203125 258.625 L 129.121094 258.679688 L 129.039062 258.730469 L 128.953125 258.78125 L 128.867188 258.828125 L 128.777344 258.875 L 128.6875 258.917969 L 128.59375 258.960938 L 128.5 259 L 128.402344 259.035156 L 128.199219 259.105469 L 128.09375 259.132812 L 127.988281 259.15625 L 127.878906 259.179688 L 127.769531 259.199219 L 127.65625 259.21875 L 127.421875 259.242188 L 127.300781 259.25 L 127.175781 259.253906 L 127.050781 259.253906 L 126.867188 259.25 L 126.691406 259.242188 L 126.519531 259.226562 L 126.347656 259.207031 L 126.183594 259.183594 L 125.871094 259.113281 L 125.722656 259.070312 L 125.574219 259.019531 L 125.433594 258.964844 L 125.296875 258.902344 L 125.167969 258.835938 L 125.039062 258.765625 L 124.917969 258.691406 L 124.796875 258.609375 L 124.683594 258.527344 L 124.574219 258.4375 L 124.472656 258.34375 L 124.371094 258.246094 L 124.273438 258.144531 L 124.183594 258.035156 L 124.097656 257.925781 L 124.015625 257.808594 L 123.941406 257.691406 L 123.867188 257.566406 L 123.800781 257.441406 L 123.738281 257.308594 L 123.679688 257.175781 L 123.578125 256.894531 L 123.535156 256.746094 L 123.496094 256.597656 L 123.460938 256.449219 L 123.429688 256.292969 L 123.40625 256.136719 L 123.382812 255.976562 L 123.367188 255.816406 L 123.355469 255.652344 L 123.351562 255.484375 L 123.347656 255.3125 L 123.351562 255.136719 L 123.355469 254.964844 L 123.386719 254.628906 L 123.40625 254.46875 L 123.433594 254.308594 L 123.464844 254.152344 L 123.503906 254 L 123.542969 253.851562 L 123.589844 253.707031 L 123.640625 253.566406 L 123.699219 253.429688 L 123.757812 253.296875 L 123.824219 253.167969 L 123.894531 253.042969 L 123.96875 252.925781 L 124.046875 252.808594 L 124.128906 252.699219 L 124.214844 252.59375 L 124.308594 252.488281 L 124.402344 252.390625 L 124.503906 252.296875 L 124.609375 252.207031 L 124.722656 252.121094 L 124.835938 252.042969 L 124.953125 251.96875 L 125.078125 251.898438 L 125.203125 251.832031 L 125.335938 251.769531 L 125.609375 251.660156 L 125.753906 251.613281 L 125.902344 251.574219 L 126.054688 251.539062 L 126.210938 251.507812 L 126.367188 251.484375 L 126.53125 251.464844 L 126.699219 251.449219 L 126.871094 251.441406 L 127.046875 251.4375 L 127.285156 251.441406 L 127.515625 251.457031 L 127.738281 251.480469 L 127.953125 251.515625 L 128.160156 251.558594 L 128.355469 251.609375 L 128.546875 251.671875 L 128.730469 251.742188 L 128.90625 251.824219 L 129.070312 251.914062 L 129.230469 252.011719 L 129.378906 252.121094 L 129.523438 252.238281 L 129.652344 252.367188 L 129.777344 252.5 L 129.894531 252.648438 L 130 252.800781 L 130.097656 252.964844 L 130.1875 253.136719 L 130.269531 253.320312 L 129.292969 253.644531 L 129.246094 253.535156 L 129.222656 253.484375 L 129.195312 253.433594 L 129.167969 253.378906 L 129.105469 253.277344 L 129.074219 253.230469 L 129.039062 253.179688 L 129.003906 253.132812 L 128.964844 253.082031 L 128.925781 253.035156 L 128.839844 252.941406 L 128.796875 252.898438 L 128.75 252.855469 L 128.699219 252.8125 L 128.597656 252.734375 L 128.488281 252.65625 L 128.429688 252.621094 L 128.371094 252.589844 L 128.308594 252.554688 L 128.246094 252.523438 L 128.113281 252.46875 L 128.042969 252.441406 L 127.96875 252.417969 L 127.898438 252.394531 L 127.824219 252.371094 L 127.746094 252.351562 L 127.667969 252.335938 L 127.585938 252.320312 L 127.503906 252.308594 L 127.417969 252.296875 L 127.332031 252.289062 L 127.242188 252.285156 L 127.148438 252.28125 Z M 127.054688 252.28125 "/>
<path style="fill:none;stroke-width:1.066978;stroke-linecap:butt;stroke-linejoin:round;stroke:rgb(0%,0%,0%);stroke-opacity:1;stroke-miterlimit:10;" d="M 69.773438 224.808594 L 17.414062 224.808594 "/>
<path style=" stroke:none;fill-rule:nonzero;fill:rgb(0%,0%,0%);fill-opacity:1;" d="M 10.488281 157 L 10.601562 156.996094 L 10.710938 156.992188 L 10.816406 156.984375 L 11.019531 156.960938 L 11.207031 156.921875 L 11.296875 156.898438 L 11.382812 156.871094 L 11.46875 156.839844 L 11.550781 156.808594 L 11.628906 156.773438 L 11.707031 156.734375 L 11.78125 156.695312 L 11.855469 156.652344 L 11.925781 156.609375 L 11.992188 156.566406 L 12.058594 156.515625 L 12.125 156.46875 L 12.183594 156.417969 L 12.246094 156.363281 L 12.304688 156.3125 L 12.359375 156.253906 L 12.414062 156.199219 L 12.515625 156.082031 L 12.5625 156.019531 L 12.648438 155.894531 L 12.691406 155.828125 L 12.730469 155.765625 L 12.808594 155.632812 L 12.878906 155.5 L 12.972656 155.300781 L 13.027344 155.167969 L 14.78125 155.828125 L 14.738281 155.933594 L 14.691406 156.035156 L 14.644531 156.140625 L 14.59375 156.242188 L 14.539062 156.34375 L 14.421875 156.546875 L 14.296875 156.75 L 14.230469 156.847656 L 14.160156 156.945312 L 14.085938 157.042969 L 13.929688 157.230469 L 13.84375 157.316406 L 13.757812 157.40625 L 13.667969 157.488281 L 13.574219 157.570312 L 13.476562 157.652344 L 13.375 157.730469 L 13.269531 157.804688 L 13.160156 157.878906 L 13.050781 157.945312 L 12.933594 158.011719 L 12.8125 158.078125 L 12.6875 158.136719 L 12.558594 158.195312 L 12.292969 158.304688 L 12.152344 158.351562 L 12.007812 158.394531 L 11.859375 158.4375 L 11.707031 158.46875 L 11.546875 158.5 L 11.382812 158.527344 L 11.214844 158.546875 L 11.042969 158.5625 L 10.863281 158.574219 L 10.679688 158.582031 L 10.488281 158.585938 L 10.242188 158.582031 L 10.003906 158.570312 L 9.769531 158.550781 L 9.542969 158.527344 L 9.324219 158.492188 L 9.109375 158.453125 L 8.902344 158.402344 L 8.703125 158.347656 L 8.507812 158.285156 L 8.324219 158.214844 L 8.144531 158.136719 L 7.96875 158.054688 L 7.800781 157.964844 L 7.640625 157.867188 L 7.484375 157.769531 L 7.335938 157.660156 L 7.195312 157.546875 L 7.058594 157.429688 L 6.929688 157.304688 L 6.804688 157.175781 L 6.6875 157.039062 L 6.578125 156.898438 L 6.476562 156.753906 L 6.378906 156.601562 L 6.285156 156.445312 L 6.199219 156.285156 L 6.121094 156.117188 L 6.046875 155.945312 L 5.976562 155.769531 L 5.917969 155.589844 L 5.863281 155.40625 L 5.8125 155.21875 L 5.769531 155.023438 L 5.734375 154.832031 L 5.703125 154.632812 L 5.675781 154.429688 L 5.65625 154.222656 L 5.640625 154.015625 L 5.632812 153.804688 L 5.628906 153.585938 L 5.632812 153.363281 L 5.640625 153.144531 L 5.65625 152.929688 L 5.675781 152.71875 L 5.703125 152.515625 L 5.734375 152.3125 L 5.769531 152.117188 L 5.8125 151.921875 L 5.863281 151.734375 L 5.917969 151.550781 L 5.976562 151.371094 L 6.046875 151.199219 L 6.121094 151.03125 L 6.199219 150.867188 L 6.285156 150.710938 L 6.375 150.558594 L 6.472656 150.410156 L 6.574219 150.269531 L 6.683594 150.136719 L 6.796875 150.003906 L 6.917969 149.878906 L 7.046875 149.761719 L 7.179688 149.648438 L 7.316406 149.539062 L 7.464844 149.4375 L 7.613281 149.34375 L 7.773438 149.253906 L 7.9375 149.167969 L 8.105469 149.09375 L 8.28125 149.019531 L 8.464844 148.953125 L 8.65625 148.894531 L 8.851562 148.84375 L 9.054688 148.796875 L 9.261719 148.757812 L 9.476562 148.726562 L 9.699219 148.703125 L 9.925781 148.6875 L 10.160156 148.675781 L 10.402344 148.671875 L 10.769531 148.679688 L 10.945312 148.691406 L 11.117188 148.703125 L 11.285156 148.722656 L 11.445312 148.742188 L 11.605469 148.769531 L 11.757812 148.800781 L 11.90625 148.832031 L 12.1875 148.910156 L 12.324219 148.957031 L 12.457031 149.003906 L 12.585938 149.054688 L 12.710938 149.109375 L 12.832031 149.167969 L 13.058594 149.292969 L 13.167969 149.359375 L 13.273438 149.429688 L 13.375 149.503906 L 13.472656 149.578125 L 13.566406 149.65625 L 13.746094 149.820312 L 13.828125 149.90625 L 13.910156 149.996094 L 13.984375 150.085938 L 14.058594 150.183594 L 14.125 150.277344 L 14.191406 150.375 L 14.257812 150.476562 L 14.316406 150.578125 L 14.375 150.683594 L 14.429688 150.789062 L 14.484375 150.898438 L 14.53125 151.007812 L 14.578125 151.121094 L 14.621094 151.234375 L 14.660156 151.351562 L 12.882812 151.835938 L 12.863281 151.777344 L 12.839844 151.714844 L 12.816406 151.65625 L 12.789062 151.59375 L 12.761719 151.535156 L 12.730469 151.476562 L 12.699219 151.421875 L 12.628906 151.304688 L 12.589844 151.25 L 12.546875 151.191406 L 12.460938 151.082031 L 12.414062 151.03125 L 12.3125 150.929688 L 12.257812 150.882812 L 12.203125 150.832031 L 12.144531 150.789062 L 12.082031 150.742188 L 12.019531 150.699219 L 11.957031 150.660156 L 11.824219 150.582031 L 11.683594 150.511719 L 11.609375 150.480469 L 11.53125 150.449219 L 11.453125 150.421875 L 11.289062 150.367188 L 11.203125 150.347656 L 11.117188 150.324219 L 11.027344 150.308594 L 10.933594 150.292969 L 10.839844 150.28125 L 10.742188 150.269531 L 10.644531 150.265625 L 10.542969 150.257812 L 10.441406 150.257812 L 10.296875 150.261719 L 10.15625 150.269531 L 10.023438 150.28125 L 9.890625 150.296875 L 9.761719 150.316406 L 9.636719 150.34375 L 9.519531 150.375 L 9.402344 150.410156 L 9.183594 150.496094 L 8.980469 150.597656 L 8.792969 150.714844 L 8.703125 150.78125 L 8.617188 150.851562 L 8.539062 150.921875 L 8.460938 151 L 8.386719 151.082031 L 8.316406 151.167969 L 8.25 151.257812 L 8.1875 151.347656 L 8.128906 151.445312 L 8.074219 151.546875 L 8.023438 151.648438 L 7.929688 151.867188 L 7.890625 151.980469 L 7.851562 152.097656 L 7.816406 152.21875 L 7.785156 152.34375 L 7.761719 152.46875 L 7.738281 152.597656 L 7.714844 152.730469 L 7.683594 153.003906 L 7.671875 153.144531 L 7.664062 153.289062 L 7.660156 153.4375 L 7.660156 153.738281 L 7.664062 153.882812 L 7.671875 154.027344 L 7.683594 154.167969 L 7.699219 154.308594 L 7.714844 154.445312 L 7.761719 154.710938 L 7.785156 154.839844 L 7.816406 154.96875 L 7.851562 155.089844 L 7.890625 155.210938 L 7.929688 155.324219 L 7.976562 155.4375 L 8.027344 155.546875 L 8.078125 155.652344 L 8.132812 155.753906 L 8.191406 155.855469 L 8.324219 156.042969 L 8.394531 156.128906 L 8.46875 156.214844 L 8.625 156.371094 L 8.710938 156.441406 L 8.800781 156.511719 L 8.894531 156.574219 L 8.992188 156.636719 L 9.09375 156.691406 L 9.199219 156.746094 L 9.308594 156.792969 L 9.421875 156.835938 L 9.539062 156.875 L 9.664062 156.90625 L 9.789062 156.933594 L 9.921875 156.957031 L 10.058594 156.976562 L 10.199219 156.988281 L 10.339844 156.996094 Z M 10.488281 157 "/>
<path style=" stroke:none;fill-rule:nonzero;fill:rgb(100%,100%,100%);fill-opacity:1;" d="M 216 288 L 432 288 L 432 144 L 216 144 Z M 216 288 "/>
<g clip-path="url(#clip7)" clip-rule="nonzero">
<path style="fill:none;stroke-width:1.066978;stroke-linecap:round;stroke-linejoin:round;stroke:rgb(100%,100%,100%);stroke-opacity:1;stroke-miterlimit:10;" d="M 216 288 L 432 288 L 432 144 L 216 144 Z M 216 288 "/>
</g>
<g clip-path="url(#clip8)" clip-rule="nonzero">
<path style="fill-rule:nonzero;fill:rgb(100%,100%,100%);fill-opacity:1;stroke-width:1.066978;stroke-linecap:round;stroke-linejoin:round;stroke:rgb(100%,100%,100%);stroke-opacity:1;stroke-miterlimit:10;" d="M 224.21875 279.78125 L 426.519531 279.78125 L 426.519531 149.480469 L 224.21875 149.480469 Z M 224.21875 279.78125 "/>
</g>
<path style="fill:none;stroke-width:1.066978;stroke-linecap:round;stroke-linejoin:round;stroke:rgb(0%,0%,0%);stroke-opacity:1;stroke-miterlimit:10;" d="M 370.917969 214.628906 L 393.835938 214.628906 "/>
<path style="fill:none;stroke-width:1.066978;stroke-linecap:round;stroke-linejoin:round;stroke:rgb(0%,0%,0%);stroke-opacity:1;stroke-miterlimit:10;" d="M 370.917969 173.910156 L 416.753906 173.910156 "/>
<path style="fill:none;stroke-width:1.066978;stroke-linecap:round;stroke-linejoin:round;stroke:rgb(0%,0%,0%);stroke-opacity:1;stroke-miterlimit:10;" d="M 302.167969 255.347656 L 348 255.347656 "/>
<path style="fill:none;stroke-width:1.066978;stroke-linecap:round;stroke-linejoin:round;stroke:rgb(0%,0%,0%);stroke-opacity:1;stroke-miterlimit:10;" d="M 302.167969 224.808594 L 302.167969 224.808594 "/>
<path style="fill:none;stroke-width:1.066978;stroke-linecap:round;stroke-linejoin:round;stroke:rgb(0%,0%,0%);stroke-opacity:1;stroke-miterlimit:10;" d="M 302.167969 194.269531 L 370.917969 194.269531 "/>
<path style="fill:none;stroke-width:1.066978;stroke-linecap:round;stroke-linejoin:round;stroke:rgb(0%,0%,0%);stroke-opacity:1;stroke-miterlimit:10;" d="M 370.917969 194.269531 L 370.917969 214.628906 "/>
<path style="fill:none;stroke-width:1.066978;stroke-linecap:round;stroke-linejoin:round;stroke:rgb(0%,0%,0%);stroke-opacity:1;stroke-miterlimit:10;" d="M 370.917969 194.269531 L 370.917969 173.910156 "/>
<path style="fill:none;stroke-width:1.066978;stroke-linecap:round;stroke-linejoin:round;stroke:rgb(0%,0%,0%);stroke-opacity:1;stroke-miterlimit:10;" d="M 302.167969 224.808594 L 302.167969 255.347656 "/>
<path style="fill:none;stroke-width:1.066978;stroke-linecap:round;stroke-linejoin:round;stroke:rgb(0%,0%,0%);stroke-opacity:1;stroke-miterlimit:10;" d="M 302.167969 224.808594 L 302.167969 224.808594 "/>
<path style="fill:none;stroke-width:1.066978;stroke-linecap:round;stroke-linejoin:round;stroke:rgb(0%,0%,0%);stroke-opacity:1;stroke-miterlimit:10;" d="M 302.167969 224.808594 L 302.167969 194.269531 "/>
<path style=" stroke:none;fill-rule:nonzero;fill:rgb(0%,0%,0%);fill-opacity:1;" d="M 400.699219 218.425781 L 399.832031 216.207031 L 396.371094 216.207031 L 395.496094 218.425781 L 394.429688 218.425781 L 397.527344 210.832031 L 398.699219 210.832031 L 401.75 218.425781 Z M 398.546875 212.898438 L 398.53125 212.855469 L 398.511719 212.8125 L 398.496094 212.765625 L 398.480469 212.722656 L 398.460938 212.679688 L 398.429688 212.59375 L 398.414062 212.546875 L 398.398438 212.503906 L 398.378906 212.460938 L 398.367188 212.417969 L 398.335938 212.332031 L 398.324219 212.289062 L 398.308594 212.25 L 398.296875 212.210938 L 398.28125 212.171875 L 398.269531 212.132812 L 398.210938 211.957031 L 398.199219 211.925781 L 398.191406 211.894531 L 398.179688 211.863281 L 398.171875 211.835938 L 398.160156 211.808594 L 398.152344 211.785156 L 398.144531 211.757812 L 398.136719 211.734375 L 398.128906 211.714844 L 398.125 211.695312 L 398.117188 211.675781 L 398.109375 211.644531 L 398.105469 211.632812 L 398.105469 211.625 L 398.101562 211.613281 L 398.101562 211.609375 L 398.097656 211.613281 L 398.09375 211.625 L 398.089844 211.632812 L 398.085938 211.644531 L 398.078125 211.675781 L 398.070312 211.695312 L 398.066406 211.714844 L 398.058594 211.734375 L 398.050781 211.757812 L 398.027344 211.839844 L 398.015625 211.867188 L 398.007812 211.898438 L 397.984375 211.960938 L 397.949219 212.066406 L 397.9375 212.105469 L 397.925781 212.140625 L 397.910156 212.179688 L 397.898438 212.21875 L 397.882812 212.257812 L 397.871094 212.300781 L 397.855469 212.34375 L 397.839844 212.382812 L 397.824219 212.425781 L 397.808594 212.472656 L 397.761719 212.601562 L 397.746094 212.648438 L 397.734375 212.691406 L 397.714844 212.734375 L 397.652344 212.90625 L 396.683594 215.402344 L 399.523438 215.402344 Z M 398.546875 212.898438 "/>
<path style=" stroke:none;fill-rule:nonzero;fill:rgb(0%,0%,0%);fill-opacity:1;" d="M 424.105469 175.570312 L 424.105469 175.683594 L 424.097656 175.792969 L 424.085938 175.898438 L 424.070312 176.003906 L 424.050781 176.105469 L 423.996094 176.292969 L 423.960938 176.382812 L 423.921875 176.472656 L 423.878906 176.554688 L 423.832031 176.632812 L 423.78125 176.710938 L 423.730469 176.785156 L 423.671875 176.855469 L 423.613281 176.921875 L 423.550781 176.988281 L 423.484375 177.050781 L 423.417969 177.109375 L 423.269531 177.21875 L 423.113281 177.3125 L 423.03125 177.359375 L 422.945312 177.398438 L 422.855469 177.4375 L 422.675781 177.507812 L 422.578125 177.539062 L 422.480469 177.566406 L 422.382812 177.589844 L 422.28125 177.613281 L 422.175781 177.632812 L 422.074219 177.652344 L 421.96875 177.664062 L 421.859375 177.679688 L 421.753906 177.691406 L 421.644531 177.699219 L 421.425781 177.707031 L 418.230469 177.707031 L 418.230469 170.113281 L 421.117188 170.113281 L 421.238281 170.117188 L 421.355469 170.125 L 421.472656 170.128906 L 421.699219 170.152344 L 421.808594 170.167969 L 421.914062 170.183594 L 422.015625 170.199219 L 422.117188 170.222656 L 422.214844 170.242188 L 422.308594 170.265625 L 422.402344 170.292969 L 422.574219 170.355469 L 422.738281 170.425781 L 422.8125 170.464844 L 422.886719 170.507812 L 422.957031 170.550781 L 423.027344 170.597656 L 423.089844 170.644531 L 423.148438 170.695312 L 423.207031 170.75 L 423.261719 170.808594 L 423.3125 170.867188 L 423.359375 170.925781 L 423.445312 171.058594 L 423.480469 171.125 L 423.515625 171.195312 L 423.546875 171.269531 L 423.574219 171.347656 L 423.597656 171.425781 L 423.636719 171.589844 L 423.648438 171.679688 L 423.664062 171.859375 L 423.664062 172.019531 L 423.65625 172.144531 L 423.648438 172.207031 L 423.632812 172.324219 L 423.621094 172.382812 L 423.589844 172.5 L 423.574219 172.554688 L 423.535156 172.664062 L 423.488281 172.773438 L 423.433594 172.875 L 423.402344 172.925781 L 423.339844 173.019531 L 423.304688 173.066406 L 423.265625 173.113281 L 423.1875 173.199219 L 423.101562 173.277344 L 423.007812 173.355469 L 422.957031 173.390625 L 422.902344 173.425781 L 422.851562 173.460938 L 422.796875 173.492188 L 422.738281 173.523438 L 422.621094 173.578125 L 422.558594 173.601562 L 422.492188 173.625 L 422.429688 173.648438 L 422.289062 173.6875 L 422.21875 173.703125 L 422.308594 173.714844 L 422.398438 173.730469 L 422.570312 173.761719 L 422.652344 173.78125 L 422.808594 173.828125 L 422.957031 173.882812 L 423.097656 173.945312 L 423.230469 174.015625 L 423.292969 174.050781 L 423.355469 174.089844 L 423.414062 174.132812 L 423.46875 174.175781 L 423.519531 174.21875 L 423.574219 174.265625 L 423.621094 174.3125 L 423.667969 174.363281 L 423.753906 174.464844 L 423.792969 174.519531 L 423.828125 174.574219 L 423.898438 174.691406 L 423.929688 174.753906 L 423.957031 174.816406 L 424.003906 174.941406 L 424.027344 175.007812 L 424.046875 175.074219 L 424.0625 175.140625 L 424.085938 175.28125 L 424.101562 175.421875 L 424.105469 175.496094 Z M 422.628906 172.082031 L 422.625 171.960938 L 422.613281 171.847656 L 422.589844 171.742188 L 422.5625 171.644531 L 422.523438 171.554688 L 422.476562 171.46875 L 422.421875 171.390625 L 422.359375 171.320312 L 422.289062 171.257812 L 422.207031 171.203125 L 422.121094 171.152344 L 422.027344 171.105469 L 421.921875 171.066406 L 421.8125 171.035156 L 421.695312 171.003906 L 421.570312 170.980469 L 421.433594 170.960938 L 421.292969 170.949219 L 421.144531 170.941406 L 420.992188 170.9375 L 419.261719 170.9375 L 419.261719 173.34375 L 420.992188 173.34375 L 421.078125 173.339844 L 421.167969 173.339844 L 421.25 173.335938 L 421.332031 173.328125 L 421.410156 173.320312 L 421.484375 173.3125 L 421.554688 173.300781 L 421.625 173.285156 L 421.691406 173.273438 L 421.757812 173.257812 L 421.816406 173.238281 L 421.875 173.214844 L 421.933594 173.195312 L 421.988281 173.171875 L 422.039062 173.148438 L 422.089844 173.121094 L 422.136719 173.09375 L 422.179688 173.066406 L 422.222656 173.035156 L 422.261719 173.003906 L 422.300781 172.96875 L 422.371094 172.898438 L 422.402344 172.859375 L 422.429688 172.820312 L 422.457031 172.777344 L 422.480469 172.738281 L 422.503906 172.695312 L 422.523438 172.648438 L 422.542969 172.605469 L 422.558594 172.558594 L 422.574219 172.507812 L 422.585938 172.460938 L 422.597656 172.410156 L 422.609375 172.355469 L 422.617188 172.304688 L 422.625 172.195312 L 422.628906 172.136719 Z M 423.066406 175.488281 L 423.066406 175.417969 L 423.058594 175.347656 L 423.054688 175.28125 L 423.042969 175.214844 L 423.03125 175.152344 L 423 175.035156 L 422.980469 174.980469 L 422.957031 174.925781 L 422.902344 174.824219 L 422.875 174.777344 L 422.84375 174.730469 L 422.808594 174.683594 L 422.773438 174.644531 L 422.734375 174.601562 L 422.691406 174.5625 L 422.648438 174.527344 L 422.554688 174.457031 L 422.503906 174.425781 L 422.449219 174.398438 L 422.394531 174.367188 L 422.339844 174.34375 L 422.28125 174.316406 L 422.21875 174.296875 L 422.15625 174.273438 L 422.089844 174.253906 L 421.957031 174.222656 L 421.886719 174.207031 L 421.8125 174.195312 L 421.742188 174.183594 L 421.664062 174.171875 L 421.589844 174.164062 L 421.511719 174.15625 L 421.265625 174.144531 L 419.261719 174.144531 L 419.261719 176.882812 L 421.414062 176.882812 L 421.492188 176.878906 L 421.566406 176.875 L 421.636719 176.867188 L 421.710938 176.859375 L 421.777344 176.851562 L 421.847656 176.84375 L 421.980469 176.820312 L 422.113281 176.789062 L 422.175781 176.773438 L 422.234375 176.75 L 422.292969 176.730469 L 422.347656 176.707031 L 422.402344 176.679688 L 422.503906 176.625 L 422.554688 176.59375 L 422.648438 176.523438 L 422.691406 176.484375 L 422.730469 176.445312 L 422.769531 176.402344 L 422.804688 176.359375 L 422.839844 176.3125 L 422.871094 176.265625 L 422.902344 176.214844 L 422.957031 176.105469 L 422.980469 176.046875 L 423 175.988281 L 423.015625 175.925781 L 423.03125 175.859375 L 423.054688 175.71875 L 423.058594 175.644531 L 423.066406 175.566406 Z M 423.066406 175.488281 "/>
<path style=" stroke:none;fill-rule:nonzero;fill:rgb(0%,0%,0%);fill-opacity:1;" d="M 352.84375 252.28125 L 352.714844 252.28125 L 352.589844 252.289062 L 352.347656 252.3125 L 352.230469 252.332031 L 352.117188 252.355469 L 352.007812 252.386719 L 351.902344 252.417969 L 351.796875 252.453125 L 351.695312 252.496094 L 351.597656 252.539062 L 351.410156 252.640625 L 351.324219 252.695312 L 351.238281 252.757812 L 351.15625 252.820312 L 351.078125 252.886719 L 351 252.957031 L 350.929688 253.03125 L 350.859375 253.109375 L 350.792969 253.191406 L 350.730469 253.277344 L 350.671875 253.363281 L 350.617188 253.453125 L 350.566406 253.550781 L 350.515625 253.644531 L 350.46875 253.746094 L 350.429688 253.851562 L 350.386719 253.957031 L 350.351562 254.070312 L 350.289062 254.296875 L 350.242188 254.539062 L 350.222656 254.660156 L 350.207031 254.785156 L 350.195312 254.914062 L 350.179688 255.179688 L 350.179688 255.3125 L 350.183594 255.449219 L 350.1875 255.582031 L 350.195312 255.714844 L 350.210938 255.84375 L 350.226562 255.96875 L 350.246094 256.09375 L 350.269531 256.21875 L 350.296875 256.335938 L 350.328125 256.453125 L 350.363281 256.570312 L 350.402344 256.683594 L 350.445312 256.789062 L 350.492188 256.894531 L 350.539062 256.996094 L 350.589844 257.097656 L 350.644531 257.191406 L 350.703125 257.285156 L 350.765625 257.375 L 350.828125 257.460938 L 350.898438 257.546875 L 350.96875 257.625 L 351.042969 257.703125 L 351.121094 257.773438 L 351.203125 257.84375 L 351.285156 257.910156 L 351.371094 257.972656 L 351.460938 258.03125 L 351.554688 258.085938 L 351.648438 258.136719 L 351.75 258.183594 L 351.851562 258.226562 L 352.0625 258.296875 L 352.171875 258.328125 L 352.285156 258.351562 L 352.402344 258.371094 L 352.519531 258.386719 L 352.636719 258.398438 L 352.761719 258.40625 L 352.886719 258.410156 L 353.144531 258.398438 L 353.226562 258.390625 L 353.308594 258.378906 L 353.386719 258.367188 L 353.542969 258.335938 L 353.617188 258.316406 L 353.6875 258.296875 L 353.761719 258.269531 L 353.902344 258.214844 L 353.96875 258.1875 L 354.035156 258.152344 L 354.101562 258.121094 L 354.164062 258.085938 L 354.289062 258.007812 L 354.40625 257.921875 L 354.460938 257.878906 L 354.519531 257.832031 L 354.628906 257.738281 L 354.730469 257.636719 L 354.78125 257.582031 L 354.828125 257.527344 L 354.921875 257.410156 L 354.964844 257.351562 L 355.09375 257.164062 L 355.132812 257.101562 L 355.171875 257.035156 L 355.210938 256.964844 L 355.25 256.898438 L 355.285156 256.828125 L 356.125 257.25 L 356.082031 257.335938 L 356.039062 257.417969 L 355.945312 257.582031 L 355.792969 257.816406 L 355.734375 257.894531 L 355.679688 257.96875 L 355.617188 258.042969 L 355.558594 258.113281 L 355.492188 258.183594 L 355.429688 258.253906 L 355.359375 258.320312 L 355.21875 258.445312 L 355.144531 258.507812 L 354.988281 258.625 L 354.90625 258.679688 L 354.742188 258.78125 L 354.65625 258.828125 L 354.566406 258.875 L 354.476562 258.917969 L 354.382812 258.960938 L 354.285156 259 L 354.089844 259.070312 L 353.984375 259.105469 L 353.882812 259.132812 L 353.777344 259.15625 L 353.667969 259.179688 L 353.441406 259.21875 L 353.328125 259.230469 L 353.207031 259.242188 L 353.085938 259.25 L 352.964844 259.253906 L 352.835938 259.253906 L 352.65625 259.25 L 352.476562 259.242188 L 352.304688 259.226562 L 352.136719 259.207031 L 351.972656 259.183594 L 351.8125 259.148438 L 351.65625 259.113281 L 351.507812 259.070312 L 351.363281 259.019531 L 351.21875 258.964844 L 351.085938 258.902344 L 350.953125 258.835938 L 350.824219 258.765625 L 350.703125 258.691406 L 350.585938 258.609375 L 350.472656 258.527344 L 350.363281 258.4375 L 350.257812 258.34375 L 350.15625 258.246094 L 350.0625 258.144531 L 349.972656 258.035156 L 349.886719 257.925781 L 349.804688 257.808594 L 349.726562 257.691406 L 349.65625 257.566406 L 349.589844 257.441406 L 349.527344 257.308594 L 349.46875 257.175781 L 349.414062 257.035156 L 349.367188 256.894531 L 349.320312 256.746094 L 349.28125 256.597656 L 349.246094 256.449219 L 349.191406 256.136719 L 349.171875 255.976562 L 349.15625 255.816406 L 349.144531 255.652344 L 349.136719 255.484375 L 349.132812 255.3125 L 349.136719 255.136719 L 349.144531 254.964844 L 349.15625 254.796875 L 349.171875 254.628906 L 349.195312 254.46875 L 349.222656 254.308594 L 349.253906 254.152344 L 349.289062 254 L 349.332031 253.851562 L 349.375 253.707031 L 349.429688 253.566406 L 349.484375 253.429688 L 349.546875 253.296875 L 349.609375 253.167969 L 349.679688 253.042969 L 349.753906 252.925781 L 349.832031 252.808594 L 349.914062 252.699219 L 350.09375 252.488281 L 350.191406 252.390625 L 350.292969 252.296875 L 350.398438 252.207031 L 350.507812 252.121094 L 350.621094 252.042969 L 350.742188 251.96875 L 350.863281 251.898438 L 350.992188 251.832031 L 351.121094 251.769531 L 351.257812 251.714844 L 351.398438 251.660156 L 351.542969 251.613281 L 351.6875 251.574219 L 351.839844 251.539062 L 351.996094 251.507812 L 352.15625 251.484375 L 352.320312 251.464844 L 352.484375 251.449219 L 352.65625 251.441406 L 352.832031 251.4375 L 353.070312 251.441406 L 353.300781 251.457031 L 353.523438 251.480469 L 353.738281 251.515625 L 353.945312 251.558594 L 354.144531 251.609375 L 354.335938 251.671875 L 354.515625 251.742188 L 354.691406 251.824219 L 354.859375 251.914062 L 355.015625 252.011719 L 355.167969 252.121094 L 355.308594 252.238281 L 355.441406 252.367188 L 355.566406 252.5 L 355.679688 252.648438 L 355.785156 252.800781 L 355.886719 252.964844 L 355.976562 253.136719 L 356.054688 253.320312 L 355.078125 253.644531 L 355.058594 253.589844 L 355.035156 253.535156 L 354.980469 253.433594 L 354.953125 253.378906 L 354.890625 253.277344 L 354.859375 253.230469 L 354.824219 253.179688 L 354.789062 253.132812 L 354.75 253.082031 L 354.671875 252.988281 L 354.628906 252.941406 L 354.488281 252.8125 L 354.4375 252.773438 L 354.382812 252.734375 L 354.332031 252.695312 L 354.273438 252.65625 L 354.214844 252.621094 L 354.15625 252.589844 L 354.09375 252.554688 L 354.03125 252.523438 L 353.898438 252.46875 L 353.828125 252.441406 L 353.757812 252.417969 L 353.609375 252.371094 L 353.53125 252.351562 L 353.375 252.320312 L 353.203125 252.296875 L 353.117188 252.289062 L 352.9375 252.28125 Z M 352.84375 252.28125 "/>
<path style="fill:none;stroke-width:1.066978;stroke-linecap:butt;stroke-linejoin:round;stroke:rgb(0%,0%,0%);stroke-opacity:1;stroke-miterlimit:10;" d="M 302.167969 224.808594 L 233.414062 224.808594 "/>
<path style=" stroke:none;fill-rule:nonzero;fill:rgb(0%,0%,0%);fill-opacity:1;" d="M 230.578125 153.558594 L 230.574219 153.796875 L 230.5625 154.03125 L 230.546875 154.257812 L 230.519531 154.476562 L 230.488281 154.691406 L 230.445312 154.902344 L 230.398438 155.105469 L 230.347656 155.300781 L 230.285156 155.492188 L 230.214844 155.679688 L 230.140625 155.859375 L 230.058594 156.03125 L 229.972656 156.199219 L 229.882812 156.359375 L 229.785156 156.515625 L 229.683594 156.664062 L 229.578125 156.808594 L 229.464844 156.945312 L 229.347656 157.078125 L 229.222656 157.203125 L 229.097656 157.324219 L 228.964844 157.4375 L 228.824219 157.546875 L 228.683594 157.648438 L 228.539062 157.742188 L 228.386719 157.832031 L 228.230469 157.917969 L 228.070312 157.996094 L 227.902344 158.066406 L 227.734375 158.132812 L 227.5625 158.191406 L 227.386719 158.246094 L 227.207031 158.292969 L 227.027344 158.335938 L 226.84375 158.371094 L 226.660156 158.398438 L 226.46875 158.417969 L 226.277344 158.433594 L 226.085938 158.445312 L 225.886719 158.449219 L 221.992188 158.449219 L 221.992188 148.816406 L 225.476562 148.816406 L 225.699219 148.820312 L 225.917969 148.828125 L 226.132812 148.839844 L 226.34375 148.859375 L 226.554688 148.886719 L 226.757812 148.917969 L 226.957031 148.953125 L 227.152344 148.996094 L 227.347656 149.042969 L 227.535156 149.097656 L 227.71875 149.15625 L 227.898438 149.21875 L 228.074219 149.292969 L 228.242188 149.367188 L 228.40625 149.453125 L 228.566406 149.539062 L 228.71875 149.636719 L 228.867188 149.738281 L 229.011719 149.84375 L 229.148438 149.957031 L 229.28125 150.078125 L 229.40625 150.203125 L 229.527344 150.335938 L 229.640625 150.472656 L 229.75 150.617188 L 229.851562 150.769531 L 229.949219 150.925781 L 230.039062 151.089844 L 230.125 151.257812 L 230.203125 151.433594 L 230.273438 151.617188 L 230.335938 151.804688 L 230.394531 152 L 230.441406 152.203125 L 230.484375 152.414062 L 230.515625 152.628906 L 230.542969 152.851562 L 230.5625 153.082031 L 230.574219 153.316406 Z M 228.546875 153.558594 L 228.546875 153.394531 L 228.539062 153.234375 L 228.527344 153.078125 L 228.511719 152.925781 L 228.488281 152.777344 L 228.464844 152.636719 L 228.433594 152.5 L 228.398438 152.367188 L 228.359375 152.242188 L 228.316406 152.117188 L 228.269531 152 L 228.21875 151.886719 L 228.164062 151.777344 L 228.105469 151.671875 L 228.042969 151.570312 L 227.976562 151.472656 L 227.910156 151.382812 L 227.835938 151.296875 L 227.757812 151.210938 L 227.679688 151.132812 L 227.507812 150.984375 L 227.417969 150.917969 L 227.324219 150.855469 L 227.128906 150.738281 L 227.023438 150.6875 L 226.917969 150.640625 L 226.808594 150.597656 L 226.695312 150.558594 L 226.582031 150.523438 L 226.464844 150.492188 L 226.34375 150.464844 L 226.222656 150.441406 L 226.097656 150.421875 L 225.96875 150.402344 L 225.839844 150.390625 L 225.574219 150.375 L 224.007812 150.375 L 224.007812 156.890625 L 225.71875 156.890625 L 225.839844 156.886719 L 226.074219 156.871094 L 226.1875 156.855469 L 226.300781 156.835938 L 226.414062 156.8125 L 226.523438 156.785156 L 226.628906 156.753906 L 226.734375 156.71875 L 226.839844 156.675781 L 226.941406 156.632812 L 227.039062 156.585938 L 227.136719 156.53125 L 227.230469 156.476562 L 227.320312 156.414062 L 227.410156 156.347656 L 227.496094 156.28125 L 227.578125 156.207031 L 227.65625 156.128906 L 227.734375 156.046875 L 227.808594 155.960938 L 227.878906 155.871094 L 227.949219 155.777344 L 228.074219 155.574219 L 228.132812 155.46875 L 228.1875 155.359375 L 228.238281 155.242188 L 228.285156 155.125 L 228.328125 155.003906 L 228.371094 154.875 L 228.40625 154.746094 L 228.441406 154.613281 L 228.46875 154.472656 L 228.492188 154.332031 L 228.511719 154.183594 L 228.527344 154.035156 L 228.539062 153.878906 L 228.546875 153.722656 Z M 228.546875 153.558594 "/>
</g>
</svg>
