<?xml version="1.0" encoding="UTF-8"?>
<svg xmlns="http://www.w3.org/2000/svg" xmlns:xlink="http://www.w3.org/1999/xlink" width="432pt" height="230pt" viewBox="0 0 432 230" version="1.1">
<defs>
<clipPath id="clip1">
  <path d="M 8.21875 5.480469 L 426.519531 5.480469 L 426.519531 221.78125 L 8.21875 221.78125 Z M 8.21875 5.480469 "/>
</clipPath>
</defs>
<g id="surface1092">
<rect x="0" y="0" width="432" height="230" style="fill:rgb(100%,100%,100%);fill-opacity:1;stroke:none;"/>
<rect x="0" y="0" width="432" height="230" style="fill:rgb(100%,100%,100%);fill-opacity:1;stroke:none;"/>
<path style="fill:none;stroke-width:1.066978;stroke-linecap:round;stroke-linejoin:round;stroke:rgb(100%,100%,100%);stroke-opacity:1;stroke-miterlimit:10;" d="M 0 230 L 432 230 L 432 0 L 0 0 Z M 0 230 "/>
<g clip-path="url(#clip1)" clip-rule="nonzero">
<path style="fill-rule:nonzero;fill:rgb(100%,100%,100%);fill-opacity:1;stroke-width:1.066978;stroke-linecap:round;stroke-linejoin:round;stroke:rgb(100%,100%,100%);stroke-opacity:1;stroke-miterlimit:10;" d="M 8.21875 221.78125 L 426.519531 221.78125 L 426.519531 5.480469 L 8.21875 5.480469 Z M 8.21875 221.78125 "/>
</g>
<rect x="0" y="0" width="432" height="230" style="fill:rgb(100%,100%,100%);fill-opacity:1;stroke:none;"/>
<path style="fill:none;stroke-width:1.066978;stroke-linecap:round;stroke-linejoin:round;stroke:rgb(100%,100%,100%);stroke-opacity:1;stroke-miterlimit:10;" d="M -29.808594 272.320312 L 464.546875 272.320312 L 464.546875 -222.035156 L -29.808594 -222.035156 Z M -29.808594 272.320312 "/>
<rect x="0" y="0" width="432" height="230" style="fill:rgb(100%,100%,100%);fill-opacity:1;stroke:none;"/>
<path style="fill:none;stroke-width:1.066978;stroke-linecap:round;stroke-linejoin:round;stroke:rgb(100%,100%,100%);stroke-opacity:1;stroke-miterlimit:10;" d="M -21.589844 264.101562 L 459.066406 264.101562 L 459.066406 -216.554688 L -21.589844 -216.554688 Z M -21.589844 264.101562 "/>
<path style="fill:none;stroke-width:1.066978;stroke-linecap:round;stroke-linejoin:round;stroke:rgb(69.803922%,13.333333%,13.333333%);stroke-opacity:1;stroke-miterlimit:10;" d="M 364.683594 59.746094 L 371.316406 61.378906 L 377.953125 63.015625 "/>
<path style="fill:none;stroke-width:1.066978;stroke-linecap:round;stroke-linejoin:round;stroke:rgb(69.803922%,13.333333%,13.333333%);stroke-opacity:1;stroke-miterlimit:10;" d="M 369.050781 23.773438 L 382.714844 23.773438 "/>
<path style="fill:none;stroke-width:1.066978;stroke-linecap:round;stroke-linejoin:round;stroke:rgb(69.803922%,13.333333%,13.333333%);stroke-opacity:1;stroke-miterlimit:10;" d="M 333.683594 84.101562 L 348.808594 92.039062 "/>
<path style="fill:none;stroke-width:1.066978;stroke-linecap:round;stroke-linejoin:round;stroke:rgb(69.803922%,13.333333%,13.333333%);stroke-opacity:1;stroke-miterlimit:10;" d="M 295.453125 91.734375 L 305.679688 100.796875 L 310.792969 105.324219 "/>
<path style="fill:none;stroke-width:1.066978;stroke-linecap:round;stroke-linejoin:round;stroke:rgb(69.803922%,13.333333%,13.333333%);stroke-opacity:1;stroke-miterlimit:10;" d="M 271.136719 99.683594 L 274.839844 105.050781 L 278.546875 110.417969 L 282.25 115.785156 L 285.957031 121.152344 L 293.363281 131.886719 L 297.070312 137.253906 L 300.773438 142.621094 L 304.480469 147.988281 L 308.183594 153.355469 L 311.890625 158.722656 "/>
<path style="fill:none;stroke-width:1.066978;stroke-linecap:round;stroke-linejoin:round;stroke:rgb(27.45098%,50.980392%,70.588235%);stroke-opacity:1;stroke-miterlimit:10;" d="M 236.859375 172.988281 L 237.679688 179.773438 L 238.503906 186.554688 "/>
<path style="fill:none;stroke-width:1.066978;stroke-linecap:round;stroke-linejoin:round;stroke:rgb(27.45098%,50.980392%,70.588235%);stroke-opacity:1;stroke-miterlimit:10;" d="M 272.042969 164.316406 L 274.464844 170.707031 L 276.886719 177.09375 L 279.308594 183.484375 L 281.730469 189.871094 L 284.15625 196.257812 L 286.578125 202.648438 "/>
<path style="fill:none;stroke-width:1.066978;stroke-linecap:round;stroke-linejoin:round;stroke:rgb(27.45098%,50.980392%,70.588235%);stroke-opacity:1;stroke-miterlimit:10;" d="M 206.386719 125.511719 L 205.5625 132.292969 L 204.738281 139.078125 L 203.914062 145.859375 L 203.09375 152.640625 "/>
<path style="fill:none;stroke-width:1.066978;stroke-linecap:round;stroke-linejoin:round;stroke:rgb(0%,0%,0%);stroke-opacity:1;stroke-miterlimit:10;" d="M 64.46875 104.738281 L 56.910156 108.707031 L 49.347656 112.679688 "/>
<path style="fill:none;stroke-width:1.066978;stroke-linecap:round;stroke-linejoin:round;stroke:rgb(0%,0%,0%);stroke-opacity:1;stroke-miterlimit:10;" d="M 88.328125 139.304688 L 83.214844 143.835938 "/>
<path style="fill:none;stroke-width:1.066978;stroke-linecap:round;stroke-linejoin:round;stroke:rgb(0%,0%,0%);stroke-opacity:1;stroke-miterlimit:10;" d="M 174.105469 88.4375 L 169.835938 94.621094 L 165.566406 100.808594 L 161.296875 106.992188 L 157.027344 113.179688 L 152.757812 119.363281 "/>
<path style="fill:none;stroke-width:1.066978;stroke-linecap:round;stroke-linejoin:round;stroke:rgb(0%,0%,0%);stroke-opacity:1;stroke-miterlimit:10;" d="M 190.878906 97.238281 L 188.210938 104.265625 L 180.21875 125.347656 L 177.550781 132.375 "/>
<path style="fill:none;stroke-width:1.066978;stroke-linecap:round;stroke-linejoin:round;stroke:rgb(0%,0%,0%);stroke-opacity:1;stroke-miterlimit:10;" d="M 218.738281 23.773438 L 212.335938 25.351562 L 199.523438 28.507812 L 193.121094 30.089844 L 173.902344 34.824219 L 167.5 36.402344 L 154.6875 39.558594 L 148.285156 41.140625 L 135.472656 44.296875 L 129.070312 45.875 L 116.257812 49.03125 L 109.851562 50.613281 L 103.449219 52.191406 L 90.636719 55.347656 L 84.234375 56.925781 L 71.421875 60.082031 L 65.019531 61.664062 L 45.800781 66.398438 L 39.398438 67.976562 L 32.992188 69.554688 "/>
<path style="fill:none;stroke-width:1.066978;stroke-linecap:round;stroke-linejoin:round;stroke:rgb(0%,0%,0%);stroke-opacity:1;stroke-miterlimit:10;" d="M 218.738281 23.773438 L 218.738281 23.773438 "/>
<path style="fill:none;stroke-width:1.066978;stroke-linecap:round;stroke-linejoin:round;stroke:rgb(0%,0%,0%);stroke-opacity:1;stroke-miterlimit:10;" d="M 218.738281 23.773438 L 217.789062 30.539062 L 216.835938 37.304688 "/>
<path style="fill:none;stroke-width:1.066978;stroke-linecap:round;stroke-linejoin:round;stroke:rgb(0%,0%,0%);stroke-opacity:1;stroke-miterlimit:10;" d="M 224.628906 36.105469 L 227.820312 42.78125 L 231.007812 49.460938 L 234.199219 56.140625 L 237.386719 62.820312 L 243.769531 76.179688 "/>
<path style="fill:none;stroke-width:1.066978;stroke-linecap:round;stroke-linejoin:round;stroke:rgb(69.803922%,13.333333%,13.333333%);stroke-opacity:1;stroke-miterlimit:10;" d="M 261.621094 62.9375 L 266.667969 67.542969 L 271.714844 72.152344 L 276.757812 76.757812 L 281.804688 81.367188 L 286.847656 85.972656 "/>
<path style="fill:none;stroke-width:1.066978;stroke-linecap:round;stroke-linejoin:round;stroke:rgb(69.803922%,13.333333%,13.333333%);stroke-opacity:1;stroke-miterlimit:10;" d="M 299.078125 69.085938 L 308.007812 74.121094 "/>
<path style="fill:none;stroke-width:1.066978;stroke-linecap:round;stroke-linejoin:round;stroke:rgb(69.803922%,13.333333%,13.333333%);stroke-opacity:1;stroke-miterlimit:10;" d="M 316.585938 54.261719 L 323.109375 56.296875 L 329.632812 58.328125 L 336.152344 60.359375 L 342.675781 62.394531 "/>
<path style="fill:none;stroke-width:1.066978;stroke-linecap:round;stroke-linejoin:round;stroke:rgb(69.803922%,13.333333%,13.333333%);stroke-opacity:1;stroke-miterlimit:10;" d="M 347.609375 39.421875 L 354.390625 40.246094 L 361.171875 41.066406 L 367.957031 41.890625 "/>
<path style="fill:none;stroke-width:1.066978;stroke-linecap:round;stroke-linejoin:round;stroke:rgb(27.45098%,50.980392%,70.588235%);stroke-opacity:1;stroke-miterlimit:10;" d="M 222.246094 81.742188 L 222.691406 89.128906 L 223.140625 96.519531 L 223.585938 103.90625 L 224.035156 111.296875 L 224.925781 126.070312 "/>
<path style="fill:none;stroke-width:1.066978;stroke-linecap:round;stroke-linejoin:round;stroke:rgb(27.45098%,50.980392%,70.588235%);stroke-opacity:1;stroke-miterlimit:10;" d="M 243.265625 123.28125 L 244.902344 129.914062 L 246.535156 136.546875 L 248.171875 143.183594 L 249.804688 149.816406 L 253.078125 163.082031 L 254.710938 169.71875 "/>
<path style="fill:none;stroke-width:1.066978;stroke-linecap:round;stroke-linejoin:round;stroke:rgb(0%,0%,0%);stroke-opacity:1;stroke-miterlimit:10;" d="M 209.679688 34 L 204.863281 39.433594 L 200.050781 44.867188 L 195.238281 50.304688 L 190.421875 55.738281 L 180.796875 66.605469 L 175.980469 72.039062 L 171.167969 77.472656 "/>
<path style="fill:none;stroke-width:1.066978;stroke-linecap:round;stroke-linejoin:round;stroke:rgb(0%,0%,0%);stroke-opacity:1;stroke-miterlimit:10;" d="M 159.699219 64.527344 L 154.074219 68.40625 L 142.832031 76.171875 L 137.207031 80.050781 L 131.585938 83.933594 L 125.960938 87.8125 L 120.339844 91.695312 L 114.714844 95.574219 L 109.09375 99.457031 L 103.46875 103.339844 L 97.847656 107.21875 L 92.222656 111.101562 L 86.601562 114.980469 L 80.976562 118.863281 L 75.355469 122.746094 "/>
<path style="fill:none;stroke-width:1.066978;stroke-linecap:round;stroke-linejoin:round;stroke:rgb(0%,0%,0%);stroke-opacity:1;stroke-miterlimit:10;" d="M 185.402344 87.296875 L 182.226562 93.34375 "/>
<path style="fill:none;stroke-width:1.066978;stroke-linecap:round;stroke-linejoin:round;stroke:rgb(69.803922%,13.333333%,13.333333%);stroke-opacity:1;stroke-miterlimit:10;" d="M 367.957031 41.890625 L 366.589844 50.867188 L 364.683594 59.746094 "/>
<path style="fill:none;stroke-width:1.066978;stroke-linecap:round;stroke-linejoin:round;stroke:rgb(69.803922%,13.333333%,13.333333%);stroke-opacity:1;stroke-miterlimit:10;" d="M 367.957031 41.890625 L 368.777344 32.847656 L 369.050781 23.773438 "/>
<path style="fill:none;stroke-width:1.066978;stroke-linecap:round;stroke-linejoin:round;stroke:rgb(69.803922%,13.333333%,13.333333%);stroke-opacity:1;stroke-miterlimit:10;" d="M 342.675781 62.394531 L 340.117188 69.804688 L 337.117188 77.050781 L 333.683594 84.101562 "/>
<path style="fill:none;stroke-width:1.066978;stroke-linecap:round;stroke-linejoin:round;stroke:rgb(69.803922%,13.333333%,13.333333%);stroke-opacity:1;stroke-miterlimit:10;" d="M 308.007812 74.121094 L 304.238281 80.28125 L 300.046875 86.164062 L 295.453125 91.734375 "/>
<path style="fill:none;stroke-width:1.066978;stroke-linecap:round;stroke-linejoin:round;stroke:rgb(69.803922%,13.333333%,13.333333%);stroke-opacity:1;stroke-miterlimit:10;" d="M 286.847656 85.972656 L 281.960938 90.933594 L 276.714844 95.511719 L 271.136719 99.683594 "/>
<path style="fill:none;stroke-width:1.066978;stroke-linecap:round;stroke-linejoin:round;stroke:rgb(27.45098%,50.980392%,70.588235%);stroke-opacity:1;stroke-miterlimit:10;" d="M 254.710938 169.71875 L 245.835938 171.625 L 236.859375 172.988281 "/>
<path style="fill:none;stroke-width:1.066978;stroke-linecap:round;stroke-linejoin:round;stroke:rgb(27.45098%,50.980392%,70.588235%);stroke-opacity:1;stroke-miterlimit:10;" d="M 254.710938 169.71875 L 263.457031 167.28125 L 272.042969 164.316406 "/>
<path style="fill:none;stroke-width:1.066978;stroke-linecap:round;stroke-linejoin:round;stroke:rgb(27.45098%,50.980392%,70.588235%);stroke-opacity:1;stroke-miterlimit:10;" d="M 224.925781 126.070312 L 215.644531 126.210938 L 206.386719 125.511719 "/>
<path style="fill:none;stroke-width:1.066978;stroke-linecap:round;stroke-linejoin:round;stroke:rgb(0%,0%,0%);stroke-opacity:1;stroke-miterlimit:10;" d="M 75.355469 122.746094 L 71.484375 116.890625 L 67.855469 110.886719 L 64.46875 104.738281 "/>
<path style="fill:none;stroke-width:1.066978;stroke-linecap:round;stroke-linejoin:round;stroke:rgb(0%,0%,0%);stroke-opacity:1;stroke-miterlimit:10;" d="M 75.355469 122.746094 L 79.457031 128.4375 L 83.785156 133.960938 L 88.328125 139.304688 "/>
<path style="fill:none;stroke-width:1.066978;stroke-linecap:round;stroke-linejoin:round;stroke:rgb(0%,0%,0%);stroke-opacity:1;stroke-miterlimit:10;" d="M 182.226562 93.34375 L 174.105469 88.4375 "/>
<path style="fill:none;stroke-width:1.066978;stroke-linecap:round;stroke-linejoin:round;stroke:rgb(0%,0%,0%);stroke-opacity:1;stroke-miterlimit:10;" d="M 182.226562 93.34375 L 190.878906 97.238281 "/>
<path style="fill:none;stroke-width:1.066978;stroke-linecap:round;stroke-linejoin:round;stroke:rgb(0%,0%,0%);stroke-opacity:1;stroke-miterlimit:10;" d="M 218.738281 23.773438 L 218.738281 23.773438 "/>
<path style="fill:none;stroke-width:1.066978;stroke-linecap:round;stroke-linejoin:round;stroke:rgb(0%,0%,0%);stroke-opacity:1;stroke-miterlimit:10;" d="M 218.738281 23.773438 L 218.738281 23.773438 "/>
<path style="fill:none;stroke-width:1.066978;stroke-linecap:round;stroke-linejoin:round;stroke:rgb(0%,0%,0%);stroke-opacity:1;stroke-miterlimit:10;" d="M 218.738281 23.773438 L 218.738281 23.773438 "/>
<path style="fill:none;stroke-width:1.066978;stroke-linecap:round;stroke-linejoin:round;stroke:rgb(0%,0%,0%);stroke-opacity:1;stroke-miterlimit:10;" d="M 216.835938 37.304688 L 224.628906 36.105469 "/>
<path style="fill:none;stroke-width:1.066978;stroke-linecap:round;stroke-linejoin:round;stroke:rgb(69.803922%,13.333333%,13.333333%);stroke-opacity:1;stroke-miterlimit:10;" d="M 243.769531 76.179688 L 250.273438 72.542969 L 256.257812 68.105469 L 261.621094 62.9375 "/>
<path style="fill:none;stroke-width:1.066978;stroke-linecap:round;stroke-linejoin:round;stroke:rgb(69.803922%,13.333333%,13.333333%);stroke-opacity:1;stroke-miterlimit:10;" d="M 286.847656 85.972656 L 291.347656 80.65625 L 295.433594 75.015625 L 299.078125 69.085938 "/>
<path style="fill:none;stroke-width:1.066978;stroke-linecap:round;stroke-linejoin:round;stroke:rgb(69.803922%,13.333333%,13.333333%);stroke-opacity:1;stroke-miterlimit:10;" d="M 308.007812 74.121094 L 311.332031 67.707031 L 314.195312 61.078125 L 316.585938 54.261719 "/>
<path style="fill:none;stroke-width:1.066978;stroke-linecap:round;stroke-linejoin:round;stroke:rgb(69.803922%,13.333333%,13.333333%);stroke-opacity:1;stroke-miterlimit:10;" d="M 342.675781 62.394531 L 344.78125 54.839844 L 346.429688 47.171875 L 347.609375 39.421875 "/>
<path style="fill:none;stroke-width:1.066978;stroke-linecap:round;stroke-linejoin:round;stroke:rgb(27.45098%,50.980392%,70.588235%);stroke-opacity:1;stroke-miterlimit:10;" d="M 243.769531 76.179688 L 236.851562 78.953125 L 229.640625 80.816406 L 222.246094 81.742188 "/>
<path style="fill:none;stroke-width:1.066978;stroke-linecap:round;stroke-linejoin:round;stroke:rgb(27.45098%,50.980392%,70.588235%);stroke-opacity:1;stroke-miterlimit:10;" d="M 224.925781 126.070312 L 234.160156 125.09375 L 243.265625 123.28125 "/>
<path style="fill:none;stroke-width:1.066978;stroke-linecap:round;stroke-linejoin:round;stroke:rgb(0%,0%,0%);stroke-opacity:1;stroke-miterlimit:10;" d="M 216.835938 37.304688 L 209.679688 34 "/>
<path style="fill:none;stroke-width:1.066978;stroke-linecap:round;stroke-linejoin:round;stroke:rgb(0%,0%,0%);stroke-opacity:1;stroke-miterlimit:10;" d="M 171.167969 77.472656 L 165.042969 71.347656 L 159.699219 64.527344 "/>
<path style="fill:none;stroke-width:1.066978;stroke-linecap:round;stroke-linejoin:round;stroke:rgb(0%,0%,0%);stroke-opacity:1;stroke-miterlimit:10;" d="M 171.167969 77.472656 L 177.988281 82.8125 L 185.402344 87.296875 "/>
<path style=" stroke:none;fill-rule:nonzero;fill:rgb(69.803922%,13.333333%,13.333333%);fill-opacity:1;" d="M 384.078125 68.4375 L 383.769531 66.074219 L 380.410156 65.246094 L 379.027344 67.191406 L 377.992188 66.9375 L 382.820312 60.304688 L 383.957031 60.585938 L 385.101562 68.6875 Z M 383.316406 62.550781 L 383.308594 62.507812 L 383.300781 62.460938 L 383.296875 62.414062 L 383.289062 62.367188 L 383.285156 62.320312 L 383.277344 62.273438 L 383.273438 62.230469 L 383.269531 62.183594 L 383.261719 62.136719 L 383.25 61.996094 L 383.234375 61.824219 L 383.226562 61.746094 L 383.226562 61.707031 L 383.222656 61.667969 L 383.21875 61.632812 L 383.214844 61.59375 L 383.214844 61.558594 L 383.210938 61.527344 L 383.207031 61.492188 L 383.207031 61.460938 L 383.195312 61.378906 L 383.195312 61.351562 L 383.191406 61.328125 L 383.191406 61.246094 L 383.1875 61.234375 L 383.1875 61.195312 L 383.183594 61.199219 L 383.175781 61.214844 L 383.160156 61.238281 L 383.152344 61.253906 L 383.140625 61.269531 L 383.105469 61.328125 L 383.09375 61.351562 L 383.078125 61.375 L 383.0625 61.402344 L 383.046875 61.425781 L 383.027344 61.453125 L 383.011719 61.480469 L 382.992188 61.511719 L 382.972656 61.539062 L 382.933594 61.601562 L 382.910156 61.636719 L 382.890625 61.671875 L 382.867188 61.703125 L 382.847656 61.738281 L 382.824219 61.773438 L 382.800781 61.8125 L 382.777344 61.847656 L 382.75 61.886719 L 382.726562 61.921875 L 382.699219 61.960938 L 382.675781 62 L 382.648438 62.039062 L 382.625 62.078125 L 382.597656 62.117188 L 382.574219 62.15625 L 382.519531 62.234375 L 382.496094 62.273438 L 382.46875 62.3125 L 382.445312 62.347656 L 380.902344 64.539062 L 383.664062 65.21875 Z M 383.316406 62.550781 "/>
<path style=" stroke:none;fill-rule:nonzero;fill:rgb(69.803922%,13.333333%,13.333333%);fill-opacity:1;" d="M 390.453125 25.429688 L 390.453125 25.542969 L 390.445312 25.65625 L 390.433594 25.761719 L 390.417969 25.867188 L 390.398438 25.964844 L 390.371094 26.0625 L 390.34375 26.15625 L 390.308594 26.246094 L 390.269531 26.332031 L 390.226562 26.417969 L 390.132812 26.574219 L 390.078125 26.648438 L 390.023438 26.71875 L 389.898438 26.851562 L 389.835938 26.910156 L 389.765625 26.972656 L 389.695312 27.027344 L 389.617188 27.082031 L 389.542969 27.128906 L 389.460938 27.175781 L 389.378906 27.21875 L 389.292969 27.261719 L 389.207031 27.300781 L 389.113281 27.335938 L 389.023438 27.367188 L 388.925781 27.398438 L 388.730469 27.453125 L 388.628906 27.476562 L 388.523438 27.496094 L 388.421875 27.511719 L 388.210938 27.542969 L 387.882812 27.566406 L 387.773438 27.570312 L 384.578125 27.570312 L 384.578125 19.976562 L 387.464844 19.976562 L 387.585938 19.980469 L 387.703125 19.984375 L 387.820312 19.992188 L 387.9375 20.003906 L 388.15625 20.027344 L 388.261719 20.042969 L 388.464844 20.082031 L 388.5625 20.105469 L 388.65625 20.128906 L 388.75 20.15625 L 388.839844 20.183594 L 388.921875 20.21875 L 389.007812 20.25 L 389.164062 20.328125 L 389.234375 20.367188 L 389.304688 20.414062 L 389.375 20.457031 L 389.5 20.558594 L 389.609375 20.667969 L 389.660156 20.730469 L 389.707031 20.789062 L 389.792969 20.921875 L 389.828125 20.988281 L 389.863281 21.058594 L 389.894531 21.132812 L 389.921875 21.207031 L 389.945312 21.289062 L 389.984375 21.453125 L 389.996094 21.539062 L 390.003906 21.628906 L 390.011719 21.722656 L 390.011719 21.882812 L 390.003906 22.007812 L 389.996094 22.066406 L 389.988281 22.128906 L 389.980469 22.1875 L 389.96875 22.246094 L 389.953125 22.304688 L 389.9375 22.359375 L 389.921875 22.417969 L 389.882812 22.527344 L 389.859375 22.582031 L 389.835938 22.632812 L 389.808594 22.6875 L 389.78125 22.738281 L 389.753906 22.785156 L 389.71875 22.835938 L 389.6875 22.882812 L 389.652344 22.929688 L 389.613281 22.972656 L 389.578125 23.019531 L 389.535156 23.058594 L 389.492188 23.101562 L 389.449219 23.140625 L 389.355469 23.21875 L 389.253906 23.289062 L 389.199219 23.324219 L 389.144531 23.355469 L 389.085938 23.382812 L 389.027344 23.414062 L 388.96875 23.441406 L 388.84375 23.488281 L 388.777344 23.511719 L 388.707031 23.53125 L 388.640625 23.550781 L 388.566406 23.566406 L 388.660156 23.578125 L 388.746094 23.589844 L 388.832031 23.605469 L 388.917969 23.625 L 389 23.644531 L 389.15625 23.691406 L 389.304688 23.746094 L 389.445312 23.808594 L 389.515625 23.84375 L 389.640625 23.914062 L 389.703125 23.953125 L 389.761719 23.996094 L 389.871094 24.082031 L 389.921875 24.128906 L 390.015625 24.222656 L 390.058594 24.273438 L 390.101562 24.328125 L 390.179688 24.4375 L 390.214844 24.496094 L 390.277344 24.613281 L 390.304688 24.675781 L 390.332031 24.742188 L 390.355469 24.804688 L 390.394531 24.9375 L 390.410156 25.003906 L 390.421875 25.074219 L 390.433594 25.140625 L 390.441406 25.210938 L 390.449219 25.285156 L 390.453125 25.355469 Z M 388.976562 21.941406 L 388.972656 21.824219 L 388.960938 21.710938 L 388.941406 21.605469 L 388.910156 21.507812 L 388.871094 21.417969 L 388.824219 21.332031 L 388.769531 21.253906 L 388.707031 21.183594 L 388.636719 21.121094 L 388.558594 21.066406 L 388.46875 21.015625 L 388.375 20.96875 L 388.269531 20.929688 L 388.160156 20.894531 L 388.042969 20.867188 L 387.917969 20.84375 L 387.785156 20.824219 L 387.644531 20.8125 L 387.496094 20.804688 L 387.339844 20.800781 L 385.609375 20.800781 L 385.609375 23.203125 L 387.515625 23.203125 L 387.597656 23.195312 L 387.679688 23.191406 L 387.757812 23.183594 L 387.832031 23.171875 L 387.902344 23.164062 L 387.972656 23.148438 L 388.039062 23.136719 L 388.105469 23.117188 L 388.28125 23.058594 L 388.335938 23.035156 L 388.386719 23.007812 L 388.4375 22.984375 L 388.484375 22.957031 L 388.527344 22.925781 L 388.570312 22.898438 L 388.609375 22.863281 L 388.648438 22.832031 L 388.683594 22.796875 L 388.71875 22.757812 L 388.75 22.722656 L 388.777344 22.683594 L 388.804688 22.640625 L 388.851562 22.554688 L 388.871094 22.511719 L 388.890625 22.464844 L 388.921875 22.371094 L 388.957031 22.21875 L 388.964844 22.167969 L 388.972656 22.058594 L 388.976562 22 Z M 389.414062 25.351562 L 389.414062 25.277344 L 389.410156 25.210938 L 389.402344 25.144531 L 389.390625 25.078125 L 389.378906 25.015625 L 389.367188 24.957031 L 389.328125 24.839844 L 389.304688 24.789062 L 389.28125 24.734375 L 389.253906 24.6875 L 389.222656 24.636719 L 389.191406 24.589844 L 389.121094 24.503906 L 389.082031 24.464844 L 389.039062 24.425781 L 388.996094 24.390625 L 388.902344 24.320312 L 388.851562 24.289062 L 388.796875 24.257812 L 388.6875 24.203125 L 388.628906 24.179688 L 388.566406 24.15625 L 388.441406 24.117188 L 388.371094 24.097656 L 388.304688 24.082031 L 388.234375 24.070312 L 388.164062 24.054688 L 388.089844 24.042969 L 388.015625 24.035156 L 387.859375 24.019531 L 387.613281 24.007812 L 385.609375 24.007812 L 385.609375 26.746094 L 387.6875 26.746094 L 387.761719 26.742188 L 387.839844 26.742188 L 387.914062 26.734375 L 387.984375 26.730469 L 388.058594 26.722656 L 388.128906 26.714844 L 388.195312 26.703125 L 388.265625 26.695312 L 388.332031 26.679688 L 388.394531 26.667969 L 388.460938 26.652344 L 388.523438 26.632812 L 388.640625 26.59375 L 388.695312 26.570312 L 388.804688 26.515625 L 388.855469 26.488281 L 388.902344 26.457031 L 388.996094 26.386719 L 389.039062 26.347656 L 389.078125 26.308594 L 389.117188 26.265625 L 389.152344 26.222656 L 389.222656 26.128906 L 389.25 26.078125 L 389.28125 26.023438 L 389.304688 25.96875 L 389.328125 25.910156 L 389.347656 25.851562 L 389.367188 25.785156 L 389.390625 25.652344 L 389.402344 25.582031 L 389.410156 25.507812 L 389.414062 25.429688 Z M 389.414062 25.351562 "/>
<path style=" stroke:none;fill-rule:nonzero;fill:rgb(69.803922%,13.333333%,13.333333%);fill-opacity:1;" d="M 354.863281 91.75 L 354.75 91.691406 L 354.636719 91.640625 L 354.523438 91.59375 L 354.410156 91.550781 L 354.296875 91.515625 L 354.1875 91.480469 L 354.074219 91.457031 L 353.964844 91.433594 L 353.855469 91.417969 L 353.746094 91.40625 L 353.640625 91.402344 L 353.53125 91.402344 L 353.429688 91.40625 L 353.324219 91.414062 L 353.21875 91.425781 L 353.117188 91.445312 L 353.019531 91.464844 L 352.917969 91.492188 L 352.722656 91.5625 L 352.625 91.605469 L 352.53125 91.652344 L 352.4375 91.703125 L 352.347656 91.757812 L 352.257812 91.816406 L 352.167969 91.878906 L 352.082031 91.945312 L 351.996094 92.019531 L 351.910156 92.097656 L 351.828125 92.175781 L 351.746094 92.261719 L 351.664062 92.351562 L 351.585938 92.445312 L 351.511719 92.539062 L 351.4375 92.640625 L 351.363281 92.746094 L 351.292969 92.851562 L 351.160156 93.078125 L 351.09375 93.199219 L 350.976562 93.441406 L 350.921875 93.5625 L 350.875 93.683594 L 350.832031 93.800781 L 350.789062 93.921875 L 350.753906 94.039062 L 350.722656 94.160156 L 350.695312 94.277344 L 350.675781 94.398438 L 350.65625 94.515625 L 350.644531 94.628906 L 350.636719 94.742188 L 350.628906 94.96875 L 350.632812 95.078125 L 350.65625 95.296875 L 350.671875 95.402344 L 350.691406 95.507812 L 350.71875 95.613281 L 350.75 95.714844 L 350.785156 95.816406 L 350.824219 95.914062 L 350.867188 96.011719 L 350.914062 96.105469 L 350.96875 96.199219 L 351.023438 96.289062 L 351.085938 96.378906 L 351.152344 96.46875 L 351.222656 96.554688 L 351.296875 96.636719 L 351.460938 96.792969 L 351.546875 96.867188 L 351.640625 96.9375 L 351.738281 97.007812 L 351.839844 97.074219 L 351.945312 97.136719 L 352.054688 97.195312 L 352.210938 97.273438 L 352.285156 97.308594 L 352.363281 97.339844 L 352.441406 97.367188 L 352.515625 97.394531 L 352.59375 97.417969 L 352.667969 97.4375 L 352.816406 97.46875 L 352.894531 97.480469 L 352.96875 97.492188 L 353.042969 97.5 L 353.191406 97.507812 L 353.265625 97.507812 L 353.335938 97.503906 L 353.410156 97.5 L 353.550781 97.484375 L 353.625 97.472656 L 353.695312 97.460938 L 353.835938 97.429688 L 353.976562 97.390625 L 354.046875 97.367188 L 354.113281 97.34375 L 354.183594 97.320312 L 354.25 97.289062 L 354.320312 97.257812 L 354.453125 97.195312 L 354.519531 97.15625 L 354.585938 97.121094 L 354.71875 97.042969 L 354.78125 97 L 354.847656 96.957031 L 354.910156 96.914062 L 355.460938 97.675781 L 355.304688 97.785156 L 355.148438 97.886719 L 354.984375 97.980469 L 354.902344 98.023438 L 354.816406 98.066406 L 354.730469 98.105469 L 354.644531 98.140625 L 354.464844 98.210938 L 354.375 98.242188 L 354.285156 98.269531 L 354.195312 98.292969 L 354.007812 98.332031 L 353.910156 98.351562 L 353.816406 98.363281 L 353.71875 98.375 L 353.523438 98.390625 L 353.324219 98.390625 L 353.222656 98.386719 L 353.019531 98.371094 L 352.914062 98.359375 L 352.808594 98.34375 L 352.703125 98.324219 L 352.597656 98.300781 L 352.492188 98.273438 L 352.386719 98.242188 L 352.277344 98.210938 L 352.171875 98.171875 L 352.0625 98.128906 L 351.953125 98.082031 L 351.839844 98.035156 L 351.730469 97.980469 L 351.617188 97.921875 L 351.457031 97.835938 L 351.304688 97.746094 L 351.15625 97.652344 L 351.019531 97.554688 L 350.886719 97.457031 L 350.757812 97.355469 L 350.640625 97.25 L 350.527344 97.140625 L 350.421875 97.027344 L 350.320312 96.914062 L 350.230469 96.796875 L 350.144531 96.675781 L 350.0625 96.554688 L 349.988281 96.433594 L 349.921875 96.304688 L 349.859375 96.179688 L 349.804688 96.050781 L 349.710938 95.785156 L 349.675781 95.648438 L 349.644531 95.511719 L 349.621094 95.375 L 349.601562 95.234375 L 349.589844 95.09375 L 349.585938 94.949219 L 349.582031 94.808594 L 349.589844 94.664062 L 349.601562 94.515625 L 349.617188 94.367188 L 349.640625 94.21875 L 349.667969 94.070312 L 349.703125 93.921875 L 349.742188 93.769531 L 349.789062 93.621094 L 349.839844 93.46875 L 349.894531 93.320312 L 349.953125 93.167969 L 350.019531 93.015625 L 350.09375 92.863281 L 350.167969 92.714844 L 350.253906 92.558594 L 350.339844 92.410156 L 350.429688 92.265625 L 350.523438 92.125 L 350.617188 91.992188 L 350.714844 91.863281 L 350.8125 91.742188 L 350.917969 91.625 L 351.023438 91.511719 L 351.128906 91.402344 L 351.355469 91.207031 L 351.472656 91.117188 L 351.589844 91.035156 L 351.707031 90.957031 L 351.828125 90.886719 L 351.953125 90.820312 L 352.074219 90.761719 L 352.203125 90.707031 L 352.332031 90.660156 L 352.464844 90.617188 L 352.597656 90.578125 L 352.730469 90.550781 L 352.867188 90.523438 L 353.007812 90.507812 L 353.148438 90.496094 L 353.289062 90.492188 L 353.433594 90.492188 L 353.578125 90.5 L 353.722656 90.511719 L 353.871094 90.53125 L 354.019531 90.554688 L 354.171875 90.589844 L 354.320312 90.628906 L 354.472656 90.671875 L 354.625 90.726562 L 354.777344 90.785156 L 354.933594 90.847656 L 355.089844 90.921875 L 355.246094 91 L 355.453125 91.113281 L 355.652344 91.234375 L 355.835938 91.359375 L 356.011719 91.488281 L 356.175781 91.621094 L 356.328125 91.761719 L 356.46875 91.902344 L 356.597656 92.050781 L 356.714844 92.203125 L 356.820312 92.363281 L 356.914062 92.523438 L 356.996094 92.691406 L 357.066406 92.859375 L 357.125 93.035156 L 357.171875 93.210938 L 357.207031 93.394531 L 357.226562 93.582031 L 357.238281 93.769531 L 357.238281 93.964844 L 357.226562 94.164062 L 356.210938 93.996094 L 356.214844 93.9375 L 356.21875 93.882812 L 356.222656 93.824219 L 356.222656 93.765625 L 356.21875 93.707031 L 356.21875 93.644531 L 356.214844 93.585938 L 356.199219 93.46875 L 356.191406 93.40625 L 356.179688 93.347656 L 356.167969 93.285156 L 356.152344 93.226562 L 356.136719 93.164062 L 356.117188 93.105469 L 356.070312 92.988281 L 356.046875 92.925781 L 356.019531 92.867188 L 355.957031 92.75 L 355.921875 92.691406 L 355.882812 92.632812 L 355.84375 92.578125 L 355.757812 92.460938 L 355.710938 92.40625 L 355.609375 92.296875 L 355.5 92.1875 L 355.441406 92.132812 L 355.378906 92.082031 L 355.3125 92.03125 L 355.246094 91.984375 L 355.175781 91.933594 L 355.027344 91.839844 L 354.945312 91.792969 Z M 354.863281 91.75 "/>
<path style=" stroke:none;fill-rule:nonzero;fill:rgb(69.803922%,13.333333%,13.333333%);fill-opacity:1;" d="M 317.132812 110.839844 L 317.007812 110.976562 L 316.878906 111.109375 L 316.75 111.230469 L 316.621094 111.347656 L 316.488281 111.460938 L 316.355469 111.5625 L 316.21875 111.660156 L 316.082031 111.746094 L 315.945312 111.828125 L 315.808594 111.902344 L 315.667969 111.972656 L 315.53125 112.03125 L 315.390625 112.085938 L 315.253906 112.132812 L 315.113281 112.175781 L 314.976562 112.210938 L 314.835938 112.242188 L 314.695312 112.265625 L 314.558594 112.28125 L 314.417969 112.292969 L 314.28125 112.296875 L 314.140625 112.296875 L 314.003906 112.289062 L 313.867188 112.273438 L 313.730469 112.253906 L 313.59375 112.226562 L 313.457031 112.195312 L 313.320312 112.160156 L 313.183594 112.117188 L 313.050781 112.066406 L 312.917969 112.011719 L 312.785156 111.953125 L 312.65625 111.886719 L 312.527344 111.816406 L 312.402344 111.742188 L 312.277344 111.660156 L 312.152344 111.574219 L 312.03125 111.484375 L 311.796875 111.289062 L 309.667969 109.402344 L 314.707031 103.71875 L 316.585938 105.382812 L 316.714844 105.5 L 316.839844 105.621094 L 316.957031 105.738281 L 317.070312 105.863281 L 317.179688 105.984375 L 317.285156 106.109375 L 317.382812 106.234375 L 317.476562 106.363281 L 317.566406 106.492188 L 317.648438 106.621094 L 317.730469 106.753906 L 317.871094 107.019531 L 317.929688 107.152344 L 317.984375 107.285156 L 318.03125 107.421875 L 318.074219 107.558594 L 318.109375 107.695312 L 318.136719 107.835938 L 318.160156 107.972656 L 318.175781 108.113281 L 318.183594 108.25 L 318.1875 108.390625 L 318.183594 108.53125 L 318.171875 108.671875 L 318.15625 108.816406 L 318.128906 108.957031 L 318.097656 109.101562 L 318.0625 109.242188 L 318.015625 109.386719 L 317.964844 109.53125 L 317.902344 109.675781 L 317.835938 109.820312 L 317.761719 109.96875 L 317.675781 110.113281 L 317.582031 110.257812 L 317.484375 110.402344 L 317.375 110.546875 L 317.257812 110.691406 Z M 316.359375 110.152344 L 316.457031 110.035156 L 316.550781 109.921875 L 316.636719 109.808594 L 316.71875 109.695312 L 316.792969 109.582031 L 316.859375 109.46875 L 316.976562 109.242188 L 317.023438 109.132812 L 317.066406 109.019531 L 317.101562 108.910156 L 317.132812 108.800781 L 317.160156 108.6875 L 317.183594 108.578125 L 317.199219 108.46875 L 317.210938 108.363281 L 317.214844 108.253906 L 317.214844 108.148438 L 317.210938 108.042969 L 317.199219 107.9375 L 317.183594 107.832031 L 317.164062 107.726562 L 317.136719 107.625 L 317.105469 107.519531 L 317.070312 107.417969 L 317.03125 107.316406 L 316.988281 107.21875 L 316.9375 107.117188 L 316.882812 107.019531 L 316.824219 106.921875 L 316.761719 106.820312 L 316.695312 106.726562 L 316.625 106.628906 L 316.550781 106.535156 L 316.472656 106.441406 L 316.390625 106.347656 L 316.304688 106.253906 L 316.214844 106.164062 L 316.121094 106.074219 L 316.023438 105.988281 L 314.929688 105.019531 L 310.988281 109.46875 L 312.253906 110.589844 L 312.34375 110.667969 L 312.433594 110.742188 L 312.527344 110.8125 L 312.714844 110.9375 L 312.910156 111.046875 L 313.007812 111.09375 L 313.210938 111.179688 L 313.3125 111.214844 L 313.414062 111.246094 L 313.519531 111.273438 L 313.621094 111.296875 L 313.726562 111.316406 L 313.832031 111.328125 L 313.9375 111.335938 L 314.042969 111.339844 L 314.148438 111.339844 L 314.359375 111.324219 L 314.464844 111.308594 L 314.574219 111.285156 L 314.679688 111.261719 L 314.785156 111.230469 L 314.894531 111.195312 L 315 111.15625 L 315.109375 111.109375 L 315.214844 111.058594 L 315.320312 111.003906 L 315.429688 110.945312 L 315.535156 110.878906 L 315.640625 110.808594 L 315.746094 110.730469 L 315.847656 110.648438 L 315.953125 110.558594 L 316.054688 110.464844 L 316.15625 110.367188 L 316.257812 110.261719 Z M 316.359375 110.152344 "/>
<path style=" stroke:none;fill-rule:nonzero;fill:rgb(69.803922%,13.333333%,13.333333%);fill-opacity:1;" d="M 309.820312 162.414062 L 316.074219 158.097656 L 319.347656 162.839844 L 318.652344 163.320312 L 315.964844 159.425781 L 313.960938 160.808594 L 316.464844 164.4375 L 315.78125 164.910156 L 313.277344 161.28125 L 311.097656 162.78125 L 313.914062 166.859375 L 313.21875 167.335938 Z M 309.820312 162.414062 "/>
<path style=" stroke:none;fill-rule:nonzero;fill:rgb(27.45098%,50.980392%,70.588235%);fill-opacity:1;" d="M 241.789062 189.070312 L 238.984375 189.410156 L 239.496094 193.617188 L 238.648438 193.71875 L 238.140625 189.511719 L 235.082031 189.882812 L 234.960938 188.859375 L 242.5 187.945312 L 243.148438 193.300781 L 242.316406 193.402344 Z M 241.789062 189.070312 "/>
<path style=" stroke:none;fill-rule:nonzero;fill:rgb(27.45098%,50.980392%,70.588235%);fill-opacity:1;" d="M 287.148438 204.050781 L 287.3125 203.988281 L 287.476562 203.933594 L 287.640625 203.886719 L 287.800781 203.84375 L 287.960938 203.804688 L 288.117188 203.773438 L 288.273438 203.746094 L 288.429688 203.726562 L 288.582031 203.710938 L 288.734375 203.703125 L 288.882812 203.699219 L 289.03125 203.703125 L 289.175781 203.710938 L 289.320312 203.726562 L 289.460938 203.746094 L 289.597656 203.773438 L 289.734375 203.804688 L 289.867188 203.84375 L 289.996094 203.890625 L 290.125 203.941406 L 290.253906 203.996094 L 290.378906 204.058594 L 290.5 204.128906 L 290.617188 204.203125 L 290.734375 204.28125 L 290.847656 204.367188 L 290.957031 204.460938 L 291.066406 204.558594 L 291.171875 204.664062 L 291.273438 204.773438 L 291.371094 204.890625 L 291.46875 205.011719 L 291.5625 205.136719 L 291.648438 205.273438 L 291.734375 205.414062 L 291.816406 205.558594 L 291.894531 205.710938 L 291.972656 205.871094 L 292.042969 206.035156 L 292.109375 206.207031 L 292.160156 206.335938 L 292.203125 206.464844 L 292.28125 206.714844 L 292.316406 206.832031 L 292.34375 206.953125 L 292.371094 207.066406 L 292.394531 207.179688 L 292.414062 207.292969 L 292.429688 207.402344 L 292.453125 207.613281 L 292.460938 207.714844 L 292.464844 207.816406 L 292.464844 207.914062 L 292.457031 208.109375 L 292.449219 208.203125 L 292.4375 208.292969 L 292.40625 208.472656 L 292.386719 208.558594 L 292.363281 208.644531 L 292.308594 208.808594 L 292.277344 208.890625 L 292.246094 208.96875 L 292.167969 209.125 L 292.082031 209.273438 L 292.039062 209.34375 L 291.988281 209.417969 L 291.941406 209.488281 L 291.886719 209.558594 L 291.832031 209.625 L 291.777344 209.695312 L 291.71875 209.761719 L 291.65625 209.828125 L 291.59375 209.890625 L 290.972656 209.078125 L 291.015625 209.03125 L 291.09375 208.9375 L 291.132812 208.886719 L 291.167969 208.839844 L 291.203125 208.789062 L 291.234375 208.738281 L 291.269531 208.6875 L 291.296875 208.632812 L 291.328125 208.582031 L 291.382812 208.472656 L 291.40625 208.417969 L 291.429688 208.359375 L 291.449219 208.304688 L 291.46875 208.242188 L 291.488281 208.183594 L 291.503906 208.121094 L 291.515625 208.0625 L 291.527344 207.996094 L 291.535156 207.933594 L 291.542969 207.867188 L 291.550781 207.734375 L 291.554688 207.664062 L 291.550781 207.59375 L 291.546875 207.519531 L 291.542969 207.449219 L 291.527344 207.300781 L 291.515625 207.222656 L 291.503906 207.148438 L 291.488281 207.070312 L 291.472656 206.988281 L 291.453125 206.90625 L 291.40625 206.742188 L 291.378906 206.65625 L 291.347656 206.570312 L 291.316406 206.480469 L 291.265625 206.355469 L 291.210938 206.234375 L 291.15625 206.117188 L 291.097656 206.003906 L 291.035156 205.894531 L 290.972656 205.792969 L 290.90625 205.695312 L 290.835938 205.605469 L 290.761719 205.515625 L 290.6875 205.433594 L 290.609375 205.355469 L 290.53125 205.285156 L 290.449219 205.214844 L 290.363281 205.152344 L 290.277344 205.09375 L 290.191406 205.039062 L 290.097656 204.988281 L 290.007812 204.941406 L 289.8125 204.863281 L 289.714844 204.832031 L 289.613281 204.804688 L 289.511719 204.78125 L 289.40625 204.761719 L 289.300781 204.746094 L 289.082031 204.730469 L 288.96875 204.726562 L 288.855469 204.730469 L 288.621094 204.746094 L 288.503906 204.761719 L 288.386719 204.78125 L 288.265625 204.804688 L 288.144531 204.832031 L 288.019531 204.863281 L 287.894531 204.898438 L 287.769531 204.9375 L 287.644531 204.980469 L 287.519531 205.027344 L 287.390625 205.078125 L 287.269531 205.128906 L 287.148438 205.183594 L 287.03125 205.242188 L 286.917969 205.300781 L 286.808594 205.363281 L 286.703125 205.429688 L 286.601562 205.496094 L 286.40625 205.636719 L 286.316406 205.714844 L 286.226562 205.789062 L 286.144531 205.867188 L 286.066406 205.949219 L 285.992188 206.03125 L 285.917969 206.117188 L 285.851562 206.207031 L 285.789062 206.292969 L 285.730469 206.386719 L 285.675781 206.480469 L 285.625 206.574219 L 285.582031 206.671875 L 285.503906 206.875 L 285.472656 206.976562 L 285.445312 207.082031 L 285.425781 207.1875 L 285.40625 207.296875 L 285.394531 207.40625 L 285.382812 207.519531 L 285.382812 207.75 L 285.40625 207.984375 L 285.425781 208.105469 L 285.449219 208.226562 L 285.480469 208.351562 L 285.515625 208.476562 L 285.554688 208.601562 L 285.601562 208.730469 L 285.632812 208.8125 L 285.667969 208.890625 L 285.699219 208.972656 L 285.734375 209.046875 L 285.769531 209.125 L 285.808594 209.199219 L 285.84375 209.269531 L 285.882812 209.339844 L 285.921875 209.40625 L 285.964844 209.472656 L 286.003906 209.539062 L 286.046875 209.601562 L 286.085938 209.660156 L 286.171875 209.777344 L 286.300781 209.941406 L 286.34375 209.992188 L 286.429688 210.085938 L 286.476562 210.132812 L 286.519531 210.179688 L 286.566406 210.222656 L 286.609375 210.261719 L 286.652344 210.304688 L 286.699219 210.339844 L 286.742188 210.378906 L 286.828125 210.449219 L 286.875 210.480469 L 286.917969 210.511719 L 287.046875 210.59375 L 287.085938 210.617188 L 287.128906 210.640625 L 287.167969 210.664062 L 287.210938 210.683594 L 287.25 210.703125 L 288.53125 210.21875 L 287.722656 208.097656 L 288.53125 207.789062 L 289.671875 210.800781 L 287.222656 211.726562 L 287.15625 211.699219 L 287.089844 211.667969 L 286.957031 211.597656 L 286.886719 211.558594 L 286.753906 211.480469 L 286.683594 211.4375 L 286.617188 211.390625 L 286.546875 211.34375 L 286.480469 211.296875 L 286.347656 211.195312 L 286.214844 211.085938 L 286.148438 211.027344 L 286.085938 210.964844 L 286.019531 210.902344 L 285.890625 210.773438 L 285.828125 210.707031 L 285.765625 210.636719 L 285.707031 210.5625 L 285.644531 210.488281 L 285.585938 210.414062 L 285.527344 210.335938 L 285.410156 210.171875 L 285.355469 210.089844 L 285.300781 210 L 285.246094 209.914062 L 285.191406 209.824219 L 285.089844 209.636719 L 284.996094 209.441406 L 284.902344 209.238281 L 284.859375 209.132812 L 284.820312 209.023438 L 284.753906 208.847656 L 284.699219 208.671875 L 284.648438 208.496094 L 284.605469 208.328125 L 284.570312 208.160156 L 284.539062 207.992188 L 284.519531 207.828125 L 284.503906 207.667969 L 284.496094 207.511719 L 284.496094 207.355469 L 284.503906 207.199219 L 284.519531 207.050781 L 284.539062 206.902344 L 284.5625 206.757812 L 284.59375 206.613281 L 284.632812 206.472656 L 284.675781 206.335938 L 284.722656 206.203125 L 284.777344 206.074219 L 284.839844 205.945312 L 284.90625 205.820312 L 284.980469 205.699219 L 285.058594 205.578125 L 285.140625 205.464844 L 285.230469 205.351562 L 285.324219 205.242188 L 285.425781 205.132812 L 285.527344 205.03125 L 285.640625 204.929688 L 285.753906 204.832031 L 285.875 204.738281 L 286 204.648438 L 286.128906 204.558594 L 286.261719 204.476562 L 286.398438 204.398438 L 286.539062 204.320312 L 286.683594 204.246094 L 286.835938 204.175781 L 286.988281 204.113281 Z M 287.148438 204.050781 "/>
<path style=" stroke:none;fill-rule:nonzero;fill:rgb(0%,0%,0%);fill-opacity:1;" d="M 47.929688 117.398438 L 45.238281 110.296875 L 46.199219 109.933594 L 48.894531 117.035156 Z M 47.929688 117.398438 "/>
<path style=" stroke:none;fill-rule:nonzero;fill:rgb(0%,0%,0%);fill-opacity:1;" d="M 82.203125 149.421875 L 82.050781 149.519531 L 81.898438 149.609375 L 81.746094 149.683594 L 81.597656 149.746094 L 81.445312 149.800781 L 81.292969 149.839844 L 81.140625 149.871094 L 80.988281 149.886719 L 80.835938 149.894531 L 80.683594 149.886719 L 80.53125 149.867188 L 80.382812 149.835938 L 80.230469 149.789062 L 80.082031 149.730469 L 79.929688 149.65625 L 79.78125 149.566406 L 79.632812 149.464844 L 79.484375 149.351562 L 79.332031 149.222656 L 79.183594 149.082031 L 79.917969 148.371094 L 80.015625 148.46875 L 80.066406 148.515625 L 80.113281 148.558594 L 80.164062 148.597656 L 80.210938 148.636719 L 80.261719 148.671875 L 80.308594 148.707031 L 80.359375 148.738281 L 80.410156 148.765625 L 80.457031 148.792969 L 80.503906 148.816406 L 80.554688 148.839844 L 80.601562 148.859375 L 80.695312 148.890625 L 80.746094 148.90625 L 80.839844 148.929688 L 80.886719 148.9375 L 80.933594 148.941406 L 80.976562 148.945312 L 81.023438 148.949219 L 81.113281 148.949219 L 81.160156 148.945312 L 81.203125 148.941406 L 81.25 148.933594 L 81.292969 148.925781 L 81.378906 148.902344 L 81.421875 148.886719 L 81.460938 148.875 L 81.503906 148.855469 L 81.542969 148.839844 L 81.621094 148.800781 L 81.660156 148.777344 L 81.695312 148.753906 L 81.734375 148.730469 L 81.820312 148.664062 L 81.902344 148.597656 L 81.972656 148.523438 L 82.035156 148.449219 L 82.089844 148.367188 L 82.136719 148.285156 L 82.175781 148.195312 L 82.207031 148.105469 L 82.230469 148.011719 L 82.242188 147.914062 L 82.246094 147.8125 L 82.242188 147.707031 L 82.226562 147.601562 L 82.203125 147.492188 L 82.171875 147.382812 L 82.128906 147.269531 L 82.078125 147.15625 L 82.015625 147.039062 L 81.945312 146.917969 L 81.867188 146.796875 L 79.304688 143.085938 L 78.101562 143.914062 L 77.625 143.222656 L 79.667969 141.8125 L 82.695312 146.199219 L 82.757812 146.289062 L 82.867188 146.46875 L 82.914062 146.558594 L 82.960938 146.644531 L 83.039062 146.824219 L 83.074219 146.914062 L 83.128906 147.09375 L 83.152344 147.179688 L 83.171875 147.269531 L 83.1875 147.355469 L 83.199219 147.445312 L 83.207031 147.53125 L 83.210938 147.617188 L 83.210938 147.789062 L 83.203125 147.875 L 83.191406 147.960938 L 83.179688 148.042969 L 83.160156 148.125 L 83.140625 148.203125 L 83.113281 148.285156 L 83.085938 148.363281 L 83.015625 148.519531 L 82.976562 148.597656 L 82.933594 148.671875 L 82.882812 148.75 L 82.832031 148.820312 L 82.777344 148.894531 L 82.71875 148.964844 L 82.65625 149.035156 L 82.589844 149.101562 L 82.519531 149.167969 L 82.445312 149.234375 L 82.371094 149.296875 L 82.289062 149.359375 Z M 82.203125 149.421875 "/>
<path style=" stroke:none;fill-rule:nonzero;fill:rgb(0%,0%,0%);fill-opacity:1;" d="M 154.542969 123.460938 L 149.804688 123.875 L 149.863281 125.121094 L 152.257812 126.773438 L 151.671875 127.621094 L 145.421875 123.308594 L 146.007812 122.460938 L 149.136719 124.621094 L 148.085938 119.449219 L 148.773438 118.449219 L 149.652344 122.984375 L 155.269531 122.410156 Z M 154.542969 123.460938 "/>
<path style=" stroke:none;fill-rule:nonzero;fill:rgb(0%,0%,0%);fill-opacity:1;" d="M 178.90625 139.511719 L 171.804688 136.816406 L 172.171875 135.855469 L 178.488281 138.25 L 179.847656 134.660156 L 180.632812 134.960938 Z M 178.90625 139.511719 "/>
<path style=" stroke:none;fill-rule:nonzero;fill:rgb(0%,0%,0%);fill-opacity:1;" d="M 31.191406 73.910156 L 29.980469 68.992188 L 29.96875 68.9375 L 29.953125 68.882812 L 29.941406 68.828125 L 29.929688 68.777344 L 29.914062 68.722656 L 29.890625 68.613281 L 29.875 68.554688 L 29.816406 68.28125 L 29.769531 68.078125 L 29.761719 68.027344 L 29.75 67.980469 L 29.742188 67.933594 L 29.730469 67.878906 L 29.71875 67.828125 L 29.710938 67.773438 L 29.699219 67.71875 L 29.6875 67.667969 L 29.679688 67.617188 L 29.667969 67.5625 L 29.660156 67.511719 L 29.648438 67.460938 L 29.640625 67.410156 L 29.640625 67.464844 L 29.636719 67.523438 L 29.636719 67.578125 L 29.632812 67.636719 L 29.632812 67.691406 L 29.628906 67.75 L 29.625 67.804688 L 29.625 67.863281 L 29.621094 67.917969 L 29.617188 67.976562 L 29.617188 68.023438 L 29.609375 68.125 L 29.609375 68.175781 L 29.601562 68.277344 L 29.597656 68.332031 L 29.59375 68.382812 L 29.578125 68.601562 L 29.566406 68.753906 L 29.5625 68.800781 L 29.558594 68.851562 L 29.550781 68.898438 L 29.546875 68.941406 L 29.539062 68.988281 L 28.875 74.480469 L 28.171875 74.65625 L 25.003906 70.105469 L 24.992188 70.09375 L 24.984375 70.078125 L 24.949219 70.03125 L 24.9375 70.011719 L 24.925781 69.996094 L 24.914062 69.976562 L 24.902344 69.960938 L 24.84375 69.863281 L 24.828125 69.839844 L 24.804688 69.800781 L 24.789062 69.78125 L 24.777344 69.757812 L 24.761719 69.738281 L 24.75 69.714844 L 24.734375 69.695312 L 24.722656 69.671875 L 24.707031 69.648438 L 24.695312 69.628906 L 24.679688 69.605469 L 24.667969 69.582031 L 24.652344 69.5625 L 24.640625 69.539062 L 24.609375 69.492188 L 24.597656 69.46875 L 24.585938 69.449219 L 24.570312 69.425781 L 24.558594 69.402344 L 24.542969 69.378906 L 24.53125 69.355469 L 24.515625 69.332031 L 24.503906 69.3125 L 24.492188 69.289062 L 24.429688 69.1875 L 24.394531 69.132812 L 24.363281 69.082031 L 24.300781 68.972656 L 24.269531 68.921875 L 24.175781 68.757812 L 24.191406 68.8125 L 24.269531 69.105469 L 24.285156 69.160156 L 24.300781 69.21875 L 24.320312 69.277344 L 24.335938 69.332031 L 24.347656 69.382812 L 24.363281 69.429688 L 24.378906 69.480469 L 24.390625 69.53125 L 24.40625 69.582031 L 24.421875 69.636719 L 24.433594 69.6875 L 24.449219 69.738281 L 24.464844 69.792969 L 24.476562 69.847656 L 24.507812 69.949219 L 24.53125 70.050781 L 24.554688 70.144531 L 24.566406 70.1875 L 24.578125 70.234375 L 24.589844 70.277344 L 24.601562 70.316406 L 25.8125 75.238281 L 24.921875 75.457031 L 23.105469 68.082031 L 24.417969 67.757812 L 27.640625 72.386719 L 27.65625 72.40625 L 27.667969 72.429688 L 27.683594 72.449219 L 27.695312 72.472656 L 27.710938 72.496094 L 27.726562 72.523438 L 27.746094 72.550781 L 27.761719 72.578125 L 27.78125 72.609375 L 27.796875 72.636719 L 27.835938 72.699219 L 27.851562 72.726562 L 27.890625 72.789062 L 27.90625 72.820312 L 27.945312 72.882812 L 27.960938 72.917969 L 27.980469 72.949219 L 27.996094 72.980469 L 28.015625 73.011719 L 28.03125 73.042969 L 28.050781 73.074219 L 28.113281 73.199219 L 28.128906 73.226562 L 28.144531 73.257812 L 28.175781 73.3125 L 28.1875 73.335938 L 28.203125 73.359375 L 28.214844 73.382812 L 28.222656 73.40625 L 28.246094 73.445312 L 28.253906 73.460938 L 28.261719 73.480469 L 28.257812 73.460938 L 28.257812 73.191406 L 28.261719 73.15625 L 28.261719 73.050781 L 28.265625 73.015625 L 28.265625 72.980469 L 28.269531 72.945312 L 28.269531 72.90625 L 28.273438 72.871094 L 28.273438 72.832031 L 28.277344 72.796875 L 28.28125 72.757812 L 28.285156 72.722656 L 28.285156 72.6875 L 28.289062 72.652344 L 28.292969 72.613281 L 28.292969 72.578125 L 28.300781 72.507812 L 28.300781 72.472656 L 28.308594 72.410156 L 28.308594 72.378906 L 28.3125 72.347656 L 28.316406 72.320312 L 28.316406 72.292969 L 28.320312 72.265625 L 28.328125 72.21875 L 28.992188 66.628906 L 30.277344 66.3125 L 32.09375 73.6875 Z M 31.191406 73.910156 "/>
<path style=" stroke:none;fill-rule:nonzero;fill:rgb(27.45098%,50.980392%,70.588235%);fill-opacity:1;" d="M 206.515625 155.964844 L 203.019531 155.539062 L 202.523438 159.617188 L 206.019531 160.042969 L 205.894531 161.066406 L 198.355469 160.148438 L 198.480469 159.128906 L 201.667969 159.515625 L 202.164062 155.4375 L 198.972656 155.050781 L 199.097656 154.027344 L 206.636719 154.941406 Z M 206.515625 155.964844 "/>
</g>
</svg>
