<?xml version="1.0" encoding="UTF-8"?>
<svg xmlns="http://www.w3.org/2000/svg" xmlns:xlink="http://www.w3.org/1999/xlink" width="432pt" height="288pt" viewBox="0 0 432 288" version="1.1">
<defs>
<clipPath id="clip1">
  <path d="M 8.21875 5.480469 L 426.519531 5.480469 L 426.519531 279.78125 L 8.21875 279.78125 Z M 8.21875 5.480469 "/>
</clipPath>
</defs>
<g id="surface1001">
<rect x="0" y="0" width="432" height="288" style="fill:rgb(100%,100%,100%);fill-opacity:1;stroke:none;"/>
<rect x="0" y="0" width="432" height="288" style="fill:rgb(100%,100%,100%);fill-opacity:1;stroke:none;"/>
<path style="fill:none;stroke-width:1.066978;stroke-linecap:round;stroke-linejoin:round;stroke:rgb(100%,100%,100%);stroke-opacity:1;stroke-miterlimit:10;" d="M 0 288 L 432 288 L 432 0 L 0 0 Z M 0 288 "/>
<g clip-path="url(#clip1)" clip-rule="nonzero">
<path style="fill-rule:nonzero;fill:rgb(100%,100%,100%);fill-opacity:1;stroke-width:1.066978;stroke-linecap:round;stroke-linejoin:round;stroke:rgb(100%,100%,100%);stroke-opacity:1;stroke-miterlimit:10;" d="M 8.21875 279.78125 L 426.519531 279.78125 L 426.519531 5.480469 L 8.21875 5.480469 Z M 8.21875 279.78125 "/>
</g>
<path style="fill:none;stroke-width:1.066978;stroke-linecap:round;stroke-linejoin:round;stroke:rgb(0%,0%,0%);stroke-opacity:1;stroke-miterlimit:10;" d="M 324.976562 89.878906 L 386.128906 89.878906 "/>
<path style="fill:none;stroke-width:1.066978;stroke-linecap:round;stroke-linejoin:round;stroke:rgb(0%,0%,0%);stroke-opacity:1;stroke-miterlimit:10;" d="M 324.976562 142.628906 L 405.613281 142.628906 "/>
<path style="fill:none;stroke-width:1.066978;stroke-linecap:round;stroke-linejoin:round;stroke:rgb(0%,0%,0%);stroke-opacity:1;stroke-miterlimit:10;" d="M 261.816406 195.378906 L 405.359375 195.378906 "/>
<path style="fill:none;stroke-width:1.066978;stroke-linecap:round;stroke-linejoin:round;stroke:rgb(0%,0%,0%);stroke-opacity:1;stroke-miterlimit:10;" d="M 138.375 37.128906 L 236.023438 37.128906 "/>
<path style="fill:none;stroke-width:1.066978;stroke-linecap:round;stroke-linejoin:round;stroke:rgb(0%,0%,0%);stroke-opacity:1;stroke-miterlimit:10;" d="M 27.234375 248.128906 L 108.921875 248.128906 "/>
<path style="fill:none;stroke-width:1.066978;stroke-linecap:round;stroke-linejoin:round;stroke:rgb(0%,0%,0%);stroke-opacity:1;stroke-miterlimit:10;" d="M 27.234375 172.300781 L 27.234375 172.300781 "/>
<path style="fill:none;stroke-width:1.066978;stroke-linecap:round;stroke-linejoin:round;stroke:rgb(0%,0%,0%);stroke-opacity:1;stroke-miterlimit:10;" d="M 27.234375 96.472656 L 138.375 96.472656 "/>
<path style="fill:none;stroke-width:1.066978;stroke-linecap:round;stroke-linejoin:round;stroke:rgb(0%,0%,0%);stroke-opacity:1;stroke-miterlimit:10;" d="M 138.375 155.816406 L 261.816406 155.816406 "/>
<path style="fill:none;stroke-width:1.066978;stroke-linecap:round;stroke-linejoin:round;stroke:rgb(0%,0%,0%);stroke-opacity:1;stroke-miterlimit:10;" d="M 261.816406 116.253906 L 324.976562 116.253906 "/>
<path style="fill:none;stroke-width:1.066978;stroke-linecap:round;stroke-linejoin:round;stroke:rgb(0%,0%,0%);stroke-opacity:1;stroke-miterlimit:10;" d="M 324.976562 116.253906 L 324.976562 89.878906 "/>
<path style="fill:none;stroke-width:1.066978;stroke-linecap:round;stroke-linejoin:round;stroke:rgb(0%,0%,0%);stroke-opacity:1;stroke-miterlimit:10;" d="M 324.976562 116.253906 L 324.976562 142.628906 "/>
<path style="fill:none;stroke-width:1.066978;stroke-linecap:round;stroke-linejoin:round;stroke:rgb(0%,0%,0%);stroke-opacity:1;stroke-miterlimit:10;" d="M 261.816406 155.816406 L 261.816406 195.378906 "/>
<path style="fill:none;stroke-width:1.066978;stroke-linecap:round;stroke-linejoin:round;stroke:rgb(0%,0%,0%);stroke-opacity:1;stroke-miterlimit:10;" d="M 138.375 96.472656 L 138.375 37.128906 "/>
<path style="fill:none;stroke-width:1.066978;stroke-linecap:round;stroke-linejoin:round;stroke:rgb(0%,0%,0%);stroke-opacity:1;stroke-miterlimit:10;" d="M 27.234375 172.300781 L 27.234375 248.128906 "/>
<path style="fill:none;stroke-width:1.066978;stroke-linecap:round;stroke-linejoin:round;stroke:rgb(0%,0%,0%);stroke-opacity:1;stroke-miterlimit:10;" d="M 27.234375 172.300781 L 27.234375 172.300781 "/>
<path style="fill:none;stroke-width:1.066978;stroke-linecap:round;stroke-linejoin:round;stroke:rgb(0%,0%,0%);stroke-opacity:1;stroke-miterlimit:10;" d="M 27.234375 172.300781 L 27.234375 96.472656 "/>
<path style="fill:none;stroke-width:1.066978;stroke-linecap:round;stroke-linejoin:round;stroke:rgb(0%,0%,0%);stroke-opacity:1;stroke-miterlimit:10;" d="M 138.375 96.472656 L 138.375 155.816406 "/>
<path style="fill:none;stroke-width:1.066978;stroke-linecap:round;stroke-linejoin:round;stroke:rgb(0%,0%,0%);stroke-opacity:1;stroke-miterlimit:10;" d="M 261.816406 155.816406 L 261.816406 116.253906 "/>
<path style=" stroke:none;fill-rule:nonzero;fill:rgb(0%,0%,0%);fill-opacity:1;" d="M 391.007812 93.632812 L 390.964844 93.644531 L 390.917969 93.65625 L 390.875 93.667969 L 390.832031 93.675781 L 390.785156 93.6875 L 390.738281 93.695312 L 390.695312 93.703125 L 390.554688 93.726562 L 390.511719 93.734375 L 390.460938 93.738281 L 390.414062 93.746094 L 390.3125 93.753906 L 390.203125 93.761719 L 390.085938 93.761719 L 390.027344 93.765625 L 389.804688 93.75 L 389.609375 93.710938 L 389.433594 93.644531 L 389.28125 93.550781 L 389.15625 93.433594 L 389.050781 93.289062 L 388.96875 93.117188 L 388.910156 92.917969 L 388.875 92.695312 L 388.863281 92.441406 L 388.863281 88.550781 L 388.191406 88.550781 L 388.191406 87.84375 L 388.902344 87.84375 L 389.1875 86.539062 L 389.832031 86.539062 L 389.832031 87.84375 L 390.910156 87.84375 L 390.910156 88.550781 L 389.832031 88.550781 L 389.832031 92.234375 L 389.839844 92.390625 L 389.855469 92.53125 L 389.867188 92.589844 L 389.882812 92.648438 L 389.898438 92.699219 L 389.917969 92.746094 L 389.941406 92.789062 L 389.96875 92.824219 L 390 92.859375 L 390.03125 92.886719 L 390.070312 92.910156 L 390.113281 92.933594 L 390.207031 92.964844 L 390.261719 92.976562 L 390.320312 92.984375 L 390.382812 92.992188 L 390.53125 92.992188 L 390.558594 92.988281 L 390.585938 92.988281 L 390.640625 92.980469 L 390.664062 92.980469 L 390.746094 92.96875 L 390.773438 92.960938 L 390.828125 92.953125 L 390.859375 92.945312 L 390.886719 92.941406 L 390.917969 92.9375 L 390.945312 92.929688 L 390.976562 92.921875 L 391.007812 92.917969 Z M 391.007812 93.632812 "/>
<path style=" stroke:none;fill-rule:nonzero;fill:rgb(0%,0%,0%);fill-opacity:1;" d="M 391.929688 93.675781 L 391.929688 92.851562 L 393.867188 92.851562 L 393.867188 87.007812 L 392.152344 88.234375 L 392.152344 87.316406 L 393.945312 86.082031 L 394.839844 86.082031 L 394.839844 92.851562 L 396.691406 92.851562 L 396.691406 93.675781 Z M 391.929688 93.675781 "/>
<path style=" stroke:none;fill-rule:nonzero;fill:rgb(0%,0%,0%);fill-opacity:1;" d="M 410.492188 146.382812 L 410.40625 146.40625 L 410.359375 146.417969 L 410.316406 146.425781 L 410.269531 146.4375 L 410.222656 146.445312 L 410.179688 146.453125 L 410.039062 146.476562 L 409.996094 146.484375 L 409.945312 146.488281 L 409.898438 146.496094 L 409.796875 146.503906 L 409.6875 146.511719 L 409.570312 146.511719 L 409.511719 146.515625 L 409.289062 146.5 L 409.09375 146.460938 L 408.917969 146.394531 L 408.765625 146.300781 L 408.640625 146.183594 L 408.535156 146.039062 L 408.453125 145.867188 L 408.394531 145.667969 L 408.359375 145.445312 L 408.347656 145.191406 L 408.347656 141.300781 L 407.675781 141.300781 L 407.675781 140.59375 L 408.386719 140.59375 L 408.671875 139.289062 L 409.316406 139.289062 L 409.316406 140.59375 L 410.394531 140.59375 L 410.394531 141.300781 L 409.316406 141.300781 L 409.316406 144.984375 L 409.320312 145.066406 L 409.324219 145.140625 L 409.332031 145.214844 L 409.339844 145.28125 L 409.351562 145.339844 L 409.367188 145.398438 L 409.382812 145.449219 L 409.402344 145.496094 L 409.425781 145.539062 L 409.453125 145.574219 L 409.484375 145.609375 L 409.515625 145.636719 L 409.554688 145.660156 L 409.597656 145.683594 L 409.644531 145.703125 L 409.691406 145.714844 L 409.746094 145.726562 L 409.804688 145.738281 L 409.867188 145.742188 L 410.015625 145.742188 L 410.042969 145.738281 L 410.070312 145.738281 L 410.097656 145.734375 L 410.125 145.734375 L 410.148438 145.730469 L 410.230469 145.71875 L 410.257812 145.710938 L 410.3125 145.703125 L 410.34375 145.699219 L 410.371094 145.691406 L 410.402344 145.6875 L 410.429688 145.679688 L 410.460938 145.675781 L 410.492188 145.667969 Z M 410.492188 146.382812 "/>
<path style=" stroke:none;fill-rule:nonzero;fill:rgb(0%,0%,0%);fill-opacity:1;" d="M 416.25 143.953125 L 416.25 144.066406 L 416.242188 144.179688 L 416.234375 144.289062 L 416.222656 144.394531 L 416.207031 144.5 L 416.1875 144.605469 L 416.164062 144.707031 L 416.140625 144.804688 L 416.078125 145 L 416.042969 145.09375 L 416.003906 145.183594 L 415.960938 145.273438 L 415.914062 145.359375 L 415.863281 145.441406 L 415.808594 145.523438 L 415.753906 145.601562 L 415.695312 145.675781 L 415.632812 145.75 L 415.566406 145.820312 L 415.496094 145.886719 L 415.421875 145.949219 L 415.347656 146.007812 L 415.265625 146.066406 L 415.183594 146.121094 L 415.097656 146.171875 L 415.007812 146.21875 L 414.914062 146.265625 L 414.820312 146.308594 L 414.71875 146.347656 L 414.617188 146.382812 L 414.511719 146.414062 L 414.292969 146.46875 L 414.175781 146.488281 L 414.058594 146.503906 L 413.9375 146.519531 L 413.6875 146.535156 L 413.4375 146.535156 L 413.320312 146.53125 L 413.210938 146.523438 L 413.101562 146.511719 L 412.996094 146.5 L 412.890625 146.484375 L 412.792969 146.46875 L 412.695312 146.445312 L 412.601562 146.421875 L 412.507812 146.394531 L 412.421875 146.367188 L 412.335938 146.335938 L 412.257812 146.300781 L 412.175781 146.265625 L 412.101562 146.230469 L 412.027344 146.191406 L 411.886719 146.105469 L 411.761719 146.011719 L 411.699219 145.960938 L 411.640625 145.910156 L 411.585938 145.855469 L 411.484375 145.746094 L 411.4375 145.6875 L 411.390625 145.625 L 411.347656 145.5625 L 411.269531 145.4375 L 411.234375 145.371094 L 411.203125 145.300781 L 411.171875 145.234375 L 411.117188 145.09375 L 411.070312 144.953125 L 411.03125 144.804688 L 411.015625 144.730469 L 411.996094 144.617188 L 412.007812 144.660156 L 412.023438 144.703125 L 412.035156 144.746094 L 412.050781 144.789062 L 412.070312 144.828125 L 412.085938 144.871094 L 412.105469 144.914062 L 412.121094 144.953125 L 412.144531 144.996094 L 412.164062 145.035156 L 412.1875 145.078125 L 412.210938 145.117188 L 412.234375 145.152344 L 412.261719 145.191406 L 412.289062 145.226562 L 412.351562 145.296875 L 412.386719 145.332031 L 412.417969 145.367188 L 412.457031 145.398438 L 412.492188 145.429688 L 412.535156 145.457031 L 412.574219 145.488281 L 412.621094 145.515625 L 412.664062 145.539062 L 412.710938 145.5625 L 412.757812 145.589844 L 412.808594 145.609375 L 412.859375 145.632812 L 412.914062 145.652344 L 412.96875 145.667969 L 413.027344 145.683594 L 413.089844 145.699219 L 413.152344 145.710938 L 413.214844 145.71875 L 413.355469 145.734375 L 413.425781 145.738281 L 413.5 145.742188 L 413.652344 145.742188 L 413.726562 145.738281 L 413.796875 145.734375 L 413.867188 145.726562 L 413.9375 145.714844 L 414.003906 145.703125 L 414.136719 145.671875 L 414.199219 145.652344 L 414.261719 145.628906 L 414.320312 145.605469 L 414.4375 145.550781 L 414.492188 145.519531 L 414.546875 145.484375 L 414.597656 145.449219 L 414.644531 145.410156 L 414.695312 145.371094 L 414.738281 145.328125 L 414.785156 145.285156 L 414.828125 145.238281 L 414.867188 145.191406 L 414.90625 145.140625 L 414.945312 145.085938 L 414.980469 145.03125 L 415.011719 144.976562 L 415.042969 144.917969 L 415.125 144.730469 L 415.144531 144.664062 L 415.167969 144.59375 L 415.183594 144.523438 L 415.199219 144.449219 L 415.222656 144.300781 L 415.230469 144.222656 L 415.238281 144.140625 L 415.242188 144.058594 L 415.242188 143.90625 L 415.238281 143.835938 L 415.222656 143.703125 L 415.214844 143.640625 L 415.203125 143.574219 L 415.1875 143.511719 L 415.167969 143.453125 L 415.152344 143.390625 L 415.105469 143.273438 L 415.023438 143.109375 L 414.992188 143.058594 L 414.957031 143.007812 L 414.886719 142.914062 L 414.847656 142.871094 L 414.761719 142.785156 L 414.71875 142.746094 L 414.671875 142.707031 L 414.621094 142.667969 L 414.570312 142.636719 L 414.519531 142.601562 L 414.464844 142.574219 L 414.40625 142.542969 L 414.347656 142.515625 L 414.289062 142.492188 L 414.226562 142.46875 L 414.164062 142.449219 L 413.964844 142.402344 L 413.894531 142.394531 L 413.824219 142.382812 L 413.675781 142.375 L 413.503906 142.375 L 413.363281 142.386719 L 413.277344 142.394531 L 413.191406 142.410156 L 413.152344 142.417969 L 413.109375 142.425781 L 413.070312 142.4375 L 413.03125 142.445312 L 412.914062 142.480469 L 412.878906 142.492188 L 412.839844 142.507812 L 412.804688 142.519531 L 412.699219 142.566406 L 412.667969 142.582031 L 412.632812 142.601562 L 412.601562 142.617188 L 412.539062 142.65625 L 412.507812 142.671875 L 412.480469 142.695312 L 412.449219 142.714844 L 412.3125 142.8125 L 412.289062 142.835938 L 412.234375 142.875 L 412.210938 142.898438 L 412.1875 142.917969 L 411.238281 142.917969 L 411.492188 138.832031 L 415.808594 138.832031 L 415.808594 139.65625 L 412.375 139.65625 L 412.230469 142.066406 L 412.28125 142.027344 L 412.335938 141.988281 L 412.394531 141.953125 L 412.519531 141.882812 L 412.585938 141.847656 L 412.726562 141.785156 L 412.800781 141.753906 L 412.875 141.726562 L 412.953125 141.699219 L 413.035156 141.675781 L 413.121094 141.652344 L 413.210938 141.632812 L 413.300781 141.617188 L 413.394531 141.605469 L 413.492188 141.59375 L 413.589844 141.585938 L 413.691406 141.582031 L 413.910156 141.582031 L 414.019531 141.589844 L 414.125 141.597656 L 414.230469 141.609375 L 414.335938 141.625 L 414.4375 141.644531 L 414.535156 141.667969 L 414.628906 141.691406 L 414.726562 141.722656 L 414.816406 141.753906 L 414.90625 141.789062 L 414.992188 141.828125 L 415.15625 141.914062 L 415.234375 141.964844 L 415.3125 142.011719 L 415.382812 142.066406 L 415.523438 142.183594 L 415.648438 142.308594 L 415.707031 142.375 L 415.765625 142.445312 L 415.816406 142.515625 L 415.917969 142.664062 L 415.960938 142.742188 L 416.003906 142.824219 L 416.042969 142.90625 L 416.078125 142.992188 L 416.140625 143.171875 L 416.164062 143.265625 L 416.1875 143.355469 L 416.207031 143.453125 L 416.222656 143.550781 L 416.234375 143.648438 L 416.242188 143.746094 L 416.25 143.851562 Z M 416.25 143.953125 "/>
<path style=" stroke:none;fill-rule:nonzero;fill:rgb(0%,0%,0%);fill-opacity:1;" d="M 410.238281 199.136719 L 410.195312 199.144531 L 410.152344 199.15625 L 410.105469 199.167969 L 410.0625 199.179688 L 409.96875 199.195312 L 409.925781 199.203125 L 409.785156 199.226562 L 409.742188 199.234375 L 409.691406 199.238281 L 409.644531 199.246094 L 409.542969 199.253906 L 409.433594 199.261719 L 409.375 199.261719 L 409.316406 199.265625 L 409.257812 199.265625 L 409.035156 199.25 L 408.839844 199.210938 L 408.664062 199.144531 L 408.511719 199.054688 L 408.386719 198.933594 L 408.28125 198.789062 L 408.199219 198.617188 L 408.140625 198.417969 L 408.105469 198.195312 L 408.09375 197.945312 L 408.09375 194.050781 L 407.421875 194.050781 L 407.421875 193.34375 L 408.132812 193.34375 L 408.417969 192.039062 L 409.0625 192.039062 L 409.0625 193.34375 L 410.140625 193.34375 L 410.140625 194.050781 L 409.0625 194.050781 L 409.0625 197.734375 L 409.066406 197.816406 L 409.070312 197.890625 L 409.078125 197.964844 L 409.085938 198.03125 L 409.097656 198.09375 L 409.113281 198.148438 L 409.128906 198.199219 L 409.152344 198.246094 L 409.171875 198.289062 L 409.199219 198.328125 L 409.230469 198.359375 L 409.261719 198.386719 L 409.300781 198.410156 L 409.34375 198.433594 L 409.390625 198.453125 L 409.4375 198.464844 L 409.492188 198.476562 L 409.550781 198.488281 L 409.613281 198.492188 L 409.761719 198.492188 L 409.789062 198.488281 L 409.816406 198.488281 L 409.84375 198.484375 L 409.871094 198.484375 L 409.894531 198.480469 L 409.976562 198.46875 L 410.003906 198.460938 L 410.058594 198.453125 L 410.089844 198.449219 L 410.117188 198.441406 L 410.148438 198.4375 L 410.175781 198.429688 L 410.207031 198.425781 L 410.238281 198.417969 Z M 410.238281 199.136719 "/>
<path style=" stroke:none;fill-rule:nonzero;fill:rgb(0%,0%,0%);fill-opacity:1;" d="M 410.875 199.179688 L 410.875 198.492188 L 410.929688 198.367188 L 410.988281 198.246094 L 411.113281 198.011719 L 411.179688 197.902344 L 411.246094 197.789062 L 411.316406 197.683594 L 411.464844 197.480469 L 411.542969 197.382812 L 411.625 197.285156 L 411.703125 197.191406 L 411.867188 197.011719 L 411.953125 196.921875 L 412.035156 196.835938 L 412.121094 196.75 L 412.207031 196.667969 L 412.292969 196.589844 L 412.378906 196.507812 L 412.464844 196.429688 L 412.554688 196.355469 L 412.640625 196.277344 L 412.726562 196.203125 L 412.8125 196.132812 L 412.898438 196.058594 L 413.15625 195.847656 L 413.328125 195.714844 L 413.574219 195.515625 L 413.652344 195.449219 L 413.726562 195.382812 L 413.804688 195.3125 L 413.875 195.246094 L 413.949219 195.179688 L 414.019531 195.113281 L 414.152344 194.980469 L 414.210938 194.910156 L 414.273438 194.839844 L 414.382812 194.699219 L 414.484375 194.558594 L 414.53125 194.484375 L 414.574219 194.414062 L 414.613281 194.339844 L 414.652344 194.261719 L 414.683594 194.183594 L 414.710938 194.105469 L 414.734375 194.023438 L 414.753906 193.9375 L 414.769531 193.851562 L 414.78125 193.765625 L 414.785156 193.675781 L 414.789062 193.582031 L 414.789062 193.519531 L 414.78125 193.394531 L 414.773438 193.335938 L 414.765625 193.28125 L 414.753906 193.222656 L 414.742188 193.167969 L 414.710938 193.066406 L 414.691406 193.015625 L 414.671875 192.96875 L 414.625 192.875 L 414.601562 192.832031 L 414.574219 192.789062 L 414.542969 192.75 L 414.515625 192.710938 L 414.480469 192.671875 L 414.449219 192.636719 L 414.410156 192.601562 L 414.375 192.570312 L 414.335938 192.539062 L 414.292969 192.507812 L 414.253906 192.480469 L 414.210938 192.457031 L 414.117188 192.410156 L 414.070312 192.390625 L 414.019531 192.371094 L 413.96875 192.355469 L 413.917969 192.335938 L 413.867188 192.324219 L 413.8125 192.308594 L 413.757812 192.296875 L 413.703125 192.289062 L 413.585938 192.273438 L 413.527344 192.269531 L 413.464844 192.269531 L 413.402344 192.265625 L 413.34375 192.269531 L 413.289062 192.269531 L 413.230469 192.273438 L 413.066406 192.296875 L 412.957031 192.320312 L 412.90625 192.332031 L 412.855469 192.347656 L 412.804688 192.367188 L 412.753906 192.382812 L 412.707031 192.402344 L 412.613281 192.449219 L 412.570312 192.472656 L 412.523438 192.5 L 412.484375 192.53125 L 412.441406 192.558594 L 412.402344 192.589844 L 412.324219 192.660156 L 412.289062 192.695312 L 412.21875 192.773438 L 412.1875 192.8125 L 412.15625 192.855469 L 412.125 192.902344 L 412.070312 192.996094 L 412.046875 193.042969 L 412.027344 193.09375 L 412.003906 193.144531 L 411.988281 193.199219 L 411.96875 193.253906 L 411.953125 193.308594 L 411.929688 193.425781 L 411.917969 193.488281 L 411.910156 193.550781 L 410.917969 193.457031 L 410.929688 193.378906 L 410.941406 193.296875 L 410.960938 193.21875 L 410.976562 193.140625 L 411.023438 192.984375 L 411.078125 192.835938 L 411.109375 192.761719 L 411.144531 192.6875 L 411.222656 192.546875 L 411.308594 192.414062 L 411.355469 192.351562 L 411.40625 192.289062 L 411.460938 192.226562 L 411.515625 192.167969 L 411.574219 192.113281 L 411.699219 192.003906 L 411.765625 191.953125 L 411.835938 191.902344 L 411.90625 191.855469 L 412.054688 191.769531 L 412.132812 191.730469 L 412.214844 191.691406 L 412.296875 191.660156 L 412.382812 191.625 L 412.472656 191.597656 L 412.566406 191.570312 L 412.660156 191.546875 L 412.761719 191.527344 L 412.859375 191.507812 L 413.070312 191.484375 L 413.179688 191.476562 L 413.289062 191.472656 L 413.402344 191.46875 L 413.515625 191.472656 L 413.625 191.476562 L 413.730469 191.480469 L 413.835938 191.492188 L 413.9375 191.503906 L 414.039062 191.519531 L 414.136719 191.535156 L 414.230469 191.554688 L 414.320312 191.578125 L 414.5 191.632812 L 414.664062 191.695312 L 414.820312 191.773438 L 414.890625 191.8125 L 414.960938 191.855469 L 415.027344 191.902344 L 415.09375 191.953125 L 415.15625 192.003906 L 415.273438 192.113281 L 415.328125 192.171875 L 415.378906 192.234375 L 415.425781 192.296875 L 415.472656 192.363281 L 415.515625 192.433594 L 415.554688 192.503906 L 415.589844 192.578125 L 415.625 192.65625 L 415.65625 192.734375 L 415.683594 192.816406 L 415.707031 192.898438 L 415.726562 192.984375 L 415.746094 193.074219 L 415.761719 193.164062 L 415.773438 193.257812 L 415.78125 193.351562 L 415.785156 193.449219 L 415.785156 193.625 L 415.78125 193.703125 L 415.773438 193.777344 L 415.761719 193.851562 L 415.75 193.921875 L 415.734375 193.996094 L 415.71875 194.066406 L 415.671875 194.207031 L 415.617188 194.347656 L 415.589844 194.414062 L 415.554688 194.480469 L 415.523438 194.550781 L 415.488281 194.613281 L 415.410156 194.746094 L 415.324219 194.871094 L 415.28125 194.9375 L 415.234375 194.996094 L 415.1875 195.058594 L 415.085938 195.183594 L 415.035156 195.242188 L 414.980469 195.304688 L 414.925781 195.363281 L 414.867188 195.421875 L 414.8125 195.480469 L 414.75 195.539062 L 414.691406 195.597656 L 414.566406 195.714844 L 414.503906 195.769531 L 414.378906 195.886719 L 414.316406 195.941406 L 414.25 196 L 414.1875 196.054688 L 414.054688 196.164062 L 413.988281 196.222656 L 413.324219 196.769531 L 413.261719 196.824219 L 413.195312 196.878906 L 413.132812 196.929688 L 412.945312 197.09375 L 412.828125 197.203125 L 412.769531 197.261719 L 412.710938 197.316406 L 412.601562 197.425781 L 412.550781 197.484375 L 412.449219 197.59375 L 412.398438 197.652344 L 412.351562 197.707031 L 412.304688 197.765625 L 412.257812 197.820312 L 412.214844 197.878906 L 412.136719 197.996094 L 412.097656 198.050781 L 412.0625 198.113281 L 412 198.230469 L 411.96875 198.292969 L 411.941406 198.351562 L 415.90625 198.351562 L 415.90625 199.179688 Z M 410.875 199.179688 "/>
<path style=" stroke:none;fill-rule:nonzero;fill:rgb(0%,0%,0%);fill-opacity:1;" d="M 240.902344 40.882812 L 240.859375 40.894531 L 240.8125 40.90625 L 240.769531 40.917969 L 240.722656 40.925781 L 240.679688 40.9375 L 240.632812 40.945312 L 240.589844 40.953125 L 240.402344 40.984375 L 240.355469 40.988281 L 240.308594 40.996094 L 240.257812 41 L 240.203125 41.003906 L 240.152344 41.007812 L 240.097656 41.011719 L 239.921875 41.011719 L 239.699219 41 L 239.503906 40.960938 L 239.328125 40.894531 L 239.175781 40.800781 L 239.046875 40.683594 L 238.945312 40.539062 L 238.863281 40.367188 L 238.804688 40.167969 L 238.769531 39.945312 L 238.757812 39.691406 L 238.757812 35.800781 L 238.082031 35.800781 L 238.082031 35.09375 L 238.796875 35.09375 L 239.082031 33.789062 L 239.726562 33.789062 L 239.726562 35.09375 L 240.804688 35.09375 L 240.804688 35.800781 L 239.726562 35.800781 L 239.726562 39.484375 L 239.734375 39.640625 L 239.738281 39.710938 L 239.75 39.777344 L 239.761719 39.839844 L 239.777344 39.898438 L 239.792969 39.949219 L 239.8125 39.996094 L 239.835938 40.039062 L 239.863281 40.074219 L 239.890625 40.105469 L 239.925781 40.136719 L 239.964844 40.160156 L 240.007812 40.183594 L 240.050781 40.199219 L 240.101562 40.214844 L 240.15625 40.226562 L 240.214844 40.234375 L 240.277344 40.242188 L 240.425781 40.242188 L 240.453125 40.238281 L 240.480469 40.238281 L 240.507812 40.234375 L 240.53125 40.230469 L 240.558594 40.230469 L 240.613281 40.222656 L 240.640625 40.214844 L 240.722656 40.203125 L 240.75 40.195312 L 240.8125 40.1875 L 240.839844 40.179688 L 240.871094 40.171875 L 240.902344 40.167969 Z M 240.902344 40.882812 "/>
<path style=" stroke:none;fill-rule:nonzero;fill:rgb(0%,0%,0%);fill-opacity:1;" d="M 246.636719 38.832031 L 246.636719 38.933594 L 246.632812 39.035156 L 246.609375 39.230469 L 246.59375 39.324219 L 246.574219 39.417969 L 246.554688 39.507812 L 246.5 39.679688 L 246.429688 39.84375 L 246.390625 39.921875 L 246.351562 39.996094 L 246.304688 40.070312 L 246.257812 40.140625 L 246.207031 40.210938 L 246.152344 40.277344 L 246.09375 40.339844 L 246.035156 40.398438 L 245.96875 40.457031 L 245.902344 40.511719 L 245.832031 40.566406 L 245.761719 40.613281 L 245.605469 40.707031 L 245.523438 40.746094 L 245.4375 40.789062 L 245.257812 40.859375 L 245.160156 40.890625 L 245.0625 40.917969 L 244.964844 40.941406 L 244.859375 40.964844 L 244.753906 40.984375 L 244.644531 41 L 244.535156 41.011719 L 244.421875 41.023438 L 244.304688 41.027344 L 244.183594 41.035156 L 243.921875 41.035156 L 243.65625 41.019531 L 243.53125 41.007812 L 243.410156 40.992188 L 243.292969 40.972656 L 243.179688 40.949219 L 243.074219 40.925781 L 242.96875 40.894531 L 242.871094 40.863281 L 242.683594 40.785156 L 242.597656 40.746094 L 242.511719 40.703125 L 242.355469 40.609375 L 242.28125 40.5625 L 242.140625 40.453125 L 242.078125 40.398438 L 242.015625 40.339844 L 241.957031 40.28125 L 241.902344 40.21875 L 241.851562 40.152344 L 241.804688 40.089844 L 241.757812 40.023438 L 241.714844 39.953125 L 241.675781 39.886719 L 241.640625 39.8125 L 241.609375 39.742188 L 241.578125 39.667969 L 241.550781 39.589844 L 241.523438 39.515625 L 241.5 39.441406 L 241.480469 39.363281 L 241.460938 39.289062 L 241.441406 39.210938 L 241.425781 39.132812 L 241.402344 38.976562 L 242.40625 38.882812 L 242.414062 38.945312 L 242.425781 39.003906 L 242.4375 39.058594 L 242.453125 39.117188 L 242.5 39.28125 L 242.539062 39.382812 L 242.585938 39.484375 L 242.640625 39.578125 L 242.734375 39.707031 L 242.804688 39.785156 L 242.84375 39.824219 L 242.921875 39.894531 L 242.964844 39.929688 L 243.007812 39.960938 L 243.101562 40.015625 L 243.203125 40.070312 L 243.257812 40.09375 L 243.3125 40.113281 L 243.371094 40.136719 L 243.429688 40.152344 L 243.554688 40.183594 L 243.621094 40.195312 L 243.691406 40.207031 L 243.757812 40.214844 L 243.832031 40.222656 L 243.90625 40.226562 L 243.984375 40.230469 L 244.0625 40.230469 L 244.203125 40.226562 L 244.34375 40.21875 L 244.472656 40.199219 L 244.597656 40.175781 L 244.714844 40.140625 L 244.828125 40.101562 L 244.933594 40.054688 L 245.03125 40 L 245.125 39.9375 L 245.210938 39.871094 L 245.289062 39.796875 L 245.359375 39.710938 L 245.425781 39.621094 L 245.480469 39.527344 L 245.523438 39.421875 L 245.5625 39.3125 L 245.59375 39.191406 L 245.613281 39.070312 L 245.625 38.9375 L 245.628906 38.796875 L 245.628906 38.714844 L 245.621094 38.636719 L 245.613281 38.5625 L 245.601562 38.488281 L 245.582031 38.417969 L 245.5625 38.355469 L 245.539062 38.292969 L 245.507812 38.230469 L 245.476562 38.175781 L 245.441406 38.125 L 245.402344 38.074219 L 245.324219 37.980469 L 245.277344 37.9375 L 245.234375 37.894531 L 245.1875 37.855469 L 245.085938 37.785156 L 245.03125 37.753906 L 244.976562 37.726562 L 244.921875 37.695312 L 244.867188 37.671875 L 244.75 37.625 L 244.6875 37.605469 L 244.628906 37.585938 L 244.503906 37.554688 L 244.4375 37.542969 L 244.375 37.53125 L 244.308594 37.523438 L 244.183594 37.507812 L 244.125 37.5 L 244.0625 37.496094 L 243.886719 37.484375 L 243.226562 37.484375 L 243.226562 36.640625 L 243.863281 36.640625 L 243.921875 36.636719 L 243.976562 36.632812 L 244.035156 36.628906 L 244.09375 36.621094 L 244.148438 36.617188 L 244.207031 36.605469 L 244.265625 36.597656 L 244.441406 36.5625 L 244.5 36.542969 L 244.554688 36.527344 L 244.609375 36.507812 L 244.660156 36.484375 L 244.714844 36.460938 L 244.765625 36.4375 L 244.816406 36.410156 L 244.863281 36.382812 L 244.914062 36.351562 L 244.960938 36.320312 L 245.003906 36.285156 L 245.089844 36.207031 L 245.167969 36.121094 L 245.238281 36.027344 L 245.269531 35.980469 L 245.300781 35.925781 L 245.328125 35.871094 L 245.351562 35.8125 L 245.371094 35.753906 L 245.390625 35.691406 L 245.40625 35.625 L 245.417969 35.554688 L 245.425781 35.484375 L 245.429688 35.410156 L 245.429688 35.332031 L 245.425781 35.210938 L 245.417969 35.097656 L 245.398438 34.988281 L 245.371094 34.886719 L 245.339844 34.789062 L 245.300781 34.695312 L 245.253906 34.605469 L 245.199219 34.523438 L 245.136719 34.445312 L 245.070312 34.371094 L 244.996094 34.304688 L 244.914062 34.246094 L 244.824219 34.191406 L 244.730469 34.144531 L 244.625 34.105469 L 244.515625 34.074219 L 244.398438 34.046875 L 244.277344 34.03125 L 244.144531 34.019531 L 244.007812 34.015625 L 243.882812 34.019531 L 243.761719 34.03125 L 243.644531 34.046875 L 243.53125 34.070312 L 243.425781 34.097656 L 243.324219 34.136719 L 243.226562 34.179688 L 243.136719 34.226562 L 243.050781 34.28125 L 242.96875 34.34375 L 242.890625 34.414062 L 242.824219 34.488281 L 242.761719 34.566406 L 242.703125 34.652344 L 242.65625 34.742188 L 242.613281 34.835938 L 242.578125 34.9375 L 242.546875 35.042969 L 242.523438 35.15625 L 242.507812 35.273438 L 241.535156 35.195312 L 241.546875 35.097656 L 241.5625 35 L 241.582031 34.90625 L 241.605469 34.816406 L 241.632812 34.726562 L 241.660156 34.640625 L 241.691406 34.558594 L 241.726562 34.476562 L 241.765625 34.398438 L 241.851562 34.25 L 241.898438 34.179688 L 242 34.046875 L 242.050781 33.984375 L 242.109375 33.925781 L 242.164062 33.867188 L 242.289062 33.757812 L 242.351562 33.710938 L 242.421875 33.660156 L 242.488281 33.617188 L 242.5625 33.570312 L 242.632812 33.53125 L 242.710938 33.492188 L 242.785156 33.457031 L 242.867188 33.425781 L 242.945312 33.394531 L 243.027344 33.367188 L 243.285156 33.296875 L 243.375 33.28125 L 243.460938 33.261719 L 243.550781 33.25 L 243.644531 33.238281 L 243.734375 33.230469 L 243.828125 33.222656 L 243.921875 33.21875 L 244.144531 33.21875 L 244.265625 33.226562 L 244.382812 33.234375 L 244.5 33.246094 L 244.609375 33.257812 L 244.71875 33.277344 L 244.820312 33.296875 L 244.921875 33.324219 L 245.019531 33.351562 L 245.113281 33.378906 L 245.203125 33.414062 L 245.289062 33.449219 L 245.371094 33.484375 L 245.453125 33.523438 L 245.601562 33.609375 L 245.671875 33.65625 L 245.738281 33.707031 L 245.800781 33.757812 L 245.863281 33.8125 L 245.972656 33.921875 L 246.023438 33.980469 L 246.070312 34.042969 L 246.113281 34.105469 L 246.15625 34.171875 L 246.226562 34.304688 L 246.257812 34.375 L 246.289062 34.449219 L 246.3125 34.523438 L 246.339844 34.597656 L 246.359375 34.671875 L 246.378906 34.75 L 246.394531 34.828125 L 246.40625 34.90625 L 246.414062 34.984375 L 246.421875 35.066406 L 246.429688 35.230469 L 246.425781 35.296875 L 246.425781 35.363281 L 246.417969 35.425781 L 246.414062 35.488281 L 246.40625 35.554688 L 246.394531 35.613281 L 246.371094 35.738281 L 246.355469 35.796875 L 246.316406 35.914062 L 246.296875 35.96875 L 246.273438 36.023438 L 246.21875 36.132812 L 246.15625 36.234375 L 246.125 36.28125 L 246.089844 36.332031 L 246.050781 36.378906 L 246.011719 36.421875 L 245.96875 36.46875 L 245.925781 36.511719 L 245.878906 36.550781 L 245.828125 36.59375 L 245.726562 36.671875 L 245.671875 36.707031 L 245.554688 36.777344 L 245.367188 36.871094 L 245.296875 36.898438 L 245.226562 36.921875 L 245.152344 36.949219 L 245.078125 36.972656 L 244.921875 37.011719 L 244.835938 37.03125 L 244.835938 37.050781 L 244.929688 37.0625 L 245.015625 37.074219 L 245.101562 37.089844 L 245.265625 37.128906 L 245.421875 37.175781 L 245.496094 37.203125 L 245.566406 37.230469 L 245.636719 37.261719 L 245.703125 37.292969 L 245.828125 37.363281 L 245.886719 37.398438 L 245.945312 37.4375 L 246 37.476562 L 246.054688 37.519531 L 246.101562 37.5625 L 246.152344 37.609375 L 246.238281 37.703125 L 246.28125 37.753906 L 246.320312 37.804688 L 246.355469 37.855469 L 246.390625 37.910156 L 246.421875 37.964844 L 246.476562 38.074219 L 246.503906 38.132812 L 246.523438 38.195312 L 246.546875 38.253906 L 246.566406 38.316406 L 246.597656 38.441406 L 246.621094 38.566406 L 246.628906 38.632812 L 246.636719 38.765625 Z M 246.636719 38.832031 "/>
<path style=" stroke:none;fill-rule:nonzero;fill:rgb(0%,0%,0%);fill-opacity:1;" d="M 113.796875 251.886719 L 113.753906 251.898438 L 113.710938 251.90625 L 113.664062 251.917969 L 113.621094 251.929688 L 113.574219 251.9375 L 113.53125 251.945312 L 113.390625 251.96875 L 113.347656 251.976562 L 113.253906 251.992188 L 113.101562 252.003906 L 112.992188 252.011719 L 112.933594 252.011719 L 112.878906 252.015625 L 112.816406 252.015625 L 112.597656 252 L 112.398438 251.960938 L 112.222656 251.894531 L 112.074219 251.804688 L 111.945312 251.683594 L 111.839844 251.539062 L 111.757812 251.367188 L 111.699219 251.167969 L 111.664062 250.945312 L 111.652344 250.695312 L 111.652344 246.800781 L 110.980469 246.800781 L 110.980469 246.097656 L 111.691406 246.097656 L 111.976562 244.792969 L 112.625 244.792969 L 112.625 246.097656 L 113.703125 246.097656 L 113.703125 246.800781 L 112.625 246.800781 L 112.625 250.566406 L 112.628906 250.640625 L 112.636719 250.714844 L 112.644531 250.78125 L 112.65625 250.84375 L 112.671875 250.898438 L 112.691406 250.949219 L 112.710938 250.996094 L 112.734375 251.039062 L 112.757812 251.078125 L 112.789062 251.109375 L 112.820312 251.136719 L 112.859375 251.160156 L 112.902344 251.183594 L 112.949219 251.203125 L 113 251.21875 L 113.050781 251.230469 L 113.109375 251.238281 L 113.171875 251.242188 L 113.320312 251.242188 L 113.347656 251.238281 L 113.375 251.238281 L 113.402344 251.234375 L 113.429688 251.234375 L 113.457031 251.230469 L 113.480469 251.226562 L 113.5625 251.214844 L 113.589844 251.207031 L 113.617188 251.203125 L 113.648438 251.199219 L 113.675781 251.191406 L 113.707031 251.1875 L 113.738281 251.179688 L 113.765625 251.175781 L 113.796875 251.167969 Z M 113.796875 251.886719 "/>
<path style=" stroke:none;fill-rule:nonzero;fill:rgb(0%,0%,0%);fill-opacity:1;" d="M 118.628906 250.207031 L 118.628906 251.929688 L 117.710938 251.929688 L 117.710938 250.207031 L 114.132812 250.207031 L 114.132812 249.453125 L 117.609375 244.332031 L 118.628906 244.332031 L 118.628906 249.441406 L 119.695312 249.441406 L 119.695312 250.207031 Z M 117.710938 245.425781 L 117.710938 245.433594 L 117.699219 245.457031 L 117.691406 245.46875 L 117.6875 245.480469 L 117.679688 245.492188 L 117.675781 245.503906 L 117.667969 245.519531 L 117.65625 245.535156 L 117.632812 245.582031 L 117.621094 245.597656 L 117.613281 245.617188 L 117.601562 245.632812 L 117.59375 245.652344 L 117.582031 245.667969 L 117.570312 245.6875 L 117.5625 245.707031 L 117.515625 245.785156 L 117.507812 245.804688 L 117.496094 245.824219 L 117.484375 245.847656 L 117.425781 245.945312 L 117.417969 245.960938 L 117.40625 245.980469 L 117.398438 245.996094 L 117.386719 246.011719 L 117.378906 246.027344 L 117.367188 246.042969 L 117.359375 246.054688 L 117.351562 246.070312 L 115.40625 248.9375 L 115.398438 248.945312 L 115.394531 248.953125 L 115.371094 248.988281 L 115.363281 248.996094 L 115.355469 249.011719 L 115.34375 249.023438 L 115.335938 249.035156 L 115.324219 249.050781 L 115.3125 249.0625 L 115.304688 249.078125 L 115.292969 249.09375 L 115.285156 249.105469 L 115.273438 249.121094 L 115.265625 249.136719 L 115.253906 249.152344 L 115.242188 249.164062 L 115.230469 249.179688 L 115.222656 249.195312 L 115.210938 249.210938 L 115.199219 249.222656 L 115.1875 249.238281 L 115.179688 249.25 L 115.15625 249.28125 L 115.144531 249.292969 L 115.136719 249.308594 L 115.125 249.320312 L 115.113281 249.335938 L 115.101562 249.347656 L 115.09375 249.363281 L 115.082031 249.375 L 115.066406 249.398438 L 115.058594 249.40625 L 115.050781 249.417969 L 115.027344 249.441406 L 117.710938 249.441406 Z M 117.710938 245.425781 "/>
</g>
</svg>
