<?xml version="1.0" encoding="UTF-8"?>
<svg xmlns="http://www.w3.org/2000/svg" xmlns:xlink="http://www.w3.org/1999/xlink" width="360pt" height="360pt" viewBox="0 0 360 360" version="1.1">
<defs>
<clipPath id="clip1">
  <path d="M 8.21875 5.480469 L 354.519531 5.480469 L 354.519531 351.78125 L 8.21875 351.78125 Z M 8.21875 5.480469 "/>
</clipPath>
</defs>
<g id="surface1767">
<rect x="0" y="0" width="360" height="360" style="fill:rgb(100%,100%,100%);fill-opacity:1;stroke:none;"/>
<rect x="0" y="0" width="360" height="360" style="fill:rgb(100%,100%,100%);fill-opacity:1;stroke:none;"/>
<path style="fill:none;stroke-width:1.066978;stroke-linecap:round;stroke-linejoin:round;stroke:rgb(100%,100%,100%);stroke-opacity:1;stroke-miterlimit:10;" d="M 0 360 L 360 360 L 360 0 L 0 0 Z M 0 360 "/>
<g clip-path="url(#clip1)" clip-rule="nonzero">
<path style="fill-rule:nonzero;fill:rgb(100%,100%,100%);fill-opacity:1;stroke-width:1.066978;stroke-linecap:round;stroke-linejoin:round;stroke:rgb(100%,100%,100%);stroke-opacity:1;stroke-miterlimit:10;" d="M 8.21875 351.78125 L 354.519531 351.78125 L 354.519531 5.480469 L 8.21875 5.480469 Z M 8.21875 351.78125 "/>
</g>
<path style="fill:none;stroke-width:1.066978;stroke-linecap:round;stroke-linejoin:round;stroke:rgb(0%,0%,0%);stroke-opacity:1;stroke-miterlimit:10;" d="M 157.570312 283.816406 L 250.246094 283.816406 "/>
<path style="fill:none;stroke-width:1.066978;stroke-linecap:round;stroke-linejoin:round;stroke:rgb(0%,0%,0%);stroke-opacity:1;stroke-miterlimit:10;" d="M 157.570312 251.449219 L 229.75 251.449219 "/>
<path style="fill:none;stroke-width:1.066978;stroke-linecap:round;stroke-linejoin:round;stroke:rgb(0%,0%,0%);stroke-opacity:1;stroke-miterlimit:10;" d="M 58.125 316.179688 L 124.855469 316.179688 "/>
<path style="fill:none;stroke-width:1.066978;stroke-linecap:round;stroke-linejoin:round;stroke:rgb(0%,0%,0%);stroke-opacity:1;stroke-miterlimit:10;" d="M 269.679688 186.722656 L 326.363281 186.722656 "/>
<path style="fill:none;stroke-width:1.066978;stroke-linecap:round;stroke-linejoin:round;stroke:rgb(0%,0%,0%);stroke-opacity:1;stroke-miterlimit:10;" d="M 269.679688 154.355469 L 331.582031 154.355469 "/>
<path style="fill:none;stroke-width:1.066978;stroke-linecap:round;stroke-linejoin:round;stroke:rgb(0%,0%,0%);stroke-opacity:1;stroke-miterlimit:10;" d="M 195.863281 219.085938 L 225.988281 219.085938 "/>
<path style="fill:none;stroke-width:1.066978;stroke-linecap:round;stroke-linejoin:round;stroke:rgb(0%,0%,0%);stroke-opacity:1;stroke-miterlimit:10;" d="M 243.207031 121.992188 L 337.214844 121.992188 "/>
<path style="fill:none;stroke-width:1.066978;stroke-linecap:round;stroke-linejoin:round;stroke:rgb(0%,0%,0%);stroke-opacity:1;stroke-miterlimit:10;" d="M 243.207031 89.628906 L 315.167969 89.628906 "/>
<path style="fill:none;stroke-width:1.066978;stroke-linecap:round;stroke-linejoin:round;stroke:rgb(0%,0%,0%);stroke-opacity:1;stroke-miterlimit:10;" d="M 225.75 57.261719 L 228.316406 57.261719 "/>
<path style="fill:none;stroke-width:1.066978;stroke-linecap:round;stroke-linejoin:round;stroke:rgb(0%,0%,0%);stroke-opacity:1;stroke-miterlimit:10;" d="M 225.75 24.898438 L 275.53125 24.898438 "/>
<path style="fill:none;stroke-width:1.066978;stroke-linecap:round;stroke-linejoin:round;stroke:rgb(0%,0%,0%);stroke-opacity:1;stroke-miterlimit:10;" d="M 23.960938 213.015625 L 23.960938 213.015625 "/>
<path style="fill:none;stroke-width:1.066978;stroke-linecap:round;stroke-linejoin:round;stroke:rgb(0%,0%,0%);stroke-opacity:1;stroke-miterlimit:10;" d="M 23.960938 291.90625 L 58.125 291.90625 "/>
<path style="fill:none;stroke-width:1.066978;stroke-linecap:round;stroke-linejoin:round;stroke:rgb(0%,0%,0%);stroke-opacity:1;stroke-miterlimit:10;" d="M 58.125 267.632812 L 157.570312 267.632812 "/>
<path style="fill:none;stroke-width:1.066978;stroke-linecap:round;stroke-linejoin:round;stroke:rgb(0%,0%,0%);stroke-opacity:1;stroke-miterlimit:10;" d="M 23.960938 134.128906 L 127.546875 134.128906 "/>
<path style="fill:none;stroke-width:1.066978;stroke-linecap:round;stroke-linejoin:round;stroke:rgb(0%,0%,0%);stroke-opacity:1;stroke-miterlimit:10;" d="M 127.546875 194.8125 L 195.863281 194.8125 "/>
<path style="fill:none;stroke-width:1.066978;stroke-linecap:round;stroke-linejoin:round;stroke:rgb(0%,0%,0%);stroke-opacity:1;stroke-miterlimit:10;" d="M 195.863281 170.539062 L 269.679688 170.539062 "/>
<path style="fill:none;stroke-width:1.066978;stroke-linecap:round;stroke-linejoin:round;stroke:rgb(0%,0%,0%);stroke-opacity:1;stroke-miterlimit:10;" d="M 127.546875 73.445312 L 142.875 73.445312 "/>
<path style="fill:none;stroke-width:1.066978;stroke-linecap:round;stroke-linejoin:round;stroke:rgb(0%,0%,0%);stroke-opacity:1;stroke-miterlimit:10;" d="M 142.875 105.808594 L 243.207031 105.808594 "/>
<path style="fill:none;stroke-width:1.066978;stroke-linecap:round;stroke-linejoin:round;stroke:rgb(0%,0%,0%);stroke-opacity:1;stroke-miterlimit:10;" d="M 142.875 41.082031 L 225.75 41.082031 "/>
<path style="fill:none;stroke-width:1.066978;stroke-linecap:round;stroke-linejoin:round;stroke:rgb(0%,0%,0%);stroke-opacity:1;stroke-miterlimit:10;" d="M 157.570312 267.632812 L 157.570312 283.816406 "/>
<path style="fill:none;stroke-width:1.066978;stroke-linecap:round;stroke-linejoin:round;stroke:rgb(0%,0%,0%);stroke-opacity:1;stroke-miterlimit:10;" d="M 157.570312 267.632812 L 157.570312 251.449219 "/>
<path style="fill:none;stroke-width:1.066978;stroke-linecap:round;stroke-linejoin:round;stroke:rgb(0%,0%,0%);stroke-opacity:1;stroke-miterlimit:10;" d="M 58.125 291.90625 L 58.125 316.179688 "/>
<path style="fill:none;stroke-width:1.066978;stroke-linecap:round;stroke-linejoin:round;stroke:rgb(0%,0%,0%);stroke-opacity:1;stroke-miterlimit:10;" d="M 269.679688 170.539062 L 269.679688 186.722656 "/>
<path style="fill:none;stroke-width:1.066978;stroke-linecap:round;stroke-linejoin:round;stroke:rgb(0%,0%,0%);stroke-opacity:1;stroke-miterlimit:10;" d="M 269.679688 170.539062 L 269.679688 154.355469 "/>
<path style="fill:none;stroke-width:1.066978;stroke-linecap:round;stroke-linejoin:round;stroke:rgb(0%,0%,0%);stroke-opacity:1;stroke-miterlimit:10;" d="M 195.863281 194.8125 L 195.863281 219.085938 "/>
<path style="fill:none;stroke-width:1.066978;stroke-linecap:round;stroke-linejoin:round;stroke:rgb(0%,0%,0%);stroke-opacity:1;stroke-miterlimit:10;" d="M 243.207031 105.808594 L 243.207031 121.992188 "/>
<path style="fill:none;stroke-width:1.066978;stroke-linecap:round;stroke-linejoin:round;stroke:rgb(0%,0%,0%);stroke-opacity:1;stroke-miterlimit:10;" d="M 243.207031 105.808594 L 243.207031 89.628906 "/>
<path style="fill:none;stroke-width:1.066978;stroke-linecap:round;stroke-linejoin:round;stroke:rgb(0%,0%,0%);stroke-opacity:1;stroke-miterlimit:10;" d="M 225.75 41.082031 L 225.75 57.261719 "/>
<path style="fill:none;stroke-width:1.066978;stroke-linecap:round;stroke-linejoin:round;stroke:rgb(0%,0%,0%);stroke-opacity:1;stroke-miterlimit:10;" d="M 225.75 41.082031 L 225.75 24.898438 "/>
<path style="fill:none;stroke-width:1.066978;stroke-linecap:round;stroke-linejoin:round;stroke:rgb(0%,0%,0%);stroke-opacity:1;stroke-miterlimit:10;" d="M 23.960938 213.015625 L 23.960938 213.015625 "/>
<path style="fill:none;stroke-width:1.066978;stroke-linecap:round;stroke-linejoin:round;stroke:rgb(0%,0%,0%);stroke-opacity:1;stroke-miterlimit:10;" d="M 23.960938 213.015625 L 23.960938 291.90625 "/>
<path style="fill:none;stroke-width:1.066978;stroke-linecap:round;stroke-linejoin:round;stroke:rgb(0%,0%,0%);stroke-opacity:1;stroke-miterlimit:10;" d="M 58.125 291.90625 L 58.125 267.632812 "/>
<path style="fill:none;stroke-width:1.066978;stroke-linecap:round;stroke-linejoin:round;stroke:rgb(0%,0%,0%);stroke-opacity:1;stroke-miterlimit:10;" d="M 23.960938 213.015625 L 23.960938 134.128906 "/>
<path style="fill:none;stroke-width:1.066978;stroke-linecap:round;stroke-linejoin:round;stroke:rgb(0%,0%,0%);stroke-opacity:1;stroke-miterlimit:10;" d="M 127.546875 134.128906 L 127.546875 194.8125 "/>
<path style="fill:none;stroke-width:1.066978;stroke-linecap:round;stroke-linejoin:round;stroke:rgb(0%,0%,0%);stroke-opacity:1;stroke-miterlimit:10;" d="M 195.863281 194.8125 L 195.863281 170.539062 "/>
<path style="fill:none;stroke-width:1.066978;stroke-linecap:round;stroke-linejoin:round;stroke:rgb(0%,0%,0%);stroke-opacity:1;stroke-miterlimit:10;" d="M 127.546875 134.128906 L 127.546875 73.445312 "/>
<path style="fill:none;stroke-width:1.066978;stroke-linecap:round;stroke-linejoin:round;stroke:rgb(0%,0%,0%);stroke-opacity:1;stroke-miterlimit:10;" d="M 142.875 73.445312 L 142.875 105.808594 "/>
<path style="fill:none;stroke-width:1.066978;stroke-linecap:round;stroke-linejoin:round;stroke:rgb(0%,0%,0%);stroke-opacity:1;stroke-miterlimit:10;" d="M 142.875 73.445312 L 142.875 41.082031 "/>
<path style=" stroke:none;fill-rule:nonzero;fill:rgb(0%,0%,0%);fill-opacity:1;" d="M 254.796875 287.570312 L 254.710938 287.59375 L 254.664062 287.601562 L 254.621094 287.613281 L 254.574219 287.621094 L 254.527344 287.632812 L 254.484375 287.640625 L 254.390625 287.65625 L 254.34375 287.660156 L 254.300781 287.667969 L 254.253906 287.675781 L 254.152344 287.683594 L 254.101562 287.691406 L 254.046875 287.691406 L 253.992188 287.695312 L 253.933594 287.699219 L 253.816406 287.699219 L 253.597656 287.6875 L 253.398438 287.644531 L 253.222656 287.582031 L 253.070312 287.488281 L 252.945312 287.367188 L 252.839844 287.222656 L 252.757812 287.050781 L 252.699219 286.855469 L 252.664062 286.628906 L 252.652344 286.378906 L 252.652344 282.488281 L 251.980469 282.488281 L 251.980469 281.78125 L 252.691406 281.78125 L 252.976562 280.476562 L 253.625 280.476562 L 253.625 281.78125 L 254.703125 281.78125 L 254.703125 282.488281 L 253.625 282.488281 L 253.625 286.25 L 253.628906 286.328125 L 253.636719 286.398438 L 253.644531 286.464844 L 253.65625 286.527344 L 253.6875 286.636719 L 253.730469 286.722656 L 253.757812 286.761719 L 253.789062 286.792969 L 253.820312 286.820312 L 253.859375 286.847656 L 253.902344 286.867188 L 253.949219 286.886719 L 253.996094 286.902344 L 254.050781 286.914062 L 254.109375 286.921875 L 254.171875 286.925781 L 254.238281 286.929688 L 254.265625 286.929688 L 254.292969 286.925781 L 254.347656 286.925781 L 254.375 286.921875 L 254.402344 286.921875 L 254.457031 286.914062 L 254.480469 286.910156 L 254.589844 286.894531 L 254.617188 286.886719 L 254.648438 286.882812 L 254.675781 286.875 L 254.707031 286.871094 L 254.738281 286.863281 L 254.765625 286.859375 L 254.796875 286.851562 Z M 254.796875 287.570312 "/>
<path style=" stroke:none;fill-rule:nonzero;fill:rgb(0%,0%,0%);fill-opacity:1;" d="M 260.535156 285.128906 L 260.53125 285.242188 L 260.527344 285.351562 L 260.519531 285.460938 L 260.507812 285.570312 L 260.476562 285.78125 L 260.429688 285.984375 L 260.402344 286.082031 L 260.371094 286.179688 L 260.339844 286.273438 L 260.304688 286.363281 L 260.265625 286.453125 L 260.222656 286.539062 L 260.128906 286.703125 L 260.078125 286.78125 L 260.023438 286.855469 L 259.964844 286.929688 L 259.902344 287 L 259.839844 287.066406 L 259.773438 287.128906 L 259.707031 287.1875 L 259.632812 287.246094 L 259.558594 287.300781 L 259.480469 287.351562 L 259.398438 287.402344 L 259.316406 287.449219 L 259.226562 287.492188 L 259.136719 287.53125 L 258.949219 287.601562 L 258.851562 287.628906 L 258.75 287.652344 L 258.539062 287.691406 L 258.425781 287.703125 L 258.316406 287.714844 L 258.199219 287.71875 L 257.949219 287.71875 L 257.824219 287.710938 L 257.699219 287.699219 L 257.578125 287.679688 L 257.460938 287.65625 L 257.34375 287.628906 L 257.234375 287.597656 L 257.128906 287.558594 L 257.023438 287.515625 L 256.921875 287.46875 L 256.824219 287.414062 L 256.730469 287.355469 L 256.640625 287.296875 L 256.550781 287.230469 L 256.46875 287.160156 L 256.386719 287.082031 L 256.308594 287.003906 L 256.234375 286.921875 L 256.164062 286.832031 L 256.097656 286.738281 L 256.035156 286.640625 L 255.972656 286.539062 L 255.914062 286.433594 L 255.859375 286.320312 L 255.808594 286.207031 L 255.761719 286.089844 L 255.714844 285.964844 L 255.636719 285.707031 L 255.601562 285.570312 L 255.570312 285.429688 L 255.542969 285.285156 L 255.519531 285.136719 L 255.496094 284.984375 L 255.480469 284.828125 L 255.464844 284.667969 L 255.453125 284.503906 L 255.445312 284.335938 L 255.441406 284.164062 L 255.441406 283.789062 L 255.445312 283.59375 L 255.46875 283.21875 L 255.484375 283.039062 L 255.503906 282.863281 L 255.53125 282.691406 L 255.558594 282.527344 L 255.589844 282.367188 L 255.625 282.210938 L 255.703125 281.914062 L 255.75 281.773438 L 255.851562 281.507812 L 255.90625 281.382812 L 255.964844 281.265625 L 256.027344 281.148438 L 256.09375 281.039062 L 256.164062 280.933594 L 256.234375 280.835938 L 256.308594 280.738281 L 256.386719 280.648438 L 256.464844 280.566406 L 256.550781 280.484375 L 256.636719 280.410156 L 256.726562 280.339844 L 256.820312 280.277344 L 256.914062 280.21875 L 257.015625 280.164062 L 257.117188 280.113281 L 257.222656 280.070312 L 257.328125 280.03125 L 257.441406 279.996094 L 257.554688 279.96875 L 257.667969 279.945312 L 257.785156 279.925781 L 257.90625 279.914062 L 258.03125 279.90625 L 258.308594 279.90625 L 258.386719 279.910156 L 258.460938 279.917969 L 258.53125 279.925781 L 258.605469 279.933594 L 258.816406 279.96875 L 258.882812 279.984375 L 258.953125 280.003906 L 259.015625 280.023438 L 259.082031 280.042969 L 259.207031 280.089844 L 259.269531 280.117188 L 259.386719 280.179688 L 259.441406 280.214844 L 259.5 280.25 L 259.554688 280.285156 L 259.609375 280.324219 L 259.710938 280.410156 L 259.761719 280.457031 L 259.808594 280.503906 L 259.855469 280.554688 L 259.902344 280.609375 L 259.945312 280.664062 L 259.988281 280.722656 L 260.03125 280.785156 L 260.070312 280.847656 L 260.109375 280.914062 L 260.179688 281.054688 L 260.242188 281.203125 L 260.296875 281.367188 L 260.324219 281.453125 L 259.394531 281.617188 L 259.363281 281.523438 L 259.328125 281.433594 L 259.289062 281.347656 L 259.246094 281.269531 L 259.199219 281.195312 L 259.148438 281.128906 L 259.09375 281.066406 L 259.039062 281.007812 L 258.976562 280.957031 L 258.84375 280.871094 L 258.777344 280.832031 L 258.703125 280.800781 L 258.632812 280.769531 L 258.554688 280.746094 L 258.476562 280.726562 L 258.398438 280.710938 L 258.316406 280.699219 L 258.144531 280.691406 L 258.066406 280.691406 L 257.988281 280.699219 L 257.914062 280.707031 L 257.765625 280.738281 L 257.695312 280.757812 L 257.554688 280.8125 L 257.488281 280.84375 L 257.421875 280.878906 L 257.359375 280.917969 L 257.296875 280.964844 L 257.238281 281.011719 L 257.179688 281.0625 L 257.125 281.117188 L 257.070312 281.175781 L 256.96875 281.300781 L 256.921875 281.371094 L 256.875 281.445312 L 256.828125 281.523438 L 256.746094 281.6875 L 256.707031 281.773438 L 256.671875 281.867188 L 256.640625 281.960938 L 256.605469 282.0625 L 256.578125 282.164062 L 256.523438 282.382812 L 256.5 282.5 L 256.480469 282.617188 L 256.460938 282.742188 L 256.449219 282.867188 L 256.433594 282.996094 L 256.421875 283.132812 L 256.414062 283.269531 L 256.410156 283.410156 L 256.40625 283.554688 L 256.40625 283.703125 L 256.460938 283.609375 L 256.519531 283.519531 L 256.582031 283.433594 L 256.652344 283.351562 L 256.722656 283.273438 L 256.878906 283.132812 L 256.964844 283.070312 L 257.054688 283.015625 L 257.148438 282.960938 L 257.246094 282.910156 L 257.347656 282.867188 L 257.449219 282.828125 L 257.554688 282.796875 L 257.664062 282.765625 L 257.773438 282.742188 L 258.007812 282.710938 L 258.125 282.703125 L 258.351562 282.703125 L 258.453125 282.707031 L 258.648438 282.730469 L 258.742188 282.742188 L 258.835938 282.761719 L 259.015625 282.808594 L 259.101562 282.835938 L 259.1875 282.867188 L 259.269531 282.902344 L 259.347656 282.941406 L 259.503906 283.027344 L 259.574219 283.074219 L 259.714844 283.175781 L 259.78125 283.234375 L 259.84375 283.292969 L 259.960938 283.417969 L 260.019531 283.484375 L 260.121094 283.625 L 260.171875 283.703125 L 260.257812 283.859375 L 260.296875 283.945312 L 260.332031 284.03125 L 260.367188 284.121094 L 260.398438 284.210938 L 260.453125 284.398438 L 260.492188 284.59375 L 260.507812 284.699219 L 260.519531 284.800781 L 260.527344 284.90625 L 260.53125 285.015625 Z M 259.546875 285.171875 L 259.546875 285.09375 L 259.542969 285.015625 L 259.539062 284.941406 L 259.53125 284.867188 L 259.523438 284.796875 L 259.5 284.65625 L 259.46875 284.523438 L 259.429688 284.398438 L 259.40625 284.335938 L 259.382812 284.277344 L 259.355469 284.21875 L 259.328125 284.164062 L 259.300781 284.113281 L 259.265625 284.0625 L 259.234375 284.011719 L 259.195312 283.964844 L 259.160156 283.921875 L 259.121094 283.875 L 259.078125 283.835938 L 259.035156 283.792969 L 258.894531 283.6875 L 258.84375 283.65625 L 258.679688 283.574219 L 258.621094 283.550781 L 258.5625 283.53125 L 258.5 283.511719 L 258.4375 283.496094 L 258.371094 283.480469 L 258.304688 283.472656 L 258.234375 283.460938 L 258.164062 283.457031 L 258.089844 283.453125 L 257.910156 283.453125 L 257.859375 283.457031 L 257.75 283.472656 L 257.699219 283.480469 L 257.535156 283.515625 L 257.484375 283.53125 L 257.429688 283.546875 L 257.375 283.566406 L 257.324219 283.585938 L 257.273438 283.609375 L 257.226562 283.632812 L 257.175781 283.660156 L 257.128906 283.6875 L 257.035156 283.75 L 256.949219 283.820312 L 256.871094 283.898438 L 256.832031 283.941406 L 256.796875 283.984375 L 256.761719 284.035156 L 256.726562 284.082031 L 256.695312 284.132812 L 256.664062 284.1875 L 256.636719 284.242188 L 256.609375 284.300781 L 256.589844 284.363281 L 256.566406 284.425781 L 256.535156 284.558594 L 256.523438 284.632812 L 256.515625 284.703125 L 256.507812 284.78125 L 256.5 284.9375 L 256.503906 285.023438 L 256.511719 285.1875 L 256.519531 285.265625 L 256.527344 285.347656 L 256.539062 285.425781 L 256.554688 285.5 L 256.570312 285.578125 L 256.609375 285.726562 L 256.65625 285.867188 L 256.710938 286 L 256.804688 286.1875 L 256.839844 286.246094 L 256.957031 286.410156 L 257.003906 286.460938 L 257.046875 286.507812 L 257.09375 286.554688 L 257.140625 286.597656 L 257.191406 286.640625 L 257.242188 286.679688 L 257.351562 286.75 L 257.40625 286.78125 L 257.464844 286.8125 L 257.523438 286.839844 L 257.585938 286.863281 L 257.648438 286.882812 L 257.710938 286.898438 L 257.777344 286.914062 L 257.839844 286.925781 L 257.910156 286.933594 L 257.976562 286.9375 L 258.117188 286.9375 L 258.1875 286.933594 L 258.253906 286.929688 L 258.316406 286.921875 L 258.378906 286.910156 L 258.503906 286.878906 L 258.5625 286.863281 L 258.617188 286.84375 L 258.675781 286.820312 L 258.730469 286.792969 L 258.78125 286.765625 L 258.835938 286.738281 L 258.882812 286.703125 L 258.933594 286.671875 L 258.980469 286.632812 L 259.023438 286.597656 L 259.066406 286.554688 L 259.109375 286.515625 L 259.1875 286.421875 L 259.222656 286.375 L 259.257812 286.320312 L 259.289062 286.269531 L 259.320312 286.214844 L 259.375 286.097656 L 259.445312 285.910156 L 259.464844 285.84375 L 259.511719 285.632812 L 259.523438 285.558594 L 259.539062 285.410156 L 259.546875 285.253906 Z M 259.546875 285.171875 "/>
<path style=" stroke:none;fill-rule:nonzero;fill:rgb(0%,0%,0%);fill-opacity:1;" d="M 234.300781 255.203125 L 234.257812 255.214844 L 234.210938 255.226562 L 234.167969 255.238281 L 234.121094 255.25 L 234.078125 255.257812 L 234.03125 255.265625 L 233.988281 255.273438 L 233.800781 255.304688 L 233.753906 255.308594 L 233.707031 255.316406 L 233.65625 255.320312 L 233.601562 255.324219 L 233.550781 255.328125 L 233.496094 255.332031 L 233.378906 255.332031 L 233.320312 255.335938 L 233.097656 255.320312 L 232.902344 255.28125 L 232.726562 255.214844 L 232.574219 255.121094 L 232.445312 255.003906 L 232.34375 254.859375 L 232.261719 254.6875 L 232.203125 254.488281 L 232.167969 254.265625 L 232.15625 254.015625 L 232.15625 250.121094 L 231.480469 250.121094 L 231.480469 249.414062 L 232.195312 249.414062 L 232.480469 248.109375 L 233.125 248.109375 L 233.125 249.414062 L 234.203125 249.414062 L 234.203125 250.121094 L 233.125 250.121094 L 233.125 253.804688 L 233.128906 253.886719 L 233.136719 254.035156 L 233.148438 254.101562 L 233.160156 254.160156 L 233.175781 254.21875 L 233.191406 254.269531 L 233.210938 254.316406 L 233.234375 254.359375 L 233.261719 254.394531 L 233.292969 254.429688 L 233.324219 254.457031 L 233.363281 254.480469 L 233.40625 254.503906 L 233.449219 254.523438 L 233.5 254.535156 L 233.554688 254.546875 L 233.613281 254.558594 L 233.675781 254.5625 L 233.824219 254.5625 L 233.851562 254.558594 L 233.878906 254.558594 L 233.90625 254.554688 L 233.933594 254.554688 L 233.957031 254.550781 L 234.039062 254.539062 L 234.066406 254.53125 L 234.121094 254.523438 L 234.152344 254.519531 L 234.179688 254.511719 L 234.210938 254.507812 L 234.238281 254.5 L 234.269531 254.496094 L 234.300781 254.488281 Z M 234.300781 255.203125 "/>
<path style=" stroke:none;fill-rule:nonzero;fill:rgb(0%,0%,0%);fill-opacity:1;" d="M 240.058594 252.773438 L 240.058594 252.886719 L 240.050781 253 L 240.042969 253.109375 L 240.03125 253.214844 L 240.015625 253.320312 L 239.996094 253.425781 L 239.972656 253.527344 L 239.949219 253.625 L 239.886719 253.820312 L 239.851562 253.914062 L 239.765625 254.09375 L 239.722656 254.179688 L 239.671875 254.261719 L 239.617188 254.34375 L 239.5625 254.421875 L 239.503906 254.496094 L 239.441406 254.570312 L 239.375 254.640625 L 239.304688 254.707031 L 239.230469 254.769531 L 239.15625 254.828125 L 239.074219 254.886719 L 238.992188 254.941406 L 238.90625 254.992188 L 238.816406 255.039062 L 238.722656 255.085938 L 238.628906 255.128906 L 238.527344 255.167969 L 238.425781 255.203125 L 238.320312 255.234375 L 238.101562 255.289062 L 237.984375 255.308594 L 237.867188 255.324219 L 237.746094 255.339844 L 237.496094 255.355469 L 237.246094 255.355469 L 237.128906 255.351562 L 237.019531 255.34375 L 236.800781 255.320312 L 236.597656 255.289062 L 236.410156 255.242188 L 236.316406 255.214844 L 236.230469 255.1875 L 236.144531 255.15625 L 236.0625 255.121094 L 235.984375 255.085938 L 235.910156 255.050781 L 235.835938 255.011719 L 235.695312 254.925781 L 235.632812 254.878906 L 235.566406 254.832031 L 235.449219 254.730469 L 235.394531 254.675781 L 235.292969 254.566406 L 235.246094 254.507812 L 235.199219 254.445312 L 235.15625 254.382812 L 235.078125 254.257812 L 235.042969 254.191406 L 235.011719 254.121094 L 234.980469 254.054688 L 234.925781 253.914062 L 234.878906 253.773438 L 234.839844 253.625 L 234.824219 253.550781 L 235.804688 253.4375 L 235.816406 253.480469 L 235.832031 253.523438 L 235.84375 253.566406 L 235.859375 253.609375 L 235.875 253.648438 L 235.914062 253.734375 L 235.929688 253.773438 L 235.953125 253.816406 L 235.972656 253.855469 L 235.996094 253.898438 L 236.019531 253.9375 L 236.042969 253.972656 L 236.070312 254.011719 L 236.097656 254.046875 L 236.191406 254.152344 L 236.226562 254.1875 L 236.261719 254.21875 L 236.300781 254.25 L 236.34375 254.277344 L 236.382812 254.308594 L 236.425781 254.335938 L 236.519531 254.382812 L 236.566406 254.410156 L 236.617188 254.429688 L 236.667969 254.453125 L 236.722656 254.472656 L 236.777344 254.488281 L 236.835938 254.503906 L 236.898438 254.519531 L 236.960938 254.53125 L 237.023438 254.539062 L 237.09375 254.550781 L 237.234375 254.558594 L 237.308594 254.5625 L 237.460938 254.5625 L 237.53125 254.558594 L 237.605469 254.554688 L 237.675781 254.546875 L 237.746094 254.535156 L 237.8125 254.523438 L 237.945312 254.492188 L 238.007812 254.472656 L 238.070312 254.449219 L 238.128906 254.425781 L 238.246094 254.371094 L 238.300781 254.339844 L 238.355469 254.304688 L 238.40625 254.269531 L 238.453125 254.230469 L 238.503906 254.191406 L 238.546875 254.148438 L 238.59375 254.105469 L 238.636719 254.058594 L 238.675781 254.011719 L 238.714844 253.960938 L 238.753906 253.90625 L 238.789062 253.851562 L 238.820312 253.796875 L 238.851562 253.738281 L 238.933594 253.550781 L 238.953125 253.484375 L 238.992188 253.34375 L 239.007812 253.273438 L 239.019531 253.195312 L 239.03125 253.121094 L 239.039062 253.042969 L 239.046875 252.960938 L 239.050781 252.878906 L 239.050781 252.726562 L 239.046875 252.65625 L 239.03125 252.523438 L 239.023438 252.460938 L 239.007812 252.394531 L 238.996094 252.332031 L 238.976562 252.273438 L 238.957031 252.210938 L 238.9375 252.152344 L 238.914062 252.09375 L 238.832031 251.929688 L 238.800781 251.878906 L 238.765625 251.828125 L 238.695312 251.734375 L 238.65625 251.691406 L 238.570312 251.605469 L 238.527344 251.566406 L 238.480469 251.527344 L 238.328125 251.421875 L 238.273438 251.394531 L 238.214844 251.363281 L 238.15625 251.335938 L 238.097656 251.3125 L 238.035156 251.289062 L 237.972656 251.269531 L 237.773438 251.222656 L 237.632812 251.207031 L 237.558594 251.199219 L 237.484375 251.195312 L 237.3125 251.195312 L 237.171875 251.207031 L 237.085938 251.214844 L 236.957031 251.238281 L 236.917969 251.246094 L 236.878906 251.257812 L 236.839844 251.265625 L 236.683594 251.3125 L 236.648438 251.328125 L 236.613281 251.339844 L 236.507812 251.386719 L 236.476562 251.402344 L 236.441406 251.421875 L 236.410156 251.4375 L 236.316406 251.496094 L 236.289062 251.515625 L 236.257812 251.535156 L 236.121094 251.632812 L 236.097656 251.65625 L 236.042969 251.695312 L 236.019531 251.71875 L 235.992188 251.738281 L 235.046875 251.738281 L 235.296875 247.652344 L 239.617188 247.652344 L 239.617188 248.476562 L 236.183594 248.476562 L 236.039062 250.886719 L 236.089844 250.847656 L 236.144531 250.808594 L 236.203125 250.773438 L 236.328125 250.703125 L 236.394531 250.667969 L 236.460938 250.636719 L 236.535156 250.605469 L 236.609375 250.578125 L 236.683594 250.546875 L 236.761719 250.519531 L 236.84375 250.496094 L 236.929688 250.472656 L 237.019531 250.453125 L 237.109375 250.4375 L 237.296875 250.414062 L 237.398438 250.40625 L 237.5 250.402344 L 237.71875 250.402344 L 237.828125 250.410156 L 237.933594 250.417969 L 238.039062 250.429688 L 238.144531 250.445312 L 238.246094 250.464844 L 238.34375 250.488281 L 238.4375 250.511719 L 238.625 250.574219 L 238.714844 250.609375 L 238.800781 250.648438 L 238.964844 250.734375 L 239.042969 250.785156 L 239.121094 250.832031 L 239.191406 250.886719 L 239.332031 251.003906 L 239.457031 251.128906 L 239.515625 251.195312 L 239.574219 251.265625 L 239.625 251.335938 L 239.726562 251.484375 L 239.769531 251.5625 L 239.8125 251.644531 L 239.851562 251.726562 L 239.886719 251.8125 L 239.949219 251.992188 L 239.972656 252.085938 L 239.996094 252.175781 L 240.015625 252.273438 L 240.03125 252.371094 L 240.042969 252.46875 L 240.050781 252.566406 L 240.058594 252.671875 Z M 240.058594 252.773438 "/>
<path style=" stroke:none;fill-rule:nonzero;fill:rgb(0%,0%,0%);fill-opacity:1;" d="M 129.40625 319.933594 L 129.320312 319.957031 L 129.273438 319.96875 L 129.230469 319.976562 L 129.183594 319.988281 L 129.140625 319.996094 L 129 320.019531 L 128.957031 320.027344 L 128.910156 320.03125 L 128.863281 320.039062 L 128.8125 320.046875 L 128.710938 320.054688 L 128.65625 320.058594 L 128.601562 320.058594 L 128.542969 320.0625 L 128.425781 320.0625 L 128.207031 320.050781 L 128.007812 320.011719 L 127.832031 319.945312 L 127.683594 319.851562 L 127.554688 319.734375 L 127.449219 319.589844 L 127.367188 319.417969 L 127.308594 319.21875 L 127.273438 318.992188 L 127.261719 318.742188 L 127.261719 314.851562 L 126.589844 314.851562 L 126.589844 314.144531 L 127.300781 314.144531 L 127.585938 312.839844 L 128.234375 312.839844 L 128.234375 314.144531 L 129.3125 314.144531 L 129.3125 314.851562 L 128.234375 314.851562 L 128.234375 318.613281 L 128.238281 318.691406 L 128.246094 318.761719 L 128.253906 318.828125 L 128.265625 318.890625 L 128.28125 318.949219 L 128.300781 319 L 128.320312 319.046875 L 128.34375 319.089844 L 128.367188 319.125 L 128.398438 319.15625 L 128.433594 319.1875 L 128.46875 319.210938 L 128.511719 319.234375 L 128.558594 319.25 L 128.609375 319.265625 L 128.660156 319.277344 L 128.71875 319.285156 L 128.78125 319.292969 L 128.902344 319.292969 L 128.929688 319.289062 L 128.984375 319.289062 L 129.066406 319.277344 L 129.089844 319.273438 L 129.226562 319.253906 L 129.257812 319.246094 L 129.285156 319.242188 L 129.316406 319.234375 L 129.347656 319.230469 L 129.378906 319.222656 L 129.40625 319.21875 Z M 129.40625 319.933594 "/>
<path style=" stroke:none;fill-rule:nonzero;fill:rgb(0%,0%,0%);fill-opacity:1;" d="M 134.238281 318.257812 L 134.238281 319.976562 L 133.320312 319.976562 L 133.320312 318.257812 L 129.742188 318.257812 L 129.742188 317.503906 L 133.21875 312.382812 L 134.238281 312.382812 L 134.238281 317.492188 L 135.304688 317.492188 L 135.304688 318.257812 Z M 133.320312 313.476562 L 133.320312 313.480469 L 133.3125 313.496094 L 133.308594 313.507812 L 133.304688 313.515625 L 133.289062 313.539062 L 133.285156 313.554688 L 133.269531 313.585938 L 133.257812 313.597656 L 133.25 313.617188 L 133.242188 313.632812 L 133.230469 313.648438 L 133.222656 313.664062 L 133.210938 313.683594 L 133.203125 313.699219 L 133.179688 313.738281 L 133.171875 313.757812 L 133.125 313.835938 L 133.117188 313.855469 L 133.082031 313.914062 L 133.070312 313.9375 L 133.046875 313.976562 L 133.035156 313.992188 L 133.027344 314.011719 L 133.015625 314.027344 L 133.007812 314.046875 L 132.996094 314.0625 L 132.988281 314.078125 L 132.976562 314.089844 L 132.96875 314.105469 L 132.960938 314.117188 L 131.015625 316.984375 L 131.007812 316.996094 L 131.003906 317.003906 L 130.996094 317.015625 L 130.988281 317.023438 L 130.964844 317.058594 L 130.953125 317.070312 L 130.945312 317.085938 L 130.933594 317.097656 L 130.925781 317.113281 L 130.914062 317.128906 L 130.902344 317.140625 L 130.894531 317.15625 L 130.882812 317.171875 L 130.875 317.183594 L 130.851562 317.214844 L 130.84375 317.230469 L 130.832031 317.246094 L 130.820312 317.257812 L 130.808594 317.273438 L 130.800781 317.285156 L 130.789062 317.300781 L 130.777344 317.3125 L 130.753906 317.34375 L 130.746094 317.355469 L 130.734375 317.371094 L 130.722656 317.382812 L 130.710938 317.398438 L 130.703125 317.410156 L 130.691406 317.421875 L 130.667969 317.457031 L 130.660156 317.464844 L 130.652344 317.476562 L 130.636719 317.492188 L 133.320312 317.492188 Z M 133.320312 313.476562 "/>
<path style=" stroke:none;fill-rule:nonzero;fill:rgb(0%,0%,0%);fill-opacity:1;" d="M 330.917969 190.476562 L 330.871094 190.488281 L 330.828125 190.5 L 330.78125 190.507812 L 330.738281 190.519531 L 330.691406 190.527344 L 330.648438 190.539062 L 330.554688 190.554688 L 330.511719 190.5625 L 330.464844 190.566406 L 330.371094 190.582031 L 330.21875 190.59375 L 330.054688 190.605469 L 329.9375 190.605469 L 329.714844 190.59375 L 329.515625 190.550781 L 329.339844 190.484375 L 329.191406 190.394531 L 329.0625 190.273438 L 328.957031 190.128906 L 328.875 189.957031 L 328.816406 189.761719 L 328.78125 189.535156 L 328.769531 189.285156 L 328.769531 185.390625 L 328.097656 185.390625 L 328.097656 184.6875 L 328.808594 184.6875 L 329.09375 183.382812 L 329.742188 183.382812 L 329.742188 184.6875 L 330.820312 184.6875 L 330.820312 185.390625 L 329.742188 185.390625 L 329.742188 189.15625 L 329.746094 189.234375 L 329.753906 189.304688 L 329.761719 189.371094 L 329.773438 189.433594 L 329.789062 189.488281 L 329.808594 189.542969 L 329.828125 189.589844 L 329.875 189.667969 L 329.90625 189.699219 L 329.976562 189.753906 L 330.019531 189.773438 L 330.066406 189.792969 L 330.117188 189.808594 L 330.171875 189.820312 L 330.226562 189.828125 L 330.289062 189.832031 L 330.355469 189.835938 L 330.382812 189.835938 L 330.410156 189.832031 L 330.464844 189.832031 L 330.492188 189.828125 L 330.519531 189.828125 L 330.574219 189.820312 L 330.597656 189.816406 L 330.679688 189.804688 L 330.707031 189.796875 L 330.738281 189.792969 L 330.765625 189.789062 L 330.796875 189.78125 L 330.824219 189.777344 L 330.855469 189.769531 L 330.886719 189.765625 L 330.917969 189.757812 Z M 330.917969 190.476562 "/>
<path style=" stroke:none;fill-rule:nonzero;fill:rgb(0%,0%,0%);fill-opacity:1;" d="M 331.839844 190.519531 L 331.839844 189.695312 L 333.773438 189.695312 L 333.773438 183.851562 L 332.058594 185.074219 L 332.058594 184.15625 L 333.855469 182.921875 L 334.75 182.921875 L 334.75 189.695312 L 336.597656 189.695312 L 336.597656 190.519531 Z M 331.839844 190.519531 "/>
<path style=" stroke:none;fill-rule:nonzero;fill:rgb(0%,0%,0%);fill-opacity:1;" d="M 342.847656 186.71875 L 342.84375 186.933594 L 342.835938 187.140625 L 342.828125 187.34375 L 342.8125 187.539062 L 342.792969 187.726562 L 342.769531 187.90625 L 342.742188 188.082031 L 342.710938 188.25 L 342.675781 188.410156 L 342.636719 188.5625 L 342.59375 188.707031 L 342.546875 188.847656 L 342.5 188.984375 L 342.445312 189.113281 L 342.390625 189.234375 L 342.332031 189.355469 L 342.273438 189.464844 L 342.207031 189.574219 L 342.140625 189.675781 L 342.070312 189.769531 L 341.996094 189.859375 L 341.921875 189.941406 L 341.84375 190.019531 L 341.765625 190.09375 L 341.679688 190.164062 L 341.597656 190.226562 L 341.507812 190.285156 L 341.417969 190.335938 L 341.324219 190.382812 L 341.230469 190.425781 L 341.132812 190.464844 L 341.03125 190.5 L 340.933594 190.527344 L 340.832031 190.554688 L 340.726562 190.578125 L 340.625 190.59375 L 340.519531 190.609375 L 340.410156 190.617188 L 340.304688 190.625 L 340.082031 190.625 L 339.972656 190.617188 L 339.867188 190.609375 L 339.65625 190.578125 L 339.554688 190.554688 L 339.453125 190.527344 L 339.355469 190.5 L 339.253906 190.464844 L 339.160156 190.425781 L 339.0625 190.382812 L 338.972656 190.335938 L 338.882812 190.285156 L 338.792969 190.226562 L 338.710938 190.164062 L 338.628906 190.09375 L 338.546875 190.019531 L 338.46875 189.941406 L 338.394531 189.859375 L 338.324219 189.769531 L 338.253906 189.675781 L 338.1875 189.574219 L 338.125 189.46875 L 338.066406 189.355469 L 338.007812 189.238281 L 337.957031 189.117188 L 337.902344 188.988281 L 337.855469 188.855469 L 337.808594 188.714844 L 337.769531 188.566406 L 337.730469 188.414062 L 337.695312 188.253906 L 337.667969 188.085938 L 337.640625 187.910156 L 337.617188 187.730469 L 337.601562 187.542969 L 337.585938 187.347656 L 337.578125 187.144531 L 337.570312 186.933594 L 337.570312 186.492188 L 337.578125 186.273438 L 337.585938 186.066406 L 337.601562 185.863281 L 337.617188 185.671875 L 337.640625 185.484375 L 337.667969 185.304688 L 337.695312 185.136719 L 337.730469 184.976562 L 337.769531 184.820312 L 337.808594 184.671875 L 337.855469 184.53125 L 337.90625 184.394531 L 337.957031 184.265625 L 338.011719 184.144531 L 338.066406 184.027344 L 338.128906 183.914062 L 338.191406 183.808594 L 338.257812 183.710938 L 338.328125 183.617188 L 338.402344 183.53125 L 338.476562 183.449219 L 338.554688 183.375 L 338.632812 183.304688 L 338.714844 183.238281 L 338.800781 183.179688 L 338.890625 183.125 L 338.980469 183.074219 L 339.074219 183.03125 L 339.167969 182.992188 L 339.265625 182.957031 L 339.367188 182.929688 L 339.46875 182.898438 L 339.570312 182.875 L 339.675781 182.855469 L 339.78125 182.839844 L 340 182.816406 L 340.226562 182.808594 L 340.335938 182.8125 L 340.441406 182.816406 L 340.546875 182.828125 L 340.648438 182.839844 L 340.753906 182.855469 L 340.855469 182.875 L 340.953125 182.898438 L 341.050781 182.929688 L 341.148438 182.957031 L 341.246094 182.992188 L 341.339844 183.03125 L 341.433594 183.074219 L 341.519531 183.125 L 341.609375 183.179688 L 341.695312 183.238281 L 341.777344 183.304688 L 341.855469 183.375 L 341.933594 183.449219 L 342.007812 183.53125 L 342.082031 183.617188 L 342.148438 183.710938 L 342.214844 183.808594 L 342.28125 183.914062 L 342.339844 184.027344 L 342.398438 184.144531 L 342.453125 184.265625 L 342.503906 184.394531 L 342.554688 184.53125 L 342.597656 184.671875 L 342.640625 184.820312 L 342.679688 184.976562 L 342.714844 185.136719 L 342.746094 185.304688 L 342.773438 185.484375 L 342.792969 185.671875 L 342.8125 185.863281 L 342.828125 186.066406 L 342.835938 186.273438 L 342.84375 186.492188 Z M 341.859375 186.71875 L 341.859375 186.539062 L 341.855469 186.367188 L 341.847656 186.203125 L 341.84375 186.042969 L 341.832031 185.890625 L 341.820312 185.742188 L 341.804688 185.601562 L 341.789062 185.464844 L 341.773438 185.335938 L 341.75 185.214844 L 341.730469 185.097656 L 341.703125 184.984375 L 341.675781 184.875 L 341.648438 184.769531 L 341.617188 184.671875 L 341.585938 184.578125 L 341.550781 184.492188 L 341.511719 184.40625 L 341.472656 184.328125 L 341.433594 184.253906 L 341.390625 184.183594 L 341.296875 184.058594 L 341.25 184 L 341.199219 183.949219 L 341.144531 183.898438 L 341.089844 183.855469 L 341.035156 183.816406 L 340.976562 183.78125 L 340.914062 183.75 L 340.855469 183.71875 L 340.792969 183.695312 L 340.726562 183.671875 L 340.660156 183.652344 L 340.59375 183.636719 L 340.523438 183.621094 L 340.449219 183.609375 L 340.378906 183.605469 L 340.304688 183.597656 L 340.144531 183.597656 L 340.066406 183.605469 L 339.988281 183.609375 L 339.914062 183.621094 L 339.839844 183.636719 L 339.769531 183.652344 L 339.699219 183.671875 L 339.566406 183.71875 L 339.441406 183.78125 L 339.382812 183.816406 L 339.324219 183.859375 L 339.269531 183.902344 L 339.214844 183.953125 L 339.164062 184.003906 L 339.113281 184.0625 L 339.066406 184.125 L 339.019531 184.191406 L 338.976562 184.261719 L 338.933594 184.335938 L 338.894531 184.414062 L 338.859375 184.496094 L 338.824219 184.585938 L 338.789062 184.679688 L 338.761719 184.777344 L 338.730469 184.878906 L 338.703125 184.988281 L 338.679688 185.101562 L 338.65625 185.21875 L 338.636719 185.34375 L 338.617188 185.472656 L 338.601562 185.605469 L 338.589844 185.746094 L 338.578125 185.894531 L 338.566406 186.046875 L 338.558594 186.207031 L 338.554688 186.371094 L 338.550781 186.542969 L 338.550781 186.890625 L 338.554688 187.058594 L 338.558594 187.21875 L 338.566406 187.375 L 338.578125 187.523438 L 338.589844 187.667969 L 338.601562 187.804688 L 338.617188 187.941406 L 338.65625 188.191406 L 338.679688 188.308594 L 338.707031 188.421875 L 338.761719 188.632812 L 338.792969 188.730469 L 338.828125 188.824219 L 338.863281 188.914062 L 338.902344 189 L 338.980469 189.15625 L 339.023438 189.226562 L 339.070312 189.292969 L 339.117188 189.355469 L 339.21875 189.464844 L 339.273438 189.515625 L 339.328125 189.5625 L 339.382812 189.605469 L 339.441406 189.644531 L 339.503906 189.679688 L 339.628906 189.734375 L 339.695312 189.757812 L 339.761719 189.777344 L 339.832031 189.796875 L 339.902344 189.808594 L 339.976562 189.820312 L 340.050781 189.828125 L 340.125 189.832031 L 340.203125 189.835938 L 340.28125 189.832031 L 340.355469 189.828125 L 340.425781 189.820312 L 340.5 189.808594 L 340.566406 189.796875 L 340.636719 189.777344 L 340.703125 189.757812 L 340.769531 189.734375 L 340.894531 189.679688 L 340.953125 189.644531 L 341.011719 189.605469 L 341.070312 189.5625 L 341.125 189.515625 L 341.175781 189.464844 L 341.277344 189.355469 L 341.324219 189.292969 L 341.367188 189.226562 L 341.410156 189.15625 L 341.453125 189.078125 L 341.492188 189 L 341.53125 188.914062 L 341.566406 188.824219 L 341.601562 188.730469 L 341.632812 188.632812 L 341.664062 188.527344 L 341.691406 188.421875 L 341.71875 188.308594 L 341.742188 188.191406 L 341.761719 188.066406 L 341.785156 187.941406 L 341.816406 187.667969 L 341.828125 187.523438 L 341.839844 187.375 L 341.847656 187.21875 L 341.855469 187.058594 L 341.859375 186.890625 Z M 341.859375 186.71875 "/>
<path style=" stroke:none;fill-rule:nonzero;fill:rgb(0%,0%,0%);fill-opacity:1;" d="M 336.132812 158.109375 L 336.046875 158.132812 L 336 158.144531 L 335.957031 158.152344 L 335.910156 158.164062 L 335.863281 158.171875 L 335.820312 158.179688 L 335.679688 158.203125 L 335.636719 158.210938 L 335.585938 158.214844 L 335.539062 158.222656 L 335.4375 158.230469 L 335.328125 158.238281 L 335.210938 158.238281 L 335.152344 158.242188 L 334.929688 158.226562 L 334.734375 158.1875 L 334.558594 158.121094 L 334.40625 158.027344 L 334.28125 157.910156 L 334.175781 157.765625 L 334.09375 157.59375 L 334.035156 157.394531 L 334 157.171875 L 333.988281 156.917969 L 333.988281 153.027344 L 333.316406 153.027344 L 333.316406 152.320312 L 334.027344 152.320312 L 334.3125 151.015625 L 334.957031 151.015625 L 334.957031 152.320312 L 336.035156 152.320312 L 336.035156 153.027344 L 334.957031 153.027344 L 334.957031 156.710938 L 334.960938 156.792969 L 334.964844 156.867188 L 334.972656 156.941406 L 334.980469 157.007812 L 334.992188 157.066406 L 335.007812 157.125 L 335.023438 157.175781 L 335.046875 157.222656 L 335.066406 157.265625 L 335.09375 157.300781 L 335.125 157.335938 L 335.15625 157.363281 L 335.195312 157.386719 L 335.238281 157.410156 L 335.285156 157.429688 L 335.332031 157.441406 L 335.386719 157.453125 L 335.445312 157.464844 L 335.507812 157.46875 L 335.65625 157.46875 L 335.683594 157.464844 L 335.710938 157.464844 L 335.738281 157.460938 L 335.765625 157.460938 L 335.789062 157.457031 L 335.871094 157.445312 L 335.898438 157.4375 L 335.953125 157.429688 L 335.984375 157.425781 L 336.011719 157.417969 L 336.042969 157.414062 L 336.070312 157.40625 L 336.101562 157.402344 L 336.132812 157.394531 Z M 336.132812 158.109375 "/>
<path style=" stroke:none;fill-rule:nonzero;fill:rgb(0%,0%,0%);fill-opacity:1;" d="M 341.800781 151.347656 L 341.574219 151.691406 L 341.355469 152.035156 L 341.25 152.203125 L 341.148438 152.371094 L 341.042969 152.535156 L 340.945312 152.703125 L 340.84375 152.867188 L 340.746094 153.027344 L 340.652344 153.1875 L 340.5625 153.351562 L 340.472656 153.511719 L 340.386719 153.671875 L 340.300781 153.835938 L 340.222656 153.996094 L 340.140625 154.160156 L 339.992188 154.488281 L 339.921875 154.652344 L 339.855469 154.8125 L 339.792969 154.976562 L 339.730469 155.144531 L 339.671875 155.308594 L 339.5625 155.644531 L 339.515625 155.8125 L 339.46875 155.984375 L 339.382812 156.328125 L 339.347656 156.5 L 339.316406 156.675781 L 339.289062 156.851562 L 339.261719 157.03125 L 339.242188 157.210938 L 339.226562 157.394531 L 339.210938 157.582031 L 339.203125 157.769531 L 339.195312 158.152344 L 338.183594 158.152344 L 338.183594 157.972656 L 338.191406 157.792969 L 338.203125 157.609375 L 338.214844 157.429688 L 338.234375 157.253906 L 338.261719 157.074219 L 338.289062 156.898438 L 338.320312 156.722656 L 338.355469 156.546875 L 338.441406 156.195312 L 338.488281 156.019531 L 338.539062 155.847656 L 338.59375 155.671875 L 338.710938 155.328125 L 338.773438 155.160156 L 338.839844 154.988281 L 338.90625 154.820312 L 338.980469 154.652344 L 339.054688 154.480469 L 339.210938 154.144531 L 339.292969 153.980469 L 339.375 153.8125 L 339.460938 153.648438 L 339.550781 153.480469 L 339.640625 153.316406 L 339.734375 153.152344 L 339.832031 152.988281 L 339.929688 152.828125 L 340.027344 152.664062 L 340.230469 152.34375 L 340.332031 152.179688 L 340.433594 152.019531 L 340.539062 151.859375 L 340.644531 151.703125 L 340.753906 151.542969 L 340.859375 151.382812 L 336.78125 151.382812 L 336.78125 150.558594 L 341.800781 150.558594 Z M 341.800781 151.347656 "/>
<path style=" stroke:none;fill-rule:nonzero;fill:rgb(0%,0%,0%);fill-opacity:1;" d="M 230.542969 222.839844 L 230.496094 222.851562 L 230.453125 222.863281 L 230.40625 222.875 L 230.363281 222.882812 L 230.316406 222.894531 L 230.273438 222.902344 L 230.132812 222.925781 L 230.089844 222.933594 L 230.042969 222.9375 L 229.996094 222.945312 L 229.945312 222.953125 L 229.84375 222.960938 L 229.789062 222.964844 L 229.734375 222.964844 L 229.679688 222.96875 L 229.558594 222.96875 L 229.339844 222.957031 L 229.140625 222.917969 L 228.964844 222.851562 L 228.816406 222.757812 L 228.6875 222.640625 L 228.582031 222.496094 L 228.5 222.324219 L 228.441406 222.125 L 228.40625 221.898438 L 228.394531 221.648438 L 228.394531 217.757812 L 227.722656 217.757812 L 227.722656 217.050781 L 228.433594 217.050781 L 228.71875 215.746094 L 229.367188 215.746094 L 229.367188 217.050781 L 230.445312 217.050781 L 230.445312 217.757812 L 229.367188 217.757812 L 229.367188 221.519531 L 229.371094 221.597656 L 229.378906 221.667969 L 229.386719 221.734375 L 229.398438 221.796875 L 229.414062 221.855469 L 229.433594 221.90625 L 229.453125 221.953125 L 229.476562 221.996094 L 229.5 222.03125 L 229.53125 222.0625 L 229.566406 222.09375 L 229.601562 222.117188 L 229.644531 222.140625 L 229.691406 222.15625 L 229.742188 222.171875 L 229.792969 222.183594 L 229.851562 222.191406 L 229.914062 222.195312 L 229.980469 222.199219 L 230.035156 222.199219 L 230.0625 222.195312 L 230.117188 222.195312 L 230.199219 222.183594 L 230.222656 222.179688 L 230.332031 222.164062 L 230.363281 222.160156 L 230.390625 222.152344 L 230.417969 222.148438 L 230.449219 222.140625 L 230.480469 222.136719 L 230.511719 222.128906 L 230.542969 222.125 Z M 230.542969 222.839844 "/>
<path style=" stroke:none;fill-rule:nonzero;fill:rgb(0%,0%,0%);fill-opacity:1;" d="M 231.464844 222.882812 L 231.464844 222.058594 L 233.398438 222.058594 L 233.398438 216.214844 L 231.683594 217.4375 L 231.683594 216.523438 L 233.480469 215.289062 L 234.375 215.289062 L 234.375 222.058594 L 236.222656 222.058594 L 236.222656 222.882812 Z M 231.464844 222.882812 "/>
<path style=" stroke:none;fill-rule:nonzero;fill:rgb(0%,0%,0%);fill-opacity:1;" d="M 341.765625 125.746094 L 341.722656 125.757812 L 341.675781 125.769531 L 341.632812 125.78125 L 341.585938 125.789062 L 341.542969 125.800781 L 341.496094 125.808594 L 341.453125 125.816406 L 341.3125 125.839844 L 341.265625 125.84375 L 341.21875 125.851562 L 341.171875 125.855469 L 341.121094 125.863281 L 341.066406 125.867188 L 341.015625 125.871094 L 340.960938 125.871094 L 340.902344 125.875 L 340.785156 125.875 L 340.5625 125.863281 L 340.367188 125.824219 L 340.191406 125.757812 L 340.039062 125.664062 L 339.910156 125.546875 L 339.808594 125.402344 L 339.726562 125.230469 L 339.667969 125.03125 L 339.632812 124.804688 L 339.621094 124.554688 L 339.621094 120.664062 L 338.945312 120.664062 L 338.945312 119.957031 L 339.660156 119.957031 L 339.945312 118.652344 L 340.589844 118.652344 L 340.589844 119.957031 L 341.667969 119.957031 L 341.667969 120.664062 L 340.589844 120.664062 L 340.589844 124.34375 L 340.59375 124.425781 L 340.597656 124.503906 L 340.601562 124.574219 L 340.613281 124.640625 L 340.625 124.703125 L 340.640625 124.761719 L 340.65625 124.8125 L 340.675781 124.859375 L 340.699219 124.902344 L 340.726562 124.9375 L 340.753906 124.96875 L 340.789062 125 L 340.828125 125.023438 L 340.914062 125.0625 L 340.964844 125.078125 L 341.019531 125.089844 L 341.078125 125.097656 L 341.140625 125.101562 L 341.207031 125.105469 L 341.261719 125.105469 L 341.289062 125.101562 L 341.34375 125.101562 L 341.371094 125.097656 L 341.394531 125.09375 L 341.585938 125.066406 L 341.613281 125.058594 L 341.644531 125.054688 L 341.675781 125.046875 L 341.703125 125.042969 L 341.734375 125.035156 L 341.765625 125.03125 Z M 341.765625 125.746094 "/>
<path style=" stroke:none;fill-rule:nonzero;fill:rgb(0%,0%,0%);fill-opacity:1;" d="M 342.402344 125.789062 L 342.402344 125.105469 L 342.457031 124.980469 L 342.515625 124.859375 L 342.578125 124.738281 L 342.640625 124.625 L 342.707031 124.511719 L 342.773438 124.402344 L 342.84375 124.296875 L 342.917969 124.191406 L 342.992188 124.09375 L 343.070312 123.996094 L 343.152344 123.898438 L 343.230469 123.804688 L 343.3125 123.710938 L 343.394531 123.621094 L 343.480469 123.535156 L 343.5625 123.449219 L 343.648438 123.363281 L 343.820312 123.199219 L 343.992188 123.042969 L 344.082031 122.964844 L 344.339844 122.742188 L 344.425781 122.671875 L 344.511719 122.597656 L 344.597656 122.53125 L 344.683594 122.460938 L 344.855469 122.328125 L 344.9375 122.261719 L 345.019531 122.191406 L 345.097656 122.125 L 345.179688 122.058594 L 345.476562 121.792969 L 345.613281 121.65625 L 345.738281 121.523438 L 345.800781 121.453125 L 345.910156 121.3125 L 345.960938 121.242188 L 346.011719 121.167969 L 346.054688 121.097656 L 346.101562 121.023438 L 346.140625 120.949219 L 346.175781 120.875 L 346.210938 120.796875 L 346.238281 120.714844 L 346.261719 120.632812 L 346.28125 120.550781 L 346.296875 120.464844 L 346.308594 120.375 L 346.316406 120.195312 L 346.316406 120.128906 L 346.3125 120.066406 L 346.308594 120.007812 L 346.292969 119.890625 L 346.269531 119.78125 L 346.253906 119.730469 L 346.238281 119.675781 L 346.21875 119.628906 L 346.199219 119.578125 L 346.175781 119.53125 L 346.152344 119.488281 L 346.128906 119.441406 L 346.101562 119.402344 L 346.070312 119.359375 L 346.039062 119.320312 L 346.007812 119.285156 L 345.972656 119.246094 L 345.9375 119.214844 L 345.902344 119.179688 L 345.863281 119.148438 L 345.820312 119.121094 L 345.78125 119.09375 L 345.734375 119.066406 L 345.691406 119.042969 L 345.644531 119.023438 L 345.597656 119 L 345.546875 118.980469 L 345.445312 118.949219 L 345.390625 118.933594 L 345.339844 118.921875 L 345.285156 118.910156 L 345.226562 118.902344 L 345.171875 118.894531 L 345.113281 118.886719 L 345.054688 118.882812 L 344.992188 118.878906 L 344.871094 118.878906 L 344.816406 118.882812 L 344.757812 118.886719 L 344.703125 118.890625 L 344.59375 118.90625 L 344.484375 118.929688 L 344.433594 118.945312 L 344.378906 118.960938 L 344.332031 118.976562 L 344.28125 118.996094 L 344.234375 119.015625 L 344.09375 119.085938 L 344.007812 119.140625 L 343.96875 119.171875 L 343.925781 119.203125 L 343.886719 119.234375 L 343.777344 119.34375 L 343.746094 119.382812 L 343.652344 119.511719 L 343.597656 119.605469 L 343.574219 119.65625 L 343.550781 119.703125 L 343.53125 119.757812 L 343.511719 119.808594 L 343.496094 119.863281 L 343.480469 119.921875 L 343.46875 119.976562 L 343.457031 120.039062 L 343.445312 120.097656 L 343.4375 120.160156 L 342.445312 120.070312 L 342.457031 119.988281 L 342.46875 119.910156 L 342.484375 119.828125 L 342.503906 119.75 L 342.527344 119.671875 L 342.550781 119.597656 L 342.578125 119.519531 L 342.605469 119.445312 L 342.636719 119.371094 L 342.671875 119.300781 L 342.707031 119.226562 L 342.746094 119.160156 L 342.789062 119.089844 L 342.835938 119.023438 L 342.882812 118.960938 L 342.933594 118.898438 L 343.042969 118.78125 L 343.101562 118.722656 L 343.160156 118.667969 L 343.226562 118.613281 L 343.292969 118.5625 L 343.359375 118.515625 L 343.433594 118.46875 L 343.503906 118.421875 L 343.660156 118.34375 L 343.742188 118.304688 L 343.824219 118.269531 L 343.910156 118.238281 L 344 118.207031 L 344.09375 118.179688 L 344.1875 118.15625 L 344.285156 118.136719 L 344.488281 118.105469 L 344.597656 118.09375 L 344.703125 118.085938 L 344.816406 118.082031 L 345.042969 118.082031 L 345.152344 118.085938 L 345.363281 118.101562 L 345.464844 118.113281 L 345.566406 118.128906 L 345.660156 118.148438 L 345.757812 118.167969 L 345.9375 118.214844 L 346.023438 118.246094 L 346.109375 118.273438 L 346.191406 118.308594 L 346.269531 118.34375 L 346.34375 118.382812 L 346.417969 118.425781 L 346.488281 118.46875 L 346.621094 118.5625 L 346.683594 118.613281 L 346.742188 118.667969 L 346.800781 118.726562 L 346.851562 118.785156 L 346.90625 118.847656 L 346.953125 118.910156 L 347 118.976562 L 347.039062 119.046875 L 347.082031 119.117188 L 347.152344 119.265625 L 347.183594 119.347656 L 347.210938 119.425781 L 347.234375 119.511719 L 347.273438 119.683594 L 347.285156 119.777344 L 347.296875 119.867188 L 347.3125 120.0625 L 347.3125 120.238281 L 347.308594 120.3125 L 347.300781 120.386719 L 347.277344 120.535156 L 347.261719 120.609375 L 347.222656 120.75 L 347.199219 120.820312 L 347.171875 120.890625 L 347.144531 120.957031 L 347.113281 121.027344 L 347.050781 121.160156 L 347.011719 121.226562 L 346.976562 121.292969 L 346.9375 121.355469 L 346.894531 121.421875 L 346.851562 121.484375 L 346.804688 121.546875 L 346.761719 121.609375 L 346.710938 121.671875 L 346.664062 121.734375 L 346.613281 121.792969 L 346.5625 121.855469 L 346.453125 121.972656 L 346.394531 122.035156 L 346.21875 122.210938 L 346.15625 122.265625 L 345.96875 122.441406 L 345.90625 122.496094 L 345.84375 122.554688 L 345.777344 122.609375 L 345.710938 122.667969 L 345.648438 122.722656 L 345.183594 123.105469 L 345.117188 123.164062 L 344.917969 123.328125 L 344.851562 123.378906 L 344.785156 123.433594 L 344.472656 123.707031 L 344.414062 123.761719 L 344.351562 123.816406 L 344.296875 123.871094 L 344.238281 123.925781 L 344.183594 123.984375 L 344.128906 124.039062 L 344.078125 124.09375 L 344.023438 124.152344 L 343.976562 124.207031 L 343.925781 124.261719 L 343.832031 124.378906 L 343.785156 124.433594 L 343.742188 124.492188 L 343.699219 124.546875 L 343.660156 124.605469 L 343.554688 124.78125 L 343.523438 124.84375 L 343.496094 124.902344 L 343.46875 124.964844 L 347.429688 124.964844 L 347.429688 125.789062 Z M 342.402344 125.789062 "/>
<path style=" stroke:none;fill-rule:nonzero;fill:rgb(0%,0%,0%);fill-opacity:1;" d="M 319.722656 93.382812 L 319.675781 93.394531 L 319.632812 93.40625 L 319.585938 93.414062 L 319.542969 93.425781 L 319.496094 93.433594 L 319.453125 93.441406 L 319.40625 93.453125 L 319.359375 93.460938 L 319.316406 93.46875 L 319.269531 93.472656 L 319.175781 93.488281 L 319.023438 93.5 L 318.859375 93.511719 L 318.738281 93.511719 L 318.519531 93.5 L 318.320312 93.457031 L 318.144531 93.390625 L 317.996094 93.300781 L 317.867188 93.179688 L 317.761719 93.035156 L 317.679688 92.863281 L 317.621094 92.667969 L 317.585938 92.441406 L 317.574219 92.191406 L 317.574219 88.296875 L 316.902344 88.296875 L 316.902344 87.59375 L 317.613281 87.59375 L 317.898438 86.289062 L 318.546875 86.289062 L 318.546875 87.59375 L 319.625 87.59375 L 319.625 88.296875 L 318.546875 88.296875 L 318.546875 92.0625 L 318.550781 92.136719 L 318.558594 92.210938 L 318.566406 92.277344 L 318.578125 92.339844 L 318.59375 92.394531 L 318.613281 92.449219 L 318.632812 92.496094 L 318.679688 92.574219 L 318.710938 92.605469 L 318.78125 92.660156 L 318.824219 92.679688 L 318.871094 92.699219 L 318.921875 92.714844 L 318.976562 92.726562 L 319.03125 92.734375 L 319.09375 92.738281 L 319.160156 92.742188 L 319.1875 92.738281 L 319.269531 92.738281 L 319.296875 92.734375 L 319.324219 92.734375 L 319.378906 92.726562 L 319.402344 92.722656 L 319.484375 92.710938 L 319.511719 92.703125 L 319.542969 92.699219 L 319.570312 92.695312 L 319.597656 92.6875 L 319.628906 92.683594 L 319.660156 92.675781 L 319.691406 92.671875 L 319.722656 92.664062 Z M 319.722656 93.382812 "/>
<path style=" stroke:none;fill-rule:nonzero;fill:rgb(0%,0%,0%);fill-opacity:1;" d="M 325.457031 91.328125 L 325.449219 91.53125 L 325.441406 91.632812 L 325.429688 91.726562 L 325.414062 91.824219 L 325.394531 91.914062 L 325.347656 92.09375 L 325.316406 92.175781 L 325.285156 92.261719 L 325.25 92.339844 L 325.210938 92.417969 L 325.167969 92.496094 L 325.125 92.570312 L 325.078125 92.640625 L 325.023438 92.707031 L 324.972656 92.773438 L 324.914062 92.835938 L 324.851562 92.898438 L 324.789062 92.957031 L 324.722656 93.011719 L 324.652344 93.0625 L 324.578125 93.113281 L 324.503906 93.160156 L 324.425781 93.203125 L 324.339844 93.246094 L 324.257812 93.285156 L 324.167969 93.320312 L 324.074219 93.355469 L 323.980469 93.386719 L 323.882812 93.414062 L 323.78125 93.441406 L 323.679688 93.460938 L 323.574219 93.480469 L 323.464844 93.496094 L 323.238281 93.519531 L 323.121094 93.527344 L 323.003906 93.53125 L 322.742188 93.53125 L 322.605469 93.527344 L 322.476562 93.515625 L 322.351562 93.503906 L 322.230469 93.488281 L 322.113281 93.472656 L 322 93.449219 L 321.890625 93.421875 L 321.789062 93.394531 L 321.6875 93.359375 L 321.59375 93.324219 L 321.503906 93.285156 L 321.414062 93.242188 L 321.25 93.15625 L 321.171875 93.109375 L 321.097656 93.058594 L 321.027344 93.007812 L 320.894531 92.898438 L 320.835938 92.835938 L 320.777344 92.777344 L 320.722656 92.714844 L 320.671875 92.652344 L 320.621094 92.585938 L 320.535156 92.453125 L 320.496094 92.382812 L 320.460938 92.3125 L 320.425781 92.238281 L 320.398438 92.164062 L 320.367188 92.089844 L 320.34375 92.015625 L 320.320312 91.9375 L 320.296875 91.863281 L 320.277344 91.785156 L 320.246094 91.628906 L 320.222656 91.472656 L 321.226562 91.382812 L 321.234375 91.441406 L 321.257812 91.558594 L 321.269531 91.613281 L 321.285156 91.671875 L 321.300781 91.726562 L 321.320312 91.777344 L 321.339844 91.832031 L 321.359375 91.882812 L 321.382812 91.933594 L 321.40625 91.980469 L 321.460938 92.074219 L 321.488281 92.117188 L 321.519531 92.164062 L 321.550781 92.203125 L 321.585938 92.246094 L 321.621094 92.285156 L 321.660156 92.320312 L 321.699219 92.359375 L 321.738281 92.390625 L 321.78125 92.425781 L 321.875 92.488281 L 321.921875 92.515625 L 321.972656 92.542969 L 322.023438 92.566406 L 322.132812 92.613281 L 322.25 92.652344 L 322.375 92.683594 L 322.507812 92.707031 L 322.648438 92.722656 L 322.722656 92.726562 L 322.800781 92.730469 L 322.878906 92.730469 L 323.023438 92.726562 L 323.160156 92.714844 L 323.292969 92.695312 L 323.414062 92.671875 L 323.535156 92.640625 L 323.644531 92.601562 L 323.75 92.550781 L 323.847656 92.5 L 323.941406 92.4375 L 324.027344 92.367188 L 324.109375 92.292969 L 324.179688 92.210938 L 324.242188 92.121094 L 324.296875 92.023438 L 324.34375 91.917969 L 324.382812 91.808594 L 324.410156 91.691406 L 324.433594 91.566406 L 324.445312 91.433594 L 324.449219 91.296875 L 324.441406 91.132812 L 324.417969 90.984375 L 324.402344 90.917969 L 324.378906 90.851562 L 324.355469 90.789062 L 324.328125 90.730469 L 324.296875 90.675781 L 324.261719 90.621094 L 324.222656 90.570312 L 324.183594 90.523438 L 324.140625 90.476562 L 324.097656 90.433594 L 323.957031 90.316406 L 323.90625 90.285156 L 323.796875 90.222656 L 323.742188 90.195312 L 323.683594 90.167969 L 323.566406 90.121094 L 323.507812 90.101562 L 323.445312 90.082031 L 323.386719 90.066406 L 323.320312 90.050781 L 323.257812 90.039062 L 323.191406 90.027344 L 322.941406 89.996094 L 322.882812 89.992188 L 322.820312 89.988281 L 322.761719 89.984375 L 322.707031 89.984375 L 322.648438 89.980469 L 322.042969 89.980469 L 322.042969 89.140625 L 322.628906 89.140625 L 322.738281 89.132812 L 322.796875 89.132812 L 322.851562 89.125 L 322.910156 89.121094 L 323.085938 89.097656 L 323.203125 89.074219 L 323.261719 89.058594 L 323.316406 89.042969 L 323.480469 88.984375 L 323.582031 88.9375 L 323.683594 88.882812 L 323.730469 88.851562 L 323.824219 88.78125 L 323.867188 88.742188 L 323.90625 88.703125 L 323.949219 88.664062 L 323.984375 88.621094 L 324.054688 88.527344 L 324.117188 88.425781 L 324.144531 88.371094 L 324.167969 88.3125 L 324.191406 88.25 L 324.207031 88.1875 L 324.222656 88.121094 L 324.234375 88.054688 L 324.242188 87.980469 L 324.246094 87.90625 L 324.25 87.828125 L 324.246094 87.710938 L 324.234375 87.597656 L 324.214844 87.488281 L 324.191406 87.382812 L 324.160156 87.285156 L 324.117188 87.191406 L 324.070312 87.105469 L 324.019531 87.019531 L 323.957031 86.941406 L 323.886719 86.871094 L 323.8125 86.800781 L 323.730469 86.742188 L 323.644531 86.6875 L 323.546875 86.640625 L 323.445312 86.601562 L 323.335938 86.570312 L 323.21875 86.546875 L 323.09375 86.527344 L 322.964844 86.519531 L 322.824219 86.515625 L 322.699219 86.519531 L 322.578125 86.527344 L 322.464844 86.542969 L 322.351562 86.566406 L 322.246094 86.597656 L 322.144531 86.632812 L 322.046875 86.675781 L 321.953125 86.726562 L 321.867188 86.78125 L 321.785156 86.84375 L 321.710938 86.910156 L 321.640625 86.984375 L 321.578125 87.066406 L 321.523438 87.148438 L 321.472656 87.238281 L 321.433594 87.335938 L 321.394531 87.4375 L 321.367188 87.542969 L 321.34375 87.652344 L 321.328125 87.769531 L 320.351562 87.695312 L 320.363281 87.597656 L 320.382812 87.5 L 320.402344 87.40625 L 320.449219 87.226562 L 320.511719 87.054688 L 320.546875 86.976562 L 320.625 86.820312 L 320.765625 86.609375 L 320.816406 86.542969 L 320.871094 86.480469 L 320.925781 86.421875 L 320.984375 86.363281 L 321.042969 86.308594 L 321.105469 86.257812 L 321.171875 86.207031 L 321.238281 86.160156 L 321.308594 86.113281 L 321.378906 86.070312 L 321.527344 85.992188 L 321.683594 85.921875 L 321.929688 85.839844 L 322.015625 85.816406 L 322.105469 85.796875 L 322.191406 85.777344 L 322.371094 85.746094 L 322.460938 85.738281 L 322.554688 85.726562 L 322.835938 85.714844 L 323.085938 85.722656 L 323.203125 85.730469 L 323.316406 85.742188 L 323.429688 85.757812 L 323.535156 85.773438 L 323.640625 85.796875 L 323.742188 85.820312 L 323.835938 85.847656 L 323.929688 85.878906 L 324.019531 85.910156 L 324.109375 85.945312 L 324.191406 85.984375 L 324.347656 86.0625 L 324.421875 86.109375 L 324.492188 86.15625 L 324.558594 86.203125 L 324.621094 86.253906 L 324.738281 86.363281 L 324.839844 86.480469 L 324.886719 86.539062 L 324.933594 86.601562 L 325.011719 86.734375 L 325.046875 86.804688 L 325.078125 86.875 L 325.105469 86.945312 L 325.132812 87.019531 L 325.15625 87.09375 L 325.175781 87.171875 L 325.195312 87.246094 L 325.210938 87.324219 L 325.222656 87.402344 L 325.234375 87.484375 L 325.242188 87.5625 L 325.246094 87.644531 L 325.246094 87.792969 L 325.238281 87.925781 L 325.214844 88.113281 L 325.203125 88.175781 L 325.15625 88.351562 L 325.136719 88.410156 L 325.113281 88.464844 L 325.089844 88.523438 L 325.066406 88.574219 L 325.039062 88.628906 L 324.976562 88.730469 L 324.941406 88.78125 L 324.90625 88.828125 L 324.828125 88.921875 L 324.742188 89.007812 L 324.695312 89.050781 L 324.648438 89.089844 L 324.597656 89.128906 L 324.542969 89.167969 L 324.488281 89.203125 L 324.433594 89.242188 L 324.371094 89.273438 L 324.3125 89.308594 L 324.25 89.339844 L 324.117188 89.394531 L 324.046875 89.421875 L 323.898438 89.46875 L 323.820312 89.488281 L 323.65625 89.527344 L 323.65625 89.550781 L 323.746094 89.558594 L 323.835938 89.574219 L 323.921875 89.589844 L 324.003906 89.605469 L 324.085938 89.625 L 324.164062 89.648438 L 324.238281 89.671875 L 324.3125 89.699219 L 324.382812 89.726562 L 324.453125 89.757812 L 324.519531 89.792969 L 324.585938 89.824219 L 324.648438 89.859375 L 324.765625 89.9375 L 324.820312 89.976562 L 324.921875 90.0625 L 324.96875 90.105469 L 325.015625 90.152344 L 325.058594 90.199219 L 325.136719 90.300781 L 325.171875 90.351562 L 325.207031 90.40625 L 325.269531 90.515625 L 325.296875 90.574219 L 325.34375 90.691406 L 325.363281 90.753906 L 325.382812 90.8125 L 325.402344 90.875 L 325.414062 90.9375 L 325.429688 91.003906 L 325.445312 91.128906 L 325.453125 91.195312 L 325.457031 91.261719 Z M 325.457031 91.328125 "/>
<path style=" stroke:none;fill-rule:nonzero;fill:rgb(0%,0%,0%);fill-opacity:1;" d="M 232.867188 61.015625 L 232.824219 61.027344 L 232.777344 61.039062 L 232.734375 61.050781 L 232.6875 61.058594 L 232.644531 61.070312 L 232.597656 61.078125 L 232.554688 61.085938 L 232.367188 61.117188 L 232.320312 61.121094 L 232.273438 61.128906 L 232.222656 61.132812 L 232.167969 61.136719 L 232.117188 61.140625 L 232.0625 61.144531 L 231.945312 61.144531 L 231.886719 61.148438 L 231.664062 61.132812 L 231.46875 61.09375 L 231.292969 61.027344 L 231.140625 60.933594 L 231.011719 60.816406 L 230.910156 60.671875 L 230.828125 60.5 L 230.769531 60.300781 L 230.734375 60.078125 L 230.722656 59.824219 L 230.722656 55.933594 L 230.046875 55.933594 L 230.046875 55.226562 L 230.761719 55.226562 L 231.046875 53.921875 L 231.691406 53.921875 L 231.691406 55.226562 L 232.769531 55.226562 L 232.769531 55.933594 L 231.691406 55.933594 L 231.691406 59.617188 L 231.695312 59.699219 L 231.703125 59.847656 L 231.714844 59.914062 L 231.726562 59.972656 L 231.742188 60.03125 L 231.757812 60.082031 L 231.777344 60.128906 L 231.800781 60.171875 L 231.855469 60.242188 L 231.890625 60.269531 L 231.929688 60.292969 L 231.972656 60.316406 L 232.015625 60.335938 L 232.066406 60.347656 L 232.121094 60.359375 L 232.179688 60.371094 L 232.242188 60.375 L 232.390625 60.375 L 232.417969 60.371094 L 232.445312 60.371094 L 232.472656 60.367188 L 232.496094 60.367188 L 232.605469 60.351562 L 232.632812 60.34375 L 232.6875 60.335938 L 232.714844 60.328125 L 232.777344 60.320312 L 232.804688 60.3125 L 232.835938 60.308594 L 232.867188 60.300781 Z M 232.867188 61.015625 "/>
<path style=" stroke:none;fill-rule:nonzero;fill:rgb(0%,0%,0%);fill-opacity:1;" d="M 238.609375 58.941406 L 238.605469 59.039062 L 238.601562 59.132812 L 238.59375 59.226562 L 238.582031 59.316406 L 238.570312 59.410156 L 238.550781 59.496094 L 238.53125 59.585938 L 238.507812 59.667969 L 238.480469 59.753906 L 238.453125 59.835938 L 238.421875 59.917969 L 238.386719 59.996094 L 238.347656 60.070312 L 238.304688 60.144531 L 238.257812 60.214844 L 238.210938 60.28125 L 238.160156 60.351562 L 238.105469 60.414062 L 238.046875 60.476562 L 237.984375 60.539062 L 237.917969 60.59375 L 237.851562 60.652344 L 237.78125 60.703125 L 237.703125 60.753906 L 237.625 60.800781 L 237.542969 60.847656 L 237.457031 60.890625 L 237.367188 60.929688 L 237.277344 60.964844 L 237.179688 61 L 236.976562 61.0625 L 236.871094 61.085938 L 236.757812 61.109375 L 236.644531 61.125 L 236.527344 61.140625 L 236.40625 61.152344 L 236.28125 61.160156 L 236.152344 61.167969 L 235.890625 61.167969 L 235.761719 61.160156 L 235.636719 61.152344 L 235.515625 61.140625 L 235.28125 61.109375 L 235.171875 61.085938 L 235.066406 61.0625 L 234.960938 61.03125 L 234.863281 61 L 234.765625 60.964844 L 234.675781 60.929688 L 234.585938 60.890625 L 234.5 60.847656 L 234.417969 60.804688 L 234.339844 60.757812 L 234.261719 60.707031 L 234.1875 60.65625 L 234.121094 60.601562 L 234.054688 60.542969 L 233.992188 60.484375 L 233.933594 60.421875 L 233.824219 60.289062 L 233.730469 60.148438 L 233.6875 60.074219 L 233.648438 60 L 233.578125 59.84375 L 233.550781 59.757812 L 233.523438 59.675781 L 233.484375 59.503906 L 233.464844 59.414062 L 233.441406 59.234375 L 233.433594 59.140625 L 233.429688 59.046875 L 233.429688 58.871094 L 233.433594 58.789062 L 233.4375 58.710938 L 233.472656 58.488281 L 233.488281 58.417969 L 233.507812 58.347656 L 233.527344 58.28125 L 233.550781 58.214844 L 233.605469 58.089844 L 233.636719 58.027344 L 233.667969 57.96875 L 233.773438 57.804688 L 233.8125 57.753906 L 233.890625 57.660156 L 233.933594 57.613281 L 233.980469 57.566406 L 234.027344 57.527344 L 234.074219 57.484375 L 234.121094 57.445312 L 234.167969 57.410156 L 234.269531 57.339844 L 234.324219 57.3125 L 234.375 57.28125 L 234.433594 57.253906 L 234.488281 57.226562 L 234.597656 57.179688 L 234.65625 57.160156 L 234.710938 57.140625 L 234.828125 57.109375 L 234.886719 57.097656 L 234.941406 57.085938 L 234.941406 57.066406 L 234.878906 57.050781 L 234.816406 57.03125 L 234.699219 56.992188 L 234.640625 56.96875 L 234.476562 56.886719 L 234.421875 56.855469 L 234.371094 56.824219 L 234.324219 56.789062 L 234.273438 56.753906 L 234.230469 56.71875 L 234.183594 56.679688 L 234.140625 56.640625 L 234.101562 56.601562 L 234.023438 56.515625 L 233.984375 56.46875 L 233.949219 56.425781 L 233.917969 56.375 L 233.886719 56.328125 L 233.859375 56.277344 L 233.828125 56.226562 L 233.804688 56.175781 L 233.777344 56.121094 L 233.753906 56.070312 L 233.730469 56.015625 L 233.710938 55.957031 L 233.691406 55.902344 L 233.660156 55.785156 L 233.636719 55.667969 L 233.628906 55.609375 L 233.613281 55.484375 L 233.609375 55.425781 L 233.605469 55.359375 L 233.605469 55.296875 L 233.613281 55.140625 L 233.621094 55.0625 L 233.628906 54.988281 L 233.644531 54.910156 L 233.660156 54.835938 L 233.679688 54.761719 L 233.726562 54.621094 L 233.757812 54.546875 L 233.789062 54.476562 L 233.824219 54.410156 L 233.863281 54.34375 L 233.90625 54.277344 L 233.949219 54.214844 L 233.996094 54.15625 L 234.046875 54.09375 L 234.15625 53.984375 L 234.214844 53.929688 L 234.277344 53.875 L 234.339844 53.824219 L 234.480469 53.730469 L 234.554688 53.6875 L 234.628906 53.648438 L 234.710938 53.609375 L 234.875 53.539062 L 234.964844 53.507812 L 235.054688 53.480469 L 235.148438 53.453125 L 235.246094 53.429688 L 235.34375 53.410156 L 235.445312 53.390625 L 235.550781 53.378906 L 235.660156 53.367188 L 235.769531 53.359375 L 235.882812 53.355469 L 236 53.351562 L 236.242188 53.359375 L 236.355469 53.367188 L 236.46875 53.378906 L 236.578125 53.390625 L 236.683594 53.410156 L 236.785156 53.429688 L 236.882812 53.453125 L 236.980469 53.480469 L 237.070312 53.507812 L 237.164062 53.539062 L 237.25 53.574219 L 237.414062 53.652344 L 237.488281 53.691406 L 237.5625 53.738281 L 237.632812 53.78125 L 237.703125 53.832031 L 237.828125 53.933594 L 237.886719 53.988281 L 237.941406 54.042969 L 238.042969 54.160156 L 238.089844 54.222656 L 238.132812 54.285156 L 238.171875 54.347656 L 238.210938 54.414062 L 238.273438 54.554688 L 238.300781 54.625 L 238.328125 54.699219 L 238.347656 54.769531 L 238.367188 54.84375 L 238.382812 54.921875 L 238.394531 54.996094 L 238.40625 55.074219 L 238.414062 55.152344 L 238.417969 55.230469 L 238.417969 55.433594 L 238.410156 55.492188 L 238.40625 55.554688 L 238.398438 55.613281 L 238.386719 55.675781 L 238.375 55.734375 L 238.34375 55.851562 L 238.328125 55.90625 L 238.308594 55.964844 L 238.269531 56.074219 L 238.246094 56.128906 L 238.21875 56.179688 L 238.195312 56.234375 L 238.164062 56.285156 L 238.136719 56.332031 L 238.101562 56.382812 L 238.070312 56.429688 L 238.035156 56.476562 L 238 56.519531 L 237.921875 56.605469 L 237.792969 56.722656 L 237.699219 56.792969 L 237.648438 56.828125 L 237.546875 56.890625 L 237.492188 56.917969 L 237.4375 56.941406 L 237.320312 56.988281 L 237.261719 57.007812 L 237.199219 57.027344 L 237.136719 57.042969 L 237.070312 57.054688 L 237.070312 57.078125 L 237.203125 57.101562 L 237.328125 57.132812 L 237.390625 57.152344 L 237.449219 57.175781 L 237.507812 57.195312 L 237.625 57.25 L 237.679688 57.277344 L 237.738281 57.304688 L 237.789062 57.335938 L 237.84375 57.367188 L 237.894531 57.402344 L 237.941406 57.441406 L 237.992188 57.480469 L 238.035156 57.519531 L 238.082031 57.5625 L 238.125 57.605469 L 238.167969 57.652344 L 238.207031 57.699219 L 238.246094 57.75 L 238.28125 57.800781 L 238.351562 57.910156 L 238.382812 57.964844 L 238.4375 58.082031 L 238.464844 58.144531 L 238.488281 58.207031 L 238.511719 58.273438 L 238.53125 58.339844 L 238.550781 58.410156 L 238.566406 58.480469 L 238.589844 58.628906 L 238.597656 58.703125 L 238.605469 58.78125 L 238.605469 58.859375 Z M 237.410156 55.363281 L 237.410156 55.25 L 237.40625 55.195312 L 237.398438 55.140625 L 237.394531 55.089844 L 237.382812 55.039062 L 237.375 54.988281 L 237.351562 54.886719 L 237.304688 54.746094 L 237.265625 54.660156 L 237.21875 54.582031 L 237.191406 54.542969 L 237.160156 54.503906 L 237.132812 54.46875 L 237.066406 54.402344 L 236.949219 54.308594 L 236.90625 54.285156 L 236.863281 54.257812 L 236.816406 54.234375 L 236.765625 54.210938 L 236.664062 54.171875 L 236.605469 54.152344 L 236.550781 54.136719 L 236.488281 54.121094 L 236.363281 54.097656 L 236.222656 54.082031 L 236.152344 54.078125 L 236.078125 54.074219 L 235.925781 54.074219 L 235.851562 54.078125 L 235.78125 54.082031 L 235.710938 54.089844 L 235.644531 54.097656 L 235.582031 54.109375 L 235.523438 54.121094 L 235.40625 54.152344 L 235.351562 54.171875 L 235.25 54.210938 L 235.15625 54.257812 L 235.109375 54.285156 L 235.070312 54.308594 L 235.027344 54.339844 L 234.988281 54.371094 L 234.953125 54.402344 L 234.914062 54.433594 L 234.851562 54.503906 L 234.796875 54.582031 L 234.75 54.660156 L 234.726562 54.703125 L 234.707031 54.746094 L 234.6875 54.792969 L 234.671875 54.839844 L 234.660156 54.886719 L 234.644531 54.9375 L 234.636719 54.988281 L 234.625 55.039062 L 234.609375 55.140625 L 234.597656 55.304688 L 234.597656 55.40625 L 234.601562 55.453125 L 234.601562 55.5 L 234.605469 55.546875 L 234.613281 55.589844 L 234.621094 55.636719 L 234.625 55.683594 L 234.636719 55.730469 L 234.644531 55.777344 L 234.65625 55.828125 L 234.671875 55.875 L 234.683594 55.917969 L 234.703125 55.964844 L 234.71875 56.007812 L 234.742188 56.050781 L 234.761719 56.09375 L 234.789062 56.136719 L 234.8125 56.179688 L 234.84375 56.21875 L 234.871094 56.257812 L 234.90625 56.296875 L 234.976562 56.367188 L 235.015625 56.402344 L 235.101562 56.464844 L 235.148438 56.496094 L 235.25 56.550781 L 235.359375 56.597656 L 235.421875 56.621094 L 235.484375 56.640625 L 235.550781 56.65625 L 235.617188 56.667969 L 235.691406 56.679688 L 235.765625 56.6875 L 235.84375 56.695312 L 235.925781 56.699219 L 236.101562 56.699219 L 236.1875 56.695312 L 236.269531 56.6875 L 236.347656 56.679688 L 236.421875 56.667969 L 236.492188 56.65625 L 236.5625 56.640625 L 236.625 56.621094 L 236.6875 56.597656 L 236.796875 56.550781 L 236.851562 56.523438 L 236.898438 56.496094 L 236.945312 56.464844 L 237.03125 56.402344 L 237.070312 56.367188 L 237.105469 56.332031 L 237.136719 56.296875 L 237.199219 56.21875 L 237.226562 56.179688 L 237.273438 56.09375 L 237.3125 56.007812 L 237.328125 55.964844 L 237.339844 55.917969 L 237.351562 55.875 L 237.363281 55.828125 L 237.371094 55.777344 L 237.394531 55.636719 L 237.398438 55.589844 L 237.402344 55.546875 L 237.410156 55.453125 Z M 237.601562 58.851562 L 237.601562 58.796875 L 237.589844 58.632812 L 237.582031 58.582031 L 237.574219 58.527344 L 237.550781 58.425781 L 237.539062 58.371094 L 237.507812 58.269531 L 237.492188 58.222656 L 237.46875 58.171875 L 237.449219 58.125 L 237.421875 58.078125 L 237.367188 57.992188 L 237.335938 57.949219 L 237.265625 57.871094 L 237.1875 57.792969 L 237.144531 57.757812 L 237.097656 57.722656 L 237.050781 57.691406 L 237 57.660156 L 236.945312 57.628906 L 236.890625 57.601562 L 236.832031 57.574219 L 236.707031 57.527344 L 236.640625 57.507812 L 236.570312 57.488281 L 236.5 57.472656 L 236.425781 57.457031 L 236.34375 57.445312 L 236.261719 57.4375 L 236.179688 57.433594 L 236 57.425781 L 235.914062 57.429688 L 235.835938 57.433594 L 235.753906 57.4375 L 235.679688 57.445312 L 235.605469 57.457031 L 235.53125 57.472656 L 235.464844 57.488281 L 235.332031 57.527344 L 235.214844 57.574219 L 235.15625 57.601562 L 235.101562 57.628906 L 235.050781 57.660156 L 235.003906 57.691406 L 234.953125 57.722656 L 234.867188 57.792969 L 234.824219 57.832031 L 234.785156 57.871094 L 234.75 57.910156 L 234.71875 57.953125 L 234.683594 57.996094 L 234.65625 58.039062 L 234.601562 58.132812 L 234.578125 58.179688 L 234.554688 58.230469 L 234.515625 58.332031 L 234.5 58.386719 L 234.484375 58.4375 L 234.472656 58.488281 L 234.460938 58.542969 L 234.4375 58.707031 L 234.429688 58.816406 L 234.429688 58.941406 L 234.433594 59.007812 L 234.4375 59.078125 L 234.445312 59.144531 L 234.460938 59.269531 L 234.484375 59.394531 L 234.515625 59.511719 L 234.535156 59.570312 L 234.554688 59.625 L 234.578125 59.679688 L 234.601562 59.730469 L 234.628906 59.78125 L 234.65625 59.828125 L 234.71875 59.921875 L 234.753906 59.964844 L 234.832031 60.050781 L 234.871094 60.085938 L 234.914062 60.125 L 234.960938 60.160156 L 235.0625 60.222656 L 235.113281 60.25 L 235.167969 60.277344 L 235.226562 60.304688 L 235.289062 60.328125 L 235.414062 60.367188 L 235.484375 60.386719 L 235.554688 60.398438 L 235.628906 60.414062 L 235.703125 60.421875 L 235.78125 60.429688 L 235.863281 60.4375 L 235.945312 60.4375 L 236.03125 60.441406 L 236.117188 60.4375 L 236.203125 60.4375 L 236.285156 60.429688 L 236.363281 60.421875 L 236.4375 60.414062 L 236.511719 60.398438 L 236.582031 60.386719 L 236.714844 60.347656 L 236.777344 60.328125 L 236.835938 60.304688 L 237 60.222656 L 237.09375 60.160156 L 237.140625 60.125 L 237.183594 60.085938 L 237.222656 60.050781 L 237.261719 60.007812 L 237.296875 59.964844 L 237.328125 59.921875 L 237.390625 59.828125 L 237.417969 59.777344 L 237.464844 59.675781 L 237.503906 59.566406 L 237.535156 59.449219 L 237.546875 59.386719 L 237.5625 59.324219 L 237.570312 59.261719 L 237.582031 59.195312 L 237.585938 59.128906 L 237.59375 59.0625 L 237.597656 58.992188 L 237.597656 58.921875 Z M 237.601562 58.851562 "/>
<path style=" stroke:none;fill-rule:nonzero;fill:rgb(0%,0%,0%);fill-opacity:1;" d="M 280.082031 28.652344 L 280.039062 28.664062 L 279.992188 28.675781 L 279.949219 28.6875 L 279.902344 28.695312 L 279.859375 28.707031 L 279.765625 28.722656 L 279.722656 28.730469 L 279.628906 28.746094 L 279.582031 28.75 L 279.535156 28.757812 L 279.488281 28.761719 L 279.4375 28.769531 L 279.382812 28.773438 L 279.332031 28.777344 L 279.277344 28.777344 L 279.21875 28.78125 L 279.101562 28.78125 L 278.878906 28.769531 L 278.683594 28.730469 L 278.507812 28.664062 L 278.355469 28.570312 L 278.226562 28.453125 L 278.125 28.304688 L 278.042969 28.136719 L 277.984375 27.9375 L 277.949219 27.710938 L 277.9375 27.460938 L 277.9375 23.570312 L 277.261719 23.570312 L 277.261719 22.863281 L 277.972656 22.863281 L 278.261719 21.558594 L 278.90625 21.558594 L 278.90625 22.863281 L 279.984375 22.863281 L 279.984375 23.570312 L 278.90625 23.570312 L 278.90625 27.25 L 278.910156 27.332031 L 278.914062 27.410156 L 278.917969 27.480469 L 278.929688 27.546875 L 278.941406 27.609375 L 278.957031 27.667969 L 278.972656 27.71875 L 278.992188 27.765625 L 279.015625 27.808594 L 279.042969 27.84375 L 279.070312 27.875 L 279.105469 27.902344 L 279.144531 27.929688 L 279.230469 27.96875 L 279.28125 27.984375 L 279.335938 27.996094 L 279.394531 28.003906 L 279.457031 28.007812 L 279.523438 28.011719 L 279.578125 28.011719 L 279.605469 28.007812 L 279.632812 28.007812 L 279.660156 28.003906 L 279.6875 28.003906 L 279.710938 28 L 279.792969 27.988281 L 279.816406 27.984375 L 279.847656 27.980469 L 279.875 27.976562 L 279.902344 27.96875 L 279.929688 27.964844 L 279.960938 27.960938 L 279.992188 27.953125 L 280.019531 27.949219 L 280.050781 27.941406 L 280.082031 27.9375 Z M 280.082031 28.652344 "/>
<path style=" stroke:none;fill-rule:nonzero;fill:rgb(0%,0%,0%);fill-opacity:1;" d="M 285.78125 24.746094 L 285.777344 24.945312 L 285.773438 25.140625 L 285.761719 25.332031 L 285.75 25.515625 L 285.730469 25.695312 L 285.710938 25.871094 L 285.683594 26.042969 L 285.65625 26.207031 L 285.621094 26.367188 L 285.585938 26.523438 L 285.546875 26.671875 L 285.503906 26.816406 L 285.457031 26.957031 L 285.410156 27.089844 L 285.355469 27.21875 L 285.300781 27.34375 L 285.238281 27.464844 L 285.175781 27.578125 L 285.109375 27.6875 L 285.042969 27.789062 L 284.96875 27.890625 L 284.894531 27.984375 L 284.730469 28.15625 L 284.648438 28.234375 L 284.558594 28.308594 L 284.464844 28.375 L 284.371094 28.4375 L 284.273438 28.496094 L 284.171875 28.550781 L 284.070312 28.597656 L 283.964844 28.640625 L 283.859375 28.679688 L 283.632812 28.742188 L 283.519531 28.761719 L 283.402344 28.78125 L 283.28125 28.792969 L 283.15625 28.800781 L 283.03125 28.804688 L 282.945312 28.800781 L 282.859375 28.800781 L 282.777344 28.796875 L 282.695312 28.789062 L 282.617188 28.78125 L 282.460938 28.757812 L 282.386719 28.746094 L 282.316406 28.730469 L 282.242188 28.710938 L 282.175781 28.695312 L 282.105469 28.671875 L 282.039062 28.652344 L 281.976562 28.625 L 281.914062 28.601562 L 281.851562 28.570312 L 281.789062 28.542969 L 281.730469 28.507812 L 281.675781 28.472656 L 281.617188 28.4375 L 281.5625 28.398438 L 281.410156 28.269531 L 281.316406 28.167969 L 281.273438 28.117188 L 281.230469 28.0625 L 281.1875 28.003906 L 281.148438 27.945312 L 281.113281 27.886719 L 281.074219 27.820312 L 281.039062 27.753906 L 281.007812 27.683594 L 280.972656 27.613281 L 280.945312 27.539062 L 280.914062 27.464844 L 280.886719 27.382812 L 280.863281 27.304688 L 280.835938 27.21875 L 281.765625 27.074219 L 281.796875 27.167969 L 281.832031 27.257812 L 281.871094 27.34375 L 281.910156 27.425781 L 281.957031 27.5 L 282.003906 27.570312 L 282.058594 27.632812 L 282.113281 27.691406 L 282.171875 27.746094 L 282.234375 27.796875 L 282.300781 27.839844 L 282.367188 27.878906 L 282.441406 27.910156 L 282.519531 27.941406 L 282.597656 27.964844 L 282.679688 27.984375 L 282.769531 28 L 282.859375 28.011719 L 282.949219 28.019531 L 283.046875 28.023438 L 283.203125 28.015625 L 283.351562 27.992188 L 283.421875 27.976562 L 283.492188 27.957031 L 283.5625 27.933594 L 283.632812 27.90625 L 283.699219 27.875 L 283.765625 27.839844 L 283.828125 27.800781 L 283.890625 27.757812 L 283.953125 27.710938 L 284.011719 27.660156 L 284.066406 27.605469 L 284.121094 27.546875 L 284.175781 27.484375 L 284.222656 27.417969 L 284.273438 27.351562 L 284.320312 27.277344 L 284.363281 27.203125 L 284.449219 27.039062 L 284.488281 26.949219 L 284.523438 26.859375 L 284.558594 26.765625 L 284.59375 26.664062 L 284.625 26.5625 L 284.652344 26.457031 L 284.679688 26.34375 L 284.703125 26.230469 L 284.726562 26.113281 L 284.746094 25.992188 L 284.765625 25.867188 L 284.78125 25.738281 L 284.804688 25.464844 L 284.8125 25.324219 L 284.816406 25.179688 L 284.820312 25.03125 L 284.796875 25.082031 L 284.773438 25.128906 L 284.746094 25.175781 L 284.714844 25.222656 L 284.6875 25.269531 L 284.652344 25.316406 L 284.621094 25.359375 L 284.585938 25.402344 L 284.546875 25.441406 L 284.507812 25.484375 L 284.46875 25.523438 L 284.429688 25.558594 L 284.386719 25.597656 L 284.300781 25.667969 L 284.253906 25.699219 L 284.207031 25.734375 L 284.160156 25.765625 L 284.109375 25.792969 L 284.058594 25.824219 L 284.011719 25.847656 L 283.960938 25.875 L 283.90625 25.898438 L 283.855469 25.921875 L 283.800781 25.941406 L 283.746094 25.964844 L 283.691406 25.980469 L 283.636719 26 L 283.519531 26.03125 L 283.464844 26.046875 L 283.347656 26.070312 L 283.230469 26.085938 L 283.171875 26.089844 L 283.109375 26.097656 L 283.050781 26.101562 L 282.832031 26.101562 L 282.730469 26.09375 L 282.632812 26.085938 L 282.535156 26.074219 L 282.441406 26.058594 L 282.347656 26.035156 L 282.257812 26.011719 L 282.167969 25.984375 L 282.082031 25.953125 L 281.996094 25.917969 L 281.914062 25.878906 L 281.835938 25.839844 L 281.757812 25.792969 L 281.683594 25.746094 L 281.613281 25.695312 L 281.542969 25.640625 L 281.476562 25.585938 L 281.410156 25.523438 L 281.347656 25.460938 L 281.289062 25.398438 L 281.179688 25.257812 L 281.125 25.183594 L 281.078125 25.109375 L 281.03125 25.027344 L 280.988281 24.949219 L 280.945312 24.863281 L 280.90625 24.777344 L 280.871094 24.6875 L 280.835938 24.59375 L 280.78125 24.398438 L 280.757812 24.300781 L 280.738281 24.199219 L 280.71875 24.09375 L 280.707031 23.988281 L 280.695312 23.878906 L 280.6875 23.769531 L 280.679688 23.542969 L 280.683594 23.425781 L 280.6875 23.3125 L 280.695312 23.199219 L 280.707031 23.089844 L 280.722656 22.984375 L 280.742188 22.878906 L 280.761719 22.777344 L 280.789062 22.675781 L 280.816406 22.578125 L 280.847656 22.480469 L 280.882812 22.386719 L 280.921875 22.296875 L 280.964844 22.210938 L 281.011719 22.125 L 281.058594 22.042969 L 281.109375 21.964844 L 281.164062 21.886719 L 281.21875 21.816406 L 281.34375 21.675781 L 281.410156 21.613281 L 281.480469 21.550781 L 281.550781 21.492188 L 281.625 21.433594 L 281.703125 21.382812 L 281.785156 21.332031 L 281.867188 21.285156 L 281.953125 21.242188 L 282.042969 21.203125 L 282.136719 21.164062 L 282.230469 21.132812 L 282.332031 21.101562 L 282.433594 21.074219 L 282.535156 21.050781 L 282.640625 21.03125 L 282.75 21.015625 L 282.859375 21.003906 L 282.972656 20.996094 L 283.089844 20.988281 L 283.207031 20.988281 L 283.457031 20.996094 L 283.691406 21.023438 L 283.914062 21.070312 L 284.125 21.136719 L 284.320312 21.222656 L 284.507812 21.324219 L 284.679688 21.445312 L 284.84375 21.585938 L 284.992188 21.746094 L 285.128906 21.925781 L 285.25 22.121094 L 285.363281 22.339844 L 285.460938 22.574219 L 285.546875 22.828125 L 285.617188 23.097656 L 285.675781 23.390625 L 285.722656 23.699219 L 285.753906 24.03125 L 285.773438 24.378906 Z M 284.722656 23.808594 L 284.722656 23.722656 L 284.714844 23.558594 L 284.707031 23.476562 L 284.699219 23.398438 L 284.6875 23.320312 L 284.65625 23.164062 L 284.640625 23.089844 L 284.601562 22.941406 L 284.554688 22.800781 L 284.527344 22.730469 L 284.5 22.667969 L 284.46875 22.601562 L 284.433594 22.542969 L 284.398438 22.480469 L 284.363281 22.421875 L 284.285156 22.3125 L 284.242188 22.261719 L 284.199219 22.214844 L 284.105469 22.121094 L 284.058594 22.082031 L 284.003906 22.039062 L 283.953125 22.003906 L 283.898438 21.96875 L 283.78125 21.90625 L 283.722656 21.878906 L 283.597656 21.832031 L 283.464844 21.800781 L 283.394531 21.789062 L 283.324219 21.78125 L 283.175781 21.773438 L 283.105469 21.777344 L 282.972656 21.785156 L 282.90625 21.792969 L 282.84375 21.804688 L 282.71875 21.835938 L 282.601562 21.875 L 282.546875 21.898438 L 282.4375 21.953125 L 282.335938 22.015625 L 282.285156 22.050781 L 282.242188 22.085938 L 282.195312 22.125 L 282.152344 22.164062 L 282.109375 22.207031 L 282.070312 22.253906 L 282.035156 22.300781 L 281.996094 22.347656 L 281.960938 22.398438 L 281.898438 22.507812 L 281.871094 22.5625 L 281.84375 22.621094 L 281.816406 22.683594 L 281.769531 22.808594 L 281.75 22.875 L 281.734375 22.945312 L 281.71875 23.011719 L 281.703125 23.085938 L 281.691406 23.15625 L 281.683594 23.230469 L 281.675781 23.308594 L 281.671875 23.382812 L 281.667969 23.460938 L 281.667969 23.617188 L 281.671875 23.695312 L 281.675781 23.765625 L 281.683594 23.839844 L 281.699219 23.980469 L 281.710938 24.050781 L 281.726562 24.121094 L 281.757812 24.253906 L 281.777344 24.320312 L 281.824219 24.445312 L 281.878906 24.5625 L 281.90625 24.617188 L 281.9375 24.671875 L 281.972656 24.726562 L 282.007812 24.777344 L 282.042969 24.824219 L 282.082031 24.871094 L 282.125 24.917969 L 282.164062 24.960938 L 282.257812 25.039062 L 282.351562 25.109375 L 282.40625 25.144531 L 282.457031 25.171875 L 282.511719 25.203125 L 282.628906 25.25 L 282.691406 25.273438 L 282.816406 25.304688 L 282.882812 25.316406 L 282.949219 25.324219 L 283.019531 25.332031 L 283.09375 25.335938 L 283.21875 25.335938 L 283.382812 25.324219 L 283.4375 25.316406 L 283.546875 25.292969 L 283.710938 25.246094 L 283.820312 25.207031 L 283.871094 25.183594 L 283.925781 25.15625 L 283.976562 25.128906 L 284.023438 25.101562 L 284.074219 25.070312 L 284.121094 25.039062 L 284.167969 25.003906 L 284.296875 24.886719 L 284.339844 24.84375 L 284.378906 24.800781 L 284.417969 24.753906 L 284.453125 24.703125 L 284.484375 24.652344 L 284.519531 24.601562 L 284.550781 24.546875 L 284.578125 24.492188 L 284.605469 24.433594 L 284.652344 24.308594 L 284.671875 24.242188 L 284.6875 24.175781 L 284.710938 24.035156 L 284.71875 23.960938 L 284.722656 23.882812 Z M 284.722656 23.808594 "/>
<path style=" stroke:none;fill-rule:nonzero;fill:rgb(27.45098%,50.980392%,70.588235%);fill-opacity:0.501961;" d="M 41.042969 332.363281 L 284.421875 332.363281 L 284.421875 235.269531 L 41.042969 235.269531 Z M 41.042969 332.363281 "/>
</g>
</svg>
