<?xml version="1.0" encoding="UTF-8"?>
<svg xmlns="http://www.w3.org/2000/svg" xmlns:xlink="http://www.w3.org/1999/xlink" width="432pt" height="216pt" viewBox="0 0 432 216" version="1.1">
<defs>
<clipPath id="clip1">
  <path d="M 0 0 L 144 0 L 144 216 L 0 216 Z M 0 0 "/>
</clipPath>
<clipPath id="clip2">
  <path d="M 8.21875 5.480469 L 138.519531 5.480469 L 138.519531 207.78125 L 8.21875 207.78125 Z M 8.21875 5.480469 "/>
</clipPath>
<clipPath id="clip3">
  <path d="M 144 0 L 288 0 L 288 216 L 144 216 Z M 144 0 "/>
</clipPath>
<clipPath id="clip4">
  <path d="M 152.21875 5.480469 L 282.519531 5.480469 L 282.519531 207.78125 L 152.21875 207.78125 Z M 152.21875 5.480469 "/>
</clipPath>
<clipPath id="clip5">
  <path d="M 288 0 L 432 0 L 432 216 L 288 216 Z M 288 0 "/>
</clipPath>
<clipPath id="clip6">
  <path d="M 296.21875 5.480469 L 426.519531 5.480469 L 426.519531 207.78125 L 296.21875 207.78125 Z M 296.21875 5.480469 "/>
</clipPath>
</defs>
<g id="surface2069">
<rect x="0" y="0" width="432" height="216" style="fill:rgb(100%,100%,100%);fill-opacity:1;stroke:none;"/>
<path style=" stroke:none;fill-rule:nonzero;fill:rgb(100%,100%,100%);fill-opacity:1;" d="M 0 216 L 144 216 L 144 0 L 0 0 Z M 0 216 "/>
<g clip-path="url(#clip1)" clip-rule="nonzero">
<path style="fill:none;stroke-width:1.066978;stroke-linecap:round;stroke-linejoin:round;stroke:rgb(100%,100%,100%);stroke-opacity:1;stroke-miterlimit:10;" d="M 0 216 L 144 216 L 144 0 L 0 0 Z M 0 216 "/>
</g>
<g clip-path="url(#clip2)" clip-rule="nonzero">
<path style="fill-rule:nonzero;fill:rgb(100%,100%,100%);fill-opacity:1;stroke-width:1.066978;stroke-linecap:round;stroke-linejoin:round;stroke:rgb(100%,100%,100%);stroke-opacity:1;stroke-miterlimit:10;" d="M 8.21875 207.78125 L 138.519531 207.78125 L 138.519531 5.480469 L 8.21875 5.480469 Z M 8.21875 207.78125 "/>
</g>
<path style="fill:none;stroke-width:1.066978;stroke-linecap:round;stroke-linejoin:round;stroke:rgb(0%,0%,0%);stroke-opacity:1;stroke-miterlimit:10;" d="M 14.140625 186.484375 L 35.195312 186.484375 "/>
<path style="fill:none;stroke-width:1.066978;stroke-linecap:round;stroke-linejoin:round;stroke:rgb(0%,0%,0%);stroke-opacity:1;stroke-miterlimit:10;" d="M 76.683594 115.503906 L 79.757812 115.503906 "/>
<path style="fill:none;stroke-width:1.066978;stroke-linecap:round;stroke-linejoin:round;stroke:rgb(0%,0%,0%);stroke-opacity:1;stroke-miterlimit:10;" d="M 91.371094 80.011719 L 132.597656 80.011719 "/>
<path style="fill:none;stroke-width:1.066978;stroke-linecap:round;stroke-linejoin:round;stroke:rgb(0%,0%,0%);stroke-opacity:1;stroke-miterlimit:10;" d="M 91.371094 44.519531 L 97.472656 44.519531 "/>
<path style="fill:none;stroke-width:1.066978;stroke-linecap:round;stroke-linejoin:round;stroke:rgb(0%,0%,0%);stroke-opacity:1;stroke-miterlimit:10;" d="M 59.613281 150.996094 L 92.234375 150.996094 "/>
<path style="fill:none;stroke-width:1.066978;stroke-linecap:round;stroke-linejoin:round;stroke:rgb(0%,0%,0%);stroke-opacity:1;stroke-miterlimit:10;" d="M 14.140625 153.210938 L 14.140625 153.210938 "/>
<path style="fill:none;stroke-width:1.066978;stroke-linecap:round;stroke-linejoin:round;stroke:rgb(0%,0%,0%);stroke-opacity:1;stroke-miterlimit:10;" d="M 14.140625 119.9375 L 59.613281 119.9375 "/>
<path style="fill:none;stroke-width:1.066978;stroke-linecap:round;stroke-linejoin:round;stroke:rgb(0%,0%,0%);stroke-opacity:1;stroke-miterlimit:10;" d="M 59.613281 88.882812 L 76.683594 88.882812 "/>
<path style="fill:none;stroke-width:1.066978;stroke-linecap:round;stroke-linejoin:round;stroke:rgb(0%,0%,0%);stroke-opacity:1;stroke-miterlimit:10;" d="M 76.683594 62.265625 L 91.371094 62.265625 "/>
<path style="fill:none;stroke-width:1.066978;stroke-linecap:round;stroke-linejoin:round;stroke:rgb(0%,0%,0%);stroke-opacity:1;stroke-miterlimit:10;" d="M 14.140625 153.210938 L 14.140625 186.484375 "/>
<path style="fill:none;stroke-width:1.066978;stroke-linecap:round;stroke-linejoin:round;stroke:rgb(0%,0%,0%);stroke-opacity:1;stroke-miterlimit:10;" d="M 76.683594 88.882812 L 76.683594 115.503906 "/>
<path style="fill:none;stroke-width:1.066978;stroke-linecap:round;stroke-linejoin:round;stroke:rgb(0%,0%,0%);stroke-opacity:1;stroke-miterlimit:10;" d="M 91.371094 62.265625 L 91.371094 80.011719 "/>
<path style="fill:none;stroke-width:1.066978;stroke-linecap:round;stroke-linejoin:round;stroke:rgb(0%,0%,0%);stroke-opacity:1;stroke-miterlimit:10;" d="M 91.371094 62.265625 L 91.371094 44.519531 "/>
<path style="fill:none;stroke-width:1.066978;stroke-linecap:round;stroke-linejoin:round;stroke:rgb(0%,0%,0%);stroke-opacity:1;stroke-miterlimit:10;" d="M 59.613281 119.9375 L 59.613281 150.996094 "/>
<path style="fill:none;stroke-width:1.066978;stroke-linecap:round;stroke-linejoin:round;stroke:rgb(0%,0%,0%);stroke-opacity:1;stroke-miterlimit:10;" d="M 14.140625 153.210938 L 14.140625 153.210938 "/>
<path style="fill:none;stroke-width:1.066978;stroke-linecap:round;stroke-linejoin:round;stroke:rgb(0%,0%,0%);stroke-opacity:1;stroke-miterlimit:10;" d="M 14.140625 153.210938 L 14.140625 119.9375 "/>
<path style="fill:none;stroke-width:1.066978;stroke-linecap:round;stroke-linejoin:round;stroke:rgb(0%,0%,0%);stroke-opacity:1;stroke-miterlimit:10;" d="M 59.613281 119.9375 L 59.613281 88.882812 "/>
<path style="fill:none;stroke-width:1.066978;stroke-linecap:round;stroke-linejoin:round;stroke:rgb(0%,0%,0%);stroke-opacity:1;stroke-miterlimit:10;" d="M 76.683594 88.882812 L 76.683594 62.265625 "/>
<path style=" stroke:none;fill-rule:nonzero;fill:rgb(27.45098%,50.980392%,70.588235%);fill-opacity:1;" d="M 36.878906 168.738281 L 132.597656 168.738281 L 132.597656 26.773438 L 36.878906 26.773438 Z M 36.878906 168.738281 "/>
<path style=" stroke:none;fill-rule:nonzero;fill:rgb(0%,0%,0%);fill-opacity:1;" d="M 12.800781 14.449219 L 11.945312 11.988281 L 8.273438 11.988281 L 7.421875 14.449219 L 5.402344 14.449219 L 8.917969 4.816406 L 11.296875 4.816406 L 14.796875 14.449219 Z M 10.542969 7.699219 L 10.496094 7.558594 L 10.480469 7.507812 L 10.460938 7.460938 L 10.429688 7.367188 L 10.414062 7.316406 L 10.398438 7.269531 L 10.378906 7.222656 L 10.367188 7.171875 L 10.335938 7.078125 L 10.324219 7.03125 L 10.308594 6.988281 L 10.296875 6.945312 L 10.28125 6.902344 L 10.257812 6.816406 L 10.242188 6.777344 L 10.234375 6.738281 L 10.210938 6.660156 L 10.203125 6.625 L 10.191406 6.589844 L 10.183594 6.558594 L 10.171875 6.527344 L 10.164062 6.496094 L 10.148438 6.441406 L 10.140625 6.417969 L 10.136719 6.394531 L 10.128906 6.375 L 10.117188 6.328125 L 10.113281 6.316406 L 10.109375 6.308594 L 10.109375 6.304688 L 10.105469 6.300781 L 10.105469 6.304688 L 10.101562 6.3125 L 10.101562 6.320312 L 10.097656 6.332031 L 10.089844 6.363281 L 10.082031 6.382812 L 10.078125 6.402344 L 10.074219 6.425781 L 10.066406 6.449219 L 10.050781 6.503906 L 10.035156 6.566406 L 10.023438 6.597656 L 10.015625 6.628906 L 10.003906 6.664062 L 9.992188 6.703125 L 9.980469 6.738281 L 9.96875 6.777344 L 9.960938 6.816406 L 9.945312 6.859375 L 9.910156 6.988281 L 9.894531 7.03125 L 9.863281 7.125 L 9.851562 7.171875 L 9.832031 7.222656 L 9.820312 7.269531 L 9.804688 7.316406 L 9.789062 7.367188 L 9.742188 7.507812 L 9.726562 7.558594 L 9.707031 7.605469 L 9.675781 7.699219 L 8.726562 10.46875 L 11.496094 10.46875 Z M 10.542969 7.699219 "/>
<path style=" stroke:none;fill-rule:nonzero;fill:rgb(100%,100%,100%);fill-opacity:1;" d="M 144 216 L 288 216 L 288 0 L 144 0 Z M 144 216 "/>
<g clip-path="url(#clip3)" clip-rule="nonzero">
<path style="fill:none;stroke-width:1.066978;stroke-linecap:round;stroke-linejoin:round;stroke:rgb(100%,100%,100%);stroke-opacity:1;stroke-miterlimit:10;" d="M 144 216 L 288 216 L 288 0 L 144 0 Z M 144 216 "/>
</g>
<g clip-path="url(#clip4)" clip-rule="nonzero">
<path style="fill-rule:nonzero;fill:rgb(100%,100%,100%);fill-opacity:1;stroke-width:1.066978;stroke-linecap:round;stroke-linejoin:round;stroke:rgb(100%,100%,100%);stroke-opacity:1;stroke-miterlimit:10;" d="M 152.21875 207.78125 L 282.519531 207.78125 L 282.519531 5.480469 L 152.21875 5.480469 Z M 152.21875 207.78125 "/>
</g>
<path style=" stroke:none;fill-rule:nonzero;fill:rgb(27.45098%,50.980392%,70.588235%);fill-opacity:1;" d="M 180.878906 168.738281 L 276.597656 168.738281 L 276.597656 26.773438 L 180.878906 26.773438 Z M 180.878906 168.738281 "/>
<path style="fill:none;stroke-width:1.066978;stroke-linecap:round;stroke-linejoin:round;stroke:rgb(0%,0%,0%);stroke-opacity:1;stroke-miterlimit:10;" d="M 158.140625 153.210938 L 158.140625 186.484375 "/>
<path style="fill:none;stroke-width:1.066978;stroke-linecap:round;stroke-linejoin:round;stroke:rgb(0%,0%,0%);stroke-opacity:1;stroke-miterlimit:10;" d="M 220.683594 88.882812 L 220.683594 115.503906 "/>
<path style="fill:none;stroke-width:1.066978;stroke-linecap:round;stroke-linejoin:round;stroke:rgb(0%,0%,0%);stroke-opacity:1;stroke-miterlimit:10;" d="M 235.371094 62.265625 L 235.371094 80.011719 "/>
<path style="fill:none;stroke-width:1.066978;stroke-linecap:round;stroke-linejoin:round;stroke:rgb(0%,0%,0%);stroke-opacity:1;stroke-miterlimit:10;" d="M 235.371094 62.265625 L 235.371094 44.519531 "/>
<path style="fill:none;stroke-width:1.066978;stroke-linecap:round;stroke-linejoin:round;stroke:rgb(0%,0%,0%);stroke-opacity:1;stroke-miterlimit:10;" d="M 203.613281 119.9375 L 203.613281 150.996094 "/>
<path style="fill:none;stroke-width:1.066978;stroke-linecap:round;stroke-linejoin:round;stroke:rgb(0%,0%,0%);stroke-opacity:1;stroke-miterlimit:10;" d="M 158.140625 153.210938 L 158.140625 153.210938 "/>
<path style="fill:none;stroke-width:1.066978;stroke-linecap:round;stroke-linejoin:round;stroke:rgb(0%,0%,0%);stroke-opacity:1;stroke-miterlimit:10;" d="M 158.140625 153.210938 L 158.140625 119.9375 "/>
<path style="fill:none;stroke-width:1.066978;stroke-linecap:round;stroke-linejoin:round;stroke:rgb(0%,0%,0%);stroke-opacity:1;stroke-miterlimit:10;" d="M 203.613281 119.9375 L 203.613281 88.882812 "/>
<path style="fill:none;stroke-width:1.066978;stroke-linecap:round;stroke-linejoin:round;stroke:rgb(0%,0%,0%);stroke-opacity:1;stroke-miterlimit:10;" d="M 220.683594 88.882812 L 220.683594 62.265625 "/>
<path style="fill:none;stroke-width:1.066978;stroke-linecap:round;stroke-linejoin:round;stroke:rgb(0%,0%,0%);stroke-opacity:1;stroke-miterlimit:10;" d="M 158.140625 186.484375 L 179.195312 186.484375 "/>
<path style="fill:none;stroke-width:1.066978;stroke-linecap:round;stroke-linejoin:round;stroke:rgb(0%,0%,0%);stroke-opacity:1;stroke-miterlimit:10;" d="M 220.683594 115.503906 L 223.757812 115.503906 "/>
<path style="fill:none;stroke-width:1.066978;stroke-linecap:round;stroke-linejoin:round;stroke:rgb(0%,0%,0%);stroke-opacity:1;stroke-miterlimit:10;" d="M 235.371094 80.011719 L 276.597656 80.011719 "/>
<path style="fill:none;stroke-width:1.066978;stroke-linecap:round;stroke-linejoin:round;stroke:rgb(0%,0%,0%);stroke-opacity:1;stroke-miterlimit:10;" d="M 235.371094 44.519531 L 241.472656 44.519531 "/>
<path style="fill:none;stroke-width:1.066978;stroke-linecap:round;stroke-linejoin:round;stroke:rgb(0%,0%,0%);stroke-opacity:1;stroke-miterlimit:10;" d="M 203.613281 150.996094 L 236.234375 150.996094 "/>
<path style="fill:none;stroke-width:1.066978;stroke-linecap:round;stroke-linejoin:round;stroke:rgb(0%,0%,0%);stroke-opacity:1;stroke-miterlimit:10;" d="M 158.140625 153.210938 L 158.140625 153.210938 "/>
<path style="fill:none;stroke-width:1.066978;stroke-linecap:round;stroke-linejoin:round;stroke:rgb(0%,0%,0%);stroke-opacity:1;stroke-miterlimit:10;" d="M 158.140625 119.9375 L 203.613281 119.9375 "/>
<path style="fill:none;stroke-width:1.066978;stroke-linecap:round;stroke-linejoin:round;stroke:rgb(0%,0%,0%);stroke-opacity:1;stroke-miterlimit:10;" d="M 203.613281 88.882812 L 220.683594 88.882812 "/>
<path style="fill:none;stroke-width:1.066978;stroke-linecap:round;stroke-linejoin:round;stroke:rgb(0%,0%,0%);stroke-opacity:1;stroke-miterlimit:10;" d="M 220.683594 62.265625 L 235.371094 62.265625 "/>
<path style=" stroke:none;fill-rule:nonzero;fill:rgb(0%,0%,0%);fill-opacity:1;" d="M 158.53125 11.699219 L 158.527344 11.84375 L 158.519531 11.984375 L 158.503906 12.121094 L 158.484375 12.253906 L 158.457031 12.378906 L 158.425781 12.503906 L 158.386719 12.625 L 158.292969 12.851562 L 158.234375 12.957031 L 158.175781 13.058594 L 158.109375 13.15625 L 158.039062 13.253906 L 157.964844 13.34375 L 157.886719 13.429688 L 157.804688 13.515625 L 157.71875 13.59375 L 157.625 13.671875 L 157.53125 13.742188 L 157.429688 13.8125 L 157.328125 13.875 L 157.21875 13.9375 L 157.109375 13.992188 L 156.996094 14.046875 L 156.878906 14.097656 L 156.761719 14.144531 L 156.636719 14.1875 L 156.511719 14.226562 L 156.378906 14.265625 L 156.246094 14.296875 L 155.972656 14.351562 L 155.832031 14.375 L 155.691406 14.394531 L 155.550781 14.410156 L 155.40625 14.421875 L 155.257812 14.433594 L 155.109375 14.441406 L 154.8125 14.449219 L 149.992188 14.449219 L 149.992188 4.816406 L 154.570312 4.816406 L 154.734375 4.820312 L 154.894531 4.828125 L 155.054688 4.839844 L 155.207031 4.851562 L 155.503906 4.890625 L 155.785156 4.9375 L 155.917969 4.964844 L 156.050781 4.996094 L 156.179688 5.03125 L 156.300781 5.066406 L 156.421875 5.105469 L 156.535156 5.148438 L 156.644531 5.195312 L 156.753906 5.246094 L 156.855469 5.296875 L 156.953125 5.351562 L 157.046875 5.410156 L 157.136719 5.472656 L 157.300781 5.605469 L 157.375 5.675781 L 157.449219 5.75 L 157.515625 5.828125 L 157.578125 5.910156 L 157.636719 5.992188 L 157.6875 6.078125 L 157.738281 6.167969 L 157.824219 6.355469 L 157.859375 6.453125 L 157.890625 6.554688 L 157.917969 6.660156 L 157.9375 6.769531 L 157.953125 6.882812 L 157.964844 6.996094 L 157.972656 7.113281 L 157.976562 7.234375 L 157.972656 7.398438 L 157.957031 7.554688 L 157.933594 7.707031 L 157.902344 7.851562 L 157.863281 7.992188 L 157.8125 8.128906 L 157.75 8.261719 L 157.683594 8.386719 L 157.605469 8.507812 L 157.519531 8.625 L 157.421875 8.730469 L 157.320312 8.832031 L 157.203125 8.925781 L 157.082031 9.015625 L 156.949219 9.09375 L 156.804688 9.164062 L 156.652344 9.230469 L 156.488281 9.289062 L 156.320312 9.339844 L 156.136719 9.382812 L 156.367188 9.414062 L 156.582031 9.457031 L 156.789062 9.507812 L 156.984375 9.566406 L 157.167969 9.636719 L 157.339844 9.714844 L 157.5 9.800781 L 157.648438 9.898438 L 157.789062 10.003906 L 157.914062 10.121094 L 158.03125 10.242188 L 158.136719 10.375 L 158.226562 10.511719 L 158.308594 10.660156 L 158.375 10.8125 L 158.429688 10.972656 L 158.472656 11.144531 L 158.503906 11.320312 L 158.523438 11.507812 Z M 155.945312 7.507812 L 155.941406 7.382812 L 155.929688 7.265625 L 155.910156 7.152344 L 155.878906 7.050781 L 155.839844 6.953125 L 155.796875 6.867188 L 155.742188 6.785156 L 155.679688 6.710938 L 155.609375 6.644531 L 155.527344 6.585938 L 155.441406 6.535156 L 155.347656 6.488281 L 155.246094 6.445312 L 155.136719 6.410156 L 155.019531 6.382812 L 154.890625 6.355469 L 154.757812 6.335938 L 154.613281 6.324219 L 154.464844 6.316406 L 154.304688 6.3125 L 152.007812 6.3125 L 152.007812 8.699219 L 154.320312 8.699219 L 154.484375 8.695312 L 154.640625 8.6875 L 154.789062 8.671875 L 154.925781 8.652344 L 155.054688 8.625 L 155.175781 8.59375 L 155.285156 8.554688 L 155.382812 8.511719 L 155.476562 8.460938 L 155.554688 8.40625 L 155.628906 8.339844 L 155.695312 8.273438 L 155.753906 8.199219 L 155.804688 8.117188 L 155.847656 8.03125 L 155.882812 7.9375 L 155.910156 7.839844 L 155.929688 7.734375 L 155.941406 7.625 Z M 156.507812 11.542969 L 156.5 11.394531 L 156.492188 11.324219 L 156.46875 11.191406 L 156.453125 11.128906 L 156.433594 11.066406 L 156.410156 11.007812 L 156.355469 10.898438 L 156.324219 10.847656 L 156.292969 10.800781 L 156.253906 10.753906 L 156.21875 10.707031 L 156.175781 10.664062 L 156.089844 10.585938 L 156.039062 10.550781 L 155.992188 10.515625 L 155.9375 10.484375 L 155.886719 10.453125 L 155.832031 10.421875 L 155.773438 10.398438 L 155.714844 10.371094 L 155.65625 10.347656 L 155.59375 10.328125 L 155.527344 10.304688 L 155.394531 10.273438 L 155.324219 10.257812 L 155.183594 10.234375 L 155.109375 10.222656 L 154.960938 10.207031 L 154.882812 10.199219 L 154.726562 10.191406 L 154.644531 10.191406 L 154.566406 10.1875 L 152.007812 10.1875 L 152.007812 12.949219 L 154.796875 12.949219 L 154.875 12.945312 L 154.949219 12.941406 L 155.023438 12.933594 L 155.097656 12.929688 L 155.167969 12.921875 L 155.238281 12.910156 L 155.308594 12.902344 L 155.378906 12.890625 L 155.511719 12.859375 L 155.636719 12.820312 L 155.753906 12.773438 L 155.808594 12.75 L 155.917969 12.695312 L 155.964844 12.664062 L 156.015625 12.628906 L 156.0625 12.59375 L 156.109375 12.554688 L 156.152344 12.515625 L 156.191406 12.472656 L 156.230469 12.425781 L 156.300781 12.332031 L 156.332031 12.28125 L 156.363281 12.226562 L 156.390625 12.171875 L 156.414062 12.109375 L 156.4375 12.050781 L 156.46875 11.917969 L 156.484375 11.847656 L 156.492188 11.777344 L 156.5 11.699219 L 156.503906 11.625 Z M 156.507812 11.542969 "/>
<path style=" stroke:none;fill-rule:nonzero;fill:rgb(100%,100%,100%);fill-opacity:1;" d="M 288 216 L 432 216 L 432 0 L 288 0 Z M 288 216 "/>
<g clip-path="url(#clip5)" clip-rule="nonzero">
<path style="fill:none;stroke-width:1.066978;stroke-linecap:round;stroke-linejoin:round;stroke:rgb(100%,100%,100%);stroke-opacity:1;stroke-miterlimit:10;" d="M 288 216 L 432 216 L 432 0 L 288 0 Z M 288 216 "/>
</g>
<g clip-path="url(#clip6)" clip-rule="nonzero">
<path style="fill-rule:nonzero;fill:rgb(100%,100%,100%);fill-opacity:1;stroke-width:1.066978;stroke-linecap:round;stroke-linejoin:round;stroke:rgb(100%,100%,100%);stroke-opacity:1;stroke-miterlimit:10;" d="M 296.21875 207.78125 L 426.519531 207.78125 L 426.519531 5.480469 L 296.21875 5.480469 Z M 296.21875 207.78125 "/>
</g>
<path style=" stroke:none;fill-rule:nonzero;fill:rgb(27.45098%,50.980392%,70.588235%);fill-opacity:1;" d="M 324.878906 178.152344 L 420.597656 178.152344 L 420.597656 14.675781 L 324.878906 14.675781 Z M 324.878906 178.152344 "/>
<path style="fill:none;stroke-width:1.066978;stroke-linecap:round;stroke-linejoin:round;stroke:rgb(0%,0%,0%);stroke-opacity:1;stroke-miterlimit:10;" d="M 302.140625 198.585938 L 323.195312 198.585938 "/>
<path style="fill:none;stroke-width:1.066978;stroke-linecap:round;stroke-linejoin:round;stroke:rgb(0%,0%,0%);stroke-opacity:1;stroke-miterlimit:10;" d="M 364.683594 116.847656 L 367.757812 116.847656 "/>
<path style="fill:none;stroke-width:1.066978;stroke-linecap:round;stroke-linejoin:round;stroke:rgb(0%,0%,0%);stroke-opacity:1;stroke-miterlimit:10;" d="M 379.371094 75.976562 L 420.597656 75.976562 "/>
<path style="fill:none;stroke-width:1.066978;stroke-linecap:round;stroke-linejoin:round;stroke:rgb(0%,0%,0%);stroke-opacity:1;stroke-miterlimit:10;" d="M 379.371094 35.109375 L 385.472656 35.109375 "/>
<path style="fill:none;stroke-width:1.066978;stroke-linecap:round;stroke-linejoin:round;stroke:rgb(0%,0%,0%);stroke-opacity:1;stroke-miterlimit:10;" d="M 347.613281 157.714844 L 380.234375 157.714844 "/>
<path style="fill:none;stroke-width:1.066978;stroke-linecap:round;stroke-linejoin:round;stroke:rgb(0%,0%,0%);stroke-opacity:1;stroke-miterlimit:10;" d="M 302.140625 160.269531 L 302.140625 160.269531 "/>
<path style="fill:none;stroke-width:1.066978;stroke-linecap:round;stroke-linejoin:round;stroke:rgb(0%,0%,0%);stroke-opacity:1;stroke-miterlimit:10;" d="M 302.140625 121.957031 L 347.613281 121.957031 "/>
<path style="fill:none;stroke-width:1.066978;stroke-linecap:round;stroke-linejoin:round;stroke:rgb(0%,0%,0%);stroke-opacity:1;stroke-miterlimit:10;" d="M 347.613281 86.195312 L 364.683594 86.195312 "/>
<path style="fill:none;stroke-width:1.066978;stroke-linecap:round;stroke-linejoin:round;stroke:rgb(0%,0%,0%);stroke-opacity:1;stroke-miterlimit:10;" d="M 364.683594 55.542969 L 379.371094 55.542969 "/>
<path style="fill:none;stroke-width:1.066978;stroke-linecap:round;stroke-linejoin:round;stroke:rgb(0%,0%,0%);stroke-opacity:1;stroke-miterlimit:10;" d="M 302.140625 160.269531 L 302.140625 198.585938 "/>
<path style="fill:none;stroke-width:1.066978;stroke-linecap:round;stroke-linejoin:round;stroke:rgb(0%,0%,0%);stroke-opacity:1;stroke-miterlimit:10;" d="M 364.683594 86.195312 L 364.683594 116.847656 "/>
<path style="fill:none;stroke-width:1.066978;stroke-linecap:round;stroke-linejoin:round;stroke:rgb(0%,0%,0%);stroke-opacity:1;stroke-miterlimit:10;" d="M 379.371094 55.542969 L 379.371094 75.976562 "/>
<path style="fill:none;stroke-width:1.066978;stroke-linecap:round;stroke-linejoin:round;stroke:rgb(0%,0%,0%);stroke-opacity:1;stroke-miterlimit:10;" d="M 379.371094 55.542969 L 379.371094 35.109375 "/>
<path style="fill:none;stroke-width:1.066978;stroke-linecap:round;stroke-linejoin:round;stroke:rgb(0%,0%,0%);stroke-opacity:1;stroke-miterlimit:10;" d="M 347.613281 121.957031 L 347.613281 157.714844 "/>
<path style="fill:none;stroke-width:1.066978;stroke-linecap:round;stroke-linejoin:round;stroke:rgb(0%,0%,0%);stroke-opacity:1;stroke-miterlimit:10;" d="M 302.140625 160.269531 L 302.140625 160.269531 "/>
<path style="fill:none;stroke-width:1.066978;stroke-linecap:round;stroke-linejoin:round;stroke:rgb(0%,0%,0%);stroke-opacity:1;stroke-miterlimit:10;" d="M 302.140625 160.269531 L 302.140625 121.957031 "/>
<path style="fill:none;stroke-width:1.066978;stroke-linecap:round;stroke-linejoin:round;stroke:rgb(0%,0%,0%);stroke-opacity:1;stroke-miterlimit:10;" d="M 347.613281 121.957031 L 347.613281 86.195312 "/>
<path style="fill:none;stroke-width:1.066978;stroke-linecap:round;stroke-linejoin:round;stroke:rgb(0%,0%,0%);stroke-opacity:1;stroke-miterlimit:10;" d="M 364.683594 86.195312 L 364.683594 55.542969 "/>
<path style=" stroke:none;fill-rule:nonzero;fill:rgb(0%,0%,0%);fill-opacity:1;" d="M 298.488281 13 L 298.601562 12.996094 L 298.710938 12.992188 L 298.816406 12.984375 L 299.019531 12.960938 L 299.207031 12.921875 L 299.296875 12.898438 L 299.382812 12.871094 L 299.46875 12.839844 L 299.550781 12.808594 L 299.628906 12.773438 L 299.707031 12.734375 L 299.78125 12.695312 L 299.855469 12.652344 L 299.925781 12.609375 L 299.992188 12.566406 L 300.058594 12.515625 L 300.125 12.46875 L 300.183594 12.417969 L 300.246094 12.363281 L 300.304688 12.3125 L 300.359375 12.253906 L 300.414062 12.199219 L 300.515625 12.082031 L 300.5625 12.019531 L 300.648438 11.894531 L 300.691406 11.828125 L 300.730469 11.765625 L 300.808594 11.632812 L 300.878906 11.5 L 300.972656 11.300781 L 301.027344 11.167969 L 302.78125 11.828125 L 302.738281 11.933594 L 302.691406 12.035156 L 302.644531 12.140625 L 302.59375 12.242188 L 302.539062 12.34375 L 302.421875 12.546875 L 302.296875 12.75 L 302.230469 12.847656 L 302.160156 12.945312 L 302.085938 13.042969 L 301.929688 13.230469 L 301.84375 13.316406 L 301.757812 13.40625 L 301.667969 13.488281 L 301.574219 13.570312 L 301.476562 13.652344 L 301.375 13.730469 L 301.269531 13.804688 L 301.160156 13.878906 L 301.050781 13.945312 L 300.933594 14.011719 L 300.8125 14.078125 L 300.6875 14.136719 L 300.558594 14.195312 L 300.292969 14.304688 L 300.152344 14.351562 L 300.007812 14.394531 L 299.859375 14.4375 L 299.707031 14.46875 L 299.546875 14.5 L 299.382812 14.527344 L 299.214844 14.546875 L 299.042969 14.5625 L 298.863281 14.574219 L 298.679688 14.582031 L 298.488281 14.585938 L 298.242188 14.582031 L 298.003906 14.570312 L 297.769531 14.550781 L 297.542969 14.527344 L 297.324219 14.492188 L 297.109375 14.453125 L 296.902344 14.402344 L 296.703125 14.347656 L 296.507812 14.285156 L 296.324219 14.214844 L 296.144531 14.136719 L 295.96875 14.054688 L 295.800781 13.964844 L 295.640625 13.867188 L 295.484375 13.765625 L 295.335938 13.660156 L 295.195312 13.546875 L 295.058594 13.429688 L 294.929688 13.304688 L 294.804688 13.175781 L 294.6875 13.039062 L 294.578125 12.898438 L 294.476562 12.753906 L 294.378906 12.601562 L 294.285156 12.445312 L 294.199219 12.285156 L 294.121094 12.117188 L 294.046875 11.945312 L 293.976562 11.769531 L 293.917969 11.589844 L 293.863281 11.40625 L 293.8125 11.21875 L 293.769531 11.023438 L 293.734375 10.832031 L 293.703125 10.632812 L 293.675781 10.429688 L 293.65625 10.222656 L 293.640625 10.015625 L 293.632812 9.804688 L 293.628906 9.585938 L 293.632812 9.363281 L 293.640625 9.144531 L 293.65625 8.929688 L 293.675781 8.71875 L 293.703125 8.515625 L 293.734375 8.3125 L 293.769531 8.117188 L 293.8125 7.921875 L 293.863281 7.734375 L 293.917969 7.550781 L 293.976562 7.371094 L 294.046875 7.199219 L 294.121094 7.03125 L 294.199219 6.867188 L 294.285156 6.710938 L 294.375 6.558594 L 294.472656 6.410156 L 294.574219 6.269531 L 294.683594 6.136719 L 294.796875 6.003906 L 294.917969 5.878906 L 295.046875 5.761719 L 295.179688 5.648438 L 295.316406 5.539062 L 295.464844 5.4375 L 295.613281 5.34375 L 295.773438 5.253906 L 295.9375 5.167969 L 296.105469 5.09375 L 296.28125 5.019531 L 296.464844 4.953125 L 296.65625 4.894531 L 296.851562 4.84375 L 297.054688 4.796875 L 297.261719 4.757812 L 297.476562 4.726562 L 297.699219 4.703125 L 297.925781 4.6875 L 298.160156 4.675781 L 298.402344 4.671875 L 298.769531 4.679688 L 298.945312 4.691406 L 299.117188 4.703125 L 299.285156 4.722656 L 299.445312 4.742188 L 299.605469 4.769531 L 299.757812 4.800781 L 299.90625 4.832031 L 300.1875 4.910156 L 300.324219 4.957031 L 300.457031 5.003906 L 300.585938 5.054688 L 300.710938 5.109375 L 300.832031 5.167969 L 301.058594 5.292969 L 301.167969 5.359375 L 301.273438 5.429688 L 301.375 5.503906 L 301.472656 5.578125 L 301.566406 5.65625 L 301.746094 5.820312 L 301.828125 5.90625 L 301.910156 5.996094 L 301.984375 6.085938 L 302.058594 6.183594 L 302.125 6.277344 L 302.191406 6.375 L 302.257812 6.476562 L 302.316406 6.578125 L 302.375 6.683594 L 302.429688 6.789062 L 302.484375 6.898438 L 302.53125 7.007812 L 302.578125 7.121094 L 302.621094 7.234375 L 302.660156 7.351562 L 300.882812 7.835938 L 300.863281 7.777344 L 300.839844 7.714844 L 300.816406 7.65625 L 300.789062 7.59375 L 300.761719 7.535156 L 300.730469 7.476562 L 300.699219 7.421875 L 300.628906 7.304688 L 300.589844 7.25 L 300.546875 7.191406 L 300.460938 7.082031 L 300.414062 7.03125 L 300.3125 6.929688 L 300.257812 6.882812 L 300.203125 6.832031 L 300.144531 6.789062 L 300.082031 6.742188 L 300.019531 6.699219 L 299.957031 6.660156 L 299.824219 6.582031 L 299.683594 6.511719 L 299.609375 6.480469 L 299.53125 6.449219 L 299.453125 6.421875 L 299.289062 6.367188 L 299.203125 6.347656 L 299.117188 6.324219 L 299.027344 6.308594 L 298.933594 6.292969 L 298.839844 6.28125 L 298.742188 6.269531 L 298.644531 6.265625 L 298.542969 6.257812 L 298.441406 6.257812 L 298.296875 6.261719 L 298.15625 6.269531 L 298.023438 6.28125 L 297.890625 6.296875 L 297.761719 6.316406 L 297.636719 6.34375 L 297.519531 6.375 L 297.402344 6.410156 L 297.183594 6.496094 L 296.980469 6.597656 L 296.792969 6.714844 L 296.703125 6.78125 L 296.617188 6.851562 L 296.539062 6.921875 L 296.460938 7 L 296.386719 7.082031 L 296.316406 7.167969 L 296.25 7.257812 L 296.1875 7.347656 L 296.128906 7.445312 L 296.074219 7.546875 L 296.023438 7.648438 L 295.929688 7.867188 L 295.890625 7.980469 L 295.851562 8.097656 L 295.816406 8.21875 L 295.785156 8.34375 L 295.761719 8.46875 L 295.738281 8.597656 L 295.714844 8.730469 L 295.683594 9.003906 L 295.671875 9.144531 L 295.664062 9.289062 L 295.660156 9.4375 L 295.660156 9.738281 L 295.664062 9.882812 L 295.671875 10.027344 L 295.683594 10.167969 L 295.699219 10.308594 L 295.714844 10.445312 L 295.761719 10.710938 L 295.785156 10.839844 L 295.816406 10.96875 L 295.851562 11.089844 L 295.890625 11.210938 L 295.929688 11.324219 L 295.976562 11.4375 L 296.027344 11.546875 L 296.078125 11.652344 L 296.132812 11.753906 L 296.191406 11.855469 L 296.324219 12.042969 L 296.394531 12.128906 L 296.46875 12.214844 L 296.625 12.371094 L 296.710938 12.441406 L 296.800781 12.511719 L 296.894531 12.574219 L 296.992188 12.636719 L 297.09375 12.691406 L 297.199219 12.746094 L 297.308594 12.792969 L 297.421875 12.835938 L 297.539062 12.875 L 297.664062 12.90625 L 297.789062 12.933594 L 297.921875 12.957031 L 298.058594 12.976562 L 298.199219 12.988281 L 298.339844 12.996094 Z M 298.488281 13 "/>
</g>
</svg>
