<?xml version="1.0" encoding="UTF-8"?>
<svg xmlns="http://www.w3.org/2000/svg" xmlns:xlink="http://www.w3.org/1999/xlink" width="504pt" height="360pt" viewBox="0 0 504 360" version="1.1">
<defs>
<clipPath id="clip1">
  <path d="M 5.480469 5.480469 L 252 5.480469 L 252 354.523438 L 5.480469 354.523438 Z M 5.480469 5.480469 "/>
</clipPath>
<clipPath id="clip2">
  <path d="M 23.035156 23.496094 L 246.519531 23.496094 L 246.519531 346.300781 L 23.035156 346.300781 Z M 23.035156 23.496094 "/>
</clipPath>
<clipPath id="clip3">
  <path d="M 252 5.480469 L 498.519531 5.480469 L 498.519531 354.523438 L 252 354.523438 Z M 252 5.480469 "/>
</clipPath>
<clipPath id="clip4">
  <path d="M 269.558594 23.496094 L 493.042969 23.496094 L 493.042969 346.300781 L 269.558594 346.300781 Z M 269.558594 23.496094 "/>
</clipPath>
<clipPath id="clip5">
  <path d="M 269.558594 184 L 311 184 L 311 186 L 269.558594 186 Z M 269.558594 184 "/>
</clipPath>
</defs>
<g id="surface1074">
<rect x="0" y="0" width="504" height="360" style="fill:rgb(100%,100%,100%);fill-opacity:1;stroke:none;"/>
<rect x="0" y="0" width="504" height="360" style="fill:rgb(100%,100%,100%);fill-opacity:1;stroke:none;"/>
<path style="fill:none;stroke-width:1.066978;stroke-linecap:round;stroke-linejoin:round;stroke:rgb(100%,100%,100%);stroke-opacity:1;stroke-miterlimit:10;" d="M 0 360 L 504 360 L 504 0 L 0 0 Z M 0 360 "/>
<g clip-path="url(#clip1)" clip-rule="nonzero">
<path style="fill-rule:nonzero;fill:rgb(100%,100%,100%);fill-opacity:1;stroke-width:1.066978;stroke-linecap:round;stroke-linejoin:round;stroke:rgb(100%,100%,100%);stroke-opacity:1;stroke-miterlimit:10;" d="M 5.480469 354.519531 L 252 354.519531 L 252 5.476562 L 5.480469 5.476562 Z M 5.480469 354.519531 "/>
</g>
<g clip-path="url(#clip2)" clip-rule="nonzero">
<path style="fill-rule:nonzero;fill:rgb(100%,100%,100%);fill-opacity:1;stroke-width:1.066978;stroke-linecap:round;stroke-linejoin:round;stroke:rgb(100%,100%,100%);stroke-opacity:1;stroke-miterlimit:10;" d="M 23.035156 346.300781 L 246.519531 346.300781 L 246.519531 23.496094 L 23.035156 23.496094 Z M 23.035156 346.300781 "/>
</g>
<path style="fill:none;stroke-width:1.066978;stroke-linecap:round;stroke-linejoin:round;stroke:rgb(0%,0%,0%);stroke-opacity:1;stroke-miterlimit:10;" d="M 192.03125 62.625 L 206.472656 62.625 "/>
<path style="fill:none;stroke-width:1.066978;stroke-linecap:round;stroke-linejoin:round;stroke:rgb(0%,0%,0%);stroke-opacity:1;stroke-miterlimit:10;" d="M 192.03125 38.167969 L 206.472656 38.167969 "/>
<path style="fill:none;stroke-width:1.066978;stroke-linecap:round;stroke-linejoin:round;stroke:rgb(0%,0%,0%);stroke-opacity:1;stroke-miterlimit:10;" d="M 170.371094 87.078125 L 188.421875 87.078125 "/>
<path style="fill:none;stroke-width:1.066978;stroke-linecap:round;stroke-linejoin:round;stroke:rgb(0%,0%,0%);stroke-opacity:1;stroke-miterlimit:10;" d="M 141.492188 111.535156 L 163.152344 111.535156 "/>
<path style="fill:none;stroke-width:1.066978;stroke-linecap:round;stroke-linejoin:round;stroke:rgb(0%,0%,0%);stroke-opacity:1;stroke-miterlimit:10;" d="M 130.664062 135.988281 L 206.472656 135.988281 "/>
<path style="fill:none;stroke-width:1.066978;stroke-linecap:round;stroke-linejoin:round;stroke:rgb(0%,0%,0%);stroke-opacity:1;stroke-miterlimit:10;" d="M 192.03125 184.898438 L 206.472656 184.898438 "/>
<path style="fill:none;stroke-width:1.066978;stroke-linecap:round;stroke-linejoin:round;stroke:rgb(0%,0%,0%);stroke-opacity:1;stroke-miterlimit:10;" d="M 192.03125 160.445312 L 235.351562 160.445312 "/>
<path style="fill:none;stroke-width:1.066978;stroke-linecap:round;stroke-linejoin:round;stroke:rgb(0%,0%,0%);stroke-opacity:1;stroke-miterlimit:10;" d="M 141.492188 209.355469 L 170.371094 209.355469 "/>
<path style="fill:none;stroke-width:1.066978;stroke-linecap:round;stroke-linejoin:round;stroke:rgb(0%,0%,0%);stroke-opacity:1;stroke-miterlimit:10;" d="M 217.300781 307.171875 L 235.351562 307.171875 "/>
<path style="fill:none;stroke-width:1.066978;stroke-linecap:round;stroke-linejoin:round;stroke:rgb(0%,0%,0%);stroke-opacity:1;stroke-miterlimit:10;" d="M 217.300781 282.71875 L 224.523438 282.71875 "/>
<path style="fill:none;stroke-width:1.066978;stroke-linecap:round;stroke-linejoin:round;stroke:rgb(0%,0%,0%);stroke-opacity:1;stroke-miterlimit:10;" d="M 116.222656 258.261719 L 155.933594 258.261719 "/>
<path style="fill:none;stroke-width:1.066978;stroke-linecap:round;stroke-linejoin:round;stroke:rgb(0%,0%,0%);stroke-opacity:1;stroke-miterlimit:10;" d="M 116.222656 233.808594 L 155.933594 233.808594 "/>
<path style="fill:none;stroke-width:1.066978;stroke-linecap:round;stroke-linejoin:round;stroke:rgb(0%,0%,0%);stroke-opacity:1;stroke-miterlimit:10;" d="M 33.195312 331.628906 L 235.351562 331.628906 "/>
<path style="fill:none;stroke-width:1.066978;stroke-linecap:round;stroke-linejoin:round;stroke:rgb(0%,0%,0%);stroke-opacity:1;stroke-miterlimit:10;" d="M 33.195312 271.445312 L 33.195312 271.445312 "/>
<path style="fill:none;stroke-width:1.066978;stroke-linecap:round;stroke-linejoin:round;stroke:rgb(0%,0%,0%);stroke-opacity:1;stroke-miterlimit:10;" d="M 33.195312 211.265625 L 47.632812 211.265625 "/>
<path style="fill:none;stroke-width:1.066978;stroke-linecap:round;stroke-linejoin:round;stroke:rgb(0%,0%,0%);stroke-opacity:1;stroke-miterlimit:10;" d="M 47.632812 152.039062 L 94.5625 152.039062 "/>
<path style="fill:none;stroke-width:1.066978;stroke-linecap:round;stroke-linejoin:round;stroke:rgb(0%,0%,0%);stroke-opacity:1;stroke-miterlimit:10;" d="M 94.5625 113.0625 L 130.664062 113.0625 "/>
<path style="fill:none;stroke-width:1.066978;stroke-linecap:round;stroke-linejoin:round;stroke:rgb(0%,0%,0%);stroke-opacity:1;stroke-miterlimit:10;" d="M 130.664062 90.136719 L 141.492188 90.136719 "/>
<path style="fill:none;stroke-width:1.066978;stroke-linecap:round;stroke-linejoin:round;stroke:rgb(0%,0%,0%);stroke-opacity:1;stroke-miterlimit:10;" d="M 141.492188 68.738281 L 170.371094 68.738281 "/>
<path style="fill:none;stroke-width:1.066978;stroke-linecap:round;stroke-linejoin:round;stroke:rgb(0%,0%,0%);stroke-opacity:1;stroke-miterlimit:10;" d="M 170.371094 50.394531 L 192.03125 50.394531 "/>
<path style="fill:none;stroke-width:1.066978;stroke-linecap:round;stroke-linejoin:round;stroke:rgb(0%,0%,0%);stroke-opacity:1;stroke-miterlimit:10;" d="M 94.5625 191.011719 L 141.492188 191.011719 "/>
<path style="fill:none;stroke-width:1.066978;stroke-linecap:round;stroke-linejoin:round;stroke:rgb(0%,0%,0%);stroke-opacity:1;stroke-miterlimit:10;" d="M 141.492188 172.671875 L 192.03125 172.671875 "/>
<path style="fill:none;stroke-width:1.066978;stroke-linecap:round;stroke-linejoin:round;stroke:rgb(0%,0%,0%);stroke-opacity:1;stroke-miterlimit:10;" d="M 47.632812 270.492188 L 109.003906 270.492188 "/>
<path style="fill:none;stroke-width:1.066978;stroke-linecap:round;stroke-linejoin:round;stroke:rgb(0%,0%,0%);stroke-opacity:1;stroke-miterlimit:10;" d="M 109.003906 294.945312 L 217.300781 294.945312 "/>
<path style="fill:none;stroke-width:1.066978;stroke-linecap:round;stroke-linejoin:round;stroke:rgb(0%,0%,0%);stroke-opacity:1;stroke-miterlimit:10;" d="M 109.003906 246.035156 L 116.222656 246.035156 "/>
<path style="fill:none;stroke-width:1.066978;stroke-linecap:round;stroke-linejoin:round;stroke:rgb(0%,0%,0%);stroke-opacity:1;stroke-miterlimit:10;" d="M 192.03125 50.394531 L 192.03125 62.625 "/>
<path style="fill:none;stroke-width:1.066978;stroke-linecap:round;stroke-linejoin:round;stroke:rgb(0%,0%,0%);stroke-opacity:1;stroke-miterlimit:10;" d="M 192.03125 50.394531 L 192.03125 38.167969 "/>
<path style="fill:none;stroke-width:1.066978;stroke-linecap:round;stroke-linejoin:round;stroke:rgb(0%,0%,0%);stroke-opacity:1;stroke-miterlimit:10;" d="M 170.371094 68.738281 L 170.371094 87.078125 "/>
<path style="fill:none;stroke-width:1.066978;stroke-linecap:round;stroke-linejoin:round;stroke:rgb(0%,0%,0%);stroke-opacity:1;stroke-miterlimit:10;" d="M 141.492188 90.136719 L 141.492188 111.535156 "/>
<path style="fill:none;stroke-width:1.066978;stroke-linecap:round;stroke-linejoin:round;stroke:rgb(0%,0%,0%);stroke-opacity:1;stroke-miterlimit:10;" d="M 130.664062 113.0625 L 130.664062 135.988281 "/>
<path style="fill:none;stroke-width:1.066978;stroke-linecap:round;stroke-linejoin:round;stroke:rgb(0%,0%,0%);stroke-opacity:1;stroke-miterlimit:10;" d="M 192.03125 172.671875 L 192.03125 184.898438 "/>
<path style="fill:none;stroke-width:1.066978;stroke-linecap:round;stroke-linejoin:round;stroke:rgb(0%,0%,0%);stroke-opacity:1;stroke-miterlimit:10;" d="M 192.03125 172.671875 L 192.03125 160.445312 "/>
<path style="fill:none;stroke-width:1.066978;stroke-linecap:round;stroke-linejoin:round;stroke:rgb(0%,0%,0%);stroke-opacity:1;stroke-miterlimit:10;" d="M 141.492188 191.011719 L 141.492188 209.355469 "/>
<path style="fill:none;stroke-width:1.066978;stroke-linecap:round;stroke-linejoin:round;stroke:rgb(0%,0%,0%);stroke-opacity:1;stroke-miterlimit:10;" d="M 217.300781 294.945312 L 217.300781 307.171875 "/>
<path style="fill:none;stroke-width:1.066978;stroke-linecap:round;stroke-linejoin:round;stroke:rgb(0%,0%,0%);stroke-opacity:1;stroke-miterlimit:10;" d="M 217.300781 294.945312 L 217.300781 282.71875 "/>
<path style="fill:none;stroke-width:1.066978;stroke-linecap:round;stroke-linejoin:round;stroke:rgb(0%,0%,0%);stroke-opacity:1;stroke-miterlimit:10;" d="M 116.222656 246.035156 L 116.222656 258.261719 "/>
<path style="fill:none;stroke-width:1.066978;stroke-linecap:round;stroke-linejoin:round;stroke:rgb(0%,0%,0%);stroke-opacity:1;stroke-miterlimit:10;" d="M 116.222656 246.035156 L 116.222656 233.808594 "/>
<path style="fill:none;stroke-width:1.066978;stroke-linecap:round;stroke-linejoin:round;stroke:rgb(0%,0%,0%);stroke-opacity:1;stroke-miterlimit:10;" d="M 33.195312 271.445312 L 33.195312 331.628906 "/>
<path style="fill:none;stroke-width:1.066978;stroke-linecap:round;stroke-linejoin:round;stroke:rgb(0%,0%,0%);stroke-opacity:1;stroke-miterlimit:10;" d="M 33.195312 271.445312 L 33.195312 271.445312 "/>
<path style="fill:none;stroke-width:1.066978;stroke-linecap:round;stroke-linejoin:round;stroke:rgb(0%,0%,0%);stroke-opacity:1;stroke-miterlimit:10;" d="M 33.195312 271.445312 L 33.195312 211.265625 "/>
<path style="fill:none;stroke-width:1.066978;stroke-linecap:round;stroke-linejoin:round;stroke:rgb(0%,0%,0%);stroke-opacity:1;stroke-miterlimit:10;" d="M 47.632812 211.265625 L 47.632812 152.039062 "/>
<path style="fill:none;stroke-width:1.066978;stroke-linecap:round;stroke-linejoin:round;stroke:rgb(0%,0%,0%);stroke-opacity:1;stroke-miterlimit:10;" d="M 94.5625 152.039062 L 94.5625 113.0625 "/>
<path style="fill:none;stroke-width:1.066978;stroke-linecap:round;stroke-linejoin:round;stroke:rgb(0%,0%,0%);stroke-opacity:1;stroke-miterlimit:10;" d="M 130.664062 113.0625 L 130.664062 90.136719 "/>
<path style="fill:none;stroke-width:1.066978;stroke-linecap:round;stroke-linejoin:round;stroke:rgb(0%,0%,0%);stroke-opacity:1;stroke-miterlimit:10;" d="M 141.492188 90.136719 L 141.492188 68.738281 "/>
<path style="fill:none;stroke-width:1.066978;stroke-linecap:round;stroke-linejoin:round;stroke:rgb(0%,0%,0%);stroke-opacity:1;stroke-miterlimit:10;" d="M 170.371094 68.738281 L 170.371094 50.394531 "/>
<path style="fill:none;stroke-width:1.066978;stroke-linecap:round;stroke-linejoin:round;stroke:rgb(0%,0%,0%);stroke-opacity:1;stroke-miterlimit:10;" d="M 94.5625 152.039062 L 94.5625 191.011719 "/>
<path style="fill:none;stroke-width:1.066978;stroke-linecap:round;stroke-linejoin:round;stroke:rgb(0%,0%,0%);stroke-opacity:1;stroke-miterlimit:10;" d="M 141.492188 191.011719 L 141.492188 172.671875 "/>
<path style="fill:none;stroke-width:1.066978;stroke-linecap:round;stroke-linejoin:round;stroke:rgb(0%,0%,0%);stroke-opacity:1;stroke-miterlimit:10;" d="M 47.632812 211.265625 L 47.632812 270.492188 "/>
<path style="fill:none;stroke-width:1.066978;stroke-linecap:round;stroke-linejoin:round;stroke:rgb(0%,0%,0%);stroke-opacity:1;stroke-miterlimit:10;" d="M 109.003906 270.492188 L 109.003906 294.945312 "/>
<path style="fill:none;stroke-width:1.066978;stroke-linecap:round;stroke-linejoin:round;stroke:rgb(0%,0%,0%);stroke-opacity:1;stroke-miterlimit:10;" d="M 109.003906 270.492188 L 109.003906 246.035156 "/>
<path style=" stroke:none;fill-rule:nonzero;fill:rgb(0%,0%,0%);fill-opacity:1;" d="M 213.773438 66.421875 L 212.90625 64.199219 L 209.445312 64.199219 L 208.570312 66.421875 L 207.503906 66.421875 L 210.605469 58.828125 L 211.773438 58.828125 L 214.824219 66.421875 Z M 211.621094 60.890625 L 211.589844 60.804688 L 211.570312 60.761719 L 211.539062 60.675781 L 211.519531 60.628906 L 211.472656 60.5 L 211.457031 60.453125 L 211.410156 60.324219 L 211.398438 60.285156 L 211.382812 60.242188 L 211.359375 60.164062 L 211.34375 60.128906 L 211.332031 60.089844 L 211.296875 59.984375 L 211.285156 59.953125 L 211.277344 59.917969 L 211.265625 59.886719 L 211.253906 59.859375 L 211.246094 59.832031 L 211.234375 59.804688 L 211.226562 59.777344 L 211.203125 59.707031 L 211.199219 59.6875 L 211.191406 59.667969 L 211.1875 59.652344 L 211.179688 59.628906 L 211.179688 59.617188 L 211.175781 59.609375 L 211.175781 59.601562 L 211.167969 59.617188 L 211.167969 59.628906 L 211.164062 59.640625 L 211.15625 59.652344 L 211.152344 59.667969 L 211.148438 59.6875 L 211.140625 59.707031 L 211.117188 59.777344 L 211.101562 59.832031 L 211.09375 59.863281 L 211.082031 59.890625 L 211.070312 59.921875 L 211.0625 59.957031 L 211.050781 59.988281 L 211.035156 60.023438 L 211.023438 60.0625 L 211.011719 60.097656 L 210.988281 60.175781 L 210.972656 60.214844 L 210.960938 60.253906 L 210.945312 60.292969 L 210.867188 60.507812 L 210.855469 60.554688 L 210.792969 60.726562 L 210.777344 60.773438 L 210.761719 60.816406 L 210.742188 60.859375 L 210.726562 60.902344 L 209.757812 63.398438 L 212.597656 63.398438 Z M 211.621094 60.890625 "/>
<path style=" stroke:none;fill-rule:nonzero;fill:rgb(0%,0%,0%);fill-opacity:1;" d="M 214.265625 39.828125 L 214.261719 39.941406 L 214.253906 40.050781 L 214.242188 40.15625 L 214.226562 40.261719 L 214.207031 40.363281 L 214.183594 40.457031 L 214.152344 40.550781 L 214.082031 40.730469 L 214.039062 40.8125 L 213.992188 40.890625 L 213.941406 40.96875 L 213.886719 41.042969 L 213.832031 41.113281 L 213.773438 41.179688 L 213.710938 41.246094 L 213.644531 41.308594 L 213.574219 41.367188 L 213.503906 41.421875 L 213.429688 41.476562 L 213.351562 41.523438 L 213.1875 41.617188 L 213.015625 41.695312 L 212.925781 41.730469 L 212.832031 41.765625 L 212.738281 41.796875 L 212.640625 41.824219 L 212.4375 41.871094 L 212.335938 41.890625 L 212.230469 41.910156 L 212.125 41.925781 L 212.019531 41.9375 L 211.910156 41.949219 L 211.804688 41.957031 L 211.695312 41.960938 L 211.582031 41.964844 L 208.386719 41.964844 L 208.386719 34.371094 L 211.273438 34.371094 L 211.394531 34.375 L 211.515625 34.382812 L 211.632812 34.386719 L 211.746094 34.398438 L 211.855469 34.410156 L 211.964844 34.425781 L 212.175781 34.457031 L 212.273438 34.480469 L 212.371094 34.5 L 212.46875 34.523438 L 212.558594 34.550781 L 212.648438 34.582031 L 212.734375 34.613281 L 212.816406 34.648438 L 212.894531 34.683594 L 212.972656 34.722656 L 213.046875 34.765625 L 213.117188 34.808594 L 213.183594 34.855469 L 213.246094 34.902344 L 213.308594 34.953125 L 213.363281 35.007812 L 213.417969 35.066406 L 213.46875 35.125 L 213.5625 35.25 L 213.601562 35.316406 L 213.671875 35.457031 L 213.703125 35.527344 L 213.757812 35.683594 L 213.777344 35.765625 L 213.792969 35.847656 L 213.816406 36.027344 L 213.820312 36.121094 L 213.820312 36.277344 L 213.808594 36.464844 L 213.800781 36.523438 L 213.777344 36.640625 L 213.746094 36.757812 L 213.730469 36.8125 L 213.691406 36.921875 L 213.644531 37.03125 L 213.621094 37.082031 L 213.59375 37.132812 L 213.5625 37.183594 L 213.53125 37.230469 L 213.425781 37.371094 L 213.386719 37.414062 L 213.304688 37.496094 L 213.164062 37.613281 L 213.0625 37.683594 L 213.007812 37.71875 L 212.953125 37.75 L 212.894531 37.78125 L 212.839844 37.808594 L 212.777344 37.835938 L 212.652344 37.882812 L 212.585938 37.90625 L 212.519531 37.925781 L 212.449219 37.945312 L 212.378906 37.960938 L 212.46875 37.972656 L 212.726562 38.019531 L 212.808594 38.039062 L 212.964844 38.085938 L 213.042969 38.113281 L 213.113281 38.140625 L 213.1875 38.171875 L 213.253906 38.203125 L 213.324219 38.238281 L 213.386719 38.273438 L 213.453125 38.308594 L 213.511719 38.347656 L 213.570312 38.390625 L 213.679688 38.476562 L 213.730469 38.523438 L 213.777344 38.570312 L 213.824219 38.621094 L 213.910156 38.722656 L 213.988281 38.832031 L 214.023438 38.890625 L 214.054688 38.949219 L 214.085938 39.011719 L 214.140625 39.136719 L 214.164062 39.199219 L 214.203125 39.332031 L 214.21875 39.398438 L 214.234375 39.46875 L 214.242188 39.539062 L 214.253906 39.609375 L 214.257812 39.679688 Z M 212.785156 36.339844 L 212.78125 36.21875 L 212.769531 36.105469 L 212.75 36 L 212.71875 35.902344 L 212.683594 35.8125 L 212.636719 35.726562 L 212.582031 35.648438 L 212.519531 35.578125 L 212.445312 35.515625 L 212.367188 35.460938 L 212.277344 35.410156 L 212.183594 35.363281 L 212.082031 35.324219 L 211.96875 35.292969 L 211.851562 35.261719 L 211.726562 35.238281 L 211.59375 35.21875 L 211.453125 35.207031 L 211.304688 35.199219 L 211.148438 35.195312 L 209.417969 35.195312 L 209.417969 37.601562 L 211.148438 37.601562 L 211.238281 37.597656 L 211.324219 37.597656 L 211.40625 37.59375 L 211.488281 37.585938 L 211.566406 37.578125 L 211.640625 37.570312 L 211.714844 37.558594 L 211.78125 37.546875 L 211.851562 37.53125 L 211.914062 37.515625 L 211.976562 37.496094 L 212.035156 37.472656 L 212.089844 37.453125 L 212.144531 37.429688 L 212.195312 37.40625 L 212.246094 37.378906 L 212.339844 37.324219 L 212.378906 37.292969 L 212.421875 37.261719 L 212.527344 37.15625 L 212.558594 37.117188 L 212.585938 37.078125 L 212.613281 37.035156 L 212.640625 36.996094 L 212.660156 36.953125 L 212.683594 36.90625 L 212.699219 36.863281 L 212.71875 36.816406 L 212.730469 36.765625 L 212.746094 36.71875 L 212.753906 36.667969 L 212.765625 36.613281 L 212.773438 36.5625 L 212.777344 36.507812 L 212.785156 36.453125 Z M 213.222656 39.746094 L 213.222656 39.675781 L 213.21875 39.605469 L 213.203125 39.472656 L 213.191406 39.410156 L 213.175781 39.351562 L 213.15625 39.292969 L 213.136719 39.238281 L 213.113281 39.183594 L 213.089844 39.132812 L 213.0625 39.082031 L 213 38.988281 L 212.964844 38.941406 L 212.929688 38.902344 L 212.890625 38.859375 L 212.847656 38.820312 L 212.761719 38.75 L 212.710938 38.714844 L 212.660156 38.683594 L 212.609375 38.65625 L 212.554688 38.625 L 212.496094 38.601562 L 212.4375 38.574219 L 212.378906 38.554688 L 212.3125 38.53125 L 212.25 38.511719 L 212.183594 38.496094 L 212.042969 38.464844 L 211.972656 38.453125 L 211.824219 38.429688 L 211.667969 38.414062 L 211.585938 38.410156 L 211.507812 38.40625 L 211.421875 38.402344 L 209.417969 38.402344 L 209.417969 41.140625 L 211.574219 41.140625 L 211.722656 41.132812 L 211.796875 41.125 L 212.007812 41.101562 L 212.140625 41.078125 L 212.207031 41.0625 L 212.332031 41.03125 L 212.390625 41.011719 L 212.507812 40.964844 L 212.558594 40.9375 L 212.613281 40.910156 L 212.664062 40.882812 L 212.710938 40.851562 L 212.804688 40.78125 L 212.847656 40.742188 L 212.886719 40.703125 L 212.964844 40.617188 L 213 40.570312 L 213.03125 40.523438 L 213.0625 40.472656 L 213.089844 40.417969 L 213.113281 40.363281 L 213.136719 40.304688 L 213.15625 40.246094 L 213.175781 40.183594 L 213.191406 40.117188 L 213.203125 40.046875 L 213.210938 39.976562 L 213.21875 39.902344 L 213.222656 39.824219 Z M 213.222656 39.746094 "/>
<path style=" stroke:none;fill-rule:nonzero;fill:rgb(0%,0%,0%);fill-opacity:1;" d="M 193.703125 84.007812 L 193.574219 84.011719 L 193.449219 84.019531 L 193.328125 84.027344 L 193.207031 84.042969 L 193.089844 84.0625 L 192.976562 84.085938 L 192.867188 84.113281 L 192.65625 84.183594 L 192.554688 84.226562 L 192.457031 84.269531 L 192.363281 84.316406 L 192.269531 84.371094 L 192.183594 84.425781 L 192.097656 84.484375 L 192.015625 84.550781 L 191.9375 84.617188 L 191.859375 84.6875 L 191.789062 84.761719 L 191.71875 84.839844 L 191.652344 84.921875 L 191.589844 85.003906 L 191.53125 85.09375 L 191.476562 85.183594 L 191.425781 85.277344 L 191.375 85.375 L 191.328125 85.476562 L 191.289062 85.582031 L 191.246094 85.6875 L 191.210938 85.796875 L 191.179688 85.910156 L 191.148438 86.027344 L 191.125 86.144531 L 191.101562 86.265625 L 191.082031 86.390625 L 191.066406 86.515625 L 191.054688 86.644531 L 191.046875 86.773438 L 191.042969 86.90625 L 191.039062 87.042969 L 191.042969 87.179688 L 191.046875 87.3125 L 191.054688 87.445312 L 191.070312 87.574219 L 191.085938 87.699219 L 191.105469 87.824219 L 191.128906 87.945312 L 191.15625 88.066406 L 191.1875 88.183594 L 191.222656 88.300781 L 191.261719 88.410156 L 191.304688 88.519531 L 191.351562 88.625 L 191.398438 88.726562 L 191.449219 88.828125 L 191.503906 88.921875 L 191.5625 89.015625 L 191.625 89.105469 L 191.6875 89.191406 L 191.757812 89.277344 L 191.828125 89.355469 L 191.902344 89.433594 L 191.980469 89.503906 L 192.0625 89.574219 L 192.144531 89.640625 L 192.230469 89.699219 L 192.320312 89.757812 L 192.414062 89.8125 L 192.507812 89.863281 L 192.609375 89.910156 L 192.710938 89.953125 L 192.816406 89.992188 L 192.921875 90.027344 L 193.03125 90.054688 L 193.144531 90.082031 L 193.261719 90.101562 L 193.378906 90.117188 L 193.5 90.128906 L 193.621094 90.136719 L 193.832031 90.136719 L 194.003906 90.128906 L 194.085938 90.121094 L 194.167969 90.109375 L 194.246094 90.097656 L 194.402344 90.066406 L 194.476562 90.046875 L 194.546875 90.023438 L 194.621094 90 L 194.761719 89.945312 L 194.894531 89.882812 L 194.960938 89.847656 L 195.085938 89.777344 L 195.148438 89.738281 L 195.265625 89.652344 L 195.320312 89.609375 L 195.378906 89.5625 L 195.488281 89.46875 L 195.539062 89.417969 L 195.589844 89.363281 L 195.640625 89.3125 L 195.6875 89.257812 L 195.78125 89.140625 L 195.824219 89.082031 L 195.953125 88.894531 L 196.109375 88.628906 L 196.144531 88.558594 L 196.984375 88.980469 L 196.941406 89.0625 L 196.898438 89.148438 L 196.851562 89.230469 L 196.804688 89.308594 L 196.757812 89.390625 L 196.703125 89.46875 L 196.652344 89.546875 L 196.59375 89.621094 L 196.539062 89.699219 L 196.476562 89.769531 L 196.417969 89.84375 L 196.351562 89.914062 L 196.289062 89.984375 L 196.21875 90.050781 L 196.078125 90.175781 L 196.003906 90.238281 L 195.925781 90.296875 L 195.847656 90.351562 L 195.683594 90.460938 L 195.601562 90.511719 L 195.515625 90.558594 L 195.425781 90.605469 L 195.335938 90.648438 L 195.242188 90.691406 L 195.144531 90.730469 L 194.949219 90.800781 L 194.84375 90.832031 L 194.742188 90.863281 L 194.636719 90.886719 L 194.527344 90.910156 L 194.414062 90.929688 L 194.1875 90.960938 L 193.824219 90.984375 L 193.695312 90.984375 L 193.515625 90.980469 L 193.335938 90.972656 L 193.164062 90.957031 L 192.996094 90.9375 L 192.832031 90.910156 L 192.671875 90.878906 L 192.515625 90.839844 L 192.367188 90.796875 L 192.222656 90.75 L 192.078125 90.691406 L 191.945312 90.632812 L 191.8125 90.566406 L 191.6875 90.496094 L 191.5625 90.417969 L 191.445312 90.339844 L 191.332031 90.257812 L 191.222656 90.167969 L 191.117188 90.074219 L 191.015625 89.976562 L 190.921875 89.875 L 190.832031 89.765625 L 190.746094 89.65625 L 190.664062 89.539062 L 190.585938 89.421875 L 190.515625 89.296875 L 190.449219 89.171875 L 190.386719 89.039062 L 190.328125 88.90625 L 190.273438 88.765625 L 190.226562 88.625 L 190.179688 88.476562 L 190.140625 88.328125 L 190.105469 88.175781 L 190.078125 88.023438 L 190.050781 87.867188 L 190.03125 87.707031 L 190.015625 87.546875 L 190.003906 87.382812 L 189.996094 87.214844 L 189.992188 87.042969 L 189.996094 86.867188 L 190.003906 86.695312 L 190.015625 86.527344 L 190.03125 86.359375 L 190.054688 86.199219 L 190.082031 86.039062 L 190.113281 85.882812 L 190.148438 85.730469 L 190.191406 85.582031 L 190.234375 85.4375 L 190.289062 85.296875 L 190.34375 85.160156 L 190.40625 85.027344 L 190.46875 84.898438 L 190.539062 84.773438 L 190.613281 84.65625 L 190.691406 84.539062 L 190.773438 84.429688 L 190.863281 84.320312 L 190.953125 84.21875 L 191.050781 84.121094 L 191.152344 84.027344 L 191.257812 83.9375 L 191.367188 83.851562 L 191.480469 83.773438 L 191.601562 83.695312 L 191.722656 83.625 L 191.851562 83.558594 L 191.980469 83.5 L 192.117188 83.441406 L 192.257812 83.390625 L 192.402344 83.34375 L 192.699219 83.265625 L 192.855469 83.238281 L 193.015625 83.210938 L 193.179688 83.191406 L 193.34375 83.179688 L 193.515625 83.171875 L 193.691406 83.167969 L 193.929688 83.171875 L 194.160156 83.1875 L 194.382812 83.210938 L 194.597656 83.242188 L 194.804688 83.285156 L 195.003906 83.339844 L 195.195312 83.402344 L 195.375 83.472656 L 195.550781 83.550781 L 195.71875 83.640625 L 195.875 83.742188 L 196.027344 83.851562 L 196.167969 83.96875 L 196.300781 84.09375 L 196.425781 84.230469 L 196.539062 84.375 L 196.648438 84.53125 L 196.746094 84.695312 L 196.835938 84.867188 L 196.914062 85.050781 L 195.9375 85.371094 L 195.917969 85.320312 L 195.894531 85.265625 L 195.867188 85.214844 L 195.839844 85.160156 L 195.8125 85.109375 L 195.71875 84.957031 L 195.683594 84.910156 L 195.648438 84.859375 L 195.53125 84.71875 L 195.488281 84.671875 L 195.347656 84.542969 L 195.296875 84.5 L 195.242188 84.460938 L 195.191406 84.425781 L 195.132812 84.386719 L 195.015625 84.316406 L 194.890625 84.253906 L 194.824219 84.226562 L 194.757812 84.195312 L 194.6875 84.171875 L 194.617188 84.144531 L 194.542969 84.121094 L 194.46875 84.101562 L 194.390625 84.082031 L 194.234375 84.050781 L 194.148438 84.039062 L 194.066406 84.027344 L 193.886719 84.011719 L 193.796875 84.011719 Z M 193.703125 84.007812 "/>
<path style=" stroke:none;fill-rule:nonzero;fill:rgb(0%,0%,0%);fill-opacity:1;" d="M 171.609375 111.457031 L 171.605469 111.644531 L 171.597656 111.828125 L 171.582031 112.003906 L 171.5625 112.179688 L 171.535156 112.347656 L 171.503906 112.515625 L 171.46875 112.675781 L 171.425781 112.832031 L 171.375 112.984375 L 171.320312 113.132812 L 171.261719 113.273438 L 171.199219 113.410156 L 171.132812 113.542969 L 171.058594 113.671875 L 170.984375 113.796875 L 170.820312 114.03125 L 170.730469 114.140625 L 170.636719 114.246094 L 170.539062 114.34375 L 170.4375 114.441406 L 170.335938 114.53125 L 170.226562 114.613281 L 170.113281 114.695312 L 170 114.773438 L 169.878906 114.84375 L 169.757812 114.910156 L 169.628906 114.972656 L 169.5 115.03125 L 169.363281 115.082031 L 169.230469 115.128906 L 169.089844 115.171875 L 168.953125 115.210938 L 168.808594 115.242188 L 168.664062 115.269531 L 168.519531 115.292969 L 168.367188 115.308594 L 168.21875 115.320312 L 168.066406 115.328125 L 167.910156 115.332031 L 165.070312 115.332031 L 165.070312 107.734375 L 167.582031 107.734375 L 167.753906 107.738281 L 167.925781 107.746094 L 168.09375 107.757812 L 168.261719 107.773438 L 168.425781 107.792969 L 168.585938 107.816406 L 168.742188 107.84375 L 168.898438 107.878906 L 169.050781 107.914062 L 169.199219 107.957031 L 169.34375 108.003906 L 169.488281 108.054688 L 169.625 108.109375 L 169.757812 108.167969 L 169.890625 108.234375 L 170.015625 108.304688 L 170.136719 108.378906 L 170.253906 108.457031 L 170.367188 108.542969 L 170.476562 108.632812 L 170.578125 108.722656 L 170.679688 108.820312 L 170.773438 108.925781 L 170.863281 109.03125 L 170.949219 109.144531 L 171.03125 109.265625 L 171.105469 109.386719 L 171.175781 109.515625 L 171.242188 109.648438 L 171.304688 109.785156 L 171.363281 109.925781 L 171.414062 110.074219 L 171.460938 110.230469 L 171.5 110.386719 L 171.53125 110.554688 L 171.558594 110.722656 L 171.582031 110.898438 L 171.59375 111.078125 L 171.605469 111.265625 Z M 170.574219 111.457031 L 170.570312 111.304688 L 170.5625 111.15625 L 170.554688 111.011719 L 170.539062 110.875 L 170.515625 110.742188 L 170.492188 110.613281 L 170.464844 110.488281 L 170.429688 110.367188 L 170.394531 110.25 L 170.351562 110.140625 L 170.304688 110.03125 L 170.257812 109.929688 L 170.203125 109.828125 L 170.085938 109.640625 L 170.023438 109.550781 L 169.957031 109.46875 L 169.882812 109.386719 L 169.808594 109.3125 L 169.730469 109.238281 L 169.652344 109.171875 L 169.566406 109.109375 L 169.476562 109.046875 L 169.386719 108.988281 L 169.292969 108.9375 L 169.195312 108.886719 L 169.097656 108.84375 L 168.992188 108.800781 L 168.886719 108.761719 L 168.777344 108.726562 L 168.664062 108.695312 L 168.550781 108.667969 L 168.316406 108.621094 L 168.195312 108.601562 L 168.074219 108.585938 L 167.949219 108.574219 L 167.820312 108.566406 L 167.691406 108.5625 L 166.097656 108.5625 L 166.097656 114.507812 L 167.792969 114.507812 L 168.027344 114.5 L 168.253906 114.476562 L 168.367188 114.457031 L 168.476562 114.4375 L 168.585938 114.410156 L 168.691406 114.382812 L 168.894531 114.3125 L 168.996094 114.273438 L 169.191406 114.179688 L 169.285156 114.128906 L 169.375 114.070312 L 169.460938 114.011719 L 169.542969 113.949219 L 169.625 113.882812 L 169.78125 113.734375 L 169.851562 113.65625 L 169.921875 113.574219 L 169.988281 113.488281 L 170.050781 113.398438 L 170.113281 113.304688 L 170.222656 113.109375 L 170.273438 113.003906 L 170.320312 112.894531 L 170.363281 112.78125 L 170.402344 112.664062 L 170.4375 112.546875 L 170.46875 112.421875 L 170.496094 112.296875 L 170.519531 112.164062 L 170.539062 112.03125 L 170.554688 111.890625 L 170.5625 111.75 L 170.570312 111.605469 Z M 170.574219 111.457031 "/>
<path style=" stroke:none;fill-rule:nonzero;fill:rgb(0%,0%,0%);fill-opacity:1;" d="M 208.386719 139.785156 L 208.386719 132.191406 L 214.152344 132.191406 L 214.152344 133.03125 L 209.417969 133.03125 L 209.417969 135.46875 L 213.828125 135.46875 L 213.828125 136.296875 L 209.417969 136.296875 L 209.417969 138.945312 L 214.371094 138.945312 L 214.371094 139.785156 Z M 208.386719 139.785156 "/>
<path style=" stroke:none;fill-rule:nonzero;fill:rgb(0%,0%,0%);fill-opacity:1;" d="M 209.417969 181.941406 L 209.417969 184.765625 L 213.65625 184.765625 L 213.65625 185.617188 L 209.417969 185.617188 L 209.417969 188.695312 L 208.386719 188.695312 L 208.386719 181.101562 L 213.785156 181.101562 L 213.785156 181.941406 Z M 209.417969 181.941406 "/>
<path style=" stroke:none;fill-rule:nonzero;fill:rgb(0%,0%,0%);fill-opacity:1;" d="M 236.917969 160.410156 L 236.917969 160.234375 L 236.925781 160.058594 L 236.9375 159.890625 L 236.976562 159.5625 L 237.003906 159.402344 L 237.035156 159.246094 L 237.070312 159.097656 L 237.109375 158.949219 L 237.15625 158.800781 L 237.207031 158.660156 L 237.261719 158.523438 L 237.320312 158.390625 L 237.386719 158.261719 L 237.527344 158.019531 L 237.609375 157.902344 L 237.691406 157.792969 L 237.777344 157.6875 L 237.871094 157.585938 L 237.96875 157.484375 L 238.074219 157.390625 L 238.179688 157.300781 L 238.292969 157.214844 L 238.40625 157.136719 L 238.527344 157.0625 L 238.652344 156.992188 L 238.785156 156.925781 L 238.917969 156.863281 L 239.199219 156.753906 L 239.347656 156.707031 L 239.5 156.667969 L 239.660156 156.632812 L 239.820312 156.601562 L 239.984375 156.578125 L 240.15625 156.558594 L 240.332031 156.542969 L 240.511719 156.535156 L 240.695312 156.53125 L 240.835938 156.535156 L 241.101562 156.542969 L 241.230469 156.554688 L 241.355469 156.5625 L 241.476562 156.578125 L 241.59375 156.59375 L 241.707031 156.613281 L 241.816406 156.632812 L 241.925781 156.65625 L 242.03125 156.683594 L 242.128906 156.710938 L 242.230469 156.742188 L 242.324219 156.773438 L 242.417969 156.808594 L 242.507812 156.84375 L 242.597656 156.882812 L 242.761719 156.96875 L 242.839844 157.011719 L 242.917969 157.058594 L 242.992188 157.109375 L 243.0625 157.160156 L 243.132812 157.214844 L 243.199219 157.269531 L 243.265625 157.328125 L 243.328125 157.386719 L 243.445312 157.511719 L 243.5 157.578125 L 243.550781 157.644531 L 243.605469 157.714844 L 243.652344 157.785156 L 243.703125 157.855469 L 243.75 157.929688 L 243.792969 158.003906 L 243.878906 158.160156 L 243.957031 158.324219 L 242.976562 158.613281 L 242.949219 158.558594 L 242.886719 158.449219 L 242.855469 158.398438 L 242.75 158.246094 L 242.714844 158.199219 L 242.636719 158.105469 L 242.597656 158.0625 L 242.554688 158.015625 L 242.511719 157.972656 L 242.46875 157.933594 L 242.421875 157.894531 L 242.371094 157.855469 L 242.324219 157.816406 L 242.269531 157.78125 L 242.21875 157.746094 L 242.164062 157.714844 L 242.046875 157.652344 L 241.859375 157.570312 L 241.726562 157.523438 L 241.65625 157.503906 L 241.582031 157.484375 L 241.511719 157.464844 L 241.4375 157.449219 L 241.28125 157.417969 L 241.199219 157.40625 L 241.117188 157.398438 L 241.03125 157.386719 L 240.945312 157.382812 L 240.855469 157.378906 L 240.761719 157.375 L 240.53125 157.375 L 240.398438 157.382812 L 240.269531 157.394531 L 240.144531 157.410156 L 240.023438 157.429688 L 239.90625 157.453125 L 239.789062 157.480469 L 239.679688 157.511719 L 239.570312 157.546875 L 239.367188 157.632812 L 239.269531 157.683594 L 239.179688 157.734375 L 239.089844 157.792969 L 239.003906 157.851562 L 238.921875 157.914062 L 238.84375 157.980469 L 238.765625 158.050781 L 238.695312 158.125 L 238.625 158.203125 L 238.5625 158.285156 L 238.5 158.371094 L 238.441406 158.457031 L 238.332031 158.644531 L 238.238281 158.839844 L 238.199219 158.945312 L 238.160156 159.054688 L 238.125 159.164062 L 238.09375 159.277344 L 238.066406 159.394531 L 238.042969 159.511719 L 238.019531 159.632812 L 238.003906 159.753906 L 237.988281 159.882812 L 237.976562 160.007812 L 237.96875 160.140625 L 237.964844 160.273438 L 237.964844 160.542969 L 237.96875 160.679688 L 237.992188 160.9375 L 238.007812 161.066406 L 238.027344 161.191406 L 238.050781 161.3125 L 238.078125 161.429688 L 238.105469 161.550781 L 238.140625 161.664062 L 238.179688 161.777344 L 238.21875 161.886719 L 238.261719 161.992188 L 238.3125 162.09375 L 238.363281 162.191406 L 238.417969 162.289062 L 238.472656 162.382812 L 238.535156 162.472656 L 238.601562 162.5625 L 238.667969 162.644531 L 238.742188 162.726562 L 238.816406 162.800781 L 238.894531 162.875 L 238.976562 162.945312 L 239.0625 163.011719 L 239.148438 163.074219 L 239.242188 163.132812 L 239.335938 163.1875 L 239.433594 163.238281 L 239.539062 163.289062 L 239.644531 163.332031 L 239.753906 163.367188 L 239.867188 163.402344 L 239.980469 163.433594 L 240.101562 163.457031 L 240.222656 163.476562 L 240.347656 163.492188 L 240.476562 163.503906 L 240.609375 163.511719 L 240.921875 163.511719 L 241.007812 163.507812 L 241.089844 163.5 L 241.175781 163.496094 L 241.257812 163.488281 L 241.492188 163.453125 L 241.570312 163.4375 L 241.71875 163.40625 L 241.789062 163.390625 L 241.929688 163.351562 L 242.0625 163.3125 L 242.25 163.242188 L 242.367188 163.195312 L 242.425781 163.167969 L 242.589844 163.085938 L 242.742188 163.003906 L 242.789062 162.972656 L 242.832031 162.945312 L 242.878906 162.914062 L 242.917969 162.882812 L 242.960938 162.855469 L 243.039062 162.792969 L 243.074219 162.761719 L 243.109375 162.734375 L 243.144531 162.703125 L 243.175781 162.671875 L 243.175781 161.304688 L 240.90625 161.304688 L 240.90625 160.441406 L 244.125 160.441406 L 244.125 163.0625 L 244.074219 163.113281 L 243.964844 163.214844 L 243.90625 163.265625 L 243.847656 163.3125 L 243.789062 163.363281 L 243.726562 163.414062 L 243.59375 163.507812 L 243.527344 163.558594 L 243.457031 163.601562 L 243.386719 163.648438 L 243.316406 163.691406 L 243.242188 163.734375 L 243.164062 163.773438 L 243.085938 163.816406 L 243.007812 163.855469 L 242.925781 163.894531 L 242.761719 163.964844 L 242.675781 164 L 242.585938 164.035156 L 242.40625 164.097656 L 242.316406 164.125 L 242.21875 164.152344 L 242.125 164.179688 L 241.929688 164.226562 L 241.726562 164.265625 L 241.621094 164.285156 L 241.519531 164.300781 L 241.410156 164.3125 L 241.304688 164.324219 L 241.085938 164.339844 L 240.859375 164.347656 L 240.554688 164.347656 L 240.371094 164.335938 L 240.191406 164.324219 L 240.015625 164.300781 L 239.847656 164.277344 L 239.679688 164.246094 L 239.519531 164.207031 L 239.363281 164.164062 L 239.214844 164.113281 L 239.066406 164.058594 L 238.925781 163.996094 L 238.789062 163.929688 L 238.660156 163.859375 L 238.53125 163.785156 L 238.410156 163.703125 L 238.292969 163.621094 L 238.179688 163.53125 L 238.074219 163.4375 L 237.96875 163.339844 L 237.871094 163.238281 L 237.777344 163.132812 L 237.691406 163.019531 L 237.527344 162.785156 L 237.386719 162.535156 L 237.320312 162.402344 L 237.261719 162.269531 L 237.207031 162.128906 L 237.15625 161.988281 L 237.109375 161.84375 L 237.070312 161.695312 L 237.035156 161.542969 L 237.003906 161.390625 L 236.976562 161.230469 L 236.957031 161.074219 L 236.9375 160.910156 L 236.925781 160.746094 L 236.917969 160.578125 Z M 236.917969 160.410156 "/>
<path style=" stroke:none;fill-rule:nonzero;fill:rgb(0%,0%,0%);fill-opacity:1;" d="M 177.425781 213.152344 L 177.425781 209.632812 L 173.320312 209.632812 L 173.320312 213.152344 L 172.289062 213.152344 L 172.289062 205.554688 L 173.320312 205.554688 L 173.320312 208.769531 L 177.425781 208.769531 L 177.425781 205.554688 L 178.457031 205.554688 L 178.457031 213.152344 Z M 177.425781 213.152344 "/>
<path style=" stroke:none;fill-rule:nonzero;fill:rgb(0%,0%,0%);fill-opacity:1;" d="M 237.382812 310.972656 L 237.382812 303.375 L 238.410156 303.375 L 238.410156 310.972656 Z M 237.382812 310.972656 "/>
<path style=" stroke:none;fill-rule:nonzero;fill:rgb(0%,0%,0%);fill-opacity:1;" d="M 227.996094 286.625 L 227.816406 286.617188 L 227.640625 286.605469 L 227.472656 286.582031 L 227.3125 286.546875 L 227.15625 286.503906 L 227.007812 286.453125 L 226.867188 286.390625 L 226.730469 286.316406 L 226.601562 286.234375 L 226.480469 286.144531 L 226.367188 286.042969 L 226.261719 285.929688 L 226.164062 285.804688 L 226.074219 285.671875 L 225.992188 285.527344 L 225.917969 285.367188 L 225.855469 285.199219 L 225.796875 285.019531 L 225.746094 284.832031 L 225.703125 284.628906 L 226.710938 284.460938 L 226.722656 284.53125 L 226.738281 284.597656 L 226.75 284.664062 L 226.765625 284.726562 L 226.785156 284.789062 L 226.824219 284.90625 L 226.84375 284.960938 L 226.867188 285.015625 L 226.890625 285.066406 L 226.917969 285.113281 L 226.941406 285.160156 L 226.96875 285.207031 L 226.996094 285.25 L 227.027344 285.292969 L 227.089844 285.371094 L 227.152344 285.441406 L 227.1875 285.476562 L 227.222656 285.507812 L 227.257812 285.535156 L 227.292969 285.566406 L 227.332031 285.589844 L 227.371094 285.617188 L 227.40625 285.640625 L 227.445312 285.660156 L 227.488281 285.679688 L 227.527344 285.695312 L 227.570312 285.714844 L 227.65625 285.738281 L 227.695312 285.75 L 227.738281 285.761719 L 227.824219 285.777344 L 227.871094 285.78125 L 227.957031 285.789062 L 228 285.789062 L 228.109375 285.785156 L 228.214844 285.773438 L 228.316406 285.753906 L 228.410156 285.726562 L 228.503906 285.691406 L 228.589844 285.652344 L 228.667969 285.601562 L 228.746094 285.542969 L 228.816406 285.476562 L 228.886719 285.40625 L 228.945312 285.324219 L 229 285.234375 L 229.050781 285.140625 L 229.09375 285.039062 L 229.128906 284.929688 L 229.15625 284.8125 L 229.179688 284.6875 L 229.195312 284.558594 L 229.207031 284.417969 L 229.207031 279.761719 L 227.746094 279.761719 L 227.746094 278.921875 L 230.234375 278.921875 L 230.234375 284.253906 L 230.226562 284.464844 L 230.21875 284.570312 L 230.207031 284.671875 L 230.195312 284.769531 L 230.179688 284.867188 L 230.160156 284.960938 L 230.136719 285.054688 L 230.082031 285.234375 L 230.050781 285.320312 L 229.980469 285.484375 L 229.894531 285.640625 L 229.851562 285.710938 L 229.800781 285.785156 L 229.75 285.851562 L 229.640625 285.984375 L 229.582031 286.042969 L 229.519531 286.101562 L 229.457031 286.152344 L 229.390625 286.207031 L 229.25 286.300781 L 229.175781 286.34375 L 229.101562 286.382812 L 229.019531 286.421875 L 228.9375 286.457031 L 228.855469 286.488281 L 228.769531 286.515625 L 228.679688 286.542969 L 228.589844 286.5625 L 228.496094 286.582031 L 228.398438 286.597656 L 228.300781 286.609375 L 228.203125 286.617188 L 228.101562 286.621094 Z M 227.996094 286.625 "/>
<path style=" stroke:none;fill-rule:nonzero;fill:rgb(0%,0%,0%);fill-opacity:1;" d="M 162.90625 262.0625 L 159.871094 258.394531 L 158.878906 259.148438 L 158.878906 262.0625 L 157.847656 262.0625 L 157.847656 254.464844 L 158.878906 254.464844 L 158.878906 258.273438 L 162.539062 254.464844 L 163.75 254.464844 L 160.515625 257.765625 L 164.183594 262.0625 Z M 162.90625 262.0625 "/>
<path style=" stroke:none;fill-rule:nonzero;fill:rgb(0%,0%,0%);fill-opacity:1;" d="M 157.847656 237.605469 L 157.847656 230.011719 L 158.878906 230.011719 L 158.878906 236.765625 L 162.714844 236.765625 L 162.714844 237.605469 Z M 157.847656 237.605469 "/>
<path style=" stroke:none;fill-rule:nonzero;fill:rgb(0%,0%,0%);fill-opacity:1;" d="M 243.726562 335.425781 L 243.726562 329.96875 L 243.730469 329.914062 L 243.730469 329.742188 L 243.734375 329.6875 L 243.734375 329.578125 L 243.738281 329.523438 L 243.738281 329.472656 L 243.742188 329.421875 L 243.742188 329.371094 L 243.746094 329.324219 L 243.746094 329.277344 L 243.75 329.21875 L 243.75 329.167969 L 243.757812 329.058594 L 243.757812 329.003906 L 243.761719 328.953125 L 243.765625 328.898438 L 243.769531 328.847656 L 243.769531 328.792969 L 243.773438 328.742188 L 243.648438 329.179688 L 243.632812 329.230469 L 243.617188 329.285156 L 243.605469 329.332031 L 243.589844 329.378906 L 243.574219 329.429688 L 243.558594 329.476562 L 243.542969 329.527344 L 243.527344 329.574219 L 243.511719 329.625 L 243.496094 329.679688 L 243.476562 329.730469 L 243.414062 329.933594 L 243.398438 329.980469 L 243.378906 330.027344 L 243.347656 330.121094 L 243.300781 330.25 L 241.335938 335.425781 L 240.617188 335.425781 L 238.625 330.25 L 238.621094 330.234375 L 238.613281 330.21875 L 238.605469 330.199219 L 238.597656 330.183594 L 238.59375 330.164062 L 238.570312 330.105469 L 238.5625 330.082031 L 238.554688 330.0625 L 238.550781 330.039062 L 238.542969 330.019531 L 238.527344 329.972656 L 238.519531 329.953125 L 238.472656 329.8125 L 238.464844 329.785156 L 238.449219 329.738281 L 238.441406 329.710938 L 238.425781 329.664062 L 238.417969 329.636719 L 238.410156 329.613281 L 238.398438 329.589844 L 238.382812 329.535156 L 238.378906 329.511719 L 238.371094 329.484375 L 238.363281 329.460938 L 238.355469 329.433594 L 238.347656 329.410156 L 238.339844 329.382812 L 238.304688 329.277344 L 238.289062 329.21875 L 238.25 329.101562 L 238.234375 329.042969 L 238.214844 328.984375 L 238.199219 328.925781 L 238.179688 328.863281 L 238.164062 328.804688 L 238.144531 328.742188 L 238.148438 328.800781 L 238.148438 328.921875 L 238.152344 328.984375 L 238.152344 329.042969 L 238.15625 329.101562 L 238.15625 329.160156 L 238.160156 329.222656 L 238.160156 329.28125 L 238.164062 329.339844 L 238.164062 329.390625 L 238.167969 329.441406 L 238.167969 329.496094 L 238.171875 329.546875 L 238.171875 329.652344 L 238.175781 329.707031 L 238.175781 329.816406 L 238.179688 329.875 L 238.179688 330.03125 L 238.183594 330.082031 L 238.183594 335.425781 L 237.269531 335.425781 L 237.269531 327.832031 L 238.621094 327.832031 L 240.640625 333.097656 L 240.65625 333.144531 L 240.667969 333.167969 L 240.691406 333.25 L 240.714844 333.3125 L 240.722656 333.34375 L 240.734375 333.378906 L 240.746094 333.410156 L 240.753906 333.445312 L 240.765625 333.480469 L 240.777344 333.511719 L 240.785156 333.546875 L 240.808594 333.617188 L 240.816406 333.652344 L 240.828125 333.6875 L 240.835938 333.722656 L 240.847656 333.757812 L 240.863281 333.828125 L 240.875 333.863281 L 240.882812 333.894531 L 240.898438 333.964844 L 240.90625 333.996094 L 240.914062 334.03125 L 240.929688 334.09375 L 240.953125 334.175781 L 240.957031 334.199219 L 240.964844 334.222656 L 240.96875 334.246094 L 240.980469 334.304688 L 240.992188 334.246094 L 241 334.222656 L 241.003906 334.199219 L 241.011719 334.175781 L 241.019531 334.148438 L 241.023438 334.117188 L 241.03125 334.089844 L 241.042969 334.058594 L 241.050781 334.023438 L 241.058594 333.992188 L 241.066406 333.957031 L 241.078125 333.925781 L 241.085938 333.890625 L 241.097656 333.855469 L 241.105469 333.824219 L 241.128906 333.753906 L 241.136719 333.71875 L 241.148438 333.683594 L 241.160156 333.644531 L 241.171875 333.613281 L 241.21875 333.472656 L 241.230469 333.441406 L 241.242188 333.40625 L 241.25 333.371094 L 241.273438 333.308594 L 241.28125 333.277344 L 241.292969 333.246094 L 241.300781 333.21875 L 241.3125 333.191406 L 241.320312 333.167969 L 241.332031 333.144531 L 241.347656 333.097656 L 243.332031 327.832031 L 244.652344 327.832031 L 244.652344 335.425781 Z M 243.726562 335.425781 "/>
<path style=" stroke:none;fill-rule:nonzero;fill:rgb(0%,0%,0%);fill-opacity:1;" d="M 18.9375 22.042969 L 17.835938 19.226562 L 13.445312 19.226562 L 12.339844 22.042969 L 10.984375 22.042969 L 14.917969 12.410156 L 16.398438 12.410156 L 20.269531 22.042969 Z M 16.207031 15.03125 L 16.1875 14.976562 L 16.164062 14.921875 L 16.144531 14.863281 L 16.121094 14.808594 L 16.082031 14.699219 L 16.058594 14.644531 L 16.039062 14.585938 L 16.015625 14.53125 L 15.976562 14.421875 L 15.960938 14.367188 L 15.941406 14.3125 L 15.921875 14.261719 L 15.875 14.109375 L 15.855469 14.0625 L 15.824219 13.96875 L 15.8125 13.925781 L 15.796875 13.878906 L 15.78125 13.839844 L 15.769531 13.796875 L 15.757812 13.757812 L 15.742188 13.722656 L 15.730469 13.683594 L 15.71875 13.652344 L 15.707031 13.617188 L 15.695312 13.585938 L 15.671875 13.503906 L 15.664062 13.480469 L 15.660156 13.460938 L 15.652344 13.441406 L 15.648438 13.425781 L 15.644531 13.414062 L 15.644531 13.402344 L 15.640625 13.394531 L 15.636719 13.402344 L 15.628906 13.425781 L 15.625 13.441406 L 15.621094 13.460938 L 15.613281 13.480469 L 15.605469 13.503906 L 15.589844 13.558594 L 15.578125 13.585938 L 15.570312 13.621094 L 15.558594 13.652344 L 15.546875 13.6875 L 15.535156 13.726562 L 15.523438 13.761719 L 15.511719 13.804688 L 15.496094 13.84375 L 15.464844 13.929688 L 15.417969 14.070312 L 15.386719 14.171875 L 15.367188 14.222656 L 15.351562 14.273438 L 15.332031 14.324219 L 15.273438 14.488281 L 15.253906 14.546875 L 15.195312 14.710938 L 15.175781 14.769531 L 15.136719 14.878906 L 15.113281 14.933594 L 15.074219 15.042969 L 13.84375 18.207031 L 17.445312 18.207031 Z M 16.207031 15.03125 "/>
<g clip-path="url(#clip3)" clip-rule="nonzero">
<path style="fill-rule:nonzero;fill:rgb(100%,100%,100%);fill-opacity:1;stroke-width:1.066978;stroke-linecap:round;stroke-linejoin:round;stroke:rgb(100%,100%,100%);stroke-opacity:1;stroke-miterlimit:10;" d="M 252 354.519531 L 498.519531 354.519531 L 498.519531 5.476562 L 252 5.476562 Z M 252 354.519531 "/>
</g>
<g clip-path="url(#clip4)" clip-rule="nonzero">
<path style="fill-rule:nonzero;fill:rgb(100%,100%,100%);fill-opacity:1;stroke-width:1.066978;stroke-linecap:round;stroke-linejoin:round;stroke:rgb(100%,100%,100%);stroke-opacity:1;stroke-miterlimit:10;" d="M 269.558594 346.300781 L 493.042969 346.300781 L 493.042969 23.496094 L 269.558594 23.496094 Z M 269.558594 346.300781 "/>
</g>
<path style="fill:none;stroke-width:1.066978;stroke-linecap:round;stroke-linejoin:round;stroke:rgb(0%,0%,0%);stroke-opacity:1;stroke-miterlimit:10;" d="M 454.21875 305.949219 L 478.199219 305.949219 "/>
<path style="fill:none;stroke-width:1.066978;stroke-linecap:round;stroke-linejoin:round;stroke:rgb(0%,0%,0%);stroke-opacity:1;stroke-miterlimit:10;" d="M 454.21875 225.25 L 463.8125 225.25 "/>
<path style="fill:none;stroke-width:1.066978;stroke-linecap:round;stroke-linejoin:round;stroke:rgb(0%,0%,0%);stroke-opacity:1;stroke-miterlimit:10;" d="M 319.917969 144.546875 L 372.679688 144.546875 "/>
<path style="fill:none;stroke-width:1.066978;stroke-linecap:round;stroke-linejoin:round;stroke:rgb(0%,0%,0%);stroke-opacity:1;stroke-miterlimit:10;" d="M 319.917969 63.847656 L 372.679688 63.847656 "/>
<g clip-path="url(#clip5)" clip-rule="nonzero">
<path style="fill:none;stroke-width:1.066978;stroke-linecap:round;stroke-linejoin:round;stroke:rgb(0%,0%,0%);stroke-opacity:1;stroke-miterlimit:10;" d="M 228.789062 184.898438 L 310.328125 184.898438 "/>
</g>
<path style="fill:none;stroke-width:1.066978;stroke-linecap:round;stroke-linejoin:round;stroke:rgb(0%,0%,0%);stroke-opacity:1;stroke-miterlimit:10;" d="M 310.328125 265.601562 L 454.21875 265.601562 "/>
<path style="fill:none;stroke-width:1.066978;stroke-linecap:round;stroke-linejoin:round;stroke:rgb(0%,0%,0%);stroke-opacity:1;stroke-miterlimit:10;" d="M 310.328125 104.199219 L 319.917969 104.199219 "/>
<path style="fill:none;stroke-width:1.066978;stroke-linecap:round;stroke-linejoin:round;stroke:rgb(0%,0%,0%);stroke-opacity:1;stroke-miterlimit:10;" d="M 454.21875 265.601562 L 454.21875 305.949219 "/>
<path style="fill:none;stroke-width:1.066978;stroke-linecap:round;stroke-linejoin:round;stroke:rgb(0%,0%,0%);stroke-opacity:1;stroke-miterlimit:10;" d="M 454.21875 265.601562 L 454.21875 225.25 "/>
<path style="fill:none;stroke-width:1.066978;stroke-linecap:round;stroke-linejoin:round;stroke:rgb(0%,0%,0%);stroke-opacity:1;stroke-miterlimit:10;" d="M 319.917969 104.199219 L 319.917969 144.546875 "/>
<path style="fill:none;stroke-width:1.066978;stroke-linecap:round;stroke-linejoin:round;stroke:rgb(0%,0%,0%);stroke-opacity:1;stroke-miterlimit:10;" d="M 319.917969 104.199219 L 319.917969 63.847656 "/>
<path style="fill:none;stroke-width:1.066978;stroke-linecap:round;stroke-linejoin:round;stroke:rgb(0%,0%,0%);stroke-opacity:1;stroke-miterlimit:10;" d="M 310.328125 184.898438 L 310.328125 265.601562 "/>
<path style="fill:none;stroke-width:1.066978;stroke-linecap:round;stroke-linejoin:round;stroke:rgb(0%,0%,0%);stroke-opacity:1;stroke-miterlimit:10;" d="M 310.328125 184.898438 L 310.328125 104.199219 "/>
<path style=" stroke:none;fill-rule:nonzero;fill:rgb(0%,0%,0%);fill-opacity:1;" d="M 480.5625 309.75 L 480.5625 302.152344 L 481.59375 302.152344 L 481.59375 309.75 Z M 480.5625 309.75 "/>
<path style=" stroke:none;fill-rule:nonzero;fill:rgb(0%,0%,0%);fill-opacity:1;" d="M 467.617188 229.15625 L 467.4375 229.148438 L 467.261719 229.136719 L 467.09375 229.113281 L 466.933594 229.078125 L 466.777344 229.035156 L 466.628906 228.980469 L 466.488281 228.917969 L 466.355469 228.847656 L 466.226562 228.765625 L 466.101562 228.675781 L 465.988281 228.574219 L 465.882812 228.460938 L 465.785156 228.335938 L 465.695312 228.203125 L 465.617188 228.054688 L 465.542969 227.898438 L 465.476562 227.730469 L 465.417969 227.550781 L 465.367188 227.363281 L 465.328125 227.160156 L 466.335938 226.992188 L 466.347656 227.0625 L 466.359375 227.128906 L 466.375 227.195312 L 466.40625 227.320312 L 466.445312 227.4375 L 466.464844 227.492188 L 466.488281 227.546875 L 466.511719 227.597656 L 466.59375 227.738281 L 466.648438 227.824219 L 466.710938 227.902344 L 466.742188 227.9375 L 466.777344 227.972656 L 466.808594 228.007812 L 466.84375 228.039062 L 466.878906 228.066406 L 466.917969 228.097656 L 466.953125 228.121094 L 466.992188 228.148438 L 467.03125 228.167969 L 467.070312 228.191406 L 467.109375 228.210938 L 467.152344 228.226562 L 467.191406 228.242188 L 467.234375 228.257812 L 467.363281 228.292969 L 467.449219 228.308594 L 467.578125 228.320312 L 467.625 228.320312 L 467.734375 228.316406 L 467.839844 228.304688 L 467.9375 228.285156 L 468.035156 228.257812 L 468.125 228.222656 L 468.210938 228.179688 L 468.292969 228.132812 L 468.367188 228.074219 L 468.441406 228.007812 L 468.507812 227.9375 L 468.570312 227.855469 L 468.625 227.765625 L 468.671875 227.671875 L 468.714844 227.570312 L 468.75 227.460938 L 468.78125 227.34375 L 468.800781 227.21875 L 468.816406 227.085938 L 468.828125 226.949219 L 468.832031 226.804688 L 468.832031 222.292969 L 467.371094 222.292969 L 467.371094 221.453125 L 469.855469 221.453125 L 469.855469 226.890625 L 469.839844 227.101562 L 469.832031 227.203125 L 469.800781 227.398438 L 469.78125 227.492188 L 469.757812 227.585938 L 469.734375 227.675781 L 469.703125 227.765625 L 469.671875 227.851562 L 469.601562 228.015625 L 469.5625 228.09375 L 469.519531 228.167969 L 469.425781 228.316406 L 469.375 228.382812 L 469.320312 228.449219 L 469.203125 228.574219 L 469.144531 228.628906 L 469.011719 228.738281 L 468.945312 228.785156 L 468.871094 228.832031 L 468.800781 228.875 L 468.644531 228.953125 L 468.5625 228.988281 L 468.476562 229.019531 L 468.390625 229.046875 L 468.300781 229.074219 L 468.210938 229.09375 L 468.117188 229.113281 L 468.023438 229.128906 L 467.925781 229.140625 L 467.824219 229.148438 L 467.722656 229.152344 Z M 467.617188 229.15625 "/>
<path style=" stroke:none;fill-rule:nonzero;fill:rgb(0%,0%,0%);fill-opacity:1;" d="M 379.984375 148.34375 L 376.949219 144.679688 L 375.957031 145.433594 L 375.957031 148.34375 L 374.929688 148.34375 L 374.929688 140.75 L 375.957031 140.75 L 375.957031 144.554688 L 379.617188 140.75 L 380.832031 140.75 L 377.597656 144.050781 L 381.261719 148.34375 Z M 379.984375 148.34375 "/>
<path style=" stroke:none;fill-rule:nonzero;fill:rgb(0%,0%,0%);fill-opacity:1;" d="M 374.929688 67.644531 L 374.929688 60.050781 L 375.957031 60.050781 L 375.957031 66.804688 L 379.796875 66.804688 L 379.796875 67.644531 Z M 374.929688 67.644531 "/>
<path style=" stroke:none;fill-rule:nonzero;fill:rgb(0%,0%,0%);fill-opacity:1;" d="M 266.078125 19.328125 L 266.078125 19.472656 L 266.066406 19.613281 L 266.054688 19.75 L 266.007812 20.007812 L 265.976562 20.132812 L 265.9375 20.25 L 265.894531 20.363281 L 265.847656 20.472656 L 265.792969 20.582031 L 265.734375 20.679688 L 265.667969 20.777344 L 265.601562 20.871094 L 265.53125 20.960938 L 265.457031 21.046875 L 265.375 21.128906 L 265.292969 21.207031 L 265.207031 21.28125 L 265.113281 21.355469 L 265.019531 21.421875 L 264.921875 21.484375 L 264.820312 21.542969 L 264.714844 21.597656 L 264.605469 21.652344 L 264.496094 21.699219 L 264.378906 21.746094 L 264.261719 21.789062 L 264.019531 21.859375 L 263.890625 21.894531 L 263.761719 21.921875 L 263.632812 21.945312 L 263.5 21.96875 L 263.367188 21.988281 L 263.230469 22.003906 L 263.097656 22.019531 L 262.957031 22.03125 L 262.820312 22.039062 L 262.679688 22.042969 L 258.628906 22.042969 L 258.628906 12.410156 L 262.128906 12.410156 L 262.441406 12.417969 L 262.59375 12.425781 L 262.742188 12.433594 L 262.886719 12.445312 L 263.027344 12.460938 L 263.164062 12.480469 L 263.296875 12.5 L 263.429688 12.523438 L 263.554688 12.546875 L 263.679688 12.574219 L 263.800781 12.605469 L 263.917969 12.640625 L 264.027344 12.675781 L 264.136719 12.71875 L 264.242188 12.761719 L 264.34375 12.808594 L 264.441406 12.855469 L 264.535156 12.910156 L 264.621094 12.964844 L 264.707031 13.023438 L 264.789062 13.085938 L 264.867188 13.152344 L 264.9375 13.21875 L 265.007812 13.292969 L 265.070312 13.367188 L 265.132812 13.445312 L 265.1875 13.523438 L 265.238281 13.609375 L 265.285156 13.695312 L 265.332031 13.785156 L 265.371094 13.878906 L 265.40625 13.976562 L 265.433594 14.074219 L 265.460938 14.179688 L 265.480469 14.285156 L 265.496094 14.394531 L 265.507812 14.511719 L 265.515625 14.628906 L 265.519531 14.75 L 265.515625 14.828125 L 265.515625 14.910156 L 265.507812 14.988281 L 265.5 15.0625 L 265.488281 15.140625 L 265.476562 15.214844 L 265.445312 15.363281 L 265.425781 15.4375 L 265.355469 15.648438 L 265.324219 15.714844 L 265.296875 15.78125 L 265.226562 15.914062 L 265.148438 16.039062 L 265.105469 16.097656 L 265.058594 16.15625 L 265.015625 16.214844 L 264.914062 16.324219 L 264.804688 16.425781 L 264.746094 16.476562 L 264.621094 16.570312 L 264.554688 16.613281 L 264.484375 16.65625 L 264.417969 16.695312 L 264.34375 16.734375 L 264.195312 16.804688 L 264.117188 16.835938 L 264.035156 16.867188 L 263.949219 16.894531 L 263.777344 16.941406 L 263.6875 16.964844 L 263.914062 16.996094 L 264.023438 17.015625 L 264.128906 17.039062 L 264.234375 17.066406 L 264.335938 17.09375 L 264.433594 17.125 L 264.527344 17.15625 L 264.621094 17.191406 L 264.710938 17.230469 L 264.800781 17.273438 L 264.886719 17.316406 L 264.96875 17.359375 L 265.046875 17.40625 L 265.125 17.457031 L 265.199219 17.507812 L 265.269531 17.5625 L 265.335938 17.617188 L 265.402344 17.675781 L 265.464844 17.738281 L 265.523438 17.800781 L 265.578125 17.863281 L 265.632812 17.929688 L 265.679688 18 L 265.730469 18.070312 L 265.816406 18.21875 L 265.851562 18.292969 L 265.890625 18.375 L 265.921875 18.453125 L 265.953125 18.535156 L 265.976562 18.617188 L 266.003906 18.703125 L 266.023438 18.789062 L 266.039062 18.875 L 266.054688 18.964844 L 266.066406 19.050781 L 266.074219 19.144531 L 266.078125 19.234375 Z M 264.207031 14.90625 L 264.199219 14.753906 L 264.183594 14.613281 L 264.15625 14.480469 L 264.121094 14.355469 L 264.074219 14.238281 L 264.015625 14.132812 L 263.945312 14.035156 L 263.863281 13.945312 L 263.773438 13.863281 L 263.671875 13.792969 L 263.5625 13.730469 L 263.441406 13.671875 L 263.308594 13.621094 L 263.167969 13.578125 L 263.019531 13.542969 L 262.859375 13.511719 L 262.691406 13.488281 L 262.511719 13.472656 L 262.324219 13.460938 L 262.128906 13.457031 L 259.933594 13.457031 L 259.933594 16.507812 L 262.128906 16.507812 L 262.242188 16.503906 L 262.351562 16.5 L 262.457031 16.496094 L 262.558594 16.488281 L 262.65625 16.480469 L 262.753906 16.46875 L 262.933594 16.4375 L 263.097656 16.398438 L 263.175781 16.371094 L 263.25 16.347656 L 263.324219 16.320312 L 263.457031 16.257812 L 263.519531 16.226562 L 263.578125 16.191406 L 263.636719 16.152344 L 263.691406 16.117188 L 263.742188 16.074219 L 263.835938 15.988281 L 263.875 15.941406 L 263.917969 15.894531 L 263.988281 15.792969 L 264.019531 15.738281 L 264.074219 15.628906 L 264.097656 15.570312 L 264.117188 15.511719 L 264.136719 15.449219 L 264.167969 15.324219 L 264.179688 15.257812 L 264.1875 15.191406 L 264.203125 15.050781 L 264.203125 14.980469 Z M 264.757812 19.226562 L 264.757812 19.136719 L 264.753906 19.050781 L 264.746094 18.964844 L 264.730469 18.882812 L 264.71875 18.804688 L 264.699219 18.726562 L 264.675781 18.652344 L 264.621094 18.511719 L 264.589844 18.449219 L 264.554688 18.382812 L 264.476562 18.265625 L 264.433594 18.210938 L 264.386719 18.15625 L 264.285156 18.054688 L 264.230469 18.007812 L 264.171875 17.964844 L 264.109375 17.921875 L 264.046875 17.882812 L 263.980469 17.84375 L 263.839844 17.773438 L 263.761719 17.742188 L 263.6875 17.714844 L 263.605469 17.6875 L 263.523438 17.664062 L 263.4375 17.640625 L 263.351562 17.621094 L 263.261719 17.601562 L 263.171875 17.585938 L 263.078125 17.570312 L 262.984375 17.558594 L 262.886719 17.546875 L 262.789062 17.539062 L 262.683594 17.535156 L 262.582031 17.527344 L 262.476562 17.527344 L 262.367188 17.523438 L 259.933594 17.523438 L 259.933594 20.996094 L 262.664062 20.996094 L 262.761719 20.988281 L 262.855469 20.984375 L 262.949219 20.976562 L 263.039062 20.96875 L 263.128906 20.957031 L 263.214844 20.945312 L 263.386719 20.914062 L 263.46875 20.898438 L 263.550781 20.878906 L 263.628906 20.855469 L 263.703125 20.832031 L 263.777344 20.800781 L 263.851562 20.773438 L 263.917969 20.742188 L 263.984375 20.707031 L 264.050781 20.667969 L 264.109375 20.628906 L 264.171875 20.585938 L 264.28125 20.492188 L 264.335938 20.441406 L 264.382812 20.390625 L 264.429688 20.332031 L 264.472656 20.273438 L 264.515625 20.210938 L 264.554688 20.148438 L 264.589844 20.082031 L 264.621094 20.011719 L 264.648438 19.9375 L 264.675781 19.859375 L 264.699219 19.78125 L 264.71875 19.695312 L 264.730469 19.609375 L 264.746094 19.519531 L 264.753906 19.425781 L 264.757812 19.328125 Z M 264.757812 19.226562 "/>
</g>
</svg>
