<?xml version="1.0" encoding="UTF-8"?>
<svg xmlns="http://www.w3.org/2000/svg" xmlns:xlink="http://www.w3.org/1999/xlink" width="504pt" height="360pt" viewBox="0 0 504 360" version="1.1">
<defs>
<clipPath id="clip1">
  <path d="M 0 0 L 252 0 L 252 360 L 0 360 Z M 0 0 "/>
</clipPath>
<clipPath id="clip2">
  <path d="M 8.21875 5.480469 L 246.519531 5.480469 L 246.519531 351.78125 L 8.21875 351.78125 Z M 8.21875 5.480469 "/>
</clipPath>
<clipPath id="clip3">
  <path d="M 252 0 L 504 0 L 504 360 L 252 360 Z M 252 0 "/>
</clipPath>
<clipPath id="clip4">
  <path d="M 260.21875 5.480469 L 498.519531 5.480469 L 498.519531 351.78125 L 260.21875 351.78125 Z M 260.21875 5.480469 "/>
</clipPath>
<clipPath id="clip5">
  <path d="M 260.21875 178 L 305 178 L 305 180 L 260.21875 180 Z M 260.21875 178 "/>
</clipPath>
</defs>
<g id="surface958">
<rect x="0" y="0" width="504" height="360" style="fill:rgb(100%,100%,100%);fill-opacity:1;stroke:none;"/>
<path style=" stroke:none;fill-rule:nonzero;fill:rgb(100%,100%,100%);fill-opacity:1;" d="M 0 360 L 252 360 L 252 0 L 0 0 Z M 0 360 "/>
<g clip-path="url(#clip1)" clip-rule="nonzero">
<path style="fill:none;stroke-width:1.066978;stroke-linecap:round;stroke-linejoin:round;stroke:rgb(100%,100%,100%);stroke-opacity:1;stroke-miterlimit:10;" d="M 0 360 L 252 360 L 252 0 L 0 0 Z M 0 360 "/>
</g>
<g clip-path="url(#clip2)" clip-rule="nonzero">
<path style="fill-rule:nonzero;fill:rgb(100%,100%,100%);fill-opacity:1;stroke-width:1.066978;stroke-linecap:round;stroke-linejoin:round;stroke:rgb(100%,100%,100%);stroke-opacity:1;stroke-miterlimit:10;" d="M 8.21875 351.78125 L 246.519531 351.78125 L 246.519531 5.480469 L 8.21875 5.480469 Z M 8.21875 351.78125 "/>
</g>
<path style="fill:none;stroke-width:1.066978;stroke-linecap:round;stroke-linejoin:round;stroke:rgb(0%,0%,0%);stroke-opacity:1;stroke-miterlimit:10;" d="M 188.417969 47.457031 L 203.816406 47.457031 "/>
<path style="fill:none;stroke-width:1.066978;stroke-linecap:round;stroke-linejoin:round;stroke:rgb(0%,0%,0%);stroke-opacity:1;stroke-miterlimit:10;" d="M 188.417969 21.21875 L 203.816406 21.21875 "/>
<path style="fill:none;stroke-width:1.066978;stroke-linecap:round;stroke-linejoin:round;stroke:rgb(0%,0%,0%);stroke-opacity:1;stroke-miterlimit:10;" d="M 165.324219 73.691406 L 184.570312 73.691406 "/>
<path style="fill:none;stroke-width:1.066978;stroke-linecap:round;stroke-linejoin:round;stroke:rgb(0%,0%,0%);stroke-opacity:1;stroke-miterlimit:10;" d="M 134.53125 99.925781 L 157.625 99.925781 "/>
<path style="fill:none;stroke-width:1.066978;stroke-linecap:round;stroke-linejoin:round;stroke:rgb(0%,0%,0%);stroke-opacity:1;stroke-miterlimit:10;" d="M 122.980469 126.160156 L 203.816406 126.160156 "/>
<path style="fill:none;stroke-width:1.066978;stroke-linecap:round;stroke-linejoin:round;stroke:rgb(0%,0%,0%);stroke-opacity:1;stroke-miterlimit:10;" d="M 188.417969 178.628906 L 203.816406 178.628906 "/>
<path style="fill:none;stroke-width:1.066978;stroke-linecap:round;stroke-linejoin:round;stroke:rgb(0%,0%,0%);stroke-opacity:1;stroke-miterlimit:10;" d="M 188.417969 152.394531 L 234.609375 152.394531 "/>
<path style="fill:none;stroke-width:1.066978;stroke-linecap:round;stroke-linejoin:round;stroke:rgb(0%,0%,0%);stroke-opacity:1;stroke-miterlimit:10;" d="M 134.53125 204.863281 L 165.324219 204.863281 "/>
<path style="fill:none;stroke-width:1.066978;stroke-linecap:round;stroke-linejoin:round;stroke:rgb(0%,0%,0%);stroke-opacity:1;stroke-miterlimit:10;" d="M 215.363281 309.804688 L 234.609375 309.804688 "/>
<path style="fill:none;stroke-width:1.066978;stroke-linecap:round;stroke-linejoin:round;stroke:rgb(0%,0%,0%);stroke-opacity:1;stroke-miterlimit:10;" d="M 215.363281 283.570312 L 223.0625 283.570312 "/>
<path style="fill:none;stroke-width:1.066978;stroke-linecap:round;stroke-linejoin:round;stroke:rgb(0%,0%,0%);stroke-opacity:1;stroke-miterlimit:10;" d="M 107.585938 257.335938 L 149.925781 257.335938 "/>
<path style="fill:none;stroke-width:1.066978;stroke-linecap:round;stroke-linejoin:round;stroke:rgb(0%,0%,0%);stroke-opacity:1;stroke-miterlimit:10;" d="M 107.585938 231.101562 L 149.925781 231.101562 "/>
<path style="fill:none;stroke-width:1.066978;stroke-linecap:round;stroke-linejoin:round;stroke:rgb(0%,0%,0%);stroke-opacity:1;stroke-miterlimit:10;" d="M 19.050781 336.039062 L 234.609375 336.039062 "/>
<path style="fill:none;stroke-width:1.066978;stroke-linecap:round;stroke-linejoin:round;stroke:rgb(0%,0%,0%);stroke-opacity:1;stroke-miterlimit:10;" d="M 19.050781 271.476562 L 19.050781 271.476562 "/>
<path style="fill:none;stroke-width:1.066978;stroke-linecap:round;stroke-linejoin:round;stroke:rgb(0%,0%,0%);stroke-opacity:1;stroke-miterlimit:10;" d="M 19.050781 206.914062 L 34.449219 206.914062 "/>
<path style="fill:none;stroke-width:1.066978;stroke-linecap:round;stroke-linejoin:round;stroke:rgb(0%,0%,0%);stroke-opacity:1;stroke-miterlimit:10;" d="M 34.449219 143.375 L 84.488281 143.375 "/>
<path style="fill:none;stroke-width:1.066978;stroke-linecap:round;stroke-linejoin:round;stroke:rgb(0%,0%,0%);stroke-opacity:1;stroke-miterlimit:10;" d="M 84.488281 101.566406 L 122.980469 101.566406 "/>
<path style="fill:none;stroke-width:1.066978;stroke-linecap:round;stroke-linejoin:round;stroke:rgb(0%,0%,0%);stroke-opacity:1;stroke-miterlimit:10;" d="M 122.980469 76.96875 L 134.53125 76.96875 "/>
<path style="fill:none;stroke-width:1.066978;stroke-linecap:round;stroke-linejoin:round;stroke:rgb(0%,0%,0%);stroke-opacity:1;stroke-miterlimit:10;" d="M 134.53125 54.015625 L 165.324219 54.015625 "/>
<path style="fill:none;stroke-width:1.066978;stroke-linecap:round;stroke-linejoin:round;stroke:rgb(0%,0%,0%);stroke-opacity:1;stroke-miterlimit:10;" d="M 165.324219 34.339844 L 188.417969 34.339844 "/>
<path style="fill:none;stroke-width:1.066978;stroke-linecap:round;stroke-linejoin:round;stroke:rgb(0%,0%,0%);stroke-opacity:1;stroke-miterlimit:10;" d="M 84.488281 185.1875 L 134.53125 185.1875 "/>
<path style="fill:none;stroke-width:1.066978;stroke-linecap:round;stroke-linejoin:round;stroke:rgb(0%,0%,0%);stroke-opacity:1;stroke-miterlimit:10;" d="M 134.53125 165.511719 L 188.417969 165.511719 "/>
<path style="fill:none;stroke-width:1.066978;stroke-linecap:round;stroke-linejoin:round;stroke:rgb(0%,0%,0%);stroke-opacity:1;stroke-miterlimit:10;" d="M 34.449219 270.453125 L 99.886719 270.453125 "/>
<path style="fill:none;stroke-width:1.066978;stroke-linecap:round;stroke-linejoin:round;stroke:rgb(0%,0%,0%);stroke-opacity:1;stroke-miterlimit:10;" d="M 99.886719 296.6875 L 215.363281 296.6875 "/>
<path style="fill:none;stroke-width:1.066978;stroke-linecap:round;stroke-linejoin:round;stroke:rgb(0%,0%,0%);stroke-opacity:1;stroke-miterlimit:10;" d="M 99.886719 244.21875 L 107.585938 244.21875 "/>
<path style="fill:none;stroke-width:1.066978;stroke-linecap:round;stroke-linejoin:round;stroke:rgb(0%,0%,0%);stroke-opacity:1;stroke-miterlimit:10;" d="M 188.417969 34.339844 L 188.417969 47.457031 "/>
<path style="fill:none;stroke-width:1.066978;stroke-linecap:round;stroke-linejoin:round;stroke:rgb(0%,0%,0%);stroke-opacity:1;stroke-miterlimit:10;" d="M 188.417969 34.339844 L 188.417969 21.21875 "/>
<path style="fill:none;stroke-width:1.066978;stroke-linecap:round;stroke-linejoin:round;stroke:rgb(0%,0%,0%);stroke-opacity:1;stroke-miterlimit:10;" d="M 165.324219 54.015625 L 165.324219 73.691406 "/>
<path style="fill:none;stroke-width:1.066978;stroke-linecap:round;stroke-linejoin:round;stroke:rgb(0%,0%,0%);stroke-opacity:1;stroke-miterlimit:10;" d="M 134.53125 76.96875 L 134.53125 99.925781 "/>
<path style="fill:none;stroke-width:1.066978;stroke-linecap:round;stroke-linejoin:round;stroke:rgb(0%,0%,0%);stroke-opacity:1;stroke-miterlimit:10;" d="M 122.980469 101.566406 L 122.980469 126.160156 "/>
<path style="fill:none;stroke-width:1.066978;stroke-linecap:round;stroke-linejoin:round;stroke:rgb(0%,0%,0%);stroke-opacity:1;stroke-miterlimit:10;" d="M 188.417969 165.511719 L 188.417969 178.628906 "/>
<path style="fill:none;stroke-width:1.066978;stroke-linecap:round;stroke-linejoin:round;stroke:rgb(0%,0%,0%);stroke-opacity:1;stroke-miterlimit:10;" d="M 188.417969 165.511719 L 188.417969 152.394531 "/>
<path style="fill:none;stroke-width:1.066978;stroke-linecap:round;stroke-linejoin:round;stroke:rgb(0%,0%,0%);stroke-opacity:1;stroke-miterlimit:10;" d="M 134.53125 185.1875 L 134.53125 204.863281 "/>
<path style="fill:none;stroke-width:1.066978;stroke-linecap:round;stroke-linejoin:round;stroke:rgb(0%,0%,0%);stroke-opacity:1;stroke-miterlimit:10;" d="M 215.363281 296.6875 L 215.363281 309.804688 "/>
<path style="fill:none;stroke-width:1.066978;stroke-linecap:round;stroke-linejoin:round;stroke:rgb(0%,0%,0%);stroke-opacity:1;stroke-miterlimit:10;" d="M 215.363281 296.6875 L 215.363281 283.570312 "/>
<path style="fill:none;stroke-width:1.066978;stroke-linecap:round;stroke-linejoin:round;stroke:rgb(0%,0%,0%);stroke-opacity:1;stroke-miterlimit:10;" d="M 107.585938 244.21875 L 107.585938 257.335938 "/>
<path style="fill:none;stroke-width:1.066978;stroke-linecap:round;stroke-linejoin:round;stroke:rgb(0%,0%,0%);stroke-opacity:1;stroke-miterlimit:10;" d="M 107.585938 244.21875 L 107.585938 231.101562 "/>
<path style="fill:none;stroke-width:1.066978;stroke-linecap:round;stroke-linejoin:round;stroke:rgb(0%,0%,0%);stroke-opacity:1;stroke-miterlimit:10;" d="M 19.050781 271.476562 L 19.050781 336.039062 "/>
<path style="fill:none;stroke-width:1.066978;stroke-linecap:round;stroke-linejoin:round;stroke:rgb(0%,0%,0%);stroke-opacity:1;stroke-miterlimit:10;" d="M 19.050781 271.476562 L 19.050781 271.476562 "/>
<path style="fill:none;stroke-width:1.066978;stroke-linecap:round;stroke-linejoin:round;stroke:rgb(0%,0%,0%);stroke-opacity:1;stroke-miterlimit:10;" d="M 19.050781 271.476562 L 19.050781 206.914062 "/>
<path style="fill:none;stroke-width:1.066978;stroke-linecap:round;stroke-linejoin:round;stroke:rgb(0%,0%,0%);stroke-opacity:1;stroke-miterlimit:10;" d="M 34.449219 206.914062 L 34.449219 143.375 "/>
<path style="fill:none;stroke-width:1.066978;stroke-linecap:round;stroke-linejoin:round;stroke:rgb(0%,0%,0%);stroke-opacity:1;stroke-miterlimit:10;" d="M 84.488281 143.375 L 84.488281 101.566406 "/>
<path style="fill:none;stroke-width:1.066978;stroke-linecap:round;stroke-linejoin:round;stroke:rgb(0%,0%,0%);stroke-opacity:1;stroke-miterlimit:10;" d="M 122.980469 101.566406 L 122.980469 76.96875 "/>
<path style="fill:none;stroke-width:1.066978;stroke-linecap:round;stroke-linejoin:round;stroke:rgb(0%,0%,0%);stroke-opacity:1;stroke-miterlimit:10;" d="M 134.53125 76.96875 L 134.53125 54.015625 "/>
<path style="fill:none;stroke-width:1.066978;stroke-linecap:round;stroke-linejoin:round;stroke:rgb(0%,0%,0%);stroke-opacity:1;stroke-miterlimit:10;" d="M 165.324219 54.015625 L 165.324219 34.339844 "/>
<path style="fill:none;stroke-width:1.066978;stroke-linecap:round;stroke-linejoin:round;stroke:rgb(0%,0%,0%);stroke-opacity:1;stroke-miterlimit:10;" d="M 84.488281 143.375 L 84.488281 185.1875 "/>
<path style="fill:none;stroke-width:1.066978;stroke-linecap:round;stroke-linejoin:round;stroke:rgb(0%,0%,0%);stroke-opacity:1;stroke-miterlimit:10;" d="M 134.53125 185.1875 L 134.53125 165.511719 "/>
<path style="fill:none;stroke-width:1.066978;stroke-linecap:round;stroke-linejoin:round;stroke:rgb(0%,0%,0%);stroke-opacity:1;stroke-miterlimit:10;" d="M 34.449219 206.914062 L 34.449219 270.453125 "/>
<path style="fill:none;stroke-width:1.066978;stroke-linecap:round;stroke-linejoin:round;stroke:rgb(0%,0%,0%);stroke-opacity:1;stroke-miterlimit:10;" d="M 99.886719 270.453125 L 99.886719 296.6875 "/>
<path style="fill:none;stroke-width:1.066978;stroke-linecap:round;stroke-linejoin:round;stroke:rgb(0%,0%,0%);stroke-opacity:1;stroke-miterlimit:10;" d="M 99.886719 270.453125 L 99.886719 244.21875 "/>
<path style=" stroke:none;fill-rule:nonzero;fill:rgb(0%,0%,0%);fill-opacity:1;" d="M 211.183594 51.253906 L 210.316406 49.03125 L 206.855469 49.03125 L 205.984375 51.253906 L 204.914062 51.253906 L 208.015625 43.65625 L 209.183594 43.65625 L 212.234375 51.253906 Z M 209.035156 45.722656 L 209.015625 45.679688 L 208.984375 45.59375 L 208.964844 45.550781 L 208.949219 45.503906 L 208.917969 45.417969 L 208.898438 45.375 L 208.882812 45.328125 L 208.835938 45.199219 L 208.824219 45.15625 L 208.808594 45.117188 L 208.796875 45.074219 L 208.78125 45.035156 L 208.769531 44.996094 L 208.757812 44.960938 L 208.746094 44.921875 L 208.730469 44.886719 L 208.722656 44.851562 L 208.699219 44.78125 L 208.675781 44.71875 L 208.667969 44.691406 L 208.65625 44.660156 L 208.648438 44.636719 L 208.640625 44.609375 L 208.628906 44.585938 L 208.621094 44.5625 L 208.617188 44.539062 L 208.609375 44.519531 L 208.605469 44.5 L 208.601562 44.484375 L 208.597656 44.472656 L 208.59375 44.457031 L 208.589844 44.449219 L 208.589844 44.441406 L 208.585938 44.433594 L 208.585938 44.441406 L 208.578125 44.457031 L 208.574219 44.472656 L 208.570312 44.484375 L 208.5625 44.5 L 208.558594 44.519531 L 208.550781 44.539062 L 208.546875 44.5625 L 208.53125 44.609375 L 208.523438 44.636719 L 208.511719 44.664062 L 208.503906 44.695312 L 208.492188 44.722656 L 208.484375 44.753906 L 208.472656 44.789062 L 208.460938 44.820312 L 208.4375 44.890625 L 208.425781 44.929688 L 208.410156 44.96875 L 208.398438 45.003906 L 208.386719 45.042969 L 208.371094 45.085938 L 208.355469 45.125 L 208.34375 45.167969 L 208.265625 45.382812 L 208.25 45.429688 L 208.1875 45.601562 L 208.171875 45.648438 L 208.140625 45.734375 L 207.167969 48.230469 L 210.011719 48.230469 Z M 209.035156 45.722656 "/>
<path style=" stroke:none;fill-rule:nonzero;fill:rgb(0%,0%,0%);fill-opacity:1;" d="M 211.675781 22.878906 L 211.671875 22.992188 L 211.667969 23.101562 L 211.65625 23.210938 L 211.640625 23.3125 L 211.617188 23.414062 L 211.59375 23.511719 L 211.566406 23.605469 L 211.53125 23.695312 L 211.492188 23.78125 L 211.449219 23.863281 L 211.402344 23.945312 L 211.300781 24.09375 L 211.242188 24.164062 L 211.183594 24.230469 L 211.121094 24.296875 L 211.054688 24.359375 L 210.988281 24.417969 L 210.839844 24.527344 L 210.761719 24.578125 L 210.683594 24.625 L 210.597656 24.667969 L 210.515625 24.707031 L 210.425781 24.746094 L 210.335938 24.78125 L 210.242188 24.816406 L 210.148438 24.847656 L 210.050781 24.875 L 209.847656 24.921875 L 209.746094 24.941406 L 209.640625 24.960938 L 209.535156 24.976562 L 209.324219 25 L 209.214844 25.007812 L 208.996094 25.015625 L 208.882812 25.019531 L 205.800781 25.019531 L 205.800781 17.421875 L 208.558594 17.421875 L 208.683594 17.425781 L 208.808594 17.425781 L 209.042969 17.441406 L 209.15625 17.449219 L 209.269531 17.460938 L 209.375 17.476562 L 209.484375 17.492188 L 209.6875 17.53125 L 209.785156 17.550781 L 209.878906 17.578125 L 209.96875 17.601562 L 210.058594 17.632812 L 210.144531 17.664062 L 210.308594 17.734375 L 210.382812 17.773438 L 210.457031 17.816406 L 210.527344 17.859375 L 210.660156 17.953125 L 210.71875 18.007812 L 210.777344 18.058594 L 210.832031 18.117188 L 210.882812 18.175781 L 210.929688 18.238281 L 210.972656 18.300781 L 211.011719 18.367188 L 211.050781 18.4375 L 211.085938 18.507812 L 211.117188 18.578125 L 211.144531 18.65625 L 211.167969 18.734375 L 211.1875 18.816406 L 211.21875 18.988281 L 211.226562 19.078125 L 211.234375 19.265625 L 211.234375 19.328125 L 211.226562 19.453125 L 211.21875 19.515625 L 211.210938 19.574219 L 211.175781 19.75 L 211.160156 19.808594 L 211.140625 19.863281 L 211.125 19.921875 L 211.105469 19.976562 L 211.082031 20.027344 L 211.058594 20.082031 L 211.003906 20.183594 L 210.972656 20.234375 L 210.941406 20.28125 L 210.835938 20.421875 L 210.757812 20.507812 L 210.714844 20.546875 L 210.671875 20.589844 L 210.625 20.628906 L 210.574219 20.664062 L 210.527344 20.699219 L 210.417969 20.769531 L 210.308594 20.832031 L 210.25 20.859375 L 210.1875 20.886719 L 210.128906 20.910156 L 209.996094 20.957031 L 209.929688 20.976562 L 209.859375 20.996094 L 209.789062 21.011719 L 209.878906 21.023438 L 209.96875 21.039062 L 210.054688 21.054688 L 210.300781 21.113281 L 210.378906 21.136719 L 210.527344 21.191406 L 210.667969 21.253906 L 210.800781 21.324219 L 210.863281 21.363281 L 210.980469 21.441406 L 211.039062 21.484375 L 211.089844 21.527344 L 211.191406 21.621094 L 211.238281 21.671875 L 211.324219 21.773438 L 211.363281 21.828125 L 211.398438 21.886719 L 211.433594 21.941406 L 211.46875 22 L 211.496094 22.0625 L 211.527344 22.125 L 211.550781 22.1875 L 211.574219 22.253906 L 211.597656 22.316406 L 211.613281 22.382812 L 211.632812 22.449219 L 211.65625 22.589844 L 211.671875 22.730469 L 211.675781 22.804688 Z M 210.199219 19.390625 L 210.195312 19.269531 L 210.183594 19.160156 L 210.160156 19.054688 L 210.132812 18.953125 L 210.09375 18.863281 L 210.046875 18.777344 L 209.992188 18.703125 L 209.929688 18.632812 L 209.859375 18.566406 L 209.777344 18.511719 L 209.691406 18.460938 L 209.59375 18.417969 L 209.492188 18.378906 L 209.382812 18.34375 L 209.261719 18.3125 L 209.136719 18.289062 L 209.003906 18.269531 L 208.863281 18.257812 L 208.714844 18.25 L 208.558594 18.246094 L 206.828125 18.246094 L 206.828125 20.652344 L 208.648438 20.652344 L 208.820312 20.644531 L 209.054688 20.621094 L 209.195312 20.597656 L 209.261719 20.582031 L 209.324219 20.566406 L 209.386719 20.546875 L 209.445312 20.527344 L 209.503906 20.503906 L 209.554688 20.480469 L 209.609375 20.457031 L 209.75 20.375 L 209.792969 20.34375 L 209.832031 20.3125 L 209.871094 20.277344 L 209.90625 20.242188 L 209.9375 20.207031 L 210 20.128906 L 210.027344 20.089844 L 210.074219 20.003906 L 210.09375 19.957031 L 210.113281 19.914062 L 210.128906 19.867188 L 210.144531 19.816406 L 210.15625 19.769531 L 210.167969 19.71875 L 210.175781 19.667969 L 210.191406 19.558594 L 210.199219 19.449219 Z M 210.636719 22.796875 L 210.628906 22.65625 L 210.625 22.589844 L 210.601562 22.464844 L 210.585938 22.402344 L 210.570312 22.34375 L 210.550781 22.289062 L 210.527344 22.234375 L 210.472656 22.132812 L 210.445312 22.085938 L 210.414062 22.039062 L 210.378906 21.996094 L 210.300781 21.910156 L 210.261719 21.871094 L 210.21875 21.835938 L 210.125 21.765625 L 210.074219 21.734375 L 209.910156 21.652344 L 209.847656 21.628906 L 209.789062 21.605469 L 209.726562 21.582031 L 209.660156 21.5625 L 209.59375 21.546875 L 209.453125 21.515625 L 209.382812 21.503906 L 209.234375 21.480469 L 209.160156 21.472656 L 209.078125 21.46875 L 209 21.460938 L 208.917969 21.457031 L 208.832031 21.457031 L 208.75 21.453125 L 206.828125 21.453125 L 206.828125 24.191406 L 208.984375 24.191406 L 209.132812 24.183594 L 209.207031 24.175781 L 209.277344 24.171875 L 209.347656 24.160156 L 209.417969 24.152344 L 209.550781 24.128906 L 209.617188 24.113281 L 209.742188 24.082031 L 209.804688 24.0625 L 209.863281 24.039062 L 209.972656 23.992188 L 210.023438 23.964844 L 210.125 23.902344 L 210.171875 23.867188 L 210.257812 23.796875 L 210.339844 23.714844 L 210.410156 23.621094 L 210.441406 23.574219 L 210.472656 23.523438 L 210.5 23.472656 L 210.527344 23.414062 L 210.550781 23.359375 L 210.570312 23.296875 L 210.585938 23.234375 L 210.601562 23.167969 L 210.625 23.027344 L 210.628906 22.953125 Z M 210.636719 22.796875 "/>
<path style=" stroke:none;fill-rule:nonzero;fill:rgb(0%,0%,0%);fill-opacity:1;" d="M 189.917969 70.621094 L 189.789062 70.621094 L 189.664062 70.628906 L 189.542969 70.640625 L 189.421875 70.65625 L 189.308594 70.675781 L 189.195312 70.699219 L 189.082031 70.726562 L 188.976562 70.757812 L 188.871094 70.796875 L 188.769531 70.835938 L 188.671875 70.882812 L 188.578125 70.929688 L 188.484375 70.980469 L 188.3125 71.097656 L 188.230469 71.160156 L 188.152344 71.226562 L 188.074219 71.296875 L 188.003906 71.371094 L 187.933594 71.449219 L 187.867188 71.53125 L 187.804688 71.617188 L 187.746094 71.703125 L 187.691406 71.796875 L 187.640625 71.890625 L 187.589844 71.988281 L 187.542969 72.089844 L 187.503906 72.191406 L 187.425781 72.410156 L 187.394531 72.523438 L 187.363281 72.640625 L 187.339844 72.757812 L 187.316406 72.878906 L 187.296875 73 L 187.28125 73.128906 L 187.269531 73.253906 L 187.261719 73.386719 L 187.257812 73.519531 L 187.253906 73.65625 L 187.257812 73.792969 L 187.261719 73.925781 L 187.269531 74.054688 L 187.300781 74.3125 L 187.320312 74.4375 L 187.34375 74.558594 L 187.371094 74.679688 L 187.402344 74.796875 L 187.4375 74.910156 L 187.476562 75.023438 L 187.519531 75.132812 L 187.566406 75.238281 L 187.613281 75.339844 L 187.664062 75.4375 L 187.71875 75.535156 L 187.777344 75.628906 L 187.839844 75.71875 L 187.902344 75.804688 L 188.042969 75.96875 L 188.117188 76.042969 L 188.195312 76.117188 L 188.359375 76.25 L 188.445312 76.3125 L 188.535156 76.371094 L 188.628906 76.425781 L 188.722656 76.476562 L 188.824219 76.523438 L 188.925781 76.566406 L 189.03125 76.605469 L 189.136719 76.636719 L 189.25 76.667969 L 189.359375 76.691406 L 189.476562 76.714844 L 189.59375 76.730469 L 189.714844 76.742188 L 189.835938 76.746094 L 189.960938 76.75 L 190.046875 76.75 L 190.132812 76.746094 L 190.21875 76.738281 L 190.382812 76.722656 L 190.460938 76.707031 L 190.539062 76.695312 L 190.617188 76.675781 L 190.691406 76.65625 L 190.761719 76.636719 L 190.835938 76.613281 L 190.976562 76.558594 L 191.109375 76.496094 L 191.175781 76.460938 L 191.238281 76.425781 L 191.363281 76.347656 L 191.421875 76.308594 L 191.480469 76.265625 L 191.539062 76.21875 L 191.59375 76.175781 L 191.648438 76.128906 L 191.703125 76.078125 L 191.804688 75.976562 L 191.855469 75.921875 L 191.949219 75.8125 L 191.996094 75.753906 L 192.039062 75.691406 L 192.082031 75.632812 L 192.125 75.570312 L 192.167969 75.503906 L 192.207031 75.441406 L 192.285156 75.308594 L 192.324219 75.238281 L 192.359375 75.171875 L 193.199219 75.589844 L 193.15625 75.675781 L 193.070312 75.839844 L 193.019531 75.921875 L 192.972656 76 L 192.917969 76.082031 L 192.867188 76.15625 L 192.808594 76.234375 L 192.753906 76.308594 L 192.691406 76.382812 L 192.632812 76.457031 L 192.566406 76.527344 L 192.503906 76.59375 L 192.363281 76.726562 L 192.292969 76.789062 L 192.21875 76.847656 L 192.0625 76.964844 L 191.980469 77.019531 L 191.816406 77.121094 L 191.730469 77.171875 L 191.640625 77.214844 L 191.550781 77.261719 L 191.457031 77.300781 L 191.261719 77.378906 L 191.164062 77.414062 L 191.058594 77.445312 L 190.957031 77.472656 L 190.851562 77.5 L 190.742188 77.523438 L 190.628906 77.542969 L 190.515625 77.558594 L 190.402344 77.570312 L 190.28125 77.582031 L 190.160156 77.589844 L 190.039062 77.59375 L 189.910156 77.597656 L 189.730469 77.59375 L 189.550781 77.585938 L 189.378906 77.570312 L 189.210938 77.550781 L 189.046875 77.523438 L 188.886719 77.492188 L 188.730469 77.453125 L 188.582031 77.410156 L 188.4375 77.359375 L 188.292969 77.304688 L 188.160156 77.242188 L 188.027344 77.175781 L 187.902344 77.105469 L 187.777344 77.03125 L 187.660156 76.953125 L 187.546875 76.867188 L 187.4375 76.777344 L 187.332031 76.683594 L 187.230469 76.585938 L 187.136719 76.484375 L 187.046875 76.378906 L 186.960938 76.265625 L 186.878906 76.152344 L 186.800781 76.03125 L 186.730469 75.910156 L 186.664062 75.78125 L 186.601562 75.652344 L 186.542969 75.515625 L 186.488281 75.378906 L 186.394531 75.089844 L 186.355469 74.941406 L 186.320312 74.789062 L 186.292969 74.636719 L 186.265625 74.480469 L 186.246094 74.320312 L 186.230469 74.15625 L 186.21875 73.992188 L 186.210938 73.824219 L 186.207031 73.65625 L 186.210938 73.480469 L 186.21875 73.304688 L 186.230469 73.136719 L 186.246094 72.972656 L 186.269531 72.808594 L 186.296875 72.648438 L 186.328125 72.496094 L 186.363281 72.34375 L 186.40625 72.195312 L 186.453125 72.050781 L 186.503906 71.90625 L 186.558594 71.769531 L 186.621094 71.636719 L 186.683594 71.511719 L 186.753906 71.386719 L 186.828125 71.265625 L 186.90625 71.152344 L 186.988281 71.039062 L 187.078125 70.933594 L 187.167969 70.832031 L 187.265625 70.730469 L 187.367188 70.636719 L 187.472656 70.546875 L 187.582031 70.464844 L 187.695312 70.382812 L 187.816406 70.308594 L 187.9375 70.238281 L 188.066406 70.171875 L 188.195312 70.109375 L 188.332031 70.054688 L 188.472656 70.003906 L 188.617188 69.957031 L 188.765625 69.914062 L 188.914062 69.878906 L 189.070312 69.847656 L 189.230469 69.824219 L 189.394531 69.804688 L 189.5625 69.789062 L 189.730469 69.78125 L 189.90625 69.78125 L 190.144531 69.785156 L 190.375 69.796875 L 190.597656 69.820312 L 190.8125 69.855469 L 191.019531 69.898438 L 191.21875 69.949219 L 191.410156 70.011719 L 191.589844 70.082031 L 191.765625 70.164062 L 191.933594 70.253906 L 192.089844 70.351562 L 192.242188 70.460938 L 192.382812 70.578125 L 192.515625 70.707031 L 192.640625 70.84375 L 192.753906 70.988281 L 192.863281 71.140625 L 192.960938 71.304688 L 193.050781 71.480469 L 193.128906 71.660156 L 192.152344 71.984375 L 192.132812 71.929688 L 192.109375 71.878906 L 192.082031 71.824219 L 192.027344 71.722656 L 191.933594 71.570312 L 191.898438 71.519531 L 191.863281 71.472656 L 191.824219 71.421875 L 191.746094 71.328125 L 191.65625 71.238281 L 191.5625 71.152344 L 191.460938 71.074219 L 191.40625 71.035156 L 191.347656 71 L 191.292969 70.964844 L 191.230469 70.929688 L 191.105469 70.867188 L 191.039062 70.835938 L 190.972656 70.808594 L 190.902344 70.78125 L 190.832031 70.757812 L 190.683594 70.710938 L 190.605469 70.691406 L 190.449219 70.660156 L 190.363281 70.648438 L 190.28125 70.636719 L 190.191406 70.628906 L 190.011719 70.621094 Z M 189.917969 70.621094 "/>
<path style=" stroke:none;fill-rule:nonzero;fill:rgb(0%,0%,0%);fill-opacity:1;" d="M 166.148438 99.847656 L 166.144531 100.035156 L 166.136719 100.21875 L 166.121094 100.394531 L 166.101562 100.570312 L 166.074219 100.742188 L 166.042969 100.90625 L 166.007812 101.066406 L 165.964844 101.222656 L 165.914062 101.375 L 165.863281 101.523438 L 165.738281 101.804688 L 165.671875 101.9375 L 165.523438 102.1875 L 165.441406 102.308594 L 165.359375 102.421875 L 165.269531 102.53125 L 165.175781 102.636719 L 165.078125 102.738281 L 164.980469 102.832031 L 164.875 102.921875 L 164.765625 103.007812 L 164.539062 103.164062 L 164.417969 103.234375 L 164.296875 103.300781 L 164.167969 103.363281 L 164.039062 103.421875 L 163.90625 103.476562 L 163.769531 103.523438 L 163.632812 103.5625 L 163.492188 103.601562 L 163.347656 103.632812 L 163.203125 103.660156 L 163.058594 103.683594 L 162.910156 103.699219 L 162.757812 103.714844 L 162.605469 103.71875 L 162.449219 103.722656 L 159.609375 103.722656 L 159.609375 96.128906 L 162.292969 96.128906 L 162.464844 96.136719 L 162.636719 96.148438 L 162.800781 96.164062 L 162.964844 96.183594 L 163.125 96.207031 L 163.28125 96.234375 L 163.4375 96.269531 L 163.589844 96.308594 L 163.738281 96.347656 L 163.882812 96.394531 L 164.027344 96.445312 L 164.164062 96.5 L 164.300781 96.558594 L 164.429688 96.625 L 164.554688 96.695312 L 164.675781 96.769531 L 164.792969 96.847656 L 164.90625 96.933594 L 165.015625 97.023438 L 165.121094 97.117188 L 165.21875 97.214844 L 165.3125 97.316406 L 165.402344 97.425781 L 165.488281 97.539062 L 165.570312 97.65625 L 165.644531 97.777344 L 165.71875 97.90625 L 165.785156 98.039062 L 165.84375 98.175781 L 165.902344 98.320312 L 165.953125 98.46875 L 166 98.621094 L 166.039062 98.78125 L 166.070312 98.945312 L 166.097656 99.113281 L 166.121094 99.289062 L 166.136719 99.46875 L 166.144531 99.65625 Z M 165.113281 99.847656 L 165.109375 99.695312 L 165.101562 99.546875 L 165.09375 99.40625 L 165.078125 99.265625 L 165.058594 99.132812 L 165.03125 99.003906 L 165.003906 98.878906 L 164.972656 98.757812 L 164.933594 98.644531 L 164.890625 98.53125 L 164.796875 98.320312 L 164.742188 98.21875 L 164.6875 98.125 L 164.625 98.03125 L 164.5625 97.945312 L 164.496094 97.859375 L 164.347656 97.703125 L 164.191406 97.5625 L 164.019531 97.4375 L 163.832031 97.328125 L 163.738281 97.277344 L 163.636719 97.234375 L 163.53125 97.191406 L 163.425781 97.152344 L 163.316406 97.121094 L 163.207031 97.085938 L 163.089844 97.058594 L 162.855469 97.011719 L 162.613281 96.980469 L 162.488281 96.96875 L 162.230469 96.953125 L 160.636719 96.953125 L 160.636719 102.898438 L 162.332031 102.898438 L 162.566406 102.890625 L 162.792969 102.867188 L 162.90625 102.847656 L 163.015625 102.828125 L 163.125 102.804688 L 163.230469 102.773438 L 163.332031 102.742188 L 163.4375 102.703125 L 163.535156 102.664062 L 163.636719 102.617188 L 163.730469 102.570312 L 163.824219 102.519531 L 163.914062 102.460938 L 164 102.402344 L 164.085938 102.339844 L 164.164062 102.273438 L 164.242188 102.203125 L 164.320312 102.128906 L 164.394531 102.050781 L 164.527344 101.878906 L 164.652344 101.699219 L 164.707031 101.601562 L 164.761719 101.5 L 164.8125 101.394531 L 164.859375 101.285156 L 164.902344 101.171875 L 164.941406 101.058594 L 164.976562 100.9375 L 165.007812 100.8125 L 165.035156 100.6875 L 165.058594 100.554688 L 165.078125 100.421875 L 165.09375 100.285156 L 165.105469 100.140625 L 165.109375 99.996094 Z M 165.113281 99.847656 "/>
<path style=" stroke:none;fill-rule:nonzero;fill:rgb(0%,0%,0%);fill-opacity:1;" d="M 205.800781 129.957031 L 205.800781 122.363281 L 211.5625 122.363281 L 211.5625 123.203125 L 206.828125 123.203125 L 206.828125 125.640625 L 211.238281 125.640625 L 211.238281 126.46875 L 206.828125 126.46875 L 206.828125 129.117188 L 211.785156 129.117188 L 211.785156 129.957031 Z M 205.800781 129.957031 "/>
<path style=" stroke:none;fill-rule:nonzero;fill:rgb(0%,0%,0%);fill-opacity:1;" d="M 206.828125 175.671875 L 206.828125 178.5 L 211.066406 178.5 L 211.066406 179.351562 L 206.828125 179.351562 L 206.828125 182.425781 L 205.800781 182.425781 L 205.800781 174.832031 L 211.195312 174.832031 L 211.195312 175.671875 Z M 206.828125 175.671875 "/>
<path style=" stroke:none;fill-rule:nonzero;fill:rgb(0%,0%,0%);fill-opacity:1;" d="M 236.242188 152.359375 L 236.246094 152.183594 L 236.253906 152.011719 L 236.265625 151.84375 L 236.28125 151.675781 L 236.328125 151.355469 L 236.359375 151.199219 L 236.394531 151.046875 L 236.4375 150.898438 L 236.480469 150.753906 L 236.53125 150.613281 L 236.585938 150.476562 L 236.648438 150.34375 L 236.710938 150.214844 L 236.78125 150.089844 L 236.855469 149.972656 L 236.933594 149.855469 L 237.015625 149.746094 L 237.105469 149.636719 L 237.199219 149.535156 L 237.296875 149.4375 L 237.398438 149.34375 L 237.507812 149.253906 L 237.617188 149.167969 L 237.734375 149.089844 L 237.855469 149.011719 L 237.980469 148.941406 L 238.109375 148.875 L 238.382812 148.757812 L 238.527344 148.707031 L 238.675781 148.660156 L 238.828125 148.617188 L 238.984375 148.582031 L 239.3125 148.527344 L 239.484375 148.507812 L 239.660156 148.496094 L 239.839844 148.488281 L 240.023438 148.484375 L 240.160156 148.484375 L 240.296875 148.488281 L 240.554688 148.503906 L 240.679688 148.515625 L 240.800781 148.527344 L 240.917969 148.546875 L 241.035156 148.5625 L 241.144531 148.585938 L 241.355469 148.632812 L 241.457031 148.664062 L 241.554688 148.691406 L 241.652344 148.726562 L 241.746094 148.757812 L 241.835938 148.796875 L 242.007812 148.875 L 242.089844 148.917969 L 242.246094 149.011719 L 242.320312 149.0625 L 242.460938 149.164062 L 242.527344 149.222656 L 242.589844 149.277344 L 242.714844 149.402344 L 242.769531 149.464844 L 242.878906 149.597656 L 242.929688 149.664062 L 242.980469 149.734375 L 243.027344 149.808594 L 243.074219 149.878906 L 243.121094 149.957031 L 243.164062 150.03125 L 243.207031 150.113281 L 243.246094 150.191406 L 243.285156 150.273438 L 242.304688 150.566406 L 242.273438 150.507812 L 242.246094 150.457031 L 242.214844 150.402344 L 242.179688 150.347656 L 242.148438 150.296875 L 242.113281 150.25 L 242.078125 150.199219 L 242.039062 150.152344 L 242.003906 150.105469 L 241.964844 150.058594 L 241.921875 150.011719 L 241.882812 149.96875 L 241.839844 149.925781 L 241.792969 149.882812 L 241.699219 149.804688 L 241.648438 149.769531 L 241.597656 149.730469 L 241.542969 149.699219 L 241.488281 149.664062 L 241.433594 149.632812 L 241.371094 149.601562 L 241.3125 149.574219 L 241.25 149.546875 L 241.1875 149.523438 L 241.121094 149.496094 L 241.050781 149.476562 L 240.980469 149.453125 L 240.910156 149.433594 L 240.835938 149.417969 L 240.761719 149.398438 L 240.6875 149.382812 L 240.605469 149.371094 L 240.527344 149.359375 L 240.441406 149.347656 L 240.359375 149.339844 L 240.269531 149.332031 L 240.179688 149.328125 L 240.089844 149.328125 L 239.996094 149.324219 L 239.859375 149.328125 L 239.726562 149.332031 L 239.597656 149.34375 L 239.472656 149.359375 L 239.351562 149.378906 L 239.230469 149.402344 L 239.117188 149.429688 L 239.003906 149.464844 L 238.898438 149.5 L 238.792969 149.539062 L 238.597656 149.632812 L 238.503906 149.6875 L 238.414062 149.742188 L 238.328125 149.800781 L 238.246094 149.867188 L 238.167969 149.933594 L 238.09375 150.003906 L 238.019531 150.078125 L 237.953125 150.15625 L 237.886719 150.238281 L 237.824219 150.320312 L 237.765625 150.410156 L 237.710938 150.5 L 237.660156 150.59375 L 237.613281 150.691406 L 237.566406 150.792969 L 237.523438 150.898438 L 237.488281 151.003906 L 237.453125 151.113281 L 237.421875 151.226562 L 237.367188 151.460938 L 237.347656 151.582031 L 237.328125 151.707031 L 237.316406 151.832031 L 237.304688 151.960938 L 237.296875 152.089844 L 237.292969 152.222656 L 237.289062 152.359375 L 237.292969 152.496094 L 237.296875 152.628906 L 237.304688 152.761719 L 237.316406 152.890625 L 237.355469 153.140625 L 237.375 153.261719 L 237.402344 153.382812 L 237.433594 153.5 L 237.46875 153.617188 L 237.503906 153.726562 L 237.546875 153.835938 L 237.589844 153.941406 L 237.636719 154.042969 L 237.6875 154.144531 L 237.742188 154.242188 L 237.800781 154.335938 L 237.863281 154.425781 L 237.925781 154.511719 L 237.996094 154.597656 L 238.066406 154.675781 L 238.144531 154.753906 L 238.222656 154.828125 L 238.386719 154.960938 L 238.476562 155.023438 L 238.566406 155.082031 L 238.664062 155.140625 L 238.761719 155.191406 L 238.863281 155.238281 L 238.96875 155.28125 L 239.078125 155.320312 L 239.191406 155.355469 L 239.425781 155.410156 L 239.550781 155.429688 L 239.675781 155.445312 L 239.804688 155.457031 L 240.070312 155.464844 L 240.160156 155.464844 L 240.417969 155.453125 L 240.664062 155.429688 L 240.742188 155.417969 L 240.820312 155.402344 L 240.894531 155.390625 L 241.042969 155.359375 L 241.117188 155.339844 L 241.1875 155.324219 L 241.320312 155.285156 L 241.386719 155.261719 L 241.453125 155.242188 L 241.515625 155.21875 L 241.574219 155.195312 L 241.636719 155.171875 L 241.695312 155.144531 L 241.753906 155.121094 L 241.917969 155.039062 L 242.019531 154.984375 L 242.066406 154.953125 L 242.113281 154.925781 L 242.160156 154.894531 L 242.203125 154.867188 L 242.289062 154.804688 L 242.328125 154.773438 L 242.363281 154.746094 L 242.402344 154.714844 L 242.4375 154.683594 L 242.46875 154.65625 L 242.503906 154.625 L 242.503906 153.253906 L 240.234375 153.253906 L 240.234375 152.390625 L 243.449219 152.390625 L 243.449219 155.011719 L 243.347656 155.113281 L 243.289062 155.164062 L 243.234375 155.214844 L 243.175781 155.265625 L 243.113281 155.316406 L 243.050781 155.363281 L 242.988281 155.414062 L 242.921875 155.460938 L 242.851562 155.507812 L 242.785156 155.554688 L 242.714844 155.597656 L 242.492188 155.726562 L 242.335938 155.804688 L 242.171875 155.882812 L 242 155.953125 L 241.914062 155.984375 L 241.824219 156.019531 L 241.734375 156.046875 L 241.640625 156.078125 L 241.546875 156.105469 L 241.453125 156.128906 L 241.355469 156.152344 L 241.253906 156.175781 L 241.15625 156.199219 L 241.050781 156.21875 L 240.949219 156.234375 L 240.738281 156.265625 L 240.628906 156.273438 L 240.519531 156.285156 L 240.410156 156.292969 L 240.300781 156.296875 L 240.1875 156.300781 L 240.070312 156.300781 L 239.882812 156.296875 L 239.695312 156.289062 L 239.515625 156.273438 L 239.34375 156.253906 L 239.171875 156.226562 L 239.007812 156.195312 L 238.847656 156.15625 L 238.691406 156.113281 L 238.539062 156.066406 L 238.394531 156.007812 L 238.253906 155.949219 L 238.117188 155.882812 L 237.984375 155.8125 L 237.859375 155.734375 L 237.738281 155.65625 L 237.621094 155.570312 L 237.507812 155.484375 L 237.398438 155.390625 L 237.296875 155.292969 L 237.199219 155.191406 L 237.105469 155.082031 L 237.015625 154.972656 L 236.933594 154.855469 L 236.855469 154.738281 L 236.78125 154.613281 L 236.710938 154.488281 L 236.585938 154.222656 L 236.53125 154.082031 L 236.480469 153.941406 L 236.394531 153.644531 L 236.359375 153.492188 L 236.328125 153.339844 L 236.304688 153.183594 L 236.28125 153.023438 L 236.265625 152.863281 L 236.253906 152.699219 L 236.246094 152.53125 Z M 236.242188 152.359375 "/>
<path style=" stroke:none;fill-rule:nonzero;fill:rgb(0%,0%,0%);fill-opacity:1;" d="M 172.445312 208.664062 L 172.445312 205.144531 L 168.335938 205.144531 L 168.335938 208.664062 L 167.308594 208.664062 L 167.308594 201.066406 L 168.335938 201.066406 L 168.335938 204.28125 L 172.445312 204.28125 L 172.445312 201.066406 L 173.472656 201.066406 L 173.472656 208.664062 Z M 172.445312 208.664062 "/>
<path style=" stroke:none;fill-rule:nonzero;fill:rgb(0%,0%,0%);fill-opacity:1;" d="M 236.707031 313.601562 L 236.707031 306.007812 L 237.738281 306.007812 L 237.738281 313.601562 Z M 236.707031 313.601562 "/>
<path style=" stroke:none;fill-rule:nonzero;fill:rgb(0%,0%,0%);fill-opacity:1;" d="M 226.605469 287.476562 L 226.421875 287.46875 L 226.25 287.457031 L 226.082031 287.433594 L 225.917969 287.398438 L 225.765625 287.355469 L 225.617188 287.300781 L 225.476562 287.242188 L 225.339844 287.167969 L 225.210938 287.085938 L 225.089844 286.996094 L 224.976562 286.894531 L 224.871094 286.78125 L 224.773438 286.65625 L 224.683594 286.523438 L 224.601562 286.378906 L 224.527344 286.21875 L 224.460938 286.050781 L 224.40625 285.871094 L 224.355469 285.683594 L 224.3125 285.480469 L 225.320312 285.3125 L 225.332031 285.382812 L 225.34375 285.449219 L 225.359375 285.515625 L 225.375 285.578125 L 225.394531 285.640625 L 225.410156 285.699219 L 225.429688 285.757812 L 225.476562 285.867188 L 225.5 285.917969 L 225.523438 285.964844 L 225.578125 286.058594 L 225.605469 286.101562 L 225.636719 286.144531 L 225.664062 286.183594 L 225.695312 286.222656 L 225.730469 286.257812 L 225.761719 286.292969 L 225.796875 286.328125 L 225.832031 286.359375 L 225.867188 286.386719 L 225.902344 286.417969 L 225.941406 286.441406 L 225.976562 286.46875 L 226.015625 286.488281 L 226.054688 286.511719 L 226.097656 286.53125 L 226.136719 286.546875 L 226.179688 286.5625 L 226.21875 286.578125 L 226.347656 286.613281 L 226.433594 286.628906 L 226.476562 286.632812 L 226.523438 286.636719 L 226.566406 286.640625 L 226.609375 286.640625 L 226.71875 286.636719 L 226.824219 286.625 L 226.925781 286.605469 L 227.019531 286.578125 L 227.109375 286.542969 L 227.195312 286.503906 L 227.277344 286.453125 L 227.355469 286.394531 L 227.425781 286.328125 L 227.492188 286.257812 L 227.554688 286.175781 L 227.609375 286.085938 L 227.660156 285.992188 L 227.699219 285.890625 L 227.734375 285.78125 L 227.765625 285.664062 L 227.789062 285.539062 L 227.804688 285.410156 L 227.8125 285.269531 L 227.816406 285.125 L 227.816406 280.613281 L 226.355469 280.613281 L 226.355469 279.773438 L 228.839844 279.773438 L 228.839844 285.210938 L 228.835938 285.316406 L 228.828125 285.421875 L 228.816406 285.523438 L 228.804688 285.621094 L 228.785156 285.71875 L 228.746094 285.90625 L 228.691406 286.085938 L 228.660156 286.171875 L 228.625 286.253906 L 228.585938 286.335938 L 228.546875 286.414062 L 228.503906 286.488281 L 228.410156 286.636719 L 228.359375 286.703125 L 228.304688 286.769531 L 228.25 286.832031 L 228.191406 286.894531 L 228.066406 287.003906 L 228 287.058594 L 227.859375 287.152344 L 227.785156 287.195312 L 227.628906 287.273438 L 227.546875 287.308594 L 227.464844 287.339844 L 227.378906 287.367188 L 227.289062 287.394531 L 227.199219 287.414062 L 227.105469 287.433594 L 227.007812 287.449219 L 226.910156 287.460938 L 226.8125 287.46875 L 226.707031 287.472656 Z M 226.605469 287.476562 "/>
<path style=" stroke:none;fill-rule:nonzero;fill:rgb(0%,0%,0%);fill-opacity:1;" d="M 156.964844 261.132812 L 153.929688 257.46875 L 152.941406 258.222656 L 152.941406 261.132812 L 151.910156 261.132812 L 151.910156 253.539062 L 152.941406 253.539062 L 152.941406 257.34375 L 156.601562 253.539062 L 157.8125 253.539062 L 154.578125 256.835938 L 158.242188 261.132812 Z M 156.964844 261.132812 "/>
<path style=" stroke:none;fill-rule:nonzero;fill:rgb(0%,0%,0%);fill-opacity:1;" d="M 151.910156 234.898438 L 151.910156 227.300781 L 152.941406 227.300781 L 152.941406 234.058594 L 156.777344 234.058594 L 156.777344 234.898438 Z M 151.910156 234.898438 "/>
<path style=" stroke:none;fill-rule:nonzero;fill:rgb(0%,0%,0%);fill-opacity:1;" d="M 243.050781 339.835938 L 243.050781 334.605469 L 243.054688 334.546875 L 243.054688 334.265625 L 243.058594 334.210938 L 243.058594 334.097656 L 243.0625 334.042969 L 243.0625 333.9375 L 243.066406 333.882812 L 243.066406 333.832031 L 243.070312 333.785156 L 243.070312 333.734375 L 243.074219 333.6875 L 243.074219 333.632812 L 243.082031 333.523438 L 243.082031 333.46875 L 243.085938 333.417969 L 243.089844 333.363281 L 243.089844 333.308594 L 243.097656 333.207031 L 243.101562 333.152344 L 242.945312 333.699219 L 242.914062 333.792969 L 242.902344 333.839844 L 242.886719 333.886719 L 242.839844 334.039062 L 242.820312 334.089844 L 242.804688 334.140625 L 242.789062 334.195312 L 242.773438 334.246094 L 242.753906 334.296875 L 242.738281 334.34375 L 242.722656 334.394531 L 242.691406 334.488281 L 242.675781 334.53125 L 242.660156 334.578125 L 242.640625 334.621094 L 242.625 334.664062 L 240.664062 339.835938 L 239.941406 339.835938 L 237.953125 334.664062 L 237.945312 334.644531 L 237.941406 334.628906 L 237.933594 334.613281 L 237.910156 334.554688 L 237.90625 334.535156 L 237.890625 334.496094 L 237.882812 334.472656 L 237.875 334.453125 L 237.871094 334.429688 L 237.863281 334.410156 L 237.792969 334.199219 L 237.785156 334.171875 L 237.769531 334.125 L 237.761719 334.097656 L 237.75 334.074219 L 237.742188 334.050781 L 237.734375 334.023438 L 237.726562 334 L 237.71875 333.972656 L 237.710938 333.949219 L 237.703125 333.921875 L 237.695312 333.898438 L 237.6875 333.871094 L 237.679688 333.847656 L 237.671875 333.820312 L 237.664062 333.796875 L 237.660156 333.769531 L 237.632812 333.6875 L 237.613281 333.632812 L 237.597656 333.574219 L 237.558594 333.457031 L 237.542969 333.394531 L 237.523438 333.335938 L 237.507812 333.273438 L 237.488281 333.214844 L 237.472656 333.152344 L 237.472656 333.214844 L 237.476562 333.273438 L 237.476562 333.394531 L 237.480469 333.453125 L 237.480469 333.511719 L 237.484375 333.574219 L 237.484375 333.632812 L 237.488281 333.691406 L 237.488281 333.75 L 237.492188 333.800781 L 237.492188 333.855469 L 237.496094 333.90625 L 237.496094 333.957031 L 237.5 334.011719 L 237.5 334.121094 L 237.503906 334.175781 L 237.503906 334.285156 L 237.507812 334.339844 L 237.507812 334.542969 L 237.511719 334.59375 L 237.511719 339.835938 L 236.59375 339.835938 L 236.59375 332.242188 L 237.949219 332.242188 L 239.96875 337.507812 L 239.992188 337.578125 L 240 337.605469 L 240.011719 337.632812 L 240.019531 337.660156 L 240.03125 337.691406 L 240.039062 337.722656 L 240.050781 337.753906 L 240.058594 337.789062 L 240.070312 337.824219 L 240.082031 337.855469 L 240.09375 337.890625 L 240.101562 337.925781 L 240.113281 337.957031 L 240.125 337.992188 L 240.132812 338.027344 L 240.144531 338.0625 L 240.152344 338.097656 L 240.164062 338.132812 L 240.171875 338.167969 L 240.183594 338.203125 L 240.207031 338.308594 L 240.21875 338.339844 L 240.234375 338.410156 L 240.265625 338.535156 L 240.273438 338.5625 L 240.277344 338.585938 L 240.285156 338.613281 L 240.292969 338.636719 L 240.296875 338.65625 L 240.300781 338.679688 L 240.304688 338.699219 L 240.308594 338.714844 L 240.3125 338.699219 L 240.316406 338.679688 L 240.320312 338.65625 L 240.324219 338.636719 L 240.332031 338.609375 L 240.335938 338.585938 L 240.351562 338.53125 L 240.375 338.4375 L 240.386719 338.402344 L 240.394531 338.371094 L 240.402344 338.335938 L 240.414062 338.300781 L 240.421875 338.269531 L 240.445312 338.199219 L 240.453125 338.164062 L 240.535156 337.917969 L 240.546875 337.886719 L 240.554688 337.851562 L 240.566406 337.816406 L 240.578125 337.785156 L 240.589844 337.75 L 240.597656 337.71875 L 240.609375 337.6875 L 240.621094 337.660156 L 240.636719 337.605469 L 240.648438 337.578125 L 240.65625 337.554688 L 240.667969 337.53125 L 240.675781 337.507812 L 242.660156 332.242188 L 243.980469 332.242188 L 243.980469 339.835938 Z M 243.050781 339.835938 "/>
<path style=" stroke:none;fill-rule:nonzero;fill:rgb(0%,0%,0%);fill-opacity:1;" d="M 12.800781 14.449219 L 11.945312 11.988281 L 8.273438 11.988281 L 7.421875 14.449219 L 5.402344 14.449219 L 8.917969 4.816406 L 11.296875 4.816406 L 14.796875 14.449219 Z M 10.542969 7.699219 L 10.496094 7.558594 L 10.480469 7.507812 L 10.460938 7.460938 L 10.429688 7.367188 L 10.414062 7.316406 L 10.398438 7.269531 L 10.378906 7.222656 L 10.367188 7.171875 L 10.335938 7.078125 L 10.324219 7.03125 L 10.308594 6.988281 L 10.296875 6.945312 L 10.28125 6.902344 L 10.257812 6.816406 L 10.242188 6.777344 L 10.234375 6.738281 L 10.210938 6.660156 L 10.203125 6.625 L 10.191406 6.589844 L 10.183594 6.558594 L 10.171875 6.527344 L 10.164062 6.496094 L 10.148438 6.441406 L 10.140625 6.417969 L 10.136719 6.394531 L 10.128906 6.375 L 10.117188 6.328125 L 10.113281 6.316406 L 10.109375 6.308594 L 10.109375 6.304688 L 10.105469 6.300781 L 10.105469 6.304688 L 10.101562 6.3125 L 10.101562 6.320312 L 10.097656 6.332031 L 10.089844 6.363281 L 10.082031 6.382812 L 10.078125 6.402344 L 10.074219 6.425781 L 10.066406 6.449219 L 10.050781 6.503906 L 10.035156 6.566406 L 10.023438 6.597656 L 10.015625 6.628906 L 10.003906 6.664062 L 9.992188 6.703125 L 9.980469 6.738281 L 9.96875 6.777344 L 9.960938 6.816406 L 9.945312 6.859375 L 9.910156 6.988281 L 9.894531 7.03125 L 9.863281 7.125 L 9.851562 7.171875 L 9.832031 7.222656 L 9.820312 7.269531 L 9.804688 7.316406 L 9.789062 7.367188 L 9.742188 7.507812 L 9.726562 7.558594 L 9.707031 7.605469 L 9.675781 7.699219 L 8.726562 10.46875 L 11.496094 10.46875 Z M 10.542969 7.699219 "/>
<path style=" stroke:none;fill-rule:nonzero;fill:rgb(100%,100%,100%);fill-opacity:1;" d="M 252 360 L 504 360 L 504 0 L 252 0 Z M 252 360 "/>
<g clip-path="url(#clip3)" clip-rule="nonzero">
<path style="fill:none;stroke-width:1.066978;stroke-linecap:round;stroke-linejoin:round;stroke:rgb(100%,100%,100%);stroke-opacity:1;stroke-miterlimit:10;" d="M 252 360 L 504 360 L 504 0 L 252 0 Z M 252 360 "/>
</g>
<g clip-path="url(#clip4)" clip-rule="nonzero">
<path style="fill-rule:nonzero;fill:rgb(100%,100%,100%);fill-opacity:1;stroke-width:1.066978;stroke-linecap:round;stroke-linejoin:round;stroke:rgb(100%,100%,100%);stroke-opacity:1;stroke-miterlimit:10;" d="M 260.21875 351.78125 L 498.519531 351.78125 L 498.519531 5.480469 L 260.21875 5.480469 Z M 260.21875 351.78125 "/>
</g>
<path style="fill:none;stroke-width:1.066978;stroke-linecap:round;stroke-linejoin:round;stroke:rgb(0%,0%,0%);stroke-opacity:1;stroke-miterlimit:10;" d="M 457.125 308.492188 L 482.695312 308.492188 "/>
<path style="fill:none;stroke-width:1.066978;stroke-linecap:round;stroke-linejoin:round;stroke:rgb(0%,0%,0%);stroke-opacity:1;stroke-miterlimit:10;" d="M 457.125 221.917969 L 467.351562 221.917969 "/>
<path style="fill:none;stroke-width:1.066978;stroke-linecap:round;stroke-linejoin:round;stroke:rgb(0%,0%,0%);stroke-opacity:1;stroke-miterlimit:10;" d="M 313.921875 135.34375 L 370.179688 135.34375 "/>
<path style="fill:none;stroke-width:1.066978;stroke-linecap:round;stroke-linejoin:round;stroke:rgb(0%,0%,0%);stroke-opacity:1;stroke-miterlimit:10;" d="M 313.921875 48.765625 L 370.179688 48.765625 "/>
<g clip-path="url(#clip5)" clip-rule="nonzero">
<path style="fill:none;stroke-width:1.066978;stroke-linecap:round;stroke-linejoin:round;stroke:rgb(0%,0%,0%);stroke-opacity:1;stroke-miterlimit:10;" d="M 216.746094 178.628906 L 303.691406 178.628906 "/>
</g>
<path style="fill:none;stroke-width:1.066978;stroke-linecap:round;stroke-linejoin:round;stroke:rgb(0%,0%,0%);stroke-opacity:1;stroke-miterlimit:10;" d="M 303.691406 265.207031 L 457.125 265.207031 "/>
<path style="fill:none;stroke-width:1.066978;stroke-linecap:round;stroke-linejoin:round;stroke:rgb(0%,0%,0%);stroke-opacity:1;stroke-miterlimit:10;" d="M 303.691406 92.054688 L 313.921875 92.054688 "/>
<path style="fill:none;stroke-width:1.066978;stroke-linecap:round;stroke-linejoin:round;stroke:rgb(0%,0%,0%);stroke-opacity:1;stroke-miterlimit:10;" d="M 457.125 265.207031 L 457.125 308.492188 "/>
<path style="fill:none;stroke-width:1.066978;stroke-linecap:round;stroke-linejoin:round;stroke:rgb(0%,0%,0%);stroke-opacity:1;stroke-miterlimit:10;" d="M 457.125 265.207031 L 457.125 221.917969 "/>
<path style="fill:none;stroke-width:1.066978;stroke-linecap:round;stroke-linejoin:round;stroke:rgb(0%,0%,0%);stroke-opacity:1;stroke-miterlimit:10;" d="M 313.921875 92.054688 L 313.921875 135.34375 "/>
<path style="fill:none;stroke-width:1.066978;stroke-linecap:round;stroke-linejoin:round;stroke:rgb(0%,0%,0%);stroke-opacity:1;stroke-miterlimit:10;" d="M 313.921875 92.054688 L 313.921875 48.765625 "/>
<path style="fill:none;stroke-width:1.066978;stroke-linecap:round;stroke-linejoin:round;stroke:rgb(0%,0%,0%);stroke-opacity:1;stroke-miterlimit:10;" d="M 303.691406 178.628906 L 303.691406 265.207031 "/>
<path style="fill:none;stroke-width:1.066978;stroke-linecap:round;stroke-linejoin:round;stroke:rgb(0%,0%,0%);stroke-opacity:1;stroke-miterlimit:10;" d="M 303.691406 178.628906 L 303.691406 92.054688 "/>
<path style=" stroke:none;fill-rule:nonzero;fill:rgb(0%,0%,0%);fill-opacity:1;" d="M 485.148438 312.289062 L 485.148438 304.695312 L 486.175781 304.695312 L 486.175781 312.289062 Z M 485.148438 312.289062 "/>
<path style=" stroke:none;fill-rule:nonzero;fill:rgb(0%,0%,0%);fill-opacity:1;" d="M 471.25 225.824219 L 471.066406 225.820312 L 470.894531 225.804688 L 470.726562 225.78125 L 470.5625 225.746094 L 470.410156 225.703125 L 470.261719 225.652344 L 470.121094 225.589844 L 469.984375 225.515625 L 469.855469 225.433594 L 469.734375 225.34375 L 469.621094 225.242188 L 469.515625 225.128906 L 469.417969 225.003906 L 469.328125 224.871094 L 469.246094 224.726562 L 469.171875 224.566406 L 469.105469 224.398438 L 469.050781 224.21875 L 469 224.03125 L 468.957031 223.828125 L 469.964844 223.660156 L 469.976562 223.730469 L 469.988281 223.796875 L 470.003906 223.863281 L 470.019531 223.925781 L 470.039062 223.988281 L 470.054688 224.046875 L 470.074219 224.105469 L 470.121094 224.214844 L 470.144531 224.265625 L 470.167969 224.3125 L 470.222656 224.40625 L 470.25 224.449219 L 470.28125 224.492188 L 470.308594 224.53125 L 470.339844 224.570312 L 470.375 224.605469 L 470.40625 224.640625 L 470.441406 224.675781 L 470.476562 224.707031 L 470.511719 224.734375 L 470.546875 224.765625 L 470.585938 224.789062 L 470.621094 224.816406 L 470.660156 224.839844 L 470.699219 224.859375 L 470.742188 224.878906 L 470.78125 224.894531 L 470.824219 224.914062 L 470.863281 224.925781 L 470.992188 224.960938 L 471.078125 224.976562 L 471.121094 224.980469 L 471.167969 224.984375 L 471.210938 224.988281 L 471.253906 224.988281 L 471.363281 224.984375 L 471.46875 224.972656 L 471.570312 224.953125 L 471.664062 224.925781 L 471.753906 224.890625 L 471.839844 224.851562 L 471.921875 224.800781 L 472 224.742188 L 472.070312 224.675781 L 472.136719 224.605469 L 472.199219 224.523438 L 472.253906 224.433594 L 472.304688 224.339844 L 472.34375 224.238281 L 472.378906 224.128906 L 472.410156 224.011719 L 472.433594 223.886719 L 472.449219 223.757812 L 472.457031 223.617188 L 472.460938 223.472656 L 472.460938 218.960938 L 471 218.960938 L 471 218.121094 L 473.484375 218.121094 L 473.484375 223.558594 L 473.480469 223.664062 L 473.472656 223.769531 L 473.460938 223.871094 L 473.449219 223.96875 L 473.429688 224.066406 L 473.390625 224.253906 L 473.335938 224.433594 L 473.304688 224.519531 L 473.269531 224.601562 L 473.230469 224.683594 L 473.191406 224.761719 L 473.148438 224.839844 L 473.101562 224.910156 L 473.054688 224.984375 L 473.003906 225.050781 L 472.894531 225.183594 L 472.835938 225.242188 L 472.773438 225.300781 L 472.710938 225.351562 L 472.644531 225.40625 L 472.503906 225.5 L 472.429688 225.542969 L 472.273438 225.621094 L 472.191406 225.65625 L 472.109375 225.6875 L 472.023438 225.714844 L 471.933594 225.742188 L 471.84375 225.761719 L 471.75 225.78125 L 471.652344 225.796875 L 471.554688 225.808594 L 471.457031 225.816406 L 471.351562 225.820312 Z M 471.25 225.824219 "/>
<path style=" stroke:none;fill-rule:nonzero;fill:rgb(0%,0%,0%);fill-opacity:1;" d="M 377.574219 139.140625 L 374.539062 135.472656 L 373.546875 136.230469 L 373.546875 139.140625 L 372.515625 139.140625 L 372.515625 131.542969 L 373.546875 131.542969 L 373.546875 135.351562 L 377.207031 131.542969 L 378.417969 131.542969 L 375.183594 134.84375 L 378.851562 139.140625 Z M 377.574219 139.140625 "/>
<path style=" stroke:none;fill-rule:nonzero;fill:rgb(0%,0%,0%);fill-opacity:1;" d="M 372.515625 52.566406 L 372.515625 44.96875 L 373.546875 44.96875 L 373.546875 51.722656 L 377.382812 51.722656 L 377.382812 52.566406 Z M 372.515625 52.566406 "/>
<path style=" stroke:none;fill-rule:nonzero;fill:rgb(0%,0%,0%);fill-opacity:1;" d="M 266.53125 11.699219 L 266.527344 11.84375 L 266.519531 11.984375 L 266.503906 12.121094 L 266.484375 12.253906 L 266.457031 12.378906 L 266.425781 12.503906 L 266.386719 12.625 L 266.292969 12.851562 L 266.234375 12.957031 L 266.175781 13.058594 L 266.109375 13.15625 L 266.039062 13.253906 L 265.964844 13.34375 L 265.886719 13.429688 L 265.804688 13.515625 L 265.71875 13.59375 L 265.625 13.671875 L 265.53125 13.742188 L 265.429688 13.8125 L 265.328125 13.875 L 265.21875 13.9375 L 265.109375 13.992188 L 264.996094 14.046875 L 264.878906 14.097656 L 264.761719 14.144531 L 264.636719 14.1875 L 264.511719 14.226562 L 264.378906 14.265625 L 264.246094 14.296875 L 263.972656 14.351562 L 263.832031 14.375 L 263.691406 14.394531 L 263.550781 14.410156 L 263.40625 14.421875 L 263.257812 14.433594 L 263.109375 14.441406 L 262.8125 14.449219 L 257.992188 14.449219 L 257.992188 4.816406 L 262.570312 4.816406 L 262.734375 4.820312 L 262.894531 4.828125 L 263.054688 4.839844 L 263.207031 4.855469 L 263.355469 4.871094 L 263.503906 4.890625 L 263.785156 4.9375 L 263.917969 4.964844 L 264.050781 4.996094 L 264.179688 5.03125 L 264.300781 5.066406 L 264.421875 5.105469 L 264.535156 5.148438 L 264.644531 5.195312 L 264.753906 5.246094 L 264.855469 5.296875 L 264.953125 5.351562 L 265.046875 5.410156 L 265.136719 5.472656 L 265.300781 5.605469 L 265.375 5.675781 L 265.449219 5.75 L 265.515625 5.828125 L 265.578125 5.910156 L 265.636719 5.992188 L 265.6875 6.078125 L 265.738281 6.167969 L 265.824219 6.355469 L 265.859375 6.453125 L 265.890625 6.554688 L 265.917969 6.660156 L 265.9375 6.769531 L 265.953125 6.882812 L 265.964844 6.996094 L 265.972656 7.113281 L 265.976562 7.234375 L 265.972656 7.398438 L 265.957031 7.554688 L 265.933594 7.707031 L 265.902344 7.851562 L 265.863281 7.992188 L 265.8125 8.128906 L 265.75 8.261719 L 265.683594 8.386719 L 265.605469 8.507812 L 265.519531 8.625 L 265.421875 8.730469 L 265.320312 8.832031 L 265.203125 8.925781 L 265.082031 9.015625 L 264.949219 9.09375 L 264.804688 9.164062 L 264.652344 9.230469 L 264.488281 9.289062 L 264.320312 9.339844 L 264.136719 9.382812 L 264.367188 9.414062 L 264.582031 9.457031 L 264.789062 9.507812 L 264.984375 9.566406 L 265.167969 9.636719 L 265.339844 9.714844 L 265.5 9.800781 L 265.648438 9.898438 L 265.789062 10.003906 L 265.914062 10.121094 L 266.03125 10.242188 L 266.136719 10.375 L 266.226562 10.511719 L 266.308594 10.660156 L 266.375 10.8125 L 266.429688 10.972656 L 266.472656 11.144531 L 266.503906 11.320312 L 266.523438 11.507812 Z M 263.945312 7.507812 L 263.941406 7.382812 L 263.929688 7.265625 L 263.910156 7.152344 L 263.878906 7.050781 L 263.839844 6.953125 L 263.796875 6.867188 L 263.742188 6.785156 L 263.679688 6.710938 L 263.609375 6.644531 L 263.527344 6.585938 L 263.441406 6.535156 L 263.347656 6.488281 L 263.246094 6.445312 L 263.136719 6.410156 L 263.019531 6.382812 L 262.890625 6.355469 L 262.757812 6.335938 L 262.613281 6.324219 L 262.464844 6.316406 L 262.304688 6.3125 L 260.007812 6.3125 L 260.007812 8.699219 L 262.320312 8.699219 L 262.484375 8.695312 L 262.640625 8.6875 L 262.789062 8.671875 L 262.925781 8.652344 L 263.054688 8.625 L 263.175781 8.59375 L 263.285156 8.554688 L 263.382812 8.511719 L 263.476562 8.460938 L 263.554688 8.40625 L 263.628906 8.339844 L 263.695312 8.273438 L 263.753906 8.199219 L 263.804688 8.117188 L 263.847656 8.03125 L 263.882812 7.9375 L 263.910156 7.839844 L 263.929688 7.734375 L 263.941406 7.625 Z M 264.507812 11.542969 L 264.5 11.394531 L 264.492188 11.324219 L 264.46875 11.191406 L 264.453125 11.128906 L 264.433594 11.066406 L 264.410156 11.007812 L 264.355469 10.898438 L 264.324219 10.847656 L 264.292969 10.800781 L 264.253906 10.753906 L 264.21875 10.707031 L 264.175781 10.664062 L 264.089844 10.585938 L 264.039062 10.550781 L 263.992188 10.515625 L 263.9375 10.484375 L 263.886719 10.453125 L 263.832031 10.421875 L 263.773438 10.398438 L 263.714844 10.371094 L 263.65625 10.347656 L 263.59375 10.328125 L 263.527344 10.304688 L 263.394531 10.273438 L 263.324219 10.257812 L 263.183594 10.234375 L 263.109375 10.222656 L 262.960938 10.207031 L 262.882812 10.199219 L 262.726562 10.191406 L 262.644531 10.191406 L 262.566406 10.1875 L 260.007812 10.1875 L 260.007812 12.949219 L 262.796875 12.949219 L 262.875 12.945312 L 262.949219 12.941406 L 263.023438 12.933594 L 263.097656 12.929688 L 263.167969 12.921875 L 263.238281 12.910156 L 263.308594 12.902344 L 263.378906 12.890625 L 263.511719 12.859375 L 263.636719 12.820312 L 263.753906 12.773438 L 263.808594 12.75 L 263.917969 12.695312 L 263.964844 12.664062 L 264.015625 12.628906 L 264.0625 12.59375 L 264.109375 12.554688 L 264.152344 12.515625 L 264.191406 12.472656 L 264.230469 12.425781 L 264.300781 12.332031 L 264.332031 12.28125 L 264.363281 12.226562 L 264.390625 12.171875 L 264.414062 12.109375 L 264.4375 12.050781 L 264.46875 11.917969 L 264.484375 11.847656 L 264.492188 11.777344 L 264.5 11.699219 L 264.503906 11.625 Z M 264.507812 11.542969 "/>
</g>
</svg>
